<svg xmlns="http://www.w3.org/2000/svg" xmlns:xlink="http://www.w3.org/1999/xlink" x="0" y="0" width="662" height="223" style="
        width:662px;
        height:223px;
        background: transparent;
        fill: none;
">
        
        
        <svg xmlns="http://www.w3.org/2000/svg" class="role-diagram-draw-area"><g class="shapes-region" style="stroke: black; fill: none;"><g class="arrow-line"><path class="connection real" stroke-dasharray="" d="  M290,100 L318,100" style="stroke: rgb(0, 0, 0); stroke-width: 1; fill: none; fill-opacity: 1;"/><g stroke="#000" transform="matrix(-1,1.2246467991473532e-16,-1.2246467991473532e-16,-1,320,99.99999999999999)" style="stroke: rgb(0, 0, 0); stroke-width: 1;"><path d=" M10.93,-3.29 Q4.96,-0.45 0,0 Q4.96,0.45 10.93,3.29"/></g></g><g class="arrow-line"><path class="connection real" stroke-dasharray="" d="  M112,190 L208,190" style="stroke: rgb(0, 0, 0); stroke-width: 1; fill: none; fill-opacity: 1;"/><g stroke="#000" transform="matrix(-1,1.2246467991473532e-16,-1.2246467991473532e-16,-1,209.99999999999997,190.00000000000003)" style="stroke: rgb(0, 0, 0); stroke-width: 1;"><path d=" M7.65,-2.3 Q3.47,-0.31 0,0 Q3.47,0.32 7.65,2.3"/></g><g stroke="#000" transform="matrix(1,0,0,1,110,190)" style="stroke: rgb(0, 0, 0); stroke-width: 1;"><path d=" M7.65,-2.3 Q3.47,-0.31 0,0 Q3.47,0.32 7.65,2.3"/></g></g><g class="composite-shape"><path class="real" d=" M109.04,60 L210,60 L210,100 L109.04,100 Z" style="stroke-width: 1; stroke: rgb(0, 0, 0); fill: none; fill-opacity: 1; stroke-dasharray: 6, 6;"/></g><g class="arrow-line"><path class="connection real" stroke-dasharray="" d="  M155.58,60 L167,60" style="stroke: rgb(0, 0, 0); stroke-width: 1; fill: none; fill-opacity: 1;"/><g stroke="none" transform="matrix(-1,1.2246467991473532e-16,-1.2246467991473532e-16,-1,170,59.99999999999999)" style="stroke: none; stroke-width: 1; fill: rgb(0, 0, 0);" fill="#000"><path d=" M8.93,-4.29 L0,0 L8.93,4.29 Z"/></g></g><g class="arrow-line"><path class="connection real" stroke-dasharray="" d="  M170,100 L158.58,100" style="stroke: rgb(0, 0, 0); stroke-width: 1; fill: none; fill-opacity: 1;"/><g stroke="none" fill="#000" transform="matrix(1,-2.4492935982947064e-16,2.4492935982947064e-16,1,155.57692307692307,100)" style="stroke: none; fill: rgb(0, 0, 0); stroke-width: 1;"><path d=" M8.93,-4.29 L0,0 L8.93,4.29 Z"/></g></g><g class="arrow-line"><path class="connection real" stroke-dasharray="" d="  M110.69,113.85 L208.65,113.85" style="stroke: rgb(0, 0, 0); stroke-width: 1; fill: none; fill-opacity: 1;"/><g stroke="none" transform="matrix(1,0,0,1,107.6923076923077,113.84615384615384)" style="stroke: none; stroke-width: 1; fill: rgb(0, 0, 0);" fill="#000"><path d=" M8.93,-4.29 L0,0 L8.93,4.29 Z"/></g></g><g class="arrow-line"><path class="connection real" stroke-dasharray="" d="  M50,70.58 L280.77,70.58" style="stroke: rgb(0, 0, 255); stroke-opacity: 1; stroke-width: 2; fill: none; fill-opacity: 1;"/></g><g/></g><g/><g/><g/></svg>
        <svg xmlns="http://www.w3.org/2000/svg" xmlns:xlink="http://www.w3.org/1999/xlink" width="660" height="221" style="width:660px;height:221px;font-family:Asana-Math, Asana;background:transparent;"><g><g><g><g transform="matrix(1,0,0,1,323,112.56665649414063)"><path transform="matrix(0.0119,0,0,-0.0119,0,0)" d="M9 1C24 -7 40 -11 52 -11C85 -11 124 18 155 65L231 182L242 113C255 28 278 -11 314 -11C336 -11 368 6 400 35L449 79L440 98C404 68 379 53 363 53C348 53 335 63 325 83C316 102 305 139 300 168L282 269L317 318C364 383 391 406 422 406C438 406 450 398 455 383L469 387L484 472C472 479 463 482 454 482C414 482 374 446 312 354L275 299L269 347C257 446 230 482 171 482C145 482 123 474 114 461L56 378L73 368C103 402 123 416 142 416C175 416 197 375 214 277L225 215L185 153C142 86 108 54 80 54C65 54 54 58 52 63L41 91L21 88C21 53 13 27 9 1Z" stroke="rgb(0,0,0)" stroke-opacity="1" stroke-width="8" fill="rgb(0,0,0)" fill-opacity="1"></path></g></g></g></g><g><g><g><g transform="matrix(1,0,0,1,152,207)"><path transform="matrix(0.017,0,0,-0.017,0,0)" d="M483 722L471 733C419 707 383 698 311 691L307 670L355 670C379 670 389 663 389 646C389 638 388 629 387 622L359 468C329 477 302 482 277 482C208 482 114 410 68 323C37 265 17 170 17 86C17 21 32 -11 61 -11C88 -11 125 6 159 33C213 77 246 116 313 217L290 126C279 82 274 50 274 24C274 3 283 -9 300 -9C317 -9 341 3 375 28L456 88L446 107L402 76C388 66 372 59 363 59C355 59 349 68 349 82C349 90 350 99 357 128ZM114 59C98 59 89 73 89 98C89 224 135 380 184 418C197 428 216 433 243 433C287 433 316 427 349 410L337 351C300 171 159 59 114 59Z" stroke="rgb(0,0,0)" stroke-opacity="1" stroke-width="8" fill="rgb(0,0,0)" fill-opacity="1"></path></g></g></g></g><g><g><g><g transform="matrix(1,0,0,1,112,144)"><path transform="matrix(0.017,0,0,-0.017,0,0)" d="M543 227C543 337 459 353 377 365C434 385 459 397 490 425C536 464 559 511 559 562C559 644 501 692 401 692C399 692 389 692 374 691L311 690C299 689 263 689 251 689C232 689 201 690 152 691L100 692L97 664L150 662C174 661 185 653 185 635C185 621 181 589 176 559L89 55C85 37 73 30 31 23L26 -3L63 -2C90 0 105 0 117 0C128 0 154 -1 180 -2L217 -3L237 -4C256 -5 269 -6 277 -6C392 -6 543 87 543 227ZM166 41L217 340L302 340C405 340 455 298 455 211C455 108 382 34 282 34C228 34 207 38 166 41ZM352 655C433 655 473 619 473 544C473 439 399 376 275 376L223 376L272 650C288 650 329 655 352 655Z" stroke="rgb(0,0,0)" stroke-opacity="1" stroke-width="8" fill="rgb(0,0,0)" fill-opacity="1"></path></g></g><g><g><g><g><g transform="matrix(1,0,0,1,122.88021850585938,147.00415649414063)"><path transform="matrix(0.0119,0,0,-0.0119,0,0)" d="M9 1C24 -7 40 -11 52 -11C85 -11 124 18 155 65L231 182L242 113C255 28 278 -11 314 -11C336 -11 368 6 400 35L449 79L440 98C404 68 379 53 363 53C348 53 335 63 325 83C316 102 305 139 300 168L282 269L317 318C364 383 391 406 422 406C438 406 450 398 455 383L469 387L484 472C472 479 463 482 454 482C414 482 374 446 312 354L275 299L269 347C257 446 230 482 171 482C145 482 123 474 114 461L56 378L73 368C103 402 123 416 142 416C175 416 197 375 214 277L225 215L185 153C142 86 108 54 80 54C65 54 54 58 52 63L41 91L21 88C21 53 13 27 9 1Z" stroke="rgb(0,0,0)" stroke-opacity="1" stroke-width="8" fill="rgb(0,0,0)" fill-opacity="1"></path></g></g></g></g></g><g><g transform="matrix(1,0,0,1,129.8333740234375,144)"><path transform="matrix(0.017,0,0,-0.017,0,0)" d="" stroke="rgb(0,0,0)" stroke-opacity="1" stroke-width="8" fill="rgb(0,0,0)" fill-opacity="1"></path></g></g><g><g transform="matrix(1,0,0,1,139.16668701171875,144)"><path transform="matrix(0.017,0,0,-0.017,0,0)" d="M604 347L604 406L65 406L65 347ZM604 134L604 193L65 193L65 134Z" stroke="rgb(0,0,0)" stroke-opacity="1" stroke-width="8" fill="rgb(0,0,0)" fill-opacity="1"></path></g></g><g><g transform="matrix(1,0,0,1,159.0208740234375,144)"><path transform="matrix(0.017,0,0,-0.017,0,0)" d="M555 243L555 299L51 299L51 243Z" stroke="rgb(0,0,0)" stroke-opacity="1" stroke-width="8" fill="rgb(0,0,0)" fill-opacity="1"></path></g></g><g><g transform="matrix(1,0,0,1,172.703125,144)"><path transform="matrix(0.017,0,0,-0.017,0,0)" d="M409 -15C458 -15 530 43 565 74L565 81C562 86 558 90 553 92C531 76 472 25 461 77C461 151 506 393 533 463L533 473C511 465 488 459 465 456L455 445C453 381 421 203 395 146C372 97 311 42 254 42C199 42 184 90 185 137C188 248 238 356 241 467C213 462 187 457 161 453C179 227 9 -91 53 -286C76 -285 109 -281 131 -273L131 -261C81 -173 121 -38 138 36L138 35C204 -77 344 37 395 104L395 101C387 65 354 -15 409 -15Z" stroke="rgb(0,0,0)" stroke-opacity="1" stroke-width="8" fill="rgb(0,0,0)" fill-opacity="1"></path></g></g><g><g><g><g><g transform="matrix(1,0,0,1,183.5833740234375,147.00415649414063)"><path transform="matrix(0.0119,0,0,-0.0119,0,0)" d="M17 152C17 46 62 -11 145 -11C200 -11 260 15 305 57C367 116 411 230 411 331C411 425 361 482 278 482C174 482 17 382 17 152ZM241 444C302 444 335 399 335 315C335 219 304 113 260 60C242 39 216 27 185 27C127 27 93 72 93 151C93 264 132 387 181 427C194 438 217 444 241 444Z" stroke="rgb(0,0,0)" stroke-opacity="1" stroke-width="8" fill="rgb(0,0,0)" fill-opacity="1"></path></g></g></g></g></g><g><g transform="matrix(1,0,0,1,189.86981201171875,144)"><path transform="matrix(0.017,0,0,-0.017,0,0)" d="M371 664L374 692L350 692L260 689C244 689 226 689 183 690L119 692L116 664L163 662C187 661 198 653 198 635C198 621 195 592 189 559L116 125C99 33 98 32 58 28L17 25L13 -3L55 -2C103 -1 126 0 145 0L242 -3L268 -3L271 25L222 28C195 30 186 37 186 57C186 63 187 74 188 78L231 340C381 169 404 140 509 -3L578 0C614 -1 620 -2 646 -3L646 27L626 27C603 27 583 39 562 65L316 367L608 640C624 655 645 665 662 665L683 665L683 692L660 691C639 690 623 689 615 689C605 689 589 690 568 691L548 692L548 663C548 655 538 642 510 614C466 569 297 403 233 353L278 613C285 651 292 658 329 661Z" stroke="rgb(0,0,0)" stroke-opacity="1" stroke-width="8" fill="rgb(0,0,0)" fill-opacity="1"></path></g></g><g><g><g><g><g transform="matrix(1,0,0,1,201.69793701171875,147.00415649414063)"><path transform="matrix(0.0119,0,0,-0.0119,0,0)" d="M17 152C17 46 62 -11 145 -11C200 -11 260 15 305 57C367 116 411 230 411 331C411 425 361 482 278 482C174 482 17 382 17 152ZM241 444C302 444 335 399 335 315C335 219 304 113 260 60C242 39 216 27 185 27C127 27 93 72 93 151C93 264 132 387 181 427C194 438 217 444 241 444Z" stroke="rgb(0,0,0)" stroke-opacity="1" stroke-width="8" fill="rgb(0,0,0)" fill-opacity="1"></path></g></g></g></g></g></g></g><g><g><g><g transform="matrix(1,0,0,1,131.421875,34.86457824707031)"><path transform="matrix(0.017,0,0,-0.017,0,0)" d="M543 227C543 337 459 353 377 365C434 385 459 397 490 425C536 464 559 511 559 562C559 644 501 692 401 692C399 692 389 692 374 691L311 690C299 689 263 689 251 689C232 689 201 690 152 691L100 692L97 664L150 662C174 661 185 653 185 635C185 621 181 589 176 559L89 55C85 37 73 30 31 23L26 -3L63 -2C90 0 105 0 117 0C128 0 154 -1 180 -2L217 -3L237 -4C256 -5 269 -6 277 -6C392 -6 543 87 543 227ZM166 41L217 340L302 340C405 340 455 298 455 211C455 108 382 34 282 34C228 34 207 38 166 41ZM352 655C433 655 473 619 473 544C473 439 399 376 275 376L223 376L272 650C288 650 329 655 352 655Z" stroke="rgb(0,0,0)" stroke-opacity="1" stroke-width="8" fill="rgb(0,0,0)" fill-opacity="1"></path></g></g><g><g><g><g><g transform="matrix(1,0,0,1,142.3021240234375,37.86875)"><path transform="matrix(0.0119,0,0,-0.0119,0,0)" d="M9 1C24 -7 40 -11 52 -11C85 -11 124 18 155 65L231 182L242 113C255 28 278 -11 314 -11C336 -11 368 6 400 35L449 79L440 98C404 68 379 53 363 53C348 53 335 63 325 83C316 102 305 139 300 168L282 269L317 318C364 383 391 406 422 406C438 406 450 398 455 383L469 387L484 472C472 479 463 482 454 482C414 482 374 446 312 354L275 299L269 347C257 446 230 482 171 482C145 482 123 474 114 461L56 378L73 368C103 402 123 416 142 416C175 416 197 375 214 277L225 215L185 153C142 86 108 54 80 54C65 54 54 58 52 63L41 91L21 88C21 53 13 27 9 1Z" stroke="rgb(0,0,0)" stroke-opacity="1" stroke-width="8" fill="rgb(0,0,0)" fill-opacity="1"></path></g></g></g></g></g><g><g transform="matrix(1,0,0,1,149.2552490234375,34.86457824707031)"><path transform="matrix(0.017,0,0,-0.017,0,0)" d="" stroke="rgb(0,0,0)" stroke-opacity="1" stroke-width="8" fill="rgb(0,0,0)" fill-opacity="1"></path></g></g><g><g transform="matrix(1,0,0,1,158.58856201171875,34.86457824707031)"><path transform="matrix(0.017,0,0,-0.017,0,0)" d="M604 347L604 406L65 406L65 347ZM604 134L604 193L65 193L65 134Z" stroke="rgb(0,0,0)" stroke-opacity="1" stroke-width="8" fill="rgb(0,0,0)" fill-opacity="1"></path></g></g><g><g transform="matrix(1,0,0,1,175.046875,34.86457824707031)"><path transform="matrix(0.017,0,0,-0.017,0,0)" d="M263 689C108 689 29 566 29 324C29 207 50 106 85 57C120 8 176 -20 238 -20C389 -20 465 110 465 366C465 585 400 689 263 689ZM245 654C342 654 381 556 381 316C381 103 343 15 251 15C154 15 113 116 113 360C113 571 150 654 245 654Z" stroke="rgb(0,0,0)" stroke-opacity="1" stroke-width="8" fill="rgb(0,0,0)" fill-opacity="1"></path></g></g></g></g><g><g><g><text x="292" y="63.666656494140625" style="white-space:pre;stroke:none;fill:rgb(0,0,255);fill-opacity:1;font-size:12px;font-family:Arial, Helvetica, sans-serif;font-weight:400;font-style:normal;dominant-baseline:text-before-edge;text-decoration:none solid rgb(0, 0, 255);">Current flows into of page</text></g></g></g><g><g><g><text x="164.171875" y="84.453125" style="white-space:pre;stroke:none;fill:rgb(0,0,0);fill-opacity:1;font-size:12px;font-family:Arial, Helvetica, sans-serif;font-weight:400;font-style:normal;dominant-baseline:text-before-edge;text-decoration:none solid rgb(0, 0, 0);">2</text></g></g></g><g><g><g><text x="212" y="73.66665649414062" style="white-space:pre;stroke:none;fill:rgb(0,0,0);fill-opacity:1;font-size:12px;font-family:Arial, Helvetica, sans-serif;font-weight:400;font-style:normal;dominant-baseline:text-before-edge;text-decoration:none solid rgb(0, 0, 0);">1</text></g></g></g><g><g><g><text x="100" y="75.33334350585938" style="white-space:pre;stroke:none;fill:rgb(0,0,0);fill-opacity:1;font-size:12px;font-family:Arial, Helvetica, sans-serif;font-weight:400;font-style:normal;dominant-baseline:text-before-edge;text-decoration:none solid rgb(0, 0, 0);">3</text></g></g></g><g><g><g><text x="164" y="41.33332824707031" style="white-space:pre;stroke:none;fill:rgb(0,0,0);fill-opacity:1;font-size:12px;font-family:Arial, Helvetica, sans-serif;font-weight:400;font-style:normal;dominant-baseline:text-before-edge;text-decoration:none solid rgb(0, 0, 0);">4</text></g></g></g></svg>
</svg>
