<svg xmlns="http://www.w3.org/2000/svg" xmlns:xlink="http://www.w3.org/1999/xlink" x="0" y="0" width="662" height="282" style="
        width:662px;
        height:282px;
        background: transparent;
        fill: none;
">
        
        
        <svg xmlns="http://www.w3.org/2000/svg" class="role-diagram-draw-area"><g class="shapes-region" style="stroke: black; fill: none;"><g class="composite-shape"><path class="real" d=" M150,122.17 C150,83.06 182.27,51.36 222.07,51.36 C261.88,51.36 294.15,83.06 294.15,122.17 C294.15,161.28 261.88,192.98 222.07,192.98 C182.27,192.98 150,161.28 150,122.17 Z" style="stroke-width: 8; stroke: rgb(155, 155, 155); stroke-opacity: 1; fill: none; fill-opacity: 1;"/></g><g class="composite-shape"><path class="real" d=" M195.05,122.17 C195.05,107.5 207.15,95.61 222.07,95.61 C237,95.61 249.1,107.5 249.1,122.17 C249.1,136.83 237,148.72 222.07,148.72 C207.15,148.72 195.05,136.83 195.05,122.17 Z" style="stroke-width: 8; stroke: rgb(155, 155, 155); stroke-opacity: 1; fill: none; fill-opacity: 1;"/></g><g class="arrow-line"><path class="connection real" stroke-dasharray="" d="  M222.07,122.17 L241.89,102.11" style="stroke: rgb(0, 0, 0); stroke-width: 1; fill: none; fill-opacity: 1;"/><g stroke="none" fill="#000" transform="matrix(-0.7028982997921764,0.711290362755793,-0.711290362755793,-0.7028982997921764,244,99.97896291106821)" style="stroke: none; fill: rgb(0, 0, 0); stroke-width: 1;"><path d=" M5.36,-2.57 L0,0 L5.36,2.57 Z"/></g></g><g class="arrow-line"><path class="connection real" stroke-dasharray="" d="  M222.07,122.17 L249.72,63.69" style="stroke: rgb(0, 0, 0); stroke-width: 1; fill: none; fill-opacity: 1;"/><g stroke="none" fill="#000" transform="matrix(-0.42735786338719295,0.9040825496607782,-0.9040825496607782,-0.42735786338719295,251,60.97896291106821)" style="stroke: none; fill: rgb(0, 0, 0); stroke-width: 1;"><path d=" M5.36,-2.57 L0,0 L5.36,2.57 Z"/></g></g><g class="arrow-line"><path class="connection real" stroke-dasharray="" d="  M167,124.43 L157,124.43" style="stroke: rgb(0, 0, 0); stroke-width: 1; fill: none; fill-opacity: 1;"/><g stroke="none" fill="#000" transform="matrix(1,-2.4492935982947064e-16,2.4492935982947064e-16,1,154,124.43208791106821)" style="stroke: none; fill: rgb(0, 0, 0); stroke-width: 1;"><path d=" M6.25,-3 L0,0 L6.25,3 Z"/></g></g><g class="arrow-line"><path class="connection real" stroke-dasharray="" d="  M133,124.43 L143,124.43" style="stroke: rgb(0, 0, 0); stroke-width: 1; fill: none; fill-opacity: 1;"/><g stroke="none" fill="#000" transform="matrix(-1,1.2246467991473532e-16,-1.2246467991473532e-16,-1,145.99999999999997,124.43208791106822)" style="stroke: none; fill: rgb(0, 0, 0); stroke-width: 1;"><path d=" M6.25,-3 L0,0 L6.25,3 Z"/></g></g><g class="composite-shape"><path class="real" d=" M80.96,24 L80.96,258.22 C80.96,263.19 67.52,267.22 50.96,267.22 C34.39,267.22 20.96,263.19 20.96,258.22 L20.96,24 C20.96,19.03 34.39,15 50.96,15 C67.52,15 80.96,19.03 80.96,24 C80.96,28.97 67.52,33 50.96,33 C34.39,33 20.96,28.97 20.96,24" style="stroke-width: 2; stroke: rgb(74, 74, 74); fill: rgb(155, 155, 155); fill-opacity: 1; stroke-opacity: 1;"/></g><g class="composite-shape"><path class="real" d=" M35.91,23.42 C35.91,20.98 42.65,19 50.96,19 C59.26,19 66,20.98 66,23.42 C66,25.86 59.26,27.84 50.96,27.84 C42.65,27.84 35.91,25.86 35.91,23.42 Z" style="stroke-width: 2; stroke: rgb(74, 74, 74); fill: none; fill-opacity: 1; stroke-opacity: 1;"/></g><g class="arrow-line"><path class="connection real" stroke-dasharray="" d="  M35.91,22.42 L35.91,30.22" style="stroke: rgb(74, 74, 74); stroke-width: 2; fill: none; fill-opacity: 1; stroke-opacity: 1;"/></g><g class="arrow-line"><path class="connection real" stroke-dasharray="" d="  M66,23.42 L66,31.22" style="stroke: rgb(74, 74, 74); stroke-opacity: 1; stroke-width: 2; fill: none; fill-opacity: 1;"/></g><g class="arrow-line"><path class="connection real" stroke-dasharray="2.25 3.685" d="  M35.91,27.22 L36,256.22" style="stroke: rgb(74, 74, 74); stroke-opacity: 1; stroke-width: 2; fill: none; fill-opacity: 1;"/></g><g class="arrow-line"><path class="connection real" stroke-dasharray="2.25 3.685" d="  M66,27.22 L66,255.22" style="stroke: rgb(74, 74, 74); stroke-opacity: 1; stroke-width: 2; fill: none; fill-opacity: 1;"/></g><g class="composite-shape"><path class="real" d=" M62.91,256.82 C60.04,258.3 55.72,259.24 50.89,259.22 C45.19,259.19 40.21,257.84 37.49,255.84 L50.92,252.4 Z" style="stroke-width: 2; stroke: none; fill: none; fill-opacity: 1; stroke-dasharray: 2.25, 3.685; stroke-opacity: 1;"/><path class="real" d=" M62.91,256.82 C60.04,258.3 55.72,259.24 50.89,259.22 C45.19,259.19 40.21,257.84 37.49,255.84" style="stroke-width: 2; stroke: rgb(74, 74, 74); fill: none; fill-opacity: 1; stroke-dasharray: 2.25, 3.685; stroke-opacity: 1;"/></g><g/></g><g/><g/><g/></svg>
        <svg xmlns="http://www.w3.org/2000/svg" xmlns:xlink="http://www.w3.org/1999/xlink" width="660" height="280" style="width:660px;height:280px;font-family:Asana-Math, Asana;background:transparent;"><g><g><g><g transform="matrix(1,0,0,1,231,123.93125)"><path transform="matrix(0.0119,0,0,-0.0119,0,0)" d="M271 204L242 77C238 60 236 42 236 26C236 4 245 -9 260 -9C283 -9 324 17 406 85L399 106C375 86 346 59 324 59C315 59 309 68 309 82C309 87 309 90 310 93L402 472L392 481L359 463C318 478 301 482 274 482C246 482 226 477 199 464C137 433 104 403 79 354C35 265 4 145 4 67C4 23 19 -11 38 -11C75 -11 155 41 271 204ZM319 414C297 305 278 253 244 201C187 117 126 59 94 59C82 59 76 72 76 99C76 163 104 280 139 360C163 415 186 433 234 433C257 433 275 429 319 414Z" stroke="rgb(0,0,0)" stroke-opacity="1" stroke-width="8" fill="rgb(0,0,0)" fill-opacity="1"></path></g></g></g></g><g><g><g><g transform="matrix(1,0,0,1,230,83.93125)"><path transform="matrix(0.0119,0,0,-0.0119,0,0)" d="M235 722L223 733C171 707 135 698 63 691L59 670L107 670C131 670 141 663 141 646C141 639 140 628 139 622L38 71C37 68 37 64 37 61C37 22 85 -11 140 -11C177 -11 228 8 271 39C367 107 433 244 433 376C433 414 424 453 412 468C405 477 392 482 377 482C353 482 323 474 295 460C244 433 211 403 149 324ZM322 424C348 424 361 401 361 352C361 288 340 202 310 137C277 68 237 36 183 36C137 36 112 59 112 101C112 135 127 276 208 361C241 395 293 424 322 424Z" stroke="rgb(0,0,0)" stroke-opacity="1" stroke-width="8" fill="rgb(0,0,0)" fill-opacity="1"></path></g></g></g></g><g><g><g><g transform="matrix(1,0,0,1,126,120.93125)"><path transform="matrix(0.0119,0,0,-0.0119,0,0)" d="M125 390L69 107C68 99 56 61 56 31C56 6 67 -9 86 -9C121 -9 156 11 234 74L265 99L255 117L210 86C181 66 161 56 150 56C141 56 136 64 136 76C136 102 150 183 179 328L192 390L299 390L310 440C272 436 238 434 200 434C216 528 227 577 245 631L234 646C214 634 187 622 156 610L131 440C87 419 61 408 43 403L41 390Z" stroke="rgb(0,0,0)" stroke-opacity="1" stroke-width="8" fill="rgb(0,0,0)" fill-opacity="1"></path></g></g></g></g></svg>
</svg>
