<svg xmlns="http://www.w3.org/2000/svg" xmlns:xlink="http://www.w3.org/1999/xlink" x="0" y="0" width="662" height="102" style="
        width:662px;
        height:102px;
        background: transparent;
        fill: none;
">
        
        
        <svg xmlns="http://www.w3.org/2000/svg" class="role-diagram-draw-area"><g class="shapes-region" style="stroke: black; fill: none;"><g class="composite-shape"><path class="real" d=" M43,41 L38,41 L38,61 L43,61 Z" style="stroke-width: 1; stroke: rgb(0, 0, 0); fill: rgb(0, 0, 0); fill-opacity: 1;"/></g><g class="arrow-line"><path class="connection real" stroke-dasharray="" d="  M21,31 L34,31" style="stroke: rgb(0, 0, 0); stroke-width: 1; fill: none; fill-opacity: 1;"/><g stroke="#000" transform="matrix(-1,1.2246467991473532e-16,-1.2246467991473532e-16,-1,35.99999999999999,31.000000000000004)" style="stroke: rgb(0, 0, 0); stroke-width: 1;"><path d=" M6.56,-1.97 Q2.98,-0.27 0,0 Q2.98,0.27 6.56,1.97"/></g></g><g class="arrow-line"><path class="connection real" stroke-dasharray="" d="  M59,31 L47,31" style="stroke: rgb(0, 0, 0); stroke-width: 1; fill: none; fill-opacity: 1;"/><g stroke="#000" transform="matrix(1,-2.4492935982947064e-16,2.4492935982947064e-16,1,45,31)" style="stroke: rgb(0, 0, 0); stroke-width: 1;"><path d=" M6.56,-1.97 Q2.98,-0.27 0,0 Q2.98,0.27 6.56,1.97"/></g></g><g class="arrow-line"><path class="connection real" stroke-dasharray="" d="  M115,34 L43.97,45.68" style="stroke: rgb(0, 0, 0); stroke-width: 1; fill: none; fill-opacity: 1;"/><g stroke="#000" transform="matrix(0.9867709655717658,-0.1621205153722534,0.1621205153722534,0.9867709655717658,42,46)" style="stroke: rgb(0, 0, 0); stroke-width: 1;"><path d=" M6.56,-1.97 Q2.98,-0.27 0,0 Q2.98,0.27 6.56,1.97"/></g></g><g class="grouped-shape"><g class="grouped-shape"><g class="arrow-line"><path class="connection real" stroke-dasharray="" d="  M13,47.65 C53,17.65 83,87.65 123,57.65" style="stroke: rgb(0, 0, 0); stroke-width: 1; fill: none; fill-opacity: 1;"/></g><g class="arrow-line"><path class="connection real" stroke-dasharray="" d="  M13,67.65 C53,37.65 83,107.65 123,77.65" style="stroke: rgb(0, 0, 0); stroke-width: 1; fill: none; fill-opacity: 1;"/></g></g><g class="arrow-line"><path class="connection real" stroke-dasharray="" d="  M123,57.65 L123,77.65" style="stroke: rgb(0, 0, 0); stroke-width: 1; fill: none; fill-opacity: 1;"/></g><g class="arrow-line"><path class="connection real" stroke-dasharray="" d="  M13,47.65 L13,67.65" style="stroke: rgb(0, 0, 0); stroke-width: 1; fill: none; fill-opacity: 1;"/></g></g><g class="arrow-line"><path class="connection real" stroke-dasharray="" d="  M150,70 C144.64,51.96 133.1,59.12 113.52,72.93" style="stroke: rgb(0, 0, 0); stroke-width: 1; fill: none; fill-opacity: 1;"/><g stroke="#000" transform="matrix(0.816440043736558,-0.577430216548673,0.577430216548673,0.816440043736558,112,74)" style="stroke: rgb(0, 0, 0); stroke-width: 1;"><path d=" M6.56,-1.97 Q2.98,-0.27 0,0 Q2.98,0.27 6.56,1.97"/></g></g><g class="arrow-line"><path class="connection real" stroke-dasharray="" d="  M13,63 C24.44,54.2 29.68,54.69 36.57,55.62" style="stroke: rgb(0, 0, 0); stroke-width: 1; fill: none; fill-opacity: 1;"/><g stroke="none" fill="#000" transform="matrix(-0.9931502715267043,-0.1168440763001425,0.1168440763001425,-0.9931502715267043,39.50000000000001,56)" style="stroke: none; fill: rgb(0, 0, 0); stroke-width: 1;"><path d=" M5.36,-2.57 L0,0 L5.36,2.57 Z"/></g></g><g/></g><g/><g/><g/></svg>
        <svg xmlns="http://www.w3.org/2000/svg" xmlns:xlink="http://www.w3.org/1999/xlink" width="660" height="100" style="width:660px;height:100px;font-family:Asana-Math, Asana;background:transparent;"><g><g><g><g transform="matrix(1,0,0,1,36,24.500006103515624)"><path transform="matrix(0.0119,0,0,-0.0119,0,0)" d="M483 722L471 733C419 707 383 698 311 691L307 670L355 670C379 670 389 663 389 646C389 638 388 629 387 622L359 468C329 477 302 482 277 482C208 482 114 410 68 323C37 265 17 170 17 86C17 21 32 -11 61 -11C88 -11 125 6 159 33C213 77 246 116 313 217L290 126C279 82 274 50 274 24C274 3 283 -9 300 -9C317 -9 341 3 375 28L456 88L446 107L402 76C388 66 372 59 363 59C355 59 349 68 349 82C349 90 350 99 357 128ZM114 59C98 59 89 73 89 98C89 224 135 380 184 418C197 428 216 433 243 433C287 433 316 427 349 410L337 351C300 171 159 59 114 59ZM750 722L738 733C686 707 650 698 578 691L574 670L622 670C646 670 656 663 656 648C656 645 656 640 653 622C642 567 569 182 554 132C541 82 535 52 535 31C535 6 546 -9 565 -9C591 -9 627 12 725 85L715 103L689 86C660 67 638 56 628 56C621 56 615 66 615 76C615 82 616 89 619 104Z" stroke="rgb(0,0,0)" stroke-opacity="1" stroke-width="8" fill="rgb(0,0,0)" fill-opacity="1"></path></g></g></g></g><g><g><g><g transform="matrix(1,0,0,1,122,37.30000305175781)"><path transform="matrix(0.017,0,0,-0.017,0,0)" d="M483 722L471 733C419 707 383 698 311 691L307 670L355 670C379 670 389 663 389 646C389 638 388 629 387 622L359 468C329 477 302 482 277 482C208 482 114 410 68 323C37 265 17 170 17 86C17 21 32 -11 61 -11C88 -11 125 6 159 33C213 77 246 116 313 217L290 126C279 82 274 50 274 24C274 3 283 -9 300 -9C317 -9 341 3 375 28L456 88L446 107L402 76C388 66 372 59 363 59C355 59 349 68 349 82C349 90 350 99 357 128ZM114 59C98 59 89 73 89 98C89 224 135 380 184 418C197 428 216 433 243 433C287 433 316 427 349 410L337 351C300 171 159 59 114 59ZM650 -172C650 -95 674 -59 727 -59C756 -59 784 -67 823 -88L968 -164C1028 -195 1046 -201 1086 -201C1161 -201 1197 -158 1207 -61L1182 -61C1176 -115 1154 -140 1114 -140C1097 -140 1078 -135 1052 -125L816 -29C791 -19 773 -15 750 -15C676 -15 625 -66 625 -142C625 -144 625 -151 626 -159ZM1247 425C1247 603 1143 706 963 706C726 706 552 523 552 272C552 83 646 -18 822 -18C1094 -18 1247 207 1247 425ZM1159 409C1159 221 1070 24 859 24C715 24 640 110 640 277C640 425 698 664 932 664C1048 664 1159 610 1159 409Z" stroke="rgb(0,0,0)" stroke-opacity="1" stroke-width="8" fill="rgb(0,0,0)" fill-opacity="1"></path></g></g><g><g transform="matrix(1,0,0,1,148.79376220703125,37.30000305175781)"><path transform="matrix(0.017,0,0,-0.017,0,0)" d="M604 347L604 406L65 406L65 347ZM604 134L604 193L65 193L65 134Z" stroke="rgb(0,0,0)" stroke-opacity="1" stroke-width="8" fill="rgb(0,0,0)" fill-opacity="1"></path></g></g><g><g transform="matrix(1,0,0,1,165.25,37.30000305175781)"><path transform="matrix(0.017,0,0,-0.017,0,0)" d="M209 656L209 648C211 643 213 639 218 637C235 642 266 653 282 653C334 653 343 500 347 460C219 320 120 161 25 -2L35 -16C60 -5 85 4 111 13C154 159 261 308 353 428C361 365 384 13 401 -6C456 -42 528 44 570 74L570 87L558 87L558 88C541 77 512 55 491 55C452 55 444 188 439 219C424 326 399 672 383 689C347 728 251 667 209 656Z" stroke="rgb(0,0,0)" stroke-opacity="1" stroke-width="8" fill="rgb(0,0,0)" fill-opacity="1"></path></g></g><g><g transform="matrix(1,0,0,1,175.75628662109375,37.69999694824219)"><path transform="matrix(0.017,0,0,-0.017,0,0)" d="M146 266C146 526 243 632 301 700L282 726C225 675 60 542 60 266C60 159 85 58 133 -32C168 -99 200 -138 282 -215L301 -194C255 -137 146 -15 146 266Z" stroke="rgb(0,0,0)" stroke-opacity="1" stroke-width="8" fill="rgb(0,0,0)" fill-opacity="1"></path></g></g><g><g transform="matrix(1,0,0,1,181.40625,37.30000305175781)"><path transform="matrix(0.017,0,0,-0.017,0,0)" d="M251 722L239 733C187 707 151 698 79 691L75 670L123 670C147 670 157 663 157 648C157 645 157 640 154 622C143 567 70 182 55 132C42 82 36 52 36 31C36 6 47 -9 66 -9C92 -9 128 12 226 85L216 103L190 86C161 67 139 56 129 56C122 56 116 66 116 76C116 82 117 89 120 104Z" stroke="rgb(0,0,0)" stroke-opacity="1" stroke-width="8" fill="rgb(0,0,0)" fill-opacity="1"></path></g></g><g><g transform="matrix(1,0,0,1,186.1187744140625,37.69999694824219)"><path transform="matrix(0.017,0,0,-0.017,0,0)" d="M51 726L32 700C87 636 187 526 187 266C187 -10 83 -131 32 -194L51 -215C104 -165 273 -23 273 265C273 542 108 675 51 726Z" stroke="rgb(0,0,0)" stroke-opacity="1" stroke-width="8" fill="rgb(0,0,0)" fill-opacity="1"></path></g></g><g><g transform="matrix(1,0,0,1,191.76873779296875,37.30000305175781)"><path transform="matrix(0.017,0,0,-0.017,0,0)" d="M732 722L720 733C668 707 632 698 560 691L556 670L604 670C628 670 638 663 638 646C638 638 637 629 636 622L608 468C578 477 551 482 526 482C457 482 363 410 317 323C286 265 266 170 266 86C266 21 281 -11 310 -11C337 -11 374 6 408 33C462 77 495 116 562 217L539 126C528 82 523 50 523 24C523 3 532 -9 549 -9C566 -9 590 3 624 28L705 88L695 107L651 76C637 66 621 59 612 59C604 59 598 68 598 82C598 90 599 99 606 128ZM363 59C347 59 338 73 338 98C338 224 384 380 433 418C446 428 465 433 492 433C536 433 565 427 598 410L586 351C549 171 408 59 363 59ZM999 722L987 733C935 707 899 698 827 691L823 670L871 670C895 670 905 663 905 648C905 645 905 640 902 622C891 567 818 182 803 132C790 82 784 52 784 31C784 6 795 -9 814 -9C840 -9 876 12 974 85L964 103L938 86C909 67 887 56 877 56C870 56 864 66 864 76C864 82 865 89 868 104Z" stroke="rgb(0,0,0)" stroke-opacity="1" stroke-width="8" fill="rgb(0,0,0)" fill-opacity="1"></path></g></g><g><g transform="matrix(1,0,0,1,214.29376220703125,37.30000305175781)"><path transform="matrix(0.017,0,0,-0.017,0,0)" d="M604 347L604 406L65 406L65 347ZM604 134L604 193L65 193L65 134Z" stroke="rgb(0,0,0)" stroke-opacity="1" stroke-width="8" fill="rgb(0,0,0)" fill-opacity="1"></path></g></g><g><svg x="231.9375" overflow="visible" y="11.699996948242188" height="40" width="7.650000095367432"><path d=" M 5.98 1.70 l -0.10 -0.10 q -1.09 0.03 -2.16 0.03 q -1.02 0.00 -2.14 -0.03 l -0.15 0.22 q 0.15 0.58 0.15 3.15 v 0.85 h 1.43 v -0.85 q 0.00 -1.31 0.07 -2.14 q 0.05 -0.60 1.19 -0.60 h 1.65 l 0.07 -0.09 v -0.44 z  M 1.58 5.63 v 28.75 h 1.43 v -28.75 z " style="fill:rgb(0,0,0);fill-opacity:1;stroke-width:1px;stroke:none;stroke-opacity:1;"></path><path d=" M 5.98 38.30 l -0.10 0.10 q -1.09 -0.03 -2.16 -0.03 q -1.02 0.00 -2.14 0.03 l -0.15 -0.22 q 0.15 -0.58 0.15 -3.15 v -0.85 h 1.43 v 0.85 q 0.00 1.31 0.07 2.14 q 0.05 0.60 1.19 0.60 h 1.65 l 0.07 0.09 v 0.44 z" style="fill:rgb(0,0,0);fill-opacity:1;stroke-width:1px;stroke:none;stroke-opacity:1;"></path></svg></g><g><g><g><g><g><g><g><text x="240.86248779296875" y="15.949996948242188" style="white-space:pre;stroke:none;fill:rgb(0,0,0);fill-opacity:1;font-size:11.25px;font-family:Arial, Helvetica, sans-serif;font-weight:400;font-style:normal;dominant-baseline:text-before-edge;text-decoration:none solid rgb(0, 0, 0);">Charge</text></g></g></g></g></g></g><g><g><g><g><g><g><text x="242.10626220703125" y="35.19999694824219" style="white-space:pre;stroke:none;fill:rgb(0,0,0);fill-opacity:1;font-size:11.25px;font-family:Arial, Helvetica, sans-serif;font-weight:400;font-style:normal;dominant-baseline:text-before-edge;text-decoration:none solid rgb(0, 0, 0);">Length</text></g></g></g></g></g></g><line style="fill:none;stroke-width:1px;stroke:rgb(0, 0, 0);" x1="240.86248779296875" y1="33.037506103515625" x2="277.7562370300293" y2="33.037506103515625"></line></g><g><g transform="matrix(1,0,0,1,279.03125,37.30000305175781)"><path transform="matrix(0.017,0,0,-0.017,0,0)" d="" stroke="rgb(0,0,0)" stroke-opacity="1" stroke-width="8" fill="rgb(0,0,0)" fill-opacity="1"></path></g></g><g><text x="283.26873779296875" y="22.300003051757812" style="white-space:pre;stroke:none;fill:rgb(0,0,0);fill-opacity:1;font-size:17px;font-family:Arial, Helvetica, sans-serif;font-weight:400;font-style:normal;dominant-baseline:text-before-edge;text-decoration:none solid rgb(0, 0, 0);">at</text></g><g><g transform="matrix(1,0,0,1,297.45001220703125,37.30000305175781)"><path transform="matrix(0.017,0,0,-0.017,0,0)" d="M500 722L488 733C436 707 400 698 328 691L324 670L372 670C396 670 406 663 406 648C406 645 406 640 403 622C392 567 319 182 304 132C291 82 285 52 285 31C285 6 296 -9 315 -9C341 -9 377 12 475 85L465 103L439 86C410 67 388 56 378 56C371 56 365 66 365 76C365 82 366 89 369 104Z" stroke="rgb(0,0,0)" stroke-opacity="1" stroke-width="8" fill="rgb(0,0,0)" fill-opacity="1"></path></g></g><g><svg x="306.39373779296875" overflow="visible" y="11.699996948242188" height="40" width="7.650000095367432"><path d=" M 1.57 1.70 l 0.10 -0.10 q 1.09 0.03 2.16 0.03 q 1.02 0.00 2.14 -0.03 l 0.15 0.22 q -0.15 0.58 -0.15 3.15 v 0.85 h -1.43 v -0.85 q 0.00 -1.31 -0.07 -2.14 q -0.05 -0.60 -1.19 -0.60 h -1.65 l -0.07 -0.09 v -0.44 z  M 5.97 5.63 v 28.75 h -1.43 v -28.75 z" style="fill:rgb(0,0,0);fill-opacity:1;stroke-width:1px;stroke:none;stroke-opacity:1;"></path><path d=" M 1.57 38.30 l 0.10 0.10 q 1.09 -0.03 2.16 -0.03 q 1.02 0.00 2.14 0.03 l 0.15 -0.22 q -0.15 -0.58 -0.15 -3.15 v -0.85 h -1.43 v 0.85 q 0.00 1.31 -0.07 2.14 q -0.05 0.60 -1.19 0.60 h -1.65 l -0.07 0.09 v 0.44 z" style="fill:rgb(0,0,0);fill-opacity:1;stroke-width:1px;stroke:none;stroke-opacity:1;"></path></svg></g><g><g transform="matrix(1,0,0,1,315.23126220703125,37.30000305175781)"><path transform="matrix(0.017,0,0,-0.017,0,0)" d="M88 -184C88 -184 182 -183 182 -183C182 -183 282 -184 282 -184L288 -178L288 -152L284 -147L246 -147C219 -147 197 -141 185 -131C176 -122 173 -108 173 -75L173 616C173 649 176 664 185 673C197 683 219 689 246 689L284 689L288 694L288 720L282 726L188 723L88 726C84 717 83 706 83 691C83 665 87 628 87 578L87 -44C87 -112 85 -140 79 -171Z" stroke="rgb(0,0,0)" stroke-opacity="1" stroke-width="8" fill="rgb(0,0,0)" fill-opacity="1"></path></g></g><g><g><g><g><text x="320.88128662109375" y="23.900009155273438" style="white-space:pre;stroke:none;fill:rgb(0,0,0);fill-opacity:1;font-size:15px;font-family:Arial, Helvetica, sans-serif;font-weight:400;font-style:normal;dominant-baseline:text-before-edge;text-decoration:none solid rgb(0, 0, 0);">Length of </text></g></g></g></g><g><g transform="matrix(1,0,0,1,387.60626220703125,37.30000305175781)"><path transform="matrix(0.017,0,0,-0.017,0,0)" d="M483 722L471 733C419 707 383 698 311 691L307 670L355 670C379 670 389 663 389 646C389 638 388 629 387 622L359 468C329 477 302 482 277 482C208 482 114 410 68 323C37 265 17 170 17 86C17 21 32 -11 61 -11C88 -11 125 6 159 33C213 77 246 116 313 217L290 126C279 82 274 50 274 24C274 3 283 -9 300 -9C317 -9 341 3 375 28L456 88L446 107L402 76C388 66 372 59 363 59C355 59 349 68 349 82C349 90 350 99 357 128ZM114 59C98 59 89 73 89 98C89 224 135 380 184 418C197 428 216 433 243 433C287 433 316 427 349 410L337 351C300 171 159 59 114 59ZM750 722L738 733C686 707 650 698 578 691L574 670L622 670C646 670 656 663 656 648C656 645 656 640 653 622C642 567 569 182 554 132C541 82 535 52 535 31C535 6 546 -9 565 -9C591 -9 627 12 725 85L715 103L689 86C660 67 638 56 628 56C621 56 615 66 615 76C615 82 616 89 619 104Z" stroke="rgb(0,0,0)" stroke-opacity="1" stroke-width="8" fill="rgb(0,0,0)" fill-opacity="1"></path></g></g><g><g transform="matrix(1,0,0,1,400.79998779296875,37.30000305175781)"><path transform="matrix(0.017,0,0,-0.017,0,0)" d="M245 -184L254 -171C248 -140 246 -112 246 -44L246 578C246 628 250 665 250 691C250 706 249 717 245 726L51 726L45 720L45 694L49 689L87 689C114 689 136 683 148 673C157 664 160 649 160 616L160 -75C160 -108 157 -122 148 -131C136 -141 114 -147 87 -147L49 -147L45 -152L45 -178L51 -184Z" stroke="rgb(0,0,0)" stroke-opacity="1" stroke-width="8" fill="rgb(0,0,0)" fill-opacity="1"></path></g></g></g></g><g><g><g><text x="144" y="73.19999694824219" style="white-space:pre;stroke:none;fill:rgb(0,0,0);fill-opacity:1;font-size:15px;font-family:Arial, Helvetica, sans-serif;font-weight:400;font-style:normal;dominant-baseline:text-before-edge;text-decoration:none solid rgb(0, 0, 0);">Segment of line </text></g><g><g><g><g><g transform="matrix(1,0,0,1,252.4000244140625,86.60000610351562)"><path transform="matrix(0.017,0,0,-0.017,0,0)" d="M332 534C332 598 346 656 408 656C452 656 495 640 507 590C508 585 509 579 509 574C509 560 504 547 496 537L499 526C520 534 583 567 583 595C583 663 468 689 425 689C255 689 225 580 225 451C225 379 234 300 234 232C234 192 218 75 172 75C144 75 115 86 87 86C50 86 18 13 11 -17L18 -24C32 -10 53 6 76 6C245 6 382 -86 551 -86C653 -86 677 -20 685 67L678 77C647 30 591 0 527 0C418 0 345 33 234 60C308 145 344 240 344 358C344 420 332 464 332 534Z" stroke="rgb(0,0,0)" stroke-opacity="1" stroke-width="8" fill="rgb(0,0,0)" fill-opacity="1"></path></g></g></g></g></g></g></g><g><g><g><g transform="matrix(1,0,0,1,22,54.500006103515624)"><path transform="matrix(0.0119,0,0,-0.0119,0,0)" d="M251 722L239 733C187 707 151 698 79 691L75 670L123 670C147 670 157 663 157 648C157 645 157 640 154 622C143 567 70 182 55 132C42 82 36 52 36 31C36 6 47 -9 66 -9C92 -9 128 12 226 85L216 103L190 86C161 67 139 56 129 56C122 56 116 66 116 76C116 82 117 89 120 104Z" stroke="rgb(0,0,0)" stroke-opacity="1" stroke-width="8" fill="rgb(0,0,0)" fill-opacity="1"></path></g></g></g></g></svg>
</svg>
