<svg xmlns="http://www.w3.org/2000/svg" xmlns:xlink="http://www.w3.org/1999/xlink" x="0" y="0" width="662" height="236" style="
        width:662px;
        height:236px;
        background: transparent;
        fill: none;
">
        
        
        <svg xmlns="http://www.w3.org/2000/svg" class="role-diagram-draw-area"><g class="shapes-region" style="stroke: black; fill: none;"><g class="composite-shape" data-amt="diagram/shapes/plot" transform="matrix(1,0,0,1,55,17)"><g><g><g class="test-xgi"><line x1="4.344624067978742" y1="0" x2="4.344624067978742" y2="200" fill="none" stroke="#c3c3c3" stroke-width="0.5"/><line x1="100.62465783387981" y1="0" x2="100.62465783387981" y2="200" fill="none" stroke="#c3c3c3" stroke-width="0.5"/><line x1="196.90469159978085" y1="0" x2="196.90469159978085" y2="200" fill="none" stroke="#c3c3c3" stroke-width="0.5"/><line x1="293.1847253656819" y1="0" x2="293.1847253656819" y2="200" fill="none" stroke="#c3c3c3" stroke-width="0.5"/></g><g class="test-ygi"><line x1="0" y1="182.58717870202923" x2="317" y2="182.58717870202923" fill="none" stroke="#c3c3c3" stroke-width="0.5"/><line x1="0" y1="86.47878026452925" x2="317" y2="86.47878026452925" fill="none" stroke="#c3c3c3" stroke-width="0.5"/></g></g><g><g class="test-xti" style="font-family: Asana-Math, Asana;"><line x1="0" y1="182.58717870202923" x2="313" y2="182.58717870202923" fill="none" stroke="rgb(50,50,50)" stroke-opacity="1" stroke-width="1"/><line x1="100.62465783387981" y1="178.58717870202923" x2="100.62465783387981" y2="186.58717870202923" fill="none" stroke="rgb(50,50,50)" stroke-opacity="1" stroke-width="1"/><line x1="196.90469159978085" y1="178.58717870202923" x2="196.90469159978085" y2="186.58717870202923" fill="none" stroke="rgb(50,50,50)" stroke-opacity="1" stroke-width="1"/><line x1="293.1847253656819" y1="178.58717870202923" x2="293.1847253656819" y2="186.58717870202923" fill="none" stroke="rgb(50,50,50)" stroke-opacity="1" stroke-width="1"/><path d="M308,178.98717870202924 L316,182.58717870202923 L308,186.18717870202923 Z" stroke="none" stroke-width="1" fill="rgb(50,50,50)" fill-opacity="1"/></g><g class="test-plot-expression"><defs><clipPath id="cp4s88a0vou"><rect x="1" y="1" width="315" height="198"/></clipPath></defs><g clip-path="url(#cp4s88a0vou)"><path d=" M4.34,182.59 L4.50,182.59 L4.65,182.59 L4.80,182.59 L4.95,182.59 L5.11,182.59 L5.26,182.59 L5.41,182.59 L5.56,182.59 L5.71,182.59 L5.87,182.59 L6.02,182.59 L6.17,182.59 L6.32,182.59 L6.47,182.59 L6.63,182.59 L6.78,182.59 L6.93,182.59 L7.08,182.59 L7.23,182.59 L7.39,182.59 L7.54,182.59 L7.69,182.59 L7.84,182.59 L8.00,182.59 L8.15,182.59 L8.30,182.59 L8.45,182.59 L8.60,182.59 L8.76,182.59 L8.91,182.59 L9.06,182.59 L9.21,182.59 L9.36,182.59 L9.52,182.59 L9.67,182.59 L9.82,182.59 L9.97,182.59 L10.12,182.59 L10.28,182.59 L10.43,182.59 L10.58,182.59 L10.73,182.59 L10.88,182.59 L11.04,182.59 L11.19,182.59 L11.34,182.59 L11.49,182.59 L11.65,182.59 L11.80,182.59 L11.95,182.59 L12.10,182.59 L12.25,182.59 L12.41,182.59 L12.56,182.59 L12.71,182.59 L12.86,182.59 L13.01,182.59 L13.17,182.59 L13.32,182.59 L13.47,182.59 L13.62,182.59 L13.77,182.59 L13.93,182.59 L14.08,182.59 L14.23,182.59 L14.38,182.59 L14.54,182.59 L14.69,182.59 L14.84,182.59 L14.99,182.59 L15.14,182.59 L15.30,182.59 L15.45,182.59 L15.60,182.59 L15.75,182.58 L15.90,182.58 L16.06,182.58 L16.21,182.58 L16.36,182.58 L16.51,182.58 L16.66,182.58 L16.82,182.58 L16.97,182.58 L17.12,182.58 L17.27,182.58 L17.43,182.58 L17.58,182.58 L17.73,182.58 L17.88,182.58 L18.03,182.58 L18.19,182.58 L18.34,182.58 L18.49,182.58 L18.64,182.58 L18.79,182.58 L18.95,182.58 L19.10,182.58 L19.25,182.58 L19.40,182.58 L19.55,182.58 L19.71,182.58 L19.86,182.58 L20.01,182.58 L20.16,182.58 L20.32,182.58 L20.47,182.57 L20.62,182.57 L20.77,182.57 L20.92,182.57 L21.08,182.57 L21.23,182.57 L21.38,182.57 L21.53,182.57 L21.68,182.57 L21.84,182.57 L21.99,182.57 L22.14,182.57 L22.29,182.57 L22.44,182.56 L22.60,182.56 L22.75,182.56 L22.90,182.56 L23.05,182.56 L23.21,182.56 L23.36,182.56 L23.51,182.56 L23.66,182.56 L23.81,182.55 L23.97,182.55 L24.12,182.55 L24.27,182.55 L24.42,182.55 L24.57,182.55 L24.73,182.55 L24.88,182.54 L25.03,182.54 L25.18,182.54 L25.33,182.54 L25.49,182.54 L25.64,182.54 L25.79,182.53 L25.94,182.53 L26.10,182.53 L26.25,182.53 L26.40,182.53 L26.55,182.52 L26.70,182.52 L26.86,182.52 L27.01,182.52 L27.16,182.52 L27.31,182.51 L27.46,182.51 L27.62,182.51 L27.77,182.51 L27.92,182.50 L28.07,182.50 L28.22,182.50 L28.38,182.49 L28.53,182.49 L28.68,182.49 L28.83,182.48 L28.99,182.48 L29.14,182.48 L29.29,182.47 L29.44,182.47 L29.59,182.47 L29.75,182.46 L29.90,182.46 L30.05,182.46 L30.20,182.45 L30.35,182.45 L30.51,182.44 L30.66,182.44 L30.81,182.44 L30.96,182.43 L31.11,182.43 L31.27,182.42 L31.42,182.42 L31.57,182.41 L31.72,182.41 L31.87,182.40 L32.03,182.40 L32.18,182.39 L32.33,182.39 L32.48,182.38 L32.64,182.38 L32.79,182.37 L32.94,182.37 L33.09,182.36 L33.24,182.35 L33.40,182.35 L33.55,182.34 L33.70,182.33 L33.85,182.33 L34.00,182.32 L34.16,182.31 L34.31,182.31 L34.46,182.30 L34.61,182.29 L34.76,182.28 L34.92,182.28 L35.07,182.27 L35.22,182.26 L35.37,182.25 L35.53,182.24 L35.68,182.24 L35.83,182.23 L35.98,182.22 L36.13,182.21 L36.29,182.20 L36.44,182.19 L36.59,182.18 L36.74,182.17 L36.89,182.16 L37.05,182.15 L37.20,182.14 L37.35,182.13 L37.50,182.12 L37.65,182.11 L37.81,182.10 L37.96,182.09 L38.11,182.08 L38.26,182.07 L38.42,182.05 L38.57,182.04 L38.72,182.03 L38.87,182.02 L39.02,182.00 L39.18,181.99 L39.33,181.98 L39.48,181.97 L39.63,181.95 L39.78,181.94 L39.94,181.92 L40.09,181.91 L40.24,181.89 L40.39,181.88 L40.54,181.87 L40.70,181.85 L40.85,181.83 L41.00,181.82 L41.15,181.80 L41.31,181.79 L41.46,181.77 L41.61,181.75 L41.76,181.74 L41.91,181.72 L42.07,181.70 L42.22,181.68 L42.37,181.66 L42.52,181.65 L42.67,181.63 L42.83,181.61 L42.98,181.59 L43.13,181.57 L43.28,181.55 L43.43,181.53 L43.59,181.51 L43.74,181.49 L43.89,181.46 L44.04,181.44 L44.20,181.42 L44.35,181.40 L44.50,181.37 L44.65,181.35 L44.80,181.33 L44.96,181.30 L45.11,181.28 L45.26,181.26 L45.41,181.23 L45.56,181.20 L45.72,181.18 L45.87,181.15 L46.02,181.13 L46.17,181.10 L46.32,181.07 L46.48,181.04 L46.63,181.02 L46.78,180.99 L46.93,180.96 L47.09,180.93 L47.24,180.90 L47.39,180.87 L47.54,180.84 L47.69,180.81 L47.85,180.78 L48.00,180.75 L48.15,180.71 L48.30,180.68 L48.45,180.65 L48.61,180.61 L48.76,180.58 L48.91,180.55 L49.06,180.51 L49.21,180.47 L49.37,180.44 L49.52,180.40 L49.67,180.36 L49.82,180.33 L49.97,180.29 L50.13,180.25 L50.28,180.21 L50.43,180.17 L50.58,180.13 L50.74,180.09 L50.89,180.05 L51.04,180.01 L51.19,179.97 L51.34,179.92 L51.50,179.88 L51.65,179.84 L51.80,179.79 L51.95,179.75 L52.10,179.70 L52.26,179.65 L52.41,179.61 L52.56,179.56 L52.71,179.51 L52.86,179.46 L53.02,179.41 L53.17,179.36 L53.32,179.31 L53.47,179.26 L53.63,179.21 L53.78,179.16 L53.93,179.11 L54.08,179.05 L54.23,179.00 L54.39,178.94 L54.54,178.89 L54.69,178.83 L54.84,178.77 L54.99,178.71 L55.15,178.66 L55.30,178.60 L55.45,178.54 L55.60,178.48 L55.75,178.42 L55.91,178.35 L56.06,178.29 L56.21,178.23 L56.36,178.16 L56.52,178.10 L56.67,178.03 L56.82,177.97 L56.97,177.90 L57.12,177.83 L57.28,177.76 L57.43,177.69 L57.58,177.62 L57.73,177.55 L57.88,177.48 L58.04,177.40 L58.19,177.33 L58.34,177.26 L58.49,177.18 L58.64,177.10 L58.80,177.03 L58.95,176.95 L59.10,176.87 L59.25,176.79 L59.41,176.71 L59.56,176.63 L59.71,176.54 L59.86,176.46 L60.01,176.38 L60.17,176.29 L60.32,176.20 L60.47,176.12 L60.62,176.03 L60.77,175.94 L60.93,175.85 L61.08,175.76 L61.23,175.67 L61.38,175.57 L61.53,175.48 L61.69,175.39 L61.84,175.29 L61.99,175.19 L62.14,175.09 L62.30,174.99 L62.45,174.89 L62.60,174.79 L62.75,174.69 L62.90,174.59 L63.06,174.48 L63.21,174.38 L63.36,174.27 L63.51,174.16 L63.66,174.05 L63.82,173.94 L63.97,173.83 L64.12,173.72 L64.27,173.61 L64.42,173.49 L64.58,173.38 L64.73,173.26 L64.88,173.14 L65.03,173.02 L65.19,172.90 L65.34,172.78 L65.49,172.66 L65.64,172.53 L65.79,172.41 L65.95,172.28 L66.10,172.16 L66.25,172.03 L66.40,171.90 L66.55,171.76 L66.71,171.63 L66.86,171.50 L67.01,171.36 L67.16,171.22 L67.31,171.09 L67.47,170.95 L67.62,170.81 L67.77,170.66 L67.92,170.52 L68.08,170.37 L68.23,170.23 L68.38,170.08 L68.53,169.93 L68.68,169.78 L68.84,169.63 L68.99,169.47 L69.14,169.32 L69.29,169.16 L69.44,169.01 L69.60,168.85 L69.75,168.68 L69.90,168.52 L70.05,168.36 L70.20,168.19 L70.36,168.03 L70.51,167.86 L70.66,167.69 L70.81,167.52 L70.96,167.34 L71.12,167.17 L71.27,166.99 L71.42,166.81 L71.57,166.63 L71.73,166.45 L71.88,166.27 L72.03,166.08 L72.18,165.90 L72.33,165.71 L72.49,165.52 L72.64,165.33 L72.79,165.14 L72.94,164.94 L73.09,164.75 L73.25,164.55 L73.40,164.35 L73.55,164.15 L73.70,163.94 L73.85,163.74 L74.01,163.53 L74.16,163.32 L74.31,163.11 L74.46,162.90 L74.62,162.68 L74.77,162.47 L74.92,162.25 L75.07,162.03 L75.22,161.81 L75.38,161.58 L75.53,161.36 L75.68,161.13 L75.83,160.90 L75.98,160.67 L76.14,160.43 L76.29,160.20 L76.44,159.96 L76.59,159.72 L76.74,159.48 L76.90,159.23 L77.05,158.99 L77.20,158.74 L77.35,158.49 L77.51,158.24 L77.66,157.98 L77.81,157.73 L77.96,157.47 L78.11,157.21 L78.27,156.95 L78.42,156.68 L78.57,156.41 L78.72,156.15 L78.87,155.87 L79.03,155.60 L79.18,155.32 L79.33,155.05 L79.48,154.77 L79.63,154.48 L79.79,154.20 L79.94,153.91 L80.09,153.62 L80.24,153.33 L80.40,153.03 L80.55,152.74 L80.70,152.44 L80.85,152.14 L81.00,151.83 L81.16,151.53 L81.31,151.22 L81.46,150.91 L81.61,150.59 L81.76,150.28 L81.92,149.96 L82.07,149.64 L82.22,149.31 L82.37,148.99 L82.52,148.66 L82.68,148.33 L82.83,147.99 L82.98,147.66 L83.13,147.32 L83.29,146.98 L83.44,146.63 L83.59,146.29 L83.74,145.94 L83.89,145.58 L84.05,145.23 L84.20,144.87 L84.35,144.51 L84.50,144.15 L84.65,143.78 L84.81,143.41 L84.96,143.04 L85.11,142.66 L85.26,142.29 L85.41,141.91 L85.57,141.52 L85.72,141.14 L85.87,140.75 L86.02,140.36 L86.18,139.96 L86.33,139.57 L86.48,139.17 L86.63,138.76 L86.78,138.35 L86.94,137.95 L87.09,137.53 L87.24,137.12 L87.39,136.70 L87.54,136.28 L87.70,135.85 L87.85,135.42 L88.00,134.99 L88.15,134.56 L88.30,134.12 L88.46,133.68 L88.61,133.24 L88.76,132.79 L88.91,132.34 L89.06,131.89 L89.22,131.43 L89.37,130.97 L89.52,130.51 L89.67,130.04 L89.83,129.57 L89.98,129.10 L90.13,128.62 L90.28,128.14 L90.43,127.66 L90.59,127.17 L90.74,126.68 L90.89,126.18 L91.04,125.69 L91.19,125.19 L91.35,124.68 L91.50,124.17 L91.65,123.66 L91.80,123.15 L91.95,122.63 L92.11,122.11 L92.26,121.58 L92.41,121.05 L92.56,120.52 L92.72,119.98 L92.87,119.44 L93.02,118.90 L93.17,118.35 L93.32,117.80 L93.48,117.24 L93.63,116.68 L93.78,116.12 L93.93,115.55 L94.08,114.98 L94.24,114.40 L94.39,113.82 L94.54,113.24 L94.69,112.66 L94.84,112.06 L95.00,111.47 L95.15,110.87 L95.30,110.27 L95.45,109.66 L95.61,109.05 L95.76,108.44 L95.91,107.82 L96.06,107.19 L96.21,106.57 L96.37,105.94 L96.52,105.30 L96.67,104.66 L96.82,104.02 L96.97,103.37 L97.13,102.72 L97.28,102.06 L97.43,101.40 L97.58,100.73 L97.73,100.06 L97.89,99.39 L98.04,98.71 L98.19,98.03 L98.34,97.34 L98.50,96.65 L98.65,95.95 L98.80,95.25 L98.95,94.54 L99.10,93.83 L99.26,93.12 L99.41,92.40 L99.56,91.68 L99.71,90.95 L99.86,90.22 L100.02,89.48 L100.17,88.73 L100.32,87.99 L100.47,87.24 L100.62,86.48" style="stroke-width: 2; stroke: rgb(0, 0, 0); stroke-opacity: 1;"/><path d=" M100.62,86.48 L100.93,86.48 L101.23,86.48 L101.54,86.48 L101.84,86.48 L102.15,86.48 L102.45,86.48 L102.75,86.48 L103.06,86.48 L103.36,86.48 L103.67,86.48 L103.97,86.48 L104.28,86.48 L104.58,86.48 L104.88,86.48 L105.19,86.48 L105.49,86.48 L105.80,86.48 L106.10,86.48 L106.40,86.48 L106.71,86.48 L107.01,86.48 L107.32,86.48 L107.62,86.48 L107.93,86.48 L108.23,86.48 L108.53,86.48 L108.84,86.48 L109.14,86.48 L109.45,86.48 L109.75,86.48 L110.05,86.48 L110.36,86.48 L110.66,86.48 L110.97,86.48 L111.27,86.48 L111.58,86.48 L111.88,86.48 L112.18,86.48 L112.49,86.48 L112.79,86.48 L113.10,86.48 L113.40,86.48 L113.71,86.48 L114.01,86.48 L114.31,86.48 L114.62,86.48 L114.92,86.48 L115.23,86.48 L115.53,86.48 L115.83,86.48 L116.14,86.48 L116.44,86.48 L116.75,86.48 L117.05,86.48 L117.36,86.48 L117.66,86.48 L117.96,86.48 L118.27,86.48 L118.57,86.48 L118.88,86.48 L119.18,86.48 L119.49,86.48 L119.79,86.48 L120.09,86.48 L120.40,86.48 L120.70,86.48 L121.01,86.48 L121.31,86.48 L121.61,86.48 L121.92,86.48 L122.22,86.48 L122.53,86.48 L122.83,86.48 L123.14,86.48 L123.44,86.48 L123.74,86.48 L124.05,86.48 L124.35,86.48 L124.66,86.48 L124.96,86.48 L125.27,86.48 L125.57,86.48 L125.87,86.48 L126.18,86.48 L126.48,86.48 L126.79,86.48 L127.09,86.48 L127.39,86.48 L127.70,86.48 L128.00,86.48 L128.31,86.48 L128.61,86.48 L128.92,86.48 L129.22,86.48 L129.52,86.48 L129.83,86.48 L130.13,86.48 L130.44,86.48 L130.74,86.48 L131.04,86.48 L131.35,86.48 L131.65,86.48 L131.96,86.48 L132.26,86.48 L132.57,86.48 L132.87,86.48 L133.17,86.48 L133.48,86.48 L133.78,86.48 L134.09,86.48 L134.39,86.48 L134.70,86.48 L135.00,86.48 L135.30,86.48 L135.61,86.48 L135.91,86.48 L136.22,86.48 L136.52,86.48 L136.82,86.48 L137.13,86.48 L137.43,86.48 L137.74,86.48 L138.04,86.48 L138.35,86.48 L138.65,86.48 L138.95,86.48 L139.26,86.48 L139.56,86.48 L139.87,86.48 L140.17,86.48 L140.48,86.48 L140.78,86.48 L141.08,86.48 L141.39,86.48 L141.69,86.48 L142.00,86.48 L142.30,86.48 L142.60,86.48 L142.91,86.48 L143.21,86.48 L143.52,86.48 L143.82,86.48 L144.13,86.48 L144.43,86.48 L144.73,86.48 L145.04,86.48 L145.34,86.48 L145.65,86.48 L145.95,86.48 L146.26,86.48 L146.56,86.48 L146.86,86.48 L147.17,86.48 L147.47,86.48 L147.78,86.48 L148.08,86.48 L148.38,86.48 L148.69,86.48 L148.99,86.48 L149.30,86.48 L149.60,86.48 L149.91,86.48 L150.21,86.48 L150.51,86.48 L150.82,86.48 L151.12,86.48 L151.43,86.48 L151.73,86.48 L152.03,86.48 L152.34,86.48 L152.64,86.48 L152.95,86.48 L153.25,86.48 L153.56,86.48 L153.86,86.48 L154.16,86.48 L154.47,86.48 L154.77,86.48 L155.08,86.48 L155.38,86.48 L155.69,86.48 L155.99,86.48 L156.29,86.48 L156.60,86.48 L156.90,86.48 L157.21,86.48 L157.51,86.48 L157.81,86.48 L158.12,86.48 L158.42,86.48 L158.73,86.48 L159.03,86.48 L159.34,86.48 L159.64,86.48 L159.94,86.48 L160.25,86.48 L160.55,86.48 L160.86,86.48 L161.16,86.48 L161.47,86.48 L161.77,86.48 L162.07,86.48 L162.38,86.48 L162.68,86.48 L162.99,86.48 L163.29,86.48 L163.59,86.48 L163.90,86.48 L164.20,86.48 L164.51,86.48 L164.81,86.48 L165.12,86.48 L165.42,86.48 L165.72,86.48 L166.03,86.48 L166.33,86.48 L166.64,86.48 L166.94,86.48 L167.24,86.48 L167.55,86.48 L167.85,86.48 L168.16,86.48 L168.46,86.48 L168.77,86.48 L169.07,86.48 L169.37,86.48 L169.68,86.48 L169.98,86.48 L170.29,86.48 L170.59,86.48 L170.90,86.48 L171.20,86.48 L171.50,86.48 L171.81,86.48 L172.11,86.48 L172.42,86.48 L172.72,86.48 L173.02,86.48 L173.33,86.48 L173.63,86.48 L173.94,86.48 L174.24,86.48 L174.55,86.48 L174.85,86.48 L175.15,86.48 L175.46,86.48 L175.76,86.48 L176.07,86.48 L176.37,86.48 L176.68,86.48 L176.98,86.48 L177.28,86.48 L177.59,86.48 L177.89,86.48 L178.20,86.48 L178.50,86.48 L178.80,86.48 L179.11,86.48 L179.41,86.48 L179.72,86.48 L180.02,86.48 L180.33,86.48 L180.63,86.48 L180.93,86.48 L181.24,86.48 L181.54,86.48 L181.85,86.48 L182.15,86.48 L182.46,86.48 L182.76,86.48 L183.06,86.48 L183.37,86.48 L183.67,86.48 L183.98,86.48 L184.28,86.48 L184.58,86.48 L184.89,86.48 L185.19,86.48 L185.50,86.48 L185.80,86.48 L186.11,86.48 L186.41,86.48 L186.71,86.48 L187.02,86.48 L187.32,86.48 L187.63,86.48 L187.93,86.48 L188.23,86.48 L188.54,86.48 L188.84,86.48 L189.15,86.48 L189.45,86.48 L189.76,86.48 L190.06,86.48 L190.36,86.48 L190.67,86.48 L190.97,86.48 L191.28,86.48 L191.58,86.48 L191.89,86.48 L192.19,86.48 L192.49,86.48 L192.80,86.48 L193.10,86.48 L193.41,86.48 L193.71,86.48 L194.01,86.48 L194.32,86.48 L194.62,86.48 L194.93,86.48 L195.23,86.48 L195.54,86.48 L195.84,86.48 L196.14,86.48 L196.45,86.48 L196.75,86.48 L197.06,86.48 L197.36,86.48 L197.67,86.48 L197.97,86.48 L198.27,86.48 L198.58,86.48 L198.88,86.48 L199.19,86.48 L199.49,86.48 L199.79,86.48 L200.10,86.48 L200.40,86.48 L200.71,86.48 L201.01,86.48 L201.32,86.48 L201.62,86.48 L201.92,86.48 L202.23,86.48 L202.53,86.48 L202.84,86.48 L203.14,86.48 L203.45,86.48 L203.75,86.48 L204.05,86.48 L204.36,86.48 L204.66,86.48 L204.97,86.48 L205.27,86.48 L205.57,86.48 L205.88,86.48 L206.18,86.48 L206.49,86.48 L206.79,86.48 L207.10,86.48 L207.40,86.48 L207.70,86.48 L208.01,86.48 L208.31,86.48 L208.62,86.48 L208.92,86.48 L209.22,86.48 L209.53,86.48 L209.83,86.48 L210.14,86.48 L210.44,86.48 L210.75,86.48 L211.05,86.48 L211.35,86.48 L211.66,86.48 L211.96,86.48 L212.27,86.48 L212.57,86.48 L212.88,86.48 L213.18,86.48 L213.48,86.48 L213.79,86.48 L214.09,86.48 L214.40,86.48 L214.70,86.48 L215.00,86.48 L215.31,86.48 L215.61,86.48 L215.92,86.48 L216.22,86.48 L216.53,86.48 L216.83,86.48 L217.13,86.48 L217.44,86.48 L217.74,86.48 L218.05,86.48 L218.35,86.48 L218.66,86.48 L218.96,86.48 L219.26,86.48 L219.57,86.48 L219.87,86.48 L220.18,86.48 L220.48,86.48 L220.78,86.48 L221.09,86.48 L221.39,86.48 L221.70,86.48 L222.00,86.48 L222.31,86.48 L222.61,86.48 L222.91,86.48 L223.22,86.48 L223.52,86.48 L223.83,86.48 L224.13,86.48 L224.44,86.48 L224.74,86.48 L225.04,86.48 L225.35,86.48 L225.65,86.48 L225.96,86.48 L226.26,86.48 L226.56,86.48 L226.87,86.48 L227.17,86.48 L227.48,86.48 L227.78,86.48 L228.09,86.48 L228.39,86.48 L228.69,86.48 L229.00,86.48 L229.30,86.48 L229.61,86.48 L229.91,86.48 L230.21,86.48 L230.52,86.48 L230.82,86.48 L231.13,86.48 L231.43,86.48 L231.74,86.48 L232.04,86.48 L232.34,86.48 L232.65,86.48 L232.95,86.48 L233.26,86.48 L233.56,86.48 L233.87,86.48 L234.17,86.48 L234.47,86.48 L234.78,86.48 L235.08,86.48 L235.39,86.48 L235.69,86.48 L235.99,86.48 L236.30,86.48 L236.60,86.48 L236.91,86.48 L237.21,86.48 L237.52,86.48 L237.82,86.48 L238.12,86.48 L238.43,86.48 L238.73,86.48 L239.04,86.48 L239.34,86.48 L239.65,86.48 L239.95,86.48 L240.25,86.48 L240.56,86.48 L240.86,86.48 L241.17,86.48 L241.47,86.48 L241.77,86.48 L242.08,86.48 L242.38,86.48 L242.69,86.48 L242.99,86.48 L243.30,86.48 L243.60,86.48 L243.90,86.48 L244.21,86.48 L244.51,86.48 L244.82,86.48 L245.12,86.48 L245.42,86.48 L245.73,86.48 L246.03,86.48 L246.34,86.48 L246.64,86.48 L246.95,86.48 L247.25,86.48 L247.55,86.48 L247.86,86.48 L248.16,86.48 L248.47,86.48 L248.77,86.48 L249.08,86.48 L249.38,86.48 L249.68,86.48 L249.99,86.48 L250.29,86.48 L250.60,86.48 L250.90,86.48 L251.20,86.48 L251.51,86.48 L251.81,86.48 L252.12,86.48 L252.42,86.48 L252.73,86.48 L253.03,86.48 L253.33,86.48 L253.64,86.48 L253.94,86.48 L254.25,86.48 L254.55,86.48 L254.86,86.48 L255.16,86.48 L255.46,86.48 L255.77,86.48 L256.07,86.48 L256.38,86.48 L256.68,86.48 L256.98,86.48 L257.29,86.48 L257.59,86.48 L257.90,86.48 L258.20,86.48 L258.51,86.48 L258.81,86.48 L259.11,86.48 L259.42,86.48 L259.72,86.48 L260.03,86.48 L260.33,86.48 L260.64,86.48 L260.94,86.48 L261.24,86.48 L261.55,86.48 L261.85,86.48 L262.16,86.48 L262.46,86.48 L262.76,86.48 L263.07,86.48 L263.37,86.48 L263.68,86.48 L263.98,86.48 L264.29,86.48 L264.59,86.48 L264.89,86.48 L265.20,86.48 L265.50,86.48 L265.81,86.48 L266.11,86.48 L266.41,86.48 L266.72,86.48 L267.02,86.48 L267.33,86.48 L267.63,86.48 L267.94,86.48 L268.24,86.48 L268.54,86.48 L268.85,86.48 L269.15,86.48 L269.46,86.48 L269.76,86.48 L270.07,86.48 L270.37,86.48 L270.67,86.48 L270.98,86.48 L271.28,86.48 L271.59,86.48 L271.89,86.48 L272.19,86.48 L272.50,86.48 L272.80,86.48 L273.11,86.48 L273.41,86.48 L273.72,86.48 L274.02,86.48 L274.32,86.48 L274.63,86.48 L274.93,86.48 L275.24,86.48 L275.54,86.48 L275.85,86.48 L276.15,86.48 L276.45,86.48 L276.76,86.48 L277.06,86.48 L277.37,86.48 L277.67,86.48 L277.97,86.48 L278.28,86.48 L278.58,86.48 L278.89,86.48 L279.19,86.48 L279.50,86.48 L279.80,86.48 L280.10,86.48 L280.41,86.48 L280.71,86.48 L281.02,86.48 L281.32,86.48 L281.63,86.48 L281.93,86.48 L282.23,86.48 L282.54,86.48 L282.84,86.48 L283.15,86.48 L283.45,86.48 L283.75,86.48 L284.06,86.48 L284.36,86.48 L284.67,86.48 L284.97,86.48 L285.28,86.48 L285.58,86.48 L285.88,86.48 L286.19,86.48 L286.49,86.48 L286.80,86.48 L287.10,86.48 L287.40,86.48 L287.71,86.48 L288.01,86.48 L288.32,86.48 L288.62,86.48 L288.93,86.48 L289.23,86.48 L289.53,86.48 L289.84,86.48 L290.14,86.48 L290.45,86.48 L290.75,86.48 L291.06,86.48 L291.36,86.48 L291.66,86.48 L291.97,86.48 L292.27,86.48 L292.58,86.48 L292.88,86.48 L293.18,86.48" style="stroke-width: 2; stroke: rgb(0, 0, 0); stroke-opacity: 1;"/></g></g><g class="test-xtl" style="font-family: &quot;Open Sans&quot;, verdana, arial, sans-serif;"><text text-anchor="middle" font-size="11" dominant-baseline="hanging" stroke="none" fill="rgb(50,50,50)" fill-opacity="1" x="100.62465783387981" y="189.58717870202923">1</text><text text-anchor="middle" font-size="11" dominant-baseline="hanging" stroke="none" fill="rgb(50,50,50)" fill-opacity="1" x="196.90469159978085" y="189.58717870202923">2</text><text text-anchor="middle" font-size="11" dominant-baseline="hanging" stroke="none" fill="rgb(50,50,50)" fill-opacity="1" x="293.1847253656819" y="189.58717870202923">3</text><text text-anchor="middle" font-size="11" dominant-baseline="hanging" stroke="none" fill="rgb(50,50,50)" fill-opacity="1" x="-3.6553759320212578" y="187.58717870202923">0</text></g><rect class="real" x="1" y="1" width="315" height="198" style="fill: transparent; stroke: none;"/></g></g></g><g class="arrow-line"><path class="connection real" stroke-dasharray="" d="  M60,198.67 L60,26.67" style="stroke: rgb(0, 0, 0); stroke-width: 1; fill: none; fill-opacity: 1;"/><g stroke="#000" transform="matrix(3.061616997868383e-16,1,-1,3.061616997868383e-16,60,24.666656494140625)" style="stroke: rgb(0, 0, 0); stroke-width: 1;"><path d=" M10.93,-3.29 Q4.96,-0.45 0,0 Q4.96,0.45 10.93,3.29"/></g></g><g/></g><g/><g/><g/></svg>
        <svg xmlns="http://www.w3.org/2000/svg" xmlns:xlink="http://www.w3.org/1999/xlink" width="660" height="234" style="width:660px;height:234px;font-family:Asana-Math, Asana;background:transparent;"><g><g><g><g transform="matrix(1,0,0,1,377,206.3333282470703)"><path transform="matrix(0.017,0,0,-0.017,0,0)" d="M368 365C371 403 376 435 384 476C373 481 369 482 364 482C333 482 302 458 266 407C227 351 188 291 172 256L204 408C208 425 210 438 210 450C210 470 202 482 187 482C166 482 128 461 54 408L26 388L33 368L65 389C93 407 104 412 113 412C123 412 130 403 130 390C130 332 87 126 47 -2L57 -9C72 -4 88 -1 111 4L124 6L150 126C168 209 191 262 235 319C269 363 296 384 318 384C333 384 343 379 354 365Z" stroke="rgb(0,0,0)" stroke-opacity="1" stroke-width="8" fill="rgb(0,0,0)" fill-opacity="1"></path></g></g><g><g transform="matrix(1,0,0,1,387,206.3333282470703)"><path transform="matrix(0.017,0,0,-0.017,0,0)" d="M297 714L242 714L-37 -169L18 -169Z" stroke="rgb(0,0,0)" stroke-opacity="1" stroke-width="8" fill="rgb(0,0,0)" fill-opacity="1"></path></g></g><g><g transform="matrix(1,0,0,1,395.26043701171875,206.3333282470703)"><path transform="matrix(0.017,0,0,-0.017,0,0)" d="M105 664L161 662C185 661 196 653 196 635C196 621 192 589 187 559L112 125C96 34 94 32 54 28L13 25L9 -3L51 -2C98 0 117 0 141 0L238 -3L264 -3L267 25L218 28C191 30 182 38 182 58C182 67 183 76 186 93L287 648C316 654 336 656 363 656C450 656 496 617 496 543C496 448 418 378 314 378L270 378L267 367C401 172 432 124 507 -3C507 -3 592 0 592 0C593 0 607 -1 626 -3L639 -3L639 24C599 29 588 37 559 79L375 354C430 364 459 376 495 402C553 444 584 499 584 560C584 646 520 693 409 691L108 691Z" stroke="rgb(0,0,0)" stroke-opacity="1" stroke-width="8" fill="rgb(0,0,0)" fill-opacity="1"></path></g></g></g></g><g><g><g><g transform="matrix(1,0,0,1,7,108.23332824707032)"><path transform="matrix(0.0119,0,0,-0.0119,0,0)" d="M386 473C267 473 146 396 119 277C79 98 60 -97 34 -284C62 -283 92 -277 118 -266C116 -222 115 -145 145 29C169 -5 206 -15 247 -15C424 -15 522 168 525 325C527 420 482 473 386 473ZM347 441C426 441 446 380 445 311C444 203 398 11 260 11C182 11 164 72 166 138C168 243 210 441 347 441Z" stroke="rgb(0,0,0)" stroke-opacity="1" stroke-width="8" fill="rgb(0,0,0)" fill-opacity="1"></path></g></g><g><g><g><g><g transform="matrix(1,0,0,1,14.09375,110.99667175292969)"><path transform="matrix(0.00833,0,0,-0.00833,0,0)" d="M17 152C17 46 62 -11 145 -11C200 -11 260 15 305 57C367 116 411 230 411 331C411 425 361 482 278 482C174 482 17 382 17 152ZM241 444C302 444 335 399 335 315C335 219 304 113 260 60C242 39 216 27 185 27C127 27 93 72 93 151C93 264 132 387 181 427C194 438 217 444 241 444Z" stroke="rgb(0,0,0)" stroke-opacity="1" stroke-width="8" fill="rgb(0,0,0)" fill-opacity="1"></path></g></g></g></g></g><g><g><g><g><g transform="matrix(1,0,0,1,19.6875,100.23332824707032)"><path transform="matrix(0.0119,0,0,-0.0119,0,0)" d="M280 181L280 106C280 46 269 32 220 30L158 27L158 -3C291 0 291 0 315 0C339 0 339 0 472 -3L472 27L424 30C375 33 364 46 364 106L364 181C423 181 444 180 472 177L472 248L364 245L365 697L285 667L2 204L2 181ZM280 245L65 245L280 597ZM1024 42C968 42 963 125 964 166C965 251 993 333 1036 405L1098 418C1101 435 1107 452 1112 467C958 461 799 463 644 466C579 467 565 389 546 340C545 332 558 331 562 328L562 332C605 395 629 405 704 405L727 405C687 266 660 129 597 -2L597 -12C617 -6 652 1 669 13C710 141 739 274 767 405L994 405C937 318 896 213 894 108C894 59 909 -15 970 -15C1011 -15 1067 25 1097 51L1097 66L1085 66L1085 67C1067 56 1047 42 1024 42Z" stroke="rgb(0,0,0)" stroke-opacity="1" stroke-width="8" fill="rgb(0,0,0)" fill-opacity="1"></path></g></g></g></g><g><g><g><g transform="matrix(1,0,0,1,23.57293701171875,117.24376525878907)"><path transform="matrix(0.0119,0,0,-0.0119,0,0)" d="M459 253C459 366 378 446 264 446C216 446 180 443 127 396L127 605L432 604L432 689L75 690L75 322L95 316C142 363 169 377 218 377C314 377 374 309 374 201C374 90 310 25 201 25C147 25 97 43 83 69L37 151L13 137C36 80 48 48 62 4C90 -11 130 -20 173 -20C301 -20 459 89 459 253Z" stroke="rgb(0,0,0)" stroke-opacity="1" stroke-width="8" fill="rgb(0,0,0)" fill-opacity="1"></path></g></g></g></g><line style="fill:none;stroke-width:1px;stroke:rgb(0, 0, 0);" x1="19.6875" y1="105.36457824707031" x2="33.39583396911621" y2="105.36457824707031"></line></g><g><g transform="matrix(1,0,0,1,34.583343505859375,108.23332824707032)"><path transform="matrix(0.0119,0,0,-0.0119,0,0)" d="M105 664L161 662C185 661 196 653 196 635C196 621 192 589 187 559L112 125C96 34 94 32 54 28L13 25L9 -3L51 -2C98 0 117 0 141 0L238 -3L264 -3L267 25L218 28C191 30 182 38 182 58C182 67 183 76 186 93L287 648C316 654 336 656 363 656C450 656 496 617 496 543C496 448 418 378 314 378L270 378L267 367C401 172 432 124 507 -3C507 -3 592 0 592 0C593 0 607 -1 626 -3L639 -3L639 24C599 29 588 37 559 79L375 354C430 364 459 376 495 402C553 444 584 499 584 560C584 646 520 693 409 691L108 691Z" stroke="rgb(0,0,0)" stroke-opacity="1" stroke-width="8" fill="rgb(0,0,0)" fill-opacity="1"></path></g></g><g><g><g><g><g transform="matrix(1,0,0,1,43.1875,104.20501525878906)"><path transform="matrix(0.00833,0,0,-0.00833,0,0)" d="M462 224C462 345 355 366 308 374C388 436 418 482 418 541C418 630 344 689 233 689C165 689 120 670 72 622L43 498L74 498L92 554C103 588 166 622 218 622C283 622 336 569 336 506C336 431 277 368 206 368C198 368 187 369 174 370L159 371L147 318L154 312C192 329 211 334 238 334C321 334 369 281 369 190C369 88 308 21 215 21C169 21 128 36 98 64C74 86 61 109 42 163L15 153C36 92 44 56 50 6C103 -12 147 -20 184 -20C307 -20 462 87 462 224Z" stroke="rgb(0,0,0)" stroke-opacity="1" stroke-width="8" fill="rgb(0,0,0)" fill-opacity="1"></path></g></g></g></g></g></g></g><g><g><g><g transform="matrix(1,0,0,1,50,16.333328247070312)"><path transform="matrix(0.017,0,0,-0.017,0,0)" d="M151 -172C151 -95 175 -59 228 -59C257 -59 285 -67 324 -88L469 -164C529 -195 547 -201 587 -201C662 -201 698 -158 708 -61L683 -61C677 -115 655 -140 615 -140C598 -140 579 -135 553 -125L317 -29C292 -19 274 -15 251 -15C177 -15 126 -66 126 -142C126 -144 126 -151 127 -159ZM748 425C748 603 644 706 464 706C227 706 53 523 53 272C53 83 147 -18 323 -18C595 -18 748 207 748 425ZM660 409C660 221 571 24 360 24C216 24 141 110 141 277C141 425 199 664 433 664C549 664 660 610 660 409Z" stroke="rgb(0,0,0)" stroke-opacity="1" stroke-width="8" fill="rgb(0,0,0)" fill-opacity="1"></path></g></g><g><g><g><g><g transform="matrix(1,0,0,1,63.71875,19.3375)"><path transform="matrix(0.0119,0,0,-0.0119,0,0)" d="M328 111L304 94C251 56 203 36 167 36C120 36 91 73 91 133C91 158 94 185 99 214C116 218 225 248 250 259C335 296 374 342 374 404C374 451 340 482 290 482C222 496 112 423 75 349C45 299 15 180 15 113C15 35 59 -11 131 -11C188 -11 244 17 336 92ZM113 274C130 343 150 386 179 412C197 428 228 440 252 440C281 440 300 420 300 388C300 344 265 297 213 272C185 258 149 247 104 237ZM412 388L419 368L451 389C488 412 491 414 498 414C509 414 516 404 516 389C516 338 475 145 434 2L441 -9C466 -2 489 4 511 8C530 134 551 199 597 268C651 352 726 414 771 414C782 414 788 405 788 390C788 372 785 351 777 319L725 107C716 70 712 47 712 31C712 6 723 -9 742 -9C768 -9 804 12 902 85L892 103L866 86C837 67 815 56 805 56C798 56 792 65 792 76C792 81 793 92 794 96L860 372C867 401 871 429 871 446C871 469 860 482 840 482C798 482 729 444 670 389C632 354 604 320 552 247L590 408C594 426 596 438 596 449C596 470 588 482 573 482C552 482 513 460 440 408ZM1285 330L1308 330C1316 395 1323 432 1332 458C1308 473 1273 482 1236 482C1191 483 1118 463 1061 400C1007 352 968 241 968 136C968 40 1010 -11 1090 -11C1144 -11 1192 9 1247 54L1297 95L1289 115L1274 105C1202 57 1164 40 1129 40C1073 40 1044 80 1044 159C1044 267 1079 371 1128 409C1149 425 1173 433 1204 433C1249 433 1285 414 1285 390ZM1600 722L1588 733C1536 707 1500 698 1428 691L1424 670L1472 670C1496 670 1506 663 1506 648C1506 645 1506 640 1503 622C1492 567 1419 182 1404 132C1391 82 1385 52 1385 31C1385 6 1396 -9 1415 -9C1441 -9 1477 12 1575 85L1565 103L1539 86C1510 67 1488 56 1478 56C1471 56 1465 66 1465 76C1465 82 1466 89 1469 104Z" stroke="rgb(0,0,0)" stroke-opacity="1" stroke-width="8" fill="rgb(0,0,0)" fill-opacity="1"></path></g></g></g></g></g></g></g></svg>
</svg>
