<svg xmlns="http://www.w3.org/2000/svg" xmlns:xlink="http://www.w3.org/1999/xlink" x="0" y="0" width="662" height="173" style="
        width:662px;
        height:173px;
        background: transparent;
        fill: none;
">
        
        
        <svg xmlns="http://www.w3.org/2000/svg" class="role-diagram-draw-area"><g class="shapes-region" style="stroke: black; fill: none;"><g class="composite-shape" data-amt="diagram/shapes/plot" transform="matrix(1,0,0,1,49,37)"><g><g><g class="test-xgi"><line x1="0.2703882647047351" y1="0" x2="0.2703882647047351" y2="179" fill="none" stroke="#c3c3c3" stroke-width="0.5"/><line x1="112.12529311266552" y1="0" x2="112.12529311266552" y2="179" fill="none" stroke="#c3c3c3" stroke-width="0.5"/><line x1="223.98019796062633" y1="0" x2="223.98019796062633" y2="179" fill="none" stroke="#c3c3c3" stroke-width="0.5"/><line x1="335.8351028085871" y1="0" x2="335.8351028085871" y2="179" fill="none" stroke="#c3c3c3" stroke-width="0.5"/></g><g class="test-ygi"><line x1="0" y1="116.11050462739564" x2="356.3333282470703" y2="116.11050462739564" fill="none" stroke="#c3c3c3" stroke-width="0.5"/><line x1="0" y1="4.255599779434846" x2="356.3333282470703" y2="4.255599779434846" fill="none" stroke="#c3c3c3" stroke-width="0.5"/></g></g><g><g class="test-xti" style="font-family: Asana-Math, Asana;"><line x1="0" y1="116.11050462739563" x2="352.3333282470703" y2="116.11050462739563" fill="none" stroke="rgb(50,50,50)" stroke-opacity="1" stroke-width="1"/><line x1="112.12529311266552" y1="112.11050462739563" x2="112.12529311266552" y2="120.11050462739563" fill="none" stroke="rgb(50,50,50)" stroke-opacity="1" stroke-width="1"/><line x1="223.98019796062633" y1="112.11050462739563" x2="223.98019796062633" y2="120.11050462739563" fill="none" stroke="rgb(50,50,50)" stroke-opacity="1" stroke-width="1"/><line x1="335.8351028085871" y1="112.11050462739563" x2="335.8351028085871" y2="120.11050462739563" fill="none" stroke="rgb(50,50,50)" stroke-opacity="1" stroke-width="1"/><path d="M347.3333282470703,112.51050462739563 L355.3333282470703,116.11050462739563 L347.3333282470703,119.71050462739562 Z" stroke="none" stroke-width="1" fill="rgb(50,50,50)" fill-opacity="1"/></g><g class="test-plot-expression"><defs><clipPath id="cp1ybqpxzo8"><rect x="1" y="1" width="354.3333282470703" height="177"/></clipPath></defs><g clip-path="url(#cp1ybqpxzo8)"><path d=" M0.27,116.11 L0.43,116.11 L0.58,116.11 L0.74,116.11 L0.90,116.11 L1.06,116.10 L1.21,116.10 L1.37,116.10 L1.53,116.10 L1.68,116.09 L1.84,116.09 L2.00,116.08 L2.16,116.08 L2.31,116.07 L2.47,116.07 L2.63,116.06 L2.79,116.05 L2.94,116.05 L3.10,116.04 L3.26,116.03 L3.41,116.02 L3.57,116.01 L3.73,116.00 L3.89,115.99 L4.04,115.98 L4.20,115.97 L4.36,115.96 L4.51,115.95 L4.67,115.94 L4.83,115.92 L4.99,115.91 L5.14,115.90 L5.30,115.88 L5.46,115.87 L5.61,115.86 L5.77,115.84 L5.93,115.82 L6.09,115.81 L6.24,115.79 L6.40,115.77 L6.56,115.76 L6.71,115.74 L6.87,115.72 L7.03,115.70 L7.19,115.68 L7.34,115.66 L7.50,115.64 L7.66,115.62 L7.81,115.60 L7.97,115.58 L8.13,115.56 L8.29,115.54 L8.44,115.51 L8.60,115.49 L8.76,115.47 L8.91,115.44 L9.07,115.42 L9.23,115.39 L9.39,115.37 L9.54,115.34 L9.70,115.32 L9.86,115.29 L10.02,115.26 L10.17,115.23 L10.33,115.21 L10.49,115.18 L10.64,115.15 L10.80,115.12 L10.96,115.09 L11.12,115.06 L11.27,115.03 L11.43,115.00 L11.59,114.97 L11.74,114.93 L11.90,114.90 L12.06,114.87 L12.22,114.83 L12.37,114.80 L12.53,114.77 L12.69,114.73 L12.84,114.70 L13.00,114.66 L13.16,114.63 L13.32,114.59 L13.47,114.55 L13.63,114.51 L13.79,114.48 L13.94,114.44 L14.10,114.40 L14.26,114.36 L14.42,114.32 L14.57,114.28 L14.73,114.24 L14.89,114.20 L15.04,114.16 L15.20,114.12 L15.36,114.08 L15.52,114.03 L15.67,113.99 L15.83,113.95 L15.99,113.90 L16.14,113.86 L16.30,113.81 L16.46,113.77 L16.62,113.72 L16.77,113.68 L16.93,113.63 L17.09,113.58 L17.25,113.53 L17.40,113.49 L17.56,113.44 L17.72,113.39 L17.87,113.34 L18.03,113.29 L18.19,113.24 L18.35,113.19 L18.50,113.14 L18.66,113.09 L18.82,113.04 L18.97,112.98 L19.13,112.93 L19.29,112.88 L19.45,112.82 L19.60,112.77 L19.76,112.71 L19.92,112.66 L20.07,112.60 L20.23,112.55 L20.39,112.49 L20.55,112.44 L20.70,112.38 L20.86,112.32 L21.02,112.26 L21.17,112.20 L21.33,112.14 L21.49,112.09 L21.65,112.03 L21.80,111.97 L21.96,111.90 L22.12,111.84 L22.27,111.78 L22.43,111.72 L22.59,111.66 L22.75,111.59 L22.90,111.53 L23.06,111.47 L23.22,111.40 L23.37,111.34 L23.53,111.27 L23.69,111.21 L23.85,111.14 L24.00,111.07 L24.16,111.01 L24.32,110.94 L24.48,110.87 L24.63,110.80 L24.79,110.74 L24.95,110.67 L25.10,110.60 L25.26,110.53 L25.42,110.46 L25.58,110.39 L25.73,110.31 L25.89,110.24 L26.05,110.17 L26.20,110.10 L26.36,110.02 L26.52,109.95 L26.68,109.88 L26.83,109.80 L26.99,109.73 L27.15,109.65 L27.30,109.58 L27.46,109.50 L27.62,109.42 L27.78,109.35 L27.93,109.27 L28.09,109.19 L28.25,109.11 L28.40,109.03 L28.56,108.95 L28.72,108.88 L28.88,108.79 L29.03,108.71 L29.19,108.63 L29.35,108.55 L29.50,108.47 L29.66,108.39 L29.82,108.30 L29.98,108.22 L30.13,108.14 L30.29,108.05 L30.45,107.97 L30.60,107.88 L30.76,107.80 L30.92,107.71 L31.08,107.63 L31.23,107.54 L31.39,107.45 L31.55,107.36 L31.71,107.28 L31.86,107.19 L32.02,107.10 L32.18,107.01 L32.33,106.92 L32.49,106.83 L32.65,106.74 L32.81,106.65 L32.96,106.56 L33.12,106.46 L33.28,106.37 L33.43,106.28 L33.59,106.18 L33.75,106.09 L33.91,106.00 L34.06,105.90 L34.22,105.81 L34.38,105.71 L34.53,105.61 L34.69,105.52 L34.85,105.42 L35.01,105.32 L35.16,105.23 L35.32,105.13 L35.48,105.03 L35.63,104.93 L35.79,104.83 L35.95,104.73 L36.11,104.63 L36.26,104.53 L36.42,104.43 L36.58,104.33 L36.73,104.22 L36.89,104.12 L37.05,104.02 L37.21,103.91 L37.36,103.81 L37.52,103.71 L37.68,103.60 L37.83,103.50 L37.99,103.39 L38.15,103.28 L38.31,103.18 L38.46,103.07 L38.62,102.96 L38.78,102.85 L38.93,102.75 L39.09,102.64 L39.25,102.53 L39.41,102.42 L39.56,102.31 L39.72,102.20 L39.88,102.09 L40.04,101.97 L40.19,101.86 L40.35,101.75 L40.51,101.64 L40.66,101.52 L40.82,101.41 L40.98,101.30 L41.14,101.18 L41.29,101.07 L41.45,100.95 L41.61,100.83 L41.76,100.72 L41.92,100.60 L42.08,100.48 L42.24,100.37 L42.39,100.25 L42.55,100.13 L42.71,100.01 L42.86,99.89 L43.02,99.77 L43.18,99.65 L43.34,99.53 L43.49,99.41 L43.65,99.29 L43.81,99.16 L43.96,99.04 L44.12,98.92 L44.28,98.80 L44.44,98.67 L44.59,98.55 L44.75,98.42 L44.91,98.30 L45.06,98.17 L45.22,98.05 L45.38,97.92 L45.54,97.79 L45.69,97.66 L45.85,97.54 L46.01,97.41 L46.16,97.28 L46.32,97.15 L46.48,97.02 L46.64,96.89 L46.79,96.76 L46.95,96.63 L47.11,96.50 L47.27,96.37 L47.42,96.23 L47.58,96.10 L47.74,95.97 L47.89,95.83 L48.05,95.70 L48.21,95.57 L48.37,95.43 L48.52,95.30 L48.68,95.16 L48.84,95.02 L48.99,94.89 L49.15,94.75 L49.31,94.61 L49.47,94.47 L49.62,94.34 L49.78,94.20 L49.94,94.06 L50.09,93.92 L50.25,93.78 L50.41,93.64 L50.57,93.50 L50.72,93.35 L50.88,93.21 L51.04,93.07 L51.19,92.93 L51.35,92.78 L51.51,92.64 L51.67,92.49 L51.82,92.35 L51.98,92.21 L52.14,92.06 L52.29,91.91 L52.45,91.77 L52.61,91.62 L52.77,91.47 L52.92,91.33 L53.08,91.18 L53.24,91.03 L53.39,90.88 L53.55,90.73 L53.71,90.58 L53.87,90.43 L54.02,90.28 L54.18,90.13 L54.34,89.98 L54.50,89.82 L54.65,89.67 L54.81,89.52 L54.97,89.36 L55.12,89.21 L55.28,89.06 L55.44,88.90 L55.60,88.75 L55.75,88.59 L55.91,88.43 L56.07,88.28 L56.22,88.12 L56.38,87.96 L56.54,87.81 L56.70,87.65 L56.85,87.49 L57.01,87.33 L57.17,87.17 L57.32,87.01 L57.48,86.85 L57.64,86.69 L57.80,86.53 L57.95,86.36 L58.11,86.20 L58.27,86.04 L58.42,85.88 L58.58,85.71 L58.74,85.55 L58.90,85.38 L59.05,85.22 L59.21,85.05 L59.37,84.89 L59.52,84.72 L59.68,84.55 L59.84,84.39 L60.00,84.22 L60.15,84.05 L60.31,83.88 L60.47,83.71 L60.62,83.54 L60.78,83.37 L60.94,83.20 L61.10,83.03 L61.25,82.86 L61.41,82.69 L61.57,82.52 L61.73,82.35 L61.88,82.17 L62.04,82.00 L62.20,81.83 L62.35,81.65 L62.51,81.48 L62.67,81.30 L62.83,81.13 L62.98,80.95 L63.14,80.77 L63.30,80.60 L63.45,80.42 L63.61,80.24 L63.77,80.06 L63.93,79.89 L64.08,79.71 L64.24,79.53 L64.40,79.35 L64.55,79.17 L64.71,78.99 L64.87,78.80 L65.03,78.62 L65.18,78.44 L65.34,78.26 L65.50,78.07 L65.65,77.89 L65.81,77.71 L65.97,77.52 L66.13,77.34 L66.28,77.15 L66.44,76.97 L66.60,76.78 L66.75,76.59 L66.91,76.41 L67.07,76.22 L67.23,76.03 L67.38,75.84 L67.54,75.65 L67.70,75.46 L67.85,75.27 L68.01,75.08 L68.17,74.89 L68.33,74.70 L68.48,74.51 L68.64,74.32 L68.80,74.13 L68.96,73.93 L69.11,73.74 L69.27,73.55 L69.43,73.35 L69.58,73.16 L69.74,72.96 L69.90,72.77 L70.06,72.57 L70.21,72.38 L70.37,72.18 L70.53,71.98 L70.68,71.78 L70.84,71.59 L71.00,71.39 L71.16,71.19 L71.31,70.99 L71.47,70.79 L71.63,70.59 L71.78,70.39 L71.94,70.19 L72.10,69.99 L72.26,69.78 L72.41,69.58 L72.57,69.38 L72.73,69.17 L72.88,68.97 L73.04,68.77 L73.20,68.56 L73.36,68.36 L73.51,68.15 L73.67,67.95 L73.83,67.74 L73.98,67.53 L74.14,67.32 L74.30,67.12 L74.46,66.91 L74.61,66.70 L74.77,66.49 L74.93,66.28 L75.08,66.07 L75.24,65.86 L75.40,65.65 L75.56,65.44 L75.71,65.23 L75.87,65.01 L76.03,64.80 L76.19,64.59 L76.34,64.37 L76.50,64.16 L76.66,63.95 L76.81,63.73 L76.97,63.52 L77.13,63.30 L77.29,63.08 L77.44,62.87 L77.60,62.65 L77.76,62.43 L77.91,62.21 L78.07,62.00 L78.23,61.78 L78.39,61.56 L78.54,61.34 L78.70,61.12 L78.86,60.90 L79.01,60.68 L79.17,60.45 L79.33,60.23 L79.49,60.01 L79.64,59.79 L79.80,59.56 L79.96,59.34 L80.11,59.12 L80.27,58.89 L80.43,58.67 L80.59,58.44 L80.74,58.22 L80.90,57.99 L81.06,57.76 L81.21,57.53 L81.37,57.31 L81.53,57.08 L81.69,56.85 L81.84,56.62 L82.00,56.39 L82.16,56.16 L82.31,55.93 L82.47,55.70 L82.63,55.47 L82.79,55.24 L82.94,55.01 L83.10,54.77 L83.26,54.54 L83.41,54.31 L83.57,54.07 L83.73,53.84 L83.89,53.60 L84.04,53.37 L84.20,53.13 L84.36,52.90 L84.52,52.66 L84.67,52.42 L84.83,52.19 L84.99,51.95 L85.14,51.71 L85.30,51.47 L85.46,51.23 L85.62,50.99 L85.77,50.75 L85.93,50.51 L86.09,50.27 L86.24,50.03 L86.40,49.79 L86.56,49.55 L86.72,49.30 L86.87,49.06 L87.03,48.82 L87.19,48.57 L87.34,48.33 L87.50,48.08 L87.66,47.84 L87.82,47.59 L87.97,47.35 L88.13,47.10 L88.29,46.85 L88.44,46.60 L88.60,46.36 L88.76,46.11 L88.92,45.86 L89.07,45.61 L89.23,45.36 L89.39,45.11 L89.54,44.86 L89.70,44.61 L89.86,44.36 L90.02,44.10 L90.17,43.85 L90.33,43.60 L90.49,43.34 L90.64,43.09 L90.80,42.84 L90.96,42.58 L91.12,42.33 L91.27,42.07 L91.43,41.82 L91.59,41.56 L91.75,41.30 L91.90,41.05 L92.06,40.79 L92.22,40.53 L92.37,40.27 L92.53,40.01 L92.69,39.75 L92.85,39.49 L93.00,39.23 L93.16,38.97 L93.32,38.71 L93.47,38.45 L93.63,38.19 L93.79,37.92 L93.95,37.66 L94.10,37.40 L94.26,37.13 L94.42,36.87 L94.57,36.60 L94.73,36.34 L94.89,36.07 L95.05,35.81 L95.20,35.54 L95.36,35.27 L95.52,35.01 L95.67,34.74 L95.83,34.47 L95.99,34.20 L96.15,33.93 L96.30,33.66 L96.46,33.39 L96.62,33.12 L96.77,32.85 L96.93,32.58 L97.09,32.31 L97.25,32.03 L97.40,31.76 L97.56,31.49 L97.72,31.21 L97.87,30.94 L98.03,30.67 L98.19,30.39 L98.35,30.12 L98.50,29.84 L98.66,29.56 L98.82,29.29 L98.98,29.01 L99.13,28.73 L99.29,28.45 L99.45,28.18 L99.60,27.90 L99.76,27.62 L99.92,27.34 L100.08,27.06 L100.23,26.78 L100.39,26.50 L100.55,26.21 L100.70,25.93 L100.86,25.65 L101.02,25.37 L101.18,25.08 L101.33,24.80 L101.49,24.52 L101.65,24.23 L101.80,23.95 L101.96,23.66 L102.12,23.37 L102.28,23.09 L102.43,22.80 L102.59,22.51 L102.75,22.23 L102.90,21.94 L103.06,21.65 L103.22,21.36 L103.38,21.07 L103.53,20.78 L103.69,20.49 L103.85,20.20 L104.00,19.91 L104.16,19.62 L104.32,19.32 L104.48,19.03 L104.63,18.74 L104.79,18.44 L104.95,18.15 L105.10,17.86 L105.26,17.56 L105.42,17.27 L105.58,16.97 L105.73,16.67 L105.89,16.38 L106.05,16.08 L106.21,15.78 L106.36,15.48 L106.52,15.19 L106.68,14.89 L106.83,14.59 L106.99,14.29 L107.15,13.99 L107.31,13.69 L107.46,13.39 L107.62,13.09 L107.78,12.78 L107.93,12.48 L108.09,12.18 L108.25,11.88 L108.41,11.57 L108.56,11.27 L108.72,10.96 L108.88,10.66 L109.03,10.35 L109.19,10.05 L109.35,9.74 L109.51,9.43 L109.66,9.13 L109.82,8.82 L109.98,8.51 L110.13,8.20 L110.29,7.89 L110.45,7.58 L110.61,7.27 L110.76,6.96 L110.92,6.65 L111.08,6.34 L111.23,6.03 L111.39,5.72 L111.55,5.41 L111.71,5.09 L111.86,4.78 L112.02,4.47 L112.13,4.26" style="stroke-width: 2; stroke: rgb(0, 0, 0); stroke-opacity: 1;"/><path d=" M112.13,4.26 L112.47,4.26 L112.81,4.26 L113.15,4.26 L113.50,4.26 L113.84,4.26 L114.18,4.26 L114.53,4.26 L114.87,4.26 L115.21,4.26 L115.56,4.26 L115.90,4.26 L116.24,4.26 L116.59,4.26 L116.93,4.26 L117.27,4.26 L117.62,4.26 L117.96,4.26 L118.30,4.26 L118.65,4.26 L118.99,4.26 L119.33,4.26 L119.67,4.26 L120.02,4.26 L120.36,4.26 L120.70,4.26 L121.05,4.26 L121.39,4.26 L121.73,4.26 L122.08,4.26 L122.42,4.26 L122.76,4.26 L123.11,4.26 L123.45,4.26 L123.79,4.26 L124.14,4.26 L124.48,4.26 L124.82,4.26 L125.16,4.26 L125.51,4.26 L125.85,4.26 L126.19,4.26 L126.54,4.26 L126.88,4.26 L127.22,4.26 L127.57,4.26 L127.91,4.26 L128.25,4.26 L128.60,4.26 L128.94,4.26 L129.28,4.26 L129.63,4.26 L129.97,4.26 L130.31,4.26 L130.66,4.26 L131.00,4.26 L131.34,4.26 L131.68,4.26 L132.03,4.26 L132.37,4.26 L132.71,4.26 L133.06,4.26 L133.40,4.26 L133.74,4.26 L134.09,4.26 L134.43,4.26 L134.77,4.26 L135.12,4.26 L135.46,4.26 L135.80,4.26 L136.15,4.26 L136.49,4.26 L136.83,4.26 L137.18,4.26 L137.52,4.26 L137.86,4.26 L138.20,4.26 L138.55,4.26 L138.89,4.26 L139.23,4.26 L139.58,4.26 L139.92,4.26 L140.26,4.26 L140.61,4.26 L140.95,4.26 L141.29,4.26 L141.64,4.26 L141.98,4.26 L142.32,4.26 L142.67,4.26 L143.01,4.26 L143.35,4.26 L143.70,4.26 L144.04,4.26 L144.38,4.26 L144.72,4.26 L145.07,4.26 L145.41,4.26 L145.75,4.26 L146.10,4.26 L146.44,4.26 L146.78,4.26 L147.13,4.26 L147.47,4.26 L147.81,4.26 L148.16,4.26 L148.50,4.26 L148.84,4.26 L149.19,4.26 L149.53,4.26 L149.87,4.26 L150.21,4.26 L150.56,4.26 L150.90,4.26 L151.24,4.26 L151.59,4.26 L151.93,4.26 L152.27,4.26 L152.62,4.26 L152.96,4.26 L153.30,4.26 L153.65,4.26 L153.99,4.26 L154.33,4.26 L154.68,4.26 L155.02,4.26 L155.36,4.26 L155.71,4.26 L156.05,4.26 L156.39,4.26 L156.73,4.26 L157.08,4.26 L157.42,4.26 L157.76,4.26 L158.11,4.26 L158.45,4.26 L158.79,4.26 L159.14,4.26 L159.48,4.26 L159.82,4.26 L160.17,4.26 L160.51,4.26 L160.85,4.26 L161.20,4.26 L161.54,4.26 L161.88,4.26 L162.23,4.26 L162.57,4.26 L162.91,4.26 L163.25,4.26 L163.60,4.26 L163.94,4.26 L164.28,4.26 L164.63,4.26 L164.97,4.26 L165.31,4.26 L165.66,4.26 L166.00,4.26 L166.34,4.26 L166.69,4.26 L167.03,4.26 L167.37,4.26 L167.72,4.26 L168.06,4.26 L168.40,4.26 L168.74,4.26 L169.09,4.26 L169.43,4.26 L169.77,4.26 L170.12,4.26 L170.46,4.26 L170.80,4.26 L171.15,4.26 L171.49,4.26 L171.83,4.26 L172.18,4.26 L172.52,4.26 L172.86,4.26 L173.21,4.26 L173.55,4.26 L173.89,4.26 L174.24,4.26 L174.58,4.26 L174.92,4.26 L175.26,4.26 L175.61,4.26 L175.95,4.26 L176.29,4.26 L176.64,4.26 L176.98,4.26 L177.32,4.26 L177.67,4.26 L178.01,4.26 L178.35,4.26 L178.70,4.26 L179.04,4.26 L179.38,4.26 L179.73,4.26 L180.07,4.26 L180.41,4.26 L180.76,4.26 L181.10,4.26 L181.44,4.26 L181.78,4.26 L182.13,4.26 L182.47,4.26 L182.81,4.26 L183.16,4.26 L183.50,4.26 L183.84,4.26 L184.19,4.26 L184.53,4.26 L184.87,4.26 L185.22,4.26 L185.56,4.26 L185.90,4.26 L186.25,4.26 L186.59,4.26 L186.93,4.26 L187.28,4.26 L187.62,4.26 L187.96,4.26 L188.30,4.26 L188.65,4.26 L188.99,4.26 L189.33,4.26 L189.68,4.26 L190.02,4.26 L190.36,4.26 L190.71,4.26 L191.05,4.26 L191.39,4.26 L191.74,4.26 L192.08,4.26 L192.42,4.26 L192.77,4.26 L193.11,4.26 L193.45,4.26 L193.79,4.26 L194.14,4.26 L194.48,4.26 L194.82,4.26 L195.17,4.26 L195.51,4.26 L195.85,4.26 L196.20,4.26 L196.54,4.26 L196.88,4.26 L197.23,4.26 L197.57,4.26 L197.91,4.26 L198.26,4.26 L198.60,4.26 L198.94,4.26 L199.29,4.26 L199.63,4.26 L199.97,4.26 L200.31,4.26 L200.66,4.26 L201.00,4.26 L201.34,4.26 L201.69,4.26 L202.03,4.26 L202.37,4.26 L202.72,4.26 L203.06,4.26 L203.40,4.26 L203.75,4.26 L204.09,4.26 L204.43,4.26 L204.78,4.26 L205.12,4.26 L205.46,4.26 L205.81,4.26 L206.15,4.26 L206.49,4.26 L206.83,4.26 L207.18,4.26 L207.52,4.26 L207.86,4.26 L208.21,4.26 L208.55,4.26 L208.89,4.26 L209.24,4.26 L209.58,4.26 L209.92,4.26 L210.27,4.26 L210.61,4.26 L210.95,4.26 L211.30,4.26 L211.64,4.26 L211.98,4.26 L212.32,4.26 L212.67,4.26 L213.01,4.26 L213.35,4.26 L213.70,4.26 L214.04,4.26 L214.38,4.26 L214.73,4.26 L215.07,4.26 L215.41,4.26 L215.76,4.26 L216.10,4.26 L216.44,4.26 L216.79,4.26 L217.13,4.26 L217.47,4.26 L217.82,4.26 L218.16,4.26 L218.50,4.26 L218.84,4.26 L219.19,4.26 L219.53,4.26 L219.87,4.26 L220.22,4.26 L220.56,4.26 L220.90,4.26 L221.25,4.26 L221.59,4.26 L221.93,4.26 L222.28,4.26 L222.62,4.26 L222.96,4.26 L223.31,4.26 L223.65,4.26 L223.99,4.26 L224.34,4.26 L224.68,4.26 L225.02,4.26 L225.36,4.26 L225.71,4.26 L226.05,4.26 L226.39,4.26 L226.74,4.26 L227.08,4.26 L227.42,4.26 L227.77,4.26 L228.11,4.26 L228.45,4.26 L228.80,4.26 L229.14,4.26 L229.48,4.26 L229.83,4.26 L230.17,4.26 L230.51,4.26 L230.86,4.26 L231.20,4.26 L231.54,4.26 L231.88,4.26 L232.23,4.26 L232.57,4.26 L232.91,4.26 L233.26,4.26 L233.60,4.26 L233.94,4.26 L234.29,4.26 L234.63,4.26 L234.97,4.26 L235.32,4.26 L235.66,4.26 L236.00,4.26 L236.35,4.26 L236.69,4.26 L237.03,4.26 L237.37,4.26 L237.72,4.26 L238.06,4.26 L238.40,4.26 L238.75,4.26 L239.09,4.26 L239.43,4.26 L239.78,4.26 L240.12,4.26 L240.46,4.26 L240.81,4.26 L241.15,4.26 L241.49,4.26 L241.84,4.26 L242.18,4.26 L242.52,4.26 L242.87,4.26 L243.21,4.26 L243.55,4.26 L243.89,4.26 L244.24,4.26 L244.58,4.26 L244.92,4.26 L245.27,4.26 L245.61,4.26 L245.95,4.26 L246.30,4.26 L246.64,4.26 L246.98,4.26 L247.33,4.26 L247.67,4.26 L248.01,4.26 L248.36,4.26 L248.70,4.26 L249.04,4.26 L249.39,4.26 L249.73,4.26 L250.07,4.26 L250.41,4.26 L250.76,4.26 L251.10,4.26 L251.44,4.26 L251.79,4.26 L252.13,4.26 L252.47,4.26 L252.82,4.26 L253.16,4.26 L253.50,4.26 L253.85,4.26 L254.19,4.26 L254.53,4.26 L254.88,4.26 L255.22,4.26 L255.56,4.26 L255.90,4.26 L256.25,4.26 L256.59,4.26 L256.93,4.26 L257.28,4.26 L257.62,4.26 L257.96,4.26 L258.31,4.26 L258.65,4.26 L258.99,4.26 L259.34,4.26 L259.68,4.26 L260.02,4.26 L260.37,4.26 L260.71,4.26 L261.05,4.26 L261.40,4.26 L261.74,4.26 L262.08,4.26 L262.42,4.26 L262.77,4.26 L263.11,4.26 L263.45,4.26 L263.80,4.26 L264.14,4.26 L264.48,4.26 L264.83,4.26 L265.17,4.26 L265.51,4.26 L265.86,4.26 L266.20,4.26 L266.54,4.26 L266.89,4.26 L267.23,4.26 L267.57,4.26 L267.92,4.26 L268.26,4.26 L268.60,4.26 L268.94,4.26 L269.29,4.26 L269.63,4.26 L269.97,4.26 L270.32,4.26 L270.66,4.26 L271.00,4.26 L271.35,4.26 L271.69,4.26 L272.03,4.26 L272.38,4.26 L272.72,4.26 L273.06,4.26 L273.41,4.26 L273.75,4.26 L274.09,4.26 L274.43,4.26 L274.78,4.26 L275.12,4.26 L275.46,4.26 L275.81,4.26 L276.15,4.26 L276.49,4.26 L276.84,4.26 L277.18,4.26 L277.52,4.26 L277.87,4.26 L278.21,4.26 L278.55,4.26 L278.90,4.26 L279.24,4.26 L279.58,4.26 L279.93,4.26 L280.27,4.26 L280.61,4.26 L280.95,4.26 L281.30,4.26 L281.64,4.26 L281.98,4.26 L282.33,4.26 L282.67,4.26 L283.01,4.26 L283.36,4.26 L283.70,4.26 L284.04,4.26 L284.39,4.26 L284.73,4.26 L285.07,4.26 L285.42,4.26 L285.76,4.26 L286.10,4.26 L286.45,4.26 L286.79,4.26 L287.13,4.26 L287.47,4.26 L287.82,4.26 L288.16,4.26 L288.50,4.26 L288.85,4.26 L289.19,4.26 L289.53,4.26 L289.88,4.26 L290.22,4.26 L290.56,4.26 L290.91,4.26 L291.25,4.26 L291.59,4.26 L291.94,4.26 L292.28,4.26 L292.62,4.26 L292.97,4.26 L293.31,4.26 L293.65,4.26 L293.99,4.26 L294.34,4.26 L294.68,4.26 L295.02,4.26 L295.37,4.26 L295.71,4.26 L296.05,4.26 L296.40,4.26 L296.74,4.26 L297.08,4.26 L297.43,4.26 L297.77,4.26 L298.11,4.26 L298.46,4.26 L298.80,4.26 L299.14,4.26 L299.48,4.26 L299.83,4.26 L300.17,4.26 L300.51,4.26 L300.86,4.26 L301.20,4.26 L301.54,4.26 L301.89,4.26 L302.23,4.26 L302.57,4.26 L302.92,4.26 L303.26,4.26 L303.60,4.26 L303.95,4.26 L304.29,4.26 L304.63,4.26 L304.98,4.26 L305.32,4.26 L305.66,4.26 L306.00,4.26 L306.35,4.26 L306.69,4.26 L307.03,4.26 L307.38,4.26 L307.72,4.26 L308.06,4.26 L308.41,4.26 L308.75,4.26 L309.09,4.26 L309.44,4.26 L309.78,4.26 L310.12,4.26 L310.47,4.26 L310.81,4.26 L311.15,4.26 L311.50,4.26 L311.84,4.26 L312.18,4.26 L312.52,4.26 L312.87,4.26 L313.21,4.26 L313.55,4.26 L313.90,4.26 L314.24,4.26 L314.58,4.26 L314.93,4.26 L315.27,4.26 L315.61,4.26 L315.96,4.26 L316.30,4.26 L316.64,4.26 L316.99,4.26 L317.33,4.26 L317.67,4.26 L318.01,4.26 L318.36,4.26 L318.70,4.26 L319.04,4.26 L319.39,4.26 L319.73,4.26 L320.07,4.26 L320.42,4.26 L320.76,4.26 L321.10,4.26 L321.45,4.26 L321.79,4.26 L322.13,4.26 L322.48,4.26 L322.82,4.26 L323.16,4.26 L323.51,4.26 L323.85,4.26 L324.19,4.26 L324.53,4.26 L324.88,4.26 L325.22,4.26 L325.56,4.26 L325.91,4.26 L326.25,4.26 L326.59,4.26 L326.94,4.26 L327.28,4.26 L327.62,4.26 L327.97,4.26 L328.31,4.26 L328.65,4.26 L329.00,4.26 L329.34,4.26 L329.68,4.26 L330.03,4.26 L330.37,4.26 L330.71,4.26 L331.05,4.26 L331.40,4.26 L331.74,4.26 L332.08,4.26 L332.43,4.26 L332.77,4.26 L333.11,4.26 L333.46,4.26 L333.80,4.26 L334.14,4.26 L334.49,4.26 L334.83,4.26 L335.17,4.26 L335.52,4.26 L335.86,4.26 L336.20,4.26 L336.55,4.26 L336.89,4.26 L337.23,4.26 L337.57,4.26 L337.92,4.26 L338.26,4.26 L338.60,4.26 L338.95,4.26 L339.29,4.26 L339.63,4.26 L339.98,4.26 L340.32,4.26 L340.66,4.26 L341.01,4.26 L341.35,4.26 L341.69,4.26 L342.04,4.26 L342.38,4.26 L342.72,4.26 L343.06,4.26 L343.41,4.26 L343.75,4.26 L344.09,4.26 L344.44,4.26 L344.78,4.26 L345.12,4.26 L345.47,4.26 L345.81,4.26 L346.15,4.26 L346.50,4.26 L346.84,4.26 L347.18,4.26 L347.53,4.26 L347.87,4.26 L348.21,4.26 L348.56,4.26 L348.90,4.26 L349.24,4.26 L349.58,4.26 L349.93,4.26 L350.27,4.26 L350.61,4.26 L350.96,4.26 L351.30,4.26 L351.64,4.26 L351.99,4.26 L352.33,4.26 L352.67,4.26 L353.02,4.26 L353.36,4.26 L353.70,4.26 L354.05,4.26 L354.39,4.26 L354.73,4.26 L355.08,4.26 L355.42,4.26 L355.76,4.26 L356.10,4.26 L356.33,4.26" style="stroke-width: 2; stroke: rgb(0, 0, 0); stroke-opacity: 1;"/></g></g><g class="test-xtl" style="font-family: &quot;Open Sans&quot;, verdana, arial, sans-serif;"><text text-anchor="middle" font-size="11" dominant-baseline="hanging" stroke="none" fill="rgb(50,50,50)" fill-opacity="1" x="112.12529311266552" y="123.11050462739563">1</text><text text-anchor="middle" font-size="11" dominant-baseline="hanging" stroke="none" fill="rgb(50,50,50)" fill-opacity="1" x="223.98019796062633" y="123.11050462739563">2</text><text text-anchor="middle" font-size="11" dominant-baseline="hanging" stroke="none" fill="rgb(50,50,50)" fill-opacity="1" x="335.8351028085871" y="123.11050462739563">3</text><text text-anchor="middle" font-size="11" dominant-baseline="hanging" stroke="none" fill="rgb(50,50,50)" fill-opacity="1" x="-7.729611735295265" y="121.11050462739563">0</text></g><rect class="real" x="1" y="1" width="354.3333282470703" height="177" style="fill: transparent; stroke: none;"/></g></g></g><g class="arrow-line"><path class="connection real" stroke-dasharray="" d="  M50,152 L50,26" style="stroke: rgb(0, 0, 0); stroke-width: 1; fill: none; fill-opacity: 1;"/><g stroke="#000" transform="matrix(3.061616997868383e-16,1,-1,3.061616997868383e-16,50,24)" style="stroke: rgb(0, 0, 0); stroke-width: 1;"><path d=" M10.93,-3.29 Q4.96,-0.45 0,0 Q4.96,0.45 10.93,3.29"/></g></g><g/></g><g/><g/><g/></svg>
        <svg xmlns="http://www.w3.org/2000/svg" xmlns:xlink="http://www.w3.org/1999/xlink" width="660" height="171" style="width:660px;height:171px;font-family:Asana-Math, Asana;background:transparent;"><g><g><g><g transform="matrix(1,0,0,1,53,18.65625)"><path transform="matrix(0.017,0,0,-0.017,0,0)" d="M151 -172C151 -95 175 -59 228 -59C257 -59 285 -67 324 -88L469 -164C529 -195 547 -201 587 -201C662 -201 698 -158 708 -61L683 -61C677 -115 655 -140 615 -140C598 -140 579 -135 553 -125L317 -29C292 -19 274 -15 251 -15C177 -15 126 -66 126 -142C126 -144 126 -151 127 -159ZM748 425C748 603 644 706 464 706C227 706 53 523 53 272C53 83 147 -18 323 -18C595 -18 748 207 748 425ZM660 409C660 221 571 24 360 24C216 24 141 110 141 277C141 425 199 664 433 664C549 664 660 610 660 409Z" stroke="rgb(0,0,0)" stroke-opacity="1" stroke-width="8" fill="rgb(0,0,0)" fill-opacity="1"></path></g></g><g><g><g><g><g transform="matrix(1,0,0,1,66.71875,21.660421752929686)"><path transform="matrix(0.0119,0,0,-0.0119,0,0)" d="M328 111L304 94C251 56 203 36 167 36C120 36 91 73 91 133C91 158 94 185 99 214C116 218 225 248 250 259C335 296 374 342 374 404C374 451 340 482 290 482C222 496 112 423 75 349C45 299 15 180 15 113C15 35 59 -11 131 -11C188 -11 244 17 336 92ZM113 274C130 343 150 386 179 412C197 428 228 440 252 440C281 440 300 420 300 388C300 344 265 297 213 272C185 258 149 247 104 237ZM412 388L419 368L451 389C488 412 491 414 498 414C509 414 516 404 516 389C516 338 475 145 434 2L441 -9C466 -2 489 4 511 8C530 134 551 199 597 268C651 352 726 414 771 414C782 414 788 405 788 390C788 372 785 351 777 319L725 107C716 70 712 47 712 31C712 6 723 -9 742 -9C768 -9 804 12 902 85L892 103L866 86C837 67 815 56 805 56C798 56 792 65 792 76C792 81 793 92 794 96L860 372C867 401 871 429 871 446C871 469 860 482 840 482C798 482 729 444 670 389C632 354 604 320 552 247L590 408C594 426 596 438 596 449C596 470 588 482 573 482C552 482 513 460 440 408ZM1285 330L1308 330C1316 395 1323 432 1332 458C1308 473 1273 482 1236 482C1191 483 1118 463 1061 400C1007 352 968 241 968 136C968 40 1010 -11 1090 -11C1144 -11 1192 9 1247 54L1297 95L1289 115L1274 105C1202 57 1164 40 1129 40C1073 40 1044 80 1044 159C1044 267 1079 371 1128 409C1149 425 1173 433 1204 433C1249 433 1285 414 1285 390ZM1600 722L1588 733C1536 707 1500 698 1428 691L1424 670L1472 670C1496 670 1506 663 1506 648C1506 645 1506 640 1503 622C1492 567 1419 182 1404 132C1391 82 1385 52 1385 31C1385 6 1396 -9 1415 -9C1441 -9 1477 12 1575 85L1565 103L1539 86C1510 67 1488 56 1478 56C1471 56 1465 66 1465 76C1465 82 1466 89 1469 104Z" stroke="rgb(0,0,0)" stroke-opacity="1" stroke-width="8" fill="rgb(0,0,0)" fill-opacity="1"></path></g></g></g></g></g></g></g><g><g><g><g transform="matrix(1,0,0,1,411,160.33334350585938)"><path transform="matrix(0.017,0,0,-0.017,0,0)" d="M31 148C26 97 20 62 9 16C47 -2 81 -11 116 -11C165 -11 211 7 262 47C313 87 334 124 334 174C334 228 302 257 228 271L185 279C125 290 106 307 106 348C106 401 151 442 208 442C249 442 287 424 303 397L303 342L326 342C330 377 334 404 345 455C306 474 278 482 245 482C193 482 132 452 84 404C58 377 47 352 47 316C47 260 78 228 144 215L207 203C251 195 267 177 267 138C267 73 221 29 150 29C115 29 84 40 56 64L56 148Z" stroke="rgb(0,0,0)" stroke-opacity="1" stroke-width="8" fill="rgb(0,0,0)" fill-opacity="1"></path></g></g><g><g transform="matrix(1,0,0,1,421,160.33334350585938)"><path transform="matrix(0.017,0,0,-0.017,0,0)" d="M297 714L242 714L-37 -169L18 -169Z" stroke="rgb(0,0,0)" stroke-opacity="1" stroke-width="8" fill="rgb(0,0,0)" fill-opacity="1"></path></g></g><g><g transform="matrix(1,0,0,1,429.26043701171875,160.33334350585938)"><path transform="matrix(0.017,0,0,-0.017,0,0)" d="M105 664L161 662C185 661 196 653 196 635C196 621 192 589 187 559L112 125C96 34 94 32 54 28L13 25L9 -3L51 -2C98 0 117 0 141 0L238 -3L264 -3L267 25L218 28C191 30 182 38 182 58C182 67 183 76 186 93L287 648C316 654 336 656 363 656C450 656 496 617 496 543C496 448 418 378 314 378L270 378L267 367C401 172 432 124 507 -3C507 -3 592 0 592 0C593 0 607 -1 626 -3L639 -3L639 24C599 29 588 37 559 79L375 354C430 364 459 376 495 402C553 444 584 499 584 560C584 646 520 693 409 691L108 691Z" stroke="rgb(0,0,0)" stroke-opacity="1" stroke-width="8" fill="rgb(0,0,0)" fill-opacity="1"></path></g></g></g></g><g><g><g><g transform="matrix(1,0,0,1,20,41.23333587646484)"><path transform="matrix(0.0119,0,0,-0.0119,0,0)" d="M151 -172C151 -95 175 -59 228 -59C257 -59 285 -67 324 -88L469 -164C529 -195 547 -201 587 -201C662 -201 698 -158 708 -61L683 -61C677 -115 655 -140 615 -140C598 -140 579 -135 553 -125L317 -29C292 -19 274 -15 251 -15C177 -15 126 -66 126 -142C126 -144 126 -151 127 -159ZM748 425C748 603 644 706 464 706C227 706 53 523 53 272C53 83 147 -18 323 -18C595 -18 748 207 748 425ZM660 409C660 221 571 24 360 24C216 24 141 110 141 277C141 425 199 664 433 664C549 664 660 610 660 409Z" stroke="rgb(0,0,0)" stroke-opacity="1" stroke-width="8" fill="rgb(0,0,0)" fill-opacity="1"></path></g></g><g><g><g><g><g transform="matrix(1,0,0,1,32.083343505859375,33.23333587646484)"><path transform="matrix(0.0119,0,0,-0.0119,0,0)" d="M251 722L239 733C187 707 151 698 79 691L75 670L123 670C147 670 157 663 157 648C157 645 157 640 154 622C143 567 70 182 55 132C42 82 36 52 36 31C36 6 47 -9 66 -9C92 -9 128 12 226 85L216 103L190 86C161 67 139 56 129 56C122 56 116 66 116 76C116 82 117 89 120 104Z" stroke="rgb(0,0,0)" stroke-opacity="1" stroke-width="8" fill="rgb(0,0,0)" fill-opacity="1"></path></g></g></g></g><g><g><g><g transform="matrix(1,0,0,1,30.4375,50.24375)"><path transform="matrix(0.0119,0,0,-0.0119,0,0)" d="M349 664L352 692L238 689C222 689 204 689 161 690L97 692L94 664L141 662C165 661 176 653 176 635L81 55C77 37 65 30 21 23L16 -3L57 -2C88 -1 150 0 170 0C170 0 467 -1 467 -1C467 -1 500 0 500 0C499 25 510 103 523 165L492 165L475 103C466 71 457 54 448 49C435 44 371 39 304 39C255 39 228 40 162 46C165 64 256 605 256 613C263 651 270 658 307 661Z" stroke="rgb(0,0,0)" stroke-opacity="1" stroke-width="8" fill="rgb(0,0,0)" fill-opacity="1"></path></g></g></g></g><line style="fill:none;stroke-width:1px;stroke:rgb(0, 0, 0);" x1="30.4375" y1="38.364585876464844" x2="37.041666984558105" y2="38.364585876464844"></line></g></g></g></svg>
</svg>
