<svg xmlns="http://www.w3.org/2000/svg" xmlns:xlink="http://www.w3.org/1999/xlink" x="0" y="0" width="662" height="172" style="
        width:662px;
        height:172px;
        background: transparent;
        fill: none;
">
        
        
        <svg xmlns="http://www.w3.org/2000/svg" class="role-diagram-draw-area"><g class="shapes-region" style="stroke: black; fill: none;"><g class="composite-shape" data-amt="diagram/shapes/plot" transform="matrix(1,0,0,1,12,28)"><g><g><g class="test-xgi"><line x1="3.8767543945341227" y1="0" x2="3.8767543945341227" y2="130" fill="none" stroke="#c3c3c3" stroke-width="0.5"/><line x1="30.214109777304422" y1="0" x2="30.214109777304422" y2="130" fill="none" stroke="#c3c3c3" stroke-width="0.5"/><line x1="56.55146516007473" y1="0" x2="56.55146516007473" y2="130" fill="none" stroke="#c3c3c3" stroke-width="0.5"/><line x1="82.88882054284502" y1="0" x2="82.88882054284502" y2="130" fill="none" stroke="#c3c3c3" stroke-width="0.5"/><line x1="109.22617592561532" y1="0" x2="109.22617592561532" y2="130" fill="none" stroke="#c3c3c3" stroke-width="0.5"/><line x1="135.56353130838562" y1="0" x2="135.56353130838562" y2="130" fill="none" stroke="#c3c3c3" stroke-width="0.5"/><line x1="161.9008866911559" y1="0" x2="161.9008866911559" y2="130" fill="none" stroke="#c3c3c3" stroke-width="0.5"/><line x1="188.23824207392624" y1="0" x2="188.23824207392624" y2="130" fill="none" stroke="#c3c3c3" stroke-width="0.5"/><line x1="214.57559745669656" y1="0" x2="214.57559745669656" y2="130" fill="none" stroke="#c3c3c3" stroke-width="0.5"/><line x1="240.91295283946687" y1="0" x2="240.91295283946687" y2="130" fill="none" stroke="#c3c3c3" stroke-width="0.5"/><line x1="267.25030822223715" y1="0" x2="267.25030822223715" y2="130" fill="none" stroke="#c3c3c3" stroke-width="0.5"/></g><g class="test-ygi"><line x1="0" y1="103.84519127908001" x2="279.50000000000006" y2="103.84519127908001" fill="none" stroke="#c3c3c3" stroke-width="0.5"/><line x1="0" y1="77.50783589630971" x2="279.50000000000006" y2="77.50783589630971" fill="none" stroke="#c3c3c3" stroke-width="0.5"/><line x1="0" y1="51.1704805135394" x2="279.50000000000006" y2="51.1704805135394" fill="none" stroke="#c3c3c3" stroke-width="0.5"/><line x1="0" y1="24.83312513076912" x2="279.50000000000006" y2="24.83312513076912" fill="none" stroke="#c3c3c3" stroke-width="0.5"/></g></g><g><g class="test-xti" style="font-family: Asana-Math, Asana;"><line x1="0" y1="24.83312513076912" x2="275.50000000000006" y2="24.83312513076912" fill="none" stroke="rgb(50,50,50)" stroke-opacity="1" stroke-width="1"/><line x1="3.8767543945341227" y1="20.83312513076912" x2="3.8767543945341227" y2="28.83312513076912" fill="none" stroke="rgb(50,50,50)" stroke-opacity="1" stroke-width="1"/><line x1="30.214109777304422" y1="20.83312513076912" x2="30.214109777304422" y2="28.83312513076912" fill="none" stroke="rgb(50,50,50)" stroke-opacity="1" stroke-width="1"/><line x1="56.55146516007473" y1="20.83312513076912" x2="56.55146516007473" y2="28.83312513076912" fill="none" stroke="rgb(50,50,50)" stroke-opacity="1" stroke-width="1"/><line x1="82.88882054284502" y1="20.83312513076912" x2="82.88882054284502" y2="28.83312513076912" fill="none" stroke="rgb(50,50,50)" stroke-opacity="1" stroke-width="1"/><line x1="109.22617592561532" y1="20.83312513076912" x2="109.22617592561532" y2="28.83312513076912" fill="none" stroke="rgb(50,50,50)" stroke-opacity="1" stroke-width="1"/><line x1="161.9008866911559" y1="20.83312513076912" x2="161.9008866911559" y2="28.83312513076912" fill="none" stroke="rgb(50,50,50)" stroke-opacity="1" stroke-width="1"/><line x1="188.23824207392624" y1="20.83312513076912" x2="188.23824207392624" y2="28.83312513076912" fill="none" stroke="rgb(50,50,50)" stroke-opacity="1" stroke-width="1"/><line x1="214.57559745669656" y1="20.83312513076912" x2="214.57559745669656" y2="28.83312513076912" fill="none" stroke="rgb(50,50,50)" stroke-opacity="1" stroke-width="1"/><line x1="240.91295283946687" y1="20.83312513076912" x2="240.91295283946687" y2="28.83312513076912" fill="none" stroke="rgb(50,50,50)" stroke-opacity="1" stroke-width="1"/><line x1="267.25030822223715" y1="20.83312513076912" x2="267.25030822223715" y2="28.83312513076912" fill="none" stroke="rgb(50,50,50)" stroke-opacity="1" stroke-width="1"/><path d="M270.50000000000006,21.233125130769118 L278.50000000000006,24.83312513076912 L270.50000000000006,28.43312513076912 Z" stroke="none" stroke-width="1" fill="rgb(50,50,50)" fill-opacity="1"/></g><g class="test-yti" style="font-family: Asana-Math, Asana;"><line x1="135.56353130838562" y1="4" x2="135.56353130838562" y2="130" fill="none" stroke="rgb(50,50,50)" stroke-opacity="1" stroke-width="1"/><line x1="131.56353130838562" y1="103.84519127908001" x2="139.56353130838562" y2="103.84519127908001" fill="none" stroke="rgb(50,50,50)" stroke-opacity="1" stroke-width="1"/><line x1="131.56353130838562" y1="77.50783589630971" x2="139.56353130838562" y2="77.50783589630971" fill="none" stroke="rgb(50,50,50)" stroke-opacity="1" stroke-width="1"/><line x1="131.56353130838562" y1="51.1704805135394" x2="139.56353130838562" y2="51.1704805135394" fill="none" stroke="rgb(50,50,50)" stroke-opacity="1" stroke-width="1"/><path d="M131.96353130838563,9 L135.56353130838562,1 L139.16353130838561,9 Z" stroke="none" stroke-width="1" fill="rgb(50,50,50)" fill-opacity="1"/></g><g class="test-plot-expression"><defs><clipPath id="cpv8i5s5djx"><rect x="1" y="1" width="277.50000000000006" height="128"/></clipPath></defs><g clip-path="url(#cpv8i5s5djx)"><path d=" M148.73,24.83 L148.90,25.00 L149.06,25.16 L149.23,25.33 L149.39,25.49 L149.56,25.66 L149.72,25.82 L149.89,25.99 L150.05,26.15 L150.22,26.32 L150.38,26.49 L150.55,26.65 L150.71,26.82 L150.88,26.98 L151.04,27.15 L151.21,27.31 L151.38,27.48 L151.54,27.64 L151.71,27.81 L151.87,27.97 L152.04,28.14 L152.20,28.30 L152.37,28.47 L152.53,28.63 L152.70,28.80 L152.86,28.96 L153.03,29.13 L153.19,29.29 L153.36,29.46 L153.52,29.62 L153.69,29.79 L153.85,29.95 L154.02,30.12 L154.18,30.28 L154.35,30.45 L154.51,30.62 L154.68,30.78 L154.84,30.95 L155.01,31.11 L155.17,31.28 L155.34,31.44 L155.51,31.61 L155.67,31.77 L155.84,31.94 L156.00,32.10 L156.17,32.27 L156.33,32.43 L156.50,32.60 L156.66,32.76 L156.83,32.93 L156.99,33.09 L157.16,33.26 L157.32,33.42 L157.49,33.59 L157.65,33.75 L157.82,33.92 L157.98,34.08 L158.15,34.25 L158.31,34.41 L158.48,34.58 L158.64,34.75 L158.81,34.91 L158.97,35.08 L159.14,35.24 L159.30,35.41 L159.47,35.57 L159.64,35.74 L159.80,35.90 L159.97,36.07 L160.13,36.23 L160.30,36.40 L160.46,36.56 L160.63,36.73 L160.79,36.89 L160.96,37.06 L161.12,37.22 L161.29,37.39 L161.45,37.55 L161.62,37.72 L161.78,37.88 L161.95,38.05 L162.11,38.21 L162.28,38.38 L162.44,38.54 L162.61,38.71 L162.77,38.87 L162.94,39.04 L163.10,39.21 L163.27,39.37 L163.43,39.54 L163.60,39.70 L163.77,39.87 L163.93,40.03 L164.10,40.20 L164.26,40.36 L164.43,40.53 L164.59,40.69 L164.76,40.86 L164.92,41.02 L165.09,41.19 L165.25,41.35 L165.42,41.52 L165.58,41.68 L165.75,41.85 L165.91,42.01 L166.08,42.18 L166.24,42.34 L166.41,42.51 L166.57,42.67 L166.74,42.84 L166.90,43.00 L167.07,43.17 L167.23,43.34 L167.40,43.50 L167.56,43.67 L167.73,43.83 L167.90,44.00 L168.06,44.16 L168.23,44.33 L168.39,44.49 L168.56,44.66 L168.72,44.82 L168.89,44.99 L169.05,45.15 L169.22,45.32 L169.38,45.48 L169.55,45.65 L169.71,45.81 L169.88,45.98 L170.04,46.14 L170.21,46.31 L170.37,46.47 L170.54,46.64 L170.70,46.80 L170.87,46.97 L171.03,47.13 L171.20,47.30 L171.36,47.47 L171.53,47.63 L171.69,47.80 L171.86,47.96 L172.03,48.13 L172.19,48.29 L172.36,48.46 L172.52,48.62 L172.69,48.79 L172.85,48.95 L173.02,49.12 L173.18,49.28 L173.35,49.45 L173.51,49.61 L173.68,49.78 L173.84,49.94 L174.01,50.11 L174.17,50.27 L174.34,50.44 L174.50,50.60 L174.67,50.77 L174.83,50.93 L175.00,51.10 L175.16,51.26 L175.33,51.43 L175.49,51.60 L175.66,51.76 L175.82,51.93 L175.99,52.09 L176.16,52.26 L176.32,52.42 L176.49,52.59 L176.65,52.75 L176.82,52.92 L176.98,53.08 L177.15,53.25 L177.31,53.41 L177.48,53.58 L177.64,53.74 L177.81,53.91 L177.97,54.07 L178.14,54.24 L178.30,54.40 L178.47,54.57 L178.63,54.73 L178.80,54.90 L178.96,55.06 L179.13,55.23 L179.29,55.39 L179.46,55.56 L179.62,55.73 L179.79,55.89 L179.95,56.06 L180.12,56.22 L180.29,56.39 L180.45,56.55 L180.62,56.72 L180.78,56.88 L180.95,57.05 L181.11,57.21 L181.28,57.38 L181.44,57.54 L181.61,57.71 L181.77,57.87 L181.94,58.04 L182.10,58.20 L182.27,58.37 L182.43,58.53 L182.60,58.70 L182.76,58.86 L182.93,59.03 L183.09,59.19 L183.26,59.36 L183.42,59.52 L183.59,59.69 L183.75,59.86 L183.92,60.02 L184.08,60.19 L184.25,60.35 L184.42,60.52 L184.58,60.68 L184.75,60.85 L184.91,61.01 L185.08,61.18 L185.24,61.34 L185.41,61.51 L185.57,61.67 L185.74,61.84 L185.90,62.00 L186.07,62.17 L186.23,62.33 L186.40,62.50 L186.56,62.66 L186.73,62.83 L186.89,62.99 L187.06,63.16 L187.22,63.32 L187.39,63.49 L187.55,63.65 L187.72,63.82 L187.88,63.99 L188.05,64.15 L188.21,64.32 L188.38,64.48 L188.55,64.65 L188.71,64.81 L188.88,64.98 L189.04,65.14 L189.21,65.31 L189.37,65.47 L189.54,65.64 L189.70,65.80 L189.87,65.97 L190.03,66.13 L190.20,66.30 L190.36,66.46 L190.53,66.63 L190.69,66.79 L190.86,66.96 L191.02,67.12 L191.19,67.29 L191.35,67.45 L191.52,67.62 L191.68,67.78 L191.85,67.95 L192.01,68.12 L192.18,68.28 L192.34,68.45 L192.51,68.61 L192.68,68.78 L192.84,68.94 L193.01,69.11 L193.17,69.27 L193.34,69.44 L193.50,69.60 L193.67,69.77 L193.83,69.93 L194.00,70.10 L194.16,70.26 L194.33,70.43 L194.49,70.59 L194.66,70.76 L194.82,70.92 L194.99,71.09 L195.15,71.25 L195.32,71.42 L195.48,71.58 L195.65,71.75 L195.81,71.91 L195.98,72.08 L196.14,72.25 L196.31,72.41 L196.47,72.58 L196.64,72.74 L196.80,72.91 L196.97,73.07 L197.14,73.24 L197.30,73.40 L197.47,73.57 L197.63,73.73 L197.80,73.90 L197.96,74.06 L198.13,74.23 L198.29,74.39 L198.46,74.56 L198.62,74.72 L198.79,74.89 L198.95,75.05 L199.12,75.22 L199.28,75.38 L199.45,75.55 L199.61,75.71 L199.78,75.88 L199.94,76.04 L200.11,76.21 L200.27,76.38 L200.44,76.54 L200.60,76.71 L200.77,76.87 L200.93,77.04 L201.10,77.20 L201.27,77.37 L201.43,77.53 L201.60,77.70 L201.76,77.86 L201.93,78.03 L202.09,78.19 L202.26,78.36 L202.42,78.52 L202.59,78.69 L202.75,78.85 L202.92,79.02 L203.08,79.18 L203.25,79.35 L203.41,79.51 L203.58,79.68 L203.74,79.84 L203.91,80.01 L204.07,80.17 L204.24,80.34 L204.40,80.51 L204.57,80.67 L204.73,80.84 L204.90,81.00 L205.06,81.17 L205.23,81.33 L205.40,81.50 L205.56,81.66 L205.73,81.83 L205.89,81.99 L206.06,82.16 L206.22,82.32 L206.39,82.49 L206.55,82.65 L206.72,82.82 L206.88,82.98 L207.05,83.15 L207.21,83.31 L207.38,83.48 L207.54,83.64 L207.71,83.81 L207.87,83.97 L208.04,84.14 L208.20,84.30 L208.37,84.47 L208.53,84.63 L208.70,84.80 L208.86,84.97 L209.03,85.13 L209.19,85.30 L209.36,85.46 L209.53,85.63 L209.69,85.79 L209.86,85.96 L210.02,86.12 L210.19,86.29 L210.35,86.45 L210.52,86.62 L210.68,86.78 L210.85,86.95 L211.01,87.11 L211.18,87.28 L211.34,87.44 L211.51,87.61 L211.67,87.77 L211.84,87.94 L212.00,88.10 L212.17,88.27 L212.33,88.43 L212.50,88.60 L212.66,88.76 L212.83,88.93 L212.99,89.10 L213.16,89.26 L213.32,89.43 L213.49,89.59 L213.66,89.76 L213.82,89.92 L213.99,90.09 L214.15,90.25 L214.32,90.42 L214.48,90.58 L214.65,90.75 L214.81,90.91 L214.98,91.08 L215.14,91.24 L215.31,91.41 L215.47,91.57 L215.64,91.74 L215.80,91.90 L215.97,92.07 L216.13,92.23 L216.30,92.40 L216.46,92.56 L216.63,92.73 L216.79,92.89 L216.96,93.06 L217.12,93.23 L217.29,93.39 L217.45,93.56 L217.62,93.72 L217.79,93.89 L217.95,94.05 L218.12,94.22 L218.28,94.38 L218.45,94.55 L218.61,94.71 L218.78,94.88 L218.94,95.04 L219.11,95.21 L219.27,95.37 L219.44,95.54 L219.60,95.70 L219.77,95.87 L219.93,96.03 L220.10,96.20 L220.26,96.36 L220.43,96.53 L220.59,96.69 L220.76,96.86 L220.92,97.02 L221.09,97.19 L221.25,97.36 L221.42,97.52 L221.58,97.69 L221.75,97.85 L221.92,98.02 L222.08,98.18 L222.25,98.35 L222.41,98.51 L222.58,98.68 L222.74,98.84 L222.91,99.01 L223.07,99.17 L223.24,99.34 L223.40,99.50 L223.57,99.67 L223.73,99.83 L223.90,100.00 L224.06,100.16 L224.23,100.33 L224.39,100.49 L224.56,100.66 L224.72,100.82 L224.89,100.99 L225.05,101.15 L225.22,101.32 L225.38,101.49 L225.55,101.65 L225.71,101.82 L225.88,101.98 L226.05,102.15 L226.21,102.31 L226.38,102.48 L226.54,102.64 L226.71,102.81 L226.87,102.97 L227.04,103.14 L227.20,103.30 L227.37,103.47 L227.53,103.63 L227.70,103.80 L227.86,103.96 L228.03,104.13 L228.19,104.29 L228.36,104.46 L228.52,104.62 L228.69,104.79 L228.85,104.95 L229.02,105.12 L229.18,105.28 L229.35,105.45 L229.51,105.62 L229.68,105.78 L229.84,105.95 L230.01,106.11 L230.18,106.28 L230.34,106.44 L230.51,106.61 L230.67,106.77 L230.84,106.94 L231.00,107.10 L231.17,107.27 L231.33,107.43 L231.50,107.60 L231.66,107.76 L231.83,107.93 L231.99,108.09 L232.16,108.26 L232.32,108.42 L232.49,108.59 L232.65,108.75 L232.82,108.92 L232.98,109.08 L233.15,109.25 L233.31,109.41 L233.48,109.58 L233.64,109.75 L233.81,109.91 L233.97,110.08 L234.14,110.24 L234.31,110.41 L234.47,110.57 L234.64,110.74 L234.80,110.90 L234.97,111.07 L235.13,111.23 L235.30,111.40 L235.46,111.56 L235.63,111.73 L235.79,111.89 L235.96,112.06 L236.12,112.22 L236.29,112.39 L236.45,112.55 L236.62,112.72 L236.78,112.88 L236.95,113.05 L237.11,113.21 L237.28,113.38 L237.44,113.54 L237.61,113.71 L237.77,113.88 L237.94,114.04 L238.10,114.21 L238.27,114.37 L238.43,114.54 L238.60,114.70 L238.77,114.87 L238.93,115.03 L239.10,115.20 L239.26,115.36 L239.43,115.53 L239.59,115.69 L239.76,115.86 L239.92,116.02 L240.09,116.19 L240.25,116.35 L240.42,116.52 L240.58,116.68 L240.75,116.85 L240.91,117.01 L240.91,117.01" style="stroke-width: 2; stroke: rgb(0, 0, 0); stroke-opacity: 1;"/><path d=" M122.39,24.83 L122.44,24.83 L122.49,24.83 L122.54,24.83 L122.58,24.83 L122.63,24.83 L122.68,24.83 L122.73,24.83 L122.77,24.83 L122.82,24.83 L122.87,24.83 L122.91,24.83 L122.96,24.83 L123.01,24.83 L123.06,24.83 L123.10,24.83 L123.15,24.83 L123.20,24.83 L123.24,24.83 L123.29,24.83 L123.34,24.83 L123.39,24.83 L123.43,24.83 L123.48,24.83 L123.53,24.83 L123.57,24.83 L123.62,24.83 L123.67,24.83 L123.72,24.83 L123.76,24.83 L123.81,24.83 L123.86,24.83 L123.91,24.83 L123.95,24.83 L124.00,24.83 L124.05,24.83 L124.09,24.83 L124.14,24.83 L124.19,24.83 L124.24,24.83 L124.28,24.83 L124.33,24.83 L124.38,24.83 L124.42,24.83 L124.47,24.83 L124.52,24.83 L124.57,24.83 L124.61,24.83 L124.66,24.83 L124.71,24.83 L124.75,24.83 L124.80,24.83 L124.85,24.83 L124.90,24.83 L124.94,24.83 L124.99,24.83 L125.04,24.83 L125.09,24.83 L125.13,24.83 L125.18,24.83 L125.23,24.83 L125.27,24.83 L125.32,24.83 L125.37,24.83 L125.42,24.83 L125.46,24.83 L125.51,24.83 L125.56,24.83 L125.60,24.83 L125.65,24.83 L125.70,24.83 L125.75,24.83 L125.79,24.83 L125.84,24.83 L125.89,24.83 L125.93,24.83 L125.98,24.83 L126.03,24.83 L126.08,24.83 L126.12,24.83 L126.17,24.83 L126.22,24.83 L126.27,24.83 L126.31,24.83 L126.36,24.83 L126.41,24.83 L126.45,24.83 L126.50,24.83 L126.55,24.83 L126.60,24.83 L126.64,24.83 L126.69,24.83 L126.74,24.83 L126.78,24.83 L126.83,24.83 L126.88,24.83 L126.93,24.83 L126.97,24.83 L127.02,24.83 L127.07,24.83 L127.11,24.83 L127.16,24.83 L127.21,24.83 L127.26,24.83 L127.30,24.83 L127.35,24.83 L127.40,24.83 L127.45,24.83 L127.49,24.83 L127.54,24.83 L127.59,24.83 L127.63,24.83 L127.68,24.83 L127.73,24.83 L127.78,24.83 L127.82,24.83 L127.87,24.83 L127.92,24.83 L127.96,24.83 L128.01,24.83 L128.06,24.83 L128.11,24.83 L128.15,24.83 L128.20,24.83 L128.25,24.83 L128.29,24.83 L128.34,24.83 L128.39,24.83 L128.44,24.83 L128.48,24.83 L128.53,24.83 L128.58,24.83 L128.63,24.83 L128.67,24.83 L128.72,24.83 L128.77,24.83 L128.81,24.83 L128.86,24.83 L128.91,24.83 L128.96,24.83 L129.00,24.83 L129.05,24.83 L129.10,24.83 L129.14,24.83 L129.19,24.83 L129.24,24.83 L129.29,24.83 L129.33,24.83 L129.38,24.83 L129.43,24.83 L129.47,24.83 L129.52,24.83 L129.57,24.83 L129.62,24.83 L129.66,24.83 L129.71,24.83 L129.76,24.83 L129.81,24.83 L129.85,24.83 L129.90,24.83 L129.95,24.83 L129.99,24.83 L130.04,24.83 L130.09,24.83 L130.14,24.83 L130.18,24.83 L130.23,24.83 L130.28,24.83 L130.32,24.83 L130.37,24.83 L130.42,24.83 L130.47,24.83 L130.51,24.83 L130.56,24.83 L130.61,24.83 L130.65,24.83 L130.70,24.83 L130.75,24.83 L130.80,24.83 L130.84,24.83 L130.89,24.83 L130.94,24.83 L130.99,24.83 L131.03,24.83 L131.08,24.83 L131.13,24.83 L131.17,24.83 L131.22,24.83 L131.27,24.83 L131.32,24.83 L131.36,24.83 L131.41,24.83 L131.46,24.83 L131.50,24.83 L131.55,24.83 L131.60,24.83 L131.65,24.83 L131.69,24.83 L131.74,24.83 L131.79,24.83 L131.83,24.83 L131.88,24.83 L131.93,24.83 L131.98,24.83 L132.02,24.83 L132.07,24.83 L132.12,24.83 L132.17,24.83 L132.21,24.83 L132.26,24.83 L132.31,24.83 L132.35,24.83 L132.40,24.83 L132.45,24.83 L132.50,24.83 L132.54,24.83 L132.59,24.83 L132.64,24.83 L132.68,24.83 L132.73,24.83 L132.78,24.83 L132.83,24.83 L132.87,24.83 L132.92,24.83 L132.97,24.83 L133.01,24.83 L133.06,24.83 L133.11,24.83 L133.16,24.83 L133.20,24.83 L133.25,24.83 L133.30,24.83 L133.35,24.83 L133.39,24.83 L133.44,24.83 L133.49,24.83 L133.53,24.83 L133.58,24.83 L133.63,24.83 L133.68,24.83 L133.72,24.83 L133.77,24.83 L133.82,24.83 L133.86,24.83 L133.91,24.83 L133.96,24.83 L134.01,24.83 L134.05,24.83 L134.10,24.83 L134.15,24.83 L134.19,24.83 L134.24,24.83 L134.29,24.83 L134.34,24.83 L134.38,24.83 L134.43,24.83 L134.48,24.83 L134.53,24.83 L134.57,24.83 L134.62,24.83 L134.67,24.83 L134.71,24.83 L134.76,24.83 L134.81,24.83 L134.86,24.83 L134.90,24.83 L134.95,24.83 L135.00,24.83 L135.04,24.83 L135.09,24.83 L135.14,24.83 L135.19,24.83 L135.23,24.83 L135.28,24.83 L135.33,24.83 L135.37,24.83 L135.42,24.83 L135.47,24.83 L135.52,24.83 L135.56,24.83 L135.61,24.83 L135.66,24.83 L135.71,24.83 L135.75,24.83 L135.80,24.83 L135.85,24.83 L135.89,24.83 L135.94,24.83 L135.99,24.83 L136.04,24.83 L136.08,24.83 L136.13,24.83 L136.18,24.83 L136.22,24.83 L136.27,24.83 L136.32,24.83 L136.37,24.83 L136.41,24.83 L136.46,24.83 L136.51,24.83 L136.55,24.83 L136.60,24.83 L136.65,24.83 L136.70,24.83 L136.74,24.83 L136.79,24.83 L136.84,24.83 L136.89,24.83 L136.93,24.83 L136.98,24.83 L137.03,24.83 L137.07,24.83 L137.12,24.83 L137.17,24.83 L137.22,24.83 L137.26,24.83 L137.31,24.83 L137.36,24.83 L137.40,24.83 L137.45,24.83 L137.50,24.83 L137.55,24.83 L137.59,24.83 L137.64,24.83 L137.69,24.83 L137.73,24.83 L137.78,24.83 L137.83,24.83 L137.88,24.83 L137.92,24.83 L137.97,24.83 L138.02,24.83 L138.07,24.83 L138.11,24.83 L138.16,24.83 L138.21,24.83 L138.25,24.83 L138.30,24.83 L138.35,24.83 L138.40,24.83 L138.44,24.83 L138.49,24.83 L138.54,24.83 L138.58,24.83 L138.63,24.83 L138.68,24.83 L138.73,24.83 L138.77,24.83 L138.82,24.83 L138.87,24.83 L138.91,24.83 L138.96,24.83 L139.01,24.83 L139.06,24.83 L139.10,24.83 L139.15,24.83 L139.20,24.83 L139.25,24.83 L139.29,24.83 L139.34,24.83 L139.39,24.83 L139.43,24.83 L139.48,24.83 L139.53,24.83 L139.58,24.83 L139.62,24.83 L139.67,24.83 L139.72,24.83 L139.76,24.83 L139.81,24.83 L139.86,24.83 L139.91,24.83 L139.95,24.83 L140.00,24.83 L140.05,24.83 L140.09,24.83 L140.14,24.83 L140.19,24.83 L140.24,24.83 L140.28,24.83 L140.33,24.83 L140.38,24.83 L140.43,24.83 L140.47,24.83 L140.52,24.83 L140.57,24.83 L140.61,24.83 L140.66,24.83 L140.71,24.83 L140.76,24.83 L140.80,24.83 L140.85,24.83 L140.90,24.83 L140.94,24.83 L140.99,24.83 L141.04,24.83 L141.09,24.83 L141.13,24.83 L141.18,24.83 L141.23,24.83 L141.27,24.83 L141.32,24.83 L141.37,24.83 L141.42,24.83 L141.46,24.83 L141.51,24.83 L141.56,24.83 L141.61,24.83 L141.65,24.83 L141.70,24.83 L141.75,24.83 L141.79,24.83 L141.84,24.83 L141.89,24.83 L141.94,24.83 L141.98,24.83 L142.03,24.83 L142.08,24.83 L142.12,24.83 L142.17,24.83 L142.22,24.83 L142.27,24.83 L142.31,24.83 L142.36,24.83 L142.41,24.83 L142.45,24.83 L142.50,24.83 L142.55,24.83 L142.60,24.83 L142.64,24.83 L142.69,24.83 L142.74,24.83 L142.79,24.83 L142.83,24.83 L142.88,24.83 L142.93,24.83 L142.97,24.83 L143.02,24.83 L143.07,24.83 L143.12,24.83 L143.16,24.83 L143.21,24.83 L143.26,24.83 L143.30,24.83 L143.35,24.83 L143.40,24.83 L143.45,24.83 L143.49,24.83 L143.54,24.83 L143.59,24.83 L143.63,24.83 L143.68,24.83 L143.73,24.83 L143.78,24.83 L143.82,24.83 L143.87,24.83 L143.92,24.83 L143.97,24.83 L144.01,24.83 L144.06,24.83 L144.11,24.83 L144.15,24.83 L144.20,24.83 L144.25,24.83 L144.30,24.83 L144.34,24.83 L144.39,24.83 L144.44,24.83 L144.48,24.83 L144.53,24.83 L144.58,24.83 L144.63,24.83 L144.67,24.83 L144.72,24.83 L144.77,24.83 L144.81,24.83 L144.86,24.83 L144.91,24.83 L144.96,24.83 L145.00,24.83 L145.05,24.83 L145.10,24.83 L145.15,24.83 L145.19,24.83 L145.24,24.83 L145.29,24.83 L145.33,24.83 L145.38,24.83 L145.43,24.83 L145.48,24.83 L145.52,24.83 L145.57,24.83 L145.62,24.83 L145.66,24.83 L145.71,24.83 L145.76,24.83 L145.81,24.83 L145.85,24.83 L145.90,24.83 L145.95,24.83 L145.99,24.83 L146.04,24.83 L146.09,24.83 L146.14,24.83 L146.18,24.83 L146.23,24.83 L146.28,24.83 L146.33,24.83 L146.37,24.83 L146.42,24.83 L146.47,24.83 L146.51,24.83 L146.56,24.83 L146.61,24.83 L146.66,24.83 L146.70,24.83 L146.75,24.83 L146.80,24.83 L146.84,24.83 L146.89,24.83 L146.94,24.83 L146.99,24.83 L147.03,24.83 L147.08,24.83 L147.13,24.83 L147.17,24.83 L147.22,24.83 L147.27,24.83 L147.32,24.83 L147.36,24.83 L147.41,24.83 L147.46,24.83 L147.51,24.83 L147.55,24.83 L147.60,24.83 L147.65,24.83 L147.69,24.83 L147.74,24.83 L147.79,24.83 L147.84,24.83 L147.88,24.83 L147.93,24.83 L147.98,24.83 L148.02,24.83 L148.07,24.83 L148.12,24.83 L148.17,24.83 L148.21,24.83 L148.26,24.83 L148.31,24.83 L148.35,24.83 L148.40,24.83 L148.45,24.83 L148.50,24.83 L148.54,24.83 L148.59,24.83 L148.64,24.83 L148.69,24.83 L148.73,24.83 L148.73,24.83" style="stroke-width: 2; stroke: rgb(0, 0, 0); stroke-opacity: 1;"/><path d=" M30.21,117.01 L30.38,116.85 L30.54,116.68 L30.71,116.52 L30.87,116.35 L31.04,116.19 L31.21,116.02 L31.37,115.86 L31.54,115.69 L31.70,115.53 L31.87,115.36 L32.03,115.20 L32.20,115.03 L32.36,114.87 L32.53,114.70 L32.69,114.54 L32.86,114.37 L33.02,114.21 L33.19,114.04 L33.35,113.88 L33.52,113.71 L33.68,113.54 L33.85,113.38 L34.01,113.21 L34.18,113.05 L34.34,112.88 L34.51,112.72 L34.67,112.55 L34.84,112.39 L35.00,112.22 L35.17,112.06 L35.34,111.89 L35.50,111.73 L35.67,111.56 L35.83,111.40 L36.00,111.23 L36.16,111.07 L36.33,110.90 L36.49,110.74 L36.66,110.57 L36.82,110.41 L36.99,110.24 L37.15,110.08 L37.32,109.91 L37.48,109.75 L37.65,109.58 L37.81,109.41 L37.98,109.25 L38.14,109.08 L38.31,108.92 L38.47,108.75 L38.64,108.59 L38.80,108.42 L38.97,108.26 L39.13,108.09 L39.30,107.93 L39.47,107.76 L39.63,107.60 L39.80,107.43 L39.96,107.27 L40.13,107.10 L40.29,106.94 L40.46,106.77 L40.62,106.61 L40.79,106.44 L40.95,106.28 L41.12,106.11 L41.28,105.95 L41.45,105.78 L41.61,105.62 L41.78,105.45 L41.94,105.28 L42.11,105.12 L42.27,104.95 L42.44,104.79 L42.60,104.62 L42.77,104.46 L42.93,104.29 L43.10,104.13 L43.26,103.96 L43.43,103.80 L43.60,103.63 L43.76,103.47 L43.93,103.30 L44.09,103.14 L44.26,102.97 L44.42,102.81 L44.59,102.64 L44.75,102.48 L44.92,102.31 L45.08,102.15 L45.25,101.98 L45.41,101.82 L45.58,101.65 L45.74,101.49 L45.91,101.32 L46.07,101.15 L46.24,100.99 L46.40,100.82 L46.57,100.66 L46.73,100.49 L46.90,100.33 L47.06,100.16 L47.23,100.00 L47.39,99.83 L47.56,99.67 L47.73,99.50 L47.89,99.34 L48.06,99.17 L48.22,99.01 L48.39,98.84 L48.55,98.68 L48.72,98.51 L48.88,98.35 L49.05,98.18 L49.21,98.02 L49.38,97.85 L49.54,97.69 L49.71,97.52 L49.87,97.36 L50.04,97.19 L50.20,97.02 L50.37,96.86 L50.53,96.69 L50.70,96.53 L50.86,96.36 L51.03,96.20 L51.19,96.03 L51.36,95.87 L51.52,95.70 L51.69,95.54 L51.86,95.37 L52.02,95.21 L52.19,95.04 L52.35,94.88 L52.52,94.71 L52.68,94.55 L52.85,94.38 L53.01,94.22 L53.18,94.05 L53.34,93.89 L53.51,93.72 L53.67,93.56 L53.84,93.39 L54.00,93.23 L54.17,93.06 L54.33,92.89 L54.50,92.73 L54.66,92.56 L54.83,92.40 L54.99,92.23 L55.16,92.07 L55.32,91.90 L55.49,91.74 L55.65,91.57 L55.82,91.41 L55.99,91.24 L56.15,91.08 L56.32,90.91 L56.48,90.75 L56.65,90.58 L56.81,90.42 L56.98,90.25 L57.14,90.09 L57.31,89.92 L57.47,89.76 L57.64,89.59 L57.80,89.43 L57.97,89.26 L58.13,89.10 L58.30,88.93 L58.46,88.76 L58.63,88.60 L58.79,88.43 L58.96,88.27 L59.12,88.10 L59.29,87.94 L59.45,87.77 L59.62,87.61 L59.78,87.44 L59.95,87.28 L60.12,87.11 L60.28,86.95 L60.45,86.78 L60.61,86.62 L60.78,86.45 L60.94,86.29 L61.11,86.12 L61.27,85.96 L61.44,85.79 L61.60,85.63 L61.77,85.46 L61.93,85.30 L62.10,85.13 L62.26,84.97 L62.43,84.80 L62.59,84.63 L62.76,84.47 L62.92,84.30 L63.09,84.14 L63.25,83.97 L63.42,83.81 L63.58,83.64 L63.75,83.48 L63.91,83.31 L64.08,83.15 L64.24,82.98 L64.41,82.82 L64.58,82.65 L64.74,82.49 L64.91,82.32 L65.07,82.16 L65.24,81.99 L65.40,81.83 L65.57,81.66 L65.73,81.50 L65.90,81.33 L66.06,81.17 L66.23,81.00 L66.39,80.84 L66.56,80.67 L66.72,80.51 L66.89,80.34 L67.05,80.17 L67.22,80.01 L67.38,79.84 L67.55,79.68 L67.71,79.51 L67.88,79.35 L68.04,79.18 L68.21,79.02 L68.37,78.85 L68.54,78.69 L68.71,78.52 L68.87,78.36 L69.04,78.19 L69.20,78.03 L69.37,77.86 L69.53,77.70 L69.70,77.53 L69.86,77.37 L70.03,77.20 L70.19,77.04 L70.36,76.87 L70.52,76.71 L70.69,76.54 L70.85,76.38 L71.02,76.21 L71.18,76.04 L71.35,75.88 L71.51,75.71 L71.68,75.55 L71.84,75.38 L72.01,75.22 L72.17,75.05 L72.34,74.89 L72.50,74.72 L72.67,74.56 L72.84,74.39 L73.00,74.23 L73.17,74.06 L73.33,73.90 L73.50,73.73 L73.66,73.57 L73.83,73.40 L73.99,73.24 L74.16,73.07 L74.32,72.91 L74.49,72.74 L74.65,72.58 L74.82,72.41 L74.98,72.25 L75.15,72.08 L75.31,71.91 L75.48,71.75 L75.64,71.58 L75.81,71.42 L75.97,71.25 L76.14,71.09 L76.30,70.92 L76.47,70.76 L76.63,70.59 L76.80,70.43 L76.97,70.26 L77.13,70.10 L77.30,69.93 L77.46,69.77 L77.63,69.60 L77.79,69.44 L77.96,69.27 L78.12,69.11 L78.29,68.94 L78.45,68.78 L78.62,68.61 L78.78,68.45 L78.95,68.28 L79.11,68.12 L79.28,67.95 L79.44,67.78 L79.61,67.62 L79.77,67.45 L79.94,67.29 L80.10,67.12 L80.27,66.96 L80.43,66.79 L80.60,66.63 L80.76,66.46 L80.93,66.30 L81.10,66.13 L81.26,65.97 L81.43,65.80 L81.59,65.64 L81.76,65.47 L81.92,65.31 L82.09,65.14 L82.25,64.98 L82.42,64.81 L82.58,64.65 L82.75,64.48 L82.91,64.32 L83.08,64.15 L83.24,63.99 L83.41,63.82 L83.57,63.65 L83.74,63.49 L83.90,63.32 L84.07,63.16 L84.23,62.99 L84.40,62.83 L84.56,62.66 L84.73,62.50 L84.89,62.33 L85.06,62.17 L85.23,62.00 L85.39,61.84 L85.56,61.67 L85.72,61.51 L85.89,61.34 L86.05,61.18 L86.22,61.01 L86.38,60.85 L86.55,60.68 L86.71,60.52 L86.88,60.35 L87.04,60.19 L87.21,60.02 L87.37,59.86 L87.54,59.69 L87.70,59.52 L87.87,59.36 L88.03,59.19 L88.20,59.03 L88.36,58.86 L88.53,58.70 L88.69,58.53 L88.86,58.37 L89.02,58.20 L89.19,58.04 L89.36,57.87 L89.52,57.71 L89.69,57.54 L89.85,57.38 L90.02,57.21 L90.18,57.05 L90.35,56.88 L90.51,56.72 L90.68,56.55 L90.84,56.39 L91.01,56.22 L91.17,56.06 L91.34,55.89 L91.50,55.73 L91.67,55.56 L91.83,55.39 L92.00,55.23 L92.16,55.06 L92.33,54.90 L92.49,54.73 L92.66,54.57 L92.82,54.40 L92.99,54.24 L93.15,54.07 L93.32,53.91 L93.49,53.74 L93.65,53.58 L93.82,53.41 L93.98,53.25 L94.15,53.08 L94.31,52.92 L94.48,52.75 L94.64,52.59 L94.81,52.42 L94.97,52.26 L95.14,52.09 L95.30,51.93 L95.47,51.76 L95.63,51.60 L95.80,51.43 L95.96,51.26 L96.13,51.10 L96.29,50.93 L96.46,50.77 L96.62,50.60 L96.79,50.44 L96.95,50.27 L97.12,50.11 L97.28,49.94 L97.45,49.78 L97.62,49.61 L97.78,49.45 L97.95,49.28 L98.11,49.12 L98.28,48.95 L98.44,48.79 L98.61,48.62 L98.77,48.46 L98.94,48.29 L99.10,48.13 L99.27,47.96 L99.43,47.80 L99.60,47.63 L99.76,47.47 L99.93,47.30 L100.09,47.13 L100.26,46.97 L100.42,46.80 L100.59,46.64 L100.75,46.47 L100.92,46.31 L101.08,46.14 L101.25,45.98 L101.41,45.81 L101.58,45.65 L101.75,45.48 L101.91,45.32 L102.08,45.15 L102.24,44.99 L102.41,44.82 L102.57,44.66 L102.74,44.49 L102.90,44.33 L103.07,44.16 L103.23,44.00 L103.40,43.83 L103.56,43.67 L103.73,43.50 L103.89,43.34 L104.06,43.17 L104.22,43.00 L104.39,42.84 L104.55,42.67 L104.72,42.51 L104.88,42.34 L105.05,42.18 L105.21,42.01 L105.38,41.85 L105.54,41.68 L105.71,41.52 L105.88,41.35 L106.04,41.19 L106.21,41.02 L106.37,40.86 L106.54,40.69 L106.70,40.53 L106.87,40.36 L107.03,40.20 L107.20,40.03 L107.36,39.87 L107.53,39.70 L107.69,39.54 L107.86,39.37 L108.02,39.21 L108.19,39.04 L108.35,38.87 L108.52,38.71 L108.68,38.54 L108.85,38.38 L109.01,38.21 L109.18,38.05 L109.34,37.88 L109.51,37.72 L109.67,37.55 L109.84,37.39 L110.00,37.22 L110.17,37.06 L110.34,36.89 L110.50,36.73 L110.67,36.56 L110.83,36.40 L111.00,36.23 L111.16,36.07 L111.33,35.90 L111.49,35.74 L111.66,35.57 L111.82,35.41 L111.99,35.24 L112.15,35.08 L112.32,34.91 L112.48,34.75 L112.65,34.58 L112.81,34.41 L112.98,34.25 L113.14,34.08 L113.31,33.92 L113.47,33.75 L113.64,33.59 L113.80,33.42 L113.97,33.26 L114.13,33.09 L114.30,32.93 L114.47,32.76 L114.63,32.60 L114.80,32.43 L114.96,32.27 L115.13,32.10 L115.29,31.94 L115.46,31.77 L115.62,31.61 L115.79,31.44 L115.95,31.28 L116.12,31.11 L116.28,30.95 L116.45,30.78 L116.61,30.62 L116.78,30.45 L116.94,30.28 L117.11,30.12 L117.27,29.95 L117.44,29.79 L117.60,29.62 L117.77,29.46 L117.93,29.29 L118.10,29.13 L118.26,28.96 L118.43,28.80 L118.60,28.63 L118.76,28.47 L118.93,28.30 L119.09,28.14 L119.26,27.97 L119.42,27.81 L119.59,27.64 L119.75,27.48 L119.92,27.31 L120.08,27.15 L120.25,26.98 L120.41,26.82 L120.58,26.65 L120.74,26.49 L120.91,26.32 L121.07,26.15 L121.24,25.99 L121.40,25.82 L121.57,25.66 L121.73,25.49 L121.90,25.33 L122.06,25.16 L122.23,25.00 L122.39,24.83 L122.39,24.83" style="stroke-width: 2; stroke: rgb(0, 0, 0); stroke-opacity: 1;"/></g></g><g class="test-xtl" style="font-family: &quot;Open Sans&quot;, verdana, arial, sans-serif;"><text text-anchor="middle" font-size="11" dominant-baseline="hanging" stroke="none" fill="rgb(50,50,50)" fill-opacity="1" x="0.741754394534123" y="31.83312513076912">-5</text><text text-anchor="middle" font-size="11" dominant-baseline="hanging" stroke="none" fill="rgb(50,50,50)" fill-opacity="1" x="27.079109777304424" y="31.83312513076912">-4</text><text text-anchor="middle" font-size="11" dominant-baseline="hanging" stroke="none" fill="rgb(50,50,50)" fill-opacity="1" x="53.41646516007473" y="31.83312513076912">-3</text><text text-anchor="middle" font-size="11" dominant-baseline="hanging" stroke="none" fill="rgb(50,50,50)" fill-opacity="1" x="79.75382054284502" y="31.83312513076912">-2</text><text text-anchor="middle" font-size="11" dominant-baseline="hanging" stroke="none" fill="rgb(50,50,50)" fill-opacity="1" x="106.09117592561532" y="31.83312513076912">-1</text><text text-anchor="middle" font-size="11" dominant-baseline="hanging" stroke="none" fill="rgb(50,50,50)" fill-opacity="1" x="161.9008866911559" y="31.83312513076912">1</text><text text-anchor="middle" font-size="11" dominant-baseline="hanging" stroke="none" fill="rgb(50,50,50)" fill-opacity="1" x="188.23824207392624" y="31.83312513076912">2</text><text text-anchor="middle" font-size="11" dominant-baseline="hanging" stroke="none" fill="rgb(50,50,50)" fill-opacity="1" x="214.57559745669656" y="31.83312513076912">3</text><text text-anchor="middle" font-size="11" dominant-baseline="hanging" stroke="none" fill="rgb(50,50,50)" fill-opacity="1" x="240.91295283946687" y="31.83312513076912">4</text><text text-anchor="middle" font-size="11" dominant-baseline="hanging" stroke="none" fill="rgb(50,50,50)" fill-opacity="1" x="267.25030822223715" y="31.83312513076912">5</text><text text-anchor="middle" font-size="11" dominant-baseline="hanging" stroke="none" fill="rgb(50,50,50)" fill-opacity="1" x="127.56353130838562" y="29.83312513076912">0</text></g><g class="test-ytl" style="font-family: &quot;Open Sans&quot;, verdana, arial, sans-serif;"><text text-anchor="end" dominant-baseline="middle" font-size="11" stroke="none" fill="rgb(50,50,50)" fill-opacity="1" x="127.56353130838562" y="103.84519127908001">-3</text><text text-anchor="end" dominant-baseline="middle" font-size="11" stroke="none" fill="rgb(50,50,50)" fill-opacity="1" x="127.56353130838562" y="77.50783589630971">-2</text><text text-anchor="end" dominant-baseline="middle" font-size="11" stroke="none" fill="rgb(50,50,50)" fill-opacity="1" x="127.56353130838562" y="51.1704805135394">-1</text></g><rect class="real" x="1" y="1" width="277.50000000000006" height="128" style="fill: transparent; stroke: none;"/></g></g></g><g/></g><g/><g/><g/></svg>
        <svg xmlns="http://www.w3.org/2000/svg" xmlns:xlink="http://www.w3.org/1999/xlink" width="660" height="170" style="width:660px;height:170px;font-family:Asana-Math, Asana;background:transparent;"><g><g><g><g transform="matrix(1,0,0,1,296,56.49999084472656)"><path transform="matrix(0.0119,0,0,-0.0119,0,0)" d="M9 1C24 -7 40 -11 52 -11C85 -11 124 18 155 65L231 182L242 113C255 28 278 -11 314 -11C336 -11 368 6 400 35L449 79L440 98C404 68 379 53 363 53C348 53 335 63 325 83C316 102 305 139 300 168L282 269L317 318C364 383 391 406 422 406C438 406 450 398 455 383L469 387L484 472C472 479 463 482 454 482C414 482 374 446 312 354L275 299L269 347C257 446 230 482 171 482C145 482 123 474 114 461L56 378L73 368C103 402 123 416 142 416C175 416 197 375 214 277L225 215L185 153C142 86 108 54 80 54C65 54 54 58 52 63L41 91L21 88C21 53 13 27 9 1Z" stroke="rgb(0,0,0)" stroke-opacity="1" stroke-width="8" fill="rgb(0,0,0)" fill-opacity="1"></path></g></g><g><g transform="matrix(1,0,0,1,304.31878662109375,56.49999084472656)"><path transform="matrix(0.0119,0,0,-0.0119,0,0)" d="M297 714L242 714L-37 -169L18 -169Z" stroke="rgb(0,0,0)" stroke-opacity="1" stroke-width="8" fill="rgb(0,0,0)" fill-opacity="1"></path></g></g><g><g transform="matrix(1,0,0,1,310.10003662109375,56.49999084472656)"><path transform="matrix(0.0119,0,0,-0.0119,0,0)" d="M125 390L69 107C68 99 56 61 56 31C56 6 67 -9 86 -9C121 -9 156 11 234 74L265 99L255 117L210 86C181 66 161 56 150 56C141 56 136 64 136 76C136 102 150 183 179 328L192 390L299 390L310 440C272 436 238 434 200 434C216 528 227 577 245 631L234 646C214 634 187 622 156 610L131 440C87 419 61 408 43 403L41 390Z" stroke="rgb(0,0,0)" stroke-opacity="1" stroke-width="8" fill="rgb(0,0,0)" fill-opacity="1"></path></g></g></g></g><g><g><g><g transform="matrix(1,0,0,1,127,21.49999084472656)"><path transform="matrix(0.0119,0,0,-0.0119,0,0)" d="M310 96L239 624C237 646 241 661 281 662L323 664L323 692L282 691C245 690 217 689 199 689C181 689 153 690 116 691L75 692L75 664L100 662C144 659 152 651 159 614L247 -8L296 -8L674 611C699 651 707 658 736 662L754 664L754 692L724 691C697 690 674 689 658 689C648 689 621 690 580 691L534 692L534 664L560 662C598 659 617 649 617 630C617 619 613 608 601 588Z" stroke="rgb(0,0,0)" stroke-opacity="1" stroke-width="8" fill="rgb(0,0,0)" fill-opacity="1"></path></g></g><g><g transform="matrix(1,0,0,1,137.95626831054688,21.49999084472656)"><path transform="matrix(0.0119,0,0,-0.0119,0,0)" d="M297 714L242 714L-37 -169L18 -169Z" stroke="rgb(0,0,0)" stroke-opacity="1" stroke-width="8" fill="rgb(0,0,0)" fill-opacity="1"></path></g></g><g><g transform="matrix(1,0,0,1,143.73751831054688,21.9)"><path transform="matrix(0.0119,0,0,-0.0119,0,0)" d="M146 266C146 526 243 632 301 700L282 726C225 675 60 542 60 266C60 159 85 58 133 -32C168 -99 200 -138 282 -215L301 -194C255 -137 146 -15 146 266Z" stroke="rgb(0,0,0)" stroke-opacity="1" stroke-width="8" fill="rgb(0,0,0)" fill-opacity="1"></path></g></g><g><g transform="matrix(1,0,0,1,147.69378662109375,21.49999084472656)"><path transform="matrix(0.0119,0,0,-0.0119,0,0)" d="M171 -15C331 -15 431 100 434 257C436 343 410 361 345 404L345 407C398 407 457 403 511 411C518 431 521 451 524 474C485 453 364 467 313 457C150 424 28 329 28 153C28 48 59 -15 171 -15ZM367 267C367 168 329 13 203 13C111 13 103 112 104 182C105 292 143 412 274 412C359 412 367 328 367 267Z" stroke="rgb(0,0,0)" stroke-opacity="1" stroke-width="8" fill="rgb(0,0,0)" fill-opacity="1"></path></g></g><g><g transform="matrix(1,0,0,1,156.64373779296875,21.49999084472656)"><path transform="matrix(0.0119,0,0,-0.0119,0,0)" d="M297 714L242 714L-37 -169L18 -169Z" stroke="rgb(0,0,0)" stroke-opacity="1" stroke-width="8" fill="rgb(0,0,0)" fill-opacity="1"></path></g></g><g><g transform="matrix(1,0,0,1,162.42498779296875,21.49999084472656)"><path transform="matrix(0.0119,0,0,-0.0119,0,0)" d="M332 222C342 251 348 268 347 263C268 261 191 262 113 262C132 349 187 438 287 438C347 438 369 420 396 369L416 369L457 422C282 592 13 361 13 155C13 42 79 -11 186 -11C263 -11 327 47 386 92L386 111C339 78 283 39 224 39C150 39 89 126 105 220C117 219 305 222 332 222Z" stroke="rgb(0,0,0)" stroke-opacity="1" stroke-width="8" fill="rgb(0,0,0)" fill-opacity="1"></path></g></g><g><g><g><g><g transform="matrix(1,0,0,1,168.31878662109375,24.00498779296875)"><path transform="matrix(0.00833,0,0,-0.00833,0,0)" d="M17 152C17 46 62 -11 145 -11C200 -11 260 15 305 57C367 116 411 230 411 331C411 425 361 482 278 482C174 482 17 382 17 152ZM241 444C302 444 335 399 335 315C335 219 304 113 260 60C242 39 216 27 185 27C127 27 93 72 93 151C93 264 132 387 181 427C194 438 217 444 241 444Z" stroke="rgb(0,0,0)" stroke-opacity="1" stroke-width="8" fill="rgb(0,0,0)" fill-opacity="1"></path></g></g></g></g></g><g><g transform="matrix(1,0,0,1,172.72503662109375,21.9)"><path transform="matrix(0.0119,0,0,-0.0119,0,0)" d="M51 726L32 700C87 636 187 526 187 266C187 -10 83 -131 32 -194L51 -215C104 -165 273 -23 273 265C273 542 108 675 51 726Z" stroke="rgb(0,0,0)" stroke-opacity="1" stroke-width="8" fill="rgb(0,0,0)" fill-opacity="1"></path></g></g></g></g></svg>
</svg>
