<svg xmlns="http://www.w3.org/2000/svg" xmlns:xlink="http://www.w3.org/1999/xlink" x="0" y="0" width="662" height="167" style="
        width:662px;
        height:167px;
        background: transparent;
        fill: none;
">
        
        
        <svg xmlns="http://www.w3.org/2000/svg" class="role-diagram-draw-area"><g class="shapes-region" style="stroke: black; fill: none;"><g class="composite-shape" data-amt="diagram/shapes/plot" transform="matrix(1,0,0,1,50,20)"><g><g><g class="test-xgi"><line x1="3.9268869010164447" y1="0" x2="3.9268869010164447" y2="130" fill="none" stroke="#c3c3c3" stroke-width="0.5"/><line x1="80" y1="0" x2="80" y2="130" fill="none" stroke="#c3c3c3" stroke-width="0.5"/><line x1="156.07311309898355" y1="0" x2="156.07311309898355" y2="130" fill="none" stroke="#c3c3c3" stroke-width="0.5"/><line x1="232.14622619796708" y1="0" x2="232.14622619796708" y2="130" fill="none" stroke="#c3c3c3" stroke-width="0.5"/></g><g class="test-ygi"><line x1="0" y1="124.85177793069104" x2="279.50000000000006" y2="124.85177793069104" fill="none" stroke="#c3c3c3" stroke-width="0.5"/><line x1="0" y1="86.81522138119927" x2="279.50000000000006" y2="86.81522138119927" fill="none" stroke="#c3c3c3" stroke-width="0.5"/><line x1="0" y1="48.77866483170749" x2="279.50000000000006" y2="48.77866483170749" fill="none" stroke="#c3c3c3" stroke-width="0.5"/><line x1="0" y1="10.74210828221571" x2="279.50000000000006" y2="10.74210828221571" fill="none" stroke="#c3c3c3" stroke-width="0.5"/></g></g><g><g class="test-xti" style="font-family: Asana-Math, Asana;"><line x1="0" y1="124.85177793069104" x2="275.50000000000006" y2="124.85177793069104" fill="none" stroke="rgb(50,50,50)" stroke-opacity="1" stroke-width="1"/><line x1="80" y1="120.85177793069104" x2="80" y2="128.85177793069104" fill="none" stroke="rgb(50,50,50)" stroke-opacity="1" stroke-width="1"/><line x1="156.07311309898355" y1="120.85177793069104" x2="156.07311309898355" y2="128.85177793069104" fill="none" stroke="rgb(50,50,50)" stroke-opacity="1" stroke-width="1"/><line x1="232.14622619796708" y1="120.85177793069104" x2="232.14622619796708" y2="128.85177793069104" fill="none" stroke="rgb(50,50,50)" stroke-opacity="1" stroke-width="1"/><path d="M270.50000000000006,121.25177793069105 L278.50000000000006,124.85177793069104 L270.50000000000006,128.45177793069104 Z" stroke="none" stroke-width="1" fill="rgb(50,50,50)" fill-opacity="1"/></g><g class="test-plot-expression"><defs><clipPath id="cptyii8mjmb"><rect x="1" y="1" width="277.50000000000006" height="128"/></clipPath></defs><g clip-path="url(#cptyii8mjmb)"><path d=" M3.93,-130.00 L4.06,-130.00 L4.20,-130.00 L4.34,-130.00 L4.47,-130.00 L4.61,-130.00 L4.74,-130.00 L4.88,-130.00 L5.02,-130.00 L5.15,-130.00 L5.29,-130.00 L5.43,-130.00 L5.56,-130.00 L5.70,-130.00 L5.84,-130.00 L5.97,-130.00 L6.11,-130.00 L6.24,-130.00 L6.38,-130.00 L6.52,-130.00 L6.65,-130.00 L6.79,-130.00 L6.93,-130.00 L7.06,-130.00 L7.20,-130.00 L7.34,-130.00 L7.47,-130.00 L7.61,-130.00 L7.74,-130.00 L7.88,-130.00 L8.02,-130.00 L8.15,-130.00 L8.29,-130.00 L8.43,-130.00 L8.56,-130.00 L8.70,-130.00 L8.83,-130.00 L8.97,-130.00 L9.11,-130.00 L9.24,-130.00 L9.38,-130.00 L9.52,-130.00 L9.65,-130.00 L9.79,-130.00 L9.93,-130.00 L10.06,-130.00 L10.20,-130.00 L10.33,-130.00 L10.47,-130.00 L10.61,-130.00 L10.74,-130.00 L10.88,-130.00 L11.02,-130.00 L11.15,-130.00 L11.29,-130.00 L11.43,-130.00 L11.56,-130.00 L11.70,-130.00 L11.83,-130.00 L11.97,-130.00 L12.11,-130.00 L12.24,-130.00 L12.38,-130.00 L12.52,-130.00 L12.65,-130.00 L12.79,-130.00 L12.92,-130.00 L13.06,-130.00 L13.20,-130.00 L13.33,-130.00 L13.47,-130.00 L13.61,-130.00 L13.74,-130.00 L13.88,-130.00 L14.02,-130.00 L14.15,-130.00 L14.29,-130.00 L14.42,-130.00 L14.56,-130.00 L14.70,-130.00 L14.83,-130.00 L14.97,-130.00 L15.11,-130.00 L15.24,-130.00 L15.38,-130.00 L15.52,-130.00 L15.65,-130.00 L15.79,-130.00 L15.92,-130.00 L16.06,-130.00 L16.20,-130.00 L16.33,-130.00 L16.47,-130.00 L16.61,-130.00 L16.74,-130.00 L16.88,-130.00 L17.01,-130.00 L17.15,-130.00 L17.29,-130.00 L17.42,-130.00 L17.56,-130.00 L17.70,-130.00 L17.83,-130.00 L17.97,-130.00 L18.11,-130.00 L18.24,-130.00 L18.38,-130.00 L18.51,-130.00 L18.65,-130.00 L18.79,-130.00 L18.92,-130.00 L19.06,-130.00 L19.20,-130.00 L19.33,-130.00 L19.47,-130.00 L19.61,-130.00 L19.74,-130.00 L19.88,-130.00 L20.01,-130.00 L20.15,-130.00 L20.29,-130.00 L20.42,-130.00 L20.56,-130.00 L20.70,-130.00 L20.83,-130.00 L20.97,-130.00 L21.10,-130.00 L21.24,-130.00 L21.38,-130.00 L21.51,-130.00 L21.65,-130.00 L21.79,-130.00 L21.92,-130.00 L22.06,-130.00 L22.20,-130.00 L22.33,-130.00 L22.47,-130.00 L22.60,-130.00 L22.74,-130.00 L22.88,-130.00 L23.01,-130.00 L23.15,-130.00 L23.29,-130.00 L23.42,-130.00 L23.56,-130.00 L23.69,-130.00 L23.83,-130.00 L23.97,-130.00 L24.10,-130.00 L24.24,-130.00 L24.38,-130.00 L24.51,-130.00 L24.65,-130.00 L24.79,-130.00 L24.92,-130.00 L25.06,-130.00 L25.19,-130.00 L25.33,-130.00 L25.47,-130.00 L25.60,-130.00 L25.74,-130.00 L25.88,-130.00 L26.01,-130.00 L26.15,-130.00 L26.29,-130.00 L26.42,-130.00 L26.56,-130.00 L26.69,-130.00 L26.83,-130.00 L26.97,-130.00 L27.10,-130.00 L27.24,-130.00 L27.38,-130.00 L27.51,-130.00 L27.65,-130.00 L27.78,-130.00 L27.92,-130.00 L28.06,-130.00 L28.19,-130.00 L28.33,-130.00 L28.47,-130.00 L28.60,-130.00 L28.74,-130.00 L28.88,-130.00 L29.01,-130.00 L29.15,-130.00 L29.28,-130.00 L29.42,-130.00 L29.56,-130.00 L29.69,-130.00 L29.83,-130.00 L29.97,-130.00 L30.10,-130.00 L30.24,-130.00 L30.38,-130.00 L30.51,-130.00 L30.65,-130.00 L30.78,-130.00 L30.92,-130.00 L31.06,-130.00 L31.19,-130.00 L31.33,-130.00 L31.47,-130.00 L31.60,-130.00 L31.74,-130.00 L31.87,-130.00 L32.01,-130.00 L32.15,-130.00 L32.28,-130.00 L32.42,-130.00 L32.56,-130.00 L32.69,-130.00 L32.83,-130.00 L32.97,-130.00 L33.10,-130.00 L33.24,-130.00 L33.37,-130.00 L33.51,-130.00 L33.65,-130.00 L33.78,-130.00 L33.92,-130.00 L34.06,-130.00 L34.19,-130.00 L34.33,-130.00 L34.47,-130.00 L34.60,-130.00 L34.74,-130.00 L34.87,-130.00 L35.01,-130.00 L35.15,-130.00 L35.28,-130.00 L35.42,-130.00 L35.56,-130.00 L35.69,-130.00 L35.83,-130.00 L35.96,-130.00 L36.10,-130.00 L36.24,-130.00 L36.37,-130.00 L36.51,-130.00 L36.65,-130.00 L36.78,-130.00 L36.92,-130.00 L37.06,-130.00 L37.19,-130.00 L37.33,-130.00 L37.46,-130.00 L37.60,-130.00 L37.74,-130.00 L37.87,-130.00 L38.01,-130.00 L38.15,-130.00 L38.28,-130.00 L38.42,-130.00 L38.56,-130.00 L38.69,-130.00 L38.83,-130.00 L38.96,-130.00 L39.10,-130.00 L39.24,-130.00 L39.37,-130.00 L39.51,-130.00 L39.65,-130.00 L39.78,-130.00 L39.92,-130.00 L40.05,-130.00 L40.19,-130.00 L40.33,-130.00 L40.46,-130.00 L40.60,-130.00 L40.74,-130.00 L40.87,-130.00 L41.01,-130.00 L41.15,-130.00 L41.28,-130.00 L41.42,-130.00 L41.55,-130.00 L41.69,-130.00 L41.83,-130.00 L41.96,-130.00 L42.10,-130.00 L42.24,-130.00 L42.37,-130.00 L42.51,-130.00 L42.65,-130.00 L42.78,-130.00 L42.92,-130.00 L43.05,-130.00 L43.19,-130.00 L43.33,-130.00 L43.46,-130.00 L43.60,-130.00 L43.74,-130.00 L43.87,-130.00 L44.01,-130.00 L44.14,-130.00 L44.28,-130.00 L44.42,-130.00 L44.55,-130.00 L44.69,-130.00 L44.83,-130.00 L44.96,-130.00 L45.10,-130.00 L45.24,-130.00 L45.37,-130.00 L45.51,-129.77 L45.64,-128.11 L45.78,-126.47 L45.92,-124.84 L46.05,-123.22 L46.19,-121.63 L46.33,-120.04 L46.46,-118.48 L46.60,-116.92 L46.74,-115.39 L46.87,-113.86 L47.01,-112.35 L47.14,-110.86 L47.28,-109.38 L47.42,-107.91 L47.55,-106.46 L47.69,-105.02 L47.83,-103.60 L47.96,-102.18 L48.10,-100.78 L48.23,-99.40 L48.37,-98.02 L48.51,-96.66 L48.64,-95.32 L48.78,-93.98 L48.92,-92.65 L49.05,-91.34 L49.19,-90.04 L49.33,-88.75 L49.46,-87.48 L49.60,-86.21 L49.73,-84.96 L49.87,-83.71 L50.01,-82.48 L50.14,-81.26 L50.28,-80.05 L50.42,-78.85 L50.55,-77.66 L50.69,-76.48 L50.83,-75.31 L50.96,-74.15 L51.10,-73.00 L51.23,-71.86 L51.37,-70.74 L51.51,-69.62 L51.64,-68.51 L51.78,-67.41 L51.92,-66.32 L52.05,-65.23 L52.19,-64.16 L52.32,-63.10 L52.46,-62.04 L52.60,-61.00 L52.73,-59.96 L52.87,-58.93 L53.01,-57.91 L53.14,-56.90 L53.28,-55.90 L53.42,-54.91 L53.55,-53.92 L53.69,-52.94 L53.82,-51.97 L53.96,-51.01 L54.10,-50.05 L54.23,-49.11 L54.37,-48.17 L54.51,-47.24 L54.64,-46.31 L54.78,-45.40 L54.91,-44.49 L55.05,-43.59 L55.19,-42.69 L55.32,-41.80 L55.46,-40.92 L55.60,-40.05 L55.73,-39.18 L55.87,-38.32 L56.01,-37.47 L56.14,-36.62 L56.28,-35.78 L56.41,-34.95 L56.55,-34.12 L56.69,-33.30 L56.82,-32.49 L56.96,-31.68 L57.10,-30.88 L57.23,-30.08 L57.37,-29.29 L57.51,-28.51 L57.64,-27.73 L57.78,-26.96 L57.91,-26.19 L58.05,-25.43 L58.19,-24.68 L58.32,-23.93 L58.46,-23.19 L58.60,-22.45 L58.73,-21.72 L58.87,-20.99 L59.00,-20.27 L59.14,-19.56 L59.28,-18.85 L59.41,-18.14 L59.55,-17.44 L59.69,-16.74 L59.82,-16.05 L59.96,-15.37 L60.10,-14.69 L60.23,-14.02 L60.37,-13.35 L60.50,-12.68 L60.64,-12.02 L60.78,-11.36 L60.91,-10.71 L61.05,-10.07 L61.19,-9.43 L61.32,-8.79 L61.46,-8.16 L61.60,-7.53 L61.73,-6.90 L61.87,-6.28 L62.00,-5.67 L62.14,-5.06 L62.28,-4.45 L62.41,-3.85 L62.55,-3.25 L62.69,-2.66 L62.82,-2.07 L62.96,-1.48 L63.09,-0.90 L63.23,-0.32 L63.37,0.25 L63.50,0.82 L63.64,1.38 L63.78,1.95 L63.91,2.50 L64.05,3.06 L64.19,3.61 L64.32,4.16 L64.46,4.70 L64.59,5.24 L64.73,5.77 L64.87,6.31 L65.00,6.84 L65.14,7.36 L65.28,7.88 L65.41,8.40 L65.55,8.91 L65.69,9.43 L65.82,9.93 L65.96,10.44 L66.09,10.94 L66.23,11.44 L66.37,11.93 L66.50,12.42 L66.64,12.91 L66.78,13.40 L66.91,13.88 L67.05,14.36 L67.18,14.83 L67.32,15.31 L67.46,15.78 L67.59,16.24 L67.73,16.71 L67.87,17.17 L68.00,17.62 L68.14,18.08 L68.28,18.53 L68.41,18.98 L68.55,19.43 L68.68,19.87 L68.82,20.31 L68.96,20.75 L69.09,21.18 L69.23,21.62 L69.37,22.05 L69.50,22.47 L69.64,22.90 L69.78,23.32 L69.91,23.74 L70.05,24.15 L70.18,24.57 L70.32,24.98 L70.46,25.39 L70.59,25.80 L70.73,26.20 L70.87,26.60 L71.00,27.00 L71.14,27.40 L71.27,27.79 L71.41,28.18 L71.55,28.57 L71.68,28.96 L71.82,29.34 L71.96,29.73 L72.09,30.11 L72.23,30.48 L72.37,30.86 L72.50,31.23 L72.64,31.60 L72.77,31.97 L72.91,32.34 L73.05,32.70 L73.18,33.07 L73.32,33.43 L73.46,33.79 L73.59,34.14 L73.73,34.50 L73.87,34.85 L74.00,35.20 L74.14,35.54 L74.27,35.89 L74.41,36.23 L74.55,36.58 L74.68,36.92 L74.82,37.25 L74.96,37.59 L75.09,37.92 L75.23,38.26 L75.36,38.59 L75.50,38.91 L75.64,39.24 L75.77,39.57 L75.91,39.89 L76.05,40.21 L76.18,40.53 L76.32,40.85 L76.46,41.16 L76.59,41.47 L76.73,41.79 L76.86,42.10 L77.00,42.41 L77.14,42.71 L77.27,43.02 L77.41,43.32 L77.55,43.62 L77.68,43.92 L77.82,44.22 L77.96,44.52 L78.09,44.81 L78.23,45.11 L78.36,45.40 L78.50,45.69 L78.64,45.98 L78.77,46.26 L78.91,46.55 L79.05,46.83 L79.18,47.12 L79.32,47.40 L79.45,47.68 L79.59,47.95 L79.73,48.23 L79.86,48.51 L80.00,48.78 L80.00,48.78" style="stroke-width: 2; stroke: rgb(0, 0, 0); stroke-opacity: 1;"/><path d=" M156.07,105.83 L156.29,105.89 L156.52,105.94 L156.74,106.00 L156.96,106.05 L157.18,106.11 L157.40,106.16 L157.62,106.21 L157.84,106.27 L158.06,106.32 L158.29,106.37 L158.51,106.43 L158.73,106.48 L158.95,106.53 L159.17,106.58 L159.39,106.64 L159.61,106.69 L159.83,106.74 L160.05,106.79 L160.28,106.84 L160.50,106.89 L160.72,106.94 L160.94,106.99 L161.16,107.04 L161.38,107.09 L161.60,107.14 L161.82,107.19 L162.05,107.24 L162.27,107.29 L162.49,107.34 L162.71,107.39 L162.93,107.44 L163.15,107.49 L163.37,107.53 L163.59,107.58 L163.81,107.63 L164.04,107.68 L164.26,107.73 L164.48,107.77 L164.70,107.82 L164.92,107.87 L165.14,107.91 L165.36,107.96 L165.58,108.01 L165.81,108.05 L166.03,108.10 L166.25,108.14 L166.47,108.19 L166.69,108.23 L166.91,108.28 L167.13,108.32 L167.35,108.37 L167.58,108.41 L167.80,108.46 L168.02,108.50 L168.24,108.55 L168.46,108.59 L168.68,108.63 L168.90,108.68 L169.12,108.72 L169.34,108.76 L169.57,108.81 L169.79,108.85 L170.01,108.89 L170.23,108.93 L170.45,108.98 L170.67,109.02 L170.89,109.06 L171.11,109.10 L171.34,109.14 L171.56,109.18 L171.78,109.23 L172.00,109.27 L172.22,109.31 L172.44,109.35 L172.66,109.39 L172.88,109.43 L173.11,109.47 L173.33,109.51 L173.55,109.55 L173.77,109.59 L173.99,109.63 L174.21,109.67 L174.43,109.71 L174.65,109.75 L174.87,109.79 L175.10,109.83 L175.32,109.86 L175.54,109.90 L175.76,109.94 L175.98,109.98 L176.20,110.02 L176.42,110.06 L176.64,110.09 L176.87,110.13 L177.09,110.17 L177.31,110.21 L177.53,110.24 L177.75,110.28 L177.97,110.32 L178.19,110.36 L178.41,110.39 L178.64,110.43 L178.86,110.46 L179.08,110.50 L179.30,110.54 L179.52,110.57 L179.74,110.61 L179.96,110.65 L180.18,110.68 L180.40,110.72 L180.63,110.75 L180.85,110.79 L181.07,110.82 L181.29,110.86 L181.51,110.89 L181.73,110.93 L181.95,110.96 L182.17,111.00 L182.40,111.03 L182.62,111.06 L182.84,111.10 L183.06,111.13 L183.28,111.17 L183.50,111.20 L183.72,111.23 L183.94,111.27 L184.16,111.30 L184.39,111.33 L184.61,111.37 L184.83,111.40 L185.05,111.43 L185.27,111.46 L185.49,111.50 L185.71,111.53 L185.93,111.56 L186.16,111.59 L186.38,111.63 L186.60,111.66 L186.82,111.69 L187.04,111.72 L187.26,111.75 L187.48,111.79 L187.70,111.82 L187.93,111.85 L188.15,111.88 L188.37,111.91 L188.59,111.94 L188.81,111.97 L189.03,112.00 L189.25,112.03 L189.47,112.06 L189.69,112.09 L189.92,112.12 L190.14,112.16 L190.36,112.19 L190.58,112.22 L190.80,112.25 L191.02,112.28 L191.24,112.30 L191.46,112.33 L191.69,112.36 L191.91,112.39 L192.13,112.42 L192.35,112.45 L192.57,112.48 L192.79,112.51 L193.01,112.54 L193.23,112.57 L193.46,112.60 L193.68,112.62 L193.90,112.65 L194.12,112.68 L194.34,112.71 L194.56,112.74 L194.78,112.77 L195.00,112.79 L195.22,112.82 L195.45,112.85 L195.67,112.88 L195.89,112.90 L196.11,112.93 L196.33,112.96 L196.55,112.99 L196.77,113.01 L196.99,113.04 L197.22,113.07 L197.44,113.10 L197.66,113.12 L197.88,113.15 L198.10,113.18 L198.32,113.20 L198.54,113.23 L198.76,113.25 L198.98,113.28 L199.21,113.31 L199.43,113.33 L199.65,113.36 L199.87,113.39 L200.09,113.41 L200.31,113.44 L200.53,113.46 L200.75,113.49 L200.98,113.51 L201.20,113.54 L201.42,113.56 L201.64,113.59 L201.86,113.61 L202.08,113.64 L202.30,113.66 L202.52,113.69 L202.75,113.71 L202.97,113.74 L203.19,113.76 L203.41,113.79 L203.63,113.81 L203.85,113.84 L204.07,113.86 L204.29,113.89 L204.51,113.91 L204.74,113.93 L204.96,113.96 L205.18,113.98 L205.40,114.01 L205.62,114.03 L205.84,114.05 L206.06,114.08 L206.28,114.10 L206.51,114.12 L206.73,114.15 L206.95,114.17 L207.17,114.19 L207.39,114.22 L207.61,114.24 L207.83,114.26 L208.05,114.29 L208.28,114.31 L208.50,114.33 L208.72,114.35 L208.94,114.38 L209.16,114.40 L209.38,114.42 L209.60,114.44 L209.82,114.47 L210.04,114.49 L210.27,114.51 L210.49,114.53 L210.71,114.56 L210.93,114.58 L211.15,114.60 L211.37,114.62 L211.59,114.64 L211.81,114.66 L212.04,114.69 L212.26,114.71 L212.48,114.73 L212.70,114.75 L212.92,114.77 L213.14,114.79 L213.36,114.82 L213.58,114.84 L213.81,114.86 L214.03,114.88 L214.25,114.90 L214.47,114.92 L214.69,114.94 L214.91,114.96 L215.13,114.98 L215.35,115.00 L215.57,115.02 L215.80,115.04 L216.02,115.06 L216.24,115.09 L216.46,115.11 L216.68,115.13 L216.90,115.15 L217.12,115.17 L217.34,115.19 L217.57,115.21 L217.79,115.23 L218.01,115.25 L218.23,115.27 L218.45,115.29 L218.67,115.31 L218.89,115.32 L219.11,115.34 L219.33,115.36 L219.56,115.38 L219.78,115.40 L220.00,115.42 L220.22,115.44 L220.44,115.46 L220.66,115.48 L220.88,115.50 L221.10,115.52 L221.33,115.54 L221.55,115.56 L221.77,115.57 L221.99,115.59 L222.21,115.61 L222.43,115.63 L222.65,115.65 L222.87,115.67 L223.10,115.69 L223.32,115.71 L223.54,115.72 L223.76,115.74 L223.98,115.76 L224.20,115.78 L224.42,115.80 L224.64,115.81 L224.86,115.83 L225.09,115.85 L225.31,115.87 L225.53,115.89 L225.75,115.90 L225.97,115.92 L226.19,115.94 L226.41,115.96 L226.63,115.98 L226.86,115.99 L227.08,116.01 L227.30,116.03 L227.52,116.05 L227.74,116.06 L227.96,116.08 L228.18,116.10 L228.40,116.12 L228.63,116.13 L228.85,116.15 L229.07,116.17 L229.29,116.18 L229.51,116.20 L229.73,116.22 L229.95,116.23 L230.17,116.25 L230.39,116.27 L230.62,116.28 L230.84,116.30 L231.06,116.32 L231.28,116.33 L231.50,116.35 L231.72,116.37 L231.94,116.38 L232.16,116.40 L232.39,116.42 L232.61,116.43 L232.83,116.45 L233.05,116.47 L233.27,116.48 L233.49,116.50 L233.71,116.51 L233.93,116.53 L234.15,116.55 L234.38,116.56 L234.60,116.58 L234.82,116.59 L235.04,116.61 L235.26,116.63 L235.48,116.64 L235.70,116.66 L235.92,116.67 L236.15,116.69 L236.37,116.70 L236.59,116.72 L236.81,116.73 L237.03,116.75 L237.25,116.77 L237.47,116.78 L237.69,116.80 L237.92,116.81 L238.14,116.83 L238.36,116.84 L238.58,116.86 L238.80,116.87 L239.02,116.89 L239.24,116.90 L239.46,116.92 L239.68,116.93 L239.91,116.95 L240.13,116.96 L240.35,116.98 L240.57,116.99 L240.79,117.00 L241.01,117.02 L241.23,117.03 L241.45,117.05 L241.68,117.06 L241.90,117.08 L242.12,117.09 L242.34,117.11 L242.56,117.12 L242.78,117.14 L243.00,117.15 L243.22,117.16 L243.45,117.18 L243.67,117.19 L243.89,117.21 L244.11,117.22 L244.33,117.23 L244.55,117.25 L244.77,117.26 L244.99,117.28 L245.21,117.29 L245.44,117.30 L245.66,117.32 L245.88,117.33 L246.10,117.35 L246.32,117.36 L246.54,117.37 L246.76,117.39 L246.98,117.40 L247.21,117.41 L247.43,117.43 L247.65,117.44 L247.87,117.45 L248.09,117.47 L248.31,117.48 L248.53,117.49 L248.75,117.51 L248.98,117.52 L249.20,117.53 L249.42,117.55 L249.64,117.56 L249.86,117.57 L250.08,117.59 L250.30,117.60 L250.52,117.61 L250.74,117.63 L250.97,117.64 L251.19,117.65 L251.41,117.66 L251.63,117.68 L251.85,117.69 L252.07,117.70 L252.29,117.71 L252.51,117.73 L252.74,117.74 L252.96,117.75 L253.18,117.77 L253.40,117.78 L253.62,117.79 L253.84,117.80 L254.06,117.82 L254.28,117.83 L254.50,117.84 L254.73,117.85 L254.95,117.87 L255.17,117.88 L255.39,117.89 L255.61,117.90 L255.83,117.91 L256.05,117.93 L256.27,117.94 L256.50,117.95 L256.72,117.96 L256.94,117.97 L257.16,117.99 L257.38,118.00 L257.60,118.01 L257.82,118.02 L258.04,118.03 L258.27,118.05 L258.49,118.06 L258.71,118.07 L258.93,118.08 L259.15,118.09 L259.37,118.10 L259.59,118.12 L259.81,118.13 L260.03,118.14 L260.26,118.15 L260.48,118.16 L260.70,118.17 L260.92,118.19 L261.14,118.20 L261.36,118.21 L261.58,118.22 L261.80,118.23 L262.03,118.24 L262.25,118.25 L262.47,118.27 L262.69,118.28 L262.91,118.29 L263.13,118.30 L263.35,118.31 L263.57,118.32 L263.80,118.33 L264.02,118.34 L264.24,118.35 L264.46,118.37 L264.68,118.38 L264.90,118.39 L265.12,118.40 L265.34,118.41 L265.56,118.42 L265.79,118.43 L266.01,118.44 L266.23,118.45 L266.45,118.46 L266.67,118.47 L266.89,118.49 L267.11,118.50 L267.33,118.51 L267.56,118.52 L267.78,118.53 L268.00,118.54 L268.22,118.55 L268.44,118.56 L268.66,118.57 L268.88,118.58 L269.10,118.59 L269.33,118.60 L269.55,118.61 L269.77,118.62 L269.99,118.63 L270.21,118.64 L270.43,118.65 L270.65,118.66 L270.87,118.67 L271.09,118.68 L271.32,118.69 L271.54,118.70 L271.76,118.71 L271.98,118.72 L272.20,118.73 L272.42,118.74 L272.64,118.75 L272.86,118.76 L273.09,118.77 L273.31,118.78 L273.53,118.79 L273.75,118.80 L273.97,118.81 L274.19,118.82 L274.41,118.83 L274.63,118.84 L274.85,118.85 L275.08,118.86 L275.30,118.87 L275.52,118.88 L275.74,118.89 L275.96,118.90 L276.18,118.91 L276.40,118.92 L276.62,118.93 L276.85,118.94 L277.07,118.95 L277.29,118.96 L277.51,118.97 L277.73,118.98 L277.95,118.99 L278.17,119.00 L278.39,119.01 L278.62,119.02 L278.84,119.03 L279.06,119.04 L279.28,119.05 L279.50,119.05 L279.50,119.05" style="stroke-width: 2; stroke: rgb(0, 0, 0); stroke-opacity: 1;"/><path d=" M80.00,124.85 L80.14,124.85 L80.27,124.85 L80.41,124.85 L80.55,124.85 L80.68,124.85 L80.82,124.85 L80.95,124.85 L81.09,124.85 L81.23,124.85 L81.36,124.85 L81.50,124.85 L81.64,124.85 L81.77,124.85 L81.91,124.85 L82.04,124.85 L82.18,124.85 L82.32,124.85 L82.45,124.85 L82.59,124.85 L82.73,124.85 L82.86,124.85 L83.00,124.85 L83.14,124.85 L83.27,124.85 L83.41,124.85 L83.54,124.85 L83.68,124.85 L83.82,124.85 L83.95,124.85 L84.09,124.85 L84.23,124.85 L84.36,124.85 L84.50,124.85 L84.64,124.85 L84.77,124.85 L84.91,124.85 L85.04,124.85 L85.18,124.85 L85.32,124.85 L85.45,124.85 L85.59,124.85 L85.73,124.85 L85.86,124.85 L86.00,124.85 L86.13,124.85 L86.27,124.85 L86.41,124.85 L86.54,124.85 L86.68,124.85 L86.82,124.85 L86.95,124.85 L87.09,124.85 L87.23,124.85 L87.36,124.85 L87.50,124.85 L87.63,124.85 L87.77,124.85 L87.91,124.85 L88.04,124.85 L88.18,124.85 L88.32,124.85 L88.45,124.85 L88.59,124.85 L88.73,124.85 L88.86,124.85 L89.00,124.85 L89.13,124.85 L89.27,124.85 L89.41,124.85 L89.54,124.85 L89.68,124.85 L89.82,124.85 L89.95,124.85 L90.09,124.85 L90.22,124.85 L90.36,124.85 L90.50,124.85 L90.63,124.85 L90.77,124.85 L90.91,124.85 L91.04,124.85 L91.18,124.85 L91.32,124.85 L91.45,124.85 L91.59,124.85 L91.72,124.85 L91.86,124.85 L92.00,124.85 L92.13,124.85 L92.27,124.85 L92.41,124.85 L92.54,124.85 L92.68,124.85 L92.82,124.85 L92.95,124.85 L93.09,124.85 L93.22,124.85 L93.36,124.85 L93.50,124.85 L93.63,124.85 L93.77,124.85 L93.91,124.85 L94.04,124.85 L94.18,124.85 L94.31,124.85 L94.45,124.85 L94.59,124.85 L94.72,124.85 L94.86,124.85 L95.00,124.85 L95.13,124.85 L95.27,124.85 L95.41,124.85 L95.54,124.85 L95.68,124.85 L95.81,124.85 L95.95,124.85 L96.09,124.85 L96.22,124.85 L96.36,124.85 L96.50,124.85 L96.63,124.85 L96.77,124.85 L96.91,124.85 L97.04,124.85 L97.18,124.85 L97.31,124.85 L97.45,124.85 L97.59,124.85 L97.72,124.85 L97.86,124.85 L98.00,124.85 L98.13,124.85 L98.27,124.85 L98.40,124.85 L98.54,124.85 L98.68,124.85 L98.81,124.85 L98.95,124.85 L99.09,124.85 L99.22,124.85 L99.36,124.85 L99.50,124.85 L99.63,124.85 L99.77,124.85 L99.90,124.85 L100.04,124.85 L100.18,124.85 L100.31,124.85 L100.45,124.85 L100.59,124.85 L100.72,124.85 L100.86,124.85 L101.00,124.85 L101.13,124.85 L101.27,124.85 L101.40,124.85 L101.54,124.85 L101.68,124.85 L101.81,124.85 L101.95,124.85 L102.09,124.85 L102.22,124.85 L102.36,124.85 L102.49,124.85 L102.63,124.85 L102.77,124.85 L102.90,124.85 L103.04,124.85 L103.18,124.85 L103.31,124.85 L103.45,124.85 L103.59,124.85 L103.72,124.85 L103.86,124.85 L103.99,124.85 L104.13,124.85 L104.27,124.85 L104.40,124.85 L104.54,124.85 L104.68,124.85 L104.81,124.85 L104.95,124.85 L105.09,124.85 L105.22,124.85 L105.36,124.85 L105.49,124.85 L105.63,124.85 L105.77,124.85 L105.90,124.85 L106.04,124.85 L106.18,124.85 L106.31,124.85 L106.45,124.85 L106.58,124.85 L106.72,124.85 L106.86,124.85 L106.99,124.85 L107.13,124.85 L107.27,124.85 L107.40,124.85 L107.54,124.85 L107.68,124.85 L107.81,124.85 L107.95,124.85 L108.08,124.85 L108.22,124.85 L108.36,124.85 L108.49,124.85 L108.63,124.85 L108.77,124.85 L108.90,124.85 L109.04,124.85 L109.17,124.85 L109.31,124.85 L109.45,124.85 L109.58,124.85 L109.72,124.85 L109.86,124.85 L109.99,124.85 L110.13,124.85 L110.27,124.85 L110.40,124.85 L110.54,124.85 L110.67,124.85 L110.81,124.85 L110.95,124.85 L111.08,124.85 L111.22,124.85 L111.36,124.85 L111.49,124.85 L111.63,124.85 L111.77,124.85 L111.90,124.85 L112.04,124.85 L112.17,124.85 L112.31,124.85 L112.45,124.85 L112.58,124.85 L112.72,124.85 L112.86,124.85 L112.99,124.85 L113.13,124.85 L113.26,124.85 L113.40,124.85 L113.54,124.85 L113.67,124.85 L113.81,124.85 L113.95,124.85 L114.08,124.85 L114.22,124.85 L114.36,124.85 L114.49,124.85 L114.63,124.85 L114.76,124.85 L114.90,124.85 L115.04,124.85 L115.17,124.85 L115.31,124.85 L115.45,124.85 L115.58,124.85 L115.72,124.85 L115.86,124.85 L115.99,124.85 L116.13,124.85 L116.26,124.85 L116.40,124.85 L116.54,124.85 L116.67,124.85 L116.81,124.85 L116.95,124.85 L117.08,124.85 L117.22,124.85 L117.35,124.85 L117.49,124.85 L117.63,124.85 L117.76,124.85 L117.90,124.85 L118.04,124.85 L118.17,124.85 L118.31,124.85 L118.45,124.85 L118.58,124.85 L118.72,124.85 L118.85,124.85 L118.99,124.85 L119.13,124.85 L119.26,124.85 L119.40,124.85 L119.54,124.85 L119.67,124.85 L119.81,124.85 L119.95,124.85 L120.08,124.85 L120.22,124.85 L120.35,124.85 L120.49,124.85 L120.63,124.85 L120.76,124.85 L120.90,124.85 L121.04,124.85 L121.17,124.85 L121.31,124.85 L121.44,124.85 L121.58,124.85 L121.72,124.85 L121.85,124.85 L121.99,124.85 L122.13,124.85 L122.26,124.85 L122.40,124.85 L122.54,124.85 L122.67,124.85 L122.81,124.85 L122.94,124.85 L123.08,124.85 L123.22,124.85 L123.35,124.85 L123.49,124.85 L123.63,124.85 L123.76,124.85 L123.90,124.85 L124.04,124.85 L124.17,124.85 L124.31,124.85 L124.44,124.85 L124.58,124.85 L124.72,124.85 L124.85,124.85 L124.99,124.85 L125.13,124.85 L125.26,124.85 L125.40,124.85 L125.53,124.85 L125.67,124.85 L125.81,124.85 L125.94,124.85 L126.08,124.85 L126.22,124.85 L126.35,124.85 L126.49,124.85 L126.63,124.85 L126.76,124.85 L126.90,124.85 L127.03,124.85 L127.17,124.85 L127.31,124.85 L127.44,124.85 L127.58,124.85 L127.72,124.85 L127.85,124.85 L127.99,124.85 L128.13,124.85 L128.26,124.85 L128.40,124.85 L128.53,124.85 L128.67,124.85 L128.81,124.85 L128.94,124.85 L129.08,124.85 L129.22,124.85 L129.35,124.85 L129.49,124.85 L129.62,124.85 L129.76,124.85 L129.90,124.85 L130.03,124.85 L130.17,124.85 L130.31,124.85 L130.44,124.85 L130.58,124.85 L130.72,124.85 L130.85,124.85 L130.99,124.85 L131.12,124.85 L131.26,124.85 L131.40,124.85 L131.53,124.85 L131.67,124.85 L131.81,124.85 L131.94,124.85 L132.08,124.85 L132.22,124.85 L132.35,124.85 L132.49,124.85 L132.62,124.85 L132.76,124.85 L132.90,124.85 L133.03,124.85 L133.17,124.85 L133.31,124.85 L133.44,124.85 L133.58,124.85 L133.71,124.85 L133.85,124.85 L133.99,124.85 L134.12,124.85 L134.26,124.85 L134.40,124.85 L134.53,124.85 L134.67,124.85 L134.81,124.85 L134.94,124.85 L135.08,124.85 L135.21,124.85 L135.35,124.85 L135.49,124.85 L135.62,124.85 L135.76,124.85 L135.90,124.85 L136.03,124.85 L136.17,124.85 L136.31,124.85 L136.44,124.85 L136.58,124.85 L136.71,124.85 L136.85,124.85 L136.99,124.85 L137.12,124.85 L137.26,124.85 L137.40,124.85 L137.53,124.85 L137.67,124.85 L137.80,124.85 L137.94,124.85 L138.08,124.85 L138.21,124.85 L138.35,124.85 L138.49,124.85 L138.62,124.85 L138.76,124.85 L138.90,124.85 L139.03,124.85 L139.17,124.85 L139.30,124.85 L139.44,124.85 L139.58,124.85 L139.71,124.85 L139.85,124.85 L139.99,124.85 L140.12,124.85 L140.26,124.85 L140.39,124.85 L140.53,124.85 L140.67,124.85 L140.80,124.85 L140.94,124.85 L141.08,124.85 L141.21,124.85 L141.35,124.85 L141.49,124.85 L141.62,124.85 L141.76,124.85 L141.89,124.85 L142.03,124.85 L142.17,124.85 L142.30,124.85 L142.44,124.85 L142.58,124.85 L142.71,124.85 L142.85,124.85 L142.99,124.85 L143.12,124.85 L143.26,124.85 L143.39,124.85 L143.53,124.85 L143.67,124.85 L143.80,124.85 L143.94,124.85 L144.08,124.85 L144.21,124.85 L144.35,124.85 L144.48,124.85 L144.62,124.85 L144.76,124.85 L144.89,124.85 L145.03,124.85 L145.17,124.85 L145.30,124.85 L145.44,124.85 L145.58,124.85 L145.71,124.85 L145.85,124.85 L145.98,124.85 L146.12,124.85 L146.26,124.85 L146.39,124.85 L146.53,124.85 L146.67,124.85 L146.80,124.85 L146.94,124.85 L147.08,124.85 L147.21,124.85 L147.35,124.85 L147.48,124.85 L147.62,124.85 L147.76,124.85 L147.89,124.85 L148.03,124.85 L148.17,124.85 L148.30,124.85 L148.44,124.85 L148.57,124.85 L148.71,124.85 L148.85,124.85 L148.98,124.85 L149.12,124.85 L149.26,124.85 L149.39,124.85 L149.53,124.85 L149.67,124.85 L149.80,124.85 L149.94,124.85 L150.07,124.85 L150.21,124.85 L150.35,124.85 L150.48,124.85 L150.62,124.85 L150.76,124.85 L150.89,124.85 L151.03,124.85 L151.17,124.85 L151.30,124.85 L151.44,124.85 L151.57,124.85 L151.71,124.85 L151.85,124.85 L151.98,124.85 L152.12,124.85 L152.26,124.85 L152.39,124.85 L152.53,124.85 L152.66,124.85 L152.80,124.85 L152.94,124.85 L153.07,124.85 L153.21,124.85 L153.35,124.85 L153.48,124.85 L153.62,124.85 L153.76,124.85 L153.89,124.85 L154.03,124.85 L154.16,124.85 L154.30,124.85 L154.44,124.85 L154.57,124.85 L154.71,124.85 L154.85,124.85 L154.98,124.85 L155.12,124.85 L155.26,124.85 L155.39,124.85 L155.53,124.85 L155.66,124.85 L155.80,124.85 L155.94,124.85 L156.07,124.85 L156.07,124.85" style="stroke-width: 2; stroke: rgb(0, 0, 0); stroke-opacity: 1;"/></g></g><g class="test-xtl" style="font-family: &quot;Open Sans&quot;, verdana, arial, sans-serif;"><text text-anchor="middle" font-size="11" dominant-baseline="hanging" stroke="none" fill="rgb(50,50,50)" fill-opacity="1" x="80" y="131.85177793069104">1</text><text text-anchor="middle" font-size="11" dominant-baseline="hanging" stroke="none" fill="rgb(50,50,50)" fill-opacity="1" x="156.07311309898355" y="131.85177793069104">2</text><text text-anchor="middle" font-size="11" dominant-baseline="hanging" stroke="none" fill="rgb(50,50,50)" fill-opacity="1" x="232.14622619796708" y="131.85177793069104">3</text><text text-anchor="middle" font-size="11" dominant-baseline="hanging" stroke="none" fill="rgb(50,50,50)" fill-opacity="1" x="-4.073113098983555" y="129.85177793069104">0</text></g><rect class="real" x="1" y="1" width="277.50000000000006" height="128" style="fill: transparent; stroke: none;"/></g></g></g><g class="arrow-line"><path class="connection real" stroke-dasharray="" d="  M50,125 L60,125" style="stroke: rgb(0, 0, 0); stroke-width: 1; fill: none; fill-opacity: 1;"/></g><g class="arrow-line"><path class="connection real" stroke-dasharray="" d="  M51,70 L61,70" style="stroke: rgb(0, 0, 0); stroke-width: 1; fill: none; fill-opacity: 1;"/></g><g/></g><g/><g/><g/></svg>
        <svg xmlns="http://www.w3.org/2000/svg" xmlns:xlink="http://www.w3.org/1999/xlink" width="660" height="165" style="width:660px;height:165px;font-family:Asana-Math, Asana;background:transparent;"><g><g><g><g transform="matrix(1,0,0,1,52,14.499990844726563)"><path transform="matrix(0.0119,0,0,-0.0119,0,0)" d="M221 334L338 334L470 330L489 375L485 382C404 378 344 376 266 376L229 376L276 646C308 647 391 650 413 650C475 650 516 641 517 626L525 537L549 537C552 601 559 651 570 689C549 691 519 692 501 692C498 692 487 692 463 691L343 690C334 689 160 691 150 691L105 692L102 664L156 662C180 661 191 653 191 635C191 621 187 589 182 559L95 55C91 37 79 30 35 23L30 -3L71 -2C102 -1 164 0 184 0L409 -3C423 -3 448 -2 481 -1L514 0L518 36C520 56 525 86 534 135L539 161L512 161L496 101C486 65 477 53 455 48C435 44 362 39 308 39C267 39 240 40 171 46Z" stroke="rgb(0,0,0)" stroke-opacity="1" stroke-width="8" fill="rgb(0,0,0)" fill-opacity="1"></path></g></g><g><g><g><g><g transform="matrix(1,0,0,1,59.618743896484375,17.00500305175781)"><path transform="matrix(0.00833,0,0,-0.00833,0,0)" d="M368 365C371 403 376 435 384 476C373 481 369 482 364 482C333 482 302 458 266 407C227 351 188 291 172 256L204 408C208 425 210 438 210 450C210 470 202 482 187 482C166 482 128 461 54 408L26 388L33 368L65 389C93 407 104 412 113 412C123 412 130 403 130 390C130 332 87 126 47 -2L57 -9C72 -4 88 -1 111 4L124 6L150 126C168 209 191 262 235 319C269 363 296 384 318 384C333 384 343 379 354 365Z" stroke="rgb(0,0,0)" stroke-opacity="1" stroke-width="8" fill="rgb(0,0,0)" fill-opacity="1"></path></g></g></g></g></g></g></g><g><g><g><g transform="matrix(1,0,0,1,337,149.50000610351563)"><path transform="matrix(0.0119,0,0,-0.0119,0,0)" d="M368 365C371 403 376 435 384 476C373 481 369 482 364 482C333 482 302 458 266 407C227 351 188 291 172 256L204 408C208 425 210 438 210 450C210 470 202 482 187 482C166 482 128 461 54 408L26 388L33 368L65 389C93 407 104 412 113 412C123 412 130 403 130 390C130 332 87 126 47 -2L57 -9C72 -4 88 -1 111 4L124 6L150 126C168 209 191 262 235 319C269 363 296 384 318 384C333 384 343 379 354 365Z" stroke="rgb(0,0,0)" stroke-opacity="1" stroke-width="8" fill="rgb(0,0,0)" fill-opacity="1"></path></g></g><g><g transform="matrix(1,0,0,1,343.9937744140625,149.50000610351563)"><path transform="matrix(0.0119,0,0,-0.0119,0,0)" d="M297 714L242 714L-37 -169L18 -169Z" stroke="rgb(0,0,0)" stroke-opacity="1" stroke-width="8" fill="rgb(0,0,0)" fill-opacity="1"></path></g></g><g><g transform="matrix(1,0,0,1,349.7750244140625,149.50000610351563)"><path transform="matrix(0.0119,0,0,-0.0119,0,0)" d="M105 664L161 662C185 661 196 653 196 635C196 621 192 589 187 559L112 125C96 34 94 32 54 28L13 25L9 -3L51 -2C98 0 117 0 141 0L238 -3L264 -3L267 25L218 28C191 30 182 38 182 58C182 67 183 76 186 93L287 648C316 654 336 656 363 656C450 656 496 617 496 543C496 448 418 378 314 378L270 378L267 367C401 172 432 124 507 -3C507 -3 592 0 592 0C593 0 607 -1 626 -3L639 -3L639 24C599 29 588 37 559 79L375 354C430 364 459 376 495 402C553 444 584 499 584 560C584 646 520 693 409 691L108 691Z" stroke="rgb(0,0,0)" stroke-opacity="1" stroke-width="8" fill="rgb(0,0,0)" fill-opacity="1"></path></g></g></g></g><g><g><g><g><g><g><g transform="matrix(1,0,0,1,22.91876220703125,122.5)"><path transform="matrix(0.0085,0,0,-0.0085,0,0)" d="M240 722L228 733C176 707 140 698 68 691L64 670L112 670C136 670 146 663 146 646C146 638 145 629 144 622L96 354C82 279 66 210 14 1L23 -9L90 8L113 132C122 180 146 225 180 259C249 59 281 -9 306 -9C319 -9 343 4 387 35L433 67L425 86L382 62C368 54 361 52 353 52C343 52 336 58 327 75C292 139 270 193 231 316L245 330C306 391 352 416 402 416C410 416 421 414 438 410L455 473C437 479 419 482 407 482C341 482 258 405 133 230ZM853 458C810 475 781 482 752 482C677 482 589 394 571 374C531 327 492 181 492 78C492 19 504 -11 528 -11C550 -11 569 -3 601 19C648 51 727 121 776 209L700 -205C695 -229 685 -249 673 -262L682 -276C713 -268 744 -262 768 -259C772 -205 778 -150 787 -100L873 356C884 417 890 443 900 474L886 480ZM586 59C572 59 564 80 564 113C564 209 607 359 649 409C661 424 690 433 722 433C750 433 771 427 819 406L798 311C769 174 628 59 586 59Z" stroke="rgb(0,0,0)" stroke-opacity="1" stroke-width="8" fill="rgb(0,0,0)" fill-opacity="1"></path></g></g></g></g><g><g><g><g transform="matrix(1,0,0,1,16.850006103515625,137.5625)"><path transform="matrix(0.0085,0,0,-0.0085,0,0)" d="M146 266C146 526 243 632 301 700L282 726C225 675 60 542 60 266C60 159 85 58 133 -32C168 -99 200 -138 282 -215L301 -194C255 -137 146 -15 146 266Z" stroke="rgb(0,0,0)" stroke-opacity="1" stroke-width="8" fill="rgb(0,0,0)" fill-opacity="1"></path></g></g><g><g transform="matrix(1,0,0,1,19.675018310546875,137.5625)"><path transform="matrix(0.0085,0,0,-0.0085,0,0)" d="M16 23L16 -3C203 -3 203 0 239 0C275 0 275 -3 468 -3L468 82C353 77 307 81 122 77L304 270C401 373 431 428 431 503C431 618 353 689 226 689C154 689 105 669 56 619L39 483L68 483L81 529C97 587 133 612 200 612C286 612 341 558 341 473C341 398 299 324 186 204ZM604 664L660 662C684 661 695 653 695 635C695 621 691 589 686 559L611 125C595 34 593 32 553 28L512 25L508 -3L550 -2C597 0 616 0 640 0L737 -3L763 -3L766 25L717 28C690 30 681 38 681 58C681 67 682 76 685 93L786 648C815 654 835 656 862 656C949 656 995 617 995 543C995 448 917 378 813 378L769 378L766 367C900 172 931 124 1006 -3C1006 -3 1091 0 1091 0C1092 0 1106 -1 1125 -3L1138 -3L1138 24C1098 29 1087 37 1058 79L874 354C929 364 958 376 994 402C1052 444 1083 499 1083 560C1083 646 1019 693 908 691L607 691Z" stroke="rgb(0,0,0)" stroke-opacity="1" stroke-width="8" fill="rgb(0,0,0)" fill-opacity="1"></path></g></g><g><g transform="matrix(1,0,0,1,29.581268310546875,137.5625)"><path transform="matrix(0.0085,0,0,-0.0085,0,0)" d="M51 726L32 700C87 636 187 526 187 266C187 -10 83 -131 32 -194L51 -215C104 -165 273 -23 273 265C273 542 108 675 51 726Z" stroke="rgb(0,0,0)" stroke-opacity="1" stroke-width="8" fill="rgb(0,0,0)" fill-opacity="1"></path></g></g><g><g><g><g><g transform="matrix(1,0,0,1,32.893768310546875,134)"><path transform="matrix(0.007,0,0,-0.007,0,0)" d="M16 23L16 -3C203 -3 203 0 239 0C275 0 275 -3 468 -3L468 82C353 77 307 81 122 77L304 270C401 373 431 428 431 503C431 618 353 689 226 689C154 689 105 669 56 619L39 483L68 483L81 529C97 587 133 612 200 612C286 612 341 558 341 473C341 398 299 324 186 204Z" stroke="rgb(0,0,0)" stroke-opacity="1" stroke-width="8" fill="rgb(0,0,0)" fill-opacity="1"></path></g></g></g></g></g></g></g><line style="fill:none;stroke-width:1px;stroke:rgb(0, 0, 0);" x1="16.850006103515625" y1="126.27499389648438" x2="36.89375686645508" y2="126.27499389648438"></line></g></g></g><g><g><g><g><g><g><g transform="matrix(1,0,0,1,23.96875,63.5)"><path transform="matrix(0.0085,0,0,-0.0085,0,0)" d="M240 722L228 733C176 707 140 698 68 691L64 670L112 670C136 670 146 663 146 646C146 638 145 629 144 622L96 354C82 279 66 210 14 1L23 -9L90 8L113 132C122 180 146 225 180 259C249 59 281 -9 306 -9C319 -9 343 4 387 35L433 67L425 86L382 62C368 54 361 52 353 52C343 52 336 58 327 75C292 139 270 193 231 316L245 330C306 391 352 416 402 416C410 416 421 414 438 410L455 473C437 479 419 482 407 482C341 482 258 405 133 230ZM853 458C810 475 781 482 752 482C677 482 589 394 571 374C531 327 492 181 492 78C492 19 504 -11 528 -11C550 -11 569 -3 601 19C648 51 727 121 776 209L700 -205C695 -229 685 -249 673 -262L682 -276C713 -268 744 -262 768 -259C772 -205 778 -150 787 -100L873 356C884 417 890 443 900 474L886 480ZM586 59C572 59 564 80 564 113C564 209 607 359 649 409C661 424 690 433 722 433C750 433 771 427 819 406L798 311C769 174 628 59 586 59Z" stroke="rgb(0,0,0)" stroke-opacity="1" stroke-width="8" fill="rgb(0,0,0)" fill-opacity="1"></path></g></g></g></g><g><g><g><g transform="matrix(1,0,0,1,22.850006103515625,78.5625)"><path transform="matrix(0.0085,0,0,-0.0085,0,0)" d="M105 664L161 662C185 661 196 653 196 635C196 621 192 589 187 559L112 125C96 34 94 32 54 28L13 25L9 -3L51 -2C98 0 117 0 141 0L238 -3L264 -3L267 25L218 28C191 30 182 38 182 58C182 67 183 76 186 93L287 648C316 654 336 656 363 656C450 656 496 617 496 543C496 448 418 378 314 378L270 378L267 367C401 172 432 124 507 -3C507 -3 592 0 592 0C593 0 607 -1 626 -3L639 -3L639 24C599 29 588 37 559 79L375 354C430 364 459 376 495 402C553 444 584 499 584 560C584 646 520 693 409 691L108 691Z" stroke="rgb(0,0,0)" stroke-opacity="1" stroke-width="8" fill="rgb(0,0,0)" fill-opacity="1"></path></g></g><g><g><g><g><g transform="matrix(1,0,0,1,29,75)"><path transform="matrix(0.007,0,0,-0.007,0,0)" d="M16 23L16 -3C203 -3 203 0 239 0C275 0 275 -3 468 -3L468 82C353 77 307 81 122 77L304 270C401 373 431 428 431 503C431 618 353 689 226 689C154 689 105 669 56 619L39 483L68 483L81 529C97 587 133 612 200 612C286 612 341 558 341 473C341 398 299 324 186 204Z" stroke="rgb(0,0,0)" stroke-opacity="1" stroke-width="8" fill="rgb(0,0,0)" fill-opacity="1"></path></g></g></g></g></g></g></g><line style="fill:none;stroke-width:1px;stroke:rgb(0, 0, 0);" x1="22.850006103515625" y1="67.27499389648438" x2="33.000006675720215" y2="67.27499389648438"></line></g></g></g></svg>
</svg>
