<svg xmlns="http://www.w3.org/2000/svg" xmlns:xlink="http://www.w3.org/1999/xlink" x="0" y="0" width="662" height="243" style="
        width:662px;
        height:243px;
        background: transparent;
        fill: none;
">
        
        
        <svg xmlns="http://www.w3.org/2000/svg" class="role-diagram-draw-area"><g class="shapes-region" style="stroke: black; fill: none;"><g class="composite-shape"><path class="real" d=" M79,128 C79,99.83 101.83,77 130,77 C158.17,77 181,99.83 181,128 C181,156.17 158.17,179 130,179 C101.83,179 79,156.17 79,128 M70.5,128 C70.5,95.14 97.14,68.5 130,68.5 C162.86,68.5 189.5,95.14 189.5,128 C189.5,160.86 162.86,187.5 130,187.5 C97.14,187.5 70.5,160.86 70.5,128" style="stroke-width: 1; stroke: rgb(0, 0, 0); fill: rgb(215, 215, 215); fill-opacity: 1; fill-rule: evenodd;"/></g><g class="arrow-line"><path class="connection real" stroke-dasharray="" d="  M130,128 L80.74,100.18" style="stroke: rgb(0, 0, 0); stroke-width: 1; fill: none; fill-opacity: 1;"/><g stroke="#000" transform="matrix(0.8707850851004063,0.49166384407100555,-0.49166384407100555,0.8707850851004063,79,99.19999694824219)" style="stroke: rgb(0, 0, 0); stroke-width: 1;"><path d=" M7.65,-2.3 Q3.47,-0.31 0,0 Q3.47,0.32 7.65,2.3"/></g></g><g class="composite-shape"><path class="real" d=" M47.98,128 C47.98,82.7 84.7,45.98 130,45.98 C175.3,45.98 212.02,82.7 212.02,128 C212.02,173.3 175.3,210.02 130,210.02 C84.7,210.02 47.98,173.3 47.98,128 M39.63,128 C39.63,78.09 80.09,37.63 130,37.63 C179.91,37.63 220.38,78.09 220.38,128 C220.38,177.91 179.91,218.38 130,218.38 C80.09,218.38 39.63,177.91 39.63,128" style="stroke-width: 1; stroke: rgb(0, 0, 0); fill: rgb(215, 215, 215); fill-opacity: 1; fill-rule: evenodd;"/></g><g class="arrow-line"><path class="connection real" stroke-dasharray="" d="  M130,128 L72.3,60.52" style="stroke: rgb(0, 0, 0); stroke-width: 1; fill: none; fill-opacity: 1;"/><g stroke="#000" transform="matrix(0.6498461069196046,0.7600658111778438,-0.7600658111778438,0.6498461069196046,71,59)" style="stroke: rgb(0, 0, 0); stroke-width: 1;"><path d=" M7.65,-2.3 Q3.47,-0.31 0,0 Q3.47,0.32 7.65,2.3"/></g></g><g class="composite-shape"><path class="real" d=" M102.25,128 C102.25,112.67 114.67,100.25 130,100.25 C145.33,100.25 157.75,112.67 157.75,128 C157.75,143.33 145.33,155.75 130,155.75 C114.67,155.75 102.25,143.33 102.25,128 Z" style="stroke-width: 1; stroke: rgb(0, 0, 255); stroke-opacity: 1; fill: none; fill-opacity: 1;"/></g><g class="arrow-line"><path class="connection real" stroke-dasharray="" d="  M130,128 L112.41,145.59" style="stroke: rgb(0, 0, 0); stroke-width: 1; fill: none; fill-opacity: 1;"/><g stroke="#000" transform="matrix(0.7071067811865474,-0.7071067811865477,0.7071067811865477,0.7071067811865474,111,147)" style="stroke: rgb(0, 0, 0); stroke-width: 1;"><path d=" M7.65,-2.3 Q3.47,-0.31 0,0 Q3.47,0.32 7.65,2.3"/></g></g><g class="arrow-line"><path class="connection real" stroke-dasharray="" d="  M156.02,110.29 C172.12,88.14 186.64,55.08 250,81" style="stroke: rgb(0, 0, 0); stroke-width: 1; fill: none; fill-opacity: 1;"/><g stroke="none" fill="#000" transform="matrix(0.6113889363147472,-0.7913302525190871,0.7913302525190871,0.6113889363147472,154,113)" style="stroke: none; fill: rgb(0, 0, 0); stroke-width: 1;"><path d=" M7.14,-3.43 L0,0 L7.14,3.43 Z"/></g></g><g class="arrow-line"><path class="connection real" stroke-dasharray="" d="  M153.68,77.21 C169.43,51.98 192.63,38.39 217,49" style="stroke: rgb(0, 0, 0); stroke-width: 1; fill: none; fill-opacity: 1;"/><g stroke="none" fill="#000" transform="matrix(0.5039247371094587,-0.863747566902022,0.863747566902022,0.5039247371094587,152,79.99999999999999)" style="stroke: none; fill: rgb(0, 0, 0); stroke-width: 1;"><path d=" M7.14,-3.43 L0,0 L7.14,3.43 Z"/></g></g><g class="arrow-line"><path class="connection real" stroke-dasharray="" d="  M148.68,41.22 C164.36,16.19 186.63,5.39 211,16" style="stroke: rgb(0, 0, 0); stroke-width: 1; fill: none; fill-opacity: 1;"/><g stroke="none" fill="#000" transform="matrix(0.5039247371094587,-0.863747566902022,0.863747566902022,0.5039247371094587,147,44)" style="stroke: none; fill: rgb(0, 0, 0); stroke-width: 1;"><path d=" M7.14,-3.43 L0,0 L7.14,3.43 Z"/></g></g><g/></g><g/><g/><g/></svg>
        <svg xmlns="http://www.w3.org/2000/svg" xmlns:xlink="http://www.w3.org/1999/xlink" width="660" height="241" style="width:660px;height:241px;font-family:Asana-Math, Asana;background:transparent;"><g><g><g><g transform="matrix(1,0,0,1,88,69.50000610351563)"><path transform="matrix(0.0119,0,0,-0.0119,0,0)" d="M462 224C462 345 355 366 308 374C388 436 418 482 418 541C418 630 344 689 233 689C165 689 120 670 72 622L43 498L74 498L92 554C103 588 166 622 218 622C283 622 336 569 336 506C336 431 277 368 206 368C198 368 187 369 174 370L159 371L147 318L154 312C192 329 211 334 238 334C321 334 369 281 369 190C369 88 308 21 215 21C169 21 128 36 98 64C74 86 61 109 42 163L15 153C36 92 44 56 50 6C103 -12 147 -20 184 -20C307 -20 462 87 462 224ZM604 664L660 662C684 661 695 653 695 635C695 621 691 589 686 559L611 125C595 34 593 32 553 28L512 25L508 -3L550 -2C597 0 616 0 640 0L737 -3L763 -3L766 25L717 28C690 30 681 38 681 58C681 67 682 76 685 93L786 648C815 654 835 656 862 656C949 656 995 617 995 543C995 448 917 378 813 378L769 378L766 367C900 172 931 124 1006 -3C1006 -3 1091 0 1091 0C1092 0 1106 -1 1125 -3L1138 -3L1138 24C1098 29 1087 37 1058 79L874 354C929 364 958 376 994 402C1052 444 1083 499 1083 560C1083 646 1019 693 908 691L607 691Z" stroke="rgb(0,0,0)" stroke-opacity="1" stroke-width="8" fill="rgb(0,0,0)" fill-opacity="1"></path></g></g></g></g><g><g><g><g transform="matrix(1,0,0,1,87,121.50000610351563)"><path transform="matrix(0.0119,0,0,-0.0119,0,0)" d="M16 23L16 -3C203 -3 203 0 239 0C275 0 275 -3 468 -3L468 82C353 77 307 81 122 77L304 270C401 373 431 428 431 503C431 618 353 689 226 689C154 689 105 669 56 619L39 483L68 483L81 529C97 587 133 612 200 612C286 612 341 558 341 473C341 398 299 324 186 204ZM604 664L660 662C684 661 695 653 695 635C695 621 691 589 686 559L611 125C595 34 593 32 553 28L512 25L508 -3L550 -2C597 0 616 0 640 0L737 -3L763 -3L766 25L717 28C690 30 681 38 681 58C681 67 682 76 685 93L786 648C815 654 835 656 862 656C949 656 995 617 995 543C995 448 917 378 813 378L769 378L766 367C900 172 931 124 1006 -3C1006 -3 1091 0 1091 0C1092 0 1106 -1 1125 -3L1138 -3L1138 24C1098 29 1087 37 1058 79L874 354C929 364 958 376 994 402C1052 444 1083 499 1083 560C1083 646 1019 693 908 691L607 691Z" stroke="rgb(0,0,0)" stroke-opacity="1" stroke-width="8" fill="rgb(0,0,0)" fill-opacity="1"></path></g></g></g></g><g><g><g><g transform="matrix(1,0,0,1,220,57.600006103515625)"><path transform="matrix(0.017,0,0,-0.017,0,0)" d="M22 342C22 126 180 -20 415 -20C498 -20 573 -2 642 34L670 84L661 94C599 54 530 34 454 34C259 34 129 164 129 361C129 545 243 667 415 667C513 667 614 627 614 588L614 516L645 516C646 566 650 602 664 668C579 696 506 709 433 709C218 709 22 582 22 342ZM987 469C841 469 740 366 740 217C740 76 829 -20 958 -20C1112 -20 1222 87 1222 237C1222 372 1124 469 987 469ZM969 436C1061 436 1129 336 1129 200C1129 85 1078 13 997 13C899 13 833 109 833 251C833 371 881 436 969 436ZM1663 -3C1724 0 1725 0 1742 0C1756 0 1756 0 1825 -3L1825 27L1784 30C1750 32 1747 38 1747 102L1747 295C1747 412 1692 469 1580 469C1543 469 1522 462 1501 444L1425 378L1425 465L1416 469C1365 448 1313 434 1260 428L1260 400L1297 400C1337 400 1341 393 1341 327L1341 102C1341 39 1338 32 1304 30L1259 27L1259 -3C1327 -1 1354 0 1383 0C1412 0 1439 -1 1507 -3L1507 27L1462 30C1428 32 1425 39 1425 102L1425 314C1425 359 1491 408 1552 408C1619 408 1663 358 1663 281ZM2413 -3L2413 27L2367 30C2333 32 2330 39 2330 102L2330 718L2321 726C2277 709 2244 701 2165 689L2165 661L2221 661C2239 661 2246 650 2246 620L2246 437C2218 472 2180 486 2140 486C2017 486 1868 351 1868 229C1868 149 1896 70 1945 30C1979 1 2026 -12 2091 -12C2111 -12 2134 -8 2139 -4L2250 89L2245 -3C2294 -1 2310 0 2322 0C2340 0 2404 -3 2413 -3ZM2246 350L2246 221C2246 156 2244 146 2231 123C2203 76 2154 45 2107 45C2019 45 1956 130 1956 249C1956 358 2010 422 2100 422C2179 422 2246 366 2246 350ZM2727 49C2647 49 2627 94 2627 170L2627 465L2618 469C2567 448 2515 434 2462 428L2462 400L2499 400C2539 400 2543 393 2543 327L2543 159C2543 70 2548 -12 2684 -12C2729 -12 2769 2 2796 27L2863 89C2863 60 2862 44 2859 -3C2926 0 2927 0 2942 0C2956 0 2956 0 3025 -3L3025 27L2984 30C2950 32 2947 38 2947 102L2947 465L2938 469C2887 448 2835 434 2782 428L2782 400L2819 400C2859 400 2863 393 2863 327L2863 164C2863 126 2814 49 2727 49ZM3445 311C3445 357 3450 398 3459 434C3427 478 3384 497 3339 497C3215 497 3071 361 3071 224C3071 219 3072 215 3072 210C3072 75 3167 -20 3301 -20C3353 -20 3428 -1 3438 14L3459 46L3449 61C3412 41 3380 32 3344 32C3233 32 3160 118 3160 250C3160 357 3210 417 3300 417C3344 417 3392 397 3410 372L3417 311ZM3587 382L3587 94C3587 20 3620 -12 3697 -12C3720 -12 3744 -7 3750 0L3798 53L3785 70C3760 56 3745 51 3726 51C3687 51 3671 71 3671 120L3671 382L3799 382L3808 436L3671 430L3671 468C3671 510 3674 546 3682 610L3670 621C3646 606 3616 593 3585 583C3588 553 3589 534 3589 504L3589 434L3511 399L3511 378ZM4093 469C3947 469 3846 366 3846 217C3846 76 3935 -20 4064 -20C4218 -20 4328 87 4328 237C4328 372 4230 469 4093 469ZM4075 436C4167 436 4235 336 4235 200C4235 85 4184 13 4103 13C4005 13 3939 109 3939 251C3939 371 3987 436 4075 436ZM4382 400L4419 400C4459 400 4463 393 4463 327L4463 102C4463 39 4460 32 4426 30L4380 27L4380 -3C4452 -1 4478 0 4503 0C4523 0 4523 0 4646 -3L4646 27L4594 30C4549 33 4547 36 4547 102L4547 274C4547 334 4587 384 4636 384C4666 384 4687 370 4703 338L4724 338L4733 458C4722 465 4704 469 4686 469C4656 469 4624 453 4603 428L4547 362L4547 465L4538 469C4487 448 4435 434 4382 428ZM5415 469L5256 104C5253 113 5168 397 5168 405C5168 420 5181 428 5206 429L5246 431L5246 459C5147 456 5147 456 5127 456C5107 456 5107 456 5008 459L5008 431L5036 429C5064 427 5077 407 5102 329L5204 -7L5251 -7L5401 335L5537 -7L5583 -7L5720 342C5750 409 5762 426 5784 429L5810 431L5810 459C5728 456 5728 456 5712 456C5696 456 5696 456 5614 459L5614 431L5648 429C5673 428 5687 416 5687 398L5582 98L5467 388C5453 422 5446 442 5438 469ZM6023 465L6014 469C5963 448 5911 434 5858 428L5858 400L5895 400C5935 400 5939 393 5939 327L5939 102C5939 39 5936 32 5902 30L5856 27L5856 -3C5956 0 5956 0 5981 0C6006 0 6006 0 6106 -3L6106 27L6060 30C6026 32 6023 39 6023 102ZM5977 687C5947 687 5921 661 5921 631C5921 602 5947 576 5976 576C6005 576 6032 602 6032 631C6032 659 6005 687 5977 687ZM6223 382L6223 94C6223 20 6256 -12 6333 -12C6356 -12 6380 -7 6386 0L6434 53L6421 70C6396 56 6381 51 6362 51C6323 51 6307 71 6307 120L6307 382L6435 382L6444 436L6307 430L6307 468C6307 510 6310 546 6318 610L6306 621C6282 606 6252 593 6221 583C6224 553 6225 534 6225 504L6225 434L6147 399L6147 378ZM6457 661L6513 661C6531 661 6538 650 6538 620L6538 102C6538 39 6535 32 6501 30L6456 27L6456 -3C6524 -1 6551 0 6580 0C6609 0 6636 -1 6704 -3L6704 27L6659 30C6625 32 6622 39 6622 102L6622 314C6622 359 6688 408 6749 408C6816 408 6860 358 6860 281L6860 -3C6921 0 6922 0 6939 0C6953 0 6953 0 7022 -3L7022 27L6981 30C6947 32 6944 38 6944 102L6944 295C6944 412 6858 470 6773 470C6711 470 6650 439 6622 378L6622 718L6613 726C6569 709 6536 701 6457 689ZM7690 -3C7751 0 7752 0 7769 0C7783 0 7783 0 7852 -3L7852 27L7811 30C7777 32 7774 38 7774 102L7774 295C7774 412 7719 469 7607 469C7570 469 7549 462 7528 444L7452 378L7452 465L7443 469C7392 448 7340 434 7287 428L7287 400L7324 400C7364 400 7368 393 7368 327L7368 102C7368 39 7365 32 7331 30L7286 27L7286 -3C7354 -1 7381 0 7410 0C7439 0 7466 -1 7534 -3L7534 27L7489 30C7455 32 7452 39 7452 102L7452 314C7452 359 7518 408 7579 408C7646 408 7690 358 7690 281ZM8111 -20C8176 -20 8266 18 8278 36L8298 70L8285 80C8221 42 8198 33 8155 33C8090 33 8036 62 8008 111C7989 144 7982 172 7980 230C8001 227 8031 226 8065 226C8151 226 8260 234 8307 244C8308 258 8309 267 8309 279C8309 394 8235 469 8123 469C8086 469 8041 464 8001 440C7919 392 7887 323 7887 219C7887 25 8022 -20 8111 -20ZM8220 267C8196 264 8145 261 8094 261C8051 261 8008 264 7982 270C7982 317 7986 339 7999 365C8020 409 8063 436 8111 436C8144 436 8170 423 8188 396C8210 363 8217 334 8220 267ZM8437 382L8437 94C8437 20 8470 -12 8547 -12C8570 -12 8594 -7 8600 0L8648 53L8635 70C8610 56 8595 51 8576 51C8537 51 8521 71 8521 120L8521 382L8649 382L8658 436L8521 430L8521 468C8521 510 8524 546 8532 610L8520 621C8496 606 8466 593 8435 583C8438 553 8439 534 8439 504L8439 434L8361 399L8361 378ZM9312 311C9312 357 9317 398 9326 434C9294 478 9251 497 9206 497C9082 497 8938 361 8938 224C8938 219 8939 215 8939 210C8939 75 9034 -20 9168 -20C9220 -20 9295 -1 9305 14L9326 46L9316 61C9279 41 9247 32 9211 32C9100 32 9027 118 9027 250C9027 357 9077 417 9167 417C9211 417 9259 397 9277 372L9284 311ZM9363 661L9419 661C9437 661 9444 650 9444 620L9444 102C9444 39 9441 32 9407 30L9362 27L9362 -3C9430 -1 9457 0 9486 0C9515 0 9542 -1 9610 -3L9610 27L9565 30C9531 32 9528 39 9528 102L9528 314C9528 359 9594 408 9655 408C9722 408 9766 358 9766 281L9766 -3C9827 0 9828 0 9845 0C9859 0 9859 0 9928 -3L9928 27L9887 30C9853 32 9850 38 9850 102L9850 295C9850 412 9764 470 9679 470C9617 470 9556 439 9528 378L9528 718L9519 726C9475 709 9442 701 9363 689ZM10261 82L10256 -3C10321 0 10321 0 10334 0C10339 0 10364 -1 10408 -3L10408 27L10369 29C10345 30 10341 38 10341 87L10341 270C10341 416 10299 469 10183 469C10140 469 10100 458 10062 435L10009 403L10009 338L10035 331L10048 362C10069 409 10079 416 10125 416C10219 416 10258 379 10261 288L10162 270C10026 245 9969 198 9969 111C9969 33 10016 -12 10095 -12C10113 -12 10130 -9 10137 -4ZM10261 124C10232 83 10169 45 10130 45C10090 45 10055 82 10055 125C10055 162 10075 197 10105 216C10130 231 10185 245 10261 256ZM10459 400L10496 400C10536 400 10540 393 10540 327L10540 102C10540 39 10537 32 10503 30L10457 27L10457 -3C10529 -1 10555 0 10580 0C10600 0 10600 0 10723 -3L10723 27L10671 30C10626 33 10624 36 10624 102L10624 274C10624 334 10664 384 10713 384C10743 384 10764 370 10780 338L10801 338L10810 458C10799 465 10781 469 10763 469C10733 469 10701 453 10680 428L10624 362L10624 465L10615 469C10564 448 10512 434 10459 428ZM10885 289C10885 215 10931 164 11005 156L10926 95C10916 80 10911 67 10911 52C10911 24 10929 8 10977 -6L10890 -53C10876 -61 10862 -98 10862 -129C10862 -220 10951 -283 11078 -283C11229 -283 11348 -188 11348 -66C11348 6 11300 56 11230 56L11070 56C11018 56 10994 68 10994 95C10994 118 11023 135 11040 152C11050 151 11056 150 11064 150C11125 150 11268 197 11268 324C11268 344 11265 357 11257 378L11349 378L11374 419L11370 431L11228 427C11191 457 11155 469 11106 469C11031 469 10885 424 10885 289ZM11070 435C11138 435 11184 379 11184 294C11184 229 11142 184 11081 184C11014 184 10969 236 10969 313C10969 390 11006 435 11070 435ZM11117 -14C11230 -14 11269 -37 11269 -102C11269 -188 11190 -252 11085 -252C10998 -252 10938 -201 10938 -127C10938 -82 10964 -41 11004 -24C11020 -16 11048 -14 11117 -14ZM11635 -20C11700 -20 11790 18 11802 36L11822 70L11809 80C11745 42 11722 33 11679 33C11614 33 11560 62 11532 111C11513 144 11506 172 11504 230C11525 227 11555 226 11589 226C11675 226 11784 234 11831 244C11832 258 11833 267 11833 279C11833 394 11759 469 11647 469C11610 469 11565 464 11525 440C11443 392 11411 323 11411 219C11411 25 11546 -20 11635 -20ZM11744 267C11720 264 11669 261 11618 261C11575 261 11532 264 11506 270C11506 317 11510 339 11523 365C11544 409 11587 436 11635 436C11668 436 11694 423 11712 396C11734 363 11741 334 11744 267Z" stroke="rgb(0,0,0)" stroke-opacity="1" stroke-width="8" fill="rgb(0,0,0)" fill-opacity="1"></path></g></g><g><g transform="matrix(1,0,0,1,425.90625,57.600006103515625)"><path transform="matrix(0.017,0,0,-0.017,0,0)" d="M385 458C342 475 313 482 284 482C209 482 121 394 103 374C63 327 24 181 24 78C24 19 36 -11 60 -11C82 -11 101 -3 133 19C180 51 259 121 308 209L232 -205C227 -229 217 -249 205 -262L214 -276C245 -268 276 -262 300 -259C304 -205 310 -150 319 -100L405 356C416 417 422 443 432 474L418 480ZM118 59C104 59 96 80 96 113C96 209 139 359 181 409C193 424 222 433 254 433C282 433 303 427 351 406L330 311C301 174 160 59 118 59Z" stroke="rgb(0,0,0)" stroke-opacity="1" stroke-width="8" fill="rgb(0,0,0)" fill-opacity="1"></path></g></g><g><g transform="matrix(1,0,0,1,433.76251220703125,57.600006103515625)"><path transform="matrix(0.017,0,0,-0.017,0,0)" d="" stroke="rgb(0,0,0)" stroke-opacity="1" stroke-width="8" fill="rgb(0,0,0)" fill-opacity="1"></path></g></g></g></g><g><g><g><g transform="matrix(1,0,0,1,256,87.60000610351562)"><path transform="matrix(0.017,0,0,-0.017,0,0)" d="M137 689C81 690 72 690 17 692L17 662L61 659C107 656 112 647 112 569L112 120C112 42 107 33 61 30L17 27L17 -3C116 0 116 0 133 0C148 0 148 0 253 -3L253 27L209 30C163 33 158 42 158 120L158 583L631 -4L718 -6L718 569C718 647 723 656 769 659L813 662L813 692C708 689 708 689 693 689C676 689 676 689 577 692L577 662L621 659C667 656 672 647 672 569L672 98L191 692ZM1109 469C963 469 862 366 862 217C862 76 951 -20 1080 -20C1234 -20 1344 87 1344 237C1344 372 1246 469 1109 469ZM1091 436C1183 436 1251 336 1251 200C1251 85 1200 13 1119 13C1021 13 955 109 955 251C955 371 1003 436 1091 436ZM1785 -3C1846 0 1847 0 1864 0C1878 0 1878 0 1947 -3L1947 27L1906 30C1872 32 1869 38 1869 102L1869 295C1869 412 1814 469 1702 469C1665 469 1644 462 1623 444L1547 378L1547 465L1538 469C1487 448 1435 434 1382 428L1382 400L1419 400C1459 400 1463 393 1463 327L1463 102C1463 39 1460 32 1426 30L1381 27L1381 -3C1449 -1 1476 0 1505 0C1534 0 1561 -1 1629 -3L1629 27L1584 30C1550 32 1547 39 1547 102L1547 314C1547 359 1613 408 1674 408C1741 408 1785 358 1785 281Z" stroke="rgb(0,0,0)" stroke-opacity="1" stroke-width="8" fill="rgb(0,0,0)" fill-opacity="1"></path></g></g><g><g transform="matrix(1,0,0,1,292.65625,87.60000610351562)"><path transform="matrix(0.017,0,0,-0.017,0,0)" d="M555 243L555 299L51 299L51 243Z" stroke="rgb(0,0,0)" stroke-opacity="1" stroke-width="8" fill="rgb(0,0,0)" fill-opacity="1"></path></g></g><g><g transform="matrix(1,0,0,1,306.34375,87.60000610351562)"><path transform="matrix(0.017,0,0,-0.017,0,0)" d="M399 311C399 357 404 398 413 434C381 478 338 497 293 497C169 497 25 361 25 224C25 219 26 215 26 210C26 75 121 -20 255 -20C307 -20 382 -1 392 14L413 46L403 61C366 41 334 32 298 32C187 32 114 118 114 250C114 357 164 417 254 417C298 417 346 397 364 372L371 311ZM722 469C576 469 475 366 475 217C475 76 564 -20 693 -20C847 -20 957 87 957 237C957 372 859 469 722 469ZM704 436C796 436 864 336 864 200C864 85 813 13 732 13C634 13 568 109 568 251C568 371 616 436 704 436ZM1398 -3C1459 0 1460 0 1477 0C1491 0 1491 0 1560 -3L1560 27L1519 30C1485 32 1482 38 1482 102L1482 295C1482 412 1427 469 1315 469C1278 469 1257 462 1236 444L1160 378L1160 465L1151 469C1100 448 1048 434 995 428L995 400L1032 400C1072 400 1076 393 1076 327L1076 102C1076 39 1073 32 1039 30L994 27L994 -3C1062 -1 1089 0 1118 0C1147 0 1174 -1 1242 -3L1242 27L1197 30C1163 32 1160 39 1160 102L1160 314C1160 359 1226 408 1287 408C1354 408 1398 358 1398 281ZM2148 -3L2148 27L2102 30C2068 32 2065 39 2065 102L2065 718L2056 726C2012 709 1979 701 1900 689L1900 661L1956 661C1974 661 1981 650 1981 620L1981 437C1953 472 1915 486 1875 486C1752 486 1603 351 1603 229C1603 149 1631 70 1680 30C1714 1 1761 -12 1826 -12C1846 -12 1869 -8 1874 -4L1985 89L1980 -3C2029 -1 2045 0 2057 0C2075 0 2139 -3 2148 -3ZM1981 350L1981 221C1981 156 1979 146 1966 123C1938 76 1889 45 1842 45C1754 45 1691 130 1691 249C1691 358 1745 422 1835 422C1914 422 1981 366 1981 350ZM2462 49C2382 49 2362 94 2362 170L2362 465L2353 469C2302 448 2250 434 2197 428L2197 400L2234 400C2274 400 2278 393 2278 327L2278 159C2278 70 2283 -12 2419 -12C2464 -12 2504 2 2531 27L2598 89C2598 60 2597 44 2594 -3C2661 0 2662 0 2677 0C2691 0 2691 0 2760 -3L2760 27L2719 30C2685 32 2682 38 2682 102L2682 465L2673 469C2622 448 2570 434 2517 428L2517 400L2554 400C2594 400 2598 393 2598 327L2598 164C2598 126 2549 49 2462 49ZM3180 311C3180 357 3185 398 3194 434C3162 478 3119 497 3074 497C2950 497 2806 361 2806 224C2806 219 2807 215 2807 210C2807 75 2902 -20 3036 -20C3088 -20 3163 -1 3173 14L3194 46L3184 61C3147 41 3115 32 3079 32C2968 32 2895 118 2895 250C2895 357 2945 417 3035 417C3079 417 3127 397 3145 372L3152 311ZM3322 382L3322 94C3322 20 3355 -12 3432 -12C3455 -12 3479 -7 3485 0L3533 53L3520 70C3495 56 3480 51 3461 51C3422 51 3406 71 3406 120L3406 382L3534 382L3543 436L3406 430L3406 468C3406 510 3409 546 3417 610L3405 621C3381 606 3351 593 3320 583C3323 553 3324 534 3324 504L3324 434L3246 399L3246 378ZM3737 465L3728 469C3677 448 3625 434 3572 428L3572 400L3609 400C3649 400 3653 393 3653 327L3653 102C3653 39 3650 32 3616 30L3570 27L3570 -3C3670 0 3670 0 3695 0C3720 0 3720 0 3820 -3L3820 27L3774 30C3740 32 3737 39 3737 102ZM3691 687C3661 687 3635 661 3635 631C3635 602 3661 576 3690 576C3719 576 3746 602 3746 631C3746 659 3719 687 3691 687ZM4249 -3C4310 0 4311 0 4328 0C4342 0 4342 0 4411 -3L4411 27L4370 30C4336 32 4333 38 4333 102L4333 295C4333 412 4278 469 4166 469C4129 469 4108 462 4087 444L4011 378L4011 465L4002 469C3951 448 3899 434 3846 428L3846 400L3883 400C3923 400 3927 393 3927 327L3927 102C3927 39 3924 32 3890 30L3845 27L3845 -3C3913 -1 3940 0 3969 0C3998 0 4025 -1 4093 -3L4093 27L4048 30C4014 32 4011 39 4011 102L4011 314C4011 359 4077 408 4138 408C4205 408 4249 358 4249 281ZM4475 289C4475 215 4521 164 4595 156L4516 95C4506 80 4501 67 4501 52C4501 24 4519 8 4567 -6L4480 -53C4466 -61 4452 -98 4452 -129C4452 -220 4541 -283 4668 -283C4819 -283 4938 -188 4938 -66C4938 6 4890 56 4820 56L4660 56C4608 56 4584 68 4584 95C4584 118 4613 135 4630 152C4640 151 4646 150 4654 150C4715 150 4858 197 4858 324C4858 344 4855 357 4847 378L4939 378L4964 419L4960 431L4818 427C4781 457 4745 469 4696 469C4621 469 4475 424 4475 289ZM4660 435C4728 435 4774 379 4774 294C4774 229 4732 184 4671 184C4604 184 4559 236 4559 313C4559 390 4596 435 4660 435ZM4707 -14C4820 -14 4859 -37 4859 -102C4859 -188 4780 -252 4675 -252C4588 -252 4528 -201 4528 -127C4528 -82 4554 -41 4594 -24C4610 -16 4638 -14 4707 -14ZM5265 143C5265 74 5262 44 5254 4C5306 -13 5345 -20 5391 -20C5522 -20 5615 50 5615 148C5615 321 5331 228 5331 358C5331 408 5366 436 5427 436C5494 436 5545 401 5545 354L5545 331L5573 331C5574 389 5575 413 5578 444C5525 462 5489 469 5448 469C5332 469 5261 414 5261 324C5261 276 5283 242 5329 221C5447 169 5541 195 5541 109C5541 55 5491 17 5420 17C5347 17 5295 52 5295 102L5295 143ZM5654 661L5710 661C5728 661 5735 650 5735 620L5735 102C5735 39 5732 32 5698 30L5653 27L5653 -3C5721 -1 5748 0 5777 0C5806 0 5833 -1 5901 -3L5901 27L5856 30C5822 32 5819 39 5819 102L5819 314C5819 359 5885 408 5946 408C6013 408 6057 358 6057 281L6057 -3C6118 0 6119 0 6136 0C6150 0 6150 0 6219 -3L6219 27L6178 30C6144 32 6141 38 6141 102L6141 295C6141 412 6055 470 5970 470C5908 470 5847 439 5819 378L5819 718L5810 726C5766 709 5733 701 5654 689ZM6478 -20C6543 -20 6633 18 6645 36L6665 70L6652 80C6588 42 6565 33 6522 33C6457 33 6403 62 6375 111C6356 144 6349 172 6347 230C6368 227 6398 226 6432 226C6518 226 6627 234 6674 244C6675 258 6676 267 6676 279C6676 394 6602 469 6490 469C6453 469 6408 464 6368 440C6286 392 6254 323 6254 219C6254 25 6389 -20 6478 -20ZM6587 267C6563 264 6512 261 6461 261C6418 261 6375 264 6349 270C6349 317 6353 339 6366 365C6387 409 6430 436 6478 436C6511 436 6537 423 6555 396C6577 363 6584 334 6587 267ZM6729 661L6785 661C6803 661 6810 650 6810 620L6810 102C6810 39 6807 32 6773 30L6727 27L6727 -3C6827 0 6827 0 6852 0C6877 0 6877 0 6977 -3L6977 27L6931 30C6897 32 6894 39 6894 102L6894 718L6885 726C6841 709 6808 701 6729 689ZM7019 661L7075 661C7093 661 7100 650 7100 620L7100 102C7100 39 7097 32 7063 30L7017 27L7017 -3C7117 0 7117 0 7142 0C7167 0 7167 0 7267 -3L7267 27L7221 30C7187 32 7184 39 7184 102L7184 718L7175 726C7131 709 7098 701 7019 689ZM7948 469L7789 104C7786 113 7701 397 7701 405C7701 420 7714 428 7739 429L7779 431L7779 459C7680 456 7680 456 7660 456C7640 456 7640 456 7541 459L7541 431L7569 429C7597 427 7610 407 7635 329L7737 -7L7784 -7L7934 335L8070 -7L8116 -7L8253 342C8283 409 8295 426 8317 429L8343 431L8343 459C8261 456 8261 456 8245 456C8229 456 8229 456 8147 459L8147 431L8181 429C8206 428 8220 416 8220 398L8115 98L8000 388C7986 422 7979 442 7971 469ZM8556 465L8547 469C8496 448 8444 434 8391 428L8391 400L8428 400C8468 400 8472 393 8472 327L8472 102C8472 39 8469 32 8435 30L8389 27L8389 -3C8489 0 8489 0 8514 0C8539 0 8539 0 8639 -3L8639 27L8593 30C8559 32 8556 39 8556 102ZM8510 687C8480 687 8454 661 8454 631C8454 602 8480 576 8509 576C8538 576 8565 602 8565 631C8565 659 8538 687 8510 687ZM8756 382L8756 94C8756 20 8789 -12 8866 -12C8889 -12 8913 -7 8919 0L8967 53L8954 70C8929 56 8914 51 8895 51C8856 51 8840 71 8840 120L8840 382L8968 382L8977 436L8840 430L8840 468C8840 510 8843 546 8851 610L8839 621C8815 606 8785 593 8754 583C8757 553 8758 534 8758 504L8758 434L8680 399L8680 378ZM8990 661L9046 661C9064 661 9071 650 9071 620L9071 102C9071 39 9068 32 9034 30L8989 27L8989 -3C9057 -1 9084 0 9113 0C9142 0 9169 -1 9237 -3L9237 27L9192 30C9158 32 9155 39 9155 102L9155 314C9155 359 9221 408 9282 408C9349 408 9393 358 9393 281L9393 -3C9454 0 9455 0 9472 0C9486 0 9486 0 9555 -3L9555 27L9514 30C9480 32 9477 38 9477 102L9477 295C9477 412 9391 470 9306 470C9244 470 9183 439 9155 378L9155 718L9146 726C9102 709 9069 701 8990 689Z" stroke="rgb(0,0,0)" stroke-opacity="1" stroke-width="8" fill="rgb(0,0,0)" fill-opacity="1"></path></g></g></g><g><g><g transform="matrix(1,0,0,1,256,108)"><path transform="matrix(0.017,0,0,-0.017,0,0)" d="M410 -3C471 0 472 0 489 0C503 0 503 0 572 -3L572 27L531 30C497 32 494 38 494 102L494 295C494 412 439 469 327 469C290 469 269 462 248 444L172 378L172 465L163 469C112 448 60 434 7 428L7 400L44 400C84 400 88 393 88 327L88 102C88 39 85 32 51 30L6 27L6 -3C74 -1 101 0 130 0C159 0 186 -1 254 -3L254 27L209 30C175 32 172 39 172 102L172 314C172 359 238 408 299 408C366 408 410 358 410 281ZM831 -20C896 -20 986 18 998 36L1018 70L1005 80C941 42 918 33 875 33C810 33 756 62 728 111C709 144 702 172 700 230C721 227 751 226 785 226C871 226 980 234 1027 244C1028 258 1029 267 1029 279C1029 394 955 469 843 469C806 469 761 464 721 440C639 392 607 323 607 219C607 25 742 -20 831 -20ZM940 267C916 264 865 261 814 261C771 261 728 264 702 270C702 317 706 339 719 365C740 409 783 436 831 436C864 436 890 423 908 396C930 363 937 334 940 267ZM1157 382L1157 94C1157 20 1190 -12 1267 -12C1290 -12 1314 -7 1320 0L1368 53L1355 70C1330 56 1315 51 1296 51C1257 51 1241 71 1241 120L1241 382L1369 382L1378 436L1241 430L1241 468C1241 510 1244 546 1252 610L1240 621C1216 606 1186 593 1155 583C1158 553 1159 534 1159 504L1159 434L1081 399L1081 378ZM2032 311C2032 357 2037 398 2046 434C2014 478 1971 497 1926 497C1802 497 1658 361 1658 224C1658 219 1659 215 1659 210C1659 75 1754 -20 1888 -20C1940 -20 2015 -1 2025 14L2046 46L2036 61C1999 41 1967 32 1931 32C1820 32 1747 118 1747 250C1747 357 1797 417 1887 417C1931 417 1979 397 1997 372L2004 311ZM2083 661L2139 661C2157 661 2164 650 2164 620L2164 102C2164 39 2161 32 2127 30L2082 27L2082 -3C2150 -1 2177 0 2206 0C2235 0 2262 -1 2330 -3L2330 27L2285 30C2251 32 2248 39 2248 102L2248 314C2248 359 2314 408 2375 408C2442 408 2486 358 2486 281L2486 -3C2547 0 2548 0 2565 0C2579 0 2579 0 2648 -3L2648 27L2607 30C2573 32 2570 38 2570 102L2570 295C2570 412 2484 470 2399 470C2337 470 2276 439 2248 378L2248 718L2239 726C2195 709 2162 701 2083 689ZM2981 82L2976 -3C3041 0 3041 0 3054 0C3059 0 3084 -1 3128 -3L3128 27L3089 29C3065 30 3061 38 3061 87L3061 270C3061 416 3019 469 2903 469C2860 469 2820 458 2782 435L2729 403L2729 338L2755 331L2768 362C2789 409 2799 416 2845 416C2939 416 2978 379 2981 288L2882 270C2746 245 2689 198 2689 111C2689 33 2736 -12 2815 -12C2833 -12 2850 -9 2857 -4ZM2981 124C2952 83 2889 45 2850 45C2810 45 2775 82 2775 125C2775 162 2795 197 2825 216C2850 231 2905 245 2981 256ZM3179 400L3216 400C3256 400 3260 393 3260 327L3260 102C3260 39 3257 32 3223 30L3177 27L3177 -3C3249 -1 3275 0 3300 0C3320 0 3320 0 3443 -3L3443 27L3391 30C3346 33 3344 36 3344 102L3344 274C3344 334 3384 384 3433 384C3463 384 3484 370 3500 338L3521 338L3530 458C3519 465 3501 469 3483 469C3453 469 3421 453 3400 428L3344 362L3344 465L3335 469C3284 448 3232 434 3179 428ZM3605 289C3605 215 3651 164 3725 156L3646 95C3636 80 3631 67 3631 52C3631 24 3649 8 3697 -6L3610 -53C3596 -61 3582 -98 3582 -129C3582 -220 3671 -283 3798 -283C3949 -283 4068 -188 4068 -66C4068 6 4020 56 3950 56L3790 56C3738 56 3714 68 3714 95C3714 118 3743 135 3760 152C3770 151 3776 150 3784 150C3845 150 3988 197 3988 324C3988 344 3985 357 3977 378L4069 378L4094 419L4090 431L3948 427C3911 457 3875 469 3826 469C3751 469 3605 424 3605 289ZM3790 435C3858 435 3904 379 3904 294C3904 229 3862 184 3801 184C3734 184 3689 236 3689 313C3689 390 3726 435 3790 435ZM3837 -14C3950 -14 3989 -37 3989 -102C3989 -188 3910 -252 3805 -252C3718 -252 3658 -201 3658 -127C3658 -82 3684 -41 3724 -24C3740 -16 3768 -14 3837 -14ZM4355 -20C4420 -20 4510 18 4522 36L4542 70L4529 80C4465 42 4442 33 4399 33C4334 33 4280 62 4252 111C4233 144 4226 172 4224 230C4245 227 4275 226 4309 226C4395 226 4504 234 4551 244C4552 258 4553 267 4553 279C4553 394 4479 469 4367 469C4330 469 4285 464 4245 440C4163 392 4131 323 4131 219C4131 25 4266 -20 4355 -20ZM4464 267C4440 264 4389 261 4338 261C4295 261 4252 264 4226 270C4226 317 4230 339 4243 365C4264 409 4307 436 4355 436C4388 436 4414 423 4432 396C4454 363 4461 334 4464 267ZM5111 469C4965 469 4864 366 4864 217C4864 76 4953 -20 5082 -20C5236 -20 5346 87 5346 237C5346 372 5248 469 5111 469ZM5093 436C5185 436 5253 336 5253 200C5253 85 5202 13 5121 13C5023 13 4957 109 4957 251C4957 371 5005 436 5093 436ZM5718 717C5694 731 5672 737 5651 737C5540 737 5483 555 5483 478L5483 476L5483 434L5414 403L5414 381L5483 385L5483 102C5483 39 5480 32 5446 30L5400 27L5400 -3C5500 0 5500 0 5525 0C5550 0 5550 0 5650 -3L5650 27L5604 30C5570 32 5567 39 5567 102L5567 385L5691 385L5698 438L5567 434L5567 519C5567 634 5580 662 5637 662C5664 662 5682 655 5706 634L5718 640Z" stroke="rgb(0,0,0)" stroke-opacity="1" stroke-width="8" fill="rgb(0,0,0)" fill-opacity="1"></path></g></g><g><g transform="matrix(1,0,0,1,356.45623779296875,108)"><path transform="matrix(0.017,0,0,-0.017,0,0)" d="M555 243L555 299L51 299L51 243Z" stroke="rgb(0,0,0)" stroke-opacity="1" stroke-width="8" fill="rgb(0,0,0)" fill-opacity="1"></path></g></g><g><g transform="matrix(1,0,0,1,370.14373779296875,108)"><path transform="matrix(0.017,0,0,-0.017,0,0)" d="M16 23L16 -3C203 -3 203 0 239 0C275 0 275 -3 468 -3L468 82C353 77 307 81 122 77L304 270C401 373 431 428 431 503C431 618 353 689 226 689C154 689 105 669 56 619L39 483L68 483L81 529C97 587 133 612 200 612C286 612 341 558 341 473C341 398 299 324 186 204ZM884 458C841 475 812 482 783 482C708 482 620 394 602 374C562 327 523 181 523 78C523 19 535 -11 559 -11C581 -11 600 -3 632 19C679 51 758 121 807 209L731 -205C726 -229 716 -249 704 -262L713 -276C744 -268 775 -262 799 -259C803 -205 809 -150 818 -100L904 356C915 417 921 443 931 474L917 480ZM617 59C603 59 595 80 595 113C595 209 638 359 680 409C692 424 721 433 753 433C781 433 802 427 850 406L829 311C800 174 659 59 617 59Z" stroke="rgb(0,0,0)" stroke-opacity="1" stroke-width="8" fill="rgb(0,0,0)" fill-opacity="1"></path></g></g><g><g transform="matrix(1,0,0,1,386.48126220703125,108)"><path transform="matrix(0.017,0,0,-0.017,0,0)" d="M532 49C452 49 432 94 432 170L432 465L423 469C372 448 320 434 267 428L267 400L304 400C344 400 348 393 348 327L348 159C348 70 353 -12 489 -12C534 -12 574 2 601 27L668 89C668 60 667 44 664 -3C731 0 732 0 747 0C761 0 761 0 830 -3L830 27L789 30C755 32 752 38 752 102L752 465L743 469C692 448 640 434 587 428L587 400L624 400C664 400 668 393 668 327L668 164C668 126 619 49 532 49ZM1261 -3C1322 0 1323 0 1340 0C1354 0 1354 0 1423 -3L1423 27L1382 30C1348 32 1345 38 1345 102L1345 295C1345 412 1290 469 1178 469C1141 469 1120 462 1099 444L1023 378L1023 465L1014 469C963 448 911 434 858 428L858 400L895 400C935 400 939 393 939 327L939 102C939 39 936 32 902 30L857 27L857 -3C925 -1 952 0 981 0C1010 0 1037 -1 1105 -3L1105 27L1060 30C1026 32 1023 39 1023 102L1023 314C1023 359 1089 408 1150 408C1217 408 1261 358 1261 281ZM1620 465L1611 469C1560 448 1508 434 1455 428L1455 400L1492 400C1532 400 1536 393 1536 327L1536 102C1536 39 1533 32 1499 30L1453 27L1453 -3C1553 0 1553 0 1578 0C1603 0 1603 0 1703 -3L1703 27L1657 30C1623 32 1620 39 1620 102ZM1574 687C1544 687 1518 661 1518 631C1518 602 1544 576 1573 576C1602 576 1629 602 1629 631C1629 659 1602 687 1574 687ZM2063 717C2039 731 2017 737 1996 737C1885 737 1828 555 1828 478L1828 476L1828 434L1759 403L1759 381L1828 385L1828 102C1828 39 1825 32 1791 30L1745 27L1745 -3C1845 0 1845 0 1870 0C1895 0 1895 0 1995 -3L1995 27L1949 30C1915 32 1912 39 1912 102L1912 385L2036 385L2043 438L1912 434L1912 519C1912 634 1925 662 1982 662C2009 662 2027 655 2051 634L2063 640ZM2333 469C2187 469 2086 366 2086 217C2086 76 2175 -20 2304 -20C2458 -20 2568 87 2568 237C2568 372 2470 469 2333 469ZM2315 436C2407 436 2475 336 2475 200C2475 85 2424 13 2343 13C2245 13 2179 109 2179 251C2179 371 2227 436 2315 436ZM2622 400L2659 400C2699 400 2703 393 2703 327L2703 102C2703 39 2700 32 2666 30L2620 27L2620 -3C2692 -1 2718 0 2743 0C2763 0 2763 0 2886 -3L2886 27L2834 30C2789 33 2787 36 2787 102L2787 274C2787 334 2827 384 2876 384C2906 384 2927 370 2943 338L2964 338L2973 458C2962 465 2944 469 2926 469C2896 469 2864 453 2843 428L2787 362L2787 465L2778 469C2727 448 2675 434 2622 428ZM3011 400L3048 400C3088 400 3092 393 3092 327L3092 102C3092 39 3089 32 3055 30L3009 27L3009 -3C3105 0 3108 0 3136 0C3164 0 3190 -1 3255 -3L3255 27L3213 30C3179 32 3176 39 3176 102L3176 314C3176 359 3242 408 3302 408C3356 408 3393 357 3393 281L3393 102C3393 39 3390 32 3356 30L3310 27L3310 -3C3410 0 3410 0 3435 0C3460 0 3460 0 3560 -3L3560 27L3514 30C3480 32 3477 39 3477 102L3477 314C3477 359 3543 408 3603 408C3657 408 3694 357 3694 281L3694 -3C3755 0 3756 0 3773 0C3786 0 3786 0 3862 -3L3862 27L3815 30C3781 32 3778 39 3778 102L3778 308C3778 407 3720 469 3628 469C3593 469 3564 460 3546 444L3470 376C3438 442 3397 469 3328 469C3291 469 3263 460 3245 444L3176 380L3176 465L3167 469C3116 448 3064 434 3011 428ZM3898 661L3954 661C3972 661 3979 650 3979 620L3979 102C3979 39 3976 32 3942 30L3896 27L3896 -3C3996 0 3996 0 4021 0C4046 0 4046 0 4146 -3L4146 27L4100 30C4066 32 4063 39 4063 102L4063 718L4054 726C4010 709 3977 701 3898 689ZM4462 86C4440 124 4429 147 4411 196L4347 364C4341 381 4337 396 4337 406C4337 420 4348 428 4371 429L4409 431L4409 459C4312 456 4312 456 4293 456C4274 456 4274 456 4177 459L4177 431L4195 429C4220 426 4232 415 4247 380L4356 118C4384 50 4394 26 4412 -24L4389 -85C4357 -169 4318 -216 4280 -216C4264 -216 4246 -208 4229 -193L4216 -193L4192 -268C4211 -278 4227 -283 4246 -283C4313 -283 4356 -247 4394 -160L4597 308C4637 399 4656 426 4681 429L4709 431L4709 459C4630 456 4630 456 4614 456C4598 456 4598 456 4519 459L4519 431L4545 429C4573 427 4587 418 4587 404C4587 397 4585 388 4581 378ZM5548 -3L5548 27L5502 30C5468 32 5465 39 5465 102L5465 718L5456 726C5412 709 5379 701 5300 689L5300 661L5356 661C5374 661 5381 650 5381 620L5381 437C5353 472 5315 486 5275 486C5152 486 5003 351 5003 229C5003 149 5031 70 5080 30C5114 1 5161 -12 5226 -12C5246 -12 5269 -8 5274 -4L5385 89L5380 -3C5429 -1 5445 0 5457 0C5475 0 5539 -3 5548 -3ZM5381 350L5381 221C5381 156 5379 146 5366 123C5338 76 5289 45 5242 45C5154 45 5091 130 5091 249C5091 358 5145 422 5235 422C5314 422 5381 366 5381 350ZM5767 465L5758 469C5707 448 5655 434 5602 428L5602 400L5639 400C5679 400 5683 393 5683 327L5683 102C5683 39 5680 32 5646 30L5600 27L5600 -3C5700 0 5700 0 5725 0C5750 0 5750 0 5850 -3L5850 27L5804 30C5770 32 5767 39 5767 102ZM5721 687C5691 687 5665 661 5665 631C5665 602 5691 576 5720 576C5749 576 5776 602 5776 631C5776 659 5749 687 5721 687ZM5910 143C5910 74 5907 44 5899 4C5951 -13 5990 -20 6036 -20C6167 -20 6260 50 6260 148C6260 321 5976 228 5976 358C5976 408 6011 436 6072 436C6139 436 6190 401 6190 354L6190 331L6218 331C6219 389 6220 413 6223 444C6170 462 6134 469 6093 469C5977 469 5906 414 5906 324C5906 276 5928 242 5974 221C6092 169 6186 195 6186 109C6186 55 6136 17 6065 17C5992 17 5940 52 5940 102L5940 143ZM6390 382L6390 94C6390 20 6423 -12 6500 -12C6523 -12 6547 -7 6553 0L6601 53L6588 70C6563 56 6548 51 6529 51C6490 51 6474 71 6474 120L6474 382L6602 382L6611 436L6474 430L6474 468C6474 510 6477 546 6485 610L6473 621C6449 606 6419 593 6388 583C6391 553 6392 534 6392 504L6392 434L6314 399L6314 378ZM6640 400L6677 400C6717 400 6721 393 6721 327L6721 102C6721 39 6718 32 6684 30L6638 27L6638 -3C6710 -1 6736 0 6761 0C6781 0 6781 0 6904 -3L6904 27L6852 30C6807 33 6805 36 6805 102L6805 274C6805 334 6845 384 6894 384C6924 384 6945 370 6961 338L6982 338L6991 458C6980 465 6962 469 6944 469C6914 469 6882 453 6861 428L6805 362L6805 465L6796 469C6745 448 6693 434 6640 428ZM7199 465L7190 469C7139 448 7087 434 7034 428L7034 400L7071 400C7111 400 7115 393 7115 327L7115 102C7115 39 7112 32 7078 30L7032 27L7032 -3C7132 0 7132 0 7157 0C7182 0 7182 0 7282 -3L7282 27L7236 30C7202 32 7199 39 7199 102ZM7153 687C7123 687 7097 661 7097 631C7097 602 7123 576 7152 576C7181 576 7208 602 7208 631C7208 659 7181 687 7153 687ZM7451 718L7442 726C7398 709 7365 701 7286 689L7286 661L7342 661C7360 661 7367 650 7367 620L7367 153C7367 91 7366 64 7359 -6L7375 -12L7415 24C7478 -12 7533 -28 7581 -28C7733 -28 7809 128 7809 262L7809 270C7796 414 7705 485 7616 485C7549 485 7483 446 7451 369ZM7585 404C7669 404 7722 336 7722 229C7722 117 7662 39 7577 39C7525 39 7451 71 7451 93L7451 308C7451 343 7507 404 7585 404ZM8136 49C8056 49 8036 94 8036 170L8036 465L8027 469C7976 448 7924 434 7871 428L7871 400L7908 400C7948 400 7952 393 7952 327L7952 159C7952 70 7957 -12 8093 -12C8138 -12 8178 2 8205 27L8272 89C8272 60 8271 44 8268 -3C8335 0 8336 0 8351 0C8365 0 8365 0 8434 -3L8434 27L8393 30C8359 32 8356 38 8356 102L8356 465L8347 469C8296 448 8244 434 8191 428L8191 400L8228 400C8268 400 8272 393 8272 327L8272 164C8272 126 8223 49 8136 49ZM8553 382L8553 94C8553 20 8586 -12 8663 -12C8686 -12 8710 -7 8716 0L8764 53L8751 70C8726 56 8711 51 8692 51C8653 51 8637 71 8637 120L8637 382L8765 382L8774 436L8637 430L8637 468C8637 510 8640 546 8648 610L8636 621C8612 606 8582 593 8551 583C8554 553 8555 534 8555 504L8555 434L8477 399L8477 378ZM9030 -20C9095 -20 9185 18 9197 36L9217 70L9204 80C9140 42 9117 33 9074 33C9009 33 8955 62 8927 111C8908 144 8901 172 8899 230C8920 227 8950 226 8984 226C9070 226 9179 234 9226 244C9227 258 9228 267 9228 279C9228 394 9154 469 9042 469C9005 469 8960 464 8920 440C8838 392 8806 323 8806 219C8806 25 8941 -20 9030 -20ZM9139 267C9115 264 9064 261 9013 261C8970 261 8927 264 8901 270C8901 317 8905 339 8918 365C8939 409 8982 436 9030 436C9063 436 9089 423 9107 396C9129 363 9136 334 9139 267ZM9837 -3L9837 27L9791 30C9757 32 9754 39 9754 102L9754 718L9745 726C9701 709 9668 701 9589 689L9589 661L9645 661C9663 661 9670 650 9670 620L9670 437C9642 472 9604 486 9564 486C9441 486 9292 351 9292 229C9292 149 9320 70 9369 30C9403 1 9450 -12 9515 -12C9535 -12 9558 -8 9563 -4L9674 89L9669 -3C9718 -1 9734 0 9746 0C9764 0 9828 -3 9837 -3ZM9670 350L9670 221C9670 156 9668 146 9655 123C9627 76 9578 45 9531 45C9443 45 9380 130 9380 249C9380 358 9434 422 9524 422C9603 422 9670 366 9670 350Z" stroke="rgb(0,0,0)" stroke-opacity="1" stroke-width="8" fill="rgb(0,0,0)" fill-opacity="1"></path></g></g></g></g><g><g><g><g transform="matrix(1,0,0,1,124,150.00000610351563)"><path transform="matrix(0.0119,0,0,-0.0119,0,0)" d="M105 664L161 662C185 661 196 653 196 635C196 621 192 589 187 559L112 125C96 34 94 32 54 28L13 25L9 -3L51 -2C98 0 117 0 141 0L238 -3L264 -3L267 25L218 28C191 30 182 38 182 58C182 67 183 76 186 93L287 648C316 654 336 656 363 656C450 656 496 617 496 543C496 448 418 378 314 378L270 378L267 367C401 172 432 124 507 -3C507 -3 592 0 592 0C593 0 607 -1 626 -3L639 -3L639 24C599 29 588 37 559 79L375 354C430 364 459 376 495 402C553 444 584 499 584 560C584 646 520 693 409 691L108 691Z" stroke="rgb(0,0,0)" stroke-opacity="1" stroke-width="8" fill="rgb(0,0,0)" fill-opacity="1"></path></g></g></g></g><g><g><g><g transform="matrix(1,0,0,1,217,24.600006103515625)"><path transform="matrix(0.017,0,0,-0.017,0,0)" d="M22 342C22 126 180 -20 415 -20C498 -20 573 -2 642 34L670 84L661 94C599 54 530 34 454 34C259 34 129 164 129 361C129 545 243 667 415 667C513 667 614 627 614 588L614 516L645 516C646 566 650 602 664 668C579 696 506 709 433 709C218 709 22 582 22 342ZM987 469C841 469 740 366 740 217C740 76 829 -20 958 -20C1112 -20 1222 87 1222 237C1222 372 1124 469 987 469ZM969 436C1061 436 1129 336 1129 200C1129 85 1078 13 997 13C899 13 833 109 833 251C833 371 881 436 969 436ZM1663 -3C1724 0 1725 0 1742 0C1756 0 1756 0 1825 -3L1825 27L1784 30C1750 32 1747 38 1747 102L1747 295C1747 412 1692 469 1580 469C1543 469 1522 462 1501 444L1425 378L1425 465L1416 469C1365 448 1313 434 1260 428L1260 400L1297 400C1337 400 1341 393 1341 327L1341 102C1341 39 1338 32 1304 30L1259 27L1259 -3C1327 -1 1354 0 1383 0C1412 0 1439 -1 1507 -3L1507 27L1462 30C1428 32 1425 39 1425 102L1425 314C1425 359 1491 408 1552 408C1619 408 1663 358 1663 281ZM2413 -3L2413 27L2367 30C2333 32 2330 39 2330 102L2330 718L2321 726C2277 709 2244 701 2165 689L2165 661L2221 661C2239 661 2246 650 2246 620L2246 437C2218 472 2180 486 2140 486C2017 486 1868 351 1868 229C1868 149 1896 70 1945 30C1979 1 2026 -12 2091 -12C2111 -12 2134 -8 2139 -4L2250 89L2245 -3C2294 -1 2310 0 2322 0C2340 0 2404 -3 2413 -3ZM2246 350L2246 221C2246 156 2244 146 2231 123C2203 76 2154 45 2107 45C2019 45 1956 130 1956 249C1956 358 2010 422 2100 422C2179 422 2246 366 2246 350ZM2727 49C2647 49 2627 94 2627 170L2627 465L2618 469C2567 448 2515 434 2462 428L2462 400L2499 400C2539 400 2543 393 2543 327L2543 159C2543 70 2548 -12 2684 -12C2729 -12 2769 2 2796 27L2863 89C2863 60 2862 44 2859 -3C2926 0 2927 0 2942 0C2956 0 2956 0 3025 -3L3025 27L2984 30C2950 32 2947 38 2947 102L2947 465L2938 469C2887 448 2835 434 2782 428L2782 400L2819 400C2859 400 2863 393 2863 327L2863 164C2863 126 2814 49 2727 49ZM3445 311C3445 357 3450 398 3459 434C3427 478 3384 497 3339 497C3215 497 3071 361 3071 224C3071 219 3072 215 3072 210C3072 75 3167 -20 3301 -20C3353 -20 3428 -1 3438 14L3459 46L3449 61C3412 41 3380 32 3344 32C3233 32 3160 118 3160 250C3160 357 3210 417 3300 417C3344 417 3392 397 3410 372L3417 311ZM3587 382L3587 94C3587 20 3620 -12 3697 -12C3720 -12 3744 -7 3750 0L3798 53L3785 70C3760 56 3745 51 3726 51C3687 51 3671 71 3671 120L3671 382L3799 382L3808 436L3671 430L3671 468C3671 510 3674 546 3682 610L3670 621C3646 606 3616 593 3585 583C3588 553 3589 534 3589 504L3589 434L3511 399L3511 378ZM4093 469C3947 469 3846 366 3846 217C3846 76 3935 -20 4064 -20C4218 -20 4328 87 4328 237C4328 372 4230 469 4093 469ZM4075 436C4167 436 4235 336 4235 200C4235 85 4184 13 4103 13C4005 13 3939 109 3939 251C3939 371 3987 436 4075 436ZM4382 400L4419 400C4459 400 4463 393 4463 327L4463 102C4463 39 4460 32 4426 30L4380 27L4380 -3C4452 -1 4478 0 4503 0C4523 0 4523 0 4646 -3L4646 27L4594 30C4549 33 4547 36 4547 102L4547 274C4547 334 4587 384 4636 384C4666 384 4687 370 4703 338L4724 338L4733 458C4722 465 4704 469 4686 469C4656 469 4624 453 4603 428L4547 362L4547 465L4538 469C4487 448 4435 434 4382 428ZM5415 469L5256 104C5253 113 5168 397 5168 405C5168 420 5181 428 5206 429L5246 431L5246 459C5147 456 5147 456 5127 456C5107 456 5107 456 5008 459L5008 431L5036 429C5064 427 5077 407 5102 329L5204 -7L5251 -7L5401 335L5537 -7L5583 -7L5720 342C5750 409 5762 426 5784 429L5810 431L5810 459C5728 456 5728 456 5712 456C5696 456 5696 456 5614 459L5614 431L5648 429C5673 428 5687 416 5687 398L5582 98L5467 388C5453 422 5446 442 5438 469ZM6023 465L6014 469C5963 448 5911 434 5858 428L5858 400L5895 400C5935 400 5939 393 5939 327L5939 102C5939 39 5936 32 5902 30L5856 27L5856 -3C5956 0 5956 0 5981 0C6006 0 6006 0 6106 -3L6106 27L6060 30C6026 32 6023 39 6023 102ZM5977 687C5947 687 5921 661 5921 631C5921 602 5947 576 5976 576C6005 576 6032 602 6032 631C6032 659 6005 687 5977 687ZM6223 382L6223 94C6223 20 6256 -12 6333 -12C6356 -12 6380 -7 6386 0L6434 53L6421 70C6396 56 6381 51 6362 51C6323 51 6307 71 6307 120L6307 382L6435 382L6444 436L6307 430L6307 468C6307 510 6310 546 6318 610L6306 621C6282 606 6252 593 6221 583C6224 553 6225 534 6225 504L6225 434L6147 399L6147 378ZM6457 661L6513 661C6531 661 6538 650 6538 620L6538 102C6538 39 6535 32 6501 30L6456 27L6456 -3C6524 -1 6551 0 6580 0C6609 0 6636 -1 6704 -3L6704 27L6659 30C6625 32 6622 39 6622 102L6622 314C6622 359 6688 408 6749 408C6816 408 6860 358 6860 281L6860 -3C6921 0 6922 0 6939 0C6953 0 6953 0 7022 -3L7022 27L6981 30C6947 32 6944 38 6944 102L6944 295C6944 412 6858 470 6773 470C6711 470 6650 439 6622 378L6622 718L6613 726C6569 709 6536 701 6457 689ZM7690 -3C7751 0 7752 0 7769 0C7783 0 7783 0 7852 -3L7852 27L7811 30C7777 32 7774 38 7774 102L7774 295C7774 412 7719 469 7607 469C7570 469 7549 462 7528 444L7452 378L7452 465L7443 469C7392 448 7340 434 7287 428L7287 400L7324 400C7364 400 7368 393 7368 327L7368 102C7368 39 7365 32 7331 30L7286 27L7286 -3C7354 -1 7381 0 7410 0C7439 0 7466 -1 7534 -3L7534 27L7489 30C7455 32 7452 39 7452 102L7452 314C7452 359 7518 408 7579 408C7646 408 7690 358 7690 281ZM8111 -20C8176 -20 8266 18 8278 36L8298 70L8285 80C8221 42 8198 33 8155 33C8090 33 8036 62 8008 111C7989 144 7982 172 7980 230C8001 227 8031 226 8065 226C8151 226 8260 234 8307 244C8308 258 8309 267 8309 279C8309 394 8235 469 8123 469C8086 469 8041 464 8001 440C7919 392 7887 323 7887 219C7887 25 8022 -20 8111 -20ZM8220 267C8196 264 8145 261 8094 261C8051 261 8008 264 7982 270C7982 317 7986 339 7999 365C8020 409 8063 436 8111 436C8144 436 8170 423 8188 396C8210 363 8217 334 8220 267ZM8437 382L8437 94C8437 20 8470 -12 8547 -12C8570 -12 8594 -7 8600 0L8648 53L8635 70C8610 56 8595 51 8576 51C8537 51 8521 71 8521 120L8521 382L8649 382L8658 436L8521 430L8521 468C8521 510 8524 546 8532 610L8520 621C8496 606 8466 593 8435 583C8438 553 8439 534 8439 504L8439 434L8361 399L8361 378ZM9312 311C9312 357 9317 398 9326 434C9294 478 9251 497 9206 497C9082 497 8938 361 8938 224C8938 219 8939 215 8939 210C8939 75 9034 -20 9168 -20C9220 -20 9295 -1 9305 14L9326 46L9316 61C9279 41 9247 32 9211 32C9100 32 9027 118 9027 250C9027 357 9077 417 9167 417C9211 417 9259 397 9277 372L9284 311ZM9363 661L9419 661C9437 661 9444 650 9444 620L9444 102C9444 39 9441 32 9407 30L9362 27L9362 -3C9430 -1 9457 0 9486 0C9515 0 9542 -1 9610 -3L9610 27L9565 30C9531 32 9528 39 9528 102L9528 314C9528 359 9594 408 9655 408C9722 408 9766 358 9766 281L9766 -3C9827 0 9828 0 9845 0C9859 0 9859 0 9928 -3L9928 27L9887 30C9853 32 9850 38 9850 102L9850 295C9850 412 9764 470 9679 470C9617 470 9556 439 9528 378L9528 718L9519 726C9475 709 9442 701 9363 689ZM10261 82L10256 -3C10321 0 10321 0 10334 0C10339 0 10364 -1 10408 -3L10408 27L10369 29C10345 30 10341 38 10341 87L10341 270C10341 416 10299 469 10183 469C10140 469 10100 458 10062 435L10009 403L10009 338L10035 331L10048 362C10069 409 10079 416 10125 416C10219 416 10258 379 10261 288L10162 270C10026 245 9969 198 9969 111C9969 33 10016 -12 10095 -12C10113 -12 10130 -9 10137 -4ZM10261 124C10232 83 10169 45 10130 45C10090 45 10055 82 10055 125C10055 162 10075 197 10105 216C10130 231 10185 245 10261 256ZM10459 400L10496 400C10536 400 10540 393 10540 327L10540 102C10540 39 10537 32 10503 30L10457 27L10457 -3C10529 -1 10555 0 10580 0C10600 0 10600 0 10723 -3L10723 27L10671 30C10626 33 10624 36 10624 102L10624 274C10624 334 10664 384 10713 384C10743 384 10764 370 10780 338L10801 338L10810 458C10799 465 10781 469 10763 469C10733 469 10701 453 10680 428L10624 362L10624 465L10615 469C10564 448 10512 434 10459 428ZM10885 289C10885 215 10931 164 11005 156L10926 95C10916 80 10911 67 10911 52C10911 24 10929 8 10977 -6L10890 -53C10876 -61 10862 -98 10862 -129C10862 -220 10951 -283 11078 -283C11229 -283 11348 -188 11348 -66C11348 6 11300 56 11230 56L11070 56C11018 56 10994 68 10994 95C10994 118 11023 135 11040 152C11050 151 11056 150 11064 150C11125 150 11268 197 11268 324C11268 344 11265 357 11257 378L11349 378L11374 419L11370 431L11228 427C11191 457 11155 469 11106 469C11031 469 10885 424 10885 289ZM11070 435C11138 435 11184 379 11184 294C11184 229 11142 184 11081 184C11014 184 10969 236 10969 313C10969 390 11006 435 11070 435ZM11117 -14C11230 -14 11269 -37 11269 -102C11269 -188 11190 -252 11085 -252C10998 -252 10938 -201 10938 -127C10938 -82 10964 -41 11004 -24C11020 -16 11048 -14 11117 -14ZM11635 -20C11700 -20 11790 18 11802 36L11822 70L11809 80C11745 42 11722 33 11679 33C11614 33 11560 62 11532 111C11513 144 11506 172 11504 230C11525 227 11555 226 11589 226C11675 226 11784 234 11831 244C11832 258 11833 267 11833 279C11833 394 11759 469 11647 469C11610 469 11565 464 11525 440C11443 392 11411 323 11411 219C11411 25 11546 -20 11635 -20ZM11744 267C11720 264 11669 261 11618 261C11575 261 11532 264 11506 270C11506 317 11510 339 11523 365C11544 409 11587 436 11635 436C11668 436 11694 423 11712 396C11734 363 11741 334 11744 267Z" stroke="rgb(0,0,0)" stroke-opacity="1" stroke-width="8" fill="rgb(0,0,0)" fill-opacity="1"></path></g></g><g><g transform="matrix(1,0,0,1,422.90625,24.600006103515625)"><path transform="matrix(0.017,0,0,-0.017,0,0)" d="M385 458C342 475 313 482 284 482C209 482 121 394 103 374C63 327 24 181 24 78C24 19 36 -11 60 -11C82 -11 101 -3 133 19C180 51 259 121 308 209L232 -205C227 -229 217 -249 205 -262L214 -276C245 -268 276 -262 300 -259C304 -205 310 -150 319 -100L405 356C416 417 422 443 432 474L418 480ZM118 59C104 59 96 80 96 113C96 209 139 359 181 409C193 424 222 433 254 433C282 433 303 427 351 406L330 311C301 174 160 59 118 59Z" stroke="rgb(0,0,0)" stroke-opacity="1" stroke-width="8" fill="rgb(0,0,0)" fill-opacity="1"></path></g></g><g><g transform="matrix(1,0,0,1,430.76251220703125,24.600006103515625)"><path transform="matrix(0.017,0,0,-0.017,0,0)" d="" stroke="rgb(0,0,0)" stroke-opacity="1" stroke-width="8" fill="rgb(0,0,0)" fill-opacity="1"></path></g></g></g></g></svg>
</svg>
