<svg xmlns="http://www.w3.org/2000/svg" xmlns:xlink="http://www.w3.org/1999/xlink" x="0" y="0" width="662" height="509" style="
        width:662px;
        height:509px;
        background: transparent;
        fill: none;
">
        
        
        <svg xmlns="http://www.w3.org/2000/svg" class="role-diagram-draw-area"><g class="shapes-region" style="stroke: black; fill: none;"><g class="arrow-line"><path class="connection real" stroke-dasharray="" d="  M55,40 L55,110" style="stroke: rgb(0, 0, 0); stroke-width: 1; fill: none; fill-opacity: 1;"/></g><g class="composite-shape"><path class="real" d=" M107,40 L122,40 L122,110 L107,110 Z" style="stroke-width: 1; stroke: none; stroke-opacity: 1; fill: rgb(155, 155, 155); fill-opacity: 1;"/></g><g class="arrow-line"><path class="connection real" stroke-dasharray="" d="  M176,40 L176,110" style="stroke: rgb(0, 0, 0); stroke-width: 1; fill: none; fill-opacity: 1;"/></g><g class="arrow-line"><path class="connection real" stroke-dasharray="" d="  M115,75 L215,75" style="stroke: rgb(0, 0, 0); stroke-opacity: 1; stroke-width: 1; fill: none; fill-opacity: 1;"/><g stroke="none" fill="rgb(0,0,0)" fill-opacity="1" transform="matrix(-1,1.2246467991473532e-16,-1.2246467991473532e-16,-1,218,75)" style="stroke: none; fill: rgb(0, 0, 0); stroke-width: 1;"><path d=" M5.36,-2.57 L0,0 L5.36,2.57 Z"/></g></g><g class="composite-shape" data-amt="diagram/shapes/plot" transform="matrix(1,0,0,1,26,132)"><g><g><g class="test-xgi"><line x1="29.129860890508144" y1="0" x2="29.129860890508144" y2="168.11052631578946" fill="none" stroke="#c3c3c3" stroke-width="0.5"/><line x1="89.83117810805864" y1="0" x2="89.83117810805864" y2="168.11052631578946" fill="none" stroke="#c3c3c3" stroke-width="0.5"/><line x1="150.53249532560912" y1="0" x2="150.53249532560912" y2="168.11052631578946" fill="none" stroke="#c3c3c3" stroke-width="0.5"/></g><g class="test-ygi"><line x1="0" y1="132.45724353714508" x2="189" y2="132.45724353714508" fill="none" stroke="#c3c3c3" stroke-width="0.5"/><line x1="0" y1="71.75592631959458" x2="189" y2="71.75592631959458" fill="none" stroke="#c3c3c3" stroke-width="0.5"/><line x1="0" y1="11.054609102044083" x2="189" y2="11.054609102044083" fill="none" stroke="#c3c3c3" stroke-width="0.5"/></g></g><g><g class="test-xti" style="font-family: Asana-Math, Asana;"><line x1="0" y1="71.7559263195946" x2="185" y2="71.7559263195946" fill="none" stroke="rgb(50,50,50)" stroke-opacity="1" stroke-width="1"/><line x1="29.129860890508144" y1="67.7559263195946" x2="29.129860890508144" y2="75.7559263195946" fill="none" stroke="rgb(50,50,50)" stroke-opacity="1" stroke-width="1"/><line x1="150.53249532560912" y1="67.7559263195946" x2="150.53249532560912" y2="75.7559263195946" fill="none" stroke="rgb(50,50,50)" stroke-opacity="1" stroke-width="1"/><path d="M180,68.1559263195946 L188,71.7559263195946 L180,75.35592631959459 Z" stroke="none" stroke-width="1" fill="rgb(50,50,50)" fill-opacity="1"/></g><g class="test-yti" style="font-family: Asana-Math, Asana;"><line x1="89.83117810805864" y1="4" x2="89.83117810805864" y2="168.11052631578946" fill="none" stroke="rgb(50,50,50)" stroke-opacity="1" stroke-width="1"/><line x1="85.83117810805864" y1="132.45724353714508" x2="93.83117810805864" y2="132.45724353714508" fill="none" stroke="rgb(50,50,50)" stroke-opacity="1" stroke-width="1"/><line x1="85.83117810805864" y1="11.054609102044083" x2="93.83117810805864" y2="11.054609102044083" fill="none" stroke="rgb(50,50,50)" stroke-opacity="1" stroke-width="1"/><path d="M86.23117810805864,9 L89.83117810805864,1 L93.43117810805863,9 Z" stroke="none" stroke-width="1" fill="rgb(50,50,50)" fill-opacity="1"/></g><g class="test-plot-expression"><defs><clipPath id="cpducm2mi80"><rect x="1" y="1" width="187" height="166.11052631578946"/></clipPath></defs><g clip-path="url(#cpducm2mi80)"><path d=" M4.85,132.46 L4.91,132.46 L4.98,132.46 L5.04,132.46 L5.11,132.46 L5.17,132.46 L5.24,132.46 L5.30,132.46 L5.36,132.46 L5.43,132.46 L5.49,132.46 L5.56,132.46 L5.62,132.46 L5.69,132.46 L5.75,132.46 L5.82,132.46 L5.88,132.46 L5.94,132.46 L6.01,132.46 L6.07,132.46 L6.14,132.46 L6.20,132.46 L6.27,132.46 L6.33,132.46 L6.40,132.46 L6.46,132.46 L6.52,132.46 L6.59,132.46 L6.65,132.46 L6.72,132.46 L6.78,132.46 L6.85,132.46 L6.91,132.46 L6.97,132.46 L7.04,132.46 L7.10,132.46 L7.17,132.46 L7.23,132.46 L7.30,132.46 L7.36,132.46 L7.43,132.46 L7.49,132.46 L7.55,132.46 L7.62,132.46 L7.68,132.46 L7.75,132.46 L7.81,132.46 L7.88,132.46 L7.94,132.46 L8.01,132.46 L8.07,132.46 L8.13,132.46 L8.20,132.46 L8.26,132.46 L8.33,132.46 L8.39,132.46 L8.46,132.46 L8.52,132.46 L8.58,132.46 L8.65,132.46 L8.71,132.46 L8.78,132.46 L8.84,132.46 L8.91,132.46 L8.97,132.46 L9.04,132.46 L9.10,132.46 L9.16,132.46 L9.23,132.46 L9.29,132.46 L9.36,132.46 L9.42,132.46 L9.49,132.46 L9.55,132.46 L9.62,132.46 L9.68,132.46 L9.74,132.46 L9.81,132.46 L9.87,132.46 L9.94,132.46 L10.00,132.46 L10.07,132.46 L10.13,132.46 L10.19,132.46 L10.26,132.46 L10.32,132.46 L10.39,132.46 L10.45,132.46 L10.52,132.46 L10.58,132.46 L10.65,132.46 L10.71,132.46 L10.77,132.46 L10.84,132.46 L10.90,132.46 L10.97,132.46 L11.03,132.46 L11.10,132.46 L11.16,132.46 L11.23,132.46 L11.29,132.46 L11.35,132.46 L11.42,132.46 L11.48,132.46 L11.55,132.46 L11.61,132.46 L11.68,132.46 L11.74,132.46 L11.81,132.46 L11.87,132.46 L11.93,132.46 L12.00,132.46 L12.06,132.46 L12.13,132.46 L12.19,132.46 L12.26,132.46 L12.32,132.46 L12.38,132.46 L12.45,132.46 L12.51,132.46 L12.58,132.46 L12.64,132.46 L12.71,132.46 L12.77,132.46 L12.84,132.46 L12.90,132.46 L12.96,132.46 L13.03,132.46 L13.09,132.46 L13.16,132.46 L13.22,132.46 L13.29,132.46 L13.35,132.46 L13.42,132.46 L13.48,132.46 L13.54,132.46 L13.61,132.46 L13.67,132.46 L13.74,132.46 L13.80,132.46 L13.87,132.46 L13.93,132.46 L13.99,132.46 L14.06,132.46 L14.12,132.46 L14.19,132.46 L14.25,132.46 L14.32,132.46 L14.38,132.46 L14.45,132.46 L14.51,132.46 L14.57,132.46 L14.64,132.46 L14.70,132.46 L14.77,132.46 L14.83,132.46 L14.90,132.46 L14.96,132.46 L15.03,132.46 L15.09,132.46 L15.15,132.46 L15.22,132.46 L15.28,132.46 L15.35,132.46 L15.41,132.46 L15.48,132.46 L15.54,132.46 L15.60,132.46 L15.67,132.46 L15.73,132.46 L15.80,132.46 L15.86,132.46 L15.93,132.46 L15.99,132.46 L16.06,132.46 L16.12,132.46 L16.18,132.46 L16.25,132.46 L16.31,132.46 L16.38,132.46 L16.44,132.46 L16.51,132.46 L16.57,132.46 L16.64,132.46 L16.70,132.46 L16.76,132.46 L16.83,132.46 L16.89,132.46 L16.96,132.46 L17.02,132.46 L17.09,132.46 L17.15,132.46 L17.22,132.46 L17.28,132.46 L17.34,132.46 L17.41,132.46 L17.47,132.46 L17.54,132.46 L17.60,132.46 L17.67,132.46 L17.73,132.46 L17.79,132.46 L17.86,132.46 L17.92,132.46 L17.99,132.46 L18.05,132.46 L18.12,132.46 L18.18,132.46 L18.25,132.46 L18.31,132.46 L18.37,132.46 L18.44,132.46 L18.50,132.46 L18.57,132.46 L18.63,132.46 L18.70,132.46 L18.76,132.46 L18.83,132.46 L18.89,132.46 L18.95,132.46 L19.02,132.46 L19.08,132.46 L19.15,132.46 L19.21,132.46 L19.28,132.46 L19.34,132.46 L19.40,132.46 L19.47,132.46 L19.53,132.46 L19.60,132.46 L19.66,132.46 L19.73,132.46 L19.79,132.46 L19.86,132.46 L19.92,132.46 L19.98,132.46 L20.05,132.46 L20.11,132.46 L20.18,132.46 L20.24,132.46 L20.31,132.46 L20.37,132.46 L20.44,132.46 L20.50,132.46 L20.56,132.46 L20.63,132.46 L20.69,132.46 L20.76,132.46 L20.82,132.46 L20.89,132.46 L20.95,132.46 L21.01,132.46 L21.08,132.46 L21.14,132.46 L21.21,132.46 L21.27,132.46 L21.34,132.46 L21.40,132.46 L21.47,132.46 L21.53,132.46 L21.59,132.46 L21.66,132.46 L21.72,132.46 L21.79,132.46 L21.85,132.46 L21.92,132.46 L21.98,132.46 L22.05,132.46 L22.11,132.46 L22.17,132.46 L22.24,132.46 L22.30,132.46 L22.37,132.46 L22.43,132.46 L22.50,132.46 L22.56,132.46 L22.62,132.46 L22.69,132.46 L22.75,132.46 L22.82,132.46 L22.88,132.46 L22.95,132.46 L23.01,132.46 L23.08,132.46 L23.14,132.46 L23.20,132.46 L23.27,132.46 L23.33,132.46 L23.40,132.46 L23.46,132.46 L23.53,132.46 L23.59,132.46 L23.66,132.46 L23.72,132.46 L23.78,132.46 L23.85,132.46 L23.91,132.46 L23.98,132.46 L24.04,132.46 L24.11,132.46 L24.17,132.46 L24.24,132.46 L24.30,132.46 L24.36,132.46 L24.43,132.46 L24.49,132.46 L24.56,132.46 L24.62,132.46 L24.69,132.46 L24.75,132.46 L24.81,132.46 L24.88,132.46 L24.94,132.46 L25.01,132.46 L25.07,132.46 L25.14,132.46 L25.20,132.46 L25.27,132.46 L25.33,132.46 L25.39,132.46 L25.46,132.46 L25.52,132.46 L25.59,132.46 L25.65,132.46 L25.72,132.46 L25.78,132.46 L25.85,132.46 L25.91,132.46 L25.97,132.46 L26.04,132.46 L26.10,132.46 L26.17,132.46 L26.23,132.46 L26.30,132.46 L26.36,132.46 L26.42,132.46 L26.49,132.46 L26.55,132.46 L26.62,132.46 L26.68,132.46 L26.75,132.46 L26.81,132.46 L26.88,132.46 L26.94,132.46 L27.00,132.46 L27.07,132.46 L27.13,132.46 L27.20,132.46 L27.26,132.46 L27.33,132.46 L27.39,132.46 L27.46,132.46 L27.52,132.46 L27.58,132.46 L27.65,132.46 L27.71,132.46 L27.78,132.46 L27.84,132.46 L27.91,132.46 L27.97,132.46 L28.03,132.46 L28.10,132.46 L28.16,132.46 L28.23,132.46 L28.29,132.46 L28.36,132.46 L28.42,132.46 L28.49,132.46 L28.55,132.46 L28.61,132.46 L28.68,132.46 L28.74,132.46 L28.81,132.46 L28.87,132.46 L28.94,132.46 L29.00,132.46 L29.07,132.46 L29.13,132.46" style="stroke-width: 2; stroke: rgb(0, 0, 0); stroke-opacity: 1;"/><path d=" M150.53,11.05 L150.60,11.05 L150.66,11.05 L150.73,11.05 L150.79,11.05 L150.85,11.05 L150.92,11.05 L150.98,11.05 L151.05,11.05 L151.11,11.05 L151.18,11.05 L151.24,11.05 L151.31,11.05 L151.37,11.05 L151.43,11.05 L151.50,11.05 L151.56,11.05 L151.63,11.05 L151.69,11.05 L151.76,11.05 L151.82,11.05 L151.88,11.05 L151.95,11.05 L152.01,11.05 L152.08,11.05 L152.14,11.05 L152.21,11.05 L152.27,11.05 L152.34,11.05 L152.40,11.05 L152.46,11.05 L152.53,11.05 L152.59,11.05 L152.66,11.05 L152.72,11.05 L152.79,11.05 L152.85,11.05 L152.92,11.05 L152.98,11.05 L153.04,11.05 L153.11,11.05 L153.17,11.05 L153.24,11.05 L153.30,11.05 L153.37,11.05 L153.43,11.05 L153.50,11.05 L153.56,11.05 L153.62,11.05 L153.69,11.05 L153.75,11.05 L153.82,11.05 L153.88,11.05 L153.95,11.05 L154.01,11.05 L154.07,11.05 L154.14,11.05 L154.20,11.05 L154.27,11.05 L154.33,11.05 L154.40,11.05 L154.46,11.05 L154.53,11.05 L154.59,11.05 L154.65,11.05 L154.72,11.05 L154.78,11.05 L154.85,11.05 L154.91,11.05 L154.98,11.05 L155.04,11.05 L155.11,11.05 L155.17,11.05 L155.23,11.05 L155.30,11.05 L155.36,11.05 L155.43,11.05 L155.49,11.05 L155.56,11.05 L155.62,11.05 L155.68,11.05 L155.75,11.05 L155.81,11.05 L155.88,11.05 L155.94,11.05 L156.01,11.05 L156.07,11.05 L156.14,11.05 L156.20,11.05 L156.26,11.05 L156.33,11.05 L156.39,11.05 L156.46,11.05 L156.52,11.05 L156.59,11.05 L156.65,11.05 L156.72,11.05 L156.78,11.05 L156.84,11.05 L156.91,11.05 L156.97,11.05 L157.04,11.05 L157.10,11.05 L157.17,11.05 L157.23,11.05 L157.29,11.05 L157.36,11.05 L157.42,11.05 L157.49,11.05 L157.55,11.05 L157.62,11.05 L157.68,11.05 L157.75,11.05 L157.81,11.05 L157.87,11.05 L157.94,11.05 L158.00,11.05 L158.07,11.05 L158.13,11.05 L158.20,11.05 L158.26,11.05 L158.33,11.05 L158.39,11.05 L158.45,11.05 L158.52,11.05 L158.58,11.05 L158.65,11.05 L158.71,11.05 L158.78,11.05 L158.84,11.05 L158.91,11.05 L158.97,11.05 L159.03,11.05 L159.10,11.05 L159.16,11.05 L159.23,11.05 L159.29,11.05 L159.36,11.05 L159.42,11.05 L159.48,11.05 L159.55,11.05 L159.61,11.05 L159.68,11.05 L159.74,11.05 L159.81,11.05 L159.87,11.05 L159.94,11.05 L160.00,11.05 L160.06,11.05 L160.13,11.05 L160.19,11.05 L160.26,11.05 L160.32,11.05 L160.39,11.05 L160.45,11.05 L160.52,11.05 L160.58,11.05 L160.64,11.05 L160.71,11.05 L160.77,11.05 L160.84,11.05 L160.90,11.05 L160.97,11.05 L161.03,11.05 L161.09,11.05 L161.16,11.05 L161.22,11.05 L161.29,11.05 L161.35,11.05 L161.42,11.05 L161.48,11.05 L161.55,11.05 L161.61,11.05 L161.67,11.05 L161.74,11.05 L161.80,11.05 L161.87,11.05 L161.93,11.05 L162.00,11.05 L162.06,11.05 L162.13,11.05 L162.19,11.05 L162.25,11.05 L162.32,11.05 L162.38,11.05 L162.45,11.05 L162.51,11.05 L162.58,11.05 L162.64,11.05 L162.70,11.05 L162.77,11.05 L162.83,11.05 L162.90,11.05 L162.96,11.05 L163.03,11.05 L163.09,11.05 L163.16,11.05 L163.22,11.05 L163.28,11.05 L163.35,11.05 L163.41,11.05 L163.48,11.05 L163.54,11.05 L163.61,11.05 L163.67,11.05 L163.74,11.05 L163.80,11.05 L163.86,11.05 L163.93,11.05 L163.99,11.05 L164.06,11.05 L164.12,11.05 L164.19,11.05 L164.25,11.05 L164.32,11.05 L164.38,11.05 L164.44,11.05 L164.51,11.05 L164.57,11.05 L164.64,11.05 L164.70,11.05 L164.77,11.05 L164.83,11.05 L164.89,11.05 L164.96,11.05 L165.02,11.05 L165.09,11.05 L165.15,11.05 L165.22,11.05 L165.28,11.05 L165.35,11.05 L165.41,11.05 L165.47,11.05 L165.54,11.05 L165.60,11.05 L165.67,11.05 L165.73,11.05 L165.80,11.05 L165.86,11.05 L165.93,11.05 L165.99,11.05 L166.05,11.05 L166.12,11.05 L166.18,11.05 L166.25,11.05 L166.31,11.05 L166.38,11.05 L166.44,11.05 L166.50,11.05 L166.57,11.05 L166.63,11.05 L166.70,11.05 L166.76,11.05 L166.83,11.05 L166.89,11.05 L166.96,11.05 L167.02,11.05 L167.08,11.05 L167.15,11.05 L167.21,11.05 L167.28,11.05 L167.34,11.05 L167.41,11.05 L167.47,11.05 L167.54,11.05 L167.60,11.05 L167.66,11.05 L167.73,11.05 L167.79,11.05 L167.86,11.05 L167.92,11.05 L167.99,11.05 L168.05,11.05 L168.11,11.05 L168.18,11.05 L168.24,11.05 L168.31,11.05 L168.37,11.05 L168.44,11.05 L168.50,11.05 L168.57,11.05 L168.63,11.05 L168.69,11.05 L168.76,11.05 L168.82,11.05 L168.89,11.05 L168.95,11.05 L169.02,11.05 L169.08,11.05 L169.15,11.05 L169.21,11.05 L169.27,11.05 L169.34,11.05 L169.40,11.05 L169.47,11.05 L169.53,11.05 L169.60,11.05 L169.66,11.05 L169.73,11.05 L169.79,11.05 L169.85,11.05 L169.92,11.05 L169.98,11.05 L170.05,11.05 L170.11,11.05 L170.18,11.05 L170.24,11.05 L170.30,11.05 L170.37,11.05 L170.43,11.05 L170.50,11.05 L170.56,11.05 L170.63,11.05 L170.69,11.05 L170.76,11.05 L170.82,11.05 L170.88,11.05 L170.95,11.05 L171.01,11.05 L171.08,11.05 L171.14,11.05 L171.21,11.05 L171.27,11.05 L171.34,11.05 L171.40,11.05 L171.46,11.05 L171.53,11.05 L171.59,11.05 L171.66,11.05 L171.72,11.05 L171.79,11.05 L171.85,11.05 L171.91,11.05 L171.98,11.05 L172.04,11.05 L172.11,11.05 L172.17,11.05 L172.24,11.05 L172.30,11.05 L172.37,11.05 L172.43,11.05 L172.49,11.05 L172.56,11.05 L172.62,11.05 L172.69,11.05 L172.75,11.05 L172.82,11.05 L172.88,11.05 L172.95,11.05 L173.01,11.05 L173.07,11.05 L173.14,11.05 L173.20,11.05 L173.27,11.05 L173.33,11.05 L173.40,11.05 L173.46,11.05 L173.52,11.05 L173.59,11.05 L173.65,11.05 L173.72,11.05 L173.78,11.05 L173.85,11.05 L173.91,11.05 L173.98,11.05 L174.04,11.05 L174.10,11.05 L174.17,11.05 L174.23,11.05 L174.30,11.05 L174.36,11.05 L174.43,11.05 L174.49,11.05 L174.56,11.05 L174.62,11.05 L174.68,11.05 L174.75,11.05 L174.81,11.05" style="stroke-width: 2; stroke: rgb(0, 0, 0); stroke-opacity: 1;"/><path d=" M83.76,71.76 L83.79,71.76 L83.83,71.76 L83.86,71.76 L83.89,71.76 L83.92,71.76 L83.95,71.76 L83.99,71.76 L84.02,71.76 L84.05,71.76 L84.08,71.76 L84.12,71.76 L84.15,71.76 L84.18,71.76 L84.21,71.76 L84.24,71.76 L84.28,71.76 L84.31,71.76 L84.34,71.76 L84.37,71.76 L84.41,71.76 L84.44,71.76 L84.47,71.76 L84.50,71.76 L84.53,71.76 L84.57,71.76 L84.60,71.76 L84.63,71.76 L84.66,71.76 L84.69,71.76 L84.73,71.76 L84.76,71.76 L84.79,71.76 L84.82,71.76 L84.86,71.76 L84.89,71.76 L84.92,71.76 L84.95,71.76 L84.98,71.76 L85.02,71.76 L85.05,71.76 L85.08,71.76 L85.11,71.76 L85.15,71.76 L85.18,71.76 L85.21,71.76 L85.24,71.76 L85.27,71.76 L85.31,71.76 L85.34,71.76 L85.37,71.76 L85.40,71.76 L85.44,71.76 L85.47,71.76 L85.50,71.76 L85.53,71.76 L85.56,71.76 L85.60,71.76 L85.63,71.76 L85.66,71.76 L85.69,71.76 L85.73,71.76 L85.76,71.76 L85.79,71.76 L85.82,71.76 L85.85,71.76 L85.89,71.76 L85.92,71.76 L85.95,71.76 L85.98,71.76 L86.02,71.76 L86.05,71.76 L86.08,71.76 L86.11,71.76 L86.14,71.76 L86.18,71.76 L86.21,71.76 L86.24,71.76 L86.27,71.76 L86.31,71.76 L86.34,71.76 L86.37,71.76 L86.40,71.76 L86.43,71.76 L86.47,71.76 L86.50,71.76 L86.53,71.76 L86.56,71.76 L86.59,71.76 L86.63,71.76 L86.66,71.76 L86.69,71.76 L86.72,71.76 L86.76,71.76 L86.79,71.76 L86.82,71.76 L86.85,71.76 L86.88,71.76 L86.92,71.76 L86.95,71.76 L86.98,71.76 L87.01,71.76 L87.05,71.76 L87.08,71.76 L87.11,71.76 L87.14,71.76 L87.17,71.76 L87.21,71.76 L87.24,71.76 L87.27,71.76 L87.30,71.76 L87.34,71.76 L87.37,71.76 L87.40,71.76 L87.43,71.76 L87.46,71.76 L87.50,71.76 L87.53,71.76 L87.56,71.76 L87.59,71.76 L87.63,71.76 L87.66,71.76 L87.69,71.76 L87.72,71.76 L87.75,71.76 L87.79,71.76 L87.82,71.76 L87.85,71.76 L87.88,71.76 L87.92,71.76 L87.95,71.76 L87.98,71.76 L88.01,71.76 L88.04,71.76 L88.08,71.76 L88.11,71.76 L88.14,71.76 L88.17,71.76 L88.20,71.76 L88.24,71.76 L88.27,71.76 L88.30,71.76 L88.33,71.76 L88.37,71.76 L88.40,71.76 L88.43,71.76 L88.46,71.76 L88.49,71.76 L88.53,71.76 L88.56,71.76 L88.59,71.76 L88.62,71.76 L88.66,71.76 L88.69,71.76 L88.72,71.76 L88.75,71.76 L88.78,71.76 L88.82,71.76 L88.85,71.76 L88.88,71.76 L88.91,71.76 L88.95,71.76 L88.98,71.76 L89.01,71.76 L89.04,71.76 L89.07,71.76 L89.11,71.76 L89.14,71.76 L89.17,71.76 L89.20,71.76 L89.24,71.76 L89.27,71.76 L89.30,71.76 L89.33,71.76 L89.36,71.76 L89.40,71.76 L89.43,71.76 L89.46,71.76 L89.49,71.76 L89.53,71.76 L89.56,71.76 L89.59,71.76 L89.62,71.76 L89.65,71.76 L89.69,71.76 L89.72,71.76 L89.75,71.76 L89.78,71.76 L89.82,71.76 L89.85,71.76 L89.88,71.76 L89.91,71.76 L89.94,71.76 L89.98,71.76 L90.01,71.76 L90.04,71.76 L90.07,71.76 L90.10,71.76 L90.14,71.76 L90.17,71.76 L90.20,71.76 L90.23,71.76 L90.27,71.76 L90.30,71.76 L90.33,71.76 L90.36,71.76 L90.39,71.76 L90.43,71.76 L90.46,71.76 L90.49,71.76 L90.52,71.76 L90.56,71.76 L90.59,71.76 L90.62,71.76 L90.65,71.76 L90.68,71.76 L90.72,71.76 L90.75,71.76 L90.78,71.76 L90.81,71.76 L90.85,71.76 L90.88,71.76 L90.91,71.76 L90.94,71.76 L90.97,71.76 L91.01,71.76 L91.04,71.76 L91.07,71.76 L91.10,71.76 L91.14,71.76 L91.17,71.76 L91.20,71.76 L91.23,71.76 L91.26,71.76 L91.30,71.76 L91.33,71.76 L91.36,71.76 L91.39,71.76 L91.43,71.76 L91.46,71.76 L91.49,71.76 L91.52,71.76 L91.55,71.76 L91.59,71.76 L91.62,71.76 L91.65,71.76 L91.68,71.76 L91.72,71.76 L91.75,71.76 L91.78,71.76 L91.81,71.76 L91.84,71.76 L91.88,71.76 L91.91,71.76 L91.94,71.76 L91.97,71.76 L92.00,71.76 L92.04,71.76 L92.07,71.76 L92.10,71.76 L92.13,71.76 L92.17,71.76 L92.20,71.76 L92.23,71.76 L92.26,71.76 L92.29,71.76 L92.33,71.76 L92.36,71.76 L92.39,71.76 L92.42,71.76 L92.46,71.76 L92.49,71.76 L92.52,71.76 L92.55,71.76 L92.58,71.76 L92.62,71.76 L92.65,71.76 L92.68,71.76 L92.71,71.76 L92.75,71.76 L92.78,71.76 L92.81,71.76 L92.84,71.76 L92.87,71.76 L92.91,71.76 L92.94,71.76 L92.97,71.76 L93.00,71.76 L93.04,71.76 L93.07,71.76 L93.10,71.76 L93.13,71.76 L93.16,71.76 L93.20,71.76 L93.23,71.76 L93.26,71.76 L93.29,71.76 L93.33,71.76 L93.36,71.76 L93.39,71.76 L93.42,71.76 L93.45,71.76 L93.49,71.76 L93.52,71.76 L93.55,71.76 L93.58,71.76 L93.61,71.76 L93.65,71.76 L93.68,71.76 L93.71,71.76 L93.74,71.76 L93.78,71.76 L93.81,71.76 L93.84,71.76 L93.87,71.76 L93.90,71.76 L93.94,71.76 L93.97,71.76 L94.00,71.76 L94.03,71.76 L94.07,71.76 L94.10,71.76 L94.13,71.76 L94.16,71.76 L94.19,71.76 L94.23,71.76 L94.26,71.76 L94.29,71.76 L94.32,71.76 L94.36,71.76 L94.39,71.76 L94.42,71.76 L94.45,71.76 L94.48,71.76 L94.52,71.76 L94.55,71.76 L94.58,71.76 L94.61,71.76 L94.65,71.76 L94.68,71.76 L94.71,71.76 L94.74,71.76 L94.77,71.76 L94.81,71.76 L94.84,71.76 L94.87,71.76 L94.90,71.76 L94.94,71.76 L94.97,71.76 L95.00,71.76 L95.03,71.76 L95.06,71.76 L95.10,71.76 L95.13,71.76 L95.16,71.76 L95.19,71.76 L95.23,71.76 L95.26,71.76 L95.29,71.76 L95.32,71.76 L95.35,71.76 L95.39,71.76 L95.42,71.76 L95.45,71.76 L95.48,71.76 L95.51,71.76 L95.55,71.76 L95.58,71.76 L95.61,71.76 L95.64,71.76 L95.68,71.76 L95.71,71.76 L95.74,71.76 L95.77,71.76 L95.80,71.76 L95.84,71.76 L95.87,71.76 L95.90,71.76" style="stroke-width: 2; stroke: rgb(0, 0, 0); stroke-opacity: 1;"/><path d=" M29.13,162.81 L29.27,162.81 L29.42,162.81 L29.56,162.81 L29.71,162.81 L29.85,162.81 L30.00,162.81 L30.14,162.81 L30.29,162.81 L30.43,162.81 L30.58,162.81 L30.72,162.81 L30.87,162.81 L31.01,162.81 L31.16,162.81 L31.30,162.81 L31.45,162.81 L31.59,162.81 L31.74,162.81 L31.88,162.81 L32.03,162.81 L32.17,162.81 L32.32,162.81 L32.46,162.81 L32.61,162.81 L32.75,162.81 L32.90,162.81 L33.04,162.81 L33.19,162.81 L33.33,162.81 L33.48,162.81 L33.62,162.81 L33.77,162.81 L33.91,162.81 L34.06,162.81 L34.20,162.81 L34.35,162.81 L34.49,162.81 L34.64,162.81 L34.78,162.81 L34.93,162.81 L35.07,162.81 L35.22,162.81 L35.36,162.81 L35.51,162.81 L35.65,162.81 L35.80,162.81 L35.94,162.81 L36.09,162.81 L36.23,162.81 L36.38,162.81 L36.52,162.81 L36.67,162.81 L36.81,162.81 L36.96,162.81 L37.10,162.81 L37.24,162.81 L37.39,162.81 L37.53,162.81 L37.68,162.81 L37.82,162.81 L37.97,162.81 L38.11,162.81 L38.26,162.81 L38.40,162.81 L38.55,162.81 L38.69,162.81 L38.84,162.81 L38.98,162.81 L39.13,162.81 L39.27,162.81 L39.42,162.81 L39.56,162.81 L39.71,162.81 L39.85,162.81 L40.00,162.81 L40.14,162.81 L40.29,162.81 L40.43,162.81 L40.58,162.81 L40.72,162.81 L40.87,162.81 L41.01,162.81 L41.16,162.81 L41.30,162.81 L41.45,162.81 L41.59,162.81 L41.74,162.81 L41.88,162.81 L42.03,162.81 L42.17,162.81 L42.32,162.81 L42.46,162.81 L42.61,162.81 L42.75,162.81 L42.90,162.81 L43.04,162.81 L43.19,162.81 L43.33,162.81 L43.48,162.81 L43.62,162.81 L43.77,162.81 L43.91,162.81 L44.06,162.81 L44.20,162.81 L44.35,162.81 L44.49,162.81 L44.64,162.81 L44.78,162.81 L44.93,162.81 L45.07,162.81 L45.21,162.81 L45.36,162.81 L45.50,162.81 L45.65,162.81 L45.79,162.81 L45.94,162.81 L46.08,162.81 L46.23,162.81 L46.37,162.81 L46.52,162.81 L46.66,162.81 L46.81,162.81 L46.95,162.81 L47.10,162.81 L47.24,162.81 L47.39,162.81 L47.53,162.81 L47.68,162.81 L47.82,162.81 L47.97,162.81 L48.11,162.81 L48.26,162.81 L48.40,162.81 L48.55,162.81 L48.69,162.81 L48.84,162.81 L48.98,162.81 L49.13,162.81 L49.27,162.81 L49.42,162.81 L49.56,162.81 L49.71,162.81 L49.85,162.81 L50.00,162.81 L50.14,162.81 L50.29,162.81 L50.43,162.81 L50.58,162.81 L50.72,162.81 L50.87,162.81 L51.01,162.81 L51.16,162.81 L51.30,162.81 L51.45,162.81 L51.59,162.81 L51.74,162.81 L51.88,162.81 L52.03,162.81 L52.17,162.81 L52.32,162.81 L52.46,162.81 L52.61,162.81 L52.75,162.81 L52.90,162.81 L53.04,162.81 L53.18,162.81 L53.33,162.81 L53.47,162.81 L53.62,162.81 L53.76,162.81 L53.91,162.81 L54.05,162.81 L54.20,162.81 L54.34,162.81 L54.49,162.81 L54.63,162.81 L54.78,162.81 L54.92,162.81 L55.07,162.81 L55.21,162.81 L55.36,162.81 L55.50,162.81 L55.65,162.81 L55.79,162.81 L55.94,162.81 L56.08,162.81 L56.23,162.81 L56.37,162.81 L56.52,162.81 L56.66,162.81 L56.81,162.81 L56.95,162.81 L57.10,162.81 L57.24,162.81 L57.39,162.81 L57.53,162.81 L57.68,162.81 L57.82,162.81 L57.97,162.81 L58.11,162.81 L58.26,162.81 L58.40,162.81 L58.55,162.81 L58.69,162.81 L58.84,162.81 L58.98,162.81 L59.13,162.81 L59.27,162.81 L59.42,162.81 L59.56,162.81 L59.71,162.81 L59.85,162.81 L60.00,162.81 L60.14,162.81 L60.29,162.81 L60.43,162.81 L60.58,162.81 L60.72,162.81 L60.87,162.81 L61.01,162.81 L61.16,162.81 L61.30,162.81 L61.44,162.81 L61.59,162.81 L61.73,162.81 L61.88,162.81 L62.02,162.81 L62.17,162.81 L62.31,162.81 L62.46,162.81 L62.60,162.81 L62.75,162.81 L62.89,162.81 L63.04,162.81 L63.18,162.81 L63.33,162.81 L63.47,162.81 L63.62,162.81 L63.76,162.81 L63.91,162.81 L64.05,162.81 L64.20,162.81 L64.34,162.81 L64.49,162.81 L64.63,162.81 L64.78,162.81 L64.92,162.81 L65.07,162.81 L65.21,162.81 L65.36,162.81 L65.50,162.81 L65.65,162.81 L65.79,162.81 L65.94,162.81 L66.08,162.81 L66.23,162.81 L66.37,162.81 L66.52,162.81 L66.66,162.81 L66.81,162.81 L66.95,162.81 L67.10,162.81 L67.24,162.81 L67.39,162.81 L67.53,162.81 L67.68,162.81 L67.82,162.81 L67.97,162.81 L68.11,162.81 L68.26,162.81 L68.40,162.81 L68.55,162.81 L68.69,162.81 L68.84,162.81 L68.98,162.81 L69.13,162.81 L69.27,162.81 L69.41,162.81 L69.56,162.81 L69.70,162.81 L69.85,162.81 L69.99,162.81 L70.14,162.81 L70.28,162.81 L70.43,162.81 L70.57,162.81 L70.72,162.81 L70.86,162.81 L71.01,162.81 L71.15,162.81 L71.30,162.81 L71.44,162.81 L71.59,162.81 L71.73,162.81 L71.88,162.81 L72.02,162.81 L72.17,162.81 L72.31,162.81 L72.46,162.81 L72.60,162.81 L72.75,162.81 L72.89,162.81 L73.04,162.81 L73.18,162.81 L73.33,162.81 L73.47,162.81 L73.62,162.81 L73.76,162.81 L73.91,162.81 L74.05,162.81 L74.20,162.81 L74.34,162.81 L74.49,162.81 L74.63,162.81 L74.78,162.81 L74.92,162.81 L75.07,162.81 L75.21,162.81 L75.36,162.81 L75.50,162.81 L75.65,162.81 L75.79,162.81 L75.94,162.81 L76.08,162.81 L76.23,162.81 L76.37,162.81 L76.52,162.81 L76.66,162.81 L76.81,162.81 L76.95,162.81 L77.10,162.81 L77.24,162.81 L77.38,162.81 L77.53,162.81 L77.67,162.81 L77.82,162.81 L77.96,162.81 L78.11,162.81 L78.25,162.81 L78.40,162.81 L78.54,162.81 L78.69,162.81 L78.83,162.81 L78.98,162.81 L79.12,162.81 L79.27,162.81 L79.41,162.81 L79.56,162.81 L79.70,162.81 L79.85,162.81 L79.99,162.81 L80.14,162.81 L80.28,162.81 L80.43,162.81 L80.57,162.81 L80.72,162.81 L80.86,162.81 L81.01,162.81 L81.15,162.81 L81.30,162.81 L81.44,162.81 L81.59,162.81 L81.73,162.81 L81.88,162.81 L82.02,162.81 L82.17,162.81 L82.31,162.81 L82.46,162.81 L82.60,162.81 L82.75,162.81 L82.89,162.81 L83.04,162.81 L83.18,162.81 L83.33,162.81 L83.47,162.81 L83.62,162.81 L83.76,162.81" style="stroke-width: 2; stroke: rgb(0, 0, 0); stroke-opacity: 1;"/><path d=" M95.90,41.41 L96.05,41.41 L96.19,41.41 L96.34,41.41 L96.48,41.41 L96.63,41.41 L96.77,41.41 L96.92,41.41 L97.06,41.41 L97.21,41.41 L97.35,41.41 L97.50,41.41 L97.64,41.41 L97.79,41.41 L97.93,41.41 L98.07,41.41 L98.22,41.41 L98.36,41.41 L98.51,41.41 L98.65,41.41 L98.80,41.41 L98.94,41.41 L99.09,41.41 L99.23,41.41 L99.38,41.41 L99.52,41.41 L99.67,41.41 L99.81,41.41 L99.96,41.41 L100.10,41.41 L100.25,41.41 L100.39,41.41 L100.54,41.41 L100.68,41.41 L100.83,41.41 L100.97,41.41 L101.12,41.41 L101.26,41.41 L101.41,41.41 L101.55,41.41 L101.70,41.41 L101.84,41.41 L101.99,41.41 L102.13,41.41 L102.28,41.41 L102.42,41.41 L102.57,41.41 L102.71,41.41 L102.86,41.41 L103.00,41.41 L103.15,41.41 L103.29,41.41 L103.44,41.41 L103.58,41.41 L103.73,41.41 L103.87,41.41 L104.02,41.41 L104.16,41.41 L104.31,41.41 L104.45,41.41 L104.60,41.41 L104.74,41.41 L104.89,41.41 L105.03,41.41 L105.18,41.41 L105.32,41.41 L105.47,41.41 L105.61,41.41 L105.76,41.41 L105.90,41.41 L106.05,41.41 L106.19,41.41 L106.33,41.41 L106.48,41.41 L106.62,41.41 L106.77,41.41 L106.91,41.41 L107.06,41.41 L107.20,41.41 L107.35,41.41 L107.49,41.41 L107.64,41.41 L107.78,41.41 L107.93,41.41 L108.07,41.41 L108.22,41.41 L108.36,41.41 L108.51,41.41 L108.65,41.41 L108.80,41.41 L108.94,41.41 L109.09,41.41 L109.23,41.41 L109.38,41.41 L109.52,41.41 L109.67,41.41 L109.81,41.41 L109.96,41.41 L110.10,41.41 L110.25,41.41 L110.39,41.41 L110.54,41.41 L110.68,41.41 L110.83,41.41 L110.97,41.41 L111.12,41.41 L111.26,41.41 L111.41,41.41 L111.55,41.41 L111.70,41.41 L111.84,41.41 L111.99,41.41 L112.13,41.41 L112.28,41.41 L112.42,41.41 L112.57,41.41 L112.71,41.41 L112.86,41.41 L113.00,41.41 L113.15,41.41 L113.29,41.41 L113.44,41.41 L113.58,41.41 L113.73,41.41 L113.87,41.41 L114.02,41.41 L114.16,41.41 L114.30,41.41 L114.45,41.41 L114.59,41.41 L114.74,41.41 L114.88,41.41 L115.03,41.41 L115.17,41.41 L115.32,41.41 L115.46,41.41 L115.61,41.41 L115.75,41.41 L115.90,41.41 L116.04,41.41 L116.19,41.41 L116.33,41.41 L116.48,41.41 L116.62,41.41 L116.77,41.41 L116.91,41.41 L117.06,41.41 L117.20,41.41 L117.35,41.41 L117.49,41.41 L117.64,41.41 L117.78,41.41 L117.93,41.41 L118.07,41.41 L118.22,41.41 L118.36,41.41 L118.51,41.41 L118.65,41.41 L118.80,41.41 L118.94,41.41 L119.09,41.41 L119.23,41.41 L119.38,41.41 L119.52,41.41 L119.67,41.41 L119.81,41.41 L119.96,41.41 L120.10,41.41 L120.25,41.41 L120.39,41.41 L120.54,41.41 L120.68,41.41 L120.83,41.41 L120.97,41.41 L121.12,41.41 L121.26,41.41 L121.41,41.41 L121.55,41.41 L121.70,41.41 L121.84,41.41 L121.99,41.41 L122.13,41.41 L122.27,41.41 L122.42,41.41 L122.56,41.41 L122.71,41.41 L122.85,41.41 L123.00,41.41 L123.14,41.41 L123.29,41.41 L123.43,41.41 L123.58,41.41 L123.72,41.41 L123.87,41.41 L124.01,41.41 L124.16,41.41 L124.30,41.41 L124.45,41.41 L124.59,41.41 L124.74,41.41 L124.88,41.41 L125.03,41.41 L125.17,41.41 L125.32,41.41 L125.46,41.41 L125.61,41.41 L125.75,41.41 L125.90,41.41 L126.04,41.41 L126.19,41.41 L126.33,41.41 L126.48,41.41 L126.62,41.41 L126.77,41.41 L126.91,41.41 L127.06,41.41 L127.20,41.41 L127.35,41.41 L127.49,41.41 L127.64,41.41 L127.78,41.41 L127.93,41.41 L128.07,41.41 L128.22,41.41 L128.36,41.41 L128.51,41.41 L128.65,41.41 L128.80,41.41 L128.94,41.41 L129.09,41.41 L129.23,41.41 L129.38,41.41 L129.52,41.41 L129.67,41.41 L129.81,41.41 L129.96,41.41 L130.10,41.41 L130.25,41.41 L130.39,41.41 L130.53,41.41 L130.68,41.41 L130.82,41.41 L130.97,41.41 L131.11,41.41 L131.26,41.41 L131.40,41.41 L131.55,41.41 L131.69,41.41 L131.84,41.41 L131.98,41.41 L132.13,41.41 L132.27,41.41 L132.42,41.41 L132.56,41.41 L132.71,41.41 L132.85,41.41 L133.00,41.41 L133.14,41.41 L133.29,41.41 L133.43,41.41 L133.58,41.41 L133.72,41.41 L133.87,41.41 L134.01,41.41 L134.16,41.41 L134.30,41.41 L134.45,41.41 L134.59,41.41 L134.74,41.41 L134.88,41.41 L135.03,41.41 L135.17,41.41 L135.32,41.41 L135.46,41.41 L135.61,41.41 L135.75,41.41 L135.90,41.41 L136.04,41.41 L136.19,41.41 L136.33,41.41 L136.48,41.41 L136.62,41.41 L136.77,41.41 L136.91,41.41 L137.06,41.41 L137.20,41.41 L137.35,41.41 L137.49,41.41 L137.64,41.41 L137.78,41.41 L137.93,41.41 L138.07,41.41 L138.22,41.41 L138.36,41.41 L138.50,41.41 L138.65,41.41 L138.79,41.41 L138.94,41.41 L139.08,41.41 L139.23,41.41 L139.37,41.41 L139.52,41.41 L139.66,41.41 L139.81,41.41 L139.95,41.41 L140.10,41.41 L140.24,41.41 L140.39,41.41 L140.53,41.41 L140.68,41.41 L140.82,41.41 L140.97,41.41 L141.11,41.41 L141.26,41.41 L141.40,41.41 L141.55,41.41 L141.69,41.41 L141.84,41.41 L141.98,41.41 L142.13,41.41 L142.27,41.41 L142.42,41.41 L142.56,41.41 L142.71,41.41 L142.85,41.41 L143.00,41.41 L143.14,41.41 L143.29,41.41 L143.43,41.41 L143.58,41.41 L143.72,41.41 L143.87,41.41 L144.01,41.41 L144.16,41.41 L144.30,41.41 L144.45,41.41 L144.59,41.41 L144.74,41.41 L144.88,41.41 L145.03,41.41 L145.17,41.41 L145.32,41.41 L145.46,41.41 L145.61,41.41 L145.75,41.41 L145.90,41.41 L146.04,41.41 L146.19,41.41 L146.33,41.41 L146.48,41.41 L146.62,41.41 L146.76,41.41 L146.91,41.41 L147.05,41.41 L147.20,41.41 L147.34,41.41 L147.49,41.41 L147.63,41.41 L147.78,41.41 L147.92,41.41 L148.07,41.41 L148.21,41.41 L148.36,41.41 L148.50,41.41 L148.65,41.41 L148.79,41.41 L148.94,41.41 L149.08,41.41 L149.23,41.41 L149.37,41.41 L149.52,41.41 L149.66,41.41 L149.81,41.41 L149.95,41.41 L150.10,41.41 L150.24,41.41 L150.39,41.41 L150.53,41.41" style="stroke-width: 2; stroke: rgb(0, 0, 0); stroke-opacity: 1;"/></g></g><g class="test-xtl" style="font-family: &quot;Open Sans&quot;, verdana, arial, sans-serif;"><text text-anchor="middle" font-size="11" dominant-baseline="hanging" stroke="none" fill="rgb(50,50,50)" fill-opacity="1" x="25.994860890508143" y="78.7559263195946">-5</text><text text-anchor="middle" font-size="11" dominant-baseline="hanging" stroke="none" fill="rgb(50,50,50)" fill-opacity="1" x="150.53249532560912" y="78.7559263195946">5</text><text text-anchor="middle" font-size="11" dominant-baseline="hanging" stroke="none" fill="rgb(50,50,50)" fill-opacity="1" x="81.83117810805864" y="76.7559263195946">0</text></g><g class="test-ytl" style="font-family: &quot;Open Sans&quot;, verdana, arial, sans-serif;"/><rect class="real" x="1" y="1" width="187" height="166.11052631578946" style="fill: transparent; stroke: none;"/></g></g></g><g class="composite-shape" data-amt="diagram/shapes/plot" transform="matrix(1,0,0,1,28,326)"><g><g><g class="test-xgi"><line x1="26.129860890508137" y1="0" x2="26.129860890508137" y2="168.11052631578946" fill="none" stroke="#c3c3c3" stroke-width="0.5"/><line x1="86.83117810805862" y1="0" x2="86.83117810805862" y2="168.11052631578946" fill="none" stroke="#c3c3c3" stroke-width="0.5"/><line x1="147.53249532560912" y1="0" x2="147.53249532560912" y2="168.11052631578946" fill="none" stroke="#c3c3c3" stroke-width="0.5"/></g><g class="test-ygi"><line x1="0" y1="111.4572435371451" x2="189" y2="111.4572435371451" fill="none" stroke="#c3c3c3" stroke-width="0.5"/><line x1="0" y1="50.75592631959459" x2="189" y2="50.75592631959459" fill="none" stroke="#c3c3c3" stroke-width="0.5"/></g></g><g><g class="test-xti" style="font-family: Asana-Math, Asana;"><line x1="0" y1="50.75592631959461" x2="185" y2="50.75592631959461" fill="none" stroke="rgb(50,50,50)" stroke-opacity="1" stroke-width="1"/><line x1="26.129860890508137" y1="46.75592631959461" x2="26.129860890508137" y2="54.75592631959461" fill="none" stroke="rgb(50,50,50)" stroke-opacity="1" stroke-width="1"/><line x1="147.53249532560912" y1="46.75592631959461" x2="147.53249532560912" y2="54.75592631959461" fill="none" stroke="rgb(50,50,50)" stroke-opacity="1" stroke-width="1"/><path d="M180,47.155926319594606 L188,50.75592631959461 L180,54.35592631959461 Z" stroke="none" stroke-width="1" fill="rgb(50,50,50)" fill-opacity="1"/></g><g class="test-yti" style="font-family: Asana-Math, Asana;"><line x1="86.83117810805864" y1="4" x2="86.83117810805864" y2="168.11052631578946" fill="none" stroke="rgb(50,50,50)" stroke-opacity="1" stroke-width="1"/><line x1="82.83117810805864" y1="111.4572435371451" x2="90.83117810805864" y2="111.4572435371451" fill="none" stroke="rgb(50,50,50)" stroke-opacity="1" stroke-width="1"/><path d="M83.23117810805864,9 L86.83117810805864,1 L90.43117810805863,9 Z" stroke="none" stroke-width="1" fill="rgb(50,50,50)" fill-opacity="1"/></g><g class="test-plot-expression"><defs><clipPath id="cp6wwjeprpd"><rect x="1" y="1" width="187" height="166.11052631578946"/></clipPath></defs><g clip-path="url(#cp6wwjeprpd)"><path d=" M1.85,156.98 L1.91,156.92 L1.98,156.85 L2.04,156.79 L2.11,156.73 L2.17,156.66 L2.24,156.60 L2.30,156.53 L2.36,156.47 L2.43,156.40 L2.49,156.34 L2.56,156.27 L2.62,156.21 L2.69,156.15 L2.75,156.08 L2.82,156.02 L2.88,155.95 L2.94,155.89 L3.01,155.82 L3.07,155.76 L3.14,155.70 L3.20,155.63 L3.27,155.57 L3.33,155.50 L3.40,155.44 L3.46,155.37 L3.52,155.31 L3.59,155.24 L3.65,155.18 L3.72,155.12 L3.78,155.05 L3.85,154.99 L3.91,154.92 L3.97,154.86 L4.04,154.79 L4.10,154.73 L4.17,154.66 L4.23,154.60 L4.30,154.54 L4.36,154.47 L4.43,154.41 L4.49,154.34 L4.55,154.28 L4.62,154.21 L4.68,154.15 L4.75,154.09 L4.81,154.02 L4.88,153.96 L4.94,153.89 L5.01,153.83 L5.07,153.76 L5.13,153.70 L5.20,153.63 L5.26,153.57 L5.33,153.51 L5.39,153.44 L5.46,153.38 L5.52,153.31 L5.58,153.25 L5.65,153.18 L5.71,153.12 L5.78,153.05 L5.84,152.99 L5.91,152.93 L5.97,152.86 L6.04,152.80 L6.10,152.73 L6.16,152.67 L6.23,152.60 L6.29,152.54 L6.36,152.47 L6.42,152.41 L6.49,152.35 L6.55,152.28 L6.62,152.22 L6.68,152.15 L6.74,152.09 L6.81,152.02 L6.87,151.96 L6.94,151.90 L7.00,151.83 L7.07,151.77 L7.13,151.70 L7.19,151.64 L7.26,151.57 L7.32,151.51 L7.39,151.44 L7.45,151.38 L7.52,151.32 L7.58,151.25 L7.65,151.19 L7.71,151.12 L7.77,151.06 L7.84,150.99 L7.90,150.93 L7.97,150.86 L8.03,150.80 L8.10,150.74 L8.16,150.67 L8.23,150.61 L8.29,150.54 L8.35,150.48 L8.42,150.41 L8.48,150.35 L8.55,150.29 L8.61,150.22 L8.68,150.16 L8.74,150.09 L8.81,150.03 L8.87,149.96 L8.93,149.90 L9.00,149.83 L9.06,149.77 L9.13,149.71 L9.19,149.64 L9.26,149.58 L9.32,149.51 L9.38,149.45 L9.45,149.38 L9.51,149.32 L9.58,149.25 L9.64,149.19 L9.71,149.13 L9.77,149.06 L9.84,149.00 L9.90,148.93 L9.96,148.87 L10.03,148.80 L10.09,148.74 L10.16,148.68 L10.22,148.61 L10.29,148.55 L10.35,148.48 L10.42,148.42 L10.48,148.35 L10.54,148.29 L10.61,148.22 L10.67,148.16 L10.74,148.10 L10.80,148.03 L10.87,147.97 L10.93,147.90 L10.99,147.84 L11.06,147.77 L11.12,147.71 L11.19,147.64 L11.25,147.58 L11.32,147.52 L11.38,147.45 L11.45,147.39 L11.51,147.32 L11.57,147.26 L11.64,147.19 L11.70,147.13 L11.77,147.06 L11.83,147.00 L11.90,146.94 L11.96,146.87 L12.03,146.81 L12.09,146.74 L12.15,146.68 L12.22,146.61 L12.28,146.55 L12.35,146.49 L12.41,146.42 L12.48,146.36 L12.54,146.29 L12.60,146.23 L12.67,146.16 L12.73,146.10 L12.80,146.03 L12.86,145.97 L12.93,145.91 L12.99,145.84 L13.06,145.78 L13.12,145.71 L13.18,145.65 L13.25,145.58 L13.31,145.52 L13.38,145.45 L13.44,145.39 L13.51,145.33 L13.57,145.26 L13.64,145.20 L13.70,145.13 L13.76,145.07 L13.83,145.00 L13.89,144.94 L13.96,144.88 L14.02,144.81 L14.09,144.75 L14.15,144.68 L14.22,144.62 L14.28,144.55 L14.34,144.49 L14.41,144.42 L14.47,144.36 L14.54,144.30 L14.60,144.23 L14.67,144.17 L14.73,144.10 L14.79,144.04 L14.86,143.97 L14.92,143.91 L14.99,143.84 L15.05,143.78 L15.12,143.72 L15.18,143.65 L15.25,143.59 L15.31,143.52 L15.37,143.46 L15.44,143.39 L15.50,143.33 L15.57,143.27 L15.63,143.20 L15.70,143.14 L15.76,143.07 L15.83,143.01 L15.89,142.94 L15.95,142.88 L16.02,142.81 L16.08,142.75 L16.15,142.69 L16.21,142.62 L16.28,142.56 L16.34,142.49 L16.40,142.43 L16.47,142.36 L16.53,142.30 L16.60,142.23 L16.66,142.17 L16.73,142.11 L16.79,142.04 L16.86,141.98 L16.92,141.91 L16.98,141.85 L17.05,141.78 L17.11,141.72 L17.18,141.65 L17.24,141.59 L17.31,141.53 L17.37,141.46 L17.44,141.40 L17.50,141.33 L17.56,141.27 L17.63,141.20 L17.69,141.14 L17.76,141.08 L17.82,141.01 L17.89,140.95 L17.95,140.88 L18.01,140.82 L18.08,140.75 L18.14,140.69 L18.21,140.62 L18.27,140.56 L18.34,140.50 L18.40,140.43 L18.47,140.37 L18.53,140.30 L18.59,140.24 L18.66,140.17 L18.72,140.11 L18.79,140.04 L18.85,139.98 L18.92,139.92 L18.98,139.85 L19.05,139.79 L19.11,139.72 L19.17,139.66 L19.24,139.59 L19.30,139.53 L19.37,139.47 L19.43,139.40 L19.50,139.34 L19.56,139.27 L19.62,139.21 L19.69,139.14 L19.75,139.08 L19.82,139.01 L19.88,138.95 L19.95,138.89 L20.01,138.82 L20.08,138.76 L20.14,138.69 L20.20,138.63 L20.27,138.56 L20.33,138.50 L20.40,138.43 L20.46,138.37 L20.53,138.31 L20.59,138.24 L20.66,138.18 L20.72,138.11 L20.78,138.05 L20.85,137.98 L20.91,137.92 L20.98,137.86 L21.04,137.79 L21.11,137.73 L21.17,137.66 L21.24,137.60 L21.30,137.53 L21.36,137.47 L21.43,137.40 L21.49,137.34 L21.56,137.28 L21.62,137.21 L21.69,137.15 L21.75,137.08 L21.81,137.02 L21.88,136.95 L21.94,136.89 L22.01,136.82 L22.07,136.76 L22.14,136.70 L22.20,136.63 L22.27,136.57 L22.33,136.50 L22.39,136.44 L22.46,136.37 L22.52,136.31 L22.59,136.24 L22.65,136.18 L22.72,136.12 L22.78,136.05 L22.85,135.99 L22.91,135.92 L22.97,135.86 L23.04,135.79 L23.10,135.73 L23.17,135.67 L23.23,135.60 L23.30,135.54 L23.36,135.47 L23.42,135.41 L23.49,135.34 L23.55,135.28 L23.62,135.21 L23.68,135.15 L23.75,135.09 L23.81,135.02 L23.88,134.96 L23.94,134.89 L24.00,134.83 L24.07,134.76 L24.13,134.70 L24.20,134.63 L24.26,134.57 L24.33,134.51 L24.39,134.44 L24.46,134.38 L24.52,134.31 L24.58,134.25 L24.65,134.18 L24.71,134.12 L24.78,134.06 L24.84,133.99 L24.91,133.93 L24.97,133.86 L25.03,133.80 L25.10,133.73 L25.16,133.67 L25.23,133.60 L25.29,133.54 L25.36,133.48 L25.42,133.41 L25.49,133.35 L25.55,133.28 L25.61,133.22 L25.68,133.15 L25.74,133.09 L25.81,133.02 L25.87,132.96 L25.94,132.90 L26.00,132.83 L26.07,132.77 L26.13,132.70" style="stroke-width: 2; stroke: rgb(0, 0, 0); stroke-opacity: 1;"/><path d=" M147.53,78.07 L147.60,78.14 L147.66,78.20 L147.73,78.26 L147.79,78.33 L147.85,78.39 L147.92,78.46 L147.98,78.52 L148.05,78.59 L148.11,78.65 L148.18,78.72 L148.24,78.78 L148.31,78.84 L148.37,78.91 L148.43,78.97 L148.50,79.04 L148.56,79.10 L148.63,79.17 L148.69,79.23 L148.76,79.30 L148.82,79.36 L148.88,79.42 L148.95,79.49 L149.01,79.55 L149.08,79.62 L149.14,79.68 L149.21,79.75 L149.27,79.81 L149.34,79.87 L149.40,79.94 L149.46,80.00 L149.53,80.07 L149.59,80.13 L149.66,80.20 L149.72,80.26 L149.79,80.33 L149.85,80.39 L149.92,80.45 L149.98,80.52 L150.04,80.58 L150.11,80.65 L150.17,80.71 L150.24,80.78 L150.30,80.84 L150.37,80.91 L150.43,80.97 L150.50,81.03 L150.56,81.10 L150.62,81.16 L150.69,81.23 L150.75,81.29 L150.82,81.36 L150.88,81.42 L150.95,81.48 L151.01,81.55 L151.07,81.61 L151.14,81.68 L151.20,81.74 L151.27,81.81 L151.33,81.87 L151.40,81.94 L151.46,82.00 L151.53,82.06 L151.59,82.13 L151.65,82.19 L151.72,82.26 L151.78,82.32 L151.85,82.39 L151.91,82.45 L151.98,82.52 L152.04,82.58 L152.11,82.64 L152.17,82.71 L152.23,82.77 L152.30,82.84 L152.36,82.90 L152.43,82.97 L152.49,83.03 L152.56,83.10 L152.62,83.16 L152.68,83.22 L152.75,83.29 L152.81,83.35 L152.88,83.42 L152.94,83.48 L153.01,83.55 L153.07,83.61 L153.14,83.67 L153.20,83.74 L153.26,83.80 L153.33,83.87 L153.39,83.93 L153.46,84.00 L153.52,84.06 L153.59,84.13 L153.65,84.19 L153.72,84.25 L153.78,84.32 L153.84,84.38 L153.91,84.45 L153.97,84.51 L154.04,84.58 L154.10,84.64 L154.17,84.71 L154.23,84.77 L154.29,84.83 L154.36,84.90 L154.42,84.96 L154.49,85.03 L154.55,85.09 L154.62,85.16 L154.68,85.22 L154.75,85.28 L154.81,85.35 L154.87,85.41 L154.94,85.48 L155.00,85.54 L155.07,85.61 L155.13,85.67 L155.20,85.74 L155.26,85.80 L155.33,85.86 L155.39,85.93 L155.45,85.99 L155.52,86.06 L155.58,86.12 L155.65,86.19 L155.71,86.25 L155.78,86.32 L155.84,86.38 L155.91,86.44 L155.97,86.51 L156.03,86.57 L156.10,86.64 L156.16,86.70 L156.23,86.77 L156.29,86.83 L156.36,86.89 L156.42,86.96 L156.48,87.02 L156.55,87.09 L156.61,87.15 L156.68,87.22 L156.74,87.28 L156.81,87.35 L156.87,87.41 L156.94,87.47 L157.00,87.54 L157.06,87.60 L157.13,87.67 L157.19,87.73 L157.26,87.80 L157.32,87.86 L157.39,87.93 L157.45,87.99 L157.52,88.05 L157.58,88.12 L157.64,88.18 L157.71,88.25 L157.77,88.31 L157.84,88.38 L157.90,88.44 L157.97,88.51 L158.03,88.57 L158.09,88.63 L158.16,88.70 L158.22,88.76 L158.29,88.83 L158.35,88.89 L158.42,88.96 L158.48,89.02 L158.55,89.08 L158.61,89.15 L158.67,89.21 L158.74,89.28 L158.80,89.34 L158.87,89.41 L158.93,89.47 L159.00,89.54 L159.06,89.60 L159.13,89.66 L159.19,89.73 L159.25,89.79 L159.32,89.86 L159.38,89.92 L159.45,89.99 L159.51,90.05 L159.58,90.12 L159.64,90.18 L159.70,90.24 L159.77,90.31 L159.83,90.37 L159.90,90.44 L159.96,90.50 L160.03,90.57 L160.09,90.63 L160.16,90.69 L160.22,90.76 L160.28,90.82 L160.35,90.89 L160.41,90.95 L160.48,91.02 L160.54,91.08 L160.61,91.15 L160.67,91.21 L160.74,91.27 L160.80,91.34 L160.86,91.40 L160.93,91.47 L160.99,91.53 L161.06,91.60 L161.12,91.66 L161.19,91.73 L161.25,91.79 L161.32,91.85 L161.38,91.92 L161.44,91.98 L161.51,92.05 L161.57,92.11 L161.64,92.18 L161.70,92.24 L161.77,92.30 L161.83,92.37 L161.89,92.43 L161.96,92.50 L162.02,92.56 L162.09,92.63 L162.15,92.69 L162.22,92.76 L162.28,92.82 L162.35,92.88 L162.41,92.95 L162.47,93.01 L162.54,93.08 L162.60,93.14 L162.67,93.21 L162.73,93.27 L162.80,93.34 L162.86,93.40 L162.93,93.46 L162.99,93.53 L163.05,93.59 L163.12,93.66 L163.18,93.72 L163.25,93.79 L163.31,93.85 L163.38,93.92 L163.44,93.98 L163.50,94.04 L163.57,94.11 L163.63,94.17 L163.70,94.24 L163.76,94.30 L163.83,94.37 L163.89,94.43 L163.96,94.49 L164.02,94.56 L164.08,94.62 L164.15,94.69 L164.21,94.75 L164.28,94.82 L164.34,94.88 L164.41,94.95 L164.47,95.01 L164.54,95.07 L164.60,95.14 L164.66,95.20 L164.73,95.27 L164.79,95.33 L164.86,95.40 L164.92,95.46 L164.99,95.53 L165.05,95.59 L165.11,95.65 L165.18,95.72 L165.24,95.78 L165.31,95.85 L165.37,95.91 L165.44,95.98 L165.50,96.04 L165.57,96.10 L165.63,96.17 L165.69,96.23 L165.76,96.30 L165.82,96.36 L165.89,96.43 L165.95,96.49 L166.02,96.56 L166.08,96.62 L166.15,96.68 L166.21,96.75 L166.27,96.81 L166.34,96.88 L166.40,96.94 L166.47,97.01 L166.53,97.07 L166.60,97.14 L166.66,97.20 L166.73,97.26 L166.79,97.33 L166.85,97.39 L166.92,97.46 L166.98,97.52 L167.05,97.59 L167.11,97.65 L167.18,97.71 L167.24,97.78 L167.30,97.84 L167.37,97.91 L167.43,97.97 L167.50,98.04 L167.56,98.10 L167.63,98.17 L167.69,98.23 L167.76,98.29 L167.82,98.36 L167.88,98.42 L167.95,98.49 L168.01,98.55 L168.08,98.62 L168.14,98.68 L168.21,98.75 L168.27,98.81 L168.34,98.87 L168.40,98.94 L168.46,99.00 L168.53,99.07 L168.59,99.13 L168.66,99.20 L168.72,99.26 L168.79,99.33 L168.85,99.39 L168.91,99.45 L168.98,99.52 L169.04,99.58 L169.11,99.65 L169.17,99.71 L169.24,99.78 L169.30,99.84 L169.37,99.90 L169.43,99.97 L169.49,100.03 L169.56,100.10 L169.62,100.16 L169.69,100.23 L169.75,100.29 L169.82,100.36 L169.88,100.42 L169.95,100.48 L170.01,100.55 L170.07,100.61 L170.14,100.68 L170.20,100.74 L170.27,100.81 L170.33,100.87 L170.40,100.94 L170.46,101.00 L170.52,101.06 L170.59,101.13 L170.65,101.19 L170.72,101.26 L170.78,101.32 L170.85,101.39 L170.91,101.45 L170.98,101.51 L171.04,101.58 L171.10,101.64 L171.17,101.71 L171.23,101.77 L171.30,101.84 L171.36,101.90 L171.43,101.97 L171.49,102.03 L171.56,102.09 L171.62,102.16 L171.68,102.22 L171.75,102.29 L171.81,102.35" style="stroke-width: 2; stroke: rgb(0, 0, 0); stroke-opacity: 1;"/><path d=" M80.76,50.76 L80.79,50.76 L80.83,50.76 L80.86,50.76 L80.89,50.76 L80.92,50.76 L80.95,50.76 L80.99,50.76 L81.02,50.76 L81.05,50.76 L81.08,50.76 L81.12,50.76 L81.15,50.76 L81.18,50.76 L81.21,50.76 L81.24,50.76 L81.28,50.76 L81.31,50.76 L81.34,50.76 L81.37,50.76 L81.41,50.76 L81.44,50.76 L81.47,50.76 L81.50,50.76 L81.53,50.76 L81.57,50.76 L81.60,50.76 L81.63,50.76 L81.66,50.76 L81.69,50.76 L81.73,50.76 L81.76,50.76 L81.79,50.76 L81.82,50.76 L81.86,50.76 L81.89,50.76 L81.92,50.76 L81.95,50.76 L81.98,50.76 L82.02,50.76 L82.05,50.76 L82.08,50.76 L82.11,50.76 L82.15,50.76 L82.18,50.76 L82.21,50.76 L82.24,50.76 L82.27,50.76 L82.31,50.76 L82.34,50.76 L82.37,50.76 L82.40,50.76 L82.44,50.76 L82.47,50.76 L82.50,50.76 L82.53,50.76 L82.56,50.76 L82.60,50.76 L82.63,50.76 L82.66,50.76 L82.69,50.76 L82.73,50.76 L82.76,50.76 L82.79,50.76 L82.82,50.76 L82.85,50.76 L82.89,50.76 L82.92,50.76 L82.95,50.76 L82.98,50.76 L83.02,50.76 L83.05,50.76 L83.08,50.76 L83.11,50.76 L83.14,50.76 L83.18,50.76 L83.21,50.76 L83.24,50.76 L83.27,50.76 L83.31,50.76 L83.34,50.76 L83.37,50.76 L83.40,50.76 L83.43,50.76 L83.47,50.76 L83.50,50.76 L83.53,50.76 L83.56,50.76 L83.59,50.76 L83.63,50.76 L83.66,50.76 L83.69,50.76 L83.72,50.76 L83.76,50.76 L83.79,50.76 L83.82,50.76 L83.85,50.76 L83.88,50.76 L83.92,50.76 L83.95,50.76 L83.98,50.76 L84.01,50.76 L84.05,50.76 L84.08,50.76 L84.11,50.76 L84.14,50.76 L84.17,50.76 L84.21,50.76 L84.24,50.76 L84.27,50.76 L84.30,50.76 L84.34,50.76 L84.37,50.76 L84.40,50.76 L84.43,50.76 L84.46,50.76 L84.50,50.76 L84.53,50.76 L84.56,50.76 L84.59,50.76 L84.63,50.76 L84.66,50.76 L84.69,50.76 L84.72,50.76 L84.75,50.76 L84.79,50.76 L84.82,50.76 L84.85,50.76 L84.88,50.76 L84.92,50.76 L84.95,50.76 L84.98,50.76 L85.01,50.76 L85.04,50.76 L85.08,50.76 L85.11,50.76 L85.14,50.76 L85.17,50.76 L85.20,50.76 L85.24,50.76 L85.27,50.76 L85.30,50.76 L85.33,50.76 L85.37,50.76 L85.40,50.76 L85.43,50.76 L85.46,50.76 L85.49,50.76 L85.53,50.76 L85.56,50.76 L85.59,50.76 L85.62,50.76 L85.66,50.76 L85.69,50.76 L85.72,50.76 L85.75,50.76 L85.78,50.76 L85.82,50.76 L85.85,50.76 L85.88,50.76 L85.91,50.76 L85.95,50.76 L85.98,50.76 L86.01,50.76 L86.04,50.76 L86.07,50.76 L86.11,50.76 L86.14,50.76 L86.17,50.76 L86.20,50.76 L86.24,50.76 L86.27,50.76 L86.30,50.76 L86.33,50.76 L86.36,50.76 L86.40,50.76 L86.43,50.76 L86.46,50.76 L86.49,50.76 L86.53,50.76 L86.56,50.76 L86.59,50.76 L86.62,50.76 L86.65,50.76 L86.69,50.76 L86.72,50.76 L86.75,50.76 L86.78,50.76 L86.82,50.76 L86.85,50.76 L86.88,50.76 L86.91,50.76 L86.94,50.76 L86.98,50.76 L87.01,50.76 L87.04,50.76 L87.07,50.76 L87.10,50.76 L87.14,50.76 L87.17,50.76 L87.20,50.76 L87.23,50.76 L87.27,50.76 L87.30,50.76 L87.33,50.76 L87.36,50.76 L87.39,50.76 L87.43,50.76 L87.46,50.76 L87.49,50.76 L87.52,50.76 L87.56,50.76 L87.59,50.76 L87.62,50.76 L87.65,50.76 L87.68,50.76 L87.72,50.76 L87.75,50.76 L87.78,50.76 L87.81,50.76 L87.85,50.76 L87.88,50.76 L87.91,50.76 L87.94,50.76 L87.97,50.76 L88.01,50.76 L88.04,50.76 L88.07,50.76 L88.10,50.76 L88.14,50.76 L88.17,50.76 L88.20,50.76 L88.23,50.76 L88.26,50.76 L88.30,50.76 L88.33,50.76 L88.36,50.76 L88.39,50.76 L88.43,50.76 L88.46,50.76 L88.49,50.76 L88.52,50.76 L88.55,50.76 L88.59,50.76 L88.62,50.76 L88.65,50.76 L88.68,50.76 L88.72,50.76 L88.75,50.76 L88.78,50.76 L88.81,50.76 L88.84,50.76 L88.88,50.76 L88.91,50.76 L88.94,50.76 L88.97,50.76 L89.00,50.76 L89.04,50.76 L89.07,50.76 L89.10,50.76 L89.13,50.76 L89.17,50.76 L89.20,50.76 L89.23,50.76 L89.26,50.76 L89.29,50.76 L89.33,50.76 L89.36,50.76 L89.39,50.76 L89.42,50.76 L89.46,50.76 L89.49,50.76 L89.52,50.76 L89.55,50.76 L89.58,50.76 L89.62,50.76 L89.65,50.76 L89.68,50.76 L89.71,50.76 L89.75,50.76 L89.78,50.76 L89.81,50.76 L89.84,50.76 L89.87,50.76 L89.91,50.76 L89.94,50.76 L89.97,50.76 L90.00,50.76 L90.04,50.76 L90.07,50.76 L90.10,50.76 L90.13,50.76 L90.16,50.76 L90.20,50.76 L90.23,50.76 L90.26,50.76 L90.29,50.76 L90.33,50.76 L90.36,50.76 L90.39,50.76 L90.42,50.76 L90.45,50.76 L90.49,50.76 L90.52,50.76 L90.55,50.76 L90.58,50.76 L90.61,50.76 L90.65,50.76 L90.68,50.76 L90.71,50.76 L90.74,50.76 L90.78,50.76 L90.81,50.76 L90.84,50.76 L90.87,50.76 L90.90,50.76 L90.94,50.76 L90.97,50.76 L91.00,50.76 L91.03,50.76 L91.07,50.76 L91.10,50.76 L91.13,50.76 L91.16,50.76 L91.19,50.76 L91.23,50.76 L91.26,50.76 L91.29,50.76 L91.32,50.76 L91.36,50.76 L91.39,50.76 L91.42,50.76 L91.45,50.76 L91.48,50.76 L91.52,50.76 L91.55,50.76 L91.58,50.76 L91.61,50.76 L91.65,50.76 L91.68,50.76 L91.71,50.76 L91.74,50.76 L91.77,50.76 L91.81,50.76 L91.84,50.76 L91.87,50.76 L91.90,50.76 L91.94,50.76 L91.97,50.76 L92.00,50.76 L92.03,50.76 L92.06,50.76 L92.10,50.76 L92.13,50.76 L92.16,50.76 L92.19,50.76 L92.23,50.76 L92.26,50.76 L92.29,50.76 L92.32,50.76 L92.35,50.76 L92.39,50.76 L92.42,50.76 L92.45,50.76 L92.48,50.76 L92.51,50.76 L92.55,50.76 L92.58,50.76 L92.61,50.76 L92.64,50.76 L92.68,50.76 L92.71,50.76 L92.74,50.76 L92.77,50.76 L92.80,50.76 L92.84,50.76 L92.87,50.76 L92.90,50.76" style="stroke-width: 2; stroke: rgb(0, 0, 0); stroke-opacity: 1;"/><path d=" M26.13,132.70 L26.27,132.49 L26.42,132.27 L26.56,132.05 L26.71,131.83 L26.85,131.62 L27.00,131.40 L27.14,131.18 L27.29,130.96 L27.43,130.75 L27.58,130.53 L27.72,130.31 L27.87,130.09 L28.01,129.88 L28.16,129.66 L28.30,129.44 L28.45,129.22 L28.59,129.01 L28.74,128.79 L28.88,128.57 L29.03,128.36 L29.17,128.14 L29.32,127.92 L29.46,127.70 L29.61,127.49 L29.75,127.27 L29.90,127.05 L30.04,126.83 L30.19,126.62 L30.33,126.40 L30.48,126.18 L30.62,125.96 L30.77,125.75 L30.91,125.53 L31.06,125.31 L31.20,125.09 L31.35,124.88 L31.49,124.66 L31.64,124.44 L31.78,124.23 L31.93,124.01 L32.07,123.79 L32.22,123.57 L32.36,123.36 L32.51,123.14 L32.65,122.92 L32.80,122.70 L32.94,122.49 L33.09,122.27 L33.23,122.05 L33.38,121.83 L33.52,121.62 L33.67,121.40 L33.81,121.18 L33.96,120.96 L34.10,120.75 L34.24,120.53 L34.39,120.31 L34.53,120.10 L34.68,119.88 L34.82,119.66 L34.97,119.44 L35.11,119.23 L35.26,119.01 L35.40,118.79 L35.55,118.57 L35.69,118.36 L35.84,118.14 L35.98,117.92 L36.13,117.70 L36.27,117.49 L36.42,117.27 L36.56,117.05 L36.71,116.84 L36.85,116.62 L37.00,116.40 L37.14,116.18 L37.29,115.97 L37.43,115.75 L37.58,115.53 L37.72,115.31 L37.87,115.10 L38.01,114.88 L38.16,114.66 L38.30,114.44 L38.45,114.23 L38.59,114.01 L38.74,113.79 L38.88,113.57 L39.03,113.36 L39.17,113.14 L39.32,112.92 L39.46,112.71 L39.61,112.49 L39.75,112.27 L39.90,112.05 L40.04,111.84 L40.19,111.62 L40.33,111.40 L40.48,111.18 L40.62,110.97 L40.77,110.75 L40.91,110.53 L41.06,110.31 L41.20,110.10 L41.35,109.88 L41.49,109.66 L41.64,109.44 L41.78,109.23 L41.93,109.01 L42.07,108.79 L42.21,108.58 L42.36,108.36 L42.50,108.14 L42.65,107.92 L42.79,107.71 L42.94,107.49 L43.08,107.27 L43.23,107.05 L43.37,106.84 L43.52,106.62 L43.66,106.40 L43.81,106.18 L43.95,105.97 L44.10,105.75 L44.24,105.53 L44.39,105.31 L44.53,105.10 L44.68,104.88 L44.82,104.66 L44.97,104.45 L45.11,104.23 L45.26,104.01 L45.40,103.79 L45.55,103.58 L45.69,103.36 L45.84,103.14 L45.98,102.92 L46.13,102.71 L46.27,102.49 L46.42,102.27 L46.56,102.05 L46.71,101.84 L46.85,101.62 L47.00,101.40 L47.14,101.18 L47.29,100.97 L47.43,100.75 L47.58,100.53 L47.72,100.32 L47.87,100.10 L48.01,99.88 L48.16,99.66 L48.30,99.45 L48.45,99.23 L48.59,99.01 L48.74,98.79 L48.88,98.58 L49.03,98.36 L49.17,98.14 L49.32,97.92 L49.46,97.71 L49.61,97.49 L49.75,97.27 L49.90,97.05 L50.04,96.84 L50.18,96.62 L50.33,96.40 L50.47,96.19 L50.62,95.97 L50.76,95.75 L50.91,95.53 L51.05,95.32 L51.20,95.10 L51.34,94.88 L51.49,94.66 L51.63,94.45 L51.78,94.23 L51.92,94.01 L52.07,93.79 L52.21,93.58 L52.36,93.36 L52.50,93.14 L52.65,92.92 L52.79,92.71 L52.94,92.49 L53.08,92.27 L53.23,92.06 L53.37,91.84 L53.52,91.62 L53.66,91.40 L53.81,91.19 L53.95,90.97 L54.10,90.75 L54.24,90.53 L54.39,90.32 L54.53,90.10 L54.68,89.88 L54.82,89.66 L54.97,89.45 L55.11,89.23 L55.26,89.01 L55.40,88.79 L55.55,88.58 L55.69,88.36 L55.84,88.14 L55.98,87.93 L56.13,87.71 L56.27,87.49 L56.42,87.27 L56.56,87.06 L56.71,86.84 L56.85,86.62 L57.00,86.40 L57.14,86.19 L57.29,85.97 L57.43,85.75 L57.58,85.53 L57.72,85.32 L57.87,85.10 L58.01,84.88 L58.16,84.66 L58.30,84.45 L58.44,84.23 L58.59,84.01 L58.73,83.80 L58.88,83.58 L59.02,83.36 L59.17,83.14 L59.31,82.93 L59.46,82.71 L59.60,82.49 L59.75,82.27 L59.89,82.06 L60.04,81.84 L60.18,81.62 L60.33,81.40 L60.47,81.19 L60.62,80.97 L60.76,80.75 L60.91,80.53 L61.05,80.32 L61.20,80.10 L61.34,79.88 L61.49,79.67 L61.63,79.45 L61.78,79.23 L61.92,79.01 L62.07,78.80 L62.21,78.58 L62.36,78.36 L62.50,78.14 L62.65,77.93 L62.79,77.71 L62.94,77.49 L63.08,77.27 L63.23,77.06 L63.37,76.84 L63.52,76.62 L63.66,76.41 L63.81,76.19 L63.95,75.97 L64.10,75.75 L64.24,75.54 L64.39,75.32 L64.53,75.10 L64.68,74.88 L64.82,74.67 L64.97,74.45 L65.11,74.23 L65.26,74.01 L65.40,73.80 L65.55,73.58 L65.69,73.36 L65.84,73.14 L65.98,72.93 L66.13,72.71 L66.27,72.49 L66.41,72.28 L66.56,72.06 L66.70,71.84 L66.85,71.62 L66.99,71.41 L67.14,71.19 L67.28,70.97 L67.43,70.75 L67.57,70.54 L67.72,70.32 L67.86,70.10 L68.01,69.88 L68.15,69.67 L68.30,69.45 L68.44,69.23 L68.59,69.01 L68.73,68.80 L68.88,68.58 L69.02,68.36 L69.17,68.15 L69.31,67.93 L69.46,67.71 L69.60,67.49 L69.75,67.28 L69.89,67.06 L70.04,66.84 L70.18,66.62 L70.33,66.41 L70.47,66.19 L70.62,65.97 L70.76,65.75 L70.91,65.54 L71.05,65.32 L71.20,65.10 L71.34,64.88 L71.49,64.67 L71.63,64.45 L71.78,64.23 L71.92,64.02 L72.07,63.80 L72.21,63.58 L72.36,63.36 L72.50,63.15 L72.65,62.93 L72.79,62.71 L72.94,62.49 L73.08,62.28 L73.23,62.06 L73.37,61.84 L73.52,61.62 L73.66,61.41 L73.81,61.19 L73.95,60.97 L74.10,60.75 L74.24,60.54 L74.38,60.32 L74.53,60.10 L74.67,59.89 L74.82,59.67 L74.96,59.45 L75.11,59.23 L75.25,59.02 L75.40,58.80 L75.54,58.58 L75.69,58.36 L75.83,58.15 L75.98,57.93 L76.12,57.71 L76.27,57.49 L76.41,57.28 L76.56,57.06 L76.70,56.84 L76.85,56.62 L76.99,56.41 L77.14,56.19 L77.28,55.97 L77.43,55.76 L77.57,55.54 L77.72,55.32 L77.86,55.10 L78.01,54.89 L78.15,54.67 L78.30,54.45 L78.44,54.23 L78.59,54.02 L78.73,53.80 L78.88,53.58 L79.02,53.36 L79.17,53.15 L79.31,52.93 L79.46,52.71 L79.60,52.49 L79.75,52.28 L79.89,52.06 L80.04,51.84 L80.18,51.63 L80.33,51.41 L80.47,51.19 L80.62,50.97 L80.76,50.76" style="stroke-width: 2; stroke: rgb(0, 0, 0); stroke-opacity: 1;"/><path d=" M92.90,50.76 L93.05,50.83 L93.19,50.90 L93.34,50.97 L93.48,51.05 L93.63,51.12 L93.77,51.19 L93.92,51.26 L94.06,51.34 L94.21,51.41 L94.35,51.48 L94.50,51.55 L94.64,51.63 L94.79,51.70 L94.93,51.77 L95.07,51.84 L95.22,51.92 L95.36,51.99 L95.51,52.06 L95.65,52.13 L95.80,52.21 L95.94,52.28 L96.09,52.35 L96.23,52.42 L96.38,52.49 L96.52,52.57 L96.67,52.64 L96.81,52.71 L96.96,52.78 L97.10,52.86 L97.25,52.93 L97.39,53.00 L97.54,53.07 L97.68,53.15 L97.83,53.22 L97.97,53.29 L98.12,53.36 L98.26,53.44 L98.41,53.51 L98.55,53.58 L98.70,53.65 L98.84,53.73 L98.99,53.80 L99.13,53.87 L99.28,53.94 L99.42,54.02 L99.57,54.09 L99.71,54.16 L99.86,54.23 L100.00,54.31 L100.15,54.38 L100.29,54.45 L100.44,54.52 L100.58,54.60 L100.73,54.67 L100.87,54.74 L101.02,54.81 L101.16,54.89 L101.31,54.96 L101.45,55.03 L101.60,55.10 L101.74,55.18 L101.89,55.25 L102.03,55.32 L102.18,55.39 L102.32,55.47 L102.47,55.54 L102.61,55.61 L102.76,55.68 L102.90,55.76 L103.05,55.83 L103.19,55.90 L103.33,55.97 L103.48,56.05 L103.62,56.12 L103.77,56.19 L103.91,56.26 L104.06,56.33 L104.20,56.41 L104.35,56.48 L104.49,56.55 L104.64,56.62 L104.78,56.70 L104.93,56.77 L105.07,56.84 L105.22,56.91 L105.36,56.99 L105.51,57.06 L105.65,57.13 L105.80,57.20 L105.94,57.28 L106.09,57.35 L106.23,57.42 L106.38,57.49 L106.52,57.57 L106.67,57.64 L106.81,57.71 L106.96,57.78 L107.10,57.86 L107.25,57.93 L107.39,58.00 L107.54,58.07 L107.68,58.15 L107.83,58.22 L107.97,58.29 L108.12,58.36 L108.26,58.44 L108.41,58.51 L108.55,58.58 L108.70,58.65 L108.84,58.73 L108.99,58.80 L109.13,58.87 L109.28,58.94 L109.42,59.02 L109.57,59.09 L109.71,59.16 L109.86,59.23 L110.00,59.31 L110.15,59.38 L110.29,59.45 L110.44,59.52 L110.58,59.60 L110.73,59.67 L110.87,59.74 L111.02,59.81 L111.16,59.89 L111.30,59.96 L111.45,60.03 L111.59,60.10 L111.74,60.18 L111.88,60.25 L112.03,60.32 L112.17,60.39 L112.32,60.46 L112.46,60.54 L112.61,60.61 L112.75,60.68 L112.90,60.75 L113.04,60.83 L113.19,60.90 L113.33,60.97 L113.48,61.04 L113.62,61.12 L113.77,61.19 L113.91,61.26 L114.06,61.33 L114.20,61.41 L114.35,61.48 L114.49,61.55 L114.64,61.62 L114.78,61.70 L114.93,61.77 L115.07,61.84 L115.22,61.91 L115.36,61.99 L115.51,62.06 L115.65,62.13 L115.80,62.20 L115.94,62.28 L116.09,62.35 L116.23,62.42 L116.38,62.49 L116.52,62.57 L116.67,62.64 L116.81,62.71 L116.96,62.78 L117.10,62.86 L117.25,62.93 L117.39,63.00 L117.54,63.07 L117.68,63.15 L117.83,63.22 L117.97,63.29 L118.12,63.36 L118.26,63.44 L118.41,63.51 L118.55,63.58 L118.70,63.65 L118.84,63.73 L118.99,63.80 L119.13,63.87 L119.27,63.94 L119.42,64.02 L119.56,64.09 L119.71,64.16 L119.85,64.23 L120.00,64.31 L120.14,64.38 L120.29,64.45 L120.43,64.52 L120.58,64.59 L120.72,64.67 L120.87,64.74 L121.01,64.81 L121.16,64.88 L121.30,64.96 L121.45,65.03 L121.59,65.10 L121.74,65.17 L121.88,65.25 L122.03,65.32 L122.17,65.39 L122.32,65.46 L122.46,65.54 L122.61,65.61 L122.75,65.68 L122.90,65.75 L123.04,65.83 L123.19,65.90 L123.33,65.97 L123.48,66.04 L123.62,66.12 L123.77,66.19 L123.91,66.26 L124.06,66.33 L124.20,66.41 L124.35,66.48 L124.49,66.55 L124.64,66.62 L124.78,66.70 L124.93,66.77 L125.07,66.84 L125.22,66.91 L125.36,66.99 L125.51,67.06 L125.65,67.13 L125.80,67.20 L125.94,67.28 L126.09,67.35 L126.23,67.42 L126.38,67.49 L126.52,67.57 L126.67,67.64 L126.81,67.71 L126.96,67.78 L127.10,67.86 L127.25,67.93 L127.39,68.00 L127.53,68.07 L127.68,68.15 L127.82,68.22 L127.97,68.29 L128.11,68.36 L128.26,68.43 L128.40,68.51 L128.55,68.58 L128.69,68.65 L128.84,68.72 L128.98,68.80 L129.13,68.87 L129.27,68.94 L129.42,69.01 L129.56,69.09 L129.71,69.16 L129.85,69.23 L130.00,69.30 L130.14,69.38 L130.29,69.45 L130.43,69.52 L130.58,69.59 L130.72,69.67 L130.87,69.74 L131.01,69.81 L131.16,69.88 L131.30,69.96 L131.45,70.03 L131.59,70.10 L131.74,70.17 L131.88,70.25 L132.03,70.32 L132.17,70.39 L132.32,70.46 L132.46,70.54 L132.61,70.61 L132.75,70.68 L132.90,70.75 L133.04,70.83 L133.19,70.90 L133.33,70.97 L133.48,71.04 L133.62,71.12 L133.77,71.19 L133.91,71.26 L134.06,71.33 L134.20,71.41 L134.35,71.48 L134.49,71.55 L134.64,71.62 L134.78,71.70 L134.93,71.77 L135.07,71.84 L135.22,71.91 L135.36,71.99 L135.50,72.06 L135.65,72.13 L135.79,72.20 L135.94,72.28 L136.08,72.35 L136.23,72.42 L136.37,72.49 L136.52,72.56 L136.66,72.64 L136.81,72.71 L136.95,72.78 L137.10,72.85 L137.24,72.93 L137.39,73.00 L137.53,73.07 L137.68,73.14 L137.82,73.22 L137.97,73.29 L138.11,73.36 L138.26,73.43 L138.40,73.51 L138.55,73.58 L138.69,73.65 L138.84,73.72 L138.98,73.80 L139.13,73.87 L139.27,73.94 L139.42,74.01 L139.56,74.09 L139.71,74.16 L139.85,74.23 L140.00,74.30 L140.14,74.38 L140.29,74.45 L140.43,74.52 L140.58,74.59 L140.72,74.67 L140.87,74.74 L141.01,74.81 L141.16,74.88 L141.30,74.96 L141.45,75.03 L141.59,75.10 L141.74,75.17 L141.88,75.25 L142.03,75.32 L142.17,75.39 L142.32,75.46 L142.46,75.54 L142.61,75.61 L142.75,75.68 L142.90,75.75 L143.04,75.83 L143.19,75.90 L143.33,75.97 L143.48,76.04 L143.62,76.12 L143.76,76.19 L143.91,76.26 L144.05,76.33 L144.20,76.41 L144.34,76.48 L144.49,76.55 L144.63,76.62 L144.78,76.69 L144.92,76.77 L145.07,76.84 L145.21,76.91 L145.36,76.98 L145.50,77.06 L145.65,77.13 L145.79,77.20 L145.94,77.27 L146.08,77.35 L146.23,77.42 L146.37,77.49 L146.52,77.56 L146.66,77.64 L146.81,77.71 L146.95,77.78 L147.10,77.85 L147.24,77.93 L147.39,78.00 L147.53,78.07" style="stroke-width: 2; stroke: rgb(0, 0, 0); stroke-opacity: 1;"/></g></g><g class="test-xtl" style="font-family: &quot;Open Sans&quot;, verdana, arial, sans-serif;"><text text-anchor="middle" font-size="11" dominant-baseline="hanging" stroke="none" fill="rgb(50,50,50)" fill-opacity="1" x="22.994860890508136" y="57.75592631959461">-5</text><text text-anchor="middle" font-size="11" dominant-baseline="hanging" stroke="none" fill="rgb(50,50,50)" fill-opacity="1" x="147.53249532560912" y="57.75592631959461">5</text><text text-anchor="middle" font-size="11" dominant-baseline="hanging" stroke="none" fill="rgb(50,50,50)" fill-opacity="1" x="78.83117810805862" y="55.75592631959461">0</text></g><g class="test-ytl" style="font-family: &quot;Open Sans&quot;, verdana, arial, sans-serif;"/><rect class="real" x="1" y="1" width="187" height="166.11052631578946" style="fill: transparent; stroke: none;"/></g></g></g><g/></g><g/><g/><g/></svg>
        <svg xmlns="http://www.w3.org/2000/svg" xmlns:xlink="http://www.w3.org/1999/xlink" width="660" height="507" style="width:660px;height:507px;font-family:Asana-Math, Asana;background:transparent;"><g><g><g><g transform="matrix(1,0,0,1,34,31.500000381469725)"><path transform="matrix(0.0119,0,0,-0.0119,0,0)" d="M418 -3L418 27L366 30C311 33 301 44 301 96L301 700L60 598L67 548L217 614L217 96C217 44 206 33 152 30L96 27L96 -3C250 0 250 0 261 0C292 0 402 -3 418 -3ZM623 111C593 111 566 83 566 53C566 23 593 -5 622 -5C654 -5 682 22 682 53C682 83 654 111 623 111Z" stroke="rgb(0,0,0)" stroke-opacity="1" stroke-width="8" fill="rgb(0,0,0)" fill-opacity="1"></path></g></g></g></g><g><g><g><g transform="matrix(1,0,0,1,80,31.500000381469725)"><path transform="matrix(0.0119,0,0,-0.0119,0,0)" d="M16 23L16 -3C203 -3 203 0 239 0C275 0 275 -3 468 -3L468 82C353 77 307 81 122 77L304 270C401 373 431 428 431 503C431 618 353 689 226 689C154 689 105 669 56 619L39 483L68 483L81 529C97 587 133 612 200 612C286 612 341 558 341 473C341 398 299 324 186 204ZM623 111C593 111 566 83 566 53C566 23 593 -5 622 -5C654 -5 682 22 682 53C682 83 654 111 623 111Z" stroke="rgb(0,0,0)" stroke-opacity="1" stroke-width="8" fill="rgb(0,0,0)" fill-opacity="1"></path></g></g></g></g><g><g><g><g transform="matrix(1,0,0,1,111,30.500000381469725)"><path transform="matrix(0.0119,0,0,-0.0119,0,0)" d="M462 224C462 345 355 366 308 374C388 436 418 482 418 541C418 630 344 689 233 689C165 689 120 670 72 622L43 498L74 498L92 554C103 588 166 622 218 622C283 622 336 569 336 506C336 431 277 368 206 368C198 368 187 369 174 370L159 371L147 318L154 312C192 329 211 334 238 334C321 334 369 281 369 190C369 88 308 21 215 21C169 21 128 36 98 64C74 86 61 109 42 163L15 153C36 92 44 56 50 6C103 -12 147 -20 184 -20C307 -20 462 87 462 224ZM623 111C593 111 566 83 566 53C566 23 593 -5 622 -5C654 -5 682 22 682 53C682 83 654 111 623 111Z" stroke="rgb(0,0,0)" stroke-opacity="1" stroke-width="8" fill="rgb(0,0,0)" fill-opacity="1"></path></g></g></g></g><g><g><g><g transform="matrix(1,0,0,1,145,31.500000381469725)"><path transform="matrix(0.0119,0,0,-0.0119,0,0)" d="M280 181L280 106C280 46 269 32 220 30L158 27L158 -3C291 0 291 0 315 0C339 0 339 0 472 -3L472 27L424 30C375 33 364 46 364 106L364 181C423 181 444 180 472 177L472 248L364 245L365 697L285 667L2 204L2 181ZM280 245L65 245L280 597ZM623 111C593 111 566 83 566 53C566 23 593 -5 622 -5C654 -5 682 22 682 53C682 83 654 111 623 111Z" stroke="rgb(0,0,0)" stroke-opacity="1" stroke-width="8" fill="rgb(0,0,0)" fill-opacity="1"></path></g></g></g></g><g><g><g><g transform="matrix(1,0,0,1,190,31.500000381469725)"><path transform="matrix(0.0119,0,0,-0.0119,0,0)" d="M459 253C459 366 378 446 264 446C216 446 180 443 127 396L127 605L432 604L432 689L75 690L75 322L95 316C142 363 169 377 218 377C314 377 374 309 374 201C374 90 310 25 201 25C147 25 97 43 83 69L37 151L13 137C36 80 48 48 62 4C90 -11 130 -20 173 -20C301 -20 459 89 459 253ZM623 111C593 111 566 83 566 53C566 23 593 -5 622 -5C654 -5 682 22 682 53C682 83 654 111 623 111Z" stroke="rgb(0,0,0)" stroke-opacity="1" stroke-width="8" fill="rgb(0,0,0)" fill-opacity="1"></path></g></g></g></g><g><g><g><g transform="matrix(1,0,0,1,213,67.50000038146973)"><path transform="matrix(0.0119,0,0,-0.0119,0,0)" d="M9 1C24 -7 40 -11 52 -11C85 -11 124 18 155 65L231 182L242 113C255 28 278 -11 314 -11C336 -11 368 6 400 35L449 79L440 98C404 68 379 53 363 53C348 53 335 63 325 83C316 102 305 139 300 168L282 269L317 318C364 383 391 406 422 406C438 406 450 398 455 383L469 387L484 472C472 479 463 482 454 482C414 482 374 446 312 354L275 299L269 347C257 446 230 482 171 482C145 482 123 474 114 461L56 378L73 368C103 402 123 416 142 416C175 416 197 375 214 277L225 215L185 153C142 86 108 54 80 54C65 54 54 58 52 63L41 91L21 88C21 53 13 27 9 1Z" stroke="rgb(0,0,0)" stroke-opacity="1" stroke-width="8" fill="rgb(0,0,0)" fill-opacity="1"></path></g></g></g></g><g><g><g><g transform="matrix(1,0,0,1,203,146.50000228881837)"><path transform="matrix(0.0119,0,0,-0.0119,0,0)" d="M221 334L338 334L470 330L489 375L485 382C404 378 344 376 266 376L229 376L276 646C308 647 391 650 413 650C475 650 516 641 517 626L525 537L549 537C552 601 559 651 570 689C549 691 519 692 501 692C498 692 487 692 463 691L343 690C334 689 160 691 150 691L105 692L102 664L156 662C180 661 191 653 191 635C191 621 187 589 182 559L95 55C91 37 79 30 35 23L30 -3L71 -2C102 -1 164 0 184 0L409 -3C423 -3 448 -2 481 -1L514 0L518 36C520 56 525 86 534 135L539 161L512 161L496 101C486 65 477 53 455 48C435 44 362 39 308 39C267 39 240 40 171 46Z" stroke="rgb(0,0,0)" stroke-opacity="1" stroke-width="8" fill="rgb(0,0,0)" fill-opacity="1"></path></g></g><g><g><g><g><g transform="matrix(1,0,0,1,210.6187744140625,149.00499923706056)"><path transform="matrix(0.00833,0,0,-0.00833,0,0)" d="M459 253C459 366 378 446 264 446C216 446 180 443 127 396L127 605L432 604L432 689L75 690L75 322L95 316C142 363 169 377 218 377C314 377 374 309 374 201C374 90 310 25 201 25C147 25 97 43 83 69L37 151L13 137C36 80 48 48 62 4C90 -11 130 -20 173 -20C301 -20 459 89 459 253Z" stroke="rgb(0,0,0)" stroke-opacity="1" stroke-width="8" fill="rgb(0,0,0)" fill-opacity="1"></path></g></g></g></g></g></g></g><g><g><g><g transform="matrix(1,0,0,1,181,188.5000099182129)"><path transform="matrix(0.0119,0,0,-0.0119,0,0)" d="M221 334L338 334L470 330L489 375L485 382C404 378 344 376 266 376L229 376L276 646C308 647 391 650 413 650C475 650 516 641 517 626L525 537L549 537C552 601 559 651 570 689C549 691 519 692 501 692C498 692 487 692 463 691L343 690C334 689 160 691 150 691L105 692L102 664L156 662C180 661 191 653 191 635C191 621 187 589 182 559L95 55C91 37 79 30 35 23L30 -3L71 -2C102 -1 164 0 184 0L409 -3C423 -3 448 -2 481 -1L514 0L518 36C520 56 525 86 534 135L539 161L512 161L496 101C486 65 477 53 455 48C435 44 362 39 308 39C267 39 240 40 171 46Z" stroke="rgb(0,0,0)" stroke-opacity="1" stroke-width="8" fill="rgb(0,0,0)" fill-opacity="1"></path></g></g><g><g><g><g><g transform="matrix(1,0,0,1,188.6187744140625,191.0050068664551)"><path transform="matrix(0.00833,0,0,-0.00833,0,0)" d="M280 181L280 106C280 46 269 32 220 30L158 27L158 -3C291 0 291 0 315 0C339 0 339 0 472 -3L472 27L424 30C375 33 364 46 364 106L364 181C423 181 444 180 472 177L472 248L364 245L365 697L285 667L2 204L2 181ZM280 245L65 245L280 597Z" stroke="rgb(0,0,0)" stroke-opacity="1" stroke-width="8" fill="rgb(0,0,0)" fill-opacity="1"></path></g></g></g></g></g></g></g><g><g><g><g transform="matrix(1,0,0,1,38,296.50000991821287)"><path transform="matrix(0.0119,0,0,-0.0119,0,0)" d="M221 334L338 334L470 330L489 375L485 382C404 378 344 376 266 376L229 376L276 646C308 647 391 650 413 650C475 650 516 641 517 626L525 537L549 537C552 601 559 651 570 689C549 691 519 692 501 692C498 692 487 692 463 691L343 690C334 689 160 691 150 691L105 692L102 664L156 662C180 661 191 653 191 635C191 621 187 589 182 559L95 55C91 37 79 30 35 23L30 -3L71 -2C102 -1 164 0 184 0L409 -3C423 -3 448 -2 481 -1L514 0L518 36C520 56 525 86 534 135L539 161L512 161L496 101C486 65 477 53 455 48C435 44 362 39 308 39C267 39 240 40 171 46Z" stroke="rgb(0,0,0)" stroke-opacity="1" stroke-width="8" fill="rgb(0,0,0)" fill-opacity="1"></path></g></g><g><g><g><g><g transform="matrix(1,0,0,1,45.618743896484375,299.00500686645506)"><path transform="matrix(0.00833,0,0,-0.00833,0,0)" d="M16 23L16 -3C203 -3 203 0 239 0C275 0 275 -3 468 -3L468 82C353 77 307 81 122 77L304 270C401 373 431 428 431 503C431 618 353 689 226 689C154 689 105 669 56 619L39 483L68 483L81 529C97 587 133 612 200 612C286 612 341 558 341 473C341 398 299 324 186 204Z" stroke="rgb(0,0,0)" stroke-opacity="1" stroke-width="8" fill="rgb(0,0,0)" fill-opacity="1"></path></g></g></g></g></g></g></g><g><g><g><g transform="matrix(1,0,0,1,15,267.50000991821287)"><path transform="matrix(0.0119,0,0,-0.0119,0,0)" d="M221 334L338 334L470 330L489 375L485 382C404 378 344 376 266 376L229 376L276 646C308 647 391 650 413 650C475 650 516 641 517 626L525 537L549 537C552 601 559 651 570 689C549 691 519 692 501 692C498 692 487 692 463 691L343 690C334 689 160 691 150 691L105 692L102 664L156 662C180 661 191 653 191 635C191 621 187 589 182 559L95 55C91 37 79 30 35 23L30 -3L71 -2C102 -1 164 0 184 0L409 -3C423 -3 448 -2 481 -1L514 0L518 36C520 56 525 86 534 135L539 161L512 161L496 101C486 65 477 53 455 48C435 44 362 39 308 39C267 39 240 40 171 46Z" stroke="rgb(0,0,0)" stroke-opacity="1" stroke-width="8" fill="rgb(0,0,0)" fill-opacity="1"></path></g></g><g><g><g><g><g transform="matrix(1,0,0,1,22.618743896484375,270.00500686645506)"><path transform="matrix(0.00833,0,0,-0.00833,0,0)" d="M418 -3L418 27L366 30C311 33 301 44 301 96L301 700L60 598L67 548L217 614L217 96C217 44 206 33 152 30L96 27L96 -3C250 0 250 0 261 0C292 0 402 -3 418 -3Z" stroke="rgb(0,0,0)" stroke-opacity="1" stroke-width="8" fill="rgb(0,0,0)" fill-opacity="1"></path></g></g></g></g></g></g></g><g><g><g><g transform="matrix(1,0,0,1,95,199.5000099182129)"><path transform="matrix(0.0119,0,0,-0.0119,0,0)" d="M221 334L338 334L470 330L489 375L485 382C404 378 344 376 266 376L229 376L276 646C308 647 391 650 413 650C475 650 516 641 517 626L525 537L549 537C552 601 559 651 570 689C549 691 519 692 501 692C498 692 487 692 463 691L343 690C334 689 160 691 150 691L105 692L102 664L156 662C180 661 191 653 191 635C191 621 187 589 182 559L95 55C91 37 79 30 35 23L30 -3L71 -2C102 -1 164 0 184 0L409 -3C423 -3 448 -2 481 -1L514 0L518 36C520 56 525 86 534 135L539 161L512 161L496 101C486 65 477 53 455 48C435 44 362 39 308 39C267 39 240 40 171 46Z" stroke="rgb(0,0,0)" stroke-opacity="1" stroke-width="8" fill="rgb(0,0,0)" fill-opacity="1"></path></g></g><g><g><g><g><g transform="matrix(1,0,0,1,102.61874389648438,202.0050068664551)"><path transform="matrix(0.00833,0,0,-0.00833,0,0)" d="M462 224C462 345 355 366 308 374C388 436 418 482 418 541C418 630 344 689 233 689C165 689 120 670 72 622L43 498L74 498L92 554C103 588 166 622 218 622C283 622 336 569 336 506C336 431 277 368 206 368C198 368 187 369 174 370L159 371L147 318L154 312C192 329 211 334 238 334C321 334 369 281 369 190C369 88 308 21 215 21C169 21 128 36 98 64C74 86 61 109 42 163L15 153C36 92 44 56 50 6C103 -12 147 -20 184 -20C307 -20 462 87 462 224Z" stroke="rgb(0,0,0)" stroke-opacity="1" stroke-width="8" fill="rgb(0,0,0)" fill-opacity="1"></path></g></g></g></g></g></g></g><g><g><g><g transform="matrix(1,0,0,1,217,204.5000099182129)"><path transform="matrix(0.0119,0,0,-0.0119,0,0)" d="M9 1C24 -7 40 -11 52 -11C85 -11 124 18 155 65L231 182L242 113C255 28 278 -11 314 -11C336 -11 368 6 400 35L449 79L440 98C404 68 379 53 363 53C348 53 335 63 325 83C316 102 305 139 300 168L282 269L317 318C364 383 391 406 422 406C438 406 450 398 455 383L469 387L484 472C472 479 463 482 454 482C414 482 374 446 312 354L275 299L269 347C257 446 230 482 171 482C145 482 123 474 114 461L56 378L73 368C103 402 123 416 142 416C175 416 197 375 214 277L225 215L185 153C142 86 108 54 80 54C65 54 54 58 52 63L41 91L21 88C21 53 13 27 9 1Z" stroke="rgb(0,0,0)" stroke-opacity="1" stroke-width="8" fill="rgb(0,0,0)" fill-opacity="1"></path></g></g><g><g transform="matrix(1,0,0,1,225.31878662109375,204.5000099182129)"><path transform="matrix(0.0119,0,0,-0.0119,0,0)" d="M297 714L242 714L-37 -169L18 -169Z" stroke="rgb(0,0,0)" stroke-opacity="1" stroke-width="8" fill="rgb(0,0,0)" fill-opacity="1"></path></g></g><g><g transform="matrix(1,0,0,1,231.10003662109375,204.5000099182129)"><path transform="matrix(0.0119,0,0,-0.0119,0,0)" d="M125 390L69 107C68 99 56 61 56 31C56 6 67 -9 86 -9C121 -9 156 11 234 74L265 99L255 117L210 86C181 66 161 56 150 56C141 56 136 64 136 76C136 102 150 183 179 328L192 390L299 390L310 440C272 436 238 434 200 434C216 528 227 577 245 631L234 646C214 634 187 622 156 610L131 440C87 419 61 408 43 403L41 390Z" stroke="rgb(0,0,0)" stroke-opacity="1" stroke-width="8" fill="rgb(0,0,0)" fill-opacity="1"></path></g></g></g></g><g><g><g><g transform="matrix(1,0,0,1,123,330.4999946594238)"><path transform="matrix(0.0119,0,0,-0.0119,0,0)" d="M310 96L239 624C237 646 241 661 281 662L323 664L323 692L282 691C245 690 217 689 199 689C181 689 153 690 116 691L75 692L75 664L100 662C144 659 152 651 159 614L247 -8L296 -8L674 611C699 651 707 658 736 662L754 664L754 692L724 691C697 690 674 689 658 689C648 689 621 690 580 691L534 692L534 664L560 662C598 659 617 649 617 630C617 619 613 608 601 588Z" stroke="rgb(0,0,0)" stroke-opacity="1" stroke-width="8" fill="rgb(0,0,0)" fill-opacity="1"></path></g></g><g><g transform="matrix(1,0,0,1,131.58126831054688,330.9000190734863)"><path transform="matrix(0.0119,0,0,-0.0119,0,0)" d="M146 266C146 526 243 632 301 700L282 726C225 675 60 542 60 266C60 159 85 58 133 -32C168 -99 200 -138 282 -215L301 -194C255 -137 146 -15 146 266Z" stroke="rgb(0,0,0)" stroke-opacity="1" stroke-width="8" fill="rgb(0,0,0)" fill-opacity="1"></path></g></g><g><g transform="matrix(1,0,0,1,135.53750610351562,330.4999946594238)"><path transform="matrix(0.0119,0,0,-0.0119,0,0)" d="M9 1C24 -7 40 -11 52 -11C85 -11 124 18 155 65L231 182L242 113C255 28 278 -11 314 -11C336 -11 368 6 400 35L449 79L440 98C404 68 379 53 363 53C348 53 335 63 325 83C316 102 305 139 300 168L282 269L317 318C364 383 391 406 422 406C438 406 450 398 455 383L469 387L484 472C472 479 463 482 454 482C414 482 374 446 312 354L275 299L269 347C257 446 230 482 171 482C145 482 123 474 114 461L56 378L73 368C103 402 123 416 142 416C175 416 197 375 214 277L225 215L185 153C142 86 108 54 80 54C65 54 54 58 52 63L41 91L21 88C21 53 13 27 9 1Z" stroke="rgb(0,0,0)" stroke-opacity="1" stroke-width="8" fill="rgb(0,0,0)" fill-opacity="1"></path></g></g><g><g transform="matrix(1,0,0,1,141.48126220703125,330.9000190734863)"><path transform="matrix(0.0119,0,0,-0.0119,0,0)" d="M51 726L32 700C87 636 187 526 187 266C187 -10 83 -131 32 -194L51 -215C104 -165 273 -23 273 265C273 542 108 675 51 726Z" stroke="rgb(0,0,0)" stroke-opacity="1" stroke-width="8" fill="rgb(0,0,0)" fill-opacity="1"></path></g></g></g></g><g><g><g><g transform="matrix(1,0,0,1,119,132.50000228881837)"><path transform="matrix(0.0119,0,0,-0.0119,0,0)" d="M221 334L338 334L470 330L489 375L485 382C404 378 344 376 266 376L229 376L276 646C308 647 391 650 413 650C475 650 516 641 517 626L525 537L549 537C552 601 559 651 570 689C549 691 519 692 501 692C498 692 487 692 463 691L343 690C334 689 160 691 150 691L105 692L102 664L156 662C180 661 191 653 191 635C191 621 187 589 182 559L95 55C91 37 79 30 35 23L30 -3L71 -2C102 -1 164 0 184 0L409 -3C423 -3 448 -2 481 -1L514 0L518 36C520 56 525 86 534 135L539 161L512 161L496 101C486 65 477 53 455 48C435 44 362 39 308 39C267 39 240 40 171 46Z" stroke="rgb(0,0,0)" stroke-opacity="1" stroke-width="8" fill="rgb(0,0,0)" fill-opacity="1"></path></g></g><g><g><g><g><g transform="matrix(1,0,0,1,126.61874389648438,135.00499923706056)"><path transform="matrix(0.00833,0,0,-0.00833,0,0)" d="M9 1C24 -7 40 -11 52 -11C85 -11 124 18 155 65L231 182L242 113C255 28 278 -11 314 -11C336 -11 368 6 400 35L449 79L440 98C404 68 379 53 363 53C348 53 335 63 325 83C316 102 305 139 300 168L282 269L317 318C364 383 391 406 422 406C438 406 450 398 455 383L469 387L484 472C472 479 463 482 454 482C414 482 374 446 312 354L275 299L269 347C257 446 230 482 171 482C145 482 123 474 114 461L56 378L73 368C103 402 123 416 142 416C175 416 197 375 214 277L225 215L185 153C142 86 108 54 80 54C65 54 54 58 52 63L41 91L21 88C21 53 13 27 9 1Z" stroke="rgb(0,0,0)" stroke-opacity="1" stroke-width="8" fill="rgb(0,0,0)" fill-opacity="1"></path></g></g></g></g></g></g></g><g><g><g><g transform="matrix(1,0,0,1,218,377.4999946594238)"><path transform="matrix(0.0119,0,0,-0.0119,0,0)" d="M9 1C24 -7 40 -11 52 -11C85 -11 124 18 155 65L231 182L242 113C255 28 278 -11 314 -11C336 -11 368 6 400 35L449 79L440 98C404 68 379 53 363 53C348 53 335 63 325 83C316 102 305 139 300 168L282 269L317 318C364 383 391 406 422 406C438 406 450 398 455 383L469 387L484 472C472 479 463 482 454 482C414 482 374 446 312 354L275 299L269 347C257 446 230 482 171 482C145 482 123 474 114 461L56 378L73 368C103 402 123 416 142 416C175 416 197 375 214 277L225 215L185 153C142 86 108 54 80 54C65 54 54 58 52 63L41 91L21 88C21 53 13 27 9 1Z" stroke="rgb(0,0,0)" stroke-opacity="1" stroke-width="8" fill="rgb(0,0,0)" fill-opacity="1"></path></g></g><g><g transform="matrix(1,0,0,1,226.31878662109375,377.4999946594238)"><path transform="matrix(0.0119,0,0,-0.0119,0,0)" d="M297 714L242 714L-37 -169L18 -169Z" stroke="rgb(0,0,0)" stroke-opacity="1" stroke-width="8" fill="rgb(0,0,0)" fill-opacity="1"></path></g></g><g><g transform="matrix(1,0,0,1,232.10003662109375,377.4999946594238)"><path transform="matrix(0.0119,0,0,-0.0119,0,0)" d="M125 390L69 107C68 99 56 61 56 31C56 6 67 -9 86 -9C121 -9 156 11 234 74L265 99L255 117L210 86C181 66 161 56 150 56C141 56 136 64 136 76C136 102 150 183 179 328L192 390L299 390L310 440C272 436 238 434 200 434C216 528 227 577 245 631L234 646C214 634 187 622 156 610L131 440C87 419 61 408 43 403L41 390Z" stroke="rgb(0,0,0)" stroke-opacity="1" stroke-width="8" fill="rgb(0,0,0)" fill-opacity="1"></path></g></g></g></g></svg>
</svg>
