<svg xmlns="http://www.w3.org/2000/svg" xmlns:xlink="http://www.w3.org/1999/xlink" x="0" y="0" width="662" height="264" style="
        width:662px;
        height:264px;
        background: transparent;
        fill: none;
">
        
        
        <svg xmlns="http://www.w3.org/2000/svg" class="role-diagram-draw-area"><g class="shapes-region" style="stroke: black; fill: none;"><g class="grouped-shape"><g class="shape"><polygon class="real" points=" 138,12 138,183.11 116,232 116,60.89" style="stroke: none; stroke-opacity: 1; stroke-width: 2; fill: rgb(155, 155, 155); fill-opacity: 1;"/></g><g class="shape"><polygon class="real" points=" 149,12 149,183.11 127,232 127,60.89" style="stroke: rgb(0, 0, 0); stroke-opacity: 1; stroke-width: 1; fill: rgb(155, 155, 155); fill-opacity: 1;"/></g><g class="shape"><polygon class="real" points=" 149,12 127,60.89 116,60.89 138,12" style="stroke: rgb(0, 0, 0); stroke-opacity: 1; stroke-width: 1; fill: rgb(155, 155, 155); fill-opacity: 1;"/></g><g class="shape"><polygon class="real" points=" 127,60.89 127,232 116,232 116,60.89" style="stroke: rgb(0, 0, 0); stroke-opacity: 1; stroke-width: 1; fill: rgb(155, 155, 155); fill-opacity: 1;"/></g></g><g class="arrow-line"><path class="connection real" stroke-dasharray="" d="  M145,115.57 L130,115.57" style="stroke: rgb(0, 0, 0); stroke-width: 1; fill: none; fill-opacity: 1;"/><g stroke="none" fill="#000" transform="matrix(1,-2.4492935982947064e-16,2.4492935982947064e-16,1,127,115.57142857142856)" style="stroke: none; fill: rgb(0, 0, 0); stroke-width: 1;"><path d=" M6.25,-3 L0,0 L6.25,3 Z"/></g></g><g class="arrow-line"><path class="connection real" stroke-dasharray="" d="  M97,115.57 L113,115.57" style="stroke: rgb(0, 0, 0); stroke-width: 1; fill: none; fill-opacity: 1;"/><g stroke="none" fill="#000" transform="matrix(-1,1.2246467991473532e-16,-1.2246467991473532e-16,-1,115.99999999999999,115.57142857142857)" style="stroke: none; fill: rgb(0, 0, 0); stroke-width: 1;"><path d=" M6.25,-3 L0,0 L6.25,3 Z"/></g></g><g class="shape"><polygon class="real" points=" 253,11 253,182.11 231,231 231,59.89" style="stroke: rgb(0, 0, 0); stroke-width: 1; fill: none; fill-opacity: 1;"/></g><g class="shape"><polygon class="real" points=" 34,10 34,181.11 12,230 12,58.89" style="stroke: rgb(0, 0, 0); stroke-width: 1; fill: none; fill-opacity: 1;"/></g><g class="arrow-line"><path class="connection real" stroke-dasharray="" d="  M142,122.4 L231,121.4" style="stroke: rgb(0, 0, 0); stroke-width: 1; fill: none; fill-opacity: 1;"/></g><g class="arrow-line"><path class="connection real" stroke-dasharray="" d="  M240,121.4 L328,121.4" style="stroke: rgb(0, 0, 0); stroke-width: 1; fill: none; fill-opacity: 1;"/><g stroke="#000" transform="matrix(-1,1.2246467991473532e-16,-1.2246467991473532e-16,-1,330,121.39999389648436)" style="stroke: rgb(0, 0, 0); stroke-width: 1;"><path d=" M10.93,-3.29 Q4.96,-0.45 0,0 Q4.96,0.45 10.93,3.29"/></g></g><g class="arrow-line"><path class="connection real" stroke-dasharray="1.125 3.35" d="  M231,121.4 L240,121.4" style="stroke: rgb(0, 0, 0); stroke-width: 1; fill: none; fill-opacity: 1;"/></g><g class="arrow-line"><path class="connection real" stroke-dasharray="" d="  M111.27,54.68 L130.73,13.12" style="stroke: rgb(0, 0, 0); stroke-width: 1; fill: none; fill-opacity: 1;"/><g stroke="none" fill="#000" transform="matrix(-0.4238832937651808,0.9057168173699666,-0.9057168173699666,-0.4238832937651808,132,10.399993896484375)" style="stroke: none; fill: rgb(0, 0, 0); stroke-width: 1;"><path d=" M6.25,-3 L0,0 L6.25,3 Z"/></g><g stroke="none" fill="#000" transform="matrix(0.4238832937651809,-0.9057168173699666,0.9057168173699666,0.4238832937651809,110,57.399993896484375)" style="stroke: none; fill: rgb(0, 0, 0); stroke-width: 1;"><path d=" M6.25,-3 L0,0 L6.25,3 Z"/></g></g><g class="arrow-line"><path class="connection real" stroke-dasharray="" d="  M160,177.4 L160,17.4" style="stroke: rgb(0, 0, 0); stroke-width: 1; fill: none; fill-opacity: 1;"/><g stroke="none" fill="#000" transform="matrix(3.061616997868383e-16,1,-1,3.061616997868383e-16,160,14.399993896484375)" style="stroke: none; fill: rgb(0, 0, 0); stroke-width: 1;"><path d=" M6.25,-3 L0,0 L6.25,3 Z"/></g><g stroke="none" fill="#000" transform="matrix(-1.8369701987210297e-16,-1,1,-1.8369701987210297e-16,160,180.39999389648435)" style="stroke: none; fill: rgb(0, 0, 0); stroke-width: 1;"><path d=" M6.25,-3 L0,0 L6.25,3 Z"/></g></g><g/></g><g/><g/><g/></svg>
        <svg xmlns="http://www.w3.org/2000/svg" xmlns:xlink="http://www.w3.org/1999/xlink" width="660" height="262" style="width:660px;height:262px;font-family:Asana-Math, Asana;background:transparent;"><g><g><g><g transform="matrix(1,0,0,1,119,128.06876220703126)"><path transform="matrix(0.0119,0,0,-0.0119,0,0)" d="M125 390L69 107C68 99 56 61 56 31C56 6 67 -9 86 -9C121 -9 156 11 234 74L265 99L255 117L210 86C181 66 161 56 150 56C141 56 136 64 136 76C136 102 150 183 179 328L192 390L299 390L310 440C272 436 238 434 200 434C216 528 227 577 245 631L234 646C214 634 187 622 156 610L131 440C87 419 61 408 43 403L41 390Z" stroke="rgb(0,0,0)" stroke-opacity="1" stroke-width="8" fill="rgb(0,0,0)" fill-opacity="1"></path></g></g></g></g><g><g><g><g transform="matrix(1,0,0,1,315,110.60000610351562)"><path transform="matrix(0.017,0,0,-0.017,0,0)" d="M9 1C24 -7 40 -11 52 -11C85 -11 124 18 155 65L231 182L242 113C255 28 278 -11 314 -11C336 -11 368 6 400 35L449 79L440 98C404 68 379 53 363 53C348 53 335 63 325 83C316 102 305 139 300 168L282 269L317 318C364 383 391 406 422 406C438 406 450 398 455 383L469 387L484 472C472 479 463 482 454 482C414 482 374 446 312 354L275 299L269 347C257 446 230 482 171 482C145 482 123 474 114 461L56 378L73 368C103 402 123 416 142 416C175 416 197 375 214 277L225 215L185 153C142 86 108 54 80 54C65 54 54 58 52 63L41 91L21 88C21 53 13 27 9 1Z" stroke="rgb(0,0,0)" stroke-opacity="1" stroke-width="8" fill="rgb(0,0,0)" fill-opacity="1"></path></g></g></g></g><g><g><g><g transform="matrix(1,0,0,1,104,33.59999084472656)"><path transform="matrix(0.017,0,0,-0.017,0,0)" d="M167 420C188 420 201 421 226 424C171 350 72 266 72 126C72 44 107 -11 160 -11C224 -11 276 44 350 187C341 143 338 118 338 95C338 32 367 -11 412 -11C546 -11 699 238 699 384C699 441 673 482 637 482C624 482 612 478 604 470L554 423L565 404C574 410 583 413 592 413C619 413 635 390 635 350C635 205 538 39 453 39C424 39 403 79 403 134C403 181 412 247 424 290L476 474L469 482L395 460L366 311C354 249 340 209 311 155C271 80 233 39 203 39C168 39 145 78 145 136C145 255 186 352 285 464L275 482C255 473 242 470 214 470C186 470 144 472 115 475L103 476C97 477 92 477 91 477C79 477 70 475 59 470C45 443 34 407 21 352L43 352L60 394C67 411 87 422 111 422C145 422 128 420 167 420Z" stroke="rgb(0,0,0)" stroke-opacity="1" stroke-width="8" fill="rgb(0,0,0)" fill-opacity="1"></path></g></g></g></g><g><g><g><g transform="matrix(1,0,0,1,165,87.60000610351562)"><path transform="matrix(0.017,0,0,-0.017,0,0)" d="M167 420C188 420 201 421 226 424C171 350 72 266 72 126C72 44 107 -11 160 -11C224 -11 276 44 350 187C341 143 338 118 338 95C338 32 367 -11 412 -11C546 -11 699 238 699 384C699 441 673 482 637 482C624 482 612 478 604 470L554 423L565 404C574 410 583 413 592 413C619 413 635 390 635 350C635 205 538 39 453 39C424 39 403 79 403 134C403 181 412 247 424 290L476 474L469 482L395 460L366 311C354 249 340 209 311 155C271 80 233 39 203 39C168 39 145 78 145 136C145 255 186 352 285 464L275 482C255 473 242 470 214 470C186 470 144 472 115 475L103 476C97 477 92 477 91 477C79 477 70 475 59 470C45 443 34 407 21 352L43 352L60 394C67 411 87 422 111 422C145 422 128 420 167 420Z" stroke="rgb(0,0,0)" stroke-opacity="1" stroke-width="8" fill="rgb(0,0,0)" fill-opacity="1"></path></g></g></g></g></svg>
</svg>
