<svg xmlns="http://www.w3.org/2000/svg" xmlns:xlink="http://www.w3.org/1999/xlink" x="0" y="0" width="662" height="302" style="
        width:662px;
        height:302px;
        background: transparent;
        fill: none;
">
        
        
        <svg xmlns="http://www.w3.org/2000/svg" class="role-diagram-draw-area"><g class="shapes-region" style="stroke: black; fill: none;"><g class="composite-shape"><path class="real" d=" M104,17 L124,17 L124,137 L104,137 Z" style="stroke-width: 1; stroke: rgb(0, 0, 0); fill: rgb(215, 215, 215); fill-opacity: 1;"/></g><g class="arrow-line"><path class="connection real" stroke-dasharray="" d="  M115,76 L229,76" style="stroke: rgb(0, 0, 0); stroke-width: 1; fill: none; fill-opacity: 1;"/><g stroke="none" fill="#000" transform="matrix(-1,1.2246467991473532e-16,-1.2246467991473532e-16,-1,232,76)" style="stroke: none; fill: rgb(0, 0, 0); stroke-width: 1;"><path d=" M8.93,-4.29 L0,0 L8.93,4.29 Z"/></g></g><g class="arrow-line"><path class="connection real" stroke-dasharray="" d="  M124,57 L172,57" style="stroke: rgb(0, 0, 0); stroke-width: 1; fill: none; fill-opacity: 1;"/><g stroke="#000" transform="matrix(-1,1.2246467991473532e-16,-1.2246467991473532e-16,-1,174,56.99999999999999)" style="stroke: rgb(0, 0, 0); stroke-width: 1;"><path d=" M10.93,-3.29 Q4.96,-0.45 0,0 Q4.96,0.45 10.93,3.29"/></g></g><g class="arrow-line"><path class="connection real" stroke-dasharray="" d="  M124,57 L214,57" style="stroke: rgb(0, 0, 0); stroke-width: 1; fill: none; fill-opacity: 1;"/></g><g class="arrow-line"><path class="connection real" stroke-dasharray="" d="  M124,37 L172,37" style="stroke: rgb(0, 0, 0); stroke-width: 1; fill: none; fill-opacity: 1;"/><g stroke="#000" transform="matrix(-1,1.2246467991473532e-16,-1.2246467991473532e-16,-1,174,36.99999999999999)" style="stroke: rgb(0, 0, 0); stroke-width: 1;"><path d=" M10.93,-3.29 Q4.96,-0.45 0,0 Q4.96,0.45 10.93,3.29"/></g></g><g class="arrow-line"><path class="connection real" stroke-dasharray="" d="  M124,37 L214,37" style="stroke: rgb(0, 0, 0); stroke-width: 1; fill: none; fill-opacity: 1;"/></g><g class="arrow-line"><path class="connection real" stroke-dasharray="" d="  M124,17 L172,17" style="stroke: rgb(0, 0, 0); stroke-width: 1; fill: none; fill-opacity: 1;"/><g stroke="#000" transform="matrix(-1,1.2246467991473532e-16,-1.2246467991473532e-16,-1,174,17)" style="stroke: rgb(0, 0, 0); stroke-width: 1;"><path d=" M10.93,-3.29 Q4.96,-0.45 0,0 Q4.96,0.45 10.93,3.29"/></g></g><g class="arrow-line"><path class="connection real" stroke-dasharray="" d="  M124,17 L214,17" style="stroke: rgb(0, 0, 0); stroke-width: 1; fill: none; fill-opacity: 1;"/></g><g class="arrow-line"><path class="connection real" stroke-dasharray="" d="  M124,137 L172,137" style="stroke: rgb(0, 0, 0); stroke-width: 1; fill: none; fill-opacity: 1;"/><g stroke="#000" transform="matrix(-1,1.2246467991473532e-16,-1.2246467991473532e-16,-1,173.99999999999997,137.00000000000003)" style="stroke: rgb(0, 0, 0); stroke-width: 1;"><path d=" M10.93,-3.29 Q4.96,-0.45 0,0 Q4.96,0.45 10.93,3.29"/></g></g><g class="arrow-line"><path class="connection real" stroke-dasharray="" d="  M124,137 L214,137" style="stroke: rgb(0, 0, 0); stroke-width: 1; fill: none; fill-opacity: 1;"/></g><g class="arrow-line"><path class="connection real" stroke-dasharray="" d="  M124,117 L172,117" style="stroke: rgb(0, 0, 0); stroke-width: 1; fill: none; fill-opacity: 1;"/><g stroke="#000" transform="matrix(-1,1.2246467991473532e-16,-1.2246467991473532e-16,-1,173.99999999999997,117.00000000000001)" style="stroke: rgb(0, 0, 0); stroke-width: 1;"><path d=" M10.93,-3.29 Q4.96,-0.45 0,0 Q4.96,0.45 10.93,3.29"/></g></g><g class="arrow-line"><path class="connection real" stroke-dasharray="" d="  M124,117 L214,117" style="stroke: rgb(0, 0, 0); stroke-width: 1; fill: none; fill-opacity: 1;"/></g><g class="arrow-line"><path class="connection real" stroke-dasharray="" d="  M124,97 L172,97" style="stroke: rgb(0, 0, 0); stroke-width: 1; fill: none; fill-opacity: 1;"/><g stroke="#000" transform="matrix(-1,1.2246467991473532e-16,-1.2246467991473532e-16,-1,174,97.00000000000001)" style="stroke: rgb(0, 0, 0); stroke-width: 1;"><path d=" M10.93,-3.29 Q4.96,-0.45 0,0 Q4.96,0.45 10.93,3.29"/></g></g><g class="arrow-line"><path class="connection real" stroke-dasharray="" d="  M124,97 L214,97" style="stroke: rgb(0, 0, 0); stroke-width: 1; fill: none; fill-opacity: 1;"/></g><g class="arrow-line"><path class="connection real" stroke-dasharray="" d="  M123.5,76 L171.5,76" style="stroke: rgb(0, 0, 0); stroke-width: 1; fill: none; fill-opacity: 1;"/><g stroke="#000" transform="matrix(-1,1.2246467991473532e-16,-1.2246467991473532e-16,-1,173.5,76.00000000000001)" style="stroke: rgb(0, 0, 0); stroke-width: 1;"><path d=" M10.93,-3.29 Q4.96,-0.45 0,0 Q4.96,0.45 10.93,3.29"/></g></g><g class="grouped-shape"><g class="arrow-line"><path class="connection real" stroke-dasharray="" d="  M104,97 L56,97" style="stroke: rgb(0, 0, 0); stroke-width: 1; fill: none; fill-opacity: 1;"/><g stroke="#000" transform="matrix(1,-2.4492935982947064e-16,2.4492935982947064e-16,1,54.00000000000006,97.00000000000003)" style="stroke: rgb(0, 0, 0); stroke-width: 1;"><path d=" M10.93,-3.29 Q4.96,-0.45 0,0 Q4.96,0.45 10.93,3.29"/></g></g><g class="arrow-line"><path class="connection real" stroke-dasharray="" d="  M104,97 L14,97" style="stroke: rgb(0, 0, 0); stroke-width: 1; fill: none; fill-opacity: 1;"/></g><g class="arrow-line"><path class="connection real" stroke-dasharray="" d="  M104,117 L56,117" style="stroke: rgb(0, 0, 0); stroke-width: 1; fill: none; fill-opacity: 1;"/><g stroke="#000" transform="matrix(1,-2.4492935982947064e-16,2.4492935982947064e-16,1,54.000000000000114,117)" style="stroke: rgb(0, 0, 0); stroke-width: 1;"><path d=" M10.93,-3.29 Q4.96,-0.45 0,0 Q4.96,0.45 10.93,3.29"/></g></g><g class="arrow-line"><path class="connection real" stroke-dasharray="" d="  M104,117 L14,117" style="stroke: rgb(0, 0, 0); stroke-width: 1; fill: none; fill-opacity: 1;"/></g><g class="arrow-line"><path class="connection real" stroke-dasharray="" d="  M104,137 L56,137" style="stroke: rgb(0, 0, 0); stroke-width: 1; fill: none; fill-opacity: 1;"/><g stroke="#000" transform="matrix(1,-2.4492935982947064e-16,2.4492935982947064e-16,1,54.00000000000006,137)" style="stroke: rgb(0, 0, 0); stroke-width: 1;"><path d=" M10.93,-3.29 Q4.96,-0.45 0,0 Q4.96,0.45 10.93,3.29"/></g></g><g class="arrow-line"><path class="connection real" stroke-dasharray="" d="  M104,137 L14,137" style="stroke: rgb(0, 0, 0); stroke-width: 1; fill: none; fill-opacity: 1;"/></g></g><g class="arrow-line"><path class="connection real" stroke-dasharray="" d="  M104,17 L56,17" style="stroke: rgb(0, 0, 0); stroke-width: 1; fill: none; fill-opacity: 1;"/><g stroke="#000" transform="matrix(1,-2.4492935982947064e-16,2.4492935982947064e-16,1,54.00000000000006,17.00000000000003)" style="stroke: rgb(0, 0, 0); stroke-width: 1;"><path d=" M10.93,-3.29 Q4.96,-0.45 0,0 Q4.96,0.45 10.93,3.29"/></g></g><g class="arrow-line"><path class="connection real" stroke-dasharray="" d="  M104,17 L14,17" style="stroke: rgb(0, 0, 0); stroke-width: 1; fill: none; fill-opacity: 1;"/></g><g class="arrow-line"><path class="connection real" stroke-dasharray="" d="  M104,37 L56,37" style="stroke: rgb(0, 0, 0); stroke-width: 1; fill: none; fill-opacity: 1;"/><g stroke="#000" transform="matrix(1,-2.4492935982947064e-16,2.4492935982947064e-16,1,54.000000000000114,37)" style="stroke: rgb(0, 0, 0); stroke-width: 1;"><path d=" M10.93,-3.29 Q4.96,-0.45 0,0 Q4.96,0.45 10.93,3.29"/></g></g><g class="arrow-line"><path class="connection real" stroke-dasharray="" d="  M104,37 L14,37" style="stroke: rgb(0, 0, 0); stroke-width: 1; fill: none; fill-opacity: 1;"/></g><g class="arrow-line"><path class="connection real" stroke-dasharray="" d="  M104,57 L56,57" style="stroke: rgb(0, 0, 0); stroke-width: 1; fill: none; fill-opacity: 1;"/><g stroke="#000" transform="matrix(1,-2.4492935982947064e-16,2.4492935982947064e-16,1,54.00000000000006,57)" style="stroke: rgb(0, 0, 0); stroke-width: 1;"><path d=" M10.93,-3.29 Q4.96,-0.45 0,0 Q4.96,0.45 10.93,3.29"/></g></g><g class="arrow-line"><path class="connection real" stroke-dasharray="" d="  M104,57 L14,57" style="stroke: rgb(0, 0, 0); stroke-width: 1; fill: none; fill-opacity: 1;"/></g><g class="arrow-line"><path class="connection real" stroke-dasharray="" d="  M104,77 L56,77" style="stroke: rgb(0, 0, 0); stroke-width: 1; fill: none; fill-opacity: 1;"/><g stroke="#000" transform="matrix(1,-2.4492935982947064e-16,2.4492935982947064e-16,1,54.00000000000006,77)" style="stroke: rgb(0, 0, 0); stroke-width: 1;"><path d=" M10.93,-3.29 Q4.96,-0.45 0,0 Q4.96,0.45 10.93,3.29"/></g></g><g class="arrow-line"><path class="connection real" stroke-dasharray="" d="  M104,77 L14,77" style="stroke: rgb(0, 0, 0); stroke-width: 1; fill: none; fill-opacity: 1;"/></g><g class="composite-shape" data-amt="diagram/shapes/plot" transform="matrix(1,0,0,1,-20,159.76744186046517)"><g><g><g class="test-xgi"><line x1="3.8767543945341227" y1="0" x2="3.8767543945341227" y2="130.23255813953483" fill="none" stroke="#c3c3c3" stroke-width="0.5"/><line x1="30.214109777304426" y1="0" x2="30.214109777304426" y2="130.23255813953483" fill="none" stroke="#c3c3c3" stroke-width="0.5"/><line x1="56.55146516007473" y1="0" x2="56.55146516007473" y2="130.23255813953483" fill="none" stroke="#c3c3c3" stroke-width="0.5"/><line x1="82.88882054284504" y1="0" x2="82.88882054284504" y2="130.23255813953483" fill="none" stroke="#c3c3c3" stroke-width="0.5"/><line x1="109.22617592561532" y1="0" x2="109.22617592561532" y2="130.23255813953483" fill="none" stroke="#c3c3c3" stroke-width="0.5"/><line x1="135.56353130838562" y1="0" x2="135.56353130838562" y2="130.23255813953483" fill="none" stroke="#c3c3c3" stroke-width="0.5"/><line x1="161.90088669115593" y1="0" x2="161.90088669115593" y2="130.23255813953483" fill="none" stroke="#c3c3c3" stroke-width="0.5"/><line x1="188.23824207392624" y1="0" x2="188.23824207392624" y2="130.23255813953483" fill="none" stroke="#c3c3c3" stroke-width="0.5"/><line x1="214.57559745669658" y1="0" x2="214.57559745669658" y2="130.23255813953483" fill="none" stroke="#c3c3c3" stroke-width="0.5"/><line x1="240.91295283946687" y1="0" x2="240.91295283946687" y2="130.23255813953483" fill="none" stroke="#c3c3c3" stroke-width="0.5"/></g><g class="test-ygi"><line x1="0" y1="104.07774941861484" x2="260" y2="104.07774941861484" fill="none" stroke="#c3c3c3" stroke-width="0.5"/><line x1="0" y1="77.74039403584455" x2="260" y2="77.74039403584455" fill="none" stroke="#c3c3c3" stroke-width="0.5"/><line x1="0" y1="51.40303865307425" x2="260" y2="51.40303865307425" fill="none" stroke="#c3c3c3" stroke-width="0.5"/><line x1="0" y1="25.06568327030395" x2="260" y2="25.06568327030395" fill="none" stroke="#c3c3c3" stroke-width="0.5"/></g></g><g><g class="test-xti" style="font-family: Asana-Math, Asana;"><line x1="0" y1="25.06568327030395" x2="256" y2="25.06568327030395" fill="none" stroke="rgb(50,50,50)" stroke-opacity="1" stroke-width="1"/><line x1="3.8767543945341227" y1="21.06568327030395" x2="3.8767543945341227" y2="29.06568327030395" fill="none" stroke="rgb(50,50,50)" stroke-opacity="1" stroke-width="1"/><line x1="30.214109777304426" y1="21.06568327030395" x2="30.214109777304426" y2="29.06568327030395" fill="none" stroke="rgb(50,50,50)" stroke-opacity="1" stroke-width="1"/><line x1="56.55146516007473" y1="21.06568327030395" x2="56.55146516007473" y2="29.06568327030395" fill="none" stroke="rgb(50,50,50)" stroke-opacity="1" stroke-width="1"/><line x1="82.88882054284504" y1="21.06568327030395" x2="82.88882054284504" y2="29.06568327030395" fill="none" stroke="rgb(50,50,50)" stroke-opacity="1" stroke-width="1"/><line x1="109.22617592561532" y1="21.06568327030395" x2="109.22617592561532" y2="29.06568327030395" fill="none" stroke="rgb(50,50,50)" stroke-opacity="1" stroke-width="1"/><line x1="161.90088669115593" y1="21.06568327030395" x2="161.90088669115593" y2="29.06568327030395" fill="none" stroke="rgb(50,50,50)" stroke-opacity="1" stroke-width="1"/><line x1="188.23824207392624" y1="21.06568327030395" x2="188.23824207392624" y2="29.06568327030395" fill="none" stroke="rgb(50,50,50)" stroke-opacity="1" stroke-width="1"/><line x1="214.57559745669658" y1="21.06568327030395" x2="214.57559745669658" y2="29.06568327030395" fill="none" stroke="rgb(50,50,50)" stroke-opacity="1" stroke-width="1"/><line x1="240.91295283946687" y1="21.06568327030395" x2="240.91295283946687" y2="29.06568327030395" fill="none" stroke="rgb(50,50,50)" stroke-opacity="1" stroke-width="1"/><path d="M251,21.46568327030395 L259,25.06568327030395 L251,28.66568327030395 Z" stroke="none" stroke-width="1" fill="rgb(50,50,50)" fill-opacity="1"/></g><g class="test-yti" style="font-family: Asana-Math, Asana;"><line x1="135.56353130838562" y1="4" x2="135.56353130838562" y2="130.23255813953483" fill="none" stroke="rgb(50,50,50)" stroke-opacity="1" stroke-width="1"/><line x1="131.56353130838562" y1="104.07774941861484" x2="139.56353130838562" y2="104.07774941861484" fill="none" stroke="rgb(50,50,50)" stroke-opacity="1" stroke-width="1"/><line x1="131.56353130838562" y1="77.74039403584455" x2="139.56353130838562" y2="77.74039403584455" fill="none" stroke="rgb(50,50,50)" stroke-opacity="1" stroke-width="1"/><line x1="131.56353130838562" y1="51.40303865307425" x2="139.56353130838562" y2="51.40303865307425" fill="none" stroke="rgb(50,50,50)" stroke-opacity="1" stroke-width="1"/><path d="M131.96353130838563,9 L135.56353130838562,1 L139.16353130838561,9 Z" stroke="none" stroke-width="1" fill="rgb(50,50,50)" fill-opacity="1"/></g><g class="test-plot-expression"><defs><clipPath id="cpq2r9i6k60"><rect x="1" y="1" width="258" height="128.23255813953483"/></clipPath></defs><g clip-path="url(#cpq2r9i6k60)"><path d=" M148.73,25.07 L148.91,25.24 L149.09,25.42 L149.27,25.60 L149.44,25.78 L149.62,25.95 L149.80,26.13 L149.98,26.31 L150.15,26.49 L150.33,26.66 L150.51,26.84 L150.69,27.02 L150.86,27.20 L151.04,27.37 L151.22,27.55 L151.40,27.73 L151.57,27.91 L151.75,28.09 L151.93,28.26 L152.11,28.44 L152.28,28.62 L152.46,28.80 L152.64,28.97 L152.82,29.15 L152.99,29.33 L153.17,29.51 L153.35,29.68 L153.53,29.86 L153.71,30.04 L153.88,30.22 L154.06,30.39 L154.24,30.57 L154.42,30.75 L154.59,30.93 L154.77,31.10 L154.95,31.28 L155.13,31.46 L155.30,31.64 L155.48,31.81 L155.66,31.99 L155.84,32.17 L156.01,32.35 L156.19,32.53 L156.37,32.70 L156.55,32.88 L156.72,33.06 L156.90,33.24 L157.08,33.41 L157.26,33.59 L157.44,33.77 L157.61,33.95 L157.79,34.12 L157.97,34.30 L158.15,34.48 L158.32,34.66 L158.50,34.83 L158.68,35.01 L158.86,35.19 L159.03,35.37 L159.21,35.54 L159.39,35.72 L159.57,35.90 L159.74,36.08 L159.92,36.26 L160.10,36.43 L160.28,36.61 L160.45,36.79 L160.63,36.97 L160.81,37.14 L160.99,37.32 L161.17,37.50 L161.34,37.68 L161.52,37.85 L161.70,38.03 L161.88,38.21 L162.05,38.39 L162.23,38.56 L162.41,38.74 L162.59,38.92 L162.76,39.10 L162.94,39.27 L163.12,39.45 L163.30,39.63 L163.47,39.81 L163.65,39.99 L163.83,40.16 L164.01,40.34 L164.18,40.52 L164.36,40.70 L164.54,40.87 L164.72,41.05 L164.89,41.23 L165.07,41.41 L165.25,41.58 L165.43,41.76 L165.61,41.94 L165.78,42.12 L165.96,42.29 L166.14,42.47 L166.32,42.65 L166.49,42.83 L166.67,43.00 L166.85,43.18 L167.03,43.36 L167.20,43.54 L167.38,43.71 L167.56,43.89 L167.74,44.07 L167.91,44.25 L168.09,44.43 L168.27,44.60 L168.45,44.78 L168.62,44.96 L168.80,45.14 L168.98,45.31 L169.16,45.49 L169.34,45.67 L169.51,45.85 L169.69,46.02 L169.87,46.20 L170.05,46.38 L170.22,46.56 L170.40,46.73 L170.58,46.91 L170.76,47.09 L170.93,47.27 L171.11,47.44 L171.29,47.62 L171.47,47.80 L171.64,47.98 L171.82,48.16 L172.00,48.33 L172.18,48.51 L172.35,48.69 L172.53,48.87 L172.71,49.04 L172.89,49.22 L173.07,49.40 L173.24,49.58 L173.42,49.75 L173.60,49.93 L173.78,50.11 L173.95,50.29 L174.13,50.46 L174.31,50.64 L174.49,50.82 L174.66,51.00 L174.84,51.17 L175.02,51.35 L175.20,51.53 L175.37,51.71 L175.55,51.89 L175.73,52.06 L175.91,52.24 L176.08,52.42 L176.26,52.60 L176.44,52.77 L176.62,52.95 L176.79,53.13 L176.97,53.31 L177.15,53.48 L177.33,53.66 L177.51,53.84 L177.68,54.02 L177.86,54.19 L178.04,54.37 L178.22,54.55 L178.39,54.73 L178.57,54.90 L178.75,55.08 L178.93,55.26 L179.10,55.44 L179.28,55.61 L179.46,55.79 L179.64,55.97 L179.81,56.15 L179.99,56.33 L180.17,56.50 L180.35,56.68 L180.52,56.86 L180.70,57.04 L180.88,57.21 L181.06,57.39 L181.24,57.57 L181.41,57.75 L181.59,57.92 L181.77,58.10 L181.95,58.28 L182.12,58.46 L182.30,58.63 L182.48,58.81 L182.66,58.99 L182.83,59.17 L183.01,59.34 L183.19,59.52 L183.37,59.70 L183.54,59.88 L183.72,60.06 L183.90,60.23 L184.08,60.41 L184.25,60.59 L184.43,60.77 L184.61,60.94 L184.79,61.12 L184.97,61.30 L185.14,61.48 L185.32,61.65 L185.50,61.83 L185.68,62.01 L185.85,62.19 L186.03,62.36 L186.21,62.54 L186.39,62.72 L186.56,62.90 L186.74,63.07 L186.92,63.25 L187.10,63.43 L187.27,63.61 L187.45,63.79 L187.63,63.96 L187.81,64.14 L187.98,64.32 L188.16,64.50 L188.34,64.67 L188.52,64.85 L188.69,65.03 L188.87,65.21 L189.05,65.38 L189.23,65.56 L189.41,65.74 L189.58,65.92 L189.76,66.09 L189.94,66.27 L190.12,66.45 L190.29,66.63 L190.47,66.80 L190.65,66.98 L190.83,67.16 L191.00,67.34 L191.18,67.52 L191.36,67.69 L191.54,67.87 L191.71,68.05 L191.89,68.23 L192.07,68.40 L192.25,68.58 L192.42,68.76 L192.60,68.94 L192.78,69.11 L192.96,69.29 L193.14,69.47 L193.31,69.65 L193.49,69.82 L193.67,70.00 L193.85,70.18 L194.02,70.36 L194.20,70.53 L194.38,70.71 L194.56,70.89 L194.73,71.07 L194.91,71.24 L195.09,71.42 L195.27,71.60 L195.44,71.78 L195.62,71.96 L195.80,72.13 L195.98,72.31 L196.15,72.49 L196.33,72.67 L196.51,72.84 L196.69,73.02 L196.87,73.20 L197.04,73.38 L197.22,73.55 L197.40,73.73 L197.58,73.91 L197.75,74.09 L197.93,74.26 L198.11,74.44 L198.29,74.62 L198.46,74.80 L198.64,74.97 L198.82,75.15 L199.00,75.33 L199.17,75.51 L199.35,75.69 L199.53,75.86 L199.71,76.04 L199.88,76.22 L200.06,76.40 L200.24,76.57 L200.42,76.75 L200.59,76.93 L200.77,77.11 L200.95,77.28 L201.13,77.46 L201.31,77.64 L201.48,77.82 L201.66,77.99 L201.84,78.17 L202.02,78.35 L202.19,78.53 L202.37,78.70 L202.55,78.88 L202.73,79.06 L202.90,79.24 L203.08,79.42 L203.26,79.59 L203.44,79.77 L203.61,79.95 L203.79,80.13 L203.97,80.30 L204.15,80.48 L204.32,80.66 L204.50,80.84 L204.68,81.01 L204.86,81.19 L205.04,81.37 L205.21,81.55 L205.39,81.72 L205.57,81.90 L205.75,82.08 L205.92,82.26 L206.10,82.43 L206.28,82.61 L206.46,82.79 L206.63,82.97 L206.81,83.14 L206.99,83.32 L207.17,83.50 L207.34,83.68 L207.52,83.86 L207.70,84.03 L207.88,84.21 L208.05,84.39 L208.23,84.57 L208.41,84.74 L208.59,84.92 L208.77,85.10 L208.94,85.28 L209.12,85.45 L209.30,85.63 L209.48,85.81 L209.65,85.99 L209.83,86.16 L210.01,86.34 L210.19,86.52 L210.36,86.70 L210.54,86.87 L210.72,87.05 L210.90,87.23 L211.07,87.41 L211.25,87.59 L211.43,87.76 L211.61,87.94 L211.78,88.12 L211.96,88.30 L212.14,88.47 L212.32,88.65 L212.49,88.83 L212.67,89.01 L212.85,89.18 L213.03,89.36 L213.21,89.54 L213.38,89.72 L213.56,89.89 L213.74,90.07 L213.92,90.25 L214.09,90.43 L214.27,90.60 L214.45,90.78 L214.63,90.96 L214.80,91.14 L214.98,91.32 L215.16,91.49 L215.34,91.67 L215.51,91.85 L215.69,92.03 L215.87,92.20 L216.05,92.38 L216.22,92.56 L216.40,92.74 L216.58,92.91 L216.76,93.09 L216.94,93.27 L217.11,93.45 L217.29,93.62 L217.47,93.80 L217.65,93.98 L217.82,94.16 L218.00,94.33 L218.18,94.51 L218.36,94.69 L218.53,94.87 L218.71,95.04 L218.89,95.22 L219.07,95.40 L219.24,95.58 L219.42,95.76 L219.60,95.93 L219.78,96.11 L219.95,96.29 L220.13,96.47 L220.31,96.64 L220.49,96.82 L220.67,97.00 L220.84,97.18 L221.02,97.35 L221.20,97.53 L221.38,97.71 L221.55,97.89 L221.73,98.06 L221.91,98.24 L222.09,98.42 L222.26,98.60 L222.44,98.77 L222.62,98.95 L222.80,99.13 L222.97,99.31 L223.15,99.49 L223.33,99.66 L223.51,99.84 L223.68,100.02 L223.86,100.20 L224.04,100.37 L224.22,100.55 L224.40,100.73 L224.57,100.91 L224.75,101.08 L224.93,101.26 L225.11,101.44 L225.28,101.62 L225.46,101.79 L225.64,101.97 L225.82,102.15 L225.99,102.33 L226.17,102.50 L226.35,102.68 L226.53,102.86 L226.70,103.04 L226.88,103.22 L227.06,103.39 L227.24,103.57 L227.41,103.75 L227.59,103.93 L227.77,104.10 L227.95,104.28 L228.12,104.46 L228.30,104.64 L228.48,104.81 L228.66,104.99 L228.84,105.17 L229.01,105.35 L229.19,105.52 L229.37,105.70 L229.55,105.88 L229.72,106.06 L229.90,106.23 L230.08,106.41 L230.26,106.59 L230.43,106.77 L230.61,106.94 L230.79,107.12 L230.97,107.30 L231.14,107.48 L231.32,107.66 L231.50,107.83 L231.68,108.01 L231.85,108.19 L232.03,108.37 L232.21,108.54 L232.39,108.72 L232.57,108.90 L232.74,109.08 L232.92,109.25 L233.10,109.43 L233.28,109.61 L233.45,109.79 L233.63,109.96 L233.81,110.14 L233.99,110.32 L234.16,110.50 L234.34,110.67 L234.52,110.85 L234.70,111.03 L234.87,111.21 L235.05,111.39 L235.23,111.56 L235.41,111.74 L235.58,111.92 L235.76,112.10 L235.94,112.27 L236.12,112.45 L236.30,112.63 L236.47,112.81 L236.65,112.98 L236.83,113.16 L237.01,113.34 L237.18,113.52 L237.36,113.69 L237.54,113.87 L237.72,114.05 L237.89,114.23 L238.07,114.40 L238.25,114.58 L238.43,114.76 L238.60,114.94 L238.78,115.12 L238.96,115.29 L239.14,115.47 L239.31,115.65 L239.49,115.83 L239.67,116.00 L239.85,116.18 L240.02,116.36 L240.20,116.54 L240.38,116.71 L240.56,116.89 L240.74,117.07 L240.91,117.25" style="stroke-width: 2; stroke: rgb(0, 0, 0); stroke-opacity: 1;"/><path d=" M122.39,25.07 L122.45,25.07 L122.50,25.07 L122.55,25.07 L122.60,25.07 L122.65,25.07 L122.70,25.07 L122.75,25.07 L122.80,25.07 L122.85,25.07 L122.90,25.07 L122.95,25.07 L123.00,25.07 L123.05,25.07 L123.11,25.07 L123.16,25.07 L123.21,25.07 L123.26,25.07 L123.31,25.07 L123.36,25.07 L123.41,25.07 L123.46,25.07 L123.51,25.07 L123.56,25.07 L123.61,25.07 L123.66,25.07 L123.71,25.07 L123.77,25.07 L123.82,25.07 L123.87,25.07 L123.92,25.07 L123.97,25.07 L124.02,25.07 L124.07,25.07 L124.12,25.07 L124.17,25.07 L124.22,25.07 L124.27,25.07 L124.32,25.07 L124.37,25.07 L124.42,25.07 L124.48,25.07 L124.53,25.07 L124.58,25.07 L124.63,25.07 L124.68,25.07 L124.73,25.07 L124.78,25.07 L124.83,25.07 L124.88,25.07 L124.93,25.07 L124.98,25.07 L125.03,25.07 L125.08,25.07 L125.14,25.07 L125.19,25.07 L125.24,25.07 L125.29,25.07 L125.34,25.07 L125.39,25.07 L125.44,25.07 L125.49,25.07 L125.54,25.07 L125.59,25.07 L125.64,25.07 L125.69,25.07 L125.74,25.07 L125.79,25.07 L125.85,25.07 L125.90,25.07 L125.95,25.07 L126.00,25.07 L126.05,25.07 L126.10,25.07 L126.15,25.07 L126.20,25.07 L126.25,25.07 L126.30,25.07 L126.35,25.07 L126.40,25.07 L126.45,25.07 L126.51,25.07 L126.56,25.07 L126.61,25.07 L126.66,25.07 L126.71,25.07 L126.76,25.07 L126.81,25.07 L126.86,25.07 L126.91,25.07 L126.96,25.07 L127.01,25.07 L127.06,25.07 L127.11,25.07 L127.17,25.07 L127.22,25.07 L127.27,25.07 L127.32,25.07 L127.37,25.07 L127.42,25.07 L127.47,25.07 L127.52,25.07 L127.57,25.07 L127.62,25.07 L127.67,25.07 L127.72,25.07 L127.77,25.07 L127.82,25.07 L127.88,25.07 L127.93,25.07 L127.98,25.07 L128.03,25.07 L128.08,25.07 L128.13,25.07 L128.18,25.07 L128.23,25.07 L128.28,25.07 L128.33,25.07 L128.38,25.07 L128.43,25.07 L128.48,25.07 L128.54,25.07 L128.59,25.07 L128.64,25.07 L128.69,25.07 L128.74,25.07 L128.79,25.07 L128.84,25.07 L128.89,25.07 L128.94,25.07 L128.99,25.07 L129.04,25.07 L129.09,25.07 L129.14,25.07 L129.19,25.07 L129.25,25.07 L129.30,25.07 L129.35,25.07 L129.40,25.07 L129.45,25.07 L129.50,25.07 L129.55,25.07 L129.60,25.07 L129.65,25.07 L129.70,25.07 L129.75,25.07 L129.80,25.07 L129.85,25.07 L129.91,25.07 L129.96,25.07 L130.01,25.07 L130.06,25.07 L130.11,25.07 L130.16,25.07 L130.21,25.07 L130.26,25.07 L130.31,25.07 L130.36,25.07 L130.41,25.07 L130.46,25.07 L130.51,25.07 L130.57,25.07 L130.62,25.07 L130.67,25.07 L130.72,25.07 L130.77,25.07 L130.82,25.07 L130.87,25.07 L130.92,25.07 L130.97,25.07 L131.02,25.07 L131.07,25.07 L131.12,25.07 L131.17,25.07 L131.22,25.07 L131.28,25.07 L131.33,25.07 L131.38,25.07 L131.43,25.07 L131.48,25.07 L131.53,25.07 L131.58,25.07 L131.63,25.07 L131.68,25.07 L131.73,25.07 L131.78,25.07 L131.83,25.07 L131.88,25.07 L131.94,25.07 L131.99,25.07 L132.04,25.07 L132.09,25.07 L132.14,25.07 L132.19,25.07 L132.24,25.07 L132.29,25.07 L132.34,25.07 L132.39,25.07 L132.44,25.07 L132.49,25.07 L132.54,25.07 L132.59,25.07 L132.65,25.07 L132.70,25.07 L132.75,25.07 L132.80,25.07 L132.85,25.07 L132.90,25.07 L132.95,25.07 L133.00,25.07 L133.05,25.07 L133.10,25.07 L133.15,25.07 L133.20,25.07 L133.25,25.07 L133.31,25.07 L133.36,25.07 L133.41,25.07 L133.46,25.07 L133.51,25.07 L133.56,25.07 L133.61,25.07 L133.66,25.07 L133.71,25.07 L133.76,25.07 L133.81,25.07 L133.86,25.07 L133.91,25.07 L133.97,25.07 L134.02,25.07 L134.07,25.07 L134.12,25.07 L134.17,25.07 L134.22,25.07 L134.27,25.07 L134.32,25.07 L134.37,25.07 L134.42,25.07 L134.47,25.07 L134.52,25.07 L134.57,25.07 L134.62,25.07 L134.68,25.07 L134.73,25.07 L134.78,25.07 L134.83,25.07 L134.88,25.07 L134.93,25.07 L134.98,25.07 L135.03,25.07 L135.08,25.07 L135.13,25.07 L135.18,25.07 L135.23,25.07 L135.28,25.07 L135.34,25.07 L135.39,25.07 L135.44,25.07 L135.49,25.07 L135.54,25.07 L135.59,25.07 L135.64,25.07 L135.69,25.07 L135.74,25.07 L135.79,25.07 L135.84,25.07 L135.89,25.07 L135.94,25.07 L135.99,25.07 L136.05,25.07 L136.10,25.07 L136.15,25.07 L136.20,25.07 L136.25,25.07 L136.30,25.07 L136.35,25.07 L136.40,25.07 L136.45,25.07 L136.50,25.07 L136.55,25.07 L136.60,25.07 L136.65,25.07 L136.71,25.07 L136.76,25.07 L136.81,25.07 L136.86,25.07 L136.91,25.07 L136.96,25.07 L137.01,25.07 L137.06,25.07 L137.11,25.07 L137.16,25.07 L137.21,25.07 L137.26,25.07 L137.31,25.07 L137.37,25.07 L137.42,25.07 L137.47,25.07 L137.52,25.07 L137.57,25.07 L137.62,25.07 L137.67,25.07 L137.72,25.07 L137.77,25.07 L137.82,25.07 L137.87,25.07 L137.92,25.07 L137.97,25.07 L138.02,25.07 L138.08,25.07 L138.13,25.07 L138.18,25.07 L138.23,25.07 L138.28,25.07 L138.33,25.07 L138.38,25.07 L138.43,25.07 L138.48,25.07 L138.53,25.07 L138.58,25.07 L138.63,25.07 L138.68,25.07 L138.74,25.07 L138.79,25.07 L138.84,25.07 L138.89,25.07 L138.94,25.07 L138.99,25.07 L139.04,25.07 L139.09,25.07 L139.14,25.07 L139.19,25.07 L139.24,25.07 L139.29,25.07 L139.34,25.07 L139.39,25.07 L139.45,25.07 L139.50,25.07 L139.55,25.07 L139.60,25.07 L139.65,25.07 L139.70,25.07 L139.75,25.07 L139.80,25.07 L139.85,25.07 L139.90,25.07 L139.95,25.07 L140.00,25.07 L140.05,25.07 L140.11,25.07 L140.16,25.07 L140.21,25.07 L140.26,25.07 L140.31,25.07 L140.36,25.07 L140.41,25.07 L140.46,25.07 L140.51,25.07 L140.56,25.07 L140.61,25.07 L140.66,25.07 L140.71,25.07 L140.77,25.07 L140.82,25.07 L140.87,25.07 L140.92,25.07 L140.97,25.07 L141.02,25.07 L141.07,25.07 L141.12,25.07 L141.17,25.07 L141.22,25.07 L141.27,25.07 L141.32,25.07 L141.37,25.07 L141.42,25.07 L141.48,25.07 L141.53,25.07 L141.58,25.07 L141.63,25.07 L141.68,25.07 L141.73,25.07 L141.78,25.07 L141.83,25.07 L141.88,25.07 L141.93,25.07 L141.98,25.07 L142.03,25.07 L142.08,25.07 L142.14,25.07 L142.19,25.07 L142.24,25.07 L142.29,25.07 L142.34,25.07 L142.39,25.07 L142.44,25.07 L142.49,25.07 L142.54,25.07 L142.59,25.07 L142.64,25.07 L142.69,25.07 L142.74,25.07 L142.79,25.07 L142.85,25.07 L142.90,25.07 L142.95,25.07 L143.00,25.07 L143.05,25.07 L143.10,25.07 L143.15,25.07 L143.20,25.07 L143.25,25.07 L143.30,25.07 L143.35,25.07 L143.40,25.07 L143.45,25.07 L143.51,25.07 L143.56,25.07 L143.61,25.07 L143.66,25.07 L143.71,25.07 L143.76,25.07 L143.81,25.07 L143.86,25.07 L143.91,25.07 L143.96,25.07 L144.01,25.07 L144.06,25.07 L144.11,25.07 L144.17,25.07 L144.22,25.07 L144.27,25.07 L144.32,25.07 L144.37,25.07 L144.42,25.07 L144.47,25.07 L144.52,25.07 L144.57,25.07 L144.62,25.07 L144.67,25.07 L144.72,25.07 L144.77,25.07 L144.82,25.07 L144.88,25.07 L144.93,25.07 L144.98,25.07 L145.03,25.07 L145.08,25.07 L145.13,25.07 L145.18,25.07 L145.23,25.07 L145.28,25.07 L145.33,25.07 L145.38,25.07 L145.43,25.07 L145.48,25.07 L145.54,25.07 L145.59,25.07 L145.64,25.07 L145.69,25.07 L145.74,25.07 L145.79,25.07 L145.84,25.07 L145.89,25.07 L145.94,25.07 L145.99,25.07 L146.04,25.07 L146.09,25.07 L146.14,25.07 L146.19,25.07 L146.25,25.07 L146.30,25.07 L146.35,25.07 L146.40,25.07 L146.45,25.07 L146.50,25.07 L146.55,25.07 L146.60,25.07 L146.65,25.07 L146.70,25.07 L146.75,25.07 L146.80,25.07 L146.85,25.07 L146.91,25.07 L146.96,25.07 L147.01,25.07 L147.06,25.07 L147.11,25.07 L147.16,25.07 L147.21,25.07 L147.26,25.07 L147.31,25.07 L147.36,25.07 L147.41,25.07 L147.46,25.07 L147.51,25.07 L147.57,25.07 L147.62,25.07 L147.67,25.07 L147.72,25.07 L147.77,25.07 L147.82,25.07 L147.87,25.07 L147.92,25.07 L147.97,25.07 L148.02,25.07 L148.07,25.07 L148.12,25.07 L148.17,25.07 L148.22,25.07 L148.28,25.07 L148.33,25.07 L148.38,25.07 L148.43,25.07 L148.48,25.07 L148.53,25.07 L148.58,25.07 L148.63,25.07 L148.68,25.07 L148.73,25.07" style="stroke-width: 2; stroke: rgb(0, 0, 0); stroke-opacity: 1;"/><path d=" M30.21,117.25 L30.39,117.07 L30.57,116.89 L30.75,116.71 L30.92,116.54 L31.10,116.36 L31.28,116.18 L31.46,116.00 L31.64,115.83 L31.81,115.65 L31.99,115.47 L32.17,115.29 L32.35,115.12 L32.52,114.94 L32.70,114.76 L32.88,114.58 L33.06,114.40 L33.23,114.23 L33.41,114.05 L33.59,113.87 L33.77,113.69 L33.94,113.52 L34.12,113.34 L34.30,113.16 L34.48,112.98 L34.65,112.81 L34.83,112.63 L35.01,112.45 L35.19,112.27 L35.36,112.10 L35.54,111.92 L35.72,111.74 L35.90,111.56 L36.08,111.39 L36.25,111.21 L36.43,111.03 L36.61,110.85 L36.79,110.67 L36.96,110.50 L37.14,110.32 L37.32,110.14 L37.50,109.96 L37.67,109.79 L37.85,109.61 L38.03,109.43 L38.21,109.25 L38.38,109.08 L38.56,108.90 L38.74,108.72 L38.92,108.54 L39.09,108.37 L39.27,108.19 L39.45,108.01 L39.63,107.83 L39.81,107.66 L39.98,107.48 L40.16,107.30 L40.34,107.12 L40.52,106.94 L40.69,106.77 L40.87,106.59 L41.05,106.41 L41.23,106.23 L41.40,106.06 L41.58,105.88 L41.76,105.70 L41.94,105.52 L42.11,105.35 L42.29,105.17 L42.47,104.99 L42.65,104.81 L42.82,104.64 L43.00,104.46 L43.18,104.28 L43.36,104.10 L43.54,103.93 L43.71,103.75 L43.89,103.57 L44.07,103.39 L44.25,103.22 L44.42,103.04 L44.60,102.86 L44.78,102.68 L44.96,102.50 L45.13,102.33 L45.31,102.15 L45.49,101.97 L45.67,101.79 L45.84,101.62 L46.02,101.44 L46.20,101.26 L46.38,101.08 L46.55,100.91 L46.73,100.73 L46.91,100.55 L47.09,100.37 L47.26,100.20 L47.44,100.02 L47.62,99.84 L47.80,99.66 L47.98,99.49 L48.15,99.31 L48.33,99.13 L48.51,98.95 L48.69,98.77 L48.86,98.60 L49.04,98.42 L49.22,98.24 L49.40,98.06 L49.57,97.89 L49.75,97.71 L49.93,97.53 L50.11,97.35 L50.28,97.18 L50.46,97.00 L50.64,96.82 L50.82,96.64 L50.99,96.47 L51.17,96.29 L51.35,96.11 L51.53,95.93 L51.71,95.76 L51.88,95.58 L52.06,95.40 L52.24,95.22 L52.42,95.04 L52.59,94.87 L52.77,94.69 L52.95,94.51 L53.13,94.33 L53.30,94.16 L53.48,93.98 L53.66,93.80 L53.84,93.62 L54.01,93.45 L54.19,93.27 L54.37,93.09 L54.55,92.91 L54.72,92.74 L54.90,92.56 L55.08,92.38 L55.26,92.20 L55.44,92.03 L55.61,91.85 L55.79,91.67 L55.97,91.49 L56.15,91.32 L56.32,91.14 L56.50,90.96 L56.68,90.78 L56.86,90.60 L57.03,90.43 L57.21,90.25 L57.39,90.07 L57.57,89.89 L57.74,89.72 L57.92,89.54 L58.10,89.36 L58.28,89.18 L58.45,89.01 L58.63,88.83 L58.81,88.65 L58.99,88.47 L59.16,88.30 L59.34,88.12 L59.52,87.94 L59.70,87.76 L59.88,87.59 L60.05,87.41 L60.23,87.23 L60.41,87.05 L60.59,86.87 L60.76,86.70 L60.94,86.52 L61.12,86.34 L61.30,86.16 L61.47,85.99 L61.65,85.81 L61.83,85.63 L62.01,85.45 L62.18,85.28 L62.36,85.10 L62.54,84.92 L62.72,84.74 L62.89,84.57 L63.07,84.39 L63.25,84.21 L63.43,84.03 L63.61,83.86 L63.78,83.68 L63.96,83.50 L64.14,83.32 L64.32,83.14 L64.49,82.97 L64.67,82.79 L64.85,82.61 L65.03,82.43 L65.20,82.26 L65.38,82.08 L65.56,81.90 L65.74,81.72 L65.91,81.55 L66.09,81.37 L66.27,81.19 L66.45,81.01 L66.62,80.84 L66.80,80.66 L66.98,80.48 L67.16,80.30 L67.34,80.13 L67.51,79.95 L67.69,79.77 L67.87,79.59 L68.05,79.42 L68.22,79.24 L68.40,79.06 L68.58,78.88 L68.76,78.70 L68.93,78.53 L69.11,78.35 L69.29,78.17 L69.47,77.99 L69.64,77.82 L69.82,77.64 L70.00,77.46 L70.18,77.28 L70.35,77.11 L70.53,76.93 L70.71,76.75 L70.89,76.57 L71.06,76.40 L71.24,76.22 L71.42,76.04 L71.60,75.86 L71.78,75.69 L71.95,75.51 L72.13,75.33 L72.31,75.15 L72.49,74.97 L72.66,74.80 L72.84,74.62 L73.02,74.44 L73.20,74.26 L73.37,74.09 L73.55,73.91 L73.73,73.73 L73.91,73.55 L74.08,73.38 L74.26,73.20 L74.44,73.02 L74.62,72.84 L74.79,72.67 L74.97,72.49 L75.15,72.31 L75.33,72.13 L75.51,71.96 L75.68,71.78 L75.86,71.60 L76.04,71.42 L76.22,71.24 L76.39,71.07 L76.57,70.89 L76.75,70.71 L76.93,70.53 L77.10,70.36 L77.28,70.18 L77.46,70.00 L77.64,69.82 L77.81,69.65 L77.99,69.47 L78.17,69.29 L78.35,69.11 L78.52,68.94 L78.70,68.76 L78.88,68.58 L79.06,68.40 L79.24,68.23 L79.41,68.05 L79.59,67.87 L79.77,67.69 L79.95,67.52 L80.12,67.34 L80.30,67.16 L80.48,66.98 L80.66,66.80 L80.83,66.63 L81.01,66.45 L81.19,66.27 L81.37,66.09 L81.54,65.92 L81.72,65.74 L81.90,65.56 L82.08,65.38 L82.25,65.21 L82.43,65.03 L82.61,64.85 L82.79,64.67 L82.96,64.50 L83.14,64.32 L83.32,64.14 L83.50,63.96 L83.68,63.79 L83.85,63.61 L84.03,63.43 L84.21,63.25 L84.39,63.07 L84.56,62.90 L84.74,62.72 L84.92,62.54 L85.10,62.36 L85.27,62.19 L85.45,62.01 L85.63,61.83 L85.81,61.65 L85.98,61.48 L86.16,61.30 L86.34,61.12 L86.52,60.94 L86.69,60.77 L86.87,60.59 L87.05,60.41 L87.23,60.23 L87.41,60.06 L87.58,59.88 L87.76,59.70 L87.94,59.52 L88.12,59.34 L88.29,59.17 L88.47,58.99 L88.65,58.81 L88.83,58.63 L89.00,58.46 L89.18,58.28 L89.36,58.10 L89.54,57.92 L89.71,57.75 L89.89,57.57 L90.07,57.39 L90.25,57.21 L90.42,57.04 L90.60,56.86 L90.78,56.68 L90.96,56.50 L91.14,56.33 L91.31,56.15 L91.49,55.97 L91.67,55.79 L91.85,55.61 L92.02,55.44 L92.20,55.26 L92.38,55.08 L92.56,54.90 L92.73,54.73 L92.91,54.55 L93.09,54.37 L93.27,54.19 L93.44,54.02 L93.62,53.84 L93.80,53.66 L93.98,53.48 L94.15,53.31 L94.33,53.13 L94.51,52.95 L94.69,52.77 L94.86,52.60 L95.04,52.42 L95.22,52.24 L95.40,52.06 L95.58,51.89 L95.75,51.71 L95.93,51.53 L96.11,51.35 L96.29,51.17 L96.46,51.00 L96.64,50.82 L96.82,50.64 L97.00,50.46 L97.17,50.29 L97.35,50.11 L97.53,49.93 L97.71,49.75 L97.88,49.58 L98.06,49.40 L98.24,49.22 L98.42,49.04 L98.59,48.87 L98.77,48.69 L98.95,48.51 L99.13,48.33 L99.31,48.16 L99.48,47.98 L99.66,47.80 L99.84,47.62 L100.02,47.44 L100.19,47.27 L100.37,47.09 L100.55,46.91 L100.73,46.73 L100.90,46.56 L101.08,46.38 L101.26,46.20 L101.44,46.02 L101.61,45.85 L101.79,45.67 L101.97,45.49 L102.15,45.31 L102.32,45.14 L102.50,44.96 L102.68,44.78 L102.86,44.60 L103.04,44.43 L103.21,44.25 L103.39,44.07 L103.57,43.89 L103.75,43.71 L103.92,43.54 L104.10,43.36 L104.28,43.18 L104.46,43.00 L104.63,42.83 L104.81,42.65 L104.99,42.47 L105.17,42.29 L105.34,42.12 L105.52,41.94 L105.70,41.76 L105.88,41.58 L106.05,41.41 L106.23,41.23 L106.41,41.05 L106.59,40.87 L106.76,40.70 L106.94,40.52 L107.12,40.34 L107.30,40.16 L107.48,39.99 L107.65,39.81 L107.83,39.63 L108.01,39.45 L108.19,39.27 L108.36,39.10 L108.54,38.92 L108.72,38.74 L108.90,38.56 L109.07,38.39 L109.25,38.21 L109.43,38.03 L109.61,37.85 L109.78,37.68 L109.96,37.50 L110.14,37.32 L110.32,37.14 L110.49,36.97 L110.67,36.79 L110.85,36.61 L111.03,36.43 L111.21,36.26 L111.38,36.08 L111.56,35.90 L111.74,35.72 L111.92,35.54 L112.09,35.37 L112.27,35.19 L112.45,35.01 L112.63,34.83 L112.80,34.66 L112.98,34.48 L113.16,34.30 L113.34,34.12 L113.51,33.95 L113.69,33.77 L113.87,33.59 L114.05,33.41 L114.22,33.24 L114.40,33.06 L114.58,32.88 L114.76,32.70 L114.94,32.53 L115.11,32.35 L115.29,32.17 L115.47,31.99 L115.65,31.81 L115.82,31.64 L116.00,31.46 L116.18,31.28 L116.36,31.10 L116.53,30.93 L116.71,30.75 L116.89,30.57 L117.07,30.39 L117.24,30.22 L117.42,30.04 L117.60,29.86 L117.78,29.68 L117.95,29.51 L118.13,29.33 L118.31,29.15 L118.49,28.97 L118.66,28.80 L118.84,28.62 L119.02,28.44 L119.20,28.26 L119.38,28.09 L119.55,27.91 L119.73,27.73 L119.91,27.55 L120.09,27.37 L120.26,27.20 L120.44,27.02 L120.62,26.84 L120.80,26.66 L120.97,26.49 L121.15,26.31 L121.33,26.13 L121.51,25.95 L121.68,25.78 L121.86,25.60 L122.04,25.42 L122.22,25.24 L122.39,25.07" style="stroke-width: 2; stroke: rgb(0, 0, 0); stroke-opacity: 1;"/></g></g><g class="test-xtl" style="font-family: &quot;Open Sans&quot;, verdana, arial, sans-serif;"><text text-anchor="middle" font-size="11" dominant-baseline="hanging" stroke="none" fill="rgb(50,50,50)" fill-opacity="1" x="0.741754394534123" y="32.06568327030395">-5</text><text text-anchor="middle" font-size="11" dominant-baseline="hanging" stroke="none" fill="rgb(50,50,50)" fill-opacity="1" x="27.079109777304424" y="32.06568327030395">-4</text><text text-anchor="middle" font-size="11" dominant-baseline="hanging" stroke="none" fill="rgb(50,50,50)" fill-opacity="1" x="53.41646516007473" y="32.06568327030395">-3</text><text text-anchor="middle" font-size="11" dominant-baseline="hanging" stroke="none" fill="rgb(50,50,50)" fill-opacity="1" x="79.75382054284503" y="32.06568327030395">-2</text><text text-anchor="middle" font-size="11" dominant-baseline="hanging" stroke="none" fill="rgb(50,50,50)" fill-opacity="1" x="106.09117592561532" y="32.06568327030395">-1</text><text text-anchor="middle" font-size="11" dominant-baseline="hanging" stroke="none" fill="rgb(50,50,50)" fill-opacity="1" x="161.90088669115593" y="32.06568327030395">1</text><text text-anchor="middle" font-size="11" dominant-baseline="hanging" stroke="none" fill="rgb(50,50,50)" fill-opacity="1" x="188.23824207392624" y="32.06568327030395">2</text><text text-anchor="middle" font-size="11" dominant-baseline="hanging" stroke="none" fill="rgb(50,50,50)" fill-opacity="1" x="214.57559745669658" y="32.06568327030395">3</text><text text-anchor="middle" font-size="11" dominant-baseline="hanging" stroke="none" fill="rgb(50,50,50)" fill-opacity="1" x="240.91295283946687" y="32.06568327030395">4</text><text text-anchor="middle" font-size="11" dominant-baseline="hanging" stroke="none" fill="rgb(50,50,50)" fill-opacity="1" x="127.56353130838562" y="30.06568327030395">0</text></g><g class="test-ytl" style="font-family: &quot;Open Sans&quot;, verdana, arial, sans-serif;"><text text-anchor="end" dominant-baseline="middle" font-size="11" stroke="none" fill="rgb(50,50,50)" fill-opacity="1" x="127.56353130838562" y="104.07774941861484">-3</text><text text-anchor="end" dominant-baseline="middle" font-size="11" stroke="none" fill="rgb(50,50,50)" fill-opacity="1" x="127.56353130838562" y="77.74039403584455">-2</text><text text-anchor="end" dominant-baseline="middle" font-size="11" stroke="none" fill="rgb(50,50,50)" fill-opacity="1" x="127.56353130838562" y="51.40303865307425">-1</text></g><rect class="real" x="1" y="1" width="258" height="128.23255813953483" style="fill: transparent; stroke: none;"/></g></g></g><g/></g><g/><g/><g/></svg>
        <svg xmlns="http://www.w3.org/2000/svg" xmlns:xlink="http://www.w3.org/1999/xlink" width="660" height="300" style="width:660px;height:300px;font-family:Asana-Math, Asana;background:transparent;"><g><g><g><g transform="matrix(1,0,0,1,235,79.60000610351562)"><path transform="matrix(0.017,0,0,-0.017,0,0)" d="M9 1C24 -7 40 -11 52 -11C85 -11 124 18 155 65L231 182L242 113C255 28 278 -11 314 -11C336 -11 368 6 400 35L449 79L440 98C404 68 379 53 363 53C348 53 335 63 325 83C316 102 305 139 300 168L282 269L317 318C364 383 391 406 422 406C438 406 450 398 455 383L469 387L484 472C472 479 463 482 454 482C414 482 374 446 312 354L275 299L269 347C257 446 230 482 171 482C145 482 123 474 114 461L56 378L73 368C103 402 123 416 142 416C175 416 197 375 214 277L225 215L185 153C142 86 108 54 80 54C65 54 54 58 52 63L41 91L21 88C21 53 13 27 9 1Z" stroke="rgb(0,0,0)" stroke-opacity="1" stroke-width="8" fill="rgb(0,0,0)" fill-opacity="1"></path></g></g></g></g><g><g><g><text x="126" y="19" style="white-space:pre;stroke:none;fill:rgb(0,0,0);fill-opacity:1;font-size:15px;font-family:Arial, Helvetica, sans-serif;font-weight:400;font-style:normal;dominant-baseline:text-before-edge;text-decoration:none solid rgb(0, 0, 0);">+</text></g></g></g><g><g><g><text x="126" y="38" style="white-space:pre;stroke:none;fill:rgb(0,0,0);fill-opacity:1;font-size:15px;font-family:Arial, Helvetica, sans-serif;font-weight:400;font-style:normal;dominant-baseline:text-before-edge;text-decoration:none solid rgb(0, 0, 0);">+</text></g></g></g><g><g><g><text x="126" y="58" style="white-space:pre;stroke:none;fill:rgb(0,0,0);fill-opacity:1;font-size:15px;font-family:Arial, Helvetica, sans-serif;font-weight:400;font-style:normal;dominant-baseline:text-before-edge;text-decoration:none solid rgb(0, 0, 0);">+</text></g></g></g><g><g><g><text x="127" y="78" style="white-space:pre;stroke:none;fill:rgb(0,0,0);fill-opacity:1;font-size:15px;font-family:Arial, Helvetica, sans-serif;font-weight:400;font-style:normal;dominant-baseline:text-before-edge;text-decoration:none solid rgb(0, 0, 0);">+</text></g></g></g><g><g><g><text x="127" y="97" style="white-space:pre;stroke:none;fill:rgb(0,0,0);fill-opacity:1;font-size:15px;font-family:Arial, Helvetica, sans-serif;font-weight:400;font-style:normal;dominant-baseline:text-before-edge;text-decoration:none solid rgb(0, 0, 0);">+</text></g></g></g><g><g><g><text x="127" y="117" style="white-space:pre;stroke:none;fill:rgb(0,0,0);fill-opacity:1;font-size:15px;font-family:Arial, Helvetica, sans-serif;font-weight:400;font-style:normal;dominant-baseline:text-before-edge;text-decoration:none solid rgb(0, 0, 0);">+</text></g></g></g><g><g><g><text x="94" y="19" style="white-space:pre;stroke:none;fill:rgb(0,0,0);fill-opacity:1;font-size:15px;font-family:Arial, Helvetica, sans-serif;font-weight:400;font-style:normal;dominant-baseline:text-before-edge;text-decoration:none solid rgb(0, 0, 0);">+</text></g></g></g><g><g><g><text x="94" y="38" style="white-space:pre;stroke:none;fill:rgb(0,0,0);fill-opacity:1;font-size:15px;font-family:Arial, Helvetica, sans-serif;font-weight:400;font-style:normal;dominant-baseline:text-before-edge;text-decoration:none solid rgb(0, 0, 0);">+</text></g></g></g><g><g><g><text x="94" y="58" style="white-space:pre;stroke:none;fill:rgb(0,0,0);fill-opacity:1;font-size:15px;font-family:Arial, Helvetica, sans-serif;font-weight:400;font-style:normal;dominant-baseline:text-before-edge;text-decoration:none solid rgb(0, 0, 0);">+</text></g></g></g><g><g><g><text x="95" y="78" style="white-space:pre;stroke:none;fill:rgb(0,0,0);fill-opacity:1;font-size:15px;font-family:Arial, Helvetica, sans-serif;font-weight:400;font-style:normal;dominant-baseline:text-before-edge;text-decoration:none solid rgb(0, 0, 0);">+</text></g></g></g><g><g><g><text x="95" y="97" style="white-space:pre;stroke:none;fill:rgb(0,0,0);fill-opacity:1;font-size:15px;font-family:Arial, Helvetica, sans-serif;font-weight:400;font-style:normal;dominant-baseline:text-before-edge;text-decoration:none solid rgb(0, 0, 0);">+</text></g></g></g><g><g><g><text x="95" y="117" style="white-space:pre;stroke:none;fill:rgb(0,0,0);fill-opacity:1;font-size:15px;font-family:Arial, Helvetica, sans-serif;font-weight:400;font-style:normal;dominant-baseline:text-before-edge;text-decoration:none solid rgb(0, 0, 0);">+</text></g></g></g><g><g><g><g transform="matrix(1,0,0,1,242,181.50000610351563)"><path transform="matrix(0.0119,0,0,-0.0119,0,0)" d="M9 1C24 -7 40 -11 52 -11C85 -11 124 18 155 65L231 182L242 113C255 28 278 -11 314 -11C336 -11 368 6 400 35L449 79L440 98C404 68 379 53 363 53C348 53 335 63 325 83C316 102 305 139 300 168L282 269L317 318C364 383 391 406 422 406C438 406 450 398 455 383L469 387L484 472C472 479 463 482 454 482C414 482 374 446 312 354L275 299L269 347C257 446 230 482 171 482C145 482 123 474 114 461L56 378L73 368C103 402 123 416 142 416C175 416 197 375 214 277L225 215L185 153C142 86 108 54 80 54C65 54 54 58 52 63L41 91L21 88C21 53 13 27 9 1Z" stroke="rgb(0,0,0)" stroke-opacity="1" stroke-width="8" fill="rgb(0,0,0)" fill-opacity="1"></path></g></g><g><g transform="matrix(1,0,0,1,250.31878662109375,181.50000610351563)"><path transform="matrix(0.0119,0,0,-0.0119,0,0)" d="M297 714L242 714L-37 -169L18 -169Z" stroke="rgb(0,0,0)" stroke-opacity="1" stroke-width="8" fill="rgb(0,0,0)" fill-opacity="1"></path></g></g><g><g transform="matrix(1,0,0,1,256.10003662109375,181.50000610351563)"><path transform="matrix(0.0119,0,0,-0.0119,0,0)" d="M125 390L69 107C68 99 56 61 56 31C56 6 67 -9 86 -9C121 -9 156 11 234 74L265 99L255 117L210 86C181 66 161 56 150 56C141 56 136 64 136 76C136 102 150 183 179 328L192 390L299 390L310 440C272 436 238 434 200 434C216 528 227 577 245 631L234 646C214 634 187 622 156 610L131 440C87 419 61 408 43 403L41 390Z" stroke="rgb(0,0,0)" stroke-opacity="1" stroke-width="8" fill="rgb(0,0,0)" fill-opacity="1"></path></g></g></g></g><g><g><g><g transform="matrix(1,0,0,1,94,157.50000610351563)"><path transform="matrix(0.0119,0,0,-0.0119,0,0)" d="M310 96L239 624C237 646 241 661 281 662L323 664L323 692L282 691C245 690 217 689 199 689C181 689 153 690 116 691L75 692L75 664L100 662C144 659 152 651 159 614L247 -8L296 -8L674 611C699 651 707 658 736 662L754 664L754 692L724 691C697 690 674 689 658 689C648 689 621 690 580 691L534 692L534 664L560 662C598 659 617 649 617 630C617 619 613 608 601 588Z" stroke="rgb(0,0,0)" stroke-opacity="1" stroke-width="8" fill="rgb(0,0,0)" fill-opacity="1"></path></g></g><g><g transform="matrix(1,0,0,1,104.95626831054688,157.50000610351563)"><path transform="matrix(0.0119,0,0,-0.0119,0,0)" d="M297 714L242 714L-37 -169L18 -169Z" stroke="rgb(0,0,0)" stroke-opacity="1" stroke-width="8" fill="rgb(0,0,0)" fill-opacity="1"></path></g></g><g><g transform="matrix(1,0,0,1,110.73751831054688,157.9)"><path transform="matrix(0.0119,0,0,-0.0119,0,0)" d="M146 266C146 526 243 632 301 700L282 726C225 675 60 542 60 266C60 159 85 58 133 -32C168 -99 200 -138 282 -215L301 -194C255 -137 146 -15 146 266Z" stroke="rgb(0,0,0)" stroke-opacity="1" stroke-width="8" fill="rgb(0,0,0)" fill-opacity="1"></path></g></g><g><g transform="matrix(1,0,0,1,114.69375610351562,157.50000610351563)"><path transform="matrix(0.0119,0,0,-0.0119,0,0)" d="M171 -15C331 -15 431 100 434 257C436 343 410 361 345 404L345 407C398 407 457 403 511 411C518 431 521 451 524 474C485 453 364 467 313 457C150 424 28 329 28 153C28 48 59 -15 171 -15ZM367 267C367 168 329 13 203 13C111 13 103 112 104 182C105 292 143 412 274 412C359 412 367 328 367 267Z" stroke="rgb(0,0,0)" stroke-opacity="1" stroke-width="8" fill="rgb(0,0,0)" fill-opacity="1"></path></g></g><g><g transform="matrix(1,0,0,1,123.64376831054688,157.50000610351563)"><path transform="matrix(0.0119,0,0,-0.0119,0,0)" d="M297 714L242 714L-37 -169L18 -169Z" stroke="rgb(0,0,0)" stroke-opacity="1" stroke-width="8" fill="rgb(0,0,0)" fill-opacity="1"></path></g></g><g><g transform="matrix(1,0,0,1,129.42501831054688,157.50000610351563)"><path transform="matrix(0.0119,0,0,-0.0119,0,0)" d="M332 222C342 251 348 268 347 263C268 261 191 262 113 262C132 349 187 438 287 438C347 438 369 420 396 369L416 369L457 422C282 592 13 361 13 155C13 42 79 -11 186 -11C263 -11 327 47 386 92L386 111C339 78 283 39 224 39C150 39 89 126 105 220C117 219 305 222 332 222Z" stroke="rgb(0,0,0)" stroke-opacity="1" stroke-width="8" fill="rgb(0,0,0)" fill-opacity="1"></path></g></g><g><g><g><g><g transform="matrix(1,0,0,1,135.31875610351562,160.0050183105469)"><path transform="matrix(0.00833,0,0,-0.00833,0,0)" d="M17 152C17 46 62 -11 145 -11C200 -11 260 15 305 57C367 116 411 230 411 331C411 425 361 482 278 482C174 482 17 382 17 152ZM241 444C302 444 335 399 335 315C335 219 304 113 260 60C242 39 216 27 185 27C127 27 93 72 93 151C93 264 132 387 181 427C194 438 217 444 241 444Z" stroke="rgb(0,0,0)" stroke-opacity="1" stroke-width="8" fill="rgb(0,0,0)" fill-opacity="1"></path></g></g></g></g></g><g><g transform="matrix(1,0,0,1,139.72500610351562,157.9)"><path transform="matrix(0.0119,0,0,-0.0119,0,0)" d="M51 726L32 700C87 636 187 526 187 266C187 -10 83 -131 32 -194L51 -215C104 -165 273 -23 273 265C273 542 108 675 51 726Z" stroke="rgb(0,0,0)" stroke-opacity="1" stroke-width="8" fill="rgb(0,0,0)" fill-opacity="1"></path></g></g></g></g></svg>
</svg>
