<svg xmlns="http://www.w3.org/2000/svg" xmlns:xlink="http://www.w3.org/1999/xlink" x="0" y="0" width="662" height="359" style="
        width:662px;
        height:359px;
        background: transparent;
        fill: none;
">
        
        
        <svg xmlns="http://www.w3.org/2000/svg" class="role-diagram-draw-area"><g class="shapes-region" style="stroke: black; fill: none;"><g class="composite-shape" data-amt="diagram/shapes/plot" transform="matrix(1,0,0,1,50,20)"><g><g><g class="test-xgi"><line x1="3.9268869010164447" y1="0" x2="3.9268869010164447" y2="130" fill="none" stroke="#c3c3c3" stroke-width="0.5"/><line x1="80" y1="0" x2="80" y2="130" fill="none" stroke="#c3c3c3" stroke-width="0.5"/><line x1="156.07311309898355" y1="0" x2="156.07311309898355" y2="130" fill="none" stroke="#c3c3c3" stroke-width="0.5"/><line x1="232.14622619796708" y1="0" x2="232.14622619796708" y2="130" fill="none" stroke="#c3c3c3" stroke-width="0.5"/></g><g class="test-ygi"><line x1="0" y1="124.85177793069104" x2="279.50000000000006" y2="124.85177793069104" fill="none" stroke="#c3c3c3" stroke-width="0.5"/><line x1="0" y1="86.81522138119927" x2="279.50000000000006" y2="86.81522138119927" fill="none" stroke="#c3c3c3" stroke-width="0.5"/><line x1="0" y1="48.77866483170749" x2="279.50000000000006" y2="48.77866483170749" fill="none" stroke="#c3c3c3" stroke-width="0.5"/><line x1="0" y1="10.74210828221571" x2="279.50000000000006" y2="10.74210828221571" fill="none" stroke="#c3c3c3" stroke-width="0.5"/></g></g><g><g class="test-xti" style="font-family: Asana-Math, Asana;"><line x1="0" y1="124.85177793069104" x2="275.50000000000006" y2="124.85177793069104" fill="none" stroke="rgb(50,50,50)" stroke-opacity="1" stroke-width="1"/><line x1="80" y1="120.85177793069104" x2="80" y2="128.85177793069104" fill="none" stroke="rgb(50,50,50)" stroke-opacity="1" stroke-width="1"/><line x1="156.07311309898355" y1="120.85177793069104" x2="156.07311309898355" y2="128.85177793069104" fill="none" stroke="rgb(50,50,50)" stroke-opacity="1" stroke-width="1"/><line x1="232.14622619796708" y1="120.85177793069104" x2="232.14622619796708" y2="128.85177793069104" fill="none" stroke="rgb(50,50,50)" stroke-opacity="1" stroke-width="1"/><path d="M270.50000000000006,121.25177793069105 L278.50000000000006,124.85177793069104 L270.50000000000006,128.45177793069104 Z" stroke="none" stroke-width="1" fill="rgb(50,50,50)" fill-opacity="1"/></g><g class="test-plot-expression"><defs><clipPath id="cpkx6uzyq2p"><rect x="1" y="1" width="277.50000000000006" height="128"/></clipPath></defs><g clip-path="url(#cpkx6uzyq2p)"><path d=" M3.93,-130.00 L4.06,-130.00 L4.20,-130.00 L4.34,-130.00 L4.47,-130.00 L4.61,-130.00 L4.74,-130.00 L4.88,-130.00 L5.02,-130.00 L5.15,-130.00 L5.29,-130.00 L5.43,-130.00 L5.56,-130.00 L5.70,-130.00 L5.84,-130.00 L5.97,-130.00 L6.11,-130.00 L6.24,-130.00 L6.38,-130.00 L6.52,-130.00 L6.65,-130.00 L6.79,-130.00 L6.93,-130.00 L7.06,-130.00 L7.20,-130.00 L7.34,-130.00 L7.47,-130.00 L7.61,-130.00 L7.74,-130.00 L7.88,-130.00 L8.02,-130.00 L8.15,-130.00 L8.29,-130.00 L8.43,-130.00 L8.56,-130.00 L8.70,-130.00 L8.83,-130.00 L8.97,-130.00 L9.11,-130.00 L9.24,-130.00 L9.38,-130.00 L9.52,-130.00 L9.65,-130.00 L9.79,-130.00 L9.93,-130.00 L10.06,-130.00 L10.20,-130.00 L10.33,-130.00 L10.47,-130.00 L10.61,-130.00 L10.74,-130.00 L10.88,-130.00 L11.02,-130.00 L11.15,-130.00 L11.29,-130.00 L11.43,-130.00 L11.56,-130.00 L11.70,-130.00 L11.83,-130.00 L11.97,-130.00 L12.11,-130.00 L12.24,-130.00 L12.38,-130.00 L12.52,-130.00 L12.65,-130.00 L12.79,-130.00 L12.92,-130.00 L13.06,-130.00 L13.20,-130.00 L13.33,-130.00 L13.47,-130.00 L13.61,-130.00 L13.74,-130.00 L13.88,-130.00 L14.02,-130.00 L14.15,-130.00 L14.29,-130.00 L14.42,-130.00 L14.56,-130.00 L14.70,-130.00 L14.83,-130.00 L14.97,-130.00 L15.11,-130.00 L15.24,-130.00 L15.38,-130.00 L15.52,-130.00 L15.65,-130.00 L15.79,-130.00 L15.92,-130.00 L16.06,-130.00 L16.20,-130.00 L16.33,-130.00 L16.47,-130.00 L16.61,-130.00 L16.74,-130.00 L16.88,-130.00 L17.01,-130.00 L17.15,-130.00 L17.29,-130.00 L17.42,-130.00 L17.56,-130.00 L17.70,-130.00 L17.83,-130.00 L17.97,-130.00 L18.11,-130.00 L18.24,-130.00 L18.38,-130.00 L18.51,-130.00 L18.65,-130.00 L18.79,-130.00 L18.92,-130.00 L19.06,-130.00 L19.20,-130.00 L19.33,-130.00 L19.47,-130.00 L19.61,-130.00 L19.74,-130.00 L19.88,-130.00 L20.01,-130.00 L20.15,-130.00 L20.29,-130.00 L20.42,-130.00 L20.56,-130.00 L20.70,-130.00 L20.83,-130.00 L20.97,-130.00 L21.10,-130.00 L21.24,-130.00 L21.38,-130.00 L21.51,-130.00 L21.65,-130.00 L21.79,-130.00 L21.92,-130.00 L22.06,-130.00 L22.20,-130.00 L22.33,-130.00 L22.47,-130.00 L22.60,-130.00 L22.74,-130.00 L22.88,-130.00 L23.01,-130.00 L23.15,-130.00 L23.29,-130.00 L23.42,-130.00 L23.56,-130.00 L23.69,-130.00 L23.83,-130.00 L23.97,-130.00 L24.10,-130.00 L24.24,-130.00 L24.38,-130.00 L24.51,-130.00 L24.65,-130.00 L24.79,-130.00 L24.92,-130.00 L25.06,-130.00 L25.19,-130.00 L25.33,-130.00 L25.47,-130.00 L25.60,-130.00 L25.74,-130.00 L25.88,-130.00 L26.01,-130.00 L26.15,-130.00 L26.29,-130.00 L26.42,-130.00 L26.56,-130.00 L26.69,-130.00 L26.83,-130.00 L26.97,-130.00 L27.10,-130.00 L27.24,-130.00 L27.38,-130.00 L27.51,-130.00 L27.65,-130.00 L27.78,-130.00 L27.92,-130.00 L28.06,-130.00 L28.19,-130.00 L28.33,-130.00 L28.47,-130.00 L28.60,-130.00 L28.74,-130.00 L28.88,-130.00 L29.01,-130.00 L29.15,-130.00 L29.28,-130.00 L29.42,-130.00 L29.56,-130.00 L29.69,-130.00 L29.83,-130.00 L29.97,-130.00 L30.10,-130.00 L30.24,-130.00 L30.38,-130.00 L30.51,-130.00 L30.65,-130.00 L30.78,-130.00 L30.92,-130.00 L31.06,-130.00 L31.19,-130.00 L31.33,-130.00 L31.47,-130.00 L31.60,-130.00 L31.74,-130.00 L31.87,-130.00 L32.01,-130.00 L32.15,-130.00 L32.28,-130.00 L32.42,-130.00 L32.56,-130.00 L32.69,-130.00 L32.83,-130.00 L32.97,-130.00 L33.10,-130.00 L33.24,-130.00 L33.37,-130.00 L33.51,-130.00 L33.65,-130.00 L33.78,-130.00 L33.92,-130.00 L34.06,-130.00 L34.19,-130.00 L34.33,-130.00 L34.47,-130.00 L34.60,-130.00 L34.74,-130.00 L34.87,-130.00 L35.01,-130.00 L35.15,-130.00 L35.28,-130.00 L35.42,-130.00 L35.56,-130.00 L35.69,-130.00 L35.83,-130.00 L35.96,-130.00 L36.10,-130.00 L36.24,-130.00 L36.37,-130.00 L36.51,-130.00 L36.65,-130.00 L36.78,-130.00 L36.92,-130.00 L37.06,-130.00 L37.19,-130.00 L37.33,-130.00 L37.46,-130.00 L37.60,-130.00 L37.74,-130.00 L37.87,-130.00 L38.01,-130.00 L38.15,-130.00 L38.28,-130.00 L38.42,-130.00 L38.56,-130.00 L38.69,-130.00 L38.83,-130.00 L38.96,-130.00 L39.10,-130.00 L39.24,-130.00 L39.37,-130.00 L39.51,-130.00 L39.65,-130.00 L39.78,-130.00 L39.92,-130.00 L40.05,-130.00 L40.19,-130.00 L40.33,-130.00 L40.46,-130.00 L40.60,-130.00 L40.74,-130.00 L40.87,-130.00 L41.01,-130.00 L41.15,-130.00 L41.28,-130.00 L41.42,-130.00 L41.55,-130.00 L41.69,-130.00 L41.83,-130.00 L41.96,-130.00 L42.10,-130.00 L42.24,-130.00 L42.37,-130.00 L42.51,-130.00 L42.65,-130.00 L42.78,-130.00 L42.92,-130.00 L43.05,-130.00 L43.19,-130.00 L43.33,-130.00 L43.46,-130.00 L43.60,-130.00 L43.74,-130.00 L43.87,-130.00 L44.01,-130.00 L44.14,-130.00 L44.28,-130.00 L44.42,-130.00 L44.55,-130.00 L44.69,-130.00 L44.83,-130.00 L44.96,-130.00 L45.10,-130.00 L45.24,-130.00 L45.37,-130.00 L45.51,-129.77 L45.64,-128.11 L45.78,-126.47 L45.92,-124.84 L46.05,-123.22 L46.19,-121.63 L46.33,-120.04 L46.46,-118.48 L46.60,-116.92 L46.74,-115.39 L46.87,-113.86 L47.01,-112.35 L47.14,-110.86 L47.28,-109.38 L47.42,-107.91 L47.55,-106.46 L47.69,-105.02 L47.83,-103.60 L47.96,-102.18 L48.10,-100.78 L48.23,-99.40 L48.37,-98.02 L48.51,-96.66 L48.64,-95.32 L48.78,-93.98 L48.92,-92.65 L49.05,-91.34 L49.19,-90.04 L49.33,-88.75 L49.46,-87.48 L49.60,-86.21 L49.73,-84.96 L49.87,-83.71 L50.01,-82.48 L50.14,-81.26 L50.28,-80.05 L50.42,-78.85 L50.55,-77.66 L50.69,-76.48 L50.83,-75.31 L50.96,-74.15 L51.10,-73.00 L51.23,-71.86 L51.37,-70.74 L51.51,-69.62 L51.64,-68.51 L51.78,-67.41 L51.92,-66.32 L52.05,-65.23 L52.19,-64.16 L52.32,-63.10 L52.46,-62.04 L52.60,-61.00 L52.73,-59.96 L52.87,-58.93 L53.01,-57.91 L53.14,-56.90 L53.28,-55.90 L53.42,-54.91 L53.55,-53.92 L53.69,-52.94 L53.82,-51.97 L53.96,-51.01 L54.10,-50.05 L54.23,-49.11 L54.37,-48.17 L54.51,-47.24 L54.64,-46.31 L54.78,-45.40 L54.91,-44.49 L55.05,-43.59 L55.19,-42.69 L55.32,-41.80 L55.46,-40.92 L55.60,-40.05 L55.73,-39.18 L55.87,-38.32 L56.01,-37.47 L56.14,-36.62 L56.28,-35.78 L56.41,-34.95 L56.55,-34.12 L56.69,-33.30 L56.82,-32.49 L56.96,-31.68 L57.10,-30.88 L57.23,-30.08 L57.37,-29.29 L57.51,-28.51 L57.64,-27.73 L57.78,-26.96 L57.91,-26.19 L58.05,-25.43 L58.19,-24.68 L58.32,-23.93 L58.46,-23.19 L58.60,-22.45 L58.73,-21.72 L58.87,-20.99 L59.00,-20.27 L59.14,-19.56 L59.28,-18.85 L59.41,-18.14 L59.55,-17.44 L59.69,-16.74 L59.82,-16.05 L59.96,-15.37 L60.10,-14.69 L60.23,-14.02 L60.37,-13.35 L60.50,-12.68 L60.64,-12.02 L60.78,-11.36 L60.91,-10.71 L61.05,-10.07 L61.19,-9.43 L61.32,-8.79 L61.46,-8.16 L61.60,-7.53 L61.73,-6.90 L61.87,-6.28 L62.00,-5.67 L62.14,-5.06 L62.28,-4.45 L62.41,-3.85 L62.55,-3.25 L62.69,-2.66 L62.82,-2.07 L62.96,-1.48 L63.09,-0.90 L63.23,-0.32 L63.37,0.25 L63.50,0.82 L63.64,1.38 L63.78,1.95 L63.91,2.50 L64.05,3.06 L64.19,3.61 L64.32,4.16 L64.46,4.70 L64.59,5.24 L64.73,5.77 L64.87,6.31 L65.00,6.84 L65.14,7.36 L65.28,7.88 L65.41,8.40 L65.55,8.91 L65.69,9.43 L65.82,9.93 L65.96,10.44 L66.09,10.94 L66.23,11.44 L66.37,11.93 L66.50,12.42 L66.64,12.91 L66.78,13.40 L66.91,13.88 L67.05,14.36 L67.18,14.83 L67.32,15.31 L67.46,15.78 L67.59,16.24 L67.73,16.71 L67.87,17.17 L68.00,17.62 L68.14,18.08 L68.28,18.53 L68.41,18.98 L68.55,19.43 L68.68,19.87 L68.82,20.31 L68.96,20.75 L69.09,21.18 L69.23,21.62 L69.37,22.05 L69.50,22.47 L69.64,22.90 L69.78,23.32 L69.91,23.74 L70.05,24.15 L70.18,24.57 L70.32,24.98 L70.46,25.39 L70.59,25.80 L70.73,26.20 L70.87,26.60 L71.00,27.00 L71.14,27.40 L71.27,27.79 L71.41,28.18 L71.55,28.57 L71.68,28.96 L71.82,29.34 L71.96,29.73 L72.09,30.11 L72.23,30.48 L72.37,30.86 L72.50,31.23 L72.64,31.60 L72.77,31.97 L72.91,32.34 L73.05,32.70 L73.18,33.07 L73.32,33.43 L73.46,33.79 L73.59,34.14 L73.73,34.50 L73.87,34.85 L74.00,35.20 L74.14,35.54 L74.27,35.89 L74.41,36.23 L74.55,36.58 L74.68,36.92 L74.82,37.25 L74.96,37.59 L75.09,37.92 L75.23,38.26 L75.36,38.59 L75.50,38.91 L75.64,39.24 L75.77,39.57 L75.91,39.89 L76.05,40.21 L76.18,40.53 L76.32,40.85 L76.46,41.16 L76.59,41.47 L76.73,41.79 L76.86,42.10 L77.00,42.41 L77.14,42.71 L77.27,43.02 L77.41,43.32 L77.55,43.62 L77.68,43.92 L77.82,44.22 L77.96,44.52 L78.09,44.81 L78.23,45.11 L78.36,45.40 L78.50,45.69 L78.64,45.98 L78.77,46.26 L78.91,46.55 L79.05,46.83 L79.18,47.12 L79.32,47.40 L79.45,47.68 L79.59,47.95 L79.73,48.23 L79.86,48.51 L80.00,48.78 L80.00,48.78" style="stroke-width: 2; stroke: rgb(0, 0, 0); stroke-opacity: 1;"/><path d=" M156.07,105.83 L156.21,105.87 L156.35,105.90 L156.48,105.94 L156.62,105.97 L156.75,106.00 L156.89,106.04 L157.03,106.07 L157.16,106.10 L157.30,106.14 L157.44,106.17 L157.57,106.20 L157.71,106.24 L157.85,106.27 L157.98,106.30 L158.12,106.33 L158.25,106.37 L158.39,106.40 L158.53,106.43 L158.66,106.46 L158.80,106.50 L158.94,106.53 L159.07,106.56 L159.21,106.59 L159.35,106.63 L159.48,106.66 L159.62,106.69 L159.75,106.72 L159.89,106.75 L160.03,106.78 L160.16,106.82 L160.30,106.85 L160.44,106.88 L160.57,106.91 L160.71,106.94 L160.84,106.97 L160.98,107.00 L161.12,107.03 L161.25,107.07 L161.39,107.10 L161.53,107.13 L161.66,107.16 L161.80,107.19 L161.94,107.22 L162.07,107.25 L162.21,107.28 L162.34,107.31 L162.48,107.34 L162.62,107.37 L162.75,107.40 L162.89,107.43 L163.03,107.46 L163.16,107.49 L163.30,107.52 L163.44,107.55 L163.57,107.58 L163.71,107.61 L163.84,107.64 L163.98,107.67 L164.12,107.70 L164.25,107.72 L164.39,107.75 L164.53,107.78 L164.66,107.81 L164.80,107.84 L164.93,107.87 L165.07,107.90 L165.21,107.93 L165.34,107.96 L165.48,107.98 L165.62,108.01 L165.75,108.04 L165.89,108.07 L166.03,108.10 L166.16,108.13 L166.30,108.15 L166.43,108.18 L166.57,108.21 L166.71,108.24 L166.84,108.26 L166.98,108.29 L167.12,108.32 L167.25,108.35 L167.39,108.38 L167.52,108.40 L167.66,108.43 L167.80,108.46 L167.93,108.48 L168.07,108.51 L168.21,108.54 L168.34,108.57 L168.48,108.59 L168.62,108.62 L168.75,108.65 L168.89,108.67 L169.02,108.70 L169.16,108.73 L169.30,108.75 L169.43,108.78 L169.57,108.81 L169.71,108.83 L169.84,108.86 L169.98,108.89 L170.12,108.91 L170.25,108.94 L170.39,108.96 L170.52,108.99 L170.66,109.02 L170.80,109.04 L170.93,109.07 L171.07,109.09 L171.21,109.12 L171.34,109.14 L171.48,109.17 L171.61,109.20 L171.75,109.22 L171.89,109.25 L172.02,109.27 L172.16,109.30 L172.30,109.32 L172.43,109.35 L172.57,109.37 L172.71,109.40 L172.84,109.42 L172.98,109.45 L173.11,109.47 L173.25,109.50 L173.39,109.52 L173.52,109.55 L173.66,109.57 L173.80,109.59 L173.93,109.62 L174.07,109.64 L174.21,109.67 L174.34,109.69 L174.48,109.72 L174.61,109.74 L174.75,109.76 L174.89,109.79 L175.02,109.81 L175.16,109.84 L175.30,109.86 L175.43,109.88 L175.57,109.91 L175.70,109.93 L175.84,109.96 L175.98,109.98 L176.11,110.00 L176.25,110.03 L176.39,110.05 L176.52,110.07 L176.66,110.10 L176.80,110.12 L176.93,110.14 L177.07,110.17 L177.20,110.19 L177.34,110.21 L177.48,110.24 L177.61,110.26 L177.75,110.28 L177.89,110.30 L178.02,110.33 L178.16,110.35 L178.30,110.37 L178.43,110.39 L178.57,110.42 L178.70,110.44 L178.84,110.46 L178.98,110.48 L179.11,110.51 L179.25,110.53 L179.39,110.55 L179.52,110.57 L179.66,110.60 L179.79,110.62 L179.93,110.64 L180.07,110.66 L180.20,110.68 L180.34,110.71 L180.48,110.73 L180.61,110.75 L180.75,110.77 L180.89,110.79 L181.02,110.81 L181.16,110.84 L181.29,110.86 L181.43,110.88 L181.57,110.90 L181.70,110.92 L181.84,110.94 L181.98,110.96 L182.11,110.99 L182.25,111.01 L182.39,111.03 L182.52,111.05 L182.66,111.07 L182.79,111.09 L182.93,111.11 L183.07,111.13 L183.20,111.15 L183.34,111.17 L183.48,111.20 L183.61,111.22 L183.75,111.24 L183.88,111.26 L184.02,111.28 L184.16,111.30 L184.29,111.32 L184.43,111.34 L184.57,111.36 L184.70,111.38 L184.84,111.40 L184.98,111.42 L185.11,111.44 L185.25,111.46 L185.38,111.48 L185.52,111.50 L185.66,111.52 L185.79,111.54 L185.93,111.56 L186.07,111.58 L186.20,111.60 L186.34,111.62 L186.48,111.64 L186.61,111.66 L186.75,111.68 L186.88,111.70 L187.02,111.72 L187.16,111.74 L187.29,111.76 L187.43,111.78 L187.57,111.80 L187.70,111.82 L187.84,111.84 L187.97,111.86 L188.11,111.87 L188.25,111.89 L188.38,111.91 L188.52,111.93 L188.66,111.95 L188.79,111.97 L188.93,111.99 L189.07,112.01 L189.20,112.03 L189.34,112.05 L189.47,112.06 L189.61,112.08 L189.75,112.10 L189.88,112.12 L190.02,112.14 L190.16,112.16 L190.29,112.18 L190.43,112.19 L190.57,112.21 L190.70,112.23 L190.84,112.25 L190.97,112.27 L191.11,112.29 L191.25,112.31 L191.38,112.32 L191.52,112.34 L191.66,112.36 L191.79,112.38 L191.93,112.40 L192.06,112.41 L192.20,112.43 L192.34,112.45 L192.47,112.47 L192.61,112.49 L192.75,112.50 L192.88,112.52 L193.02,112.54 L193.16,112.56 L193.29,112.57 L193.43,112.59 L193.56,112.61 L193.70,112.63 L193.84,112.65 L193.97,112.66 L194.11,112.68 L194.25,112.70 L194.38,112.71 L194.52,112.73 L194.65,112.75 L194.79,112.77 L194.93,112.78 L195.06,112.80 L195.20,112.82 L195.34,112.84 L195.47,112.85 L195.61,112.87 L195.75,112.89 L195.88,112.90 L196.02,112.92 L196.15,112.94 L196.29,112.95 L196.43,112.97 L196.56,112.99 L196.70,113.00 L196.84,113.02 L196.97,113.04 L197.11,113.06 L197.25,113.07 L197.38,113.09 L197.52,113.10 L197.65,113.12 L197.79,113.14 L197.93,113.15 L198.06,113.17 L198.20,113.19 L198.34,113.20 L198.47,113.22 L198.61,113.24 L198.74,113.25 L198.88,113.27 L199.02,113.28 L199.15,113.30 L199.29,113.32 L199.43,113.33 L199.56,113.35 L199.70,113.37 L199.84,113.38 L199.97,113.40 L200.11,113.41 L200.24,113.43 L200.38,113.44 L200.52,113.46 L200.65,113.48 L200.79,113.49 L200.93,113.51 L201.06,113.52 L201.20,113.54 L201.34,113.55 L201.47,113.57 L201.61,113.59 L201.74,113.60 L201.88,113.62 L202.02,113.63 L202.15,113.65 L202.29,113.66 L202.43,113.68 L202.56,113.69 L202.70,113.71 L202.83,113.72 L202.97,113.74 L203.11,113.75 L203.24,113.77 L203.38,113.79 L203.52,113.80 L203.65,113.82 L203.79,113.83 L203.93,113.85 L204.06,113.86 L204.20,113.88 L204.33,113.89 L204.47,113.91 L204.61,113.92 L204.74,113.94 L204.88,113.95 L205.02,113.96 L205.15,113.98 L205.29,113.99 L205.43,114.01 L205.56,114.02 L205.70,114.04 L205.83,114.05 L205.97,114.07 L206.11,114.08 L206.24,114.10 L206.38,114.11 L206.52,114.13 L206.65,114.14 L206.79,114.15 L206.92,114.17 L207.06,114.18 L207.20,114.20 L207.33,114.21 L207.47,114.23 L207.61,114.24 L207.74,114.25 L207.88,114.27 L208.02,114.28 L208.15,114.30 L208.29,114.31 L208.42,114.32 L208.56,114.34 L208.70,114.35 L208.83,114.37 L208.97,114.38 L209.11,114.39 L209.24,114.41 L209.38,114.42 L209.52,114.44 L209.65,114.45 L209.79,114.46 L209.92,114.48 L210.06,114.49 L210.20,114.50 L210.33,114.52 L210.47,114.53 L210.61,114.55 L210.74,114.56 L210.88,114.57 L211.01,114.59 L211.15,114.60 L211.29,114.61 L211.42,114.63 L211.56,114.64 L211.70,114.65 L211.83,114.67 L211.97,114.68 L212.11,114.69 L212.24,114.71 L212.38,114.72 L212.51,114.73 L212.65,114.75 L212.79,114.76 L212.92,114.77 L213.06,114.79 L213.20,114.80 L213.33,114.81 L213.47,114.83 L213.61,114.84 L213.74,114.85 L213.88,114.86 L214.01,114.88 L214.15,114.89 L214.29,114.90 L214.42,114.92 L214.56,114.93 L214.70,114.94 L214.83,114.95 L214.97,114.97 L215.10,114.98 L215.24,114.99 L215.38,115.01 L215.51,115.02 L215.65,115.03 L215.79,115.04 L215.92,115.06 L216.06,115.07 L216.20,115.08 L216.33,115.09 L216.47,115.11 L216.60,115.12 L216.74,115.13 L216.88,115.14 L217.01,115.16 L217.15,115.17 L217.29,115.18 L217.42,115.19 L217.56,115.21 L217.70,115.22 L217.83,115.23 L217.97,115.24 L218.10,115.25 L218.24,115.27 L218.38,115.28 L218.51,115.29 L218.65,115.30 L218.79,115.32 L218.92,115.33 L219.06,115.34 L219.19,115.35 L219.33,115.36 L219.47,115.38 L219.60,115.39 L219.74,115.40 L219.88,115.41 L220.01,115.42 L220.15,115.44 L220.29,115.45 L220.42,115.46 L220.56,115.47 L220.69,115.48 L220.83,115.49 L220.97,115.51 L221.10,115.52 L221.24,115.53 L221.38,115.54 L221.51,115.55 L221.65,115.56 L221.79,115.58 L221.92,115.59 L222.06,115.60 L222.19,115.61 L222.33,115.62 L222.47,115.63 L222.60,115.65 L222.74,115.66 L222.88,115.67 L223.01,115.68 L223.15,115.69 L223.28,115.70 L223.42,115.71 L223.56,115.73 L223.69,115.74 L223.83,115.75 L223.97,115.76 L224.10,115.77 L224.24,115.78 L224.38,115.79 L224.51,115.80 L224.65,115.82 L224.78,115.83 L224.92,115.84 L225.06,115.85 L225.19,115.86 L225.33,115.87 L225.47,115.88 L225.60,115.89 L225.74,115.90 L225.87,115.91 L226.01,115.93 L226.15,115.94 L226.28,115.95 L226.42,115.96 L226.56,115.97 L226.69,115.98 L226.83,115.99 L226.97,116.00 L227.10,116.01 L227.24,116.02 L227.37,116.03 L227.51,116.05 L227.65,116.06 L227.78,116.07 L227.92,116.08 L228.06,116.09 L228.19,116.10 L228.33,116.11 L228.47,116.12 L228.60,116.13 L228.74,116.14 L228.87,116.15 L229.01,116.16 L229.15,116.17 L229.28,116.18 L229.42,116.19 L229.56,116.20 L229.69,116.21 L229.83,116.22 L229.96,116.24 L230.10,116.25 L230.24,116.26 L230.37,116.27 L230.51,116.28 L230.65,116.29 L230.78,116.30 L230.92,116.31 L231.06,116.32 L231.19,116.33 L231.33,116.34 L231.46,116.35 L231.60,116.36 L231.74,116.37 L231.87,116.38 L232.01,116.39 L232.15,116.40 L232.15,116.40" style="stroke-width: 2; stroke: rgb(0, 0, 0); stroke-opacity: 1;"/><path d=" M80.00,124.85 L80.14,124.85 L80.27,124.85 L80.41,124.85 L80.55,124.85 L80.68,124.85 L80.82,124.85 L80.95,124.85 L81.09,124.85 L81.23,124.85 L81.36,124.85 L81.50,124.85 L81.64,124.85 L81.77,124.85 L81.91,124.85 L82.04,124.85 L82.18,124.85 L82.32,124.85 L82.45,124.85 L82.59,124.85 L82.73,124.85 L82.86,124.85 L83.00,124.85 L83.14,124.85 L83.27,124.85 L83.41,124.85 L83.54,124.85 L83.68,124.85 L83.82,124.85 L83.95,124.85 L84.09,124.85 L84.23,124.85 L84.36,124.85 L84.50,124.85 L84.64,124.85 L84.77,124.85 L84.91,124.85 L85.04,124.85 L85.18,124.85 L85.32,124.85 L85.45,124.85 L85.59,124.85 L85.73,124.85 L85.86,124.85 L86.00,124.85 L86.13,124.85 L86.27,124.85 L86.41,124.85 L86.54,124.85 L86.68,124.85 L86.82,124.85 L86.95,124.85 L87.09,124.85 L87.23,124.85 L87.36,124.85 L87.50,124.85 L87.63,124.85 L87.77,124.85 L87.91,124.85 L88.04,124.85 L88.18,124.85 L88.32,124.85 L88.45,124.85 L88.59,124.85 L88.73,124.85 L88.86,124.85 L89.00,124.85 L89.13,124.85 L89.27,124.85 L89.41,124.85 L89.54,124.85 L89.68,124.85 L89.82,124.85 L89.95,124.85 L90.09,124.85 L90.22,124.85 L90.36,124.85 L90.50,124.85 L90.63,124.85 L90.77,124.85 L90.91,124.85 L91.04,124.85 L91.18,124.85 L91.32,124.85 L91.45,124.85 L91.59,124.85 L91.72,124.85 L91.86,124.85 L92.00,124.85 L92.13,124.85 L92.27,124.85 L92.41,124.85 L92.54,124.85 L92.68,124.85 L92.82,124.85 L92.95,124.85 L93.09,124.85 L93.22,124.85 L93.36,124.85 L93.50,124.85 L93.63,124.85 L93.77,124.85 L93.91,124.85 L94.04,124.85 L94.18,124.85 L94.31,124.85 L94.45,124.85 L94.59,124.85 L94.72,124.85 L94.86,124.85 L95.00,124.85 L95.13,124.85 L95.27,124.85 L95.41,124.85 L95.54,124.85 L95.68,124.85 L95.81,124.85 L95.95,124.85 L96.09,124.85 L96.22,124.85 L96.36,124.85 L96.50,124.85 L96.63,124.85 L96.77,124.85 L96.91,124.85 L97.04,124.85 L97.18,124.85 L97.31,124.85 L97.45,124.85 L97.59,124.85 L97.72,124.85 L97.86,124.85 L98.00,124.85 L98.13,124.85 L98.27,124.85 L98.40,124.85 L98.54,124.85 L98.68,124.85 L98.81,124.85 L98.95,124.85 L99.09,124.85 L99.22,124.85 L99.36,124.85 L99.50,124.85 L99.63,124.85 L99.77,124.85 L99.90,124.85 L100.04,124.85 L100.18,124.85 L100.31,124.85 L100.45,124.85 L100.59,124.85 L100.72,124.85 L100.86,124.85 L101.00,124.85 L101.13,124.85 L101.27,124.85 L101.40,124.85 L101.54,124.85 L101.68,124.85 L101.81,124.85 L101.95,124.85 L102.09,124.85 L102.22,124.85 L102.36,124.85 L102.49,124.85 L102.63,124.85 L102.77,124.85 L102.90,124.85 L103.04,124.85 L103.18,124.85 L103.31,124.85 L103.45,124.85 L103.59,124.85 L103.72,124.85 L103.86,124.85 L103.99,124.85 L104.13,124.85 L104.27,124.85 L104.40,124.85 L104.54,124.85 L104.68,124.85 L104.81,124.85 L104.95,124.85 L105.09,124.85 L105.22,124.85 L105.36,124.85 L105.49,124.85 L105.63,124.85 L105.77,124.85 L105.90,124.85 L106.04,124.85 L106.18,124.85 L106.31,124.85 L106.45,124.85 L106.58,124.85 L106.72,124.85 L106.86,124.85 L106.99,124.85 L107.13,124.85 L107.27,124.85 L107.40,124.85 L107.54,124.85 L107.68,124.85 L107.81,124.85 L107.95,124.85 L108.08,124.85 L108.22,124.85 L108.36,124.85 L108.49,124.85 L108.63,124.85 L108.77,124.85 L108.90,124.85 L109.04,124.85 L109.17,124.85 L109.31,124.85 L109.45,124.85 L109.58,124.85 L109.72,124.85 L109.86,124.85 L109.99,124.85 L110.13,124.85 L110.27,124.85 L110.40,124.85 L110.54,124.85 L110.67,124.85 L110.81,124.85 L110.95,124.85 L111.08,124.85 L111.22,124.85 L111.36,124.85 L111.49,124.85 L111.63,124.85 L111.77,124.85 L111.90,124.85 L112.04,124.85 L112.17,124.85 L112.31,124.85 L112.45,124.85 L112.58,124.85 L112.72,124.85 L112.86,124.85 L112.99,124.85 L113.13,124.85 L113.26,124.85 L113.40,124.85 L113.54,124.85 L113.67,124.85 L113.81,124.85 L113.95,124.85 L114.08,124.85 L114.22,124.85 L114.36,124.85 L114.49,124.85 L114.63,124.85 L114.76,124.85 L114.90,124.85 L115.04,124.85 L115.17,124.85 L115.31,124.85 L115.45,124.85 L115.58,124.85 L115.72,124.85 L115.86,124.85 L115.99,124.85 L116.13,124.85 L116.26,124.85 L116.40,124.85 L116.54,124.85 L116.67,124.85 L116.81,124.85 L116.95,124.85 L117.08,124.85 L117.22,124.85 L117.35,124.85 L117.49,124.85 L117.63,124.85 L117.76,124.85 L117.90,124.85 L118.04,124.85 L118.17,124.85 L118.31,124.85 L118.45,124.85 L118.58,124.85 L118.72,124.85 L118.85,124.85 L118.99,124.85 L119.13,124.85 L119.26,124.85 L119.40,124.85 L119.54,124.85 L119.67,124.85 L119.81,124.85 L119.95,124.85 L120.08,124.85 L120.22,124.85 L120.35,124.85 L120.49,124.85 L120.63,124.85 L120.76,124.85 L120.90,124.85 L121.04,124.85 L121.17,124.85 L121.31,124.85 L121.44,124.85 L121.58,124.85 L121.72,124.85 L121.85,124.85 L121.99,124.85 L122.13,124.85 L122.26,124.85 L122.40,124.85 L122.54,124.85 L122.67,124.85 L122.81,124.85 L122.94,124.85 L123.08,124.85 L123.22,124.85 L123.35,124.85 L123.49,124.85 L123.63,124.85 L123.76,124.85 L123.90,124.85 L124.04,124.85 L124.17,124.85 L124.31,124.85 L124.44,124.85 L124.58,124.85 L124.72,124.85 L124.85,124.85 L124.99,124.85 L125.13,124.85 L125.26,124.85 L125.40,124.85 L125.53,124.85 L125.67,124.85 L125.81,124.85 L125.94,124.85 L126.08,124.85 L126.22,124.85 L126.35,124.85 L126.49,124.85 L126.63,124.85 L126.76,124.85 L126.90,124.85 L127.03,124.85 L127.17,124.85 L127.31,124.85 L127.44,124.85 L127.58,124.85 L127.72,124.85 L127.85,124.85 L127.99,124.85 L128.13,124.85 L128.26,124.85 L128.40,124.85 L128.53,124.85 L128.67,124.85 L128.81,124.85 L128.94,124.85 L129.08,124.85 L129.22,124.85 L129.35,124.85 L129.49,124.85 L129.62,124.85 L129.76,124.85 L129.90,124.85 L130.03,124.85 L130.17,124.85 L130.31,124.85 L130.44,124.85 L130.58,124.85 L130.72,124.85 L130.85,124.85 L130.99,124.85 L131.12,124.85 L131.26,124.85 L131.40,124.85 L131.53,124.85 L131.67,124.85 L131.81,124.85 L131.94,124.85 L132.08,124.85 L132.22,124.85 L132.35,124.85 L132.49,124.85 L132.62,124.85 L132.76,124.85 L132.90,124.85 L133.03,124.85 L133.17,124.85 L133.31,124.85 L133.44,124.85 L133.58,124.85 L133.71,124.85 L133.85,124.85 L133.99,124.85 L134.12,124.85 L134.26,124.85 L134.40,124.85 L134.53,124.85 L134.67,124.85 L134.81,124.85 L134.94,124.85 L135.08,124.85 L135.21,124.85 L135.35,124.85 L135.49,124.85 L135.62,124.85 L135.76,124.85 L135.90,124.85 L136.03,124.85 L136.17,124.85 L136.31,124.85 L136.44,124.85 L136.58,124.85 L136.71,124.85 L136.85,124.85 L136.99,124.85 L137.12,124.85 L137.26,124.85 L137.40,124.85 L137.53,124.85 L137.67,124.85 L137.80,124.85 L137.94,124.85 L138.08,124.85 L138.21,124.85 L138.35,124.85 L138.49,124.85 L138.62,124.85 L138.76,124.85 L138.90,124.85 L139.03,124.85 L139.17,124.85 L139.30,124.85 L139.44,124.85 L139.58,124.85 L139.71,124.85 L139.85,124.85 L139.99,124.85 L140.12,124.85 L140.26,124.85 L140.39,124.85 L140.53,124.85 L140.67,124.85 L140.80,124.85 L140.94,124.85 L141.08,124.85 L141.21,124.85 L141.35,124.85 L141.49,124.85 L141.62,124.85 L141.76,124.85 L141.89,124.85 L142.03,124.85 L142.17,124.85 L142.30,124.85 L142.44,124.85 L142.58,124.85 L142.71,124.85 L142.85,124.85 L142.99,124.85 L143.12,124.85 L143.26,124.85 L143.39,124.85 L143.53,124.85 L143.67,124.85 L143.80,124.85 L143.94,124.85 L144.08,124.85 L144.21,124.85 L144.35,124.85 L144.48,124.85 L144.62,124.85 L144.76,124.85 L144.89,124.85 L145.03,124.85 L145.17,124.85 L145.30,124.85 L145.44,124.85 L145.58,124.85 L145.71,124.85 L145.85,124.85 L145.98,124.85 L146.12,124.85 L146.26,124.85 L146.39,124.85 L146.53,124.85 L146.67,124.85 L146.80,124.85 L146.94,124.85 L147.08,124.85 L147.21,124.85 L147.35,124.85 L147.48,124.85 L147.62,124.85 L147.76,124.85 L147.89,124.85 L148.03,124.85 L148.17,124.85 L148.30,124.85 L148.44,124.85 L148.57,124.85 L148.71,124.85 L148.85,124.85 L148.98,124.85 L149.12,124.85 L149.26,124.85 L149.39,124.85 L149.53,124.85 L149.67,124.85 L149.80,124.85 L149.94,124.85 L150.07,124.85 L150.21,124.85 L150.35,124.85 L150.48,124.85 L150.62,124.85 L150.76,124.85 L150.89,124.85 L151.03,124.85 L151.17,124.85 L151.30,124.85 L151.44,124.85 L151.57,124.85 L151.71,124.85 L151.85,124.85 L151.98,124.85 L152.12,124.85 L152.26,124.85 L152.39,124.85 L152.53,124.85 L152.66,124.85 L152.80,124.85 L152.94,124.85 L153.07,124.85 L153.21,124.85 L153.35,124.85 L153.48,124.85 L153.62,124.85 L153.76,124.85 L153.89,124.85 L154.03,124.85 L154.16,124.85 L154.30,124.85 L154.44,124.85 L154.57,124.85 L154.71,124.85 L154.85,124.85 L154.98,124.85 L155.12,124.85 L155.26,124.85 L155.39,124.85 L155.53,124.85 L155.66,124.85 L155.80,124.85 L155.94,124.85 L156.07,124.85 L156.07,124.85" style="stroke-width: 2; stroke: rgb(0, 0, 0); stroke-opacity: 1;"/><path d=" M232.15,91.04 L232.23,91.07 L232.32,91.09 L232.40,91.12 L232.49,91.14 L232.57,91.17 L232.66,91.19 L232.74,91.22 L232.83,91.24 L232.91,91.27 L232.99,91.29 L233.08,91.32 L233.16,91.34 L233.25,91.37 L233.33,91.39 L233.42,91.42 L233.50,91.44 L233.59,91.46 L233.67,91.49 L233.76,91.51 L233.84,91.54 L233.93,91.56 L234.01,91.59 L234.10,91.61 L234.18,91.64 L234.27,91.66 L234.35,91.69 L234.44,91.71 L234.52,91.73 L234.61,91.76 L234.69,91.78 L234.78,91.81 L234.86,91.83 L234.95,91.86 L235.03,91.88 L235.12,91.90 L235.20,91.93 L235.29,91.95 L235.37,91.98 L235.46,92.00 L235.54,92.03 L235.63,92.05 L235.71,92.07 L235.80,92.10 L235.88,92.12 L235.97,92.15 L236.05,92.17 L236.13,92.19 L236.22,92.22 L236.30,92.24 L236.39,92.26 L236.47,92.29 L236.56,92.31 L236.64,92.34 L236.73,92.36 L236.81,92.38 L236.90,92.41 L236.98,92.43 L237.07,92.45 L237.15,92.48 L237.24,92.50 L237.32,92.52 L237.41,92.55 L237.49,92.57 L237.58,92.60 L237.66,92.62 L237.75,92.64 L237.83,92.67 L237.92,92.69 L238.00,92.71 L238.09,92.74 L238.17,92.76 L238.26,92.78 L238.34,92.80 L238.43,92.83 L238.51,92.85 L238.60,92.87 L238.68,92.90 L238.77,92.92 L238.85,92.94 L238.94,92.97 L239.02,92.99 L239.11,93.01 L239.19,93.04 L239.27,93.06 L239.36,93.08 L239.44,93.10 L239.53,93.13 L239.61,93.15 L239.70,93.17 L239.78,93.20 L239.87,93.22 L239.95,93.24 L240.04,93.26 L240.12,93.29 L240.21,93.31 L240.29,93.33 L240.38,93.35 L240.46,93.38 L240.55,93.40 L240.63,93.42 L240.72,93.44 L240.80,93.47 L240.89,93.49 L240.97,93.51 L241.06,93.53 L241.14,93.56 L241.23,93.58 L241.31,93.60 L241.40,93.62 L241.48,93.65 L241.57,93.67 L241.65,93.69 L241.74,93.71 L241.82,93.74 L241.91,93.76 L241.99,93.78 L242.08,93.80 L242.16,93.82 L242.24,93.85 L242.33,93.87 L242.41,93.89 L242.50,93.91 L242.58,93.93 L242.67,93.96 L242.75,93.98 L242.84,94.00 L242.92,94.02 L243.01,94.04 L243.09,94.07 L243.18,94.09 L243.26,94.11 L243.35,94.13 L243.43,94.15 L243.52,94.17 L243.60,94.20 L243.69,94.22 L243.77,94.24 L243.86,94.26 L243.94,94.28 L244.03,94.30 L244.11,94.33 L244.20,94.35 L244.28,94.37 L244.37,94.39 L244.45,94.41 L244.54,94.43 L244.62,94.46 L244.71,94.48 L244.79,94.50 L244.88,94.52 L244.96,94.54 L245.05,94.56 L245.13,94.58 L245.22,94.60 L245.30,94.63 L245.38,94.65 L245.47,94.67 L245.55,94.69 L245.64,94.71 L245.72,94.73 L245.81,94.75 L245.89,94.77 L245.98,94.80 L246.06,94.82 L246.15,94.84 L246.23,94.86 L246.32,94.88 L246.40,94.90 L246.49,94.92 L246.57,94.94 L246.66,94.96 L246.74,94.98 L246.83,95.01 L246.91,95.03 L247.00,95.05 L247.08,95.07 L247.17,95.09 L247.25,95.11 L247.34,95.13 L247.42,95.15 L247.51,95.17 L247.59,95.19 L247.68,95.21 L247.76,95.23 L247.85,95.25 L247.93,95.27 L248.02,95.29 L248.10,95.32 L248.19,95.34 L248.27,95.36 L248.36,95.38 L248.44,95.40 L248.52,95.42 L248.61,95.44 L248.69,95.46 L248.78,95.48 L248.86,95.50 L248.95,95.52 L249.03,95.54 L249.12,95.56 L249.20,95.58 L249.29,95.60 L249.37,95.62 L249.46,95.64 L249.54,95.66 L249.63,95.68 L249.71,95.70 L249.80,95.72 L249.88,95.74 L249.97,95.76 L250.05,95.78 L250.14,95.80 L250.22,95.82 L250.31,95.84 L250.39,95.86 L250.48,95.88 L250.56,95.90 L250.65,95.92 L250.73,95.94 L250.82,95.96 L250.90,95.98 L250.99,96.00 L251.07,96.02 L251.16,96.04 L251.24,96.06 L251.33,96.08 L251.41,96.10 L251.50,96.12 L251.58,96.14 L251.66,96.16 L251.75,96.18 L251.83,96.20 L251.92,96.22 L252.00,96.24 L252.09,96.26 L252.17,96.28 L252.26,96.30 L252.34,96.32 L252.43,96.34 L252.51,96.35 L252.60,96.37 L252.68,96.39 L252.77,96.41 L252.85,96.43 L252.94,96.45 L253.02,96.47 L253.11,96.49 L253.19,96.51 L253.28,96.53 L253.36,96.55 L253.45,96.57 L253.53,96.59 L253.62,96.61 L253.70,96.63 L253.79,96.64 L253.87,96.66 L253.96,96.68 L254.04,96.70 L254.13,96.72 L254.21,96.74 L254.30,96.76 L254.38,96.78 L254.47,96.80 L254.55,96.82 L254.64,96.84 L254.72,96.85 L254.80,96.87 L254.89,96.89 L254.97,96.91 L255.06,96.93 L255.14,96.95 L255.23,96.97 L255.31,96.99 L255.40,97.01 L255.48,97.02 L255.57,97.04 L255.65,97.06 L255.74,97.08 L255.82,97.10 L255.91,97.12 L255.99,97.14 L256.08,97.15 L256.16,97.17 L256.25,97.19 L256.33,97.21 L256.42,97.23 L256.50,97.25 L256.59,97.27 L256.67,97.28 L256.76,97.30 L256.84,97.32 L256.93,97.34 L257.01,97.36 L257.10,97.38 L257.18,97.40 L257.27,97.41 L257.35,97.43 L257.44,97.45 L257.52,97.47 L257.61,97.49 L257.69,97.51 L257.77,97.52 L257.86,97.54 L257.94,97.56 L258.03,97.58 L258.11,97.60 L258.20,97.62 L258.28,97.63 L258.37,97.65 L258.45,97.67 L258.54,97.69 L258.62,97.71 L258.71,97.72 L258.79,97.74 L258.88,97.76 L258.96,97.78 L259.05,97.80 L259.13,97.81 L259.22,97.83 L259.30,97.85 L259.39,97.87 L259.47,97.89 L259.56,97.90 L259.64,97.92 L259.73,97.94 L259.81,97.96 L259.90,97.98 L259.98,97.99 L260.07,98.01 L260.15,98.03 L260.24,98.05 L260.32,98.06 L260.41,98.08 L260.49,98.10 L260.58,98.12 L260.66,98.13 L260.75,98.15 L260.83,98.17 L260.91,98.19 L261.00,98.21 L261.08,98.22 L261.17,98.24 L261.25,98.26 L261.34,98.28 L261.42,98.29 L261.51,98.31 L261.59,98.33 L261.68,98.35 L261.76,98.36 L261.85,98.38 L261.93,98.40 L262.02,98.42 L262.10,98.43 L262.19,98.45 L262.27,98.47 L262.36,98.48 L262.44,98.50 L262.53,98.52 L262.61,98.54 L262.70,98.55 L262.78,98.57 L262.87,98.59 L262.95,98.61 L263.04,98.62 L263.12,98.64 L263.21,98.66 L263.29,98.67 L263.38,98.69 L263.46,98.71 L263.55,98.73 L263.63,98.74 L263.72,98.76 L263.80,98.78 L263.89,98.79 L263.97,98.81 L264.05,98.83 L264.14,98.84 L264.22,98.86 L264.31,98.88 L264.39,98.90 L264.48,98.91 L264.56,98.93 L264.65,98.95 L264.73,98.96 L264.82,98.98 L264.90,99.00 L264.99,99.01 L265.07,99.03 L265.16,99.05 L265.24,99.06 L265.33,99.08 L265.41,99.10 L265.50,99.11 L265.58,99.13 L265.67,99.15 L265.75,99.16 L265.84,99.18 L265.92,99.20 L266.01,99.21 L266.09,99.23 L266.18,99.25 L266.26,99.26 L266.35,99.28 L266.43,99.30 L266.52,99.31 L266.60,99.33 L266.69,99.35 L266.77,99.36 L266.86,99.38 L266.94,99.40 L267.03,99.41 L267.11,99.43 L267.19,99.44 L267.28,99.46 L267.36,99.48 L267.45,99.49 L267.53,99.51 L267.62,99.53 L267.70,99.54 L267.79,99.56 L267.87,99.58 L267.96,99.59 L268.04,99.61 L268.13,99.62 L268.21,99.64 L268.30,99.66 L268.38,99.67 L268.47,99.69 L268.55,99.70 L268.64,99.72 L268.72,99.74 L268.81,99.75 L268.89,99.77 L268.98,99.79 L269.06,99.80 L269.15,99.82 L269.23,99.83 L269.32,99.85 L269.40,99.87 L269.49,99.88 L269.57,99.90 L269.66,99.91 L269.74,99.93 L269.83,99.94 L269.91,99.96 L270.00,99.98 L270.08,99.99 L270.17,100.01 L270.25,100.02 L270.33,100.04 L270.42,100.06 L270.50,100.07 L270.59,100.09 L270.67,100.10 L270.76,100.12 L270.84,100.13 L270.93,100.15 L271.01,100.17 L271.10,100.18 L271.18,100.20 L271.27,100.21 L271.35,100.23 L271.44,100.24 L271.52,100.26 L271.61,100.28 L271.69,100.29 L271.78,100.31 L271.86,100.32 L271.95,100.34 L272.03,100.35 L272.12,100.37 L272.20,100.38 L272.29,100.40 L272.37,100.41 L272.46,100.43 L272.54,100.45 L272.63,100.46 L272.71,100.48 L272.80,100.49 L272.88,100.51 L272.97,100.52 L273.05,100.54 L273.14,100.55 L273.22,100.57 L273.30,100.58 L273.39,100.60 L273.47,100.61 L273.56,100.63 L273.64,100.65 L273.73,100.66 L273.81,100.68 L273.90,100.69 L273.98,100.71 L274.07,100.72 L274.15,100.74 L274.24,100.75 L274.32,100.77 L274.41,100.78 L274.49,100.80 L274.58,100.81 L274.66,100.83 L274.75,100.84 L274.83,100.86 L274.92,100.87 L275.00,100.89 L275.09,100.90 L275.17,100.92 L275.26,100.93 L275.34,100.95 L275.43,100.96 L275.51,100.98 L275.60,100.99 L275.68,101.01 L275.77,101.02 L275.85,101.04 L275.94,101.05 L276.02,101.07 L276.11,101.08 L276.19,101.10 L276.28,101.11 L276.36,101.13 L276.44,101.14 L276.53,101.15 L276.61,101.17 L276.70,101.18 L276.78,101.20 L276.87,101.21 L276.95,101.23 L277.04,101.24 L277.12,101.26 L277.21,101.27 L277.29,101.29 L277.38,101.30 L277.46,101.32 L277.55,101.33 L277.63,101.35 L277.72,101.36 L277.80,101.37 L277.89,101.39 L277.97,101.40 L278.06,101.42 L278.14,101.43 L278.23,101.45 L278.31,101.46 L278.40,101.48 L278.48,101.49 L278.57,101.50 L278.65,101.52 L278.74,101.53 L278.82,101.55 L278.91,101.56 L278.99,101.58 L279.08,101.59 L279.16,101.61 L279.25,101.62 L279.33,101.63 L279.42,101.65 L279.50,101.66 L279.50,101.66" style="stroke-width: 2; stroke: rgb(0, 0, 0); stroke-opacity: 1;"/></g></g><g class="test-xtl" style="font-family: &quot;Open Sans&quot;, verdana, arial, sans-serif;"><text text-anchor="middle" font-size="11" dominant-baseline="hanging" stroke="none" fill="rgb(50,50,50)" fill-opacity="1" x="80" y="131.85177793069104">1</text><text text-anchor="middle" font-size="11" dominant-baseline="hanging" stroke="none" fill="rgb(50,50,50)" fill-opacity="1" x="156.07311309898355" y="131.85177793069104">2</text><text text-anchor="middle" font-size="11" dominant-baseline="hanging" stroke="none" fill="rgb(50,50,50)" fill-opacity="1" x="232.14622619796708" y="131.85177793069104">3</text><text text-anchor="middle" font-size="11" dominant-baseline="hanging" stroke="none" fill="rgb(50,50,50)" fill-opacity="1" x="-4.073113098983555" y="129.85177793069104">0</text></g><rect class="real" x="1" y="1" width="277.50000000000006" height="128" style="fill: transparent; stroke: none;"/></g></g></g><g class="arrow-line"><path class="connection real" stroke-dasharray="" d="  M49,69 L59,69" style="stroke: rgb(0, 0, 0); stroke-width: 1; fill: none; fill-opacity: 1;"/></g><g class="composite-shape" data-amt="diagram/shapes/plot" transform="matrix(1,0,0,1,50,190)"><g><g><g class="test-xgi"><line x1="3.5727202343497813" y1="0" x2="3.5727202343497813" y2="130" fill="none" stroke="#c3c3c3" stroke-width="0.5"/><line x1="79.6458333333333" y1="0" x2="79.6458333333333" y2="130" fill="none" stroke="#c3c3c3" stroke-width="0.5"/><line x1="155.71894643231687" y1="0" x2="155.71894643231687" y2="130" fill="none" stroke="#c3c3c3" stroke-width="0.5"/><line x1="231.79205953130037" y1="0" x2="231.79205953130037" y2="130" fill="none" stroke="#c3c3c3" stroke-width="0.5"/></g><g class="test-ygi"><line x1="0" y1="124.51844459735771" x2="279.50000000000006" y2="124.51844459735771" fill="none" stroke="#c3c3c3" stroke-width="0.5"/><line x1="0" y1="86.48188804786594" x2="279.50000000000006" y2="86.48188804786594" fill="none" stroke="#c3c3c3" stroke-width="0.5"/><line x1="0" y1="48.44533149837419" x2="279.50000000000006" y2="48.44533149837419" fill="none" stroke="#c3c3c3" stroke-width="0.5"/><line x1="0" y1="10.408774948882439" x2="279.50000000000006" y2="10.408774948882439" fill="none" stroke="#c3c3c3" stroke-width="0.5"/></g></g><g><g class="test-xti" style="font-family: Asana-Math, Asana;"><line x1="0" y1="124.51844459735771" x2="275.50000000000006" y2="124.51844459735771" fill="none" stroke="rgb(50,50,50)" stroke-opacity="1" stroke-width="1"/><line x1="79.6458333333333" y1="120.51844459735771" x2="79.6458333333333" y2="128.5184445973577" fill="none" stroke="rgb(50,50,50)" stroke-opacity="1" stroke-width="1"/><line x1="155.71894643231687" y1="120.51844459735771" x2="155.71894643231687" y2="128.5184445973577" fill="none" stroke="rgb(50,50,50)" stroke-opacity="1" stroke-width="1"/><line x1="231.79205953130037" y1="120.51844459735771" x2="231.79205953130037" y2="128.5184445973577" fill="none" stroke="rgb(50,50,50)" stroke-opacity="1" stroke-width="1"/><path d="M270.50000000000006,120.91844459735772 L278.50000000000006,124.51844459735771 L270.50000000000006,128.11844459735772 Z" stroke="none" stroke-width="1" fill="rgb(50,50,50)" fill-opacity="1"/></g><g class="test-plot-expression"><defs><clipPath id="cpxpwn82c6l"><rect x="1" y="1" width="277.50000000000006" height="128"/></clipPath></defs><g clip-path="url(#cpxpwn82c6l)"><path d=" M3.57,-130.00 L3.71,-130.00 L3.85,-130.00 L3.98,-130.00 L4.12,-130.00 L4.25,-130.00 L4.39,-130.00 L4.53,-130.00 L4.66,-130.00 L4.80,-130.00 L4.94,-130.00 L5.07,-130.00 L5.21,-130.00 L5.35,-130.00 L5.48,-130.00 L5.62,-130.00 L5.75,-130.00 L5.89,-130.00 L6.03,-130.00 L6.16,-130.00 L6.30,-130.00 L6.44,-130.00 L6.57,-130.00 L6.71,-130.00 L6.84,-130.00 L6.98,-130.00 L7.12,-130.00 L7.25,-130.00 L7.39,-130.00 L7.53,-130.00 L7.66,-130.00 L7.80,-130.00 L7.94,-130.00 L8.07,-130.00 L8.21,-130.00 L8.34,-130.00 L8.48,-130.00 L8.62,-130.00 L8.75,-130.00 L8.89,-130.00 L9.03,-130.00 L9.16,-130.00 L9.30,-130.00 L9.43,-130.00 L9.57,-130.00 L9.71,-130.00 L9.84,-130.00 L9.98,-130.00 L10.12,-130.00 L10.25,-130.00 L10.39,-130.00 L10.53,-130.00 L10.66,-130.00 L10.80,-130.00 L10.93,-130.00 L11.07,-130.00 L11.21,-130.00 L11.34,-130.00 L11.48,-130.00 L11.62,-127.98 L11.75,-123.99 L11.89,-120.12 L12.03,-116.38 L12.16,-112.76 L12.30,-109.25 L12.43,-105.85 L12.57,-102.55 L12.71,-99.35 L12.84,-96.24 L12.98,-93.23 L13.12,-90.30 L13.25,-87.45 L13.39,-84.68 L13.52,-81.99 L13.66,-79.37 L13.80,-76.82 L13.93,-74.34 L14.07,-71.92 L14.21,-69.57 L14.34,-67.27 L14.48,-65.03 L14.62,-62.85 L14.75,-60.72 L14.89,-58.64 L15.02,-56.61 L15.16,-54.63 L15.30,-52.69 L15.43,-50.80 L15.57,-48.95 L15.71,-47.14 L15.84,-45.38 L15.98,-43.65 L16.12,-41.96 L16.25,-40.31 L16.39,-38.69 L16.52,-37.10 L16.66,-35.55 L16.80,-34.03 L16.93,-32.54 L17.07,-31.09 L17.21,-29.66 L17.34,-28.26 L17.48,-26.88 L17.61,-25.54 L17.75,-24.21 L17.89,-22.92 L18.02,-21.65 L18.16,-20.40 L18.30,-19.18 L18.43,-17.97 L18.57,-16.79 L18.71,-15.63 L18.84,-14.50 L18.98,-13.38 L19.11,-12.28 L19.25,-11.20 L19.39,-10.14 L19.52,-9.10 L19.66,-8.07 L19.80,-7.06 L19.93,-6.07 L20.07,-5.10 L20.21,-4.14 L20.34,-3.20 L20.48,-2.27 L20.61,-1.36 L20.75,-0.46 L20.89,0.43 L21.02,1.30 L21.16,2.15 L21.30,3.00 L21.43,3.83 L21.57,4.65 L21.70,5.45 L21.84,6.25 L21.98,7.03 L22.11,7.80 L22.25,8.56 L22.39,9.31 L22.52,10.04 L22.66,10.77 L22.80,11.49 L22.93,12.19 L23.07,12.89 L23.20,13.58 L23.34,14.26 L23.48,14.92 L23.61,15.58 L23.75,16.23 L23.89,16.88 L24.02,17.51 L24.16,18.13 L24.30,18.75 L24.43,19.36 L24.57,19.96 L24.70,20.55 L24.84,21.14 L24.98,21.71 L25.11,22.29 L25.25,22.85 L25.39,23.40 L25.52,23.95 L25.66,24.50 L25.79,25.03 L25.93,25.56 L26.07,26.08 L26.20,26.60 L26.34,27.11 L26.48,27.62 L26.61,28.11 L26.75,28.61 L26.89,29.09 L27.02,29.57 L27.16,30.05 L27.29,30.52 L27.43,30.98 L27.57,31.44 L27.70,31.90 L27.84,32.35 L27.98,32.79 L28.11,33.23 L28.25,33.67 L28.39,34.09 L28.52,34.52 L28.66,34.94 L28.79,35.36 L28.93,35.77 L29.07,36.17 L29.20,36.58 L29.34,36.97 L29.48,37.37 L29.61,37.76 L29.75,38.14 L29.88,38.53 L30.02,38.90 L30.16,39.28 L30.29,39.65 L30.43,40.01 L30.57,40.38 L30.70,40.74 L30.84,41.09 L30.98,41.44 L31.11,41.79 L31.25,42.14 L31.38,42.48 L31.52,42.82 L31.66,43.15 L31.79,43.48 L31.93,43.81 L32.07,44.14 L32.20,44.46 L32.34,44.78 L32.48,45.10 L32.61,45.41 L32.75,45.72 L32.88,46.03 L33.02,46.33 L33.16,46.63 L33.29,46.93 L33.43,47.23 L33.57,47.52 L33.70,47.81 L33.84,48.10 L33.97,48.39 L34.11,48.67 L34.25,48.95 L34.38,49.23 L34.52,49.51 L34.66,49.78 L34.79,50.05 L34.93,50.32 L35.07,50.59 L35.20,50.85 L35.34,51.11 L35.47,51.37 L35.61,51.63 L35.75,51.88 L35.88,52.14 L36.02,52.39 L36.16,52.64 L36.29,52.88 L36.43,53.13 L36.57,53.37 L36.70,53.61 L36.84,53.85 L36.97,54.09 L37.11,54.32 L37.25,54.55 L37.38,54.78 L37.52,55.01 L37.66,55.24 L37.79,55.47 L37.93,55.69 L38.06,55.91 L38.20,56.13 L38.34,56.35 L38.47,56.57 L38.61,56.78 L38.75,57.00 L38.88,57.21 L39.02,57.42 L39.16,57.63 L39.29,57.83 L39.43,58.04 L39.56,58.24 L39.70,58.44 L39.84,58.65 L39.97,58.84 L40.11,59.04 L40.25,59.24 L40.38,59.43 L40.52,59.63 L40.65,59.82 L40.79,60.01 L40.93,60.20 L41.06,60.39 L41.20,60.57 L41.34,60.76 L41.47,60.94 L41.61,61.12 L41.75,61.31 L41.88,61.49 L42.02,61.66 L42.15,61.84 L42.29,62.02 L42.43,62.19 L42.56,62.37 L42.70,62.54 L42.84,62.71 L42.97,62.88 L43.11,63.05 L43.25,63.22 L43.38,63.38 L43.52,63.55 L43.65,63.71 L43.79,63.87 L43.93,64.04 L44.06,64.20 L44.20,64.36 L44.34,64.52 L44.47,64.67 L44.61,64.83 L44.74,64.99 L44.88,65.14 L45.02,65.29 L45.15,65.45 L45.29,65.60 L45.43,65.75 L45.56,65.90 L45.70,66.05 L45.84,66.20 L45.97,66.34 L46.11,66.49 L46.24,66.63 L46.38,66.78 L46.52,66.92 L46.65,67.06 L46.79,67.20 L46.93,67.34 L47.06,67.48 L47.20,67.62 L47.34,67.76 L47.47,67.90 L47.61,68.03 L47.74,68.17 L47.88,68.30 L48.02,68.44 L48.15,68.57 L48.29,68.70 L48.43,68.83 L48.56,68.96 L48.70,69.09 L48.83,69.22 L48.97,69.35 L49.11,69.48 L49.24,69.60 L49.38,69.73 L49.52,69.85 L49.65,69.98 L49.79,70.10 L49.93,70.22 L50.06,70.35 L50.20,70.47 L50.33,70.59 L50.47,70.71 L50.61,70.83 L50.74,70.94 L50.88,71.06 L51.02,71.18 L51.15,71.30 L51.29,71.41 L51.43,71.53 L51.56,71.64 L51.70,71.76 L51.83,71.87 L51.97,71.98 L52.11,72.09 L52.24,72.20 L52.38,72.32 L52.52,72.43 L52.65,72.54 L52.79,72.64 L52.92,72.75 L53.06,72.86 L53.20,72.97 L53.33,73.07 L53.47,73.18 L53.61,73.28 L53.74,73.39 L53.88,73.49 L54.02,73.60 L54.15,73.70 L54.29,73.80 L54.42,73.91 L54.56,74.01 L54.70,74.11 L54.83,74.21 L54.97,74.31 L55.11,74.41 L55.24,74.51 L55.38,74.60 L55.52,74.70 L55.65,74.80 L55.79,74.90 L55.92,74.99 L56.06,75.09 L56.20,75.18 L56.33,75.28 L56.47,75.37 L56.61,75.47 L56.74,75.56 L56.88,75.65 L57.01,75.74 L57.15,75.84 L57.29,75.93 L57.42,76.02 L57.56,76.11 L57.70,76.20 L57.83,76.29 L57.97,76.38 L58.11,76.47 L58.24,76.55 L58.38,76.64 L58.51,76.73 L58.65,76.82 L58.79,76.90 L58.92,76.99 L59.06,77.07 L59.20,77.16 L59.33,77.24 L59.47,77.33 L59.61,77.41 L59.74,77.50 L59.88,77.58 L60.01,77.66 L60.15,77.74 L60.29,77.83 L60.42,77.91 L60.56,77.99 L60.70,78.07 L60.83,78.15 L60.97,78.23 L61.10,78.31 L61.24,78.39 L61.38,78.47 L61.51,78.55 L61.65,78.62 L61.79,78.70 L61.92,78.78 L62.06,78.86 L62.20,78.93 L62.33,79.01 L62.47,79.09 L62.60,79.16 L62.74,79.24 L62.88,79.31 L63.01,79.39 L63.15,79.46 L63.29,79.53 L63.42,79.61 L63.56,79.68 L63.70,79.75 L63.83,79.83 L63.97,79.90 L64.10,79.97 L64.24,80.04 L64.38,80.11 L64.51,80.19 L64.65,80.26 L64.79,80.33 L64.92,80.40 L65.06,80.47 L65.19,80.54 L65.33,80.60 L65.47,80.67 L65.60,80.74 L65.74,80.81 L65.88,80.88 L66.01,80.95 L66.15,81.01 L66.29,81.08 L66.42,81.15 L66.56,81.21 L66.69,81.28 L66.83,81.34 L66.97,81.41 L67.10,81.48 L67.24,81.54 L67.38,81.61 L67.51,81.67 L67.65,81.73 L67.78,81.80 L67.92,81.86 L68.06,81.93 L68.19,81.99 L68.33,82.05 L68.47,82.11 L68.60,82.18 L68.74,82.24 L68.88,82.30 L69.01,82.36 L69.15,82.42 L69.28,82.48 L69.42,82.54 L69.56,82.60 L69.69,82.67 L69.83,82.73 L69.97,82.78 L70.10,82.84 L70.24,82.90 L70.38,82.96 L70.51,83.02 L70.65,83.08 L70.78,83.14 L70.92,83.20 L71.06,83.25 L71.19,83.31 L71.33,83.37 L71.47,83.43 L71.60,83.48 L71.74,83.54 L71.87,83.60 L72.01,83.65 L72.15,83.71 L72.28,83.76 L72.42,83.82 L72.56,83.88 L72.69,83.93 L72.83,83.99 L72.97,84.04 L73.10,84.10 L73.24,84.15 L73.37,84.20 L73.51,84.26 L73.65,84.31 L73.78,84.36 L73.92,84.42 L74.06,84.47 L74.19,84.52 L74.33,84.58 L74.47,84.63 L74.60,84.68 L74.74,84.73 L74.87,84.78 L75.01,84.84 L75.15,84.89 L75.28,84.94 L75.42,84.99 L75.56,85.04 L75.69,85.09 L75.83,85.14 L75.96,85.19 L76.10,85.24 L76.24,85.29 L76.37,85.34 L76.51,85.39 L76.65,85.44 L76.78,85.49 L76.92,85.54 L77.06,85.59 L77.19,85.64 L77.33,85.69 L77.46,85.73 L77.60,85.78 L77.74,85.83 L77.87,85.88 L78.01,85.92 L78.15,85.97 L78.28,86.02 L78.42,86.07 L78.56,86.11 L78.69,86.16 L78.83,86.21 L78.96,86.25 L79.10,86.30 L79.24,86.34 L79.37,86.39 L79.51,86.44 L79.65,86.48 L79.65,86.48" style="stroke-width: 2; stroke: rgb(0, 0, 0); stroke-opacity: 1;"/><path d=" M155.72,86.48 L155.86,86.49 L155.99,86.50 L156.13,86.52 L156.26,86.53 L156.40,86.54 L156.54,86.55 L156.67,86.56 L156.81,86.57 L156.95,86.58 L157.08,86.59 L157.22,86.61 L157.35,86.62 L157.49,86.63 L157.63,86.64 L157.76,86.65 L157.90,86.66 L158.04,86.67 L158.17,86.68 L158.31,86.69 L158.45,86.71 L158.58,86.72 L158.72,86.73 L158.85,86.74 L158.99,86.75 L159.13,86.76 L159.26,86.77 L159.40,86.78 L159.54,86.79 L159.67,86.80 L159.81,86.81 L159.95,86.82 L160.08,86.84 L160.22,86.85 L160.35,86.86 L160.49,86.87 L160.63,86.88 L160.76,86.89 L160.90,86.90 L161.04,86.91 L161.17,86.92 L161.31,86.93 L161.44,86.94 L161.58,86.95 L161.72,86.96 L161.85,86.97 L161.99,86.98 L162.13,86.99 L162.26,87.00 L162.40,87.02 L162.54,87.03 L162.67,87.04 L162.81,87.05 L162.94,87.06 L163.08,87.07 L163.22,87.08 L163.35,87.09 L163.49,87.10 L163.63,87.11 L163.76,87.12 L163.90,87.13 L164.04,87.14 L164.17,87.15 L164.31,87.16 L164.44,87.17 L164.58,87.18 L164.72,87.19 L164.85,87.20 L164.99,87.21 L165.13,87.22 L165.26,87.23 L165.40,87.24 L165.53,87.25 L165.67,87.26 L165.81,87.27 L165.94,87.28 L166.08,87.29 L166.22,87.30 L166.35,87.31 L166.49,87.32 L166.63,87.33 L166.76,87.34 L166.90,87.35 L167.03,87.36 L167.17,87.37 L167.31,87.38 L167.44,87.39 L167.58,87.40 L167.72,87.41 L167.85,87.42 L167.99,87.43 L168.13,87.44 L168.26,87.45 L168.40,87.46 L168.53,87.47 L168.67,87.48 L168.81,87.49 L168.94,87.50 L169.08,87.51 L169.22,87.51 L169.35,87.52 L169.49,87.53 L169.62,87.54 L169.76,87.55 L169.90,87.56 L170.03,87.57 L170.17,87.58 L170.31,87.59 L170.44,87.60 L170.58,87.61 L170.72,87.62 L170.85,87.63 L170.99,87.64 L171.12,87.65 L171.26,87.66 L171.40,87.67 L171.53,87.68 L171.67,87.68 L171.81,87.69 L171.94,87.70 L172.08,87.71 L172.22,87.72 L172.35,87.73 L172.49,87.74 L172.62,87.75 L172.76,87.76 L172.90,87.77 L173.03,87.78 L173.17,87.79 L173.31,87.80 L173.44,87.80 L173.58,87.81 L173.71,87.82 L173.85,87.83 L173.99,87.84 L174.12,87.85 L174.26,87.86 L174.40,87.87 L174.53,87.88 L174.67,87.89 L174.81,87.90 L174.94,87.90 L175.08,87.91 L175.21,87.92 L175.35,87.93 L175.49,87.94 L175.62,87.95 L175.76,87.96 L175.90,87.97 L176.03,87.98 L176.17,87.98 L176.31,87.99 L176.44,88.00 L176.58,88.01 L176.71,88.02 L176.85,88.03 L176.99,88.04 L177.12,88.05 L177.26,88.05 L177.40,88.06 L177.53,88.07 L177.67,88.08 L177.80,88.09 L177.94,88.10 L178.08,88.11 L178.21,88.11 L178.35,88.12 L178.49,88.13 L178.62,88.14 L178.76,88.15 L178.90,88.16 L179.03,88.17 L179.17,88.18 L179.30,88.18 L179.44,88.19 L179.58,88.20 L179.71,88.21 L179.85,88.22 L179.99,88.23 L180.12,88.23 L180.26,88.24 L180.39,88.25 L180.53,88.26 L180.67,88.27 L180.80,88.28 L180.94,88.28 L181.08,88.29 L181.21,88.30 L181.35,88.31 L181.49,88.32 L181.62,88.33 L181.76,88.33 L181.89,88.34 L182.03,88.35 L182.17,88.36 L182.30,88.37 L182.44,88.38 L182.58,88.38 L182.71,88.39 L182.85,88.40 L182.99,88.41 L183.12,88.42 L183.26,88.43 L183.39,88.43 L183.53,88.44 L183.67,88.45 L183.80,88.46 L183.94,88.47 L184.08,88.47 L184.21,88.48 L184.35,88.49 L184.48,88.50 L184.62,88.51 L184.76,88.51 L184.89,88.52 L185.03,88.53 L185.17,88.54 L185.30,88.55 L185.44,88.55 L185.58,88.56 L185.71,88.57 L185.85,88.58 L185.98,88.59 L186.12,88.59 L186.26,88.60 L186.39,88.61 L186.53,88.62 L186.67,88.62 L186.80,88.63 L186.94,88.64 L187.08,88.65 L187.21,88.66 L187.35,88.66 L187.48,88.67 L187.62,88.68 L187.76,88.69 L187.89,88.70 L188.03,88.70 L188.17,88.71 L188.30,88.72 L188.44,88.73 L188.57,88.73 L188.71,88.74 L188.85,88.75 L188.98,88.76 L189.12,88.76 L189.26,88.77 L189.39,88.78 L189.53,88.79 L189.67,88.79 L189.80,88.80 L189.94,88.81 L190.07,88.82 L190.21,88.83 L190.35,88.83 L190.48,88.84 L190.62,88.85 L190.76,88.86 L190.89,88.86 L191.03,88.87 L191.17,88.88 L191.30,88.89 L191.44,88.89 L191.57,88.90 L191.71,88.91 L191.85,88.91 L191.98,88.92 L192.12,88.93 L192.26,88.94 L192.39,88.94 L192.53,88.95 L192.66,88.96 L192.80,88.97 L192.94,88.97 L193.07,88.98 L193.21,88.99 L193.35,89.00 L193.48,89.00 L193.62,89.01 L193.76,89.02 L193.89,89.02 L194.03,89.03 L194.16,89.04 L194.30,89.05 L194.44,89.05 L194.57,89.06 L194.71,89.07 L194.85,89.08 L194.98,89.08 L195.12,89.09 L195.26,89.10 L195.39,89.10 L195.53,89.11 L195.66,89.12 L195.80,89.13 L195.94,89.13 L196.07,89.14 L196.21,89.15 L196.35,89.15 L196.48,89.16 L196.62,89.17 L196.75,89.18 L196.89,89.18 L197.03,89.19 L197.16,89.20 L197.30,89.20 L197.44,89.21 L197.57,89.22 L197.71,89.22 L197.85,89.23 L197.98,89.24 L198.12,89.25 L198.25,89.25 L198.39,89.26 L198.53,89.27 L198.66,89.27 L198.80,89.28 L198.94,89.29 L199.07,89.29 L199.21,89.30 L199.35,89.31 L199.48,89.31 L199.62,89.32 L199.75,89.33 L199.89,89.33 L200.03,89.34 L200.16,89.35 L200.30,89.36 L200.44,89.36 L200.57,89.37 L200.71,89.38 L200.84,89.38 L200.98,89.39 L201.12,89.40 L201.25,89.40 L201.39,89.41 L201.53,89.42 L201.66,89.42 L201.80,89.43 L201.94,89.44 L202.07,89.44 L202.21,89.45 L202.34,89.46 L202.48,89.46 L202.62,89.47 L202.75,89.48 L202.89,89.48 L203.03,89.49 L203.16,89.50 L203.30,89.50 L203.44,89.51 L203.57,89.52 L203.71,89.52 L203.84,89.53 L203.98,89.54 L204.12,89.54 L204.25,89.55 L204.39,89.55 L204.53,89.56 L204.66,89.57 L204.80,89.57 L204.93,89.58 L205.07,89.59 L205.21,89.59 L205.34,89.60 L205.48,89.61 L205.62,89.61 L205.75,89.62 L205.89,89.63 L206.03,89.63 L206.16,89.64 L206.30,89.65 L206.43,89.65 L206.57,89.66 L206.71,89.66 L206.84,89.67 L206.98,89.68 L207.12,89.68 L207.25,89.69 L207.39,89.70 L207.53,89.70 L207.66,89.71 L207.80,89.72 L207.93,89.72 L208.07,89.73 L208.21,89.73 L208.34,89.74 L208.48,89.75 L208.62,89.75 L208.75,89.76 L208.89,89.77 L209.02,89.77 L209.16,89.78 L209.30,89.78 L209.43,89.79 L209.57,89.80 L209.71,89.80 L209.84,89.81 L209.98,89.81 L210.12,89.82 L210.25,89.83 L210.39,89.83 L210.52,89.84 L210.66,89.85 L210.80,89.85 L210.93,89.86 L211.07,89.86 L211.21,89.87 L211.34,89.88 L211.48,89.88 L211.61,89.89 L211.75,89.89 L211.89,89.90 L212.02,89.91 L212.16,89.91 L212.30,89.92 L212.43,89.92 L212.57,89.93 L212.71,89.94 L212.84,89.94 L212.98,89.95 L213.11,89.95 L213.25,89.96 L213.39,89.97 L213.52,89.97 L213.66,89.98 L213.80,89.98 L213.93,89.99 L214.07,90.00 L214.21,90.00 L214.34,90.01 L214.48,90.01 L214.61,90.02 L214.75,90.03 L214.89,90.03 L215.02,90.04 L215.16,90.04 L215.30,90.05 L215.43,90.06 L215.57,90.06 L215.70,90.07 L215.84,90.07 L215.98,90.08 L216.11,90.08 L216.25,90.09 L216.39,90.10 L216.52,90.10 L216.66,90.11 L216.80,90.11 L216.93,90.12 L217.07,90.13 L217.20,90.13 L217.34,90.14 L217.48,90.14 L217.61,90.15 L217.75,90.15 L217.89,90.16 L218.02,90.17 L218.16,90.17 L218.30,90.18 L218.43,90.18 L218.57,90.19 L218.70,90.19 L218.84,90.20 L218.98,90.21 L219.11,90.21 L219.25,90.22 L219.39,90.22 L219.52,90.23 L219.66,90.23 L219.79,90.24 L219.93,90.24 L220.07,90.25 L220.20,90.26 L220.34,90.26 L220.48,90.27 L220.61,90.27 L220.75,90.28 L220.89,90.28 L221.02,90.29 L221.16,90.30 L221.29,90.30 L221.43,90.31 L221.57,90.31 L221.70,90.32 L221.84,90.32 L221.98,90.33 L222.11,90.33 L222.25,90.34 L222.39,90.34 L222.52,90.35 L222.66,90.36 L222.79,90.36 L222.93,90.37 L223.07,90.37 L223.20,90.38 L223.34,90.38 L223.48,90.39 L223.61,90.39 L223.75,90.40 L223.88,90.40 L224.02,90.41 L224.16,90.42 L224.29,90.42 L224.43,90.43 L224.57,90.43 L224.70,90.44 L224.84,90.44 L224.98,90.45 L225.11,90.45 L225.25,90.46 L225.38,90.46 L225.52,90.47 L225.66,90.47 L225.79,90.48 L225.93,90.49 L226.07,90.49 L226.20,90.50 L226.34,90.50 L226.48,90.51 L226.61,90.51 L226.75,90.52 L226.88,90.52 L227.02,90.53 L227.16,90.53 L227.29,90.54 L227.43,90.54 L227.57,90.55 L227.70,90.55 L227.84,90.56 L227.97,90.56 L228.11,90.57 L228.25,90.57 L228.38,90.58 L228.52,90.59 L228.66,90.59 L228.79,90.60 L228.93,90.60 L229.07,90.61 L229.20,90.61 L229.34,90.62 L229.47,90.62 L229.61,90.63 L229.75,90.63 L229.88,90.64 L230.02,90.64 L230.16,90.65 L230.29,90.65 L230.43,90.66 L230.57,90.66 L230.70,90.67 L230.84,90.67 L230.97,90.68 L231.11,90.68 L231.25,90.69 L231.38,90.69 L231.52,90.70 L231.66,90.70 L231.79,90.71 L231.79,90.71" style="stroke-width: 2; stroke: rgb(0, 0, 0); stroke-opacity: 1;"/><path d=" M79.65,86.48 L79.78,86.48 L79.92,86.48 L80.05,86.48 L80.19,86.48 L80.33,86.48 L80.46,86.48 L80.60,86.48 L80.74,86.48 L80.87,86.48 L81.01,86.48 L81.15,86.48 L81.28,86.48 L81.42,86.48 L81.55,86.48 L81.69,86.48 L81.83,86.48 L81.96,86.48 L82.10,86.48 L82.24,86.48 L82.37,86.48 L82.51,86.48 L82.65,86.48 L82.78,86.48 L82.92,86.48 L83.05,86.48 L83.19,86.48 L83.33,86.48 L83.46,86.48 L83.60,86.48 L83.74,86.48 L83.87,86.48 L84.01,86.48 L84.14,86.48 L84.28,86.48 L84.42,86.48 L84.55,86.48 L84.69,86.48 L84.83,86.48 L84.96,86.48 L85.10,86.48 L85.24,86.48 L85.37,86.48 L85.51,86.48 L85.64,86.48 L85.78,86.48 L85.92,86.48 L86.05,86.48 L86.19,86.48 L86.33,86.48 L86.46,86.48 L86.60,86.48 L86.74,86.48 L86.87,86.48 L87.01,86.48 L87.14,86.48 L87.28,86.48 L87.42,86.48 L87.55,86.48 L87.69,86.48 L87.83,86.48 L87.96,86.48 L88.10,86.48 L88.23,86.48 L88.37,86.48 L88.51,86.48 L88.64,86.48 L88.78,86.48 L88.92,86.48 L89.05,86.48 L89.19,86.48 L89.33,86.48 L89.46,86.48 L89.60,86.48 L89.73,86.48 L89.87,86.48 L90.01,86.48 L90.14,86.48 L90.28,86.48 L90.42,86.48 L90.55,86.48 L90.69,86.48 L90.83,86.48 L90.96,86.48 L91.10,86.48 L91.23,86.48 L91.37,86.48 L91.51,86.48 L91.64,86.48 L91.78,86.48 L91.92,86.48 L92.05,86.48 L92.19,86.48 L92.32,86.48 L92.46,86.48 L92.60,86.48 L92.73,86.48 L92.87,86.48 L93.01,86.48 L93.14,86.48 L93.28,86.48 L93.42,86.48 L93.55,86.48 L93.69,86.48 L93.82,86.48 L93.96,86.48 L94.10,86.48 L94.23,86.48 L94.37,86.48 L94.51,86.48 L94.64,86.48 L94.78,86.48 L94.91,86.48 L95.05,86.48 L95.19,86.48 L95.32,86.48 L95.46,86.48 L95.60,86.48 L95.73,86.48 L95.87,86.48 L96.01,86.48 L96.14,86.48 L96.28,86.48 L96.41,86.48 L96.55,86.48 L96.69,86.48 L96.82,86.48 L96.96,86.48 L97.10,86.48 L97.23,86.48 L97.37,86.48 L97.51,86.48 L97.64,86.48 L97.78,86.48 L97.91,86.48 L98.05,86.48 L98.19,86.48 L98.32,86.48 L98.46,86.48 L98.60,86.48 L98.73,86.48 L98.87,86.48 L99.00,86.48 L99.14,86.48 L99.28,86.48 L99.41,86.48 L99.55,86.48 L99.69,86.48 L99.82,86.48 L99.96,86.48 L100.10,86.48 L100.23,86.48 L100.37,86.48 L100.50,86.48 L100.64,86.48 L100.78,86.48 L100.91,86.48 L101.05,86.48 L101.19,86.48 L101.32,86.48 L101.46,86.48 L101.60,86.48 L101.73,86.48 L101.87,86.48 L102.00,86.48 L102.14,86.48 L102.28,86.48 L102.41,86.48 L102.55,86.48 L102.69,86.48 L102.82,86.48 L102.96,86.48 L103.09,86.48 L103.23,86.48 L103.37,86.48 L103.50,86.48 L103.64,86.48 L103.78,86.48 L103.91,86.48 L104.05,86.48 L104.19,86.48 L104.32,86.48 L104.46,86.48 L104.59,86.48 L104.73,86.48 L104.87,86.48 L105.00,86.48 L105.14,86.48 L105.28,86.48 L105.41,86.48 L105.55,86.48 L105.69,86.48 L105.82,86.48 L105.96,86.48 L106.09,86.48 L106.23,86.48 L106.37,86.48 L106.50,86.48 L106.64,86.48 L106.78,86.48 L106.91,86.48 L107.05,86.48 L107.18,86.48 L107.32,86.48 L107.46,86.48 L107.59,86.48 L107.73,86.48 L107.87,86.48 L108.00,86.48 L108.14,86.48 L108.28,86.48 L108.41,86.48 L108.55,86.48 L108.68,86.48 L108.82,86.48 L108.96,86.48 L109.09,86.48 L109.23,86.48 L109.37,86.48 L109.50,86.48 L109.64,86.48 L109.78,86.48 L109.91,86.48 L110.05,86.48 L110.18,86.48 L110.32,86.48 L110.46,86.48 L110.59,86.48 L110.73,86.48 L110.87,86.48 L111.00,86.48 L111.14,86.48 L111.27,86.48 L111.41,86.48 L111.55,86.48 L111.68,86.48 L111.82,86.48 L111.96,86.48 L112.09,86.48 L112.23,86.48 L112.37,86.48 L112.50,86.48 L112.64,86.48 L112.77,86.48 L112.91,86.48 L113.05,86.48 L113.18,86.48 L113.32,86.48 L113.46,86.48 L113.59,86.48 L113.73,86.48 L113.87,86.48 L114.00,86.48 L114.14,86.48 L114.27,86.48 L114.41,86.48 L114.55,86.48 L114.68,86.48 L114.82,86.48 L114.96,86.48 L115.09,86.48 L115.23,86.48 L115.36,86.48 L115.50,86.48 L115.64,86.48 L115.77,86.48 L115.91,86.48 L116.05,86.48 L116.18,86.48 L116.32,86.48 L116.46,86.48 L116.59,86.48 L116.73,86.48 L116.86,86.48 L117.00,86.48 L117.14,86.48 L117.27,86.48 L117.41,86.48 L117.55,86.48 L117.68,86.48 L117.82,86.48 L117.96,86.48 L118.09,86.48 L118.23,86.48 L118.36,86.48 L118.50,86.48 L118.64,86.48 L118.77,86.48 L118.91,86.48 L119.05,86.48 L119.18,86.48 L119.32,86.48 L119.45,86.48 L119.59,86.48 L119.73,86.48 L119.86,86.48 L120.00,86.48 L120.14,86.48 L120.27,86.48 L120.41,86.48 L120.55,86.48 L120.68,86.48 L120.82,86.48 L120.95,86.48 L121.09,86.48 L121.23,86.48 L121.36,86.48 L121.50,86.48 L121.64,86.48 L121.77,86.48 L121.91,86.48 L122.05,86.48 L122.18,86.48 L122.32,86.48 L122.45,86.48 L122.59,86.48 L122.73,86.48 L122.86,86.48 L123.00,86.48 L123.14,86.48 L123.27,86.48 L123.41,86.48 L123.54,86.48 L123.68,86.48 L123.82,86.48 L123.95,86.48 L124.09,86.48 L124.23,86.48 L124.36,86.48 L124.50,86.48 L124.64,86.48 L124.77,86.48 L124.91,86.48 L125.04,86.48 L125.18,86.48 L125.32,86.48 L125.45,86.48 L125.59,86.48 L125.73,86.48 L125.86,86.48 L126.00,86.48 L126.13,86.48 L126.27,86.48 L126.41,86.48 L126.54,86.48 L126.68,86.48 L126.82,86.48 L126.95,86.48 L127.09,86.48 L127.23,86.48 L127.36,86.48 L127.50,86.48 L127.63,86.48 L127.77,86.48 L127.91,86.48 L128.04,86.48 L128.18,86.48 L128.32,86.48 L128.45,86.48 L128.59,86.48 L128.73,86.48 L128.86,86.48 L129.00,86.48 L129.13,86.48 L129.27,86.48 L129.41,86.48 L129.54,86.48 L129.68,86.48 L129.82,86.48 L129.95,86.48 L130.09,86.48 L130.22,86.48 L130.36,86.48 L130.50,86.48 L130.63,86.48 L130.77,86.48 L130.91,86.48 L131.04,86.48 L131.18,86.48 L131.32,86.48 L131.45,86.48 L131.59,86.48 L131.72,86.48 L131.86,86.48 L132.00,86.48 L132.13,86.48 L132.27,86.48 L132.41,86.48 L132.54,86.48 L132.68,86.48 L132.82,86.48 L132.95,86.48 L133.09,86.48 L133.22,86.48 L133.36,86.48 L133.50,86.48 L133.63,86.48 L133.77,86.48 L133.91,86.48 L134.04,86.48 L134.18,86.48 L134.31,86.48 L134.45,86.48 L134.59,86.48 L134.72,86.48 L134.86,86.48 L135.00,86.48 L135.13,86.48 L135.27,86.48 L135.41,86.48 L135.54,86.48 L135.68,86.48 L135.81,86.48 L135.95,86.48 L136.09,86.48 L136.22,86.48 L136.36,86.48 L136.50,86.48 L136.63,86.48 L136.77,86.48 L136.91,86.48 L137.04,86.48 L137.18,86.48 L137.31,86.48 L137.45,86.48 L137.59,86.48 L137.72,86.48 L137.86,86.48 L138.00,86.48 L138.13,86.48 L138.27,86.48 L138.40,86.48 L138.54,86.48 L138.68,86.48 L138.81,86.48 L138.95,86.48 L139.09,86.48 L139.22,86.48 L139.36,86.48 L139.50,86.48 L139.63,86.48 L139.77,86.48 L139.90,86.48 L140.04,86.48 L140.18,86.48 L140.31,86.48 L140.45,86.48 L140.59,86.48 L140.72,86.48 L140.86,86.48 L141.00,86.48 L141.13,86.48 L141.27,86.48 L141.40,86.48 L141.54,86.48 L141.68,86.48 L141.81,86.48 L141.95,86.48 L142.09,86.48 L142.22,86.48 L142.36,86.48 L142.49,86.48 L142.63,86.48 L142.77,86.48 L142.90,86.48 L143.04,86.48 L143.18,86.48 L143.31,86.48 L143.45,86.48 L143.59,86.48 L143.72,86.48 L143.86,86.48 L143.99,86.48 L144.13,86.48 L144.27,86.48 L144.40,86.48 L144.54,86.48 L144.68,86.48 L144.81,86.48 L144.95,86.48 L145.09,86.48 L145.22,86.48 L145.36,86.48 L145.49,86.48 L145.63,86.48 L145.77,86.48 L145.90,86.48 L146.04,86.48 L146.18,86.48 L146.31,86.48 L146.45,86.48 L146.58,86.48 L146.72,86.48 L146.86,86.48 L146.99,86.48 L147.13,86.48 L147.27,86.48 L147.40,86.48 L147.54,86.48 L147.68,86.48 L147.81,86.48 L147.95,86.48 L148.08,86.48 L148.22,86.48 L148.36,86.48 L148.49,86.48 L148.63,86.48 L148.77,86.48 L148.90,86.48 L149.04,86.48 L149.18,86.48 L149.31,86.48 L149.45,86.48 L149.58,86.48 L149.72,86.48 L149.86,86.48 L149.99,86.48 L150.13,86.48 L150.27,86.48 L150.40,86.48 L150.54,86.48 L150.67,86.48 L150.81,86.48 L150.95,86.48 L151.08,86.48 L151.22,86.48 L151.36,86.48 L151.49,86.48 L151.63,86.48 L151.77,86.48 L151.90,86.48 L152.04,86.48 L152.17,86.48 L152.31,86.48 L152.45,86.48 L152.58,86.48 L152.72,86.48 L152.86,86.48 L152.99,86.48 L153.13,86.48 L153.26,86.48 L153.40,86.48 L153.54,86.48 L153.67,86.48 L153.81,86.48 L153.95,86.48 L154.08,86.48 L154.22,86.48 L154.36,86.48 L154.49,86.48 L154.63,86.48 L154.76,86.48 L154.90,86.48 L155.04,86.48 L155.17,86.48 L155.31,86.48 L155.45,86.48 L155.58,86.48 L155.72,86.48 L155.72,86.48" style="stroke-width: 2; stroke: rgb(0, 0, 0); stroke-opacity: 1;"/><path d=" M231.79,90.71 L231.88,90.72 L231.96,90.73 L232.05,90.75 L232.13,90.76 L232.22,90.77 L232.31,90.78 L232.39,90.80 L232.48,90.81 L232.56,90.82 L232.65,90.83 L232.73,90.85 L232.82,90.86 L232.90,90.87 L232.99,90.88 L233.07,90.90 L233.16,90.91 L233.25,90.92 L233.33,90.93 L233.42,90.95 L233.50,90.96 L233.59,90.97 L233.67,90.98 L233.76,91.00 L233.84,91.01 L233.93,91.02 L234.02,91.03 L234.10,91.05 L234.19,91.06 L234.27,91.07 L234.36,91.08 L234.44,91.10 L234.53,91.11 L234.61,91.12 L234.70,91.13 L234.78,91.15 L234.87,91.16 L234.96,91.17 L235.04,91.18 L235.13,91.20 L235.21,91.21 L235.30,91.22 L235.38,91.23 L235.47,91.24 L235.55,91.26 L235.64,91.27 L235.72,91.28 L235.81,91.29 L235.90,91.31 L235.98,91.32 L236.07,91.33 L236.15,91.34 L236.24,91.35 L236.32,91.37 L236.41,91.38 L236.49,91.39 L236.58,91.40 L236.67,91.42 L236.75,91.43 L236.84,91.44 L236.92,91.45 L237.01,91.46 L237.09,91.48 L237.18,91.49 L237.26,91.50 L237.35,91.51 L237.43,91.52 L237.52,91.54 L237.61,91.55 L237.69,91.56 L237.78,91.57 L237.86,91.58 L237.95,91.60 L238.03,91.61 L238.12,91.62 L238.20,91.63 L238.29,91.64 L238.38,91.66 L238.46,91.67 L238.55,91.68 L238.63,91.69 L238.72,91.70 L238.80,91.72 L238.89,91.73 L238.97,91.74 L239.06,91.75 L239.14,91.76 L239.23,91.78 L239.32,91.79 L239.40,91.80 L239.49,91.81 L239.57,91.82 L239.66,91.83 L239.74,91.85 L239.83,91.86 L239.91,91.87 L240.00,91.88 L240.09,91.89 L240.17,91.91 L240.26,91.92 L240.34,91.93 L240.43,91.94 L240.51,91.95 L240.60,91.96 L240.68,91.98 L240.77,91.99 L240.85,92.00 L240.94,92.01 L241.03,92.02 L241.11,92.03 L241.20,92.05 L241.28,92.06 L241.37,92.07 L241.45,92.08 L241.54,92.09 L241.62,92.10 L241.71,92.12 L241.80,92.13 L241.88,92.14 L241.97,92.15 L242.05,92.16 L242.14,92.17 L242.22,92.19 L242.31,92.20 L242.39,92.21 L242.48,92.22 L242.56,92.23 L242.65,92.24 L242.74,92.26 L242.82,92.27 L242.91,92.28 L242.99,92.29 L243.08,92.30 L243.16,92.31 L243.25,92.32 L243.33,92.34 L243.42,92.35 L243.51,92.36 L243.59,92.37 L243.68,92.38 L243.76,92.39 L243.85,92.40 L243.93,92.42 L244.02,92.43 L244.10,92.44 L244.19,92.45 L244.27,92.46 L244.36,92.47 L244.45,92.48 L244.53,92.50 L244.62,92.51 L244.70,92.52 L244.79,92.53 L244.87,92.54 L244.96,92.55 L245.04,92.56 L245.13,92.58 L245.22,92.59 L245.30,92.60 L245.39,92.61 L245.47,92.62 L245.56,92.63 L245.64,92.64 L245.73,92.65 L245.81,92.67 L245.90,92.68 L245.98,92.69 L246.07,92.70 L246.16,92.71 L246.24,92.72 L246.33,92.73 L246.41,92.74 L246.50,92.75 L246.58,92.77 L246.67,92.78 L246.75,92.79 L246.84,92.80 L246.93,92.81 L247.01,92.82 L247.10,92.83 L247.18,92.84 L247.27,92.86 L247.35,92.87 L247.44,92.88 L247.52,92.89 L247.61,92.90 L247.69,92.91 L247.78,92.92 L247.87,92.93 L247.95,92.94 L248.04,92.95 L248.12,92.97 L248.21,92.98 L248.29,92.99 L248.38,93.00 L248.46,93.01 L248.55,93.02 L248.64,93.03 L248.72,93.04 L248.81,93.05 L248.89,93.06 L248.98,93.08 L249.06,93.09 L249.15,93.10 L249.23,93.11 L249.32,93.12 L249.40,93.13 L249.49,93.14 L249.58,93.15 L249.66,93.16 L249.75,93.17 L249.83,93.18 L249.92,93.20 L250.00,93.21 L250.09,93.22 L250.17,93.23 L250.26,93.24 L250.35,93.25 L250.43,93.26 L250.52,93.27 L250.60,93.28 L250.69,93.29 L250.77,93.30 L250.86,93.31 L250.94,93.33 L251.03,93.34 L251.11,93.35 L251.20,93.36 L251.29,93.37 L251.37,93.38 L251.46,93.39 L251.54,93.40 L251.63,93.41 L251.71,93.42 L251.80,93.43 L251.88,93.44 L251.97,93.45 L252.06,93.47 L252.14,93.48 L252.23,93.49 L252.31,93.50 L252.40,93.51 L252.48,93.52 L252.57,93.53 L252.65,93.54 L252.74,93.55 L252.82,93.56 L252.91,93.57 L253.00,93.58 L253.08,93.59 L253.17,93.60 L253.25,93.61 L253.34,93.62 L253.42,93.64 L253.51,93.65 L253.59,93.66 L253.68,93.67 L253.77,93.68 L253.85,93.69 L253.94,93.70 L254.02,93.71 L254.11,93.72 L254.19,93.73 L254.28,93.74 L254.36,93.75 L254.45,93.76 L254.53,93.77 L254.62,93.78 L254.71,93.79 L254.79,93.80 L254.88,93.81 L254.96,93.82 L255.05,93.83 L255.13,93.85 L255.22,93.86 L255.30,93.87 L255.39,93.88 L255.48,93.89 L255.56,93.90 L255.65,93.91 L255.73,93.92 L255.82,93.93 L255.90,93.94 L255.99,93.95 L256.07,93.96 L256.16,93.97 L256.24,93.98 L256.33,93.99 L256.42,94.00 L256.50,94.01 L256.59,94.02 L256.67,94.03 L256.76,94.04 L256.84,94.05 L256.93,94.06 L257.01,94.07 L257.10,94.08 L257.18,94.09 L257.27,94.10 L257.36,94.11 L257.44,94.12 L257.53,94.13 L257.61,94.14 L257.70,94.15 L257.78,94.17 L257.87,94.18 L257.95,94.19 L258.04,94.20 L258.13,94.21 L258.21,94.22 L258.30,94.23 L258.38,94.24 L258.47,94.25 L258.55,94.26 L258.64,94.27 L258.72,94.28 L258.81,94.29 L258.89,94.30 L258.98,94.31 L259.07,94.32 L259.15,94.33 L259.24,94.34 L259.32,94.35 L259.41,94.36 L259.49,94.37 L259.58,94.38 L259.66,94.39 L259.75,94.40 L259.84,94.41 L259.92,94.42 L260.01,94.43 L260.09,94.44 L260.18,94.45 L260.26,94.46 L260.35,94.47 L260.43,94.48 L260.52,94.49 L260.60,94.50 L260.69,94.51 L260.78,94.52 L260.86,94.53 L260.95,94.54 L261.03,94.55 L261.12,94.56 L261.20,94.57 L261.29,94.58 L261.37,94.59 L261.46,94.60 L261.55,94.61 L261.63,94.62 L261.72,94.63 L261.80,94.64 L261.89,94.65 L261.97,94.66 L262.06,94.67 L262.14,94.68 L262.23,94.69 L262.31,94.70 L262.40,94.71 L262.49,94.72 L262.57,94.73 L262.66,94.74 L262.74,94.75 L262.83,94.76 L262.91,94.77 L263.00,94.78 L263.08,94.79 L263.17,94.79 L263.26,94.80 L263.34,94.81 L263.43,94.82 L263.51,94.83 L263.60,94.84 L263.68,94.85 L263.77,94.86 L263.85,94.87 L263.94,94.88 L264.02,94.89 L264.11,94.90 L264.20,94.91 L264.28,94.92 L264.37,94.93 L264.45,94.94 L264.54,94.95 L264.62,94.96 L264.71,94.97 L264.79,94.98 L264.88,94.99 L264.97,95.00 L265.05,95.01 L265.14,95.02 L265.22,95.03 L265.31,95.04 L265.39,95.05 L265.48,95.06 L265.56,95.07 L265.65,95.08 L265.73,95.09 L265.82,95.10 L265.91,95.10 L265.99,95.11 L266.08,95.12 L266.16,95.13 L266.25,95.14 L266.33,95.15 L266.42,95.16 L266.50,95.17 L266.59,95.18 L266.68,95.19 L266.76,95.20 L266.85,95.21 L266.93,95.22 L267.02,95.23 L267.10,95.24 L267.19,95.25 L267.27,95.26 L267.36,95.27 L267.44,95.28 L267.53,95.29 L267.62,95.30 L267.70,95.30 L267.79,95.31 L267.87,95.32 L267.96,95.33 L268.04,95.34 L268.13,95.35 L268.21,95.36 L268.30,95.37 L268.39,95.38 L268.47,95.39 L268.56,95.40 L268.64,95.41 L268.73,95.42 L268.81,95.43 L268.90,95.44 L268.98,95.45 L269.07,95.46 L269.15,95.46 L269.24,95.47 L269.33,95.48 L269.41,95.49 L269.50,95.50 L269.58,95.51 L269.67,95.52 L269.75,95.53 L269.84,95.54 L269.92,95.55 L270.01,95.56 L270.10,95.57 L270.18,95.58 L270.27,95.59 L270.35,95.60 L270.44,95.60 L270.52,95.61 L270.61,95.62 L270.69,95.63 L270.78,95.64 L270.86,95.65 L270.95,95.66 L271.04,95.67 L271.12,95.68 L271.21,95.69 L271.29,95.70 L271.38,95.71 L271.46,95.72 L271.55,95.72 L271.63,95.73 L271.72,95.74 L271.81,95.75 L271.89,95.76 L271.98,95.77 L272.06,95.78 L272.15,95.79 L272.23,95.80 L272.32,95.81 L272.40,95.82 L272.49,95.82 L272.57,95.83 L272.66,95.84 L272.75,95.85 L272.83,95.86 L272.92,95.87 L273.00,95.88 L273.09,95.89 L273.17,95.90 L273.26,95.91 L273.34,95.92 L273.43,95.92 L273.52,95.93 L273.60,95.94 L273.69,95.95 L273.77,95.96 L273.86,95.97 L273.94,95.98 L274.03,95.99 L274.11,96.00 L274.20,96.01 L274.28,96.02 L274.37,96.02 L274.46,96.03 L274.54,96.04 L274.63,96.05 L274.71,96.06 L274.80,96.07 L274.88,96.08 L274.97,96.09 L275.05,96.10 L275.14,96.10 L275.23,96.11 L275.31,96.12 L275.40,96.13 L275.48,96.14 L275.57,96.15 L275.65,96.16 L275.74,96.17 L275.82,96.18 L275.91,96.19 L275.99,96.19 L276.08,96.20 L276.17,96.21 L276.25,96.22 L276.34,96.23 L276.42,96.24 L276.51,96.25 L276.59,96.26 L276.68,96.27 L276.76,96.27 L276.85,96.28 L276.94,96.29 L277.02,96.30 L277.11,96.31 L277.19,96.32 L277.28,96.33 L277.36,96.34 L277.45,96.34 L277.53,96.35 L277.62,96.36 L277.70,96.37 L277.79,96.38 L277.88,96.39 L277.96,96.40 L278.05,96.41 L278.13,96.41 L278.22,96.42 L278.30,96.43 L278.39,96.44 L278.47,96.45 L278.56,96.46 L278.65,96.47 L278.73,96.48 L278.82,96.48 L278.90,96.49 L278.99,96.50 L279.07,96.51 L279.16,96.52 L279.24,96.53 L279.33,96.54 L279.41,96.55 L279.50,96.55 L279.50,96.55" style="stroke-width: 2; stroke: rgb(0, 0, 0); stroke-opacity: 1;"/></g></g><g class="test-xtl" style="font-family: &quot;Open Sans&quot;, verdana, arial, sans-serif;"><text text-anchor="middle" font-size="11" dominant-baseline="hanging" stroke="none" fill="rgb(50,50,50)" fill-opacity="1" x="79.6458333333333" y="131.5184445973577">1</text><text text-anchor="middle" font-size="11" dominant-baseline="hanging" stroke="none" fill="rgb(50,50,50)" fill-opacity="1" x="155.71894643231687" y="131.5184445973577">2</text><text text-anchor="middle" font-size="11" dominant-baseline="hanging" stroke="none" fill="rgb(50,50,50)" fill-opacity="1" x="231.79205953130037" y="131.5184445973577">3</text><text text-anchor="middle" font-size="11" dominant-baseline="hanging" stroke="none" fill="rgb(50,50,50)" fill-opacity="1" x="-4.427279765650219" y="129.5184445973577">0</text></g><rect class="real" x="1" y="1" width="277.50000000000006" height="128" style="fill: transparent; stroke: none;"/></g></g></g><g class="arrow-line"><path class="connection real" stroke-dasharray="" d="  M49,276 L59,276" style="stroke: rgb(0, 0, 0); stroke-width: 1; fill: none; fill-opacity: 1;"/></g><g/></g><g/><g/><g/></svg>
        <svg xmlns="http://www.w3.org/2000/svg" xmlns:xlink="http://www.w3.org/1999/xlink" width="660" height="357" style="width:660px;height:357px;font-family:Asana-Math, Asana;background:transparent;"><g><g><g><g transform="matrix(1,0,0,1,52,16.499998474121092)"><path transform="matrix(0.0119,0,0,-0.0119,0,0)" d="M221 334L338 334L470 330L489 375L485 382C404 378 344 376 266 376L229 376L276 646C308 647 391 650 413 650C475 650 516 641 517 626L525 537L549 537C552 601 559 651 570 689C549 691 519 692 501 692C498 692 487 692 463 691L343 690C334 689 160 691 150 691L105 692L102 664L156 662C180 661 191 653 191 635C191 621 187 589 182 559L95 55C91 37 79 30 35 23L30 -3L71 -2C102 -1 164 0 184 0L409 -3C423 -3 448 -2 481 -1L514 0L518 36C520 56 525 86 534 135L539 161L512 161L496 101C486 65 477 53 455 48C435 44 362 39 308 39C267 39 240 40 171 46Z" stroke="rgb(0,0,0)" stroke-opacity="1" stroke-width="8" fill="rgb(0,0,0)" fill-opacity="1"></path></g></g><g><g><g><g><g transform="matrix(1,0,0,1,59.618743896484375,19.00500305175781)"><path transform="matrix(0.00833,0,0,-0.00833,0,0)" d="M368 365C371 403 376 435 384 476C373 481 369 482 364 482C333 482 302 458 266 407C227 351 188 291 172 256L204 408C208 425 210 438 210 450C210 470 202 482 187 482C166 482 128 461 54 408L26 388L33 368L65 389C93 407 104 412 113 412C123 412 130 403 130 390C130 332 87 126 47 -2L57 -9C72 -4 88 -1 111 4L124 6L150 126C168 209 191 262 235 319C269 363 296 384 318 384C333 384 343 379 354 365Z" stroke="rgb(0,0,0)" stroke-opacity="1" stroke-width="8" fill="rgb(0,0,0)" fill-opacity="1"></path></g></g></g></g></g></g></g><g><g><g><g transform="matrix(1,0,0,1,337.00001525878906,149.4999984741211)"><path transform="matrix(0.0119,0,0,-0.0119,0,0)" d="M368 365C371 403 376 435 384 476C373 481 369 482 364 482C333 482 302 458 266 407C227 351 188 291 172 256L204 408C208 425 210 438 210 450C210 470 202 482 187 482C166 482 128 461 54 408L26 388L33 368L65 389C93 407 104 412 113 412C123 412 130 403 130 390C130 332 87 126 47 -2L57 -9C72 -4 88 -1 111 4L124 6L150 126C168 209 191 262 235 319C269 363 296 384 318 384C333 384 343 379 354 365Z" stroke="rgb(0,0,0)" stroke-opacity="1" stroke-width="8" fill="rgb(0,0,0)" fill-opacity="1"></path></g></g><g><g transform="matrix(1,0,0,1,343.9937286376953,149.4999984741211)"><path transform="matrix(0.0119,0,0,-0.0119,0,0)" d="M297 714L242 714L-37 -169L18 -169Z" stroke="rgb(0,0,0)" stroke-opacity="1" stroke-width="8" fill="rgb(0,0,0)" fill-opacity="1"></path></g></g><g><g transform="matrix(1,0,0,1,349.7749786376953,149.4999984741211)"><path transform="matrix(0.0119,0,0,-0.0119,0,0)" d="M105 664L161 662C185 661 196 653 196 635C196 621 192 589 187 559L112 125C96 34 94 32 54 28L13 25L9 -3L51 -2C98 0 117 0 141 0L238 -3L264 -3L267 25L218 28C191 30 182 38 182 58C182 67 183 76 186 93L287 648C316 654 336 656 363 656C450 656 496 617 496 543C496 448 418 378 314 378L270 378L267 367C401 172 432 124 507 -3C507 -3 592 0 592 0C593 0 607 -1 626 -3L639 -3L639 24C599 29 588 37 559 79L375 354C430 364 459 376 495 402C553 444 584 499 584 560C584 646 520 693 409 691L108 691Z" stroke="rgb(0,0,0)" stroke-opacity="1" stroke-width="8" fill="rgb(0,0,0)" fill-opacity="1"></path></g></g></g></g><g><g><g><g><g><g><g transform="matrix(1,0,0,1,188.9187469482422,122.50000762939453)"><path transform="matrix(0.0085,0,0,-0.0085,0,0)" d="M240 722L228 733C176 707 140 698 68 691L64 670L112 670C136 670 146 663 146 646C146 638 145 629 144 622L96 354C82 279 66 210 14 1L23 -9L90 8L113 132C122 180 146 225 180 259C249 59 281 -9 306 -9C319 -9 343 4 387 35L433 67L425 86L382 62C368 54 361 52 353 52C343 52 336 58 327 75C292 139 270 193 231 316L245 330C306 391 352 416 402 416C410 416 421 414 438 410L455 473C437 479 419 482 407 482C341 482 258 405 133 230ZM853 458C810 475 781 482 752 482C677 482 589 394 571 374C531 327 492 181 492 78C492 19 504 -11 528 -11C550 -11 569 -3 601 19C648 51 727 121 776 209L700 -205C695 -229 685 -249 673 -262L682 -276C713 -268 744 -262 768 -259C772 -205 778 -150 787 -100L873 356C884 417 890 443 900 474L886 480ZM586 59C572 59 564 80 564 113C564 209 607 359 649 409C661 424 690 433 722 433C750 433 771 427 819 406L798 311C769 174 628 59 586 59Z" stroke="rgb(0,0,0)" stroke-opacity="1" stroke-width="8" fill="rgb(0,0,0)" fill-opacity="1"></path></g></g></g></g><g><g><g><g transform="matrix(1,0,0,1,182.84999084472656,137.56250762939453)"><path transform="matrix(0.0085,0,0,-0.0085,0,0)" d="M146 266C146 526 243 632 301 700L282 726C225 675 60 542 60 266C60 159 85 58 133 -32C168 -99 200 -138 282 -215L301 -194C255 -137 146 -15 146 266Z" stroke="rgb(0,0,0)" stroke-opacity="1" stroke-width="8" fill="rgb(0,0,0)" fill-opacity="1"></path></g></g><g><g transform="matrix(1,0,0,1,185.6750030517578,137.56250762939453)"><path transform="matrix(0.0085,0,0,-0.0085,0,0)" d="M16 23L16 -3C203 -3 203 0 239 0C275 0 275 -3 468 -3L468 82C353 77 307 81 122 77L304 270C401 373 431 428 431 503C431 618 353 689 226 689C154 689 105 669 56 619L39 483L68 483L81 529C97 587 133 612 200 612C286 612 341 558 341 473C341 398 299 324 186 204ZM604 664L660 662C684 661 695 653 695 635C695 621 691 589 686 559L611 125C595 34 593 32 553 28L512 25L508 -3L550 -2C597 0 616 0 640 0L737 -3L763 -3L766 25L717 28C690 30 681 38 681 58C681 67 682 76 685 93L786 648C815 654 835 656 862 656C949 656 995 617 995 543C995 448 917 378 813 378L769 378L766 367C900 172 931 124 1006 -3C1006 -3 1091 0 1091 0C1092 0 1106 -1 1125 -3L1138 -3L1138 24C1098 29 1087 37 1058 79L874 354C929 364 958 376 994 402C1052 444 1083 499 1083 560C1083 646 1019 693 908 691L607 691Z" stroke="rgb(0,0,0)" stroke-opacity="1" stroke-width="8" fill="rgb(0,0,0)" fill-opacity="1"></path></g></g><g><g transform="matrix(1,0,0,1,195.5812530517578,137.56250762939453)"><path transform="matrix(0.0085,0,0,-0.0085,0,0)" d="M51 726L32 700C87 636 187 526 187 266C187 -10 83 -131 32 -194L51 -215C104 -165 273 -23 273 265C273 542 108 675 51 726Z" stroke="rgb(0,0,0)" stroke-opacity="1" stroke-width="8" fill="rgb(0,0,0)" fill-opacity="1"></path></g></g><g><g><g><g><g transform="matrix(1,0,0,1,198.8937530517578,134.00000762939453)"><path transform="matrix(0.007,0,0,-0.007,0,0)" d="M16 23L16 -3C203 -3 203 0 239 0C275 0 275 -3 468 -3L468 82C353 77 307 81 122 77L304 270C401 373 431 428 431 503C431 618 353 689 226 689C154 689 105 669 56 619L39 483L68 483L81 529C97 587 133 612 200 612C286 612 341 558 341 473C341 398 299 324 186 204Z" stroke="rgb(0,0,0)" stroke-opacity="1" stroke-width="8" fill="rgb(0,0,0)" fill-opacity="1"></path></g></g></g></g></g></g></g><line style="fill:none;stroke-width:1px;stroke:rgb(0, 0, 0);" x1="182.84999084472656" y1="126.2750015258789" x2="202.89374160766602" y2="126.2750015258789"></line></g></g></g><g><g><g><g><g><g><g transform="matrix(1,0,0,1,23.96875,63.50000762939453)"><path transform="matrix(0.0085,0,0,-0.0085,0,0)" d="M240 722L228 733C176 707 140 698 68 691L64 670L112 670C136 670 146 663 146 646C146 638 145 629 144 622L96 354C82 279 66 210 14 1L23 -9L90 8L113 132C122 180 146 225 180 259C249 59 281 -9 306 -9C319 -9 343 4 387 35L433 67L425 86L382 62C368 54 361 52 353 52C343 52 336 58 327 75C292 139 270 193 231 316L245 330C306 391 352 416 402 416C410 416 421 414 438 410L455 473C437 479 419 482 407 482C341 482 258 405 133 230ZM853 458C810 475 781 482 752 482C677 482 589 394 571 374C531 327 492 181 492 78C492 19 504 -11 528 -11C550 -11 569 -3 601 19C648 51 727 121 776 209L700 -205C695 -229 685 -249 673 -262L682 -276C713 -268 744 -262 768 -259C772 -205 778 -150 787 -100L873 356C884 417 890 443 900 474L886 480ZM586 59C572 59 564 80 564 113C564 209 607 359 649 409C661 424 690 433 722 433C750 433 771 427 819 406L798 311C769 174 628 59 586 59Z" stroke="rgb(0,0,0)" stroke-opacity="1" stroke-width="8" fill="rgb(0,0,0)" fill-opacity="1"></path></g></g></g></g><g><g><g><g transform="matrix(1,0,0,1,22.849990844726562,78.56250762939453)"><path transform="matrix(0.0085,0,0,-0.0085,0,0)" d="M105 664L161 662C185 661 196 653 196 635C196 621 192 589 187 559L112 125C96 34 94 32 54 28L13 25L9 -3L51 -2C98 0 117 0 141 0L238 -3L264 -3L267 25L218 28C191 30 182 38 182 58C182 67 183 76 186 93L287 648C316 654 336 656 363 656C450 656 496 617 496 543C496 448 418 378 314 378L270 378L267 367C401 172 432 124 507 -3C507 -3 592 0 592 0C593 0 607 -1 626 -3L639 -3L639 24C599 29 588 37 559 79L375 354C430 364 459 376 495 402C553 444 584 499 584 560C584 646 520 693 409 691L108 691Z" stroke="rgb(0,0,0)" stroke-opacity="1" stroke-width="8" fill="rgb(0,0,0)" fill-opacity="1"></path></g></g><g><g><g><g><g transform="matrix(1,0,0,1,29,75.00000762939453)"><path transform="matrix(0.007,0,0,-0.007,0,0)" d="M16 23L16 -3C203 -3 203 0 239 0C275 0 275 -3 468 -3L468 82C353 77 307 81 122 77L304 270C401 373 431 428 431 503C431 618 353 689 226 689C154 689 105 669 56 619L39 483L68 483L81 529C97 587 133 612 200 612C286 612 341 558 341 473C341 398 299 324 186 204Z" stroke="rgb(0,0,0)" stroke-opacity="1" stroke-width="8" fill="rgb(0,0,0)" fill-opacity="1"></path></g></g></g></g></g></g></g><line style="fill:none;stroke-width:1px;stroke:rgb(0, 0, 0);" x1="22.849990844726562" y1="67.2750015258789" x2="32.99999141693115" y2="67.2750015258789"></line></g></g></g><g><g><g><g><g><g><g transform="matrix(1,0,0,1,261.7937469482422,107.50000762939453)"><path transform="matrix(0.0085,0,0,-0.0085,0,0)" d="M280 181L280 106C280 46 269 32 220 30L158 27L158 -3C291 0 291 0 315 0C339 0 339 0 472 -3L472 27L424 30C375 33 364 46 364 106L364 181C423 181 444 180 472 177L472 248L364 245L365 697L285 667L2 204L2 181ZM280 245L65 245L280 597ZM739 722L727 733C675 707 639 698 567 691L563 670L611 670C635 670 645 663 645 646C645 638 644 629 643 622L595 354C581 279 565 210 513 1L522 -9L589 8L612 132C621 180 645 225 679 259C748 59 780 -9 805 -9C818 -9 842 4 886 35L932 67L924 86L881 62C867 54 860 52 852 52C842 52 835 58 826 75C791 139 769 193 730 316L744 330C805 391 851 416 901 416C909 416 920 414 937 410L954 473C936 479 918 482 906 482C840 482 757 405 632 230ZM1352 458C1309 475 1280 482 1251 482C1176 482 1088 394 1070 374C1030 327 991 181 991 78C991 19 1003 -11 1027 -11C1049 -11 1068 -3 1100 19C1147 51 1226 121 1275 209L1199 -205C1194 -229 1184 -249 1172 -262L1181 -276C1212 -268 1243 -262 1267 -259C1271 -205 1277 -150 1286 -100L1372 356C1383 417 1389 443 1399 474L1385 480ZM1085 59C1071 59 1063 80 1063 113C1063 209 1106 359 1148 409C1160 424 1189 433 1221 433C1249 433 1270 427 1318 406L1297 311C1268 174 1127 59 1085 59Z" stroke="rgb(0,0,0)" stroke-opacity="1" stroke-width="8" fill="rgb(0,0,0)" fill-opacity="1"></path></g></g></g></g><g><g><g><g transform="matrix(1,0,0,1,257.84999084472656,122.56250762939453)"><path transform="matrix(0.0085,0,0,-0.0085,0,0)" d="M146 266C146 526 243 632 301 700L282 726C225 675 60 542 60 266C60 159 85 58 133 -32C168 -99 200 -138 282 -215L301 -194C255 -137 146 -15 146 266Z" stroke="rgb(0,0,0)" stroke-opacity="1" stroke-width="8" fill="rgb(0,0,0)" fill-opacity="1"></path></g></g><g><g transform="matrix(1,0,0,1,260.6750030517578,122.56250762939453)"><path transform="matrix(0.0085,0,0,-0.0085,0,0)" d="M462 224C462 345 355 366 308 374C388 436 418 482 418 541C418 630 344 689 233 689C165 689 120 670 72 622L43 498L74 498L92 554C103 588 166 622 218 622C283 622 336 569 336 506C336 431 277 368 206 368C198 368 187 369 174 370L159 371L147 318L154 312C192 329 211 334 238 334C321 334 369 281 369 190C369 88 308 21 215 21C169 21 128 36 98 64C74 86 61 109 42 163L15 153C36 92 44 56 50 6C103 -12 147 -20 184 -20C307 -20 462 87 462 224ZM604 664L660 662C684 661 695 653 695 635C695 621 691 589 686 559L611 125C595 34 593 32 553 28L512 25L508 -3L550 -2C597 0 616 0 640 0L737 -3L763 -3L766 25L717 28C690 30 681 38 681 58C681 67 682 76 685 93L786 648C815 654 835 656 862 656C949 656 995 617 995 543C995 448 917 378 813 378L769 378L766 367C900 172 931 124 1006 -3C1006 -3 1091 0 1091 0C1092 0 1106 -1 1125 -3L1138 -3L1138 24C1098 29 1087 37 1058 79L874 354C929 364 958 376 994 402C1052 444 1083 499 1083 560C1083 646 1019 693 908 691L607 691Z" stroke="rgb(0,0,0)" stroke-opacity="1" stroke-width="8" fill="rgb(0,0,0)" fill-opacity="1"></path></g></g><g><g transform="matrix(1,0,0,1,270.5812530517578,122.56250762939453)"><path transform="matrix(0.0085,0,0,-0.0085,0,0)" d="M51 726L32 700C87 636 187 526 187 266C187 -10 83 -131 32 -194L51 -215C104 -165 273 -23 273 265C273 542 108 675 51 726Z" stroke="rgb(0,0,0)" stroke-opacity="1" stroke-width="8" fill="rgb(0,0,0)" fill-opacity="1"></path></g></g><g><g><g><g><g transform="matrix(1,0,0,1,273.8937530517578,119.00000762939453)"><path transform="matrix(0.007,0,0,-0.007,0,0)" d="M16 23L16 -3C203 -3 203 0 239 0C275 0 275 -3 468 -3L468 82C353 77 307 81 122 77L304 270C401 373 431 428 431 503C431 618 353 689 226 689C154 689 105 669 56 619L39 483L68 483L81 529C97 587 133 612 200 612C286 612 341 558 341 473C341 398 299 324 186 204Z" stroke="rgb(0,0,0)" stroke-opacity="1" stroke-width="8" fill="rgb(0,0,0)" fill-opacity="1"></path></g></g></g></g></g></g></g><line style="fill:none;stroke-width:1px;stroke:rgb(0, 0, 0);" x1="257.84999084472656" y1="111.2750015258789" x2="277.893741607666" y2="111.2750015258789"></line></g></g></g><g><g><g><g transform="matrix(1,0,0,1,47,181.4999984741211)"><path transform="matrix(0.0119,0,0,-0.0119,0,0)" d="M310 96L239 624C237 646 241 661 281 662L323 664L323 692L282 691C245 690 217 689 199 689C181 689 153 690 116 691L75 692L75 664L100 662C144 659 152 651 159 614L247 -8L296 -8L674 611C699 651 707 658 736 662L754 664L754 692L724 691C697 690 674 689 658 689C648 689 621 690 580 691L534 692L534 664L560 662C598 659 617 649 617 630C617 619 613 608 601 588Z" stroke="rgb(0,0,0)" stroke-opacity="1" stroke-width="8" fill="rgb(0,0,0)" fill-opacity="1"></path></g></g></g></g><g><g><g><g transform="matrix(1,0,0,1,335.99998474121094,317.49999847412107)"><path transform="matrix(0.0119,0,0,-0.0119,0,0)" d="M368 365C371 403 376 435 384 476C373 481 369 482 364 482C333 482 302 458 266 407C227 351 188 291 172 256L204 408C208 425 210 438 210 450C210 470 202 482 187 482C166 482 128 461 54 408L26 388L33 368L65 389C93 407 104 412 113 412C123 412 130 403 130 390C130 332 87 126 47 -2L57 -9C72 -4 88 -1 111 4L124 6L150 126C168 209 191 262 235 319C269 363 296 384 318 384C333 384 343 379 354 365Z" stroke="rgb(0,0,0)" stroke-opacity="1" stroke-width="8" fill="rgb(0,0,0)" fill-opacity="1"></path></g></g><g><g transform="matrix(1,0,0,1,342.9937286376953,317.49999847412107)"><path transform="matrix(0.0119,0,0,-0.0119,0,0)" d="M297 714L242 714L-37 -169L18 -169Z" stroke="rgb(0,0,0)" stroke-opacity="1" stroke-width="8" fill="rgb(0,0,0)" fill-opacity="1"></path></g></g><g><g transform="matrix(1,0,0,1,348.7749786376953,317.49999847412107)"><path transform="matrix(0.0119,0,0,-0.0119,0,0)" d="M105 664L161 662C185 661 196 653 196 635C196 621 192 589 187 559L112 125C96 34 94 32 54 28L13 25L9 -3L51 -2C98 0 117 0 141 0L238 -3L264 -3L267 25L218 28C191 30 182 38 182 58C182 67 183 76 186 93L287 648C316 654 336 656 363 656C450 656 496 617 496 543C496 448 418 378 314 378L270 378L267 367C401 172 432 124 507 -3C507 -3 592 0 592 0C593 0 607 -1 626 -3L639 -3L639 24C599 29 588 37 559 79L375 354C430 364 459 376 495 402C553 444 584 499 584 560C584 646 520 693 409 691L108 691Z" stroke="rgb(0,0,0)" stroke-opacity="1" stroke-width="8" fill="rgb(0,0,0)" fill-opacity="1"></path></g></g></g></g><g><g><g><g><g><g><g transform="matrix(1,0,0,1,15.1875,271.49999847412107)"><path transform="matrix(0.0119,0,0,-0.0119,0,0)" d="M462 224C462 345 355 366 308 374C388 436 418 482 418 541C418 630 344 689 233 689C165 689 120 670 72 622L43 498L74 498L92 554C103 588 166 622 218 622C283 622 336 569 336 506C336 431 277 368 206 368C198 368 187 369 174 370L159 371L147 318L154 312C192 329 211 334 238 334C321 334 369 281 369 190C369 88 308 21 215 21C169 21 128 36 98 64C74 86 61 109 42 163L15 153C36 92 44 56 50 6C103 -12 147 -20 184 -20C307 -20 462 87 462 224Z" stroke="rgb(0,0,0)" stroke-opacity="1" stroke-width="8" fill="rgb(0,0,0)" fill-opacity="1"></path></g></g></g></g><g><g><g><g transform="matrix(1,0,0,1,15.1875,288.5062545776367)"><path transform="matrix(0.0119,0,0,-0.0119,0,0)" d="M16 23L16 -3C203 -3 203 0 239 0C275 0 275 -3 468 -3L468 82C353 77 307 81 122 77L304 270C401 373 431 428 431 503C431 618 353 689 226 689C154 689 105 669 56 619L39 483L68 483L81 529C97 587 133 612 200 612C286 612 341 558 341 473C341 398 299 324 186 204Z" stroke="rgb(0,0,0)" stroke-opacity="1" stroke-width="8" fill="rgb(0,0,0)" fill-opacity="1"></path></g></g></g></g><line style="fill:none;stroke-width:1px;stroke:rgb(0, 0, 0);" x1="15.1875" y1="276.6312484741211" x2="21.13124990463257" y2="276.6312484741211"></line></g><g><g transform="matrix(1,0,0,1,22.318740844726562,279.5062545776367)"><path transform="matrix(0.0119,0,0,-0.0119,0,0)" d="M240 722L228 733C176 707 140 698 68 691L64 670L112 670C136 670 146 663 146 646C146 638 145 629 144 622L96 354C82 279 66 210 14 1L23 -9L90 8L113 132C122 180 146 225 180 259C249 59 281 -9 306 -9C319 -9 343 4 387 35L433 67L425 86L382 62C368 54 361 52 353 52C343 52 336 58 327 75C292 139 270 193 231 316L245 330C306 391 352 416 402 416C410 416 421 414 438 410L455 473C437 479 419 482 407 482C341 482 258 405 133 230ZM853 458C810 475 781 482 752 482C677 482 589 394 571 374C531 327 492 181 492 78C492 19 504 -11 528 -11C550 -11 569 -3 601 19C648 51 727 121 776 209L700 -205C695 -229 685 -249 673 -262L682 -276C713 -268 744 -262 768 -259C772 -205 778 -150 787 -100L873 356C884 417 890 443 900 474L886 480ZM586 59C572 59 564 80 564 113C564 209 607 359 649 409C661 424 690 433 722 433C750 433 771 427 819 406L798 311C769 174 628 59 586 59Z" stroke="rgb(0,0,0)" stroke-opacity="1" stroke-width="8" fill="rgb(0,0,0)" fill-opacity="1"></path></g></g></g></g></svg>
</svg>
