<svg xmlns="http://www.w3.org/2000/svg" xmlns:xlink="http://www.w3.org/1999/xlink" x="0" y="0" width="662" height="142" style="
        width:662px;
        height:142px;
        background: transparent;
        fill: none;
">
        
        
        <svg xmlns="http://www.w3.org/2000/svg" class="role-diagram-draw-area"><g class="shapes-region" style="stroke: black; fill: none;"><g class="shape"><path class="real" d=" M83.26,21.22 C98.13,37.91 131.28,122.18 106.75,108.1 C82.23,94.01 72.57,96.62 48.83,123.76 C25.09,150.89 1.6,64.01 25.34,36.88 C49.08,9.74 68.39,4.52 83.26,21.22 Z" style="stroke: rgb(0, 0, 0); stroke-width: 1; fill: rgb(215, 215, 215); fill-opacity: 1;"/></g><g class="composite-shape"><path class="real" d=" M114.69,61.16 L99.02,67.74 C97.18,68.51 93.62,64.17 91.06,58.06 C88.49,51.95 87.9,46.37 89.74,45.6 L105.41,39.03 C107.25,38.26 110.81,42.59 113.37,48.7 C115.94,54.82 116.53,60.39 114.69,61.16 C112.86,61.93 109.3,57.6 106.73,51.49 C104.17,45.38 103.58,39.8 105.41,39.03" style="stroke-width: 1; stroke: rgb(0, 0, 0); fill: none; fill-opacity: 1;"/></g><g class="arrow-line"><path class="connection real" stroke-dasharray="" d="  M116.25,86.92 C144.66,60.9 138.18,74.62 145,91.2" style="stroke: rgb(0, 0, 0); stroke-width: 1; fill: none; fill-opacity: 1;"/><g stroke="none" fill="#000" transform="matrix(0.7326616958340131,-0.6805930057366356,0.6805930057366356,0.7326616958340131,114,89)" style="stroke: none; fill: rgb(0, 0, 0); stroke-width: 1;"><path d=" M8.93,-4.29 L0,0 L8.93,4.29 Z"/></g></g><g class="arrow-line"><path class="connection real" stroke-dasharray="" d="  M109.73,49.49 L106.18,40.88" style="stroke: rgb(0, 0, 0); stroke-width: 1; fill: none; fill-opacity: 1;"/><g stroke="#000" transform="matrix(0.3818770497656754,0.924213134976053,-0.924213134976053,0.3818770497656754,105.41271067968194,39.030278728908996)" style="stroke: rgb(0, 0, 0); stroke-width: 1;"><path d=" M6.56,-1.97 Q2.98,-0.27 0,0 Q2.98,0.27 6.56,1.97"/></g></g><g class="arrow-line"><path class="connection real" stroke-dasharray="" d="  M101,53.2 L152.12,34.87" style="stroke: rgb(0, 0, 0); stroke-width: 1; fill: none; fill-opacity: 1;"/><g stroke="#000" transform="matrix(-0.9413528190137155,0.3374238730957414,-0.3374238730957414,-0.9413528190137155,154,34.19999694824219)" style="stroke: rgb(0, 0, 0); stroke-width: 1;"><path d=" M6.56,-1.97 Q2.98,-0.27 0,0 Q2.98,0.27 6.56,1.97"/></g></g><g/></g><g/><g/><g/></svg>
        <svg xmlns="http://www.w3.org/2000/svg" xmlns:xlink="http://www.w3.org/1999/xlink" width="660" height="140" style="width:660px;height:140px;font-family:Asana-Math, Asana;background:transparent;"><g transform="matrix(0.999914327574007,-0.013089595571344759,0.013089595571344759,0.999914327574007,-1.1057265264572749,0.6098752921774349)"><g><g><text x="22.98126220703125" y="71.57499694824219" style="white-space:pre;stroke:none;fill:rgb(0,0,0);fill-opacity:1;font-size:10.5px;font-family:Arial, Helvetica, sans-serif;font-weight:400;font-style:normal;dominant-baseline:text-before-edge;text-decoration:none solid rgb(0, 0, 0);">Charged</text></g></g><g><g><text x="22.98126220703125" y="85.97499084472656" style="white-space:pre;stroke:none;fill:rgb(0,0,0);fill-opacity:1;font-size:10.5px;font-family:Arial, Helvetica, sans-serif;font-weight:400;font-style:normal;dominant-baseline:text-before-edge;text-decoration:none solid rgb(0, 0, 0);">conductor</text></g></g></g><g><g><g><g transform="matrix(1,0,0,1,140,105.59999084472656)"><path transform="matrix(0.017,0,0,-0.017,0,0)" d="M171 -15C331 -15 431 100 434 257C436 343 410 361 345 404L345 407C398 407 457 403 511 411C518 431 521 451 524 474C485 453 364 467 313 457C150 424 28 329 28 153C28 48 59 -15 171 -15ZM367 267C367 168 329 13 203 13C111 13 103 112 104 182C105 292 143 412 274 412C359 412 367 328 367 267Z" stroke="rgb(0,0,0)" stroke-opacity="1" stroke-width="8" fill="rgb(0,0,0)" fill-opacity="1"></path></g></g><g><text x="153.6187744140625" y="90.59999084472656" style="white-space:pre;stroke:none;fill:rgb(0,0,0);fill-opacity:1;font-size:17px;font-family:Arial, Helvetica, sans-serif;font-weight:400;font-style:normal;dominant-baseline:text-before-edge;text-decoration:none solid rgb(0, 0, 0);">varies along surface</text></g></g></g><g><g><g><g transform="matrix(1,0,0,1,113,45.500006103515624)"><path transform="matrix(0.0119,0,0,-0.0119,0,0)" d="M31 148C26 97 20 62 9 16C47 -2 81 -11 116 -11C165 -11 211 7 262 47C313 87 334 124 334 174C334 228 302 257 228 271L185 279C125 290 106 307 106 348C106 401 151 442 208 442C249 442 287 424 303 397L303 342L326 342C330 377 334 404 345 455C306 474 278 482 245 482C193 482 132 452 84 404C58 377 47 352 47 316C47 260 78 228 144 215L207 203C251 195 267 177 267 138C267 73 221 29 150 29C115 29 84 40 56 64L56 148Z" stroke="rgb(0,0,0)" stroke-opacity="1" stroke-width="8" fill="rgb(0,0,0)" fill-opacity="1"></path></g></g></g></g><g><g><g><g transform="matrix(1,0,0,1,150,28.500006103515624)"><path transform="matrix(0.0119,0,0,-0.0119,0,0)" d="M322 -11C334 -11 343 -9 372 -1C383 61 391 95 402 142L380 142L358 82C352 64 340 57 319 57C307 57 291 59 270 64L252 68C219 75 185 80 166 80C134 80 107 74 71 59L410 441L416 473L407 482L384 459C374 449 364 445 350 445C316 445 264 453 216 466L198 471C170 478 150 482 136 482C119 482 99 479 75 472L43 350L64 350L94 408C111 412 120 413 133 413C174 413 206 398 259 398C295 398 319 404 352 421L-1 21L8 -6C37 17 64 26 99 26C162 26 253 -11 322 -11Z" stroke="rgb(0,0,0)" stroke-opacity="1" stroke-width="8" fill="rgb(0,0,0)" fill-opacity="1"></path></g></g></g></g></svg>
</svg>
