<svg xmlns="http://www.w3.org/2000/svg" xmlns:xlink="http://www.w3.org/1999/xlink" x="0" y="0" width="662" height="153" style="
        width:662px;
        height:153px;
        background: transparent;
        fill: none;
">
        
        
        <svg xmlns="http://www.w3.org/2000/svg" class="role-diagram-draw-area"><g class="shapes-region" style="stroke: black; fill: none;"><g class="composite-shape"><path class="real" d=" M40,112.35 L190,112.35 L190,118.4 L40,118.4 Z" style="stroke-width: 1; stroke: rgb(215, 215, 215); stroke-opacity: 1; fill: rgb(215, 215, 215); fill-opacity: 1;"/></g><g class="arrow-line"><path class="connection real" stroke-dasharray="" d="  M110,115.4 L110,5" style="stroke: rgb(0, 0, 0); stroke-opacity: 0.29; stroke-width: 1; fill: rgb(0, 0, 0); fill-opacity: 0.5;"/><g stroke="rgb(0,0,0)" stroke-opacity="0.29" transform="matrix(3.061616997868383e-16,1,-1,3.061616997868383e-16,110,3.0000152587890625)" style="stroke: rgb(0, 0, 0); stroke-width: 1;"><path d=" M10.93,-3.29 Q4.96,-0.45 0,0 Q4.96,0.45 10.93,3.29"/></g></g><g class="arrow-line"><path class="connection real" stroke-dasharray="" d="  M40,113.35 L40,133" style="stroke: rgb(0, 0, 0); stroke-opacity: 0.29; stroke-width: 1; fill: none; fill-opacity: 1;"/></g><g class="arrow-line"><path class="connection real" stroke-dasharray="" d="  M190,113.35 L190,129.75" style="stroke: rgb(0, 0, 0); stroke-opacity: 0.29; stroke-width: 1; fill: none; fill-opacity: 1;"/></g><g class="arrow-line"><path class="connection real" stroke-dasharray="" d="  M110,115.4 L220.81,115.4" style="stroke: rgb(0, 0, 0); stroke-opacity: 0.29; stroke-width: 1; fill: none; fill-opacity: 1;"/><g stroke="rgb(0,0,0)" stroke-opacity="0.29" transform="matrix(-1,1.2246467991473532e-16,-1.2246467991473532e-16,-1,222.80953216552734,115.4000244140625)" style="stroke: rgb(0, 0, 0); stroke-width: 1;"><path d=" M10.93,-3.29 Q4.96,-0.45 0,0 Q4.96,0.45 10.93,3.29"/></g></g><g class="arrow-line"><path class="connection real" stroke-dasharray="" d="  M150,115 L110.94,41.76" style="stroke: rgb(0, 0, 0); stroke-width: 1; fill: none; fill-opacity: 1;"/><g stroke="#000" transform="matrix(0.470549936128256,0.8823733663306561,-0.8823733663306561,0.470549936128256,110,40)" style="stroke: rgb(0, 0, 0); stroke-width: 1;"><path d=" M6.56,-1.97 Q2.98,-0.27 0,0 Q2.98,0.27 6.56,1.97"/></g></g><g class="arrow-line"><path class="connection real" stroke-dasharray="" d="  M80,115 L109.26,41.86" style="stroke: rgb(0, 0, 0); stroke-width: 1; fill: none; fill-opacity: 1;"/><g stroke="#000" transform="matrix(-0.371367835550234,0.9284858268809139,-0.9284858268809139,-0.371367835550234,110.00000000000001,40)" style="stroke: rgb(0, 0, 0); stroke-width: 1;"><path d=" M6.56,-1.97 Q2.98,-0.27 0,0 Q2.98,0.27 6.56,1.97"/></g></g><g class="arrow-line"><path class="connection real" stroke-dasharray="" d="  M110,115.4 L110.67,44.5" style="stroke: rgb(0, 0, 0); stroke-width: 1; fill: none; fill-opacity: 1;"/><g stroke="#000" transform="matrix(-0.009424638433144002,0.9999555871089498,-0.9999555871089498,-0.009424638433144002,110.69046783447264,42.5)" style="stroke: rgb(0, 0, 0); stroke-width: 1;"><path d=" M6.56,-1.97 Q2.98,-0.27 0,0 Q2.98,0.27 6.56,1.97"/></g></g><g/></g><g/><g/><g/></svg>
        <svg xmlns="http://www.w3.org/2000/svg" xmlns:xlink="http://www.w3.org/1999/xlink" width="660" height="151" style="width:660px;height:151px;font-family:Asana-Math, Asana;background:transparent;"><g><g><g><g transform="matrix(1,0,0,1,143,76.00000915527343)"><path transform="matrix(0.0136,0,0,-0.0136,0,0)" d="M-7 -180C-8 -187 -8 -193 -8 -198C-8 -241 29 -276 74 -276C180 -276 290 -152 349 33L490 473L479 482C450 471 427 465 405 463L370 331C358 284 323 211 290 162C255 111 206 67 184 67C172 67 163 90 164 115L180 322C182 353 184 391 184 419C184 464 177 482 160 482C147 482 133 475 85 442L3 386L14 368L64 398C69 401 80 410 89 410C103 410 111 391 111 358C111 357 111 351 110 343L93 100L92 60C92 18 110 -11 135 -11C172 -11 256 74 331 187L282 16C231 -161 181 -234 111 -234C76 -234 49 -207 49 -172C49 -167 50 -159 51 -150L41 -146Z" stroke="rgb(0,0,0)" stroke-opacity="1" stroke-width="8" fill="rgb(0,0,0)" fill-opacity="1"></path></g></g><g><g><g><g><g transform="matrix(1,0,0,1,149.7874755859375,76.00000915527343)"><path transform="matrix(0.0136,0,0,-0.0136,0,0)" d="M297 86C275 124 264 147 246 196L182 364C176 381 172 396 172 406C172 420 183 428 206 429L244 431L244 459C147 456 147 456 128 456C109 456 109 456 12 459L12 431L30 429C55 426 67 415 82 380L191 118C219 50 229 26 247 -24L224 -85C192 -169 153 -216 115 -216C99 -216 81 -208 64 -193L51 -193L27 -268C46 -278 62 -283 81 -283C148 -283 191 -247 229 -160L432 308C472 399 491 426 516 429L544 431L544 459C465 456 465 456 449 456C433 456 433 456 354 459L354 431L380 429C408 427 422 418 422 404C422 397 420 388 416 378Z" stroke="rgb(0,0,0)" stroke-opacity="1" stroke-width="24" fill="rgb(0,0,0)" fill-opacity="1"></path></g></g></g></g><svg x="149.7874755859375" overflow="visible" y="60.80000305175781" height="7" width="7.550000190734863"><polyline points="0.00,6.24 3.78,3.73 7.55,6.24" style="fill:none;fill-opacity:1;stroke-width:1px;stroke:rgb(0,0,0);stroke-opacity:1;"></polyline></svg></g><g><g transform="matrix(1,0,0,1,160.05624389648438,76.00000915527343)"><path transform="matrix(0.0136,0,0,-0.0136,0,0)" d="M555 243L555 299L51 299L51 243Z" stroke="rgb(0,0,0)" stroke-opacity="1" stroke-width="8" fill="rgb(0,0,0)" fill-opacity="1"></path></g></g><g><g><g><g><g transform="matrix(1,0,0,1,172.02499389648438,67.54999084472657)"><path transform="matrix(0.010199999999999999,0,0,-0.010199999999999999,0,0)" d="M349 664L352 692L238 689C222 689 204 689 161 690L97 692L94 664L141 662C165 661 176 653 176 635L81 55C77 37 65 30 21 23L16 -3L57 -2C88 -1 150 0 170 0C170 0 467 -1 467 -1C467 -1 500 0 500 0C499 25 510 103 523 165L492 165L475 103C466 71 457 54 448 49C435 44 371 39 304 39C255 39 228 40 162 46C165 64 256 605 256 613C263 651 270 658 307 661Z" stroke="rgb(0,0,0)" stroke-opacity="1" stroke-width="8" fill="rgb(0,0,0)" fill-opacity="1"></path></g></g></g></g><g><g><g><g transform="matrix(1,0,0,1,172.30624389648438,81.79999084472657)"><path transform="matrix(0.010199999999999999,0,0,-0.010199999999999999,0,0)" d="M16 23L16 -3C203 -3 203 0 239 0C275 0 275 -3 468 -3L468 82C353 77 307 81 122 77L304 270C401 373 431 428 431 503C431 618 353 689 226 689C154 689 105 669 56 619L39 483L68 483L81 529C97 587 133 612 200 612C286 612 341 558 341 473C341 398 299 324 186 204Z" stroke="rgb(0,0,0)" stroke-opacity="1" stroke-width="8" fill="rgb(0,0,0)" fill-opacity="1"></path></g></g></g></g><line style="fill:none;stroke-width:1px;stroke:rgb(0, 0, 0);" x1="172.02499389648438" y1="72.43125915527344" x2="177.68749380111694" y2="72.43125915527344"></line></g><g><g><g><g><g transform="matrix(1,0,0,1,178.70623779296875,76.00000915527343)"><path transform="matrix(0.0136,0,0,-0.0136,0,0)" d="M288 254L430 420C436 427 447 431 464 431L478 431L478 459L396 459L272 284L196 400C181 422 170 435 136 469L20 449L25 423L46 421C64 420 86 406 96 392L216 218L67 42C60 33 47 27 37 27L20 27L20 0L106 0L240 192L373 -3C425 0 425 0 434 0C444 0 444 0 496 -3L496 27L471 30C459 31 447 39 436 54Z" stroke="rgb(0,0,0)" stroke-opacity="1" stroke-width="24" fill="rgb(0,0,0)" fill-opacity="1"></path></g></g></g></g><svg x="178.70623779296875" overflow="visible" y="60.80000305175781" height="7" width="7.006249904632568"><polyline points="0.00,6.24 3.50,3.91 7.01,6.24" style="fill:none;fill-opacity:1;stroke-width:1px;stroke:rgb(0,0,0);stroke-opacity:1;"></polyline></svg></g></g></g><g><g><g><g transform="matrix(1,0,0,1,118,10.506246948242188)"><path transform="matrix(0.0119,0,0,-0.0119,0,0)" d="M-7 -180C-8 -187 -8 -193 -8 -198C-8 -241 29 -276 74 -276C180 -276 290 -152 349 33L490 473L479 482C450 471 427 465 405 463L370 331C358 284 323 211 290 162C255 111 206 67 184 67C172 67 163 90 164 115L180 322C182 353 184 391 184 419C184 464 177 482 160 482C147 482 133 475 85 442L3 386L14 368L64 398C69 401 80 410 89 410C103 410 111 391 111 358C111 357 111 351 110 343L93 100L92 60C92 18 110 -11 135 -11C172 -11 256 74 331 187L282 16C231 -161 181 -234 111 -234C76 -234 49 -207 49 -172C49 -167 50 -159 51 -150L41 -146Z" stroke="rgb(0,0,0)" stroke-opacity="1" stroke-width="8" fill="rgb(0,0,0)" fill-opacity="1"></path></g></g></g></g><g><g><g><g transform="matrix(1,0,0,1,32,144.49999084472657)"><path transform="matrix(0.0119,0,0,-0.0119,0,0)" d="M555 243L555 299L51 299L51 243Z" stroke="rgb(0,0,0)" stroke-opacity="1" stroke-width="8" fill="rgb(0,0,0)" fill-opacity="1"></path></g></g><g><g transform="matrix(1,0,0,1,39.199981689453125,144.49999084472657)"><path transform="matrix(0.0119,0,0,-0.0119,0,0)" d="M349 664L352 692L238 689C222 689 204 689 161 690L97 692L94 664L141 662C165 661 176 653 176 635L81 55C77 37 65 30 21 23L16 -3L57 -2C88 -1 150 0 170 0C170 0 467 -1 467 -1C467 -1 500 0 500 0C499 25 510 103 523 165L492 165L475 103C466 71 457 54 448 49C435 44 371 39 304 39C255 39 228 40 162 46C165 64 256 605 256 613C263 651 270 658 307 661Z" stroke="rgb(0,0,0)" stroke-opacity="1" stroke-width="8" fill="rgb(0,0,0)" fill-opacity="1"></path></g></g></g></g><g><g><g><g transform="matrix(1,0,0,1,187.99996948242188,141.49999084472657)"><path transform="matrix(0.0119,0,0,-0.0119,0,0)" d="M349 664L352 692L238 689C222 689 204 689 161 690L97 692L94 664L141 662C165 661 176 653 176 635L81 55C77 37 65 30 21 23L16 -3L57 -2C88 -1 150 0 170 0C170 0 467 -1 467 -1C467 -1 500 0 500 0C499 25 510 103 523 165L492 165L475 103C466 71 457 54 448 49C435 44 371 39 304 39C255 39 228 40 162 46C165 64 256 605 256 613C263 651 270 658 307 661Z" stroke="rgb(0,0,0)" stroke-opacity="1" stroke-width="8" fill="rgb(0,0,0)" fill-opacity="1"></path></g></g></g></g><g><g><g><g transform="matrix(1,0,0,1,217.99996948242188,107.49999084472657)"><path transform="matrix(0.0119,0,0,-0.0119,0,0)" d="M9 1C24 -7 40 -11 52 -11C85 -11 124 18 155 65L231 182L242 113C255 28 278 -11 314 -11C336 -11 368 6 400 35L449 79L440 98C404 68 379 53 363 53C348 53 335 63 325 83C316 102 305 139 300 168L282 269L317 318C364 383 391 406 422 406C438 406 450 398 455 383L469 387L484 472C472 479 463 482 454 482C414 482 374 446 312 354L275 299L269 347C257 446 230 482 171 482C145 482 123 474 114 461L56 378L73 368C103 402 123 416 142 416C175 416 197 375 214 277L225 215L185 153C142 86 108 54 80 54C65 54 54 58 52 63L41 91L21 88C21 53 13 27 9 1Z" stroke="rgb(0,0,0)" stroke-opacity="1" stroke-width="8" fill="rgb(0,0,0)" fill-opacity="1"></path></g></g></g></g><g><g><g><g transform="matrix(1,0,0,1,40,79.00000915527343)"><path transform="matrix(0.0136,0,0,-0.0136,0,0)" d="M-7 -180C-8 -187 -8 -193 -8 -198C-8 -241 29 -276 74 -276C180 -276 290 -152 349 33L490 473L479 482C450 471 427 465 405 463L370 331C358 284 323 211 290 162C255 111 206 67 184 67C172 67 163 90 164 115L180 322C182 353 184 391 184 419C184 464 177 482 160 482C147 482 133 475 85 442L3 386L14 368L64 398C69 401 80 410 89 410C103 410 111 391 111 358C111 357 111 351 110 343L93 100L92 60C92 18 110 -11 135 -11C172 -11 256 74 331 187L282 16C231 -161 181 -234 111 -234C76 -234 49 -207 49 -172C49 -167 50 -159 51 -150L41 -146Z" stroke="rgb(0,0,0)" stroke-opacity="1" stroke-width="8" fill="rgb(0,0,0)" fill-opacity="1"></path></g></g><g><g><g><g><g transform="matrix(1,0,0,1,46.7874755859375,79.00000915527343)"><path transform="matrix(0.0136,0,0,-0.0136,0,0)" d="M297 86C275 124 264 147 246 196L182 364C176 381 172 396 172 406C172 420 183 428 206 429L244 431L244 459C147 456 147 456 128 456C109 456 109 456 12 459L12 431L30 429C55 426 67 415 82 380L191 118C219 50 229 26 247 -24L224 -85C192 -169 153 -216 115 -216C99 -216 81 -208 64 -193L51 -193L27 -268C46 -278 62 -283 81 -283C148 -283 191 -247 229 -160L432 308C472 399 491 426 516 429L544 431L544 459C465 456 465 456 449 456C433 456 433 456 354 459L354 431L380 429C408 427 422 418 422 404C422 397 420 388 416 378Z" stroke="rgb(0,0,0)" stroke-opacity="1" stroke-width="24" fill="rgb(0,0,0)" fill-opacity="1"></path></g></g></g></g><svg x="46.7874755859375" overflow="visible" y="63.80000305175781" height="7" width="7.550000190734863"><polyline points="0.00,6.24 3.78,3.73 7.55,6.24" style="fill:none;fill-opacity:1;stroke-width:1px;stroke:rgb(0,0,0);stroke-opacity:1;"></polyline></svg></g><g><g transform="matrix(1,0,0,1,57.056243896484375,79.00000915527343)"><path transform="matrix(0.0136,0,0,-0.0136,0,0)" d="M604 241L604 300L364 300L364 538L305 538L305 300L65 300L65 241L305 241L305 0L364 0L364 241Z" stroke="rgb(0,0,0)" stroke-opacity="1" stroke-width="8" fill="rgb(0,0,0)" fill-opacity="1"></path></g></g><g><g><g><g><g transform="matrix(1,0,0,1,69.8812255859375,70.54999084472657)"><path transform="matrix(0.010199999999999999,0,0,-0.010199999999999999,0,0)" d="M349 664L352 692L238 689C222 689 204 689 161 690L97 692L94 664L141 662C165 661 176 653 176 635L81 55C77 37 65 30 21 23L16 -3L57 -2C88 -1 150 0 170 0C170 0 467 -1 467 -1C467 -1 500 0 500 0C499 25 510 103 523 165L492 165L475 103C466 71 457 54 448 49C435 44 371 39 304 39C255 39 228 40 162 46C165 64 256 605 256 613C263 651 270 658 307 661Z" stroke="rgb(0,0,0)" stroke-opacity="1" stroke-width="8" fill="rgb(0,0,0)" fill-opacity="1"></path></g></g></g></g><g><g><g><g transform="matrix(1,0,0,1,70.1624755859375,84.79999084472657)"><path transform="matrix(0.010199999999999999,0,0,-0.010199999999999999,0,0)" d="M16 23L16 -3C203 -3 203 0 239 0C275 0 275 -3 468 -3L468 82C353 77 307 81 122 77L304 270C401 373 431 428 431 503C431 618 353 689 226 689C154 689 105 669 56 619L39 483L68 483L81 529C97 587 133 612 200 612C286 612 341 558 341 473C341 398 299 324 186 204Z" stroke="rgb(0,0,0)" stroke-opacity="1" stroke-width="8" fill="rgb(0,0,0)" fill-opacity="1"></path></g></g></g></g><line style="fill:none;stroke-width:1px;stroke:rgb(0, 0, 0);" x1="69.8812255859375" y1="75.43125915527344" x2="75.54372549057007" y2="75.43125915527344"></line></g><g><g><g><g><g transform="matrix(1,0,0,1,76.5625,79.00000915527343)"><path transform="matrix(0.0136,0,0,-0.0136,0,0)" d="M288 254L430 420C436 427 447 431 464 431L478 431L478 459L396 459L272 284L196 400C181 422 170 435 136 469L20 449L25 423L46 421C64 420 86 406 96 392L216 218L67 42C60 33 47 27 37 27L20 27L20 0L106 0L240 192L373 -3C425 0 425 0 434 0C444 0 444 0 496 -3L496 27L471 30C459 31 447 39 436 54Z" stroke="rgb(0,0,0)" stroke-opacity="1" stroke-width="24" fill="rgb(0,0,0)" fill-opacity="1"></path></g></g></g></g><svg x="76.5625" overflow="visible" y="63.80000305175781" height="7" width="7.006249904632568"><polyline points="0.00,6.24 3.50,3.91 7.01,6.24" style="fill:none;fill-opacity:1;stroke-width:1px;stroke:rgb(0,0,0);stroke-opacity:1;"></polyline></svg></g></g></g><g><g><g><g transform="matrix(1,0,0,1,112,89.19999084472656)"><path transform="matrix(0.0136,0,0,-0.0136,0,0)" d="M-7 -180C-8 -187 -8 -193 -8 -198C-8 -241 29 -276 74 -276C180 -276 290 -152 349 33L490 473L479 482C450 471 427 465 405 463L370 331C358 284 323 211 290 162C255 111 206 67 184 67C172 67 163 90 164 115L180 322C182 353 184 391 184 419C184 464 177 482 160 482C147 482 133 475 85 442L3 386L14 368L64 398C69 401 80 410 89 410C103 410 111 391 111 358C111 357 111 351 110 343L93 100L92 60C92 18 110 -11 135 -11C172 -11 256 74 331 187L282 16C231 -161 181 -234 111 -234C76 -234 49 -207 49 -172C49 -167 50 -159 51 -150L41 -146Z" stroke="rgb(0,0,0)" stroke-opacity="1" stroke-width="8" fill="rgb(0,0,0)" fill-opacity="1"></path></g></g><g><g><g><g><g transform="matrix(1,0,0,1,118.7874755859375,89.19999084472656)"><path transform="matrix(0.0136,0,0,-0.0136,0,0)" d="M297 86C275 124 264 147 246 196L182 364C176 381 172 396 172 406C172 420 183 428 206 429L244 431L244 459C147 456 147 456 128 456C109 456 109 456 12 459L12 431L30 429C55 426 67 415 82 380L191 118C219 50 229 26 247 -24L224 -85C192 -169 153 -216 115 -216C99 -216 81 -208 64 -193L51 -193L27 -268C46 -278 62 -283 81 -283C148 -283 191 -247 229 -160L432 308C472 399 491 426 516 429L544 431L544 459C465 456 465 456 449 456C433 456 433 456 354 459L354 431L380 429C408 427 422 418 422 404C422 397 420 388 416 378Z" stroke="rgb(0,0,0)" stroke-opacity="1" stroke-width="24" fill="rgb(0,0,0)" fill-opacity="1"></path></g></g></g></g><svg x="118.7874755859375" overflow="visible" y="73.99998474121094" height="7" width="7.550000190734863"><polyline points="0.00,6.24 3.78,3.73 7.55,6.24" style="fill:none;fill-opacity:1;stroke-width:1px;stroke:rgb(0,0,0);stroke-opacity:1;"></polyline></svg></g></g></g></svg>
</svg>
