<svg xmlns="http://www.w3.org/2000/svg" xmlns:xlink="http://www.w3.org/1999/xlink" x="0" y="0" width="662" height="105" style="
        width:662px;
        height:105px;
        background: transparent;
        fill: none;
">
        
        
        <svg xmlns="http://www.w3.org/2000/svg" class="role-diagram-draw-area"><g class="shapes-region" style="stroke: black; fill: none;"><g class="composite-shape"><path class="real" d=" M97.08,18.71 C97.08,16.64 98.76,14.96 100.83,14.96 C102.9,14.96 104.58,16.64 104.58,18.71 C104.58,20.79 102.9,22.46 100.83,22.46 C98.76,22.46 97.08,20.79 97.08,18.71 Z" style="stroke-width: 1; stroke: rgb(0, 0, 0); fill: none; fill-opacity: 1;"/></g><g class="arrow-line"><path class="connection real" stroke-dasharray="" d="  M100.83,76.71 L100.83,19.46" style="stroke: rgb(0, 0, 0); stroke-width: 1; fill: none; fill-opacity: 1;"/><g stroke="#000" transform="matrix(3.061616997868383e-16,1,-1,3.061616997868383e-16,100.83331298828125,17.46428680419922)" style="stroke: rgb(0, 0, 0); stroke-width: 1;"><path d=" M10.93,-3.29 Q4.96,-0.45 0,0 Q4.96,0.45 10.93,3.29"/></g></g><g class="arrow-line"><path class="connection real" stroke-dasharray="" d="  M20,77.71 L40,77.71" style="stroke: rgb(0, 0, 0); stroke-width: 1; fill: none; fill-opacity: 1;"/><g stroke="#000" fill="#000" transform="matrix(1,0,0,1,40,77.71428680419922)" style="stroke: rgb(0, 0, 0); fill: rgb(0, 0, 0); stroke-width: 1;"><circle cx="0" cy="0" r="2.01"/></g><g stroke="#000" fill="#000" transform="matrix(1,0,0,1,20,77.71428680419922)" style="stroke: rgb(0, 0, 0); fill: rgb(0, 0, 0); stroke-width: 1;"><circle cx="0" cy="0" r="2.01"/></g></g><g class="arrow-line"><path class="connection real" stroke-dasharray="" d="  M40,77.71 L60,77.71" style="stroke: rgb(0, 0, 0); stroke-width: 1; fill: none; fill-opacity: 1;"/><g stroke="#000" fill="#000" transform="matrix(1,0,0,1,60,77.71428680419922)" style="stroke: rgb(0, 0, 0); fill: rgb(0, 0, 0); stroke-width: 1;"><circle cx="0" cy="0" r="2.01"/></g><g stroke="#000" fill="#000" transform="matrix(1,0,0,1,40,77.71428680419922)" style="stroke: rgb(0, 0, 0); fill: rgb(0, 0, 0); stroke-width: 1;"><circle cx="0" cy="0" r="2.01"/></g></g><g class="arrow-line"><path class="connection real" stroke-dasharray="" d="  M60,77.71 L80,77.71" style="stroke: rgb(0, 0, 0); stroke-width: 1; fill: none; fill-opacity: 1;"/><g stroke="#000" fill="#000" transform="matrix(1,0,0,1,80,77.71428680419922)" style="stroke: rgb(0, 0, 0); fill: rgb(0, 0, 0); stroke-width: 1;"><circle cx="0" cy="0" r="2.01"/></g><g stroke="#000" fill="#000" transform="matrix(1,0,0,1,60,77.71428680419922)" style="stroke: rgb(0, 0, 0); fill: rgb(0, 0, 0); stroke-width: 1;"><circle cx="0" cy="0" r="2.01"/></g></g><g class="arrow-line"><path class="connection real" stroke-dasharray="" d="  M80,77.71 L100,77.71" style="stroke: rgb(0, 0, 0); stroke-width: 1; fill: none; fill-opacity: 1;"/><g stroke="#000" fill="#000" transform="matrix(1,0,0,1,100,77.71428680419922)" style="stroke: rgb(0, 0, 0); fill: rgb(0, 0, 0); stroke-width: 1;"><circle cx="0" cy="0" r="2.01"/></g><g stroke="#000" fill="#000" transform="matrix(1,0,0,1,80,77.71428680419922)" style="stroke: rgb(0, 0, 0); fill: rgb(0, 0, 0); stroke-width: 1;"><circle cx="0" cy="0" r="2.01"/></g></g><g class="arrow-line"><path class="connection real" stroke-dasharray="" d="  M100,77.71 L120,77.71" style="stroke: rgb(0, 0, 0); stroke-width: 1; fill: none; fill-opacity: 1;"/><g stroke="#000" fill="#000" transform="matrix(1,0,0,1,120,77.71428680419922)" style="stroke: rgb(0, 0, 0); fill: rgb(0, 0, 0); stroke-width: 1;"><circle cx="0" cy="0" r="2.01"/></g><g stroke="#000" fill="#000" transform="matrix(1,0,0,1,100,77.71428680419922)" style="stroke: rgb(0, 0, 0); fill: rgb(0, 0, 0); stroke-width: 1;"><circle cx="0" cy="0" r="2.01"/></g></g><g class="arrow-line"><path class="connection real" stroke-dasharray="" d="  M120,77.71 L140,77.71" style="stroke: rgb(0, 0, 0); stroke-width: 1; fill: none; fill-opacity: 1;"/><g stroke="#000" fill="#000" transform="matrix(1,0,0,1,140,77.71428680419922)" style="stroke: rgb(0, 0, 0); fill: rgb(0, 0, 0); stroke-width: 1;"><circle cx="0" cy="0" r="2.01"/></g><g stroke="#000" fill="#000" transform="matrix(1,0,0,1,120,77.71428680419922)" style="stroke: rgb(0, 0, 0); fill: rgb(0, 0, 0); stroke-width: 1;"><circle cx="0" cy="0" r="2.01"/></g></g><g class="arrow-line"><path class="connection real" stroke-dasharray="" d="  M140,77.71 L160,77.71" style="stroke: rgb(0, 0, 0); stroke-width: 1; fill: none; fill-opacity: 1;"/><g stroke="#000" fill="#000" transform="matrix(1,0,0,1,160,77.71428680419922)" style="stroke: rgb(0, 0, 0); fill: rgb(0, 0, 0); stroke-width: 1;"><circle cx="0" cy="0" r="2.01"/></g><g stroke="#000" fill="#000" transform="matrix(1,0,0,1,140,77.71428680419922)" style="stroke: rgb(0, 0, 0); fill: rgb(0, 0, 0); stroke-width: 1;"><circle cx="0" cy="0" r="2.01"/></g></g><g class="arrow-line"><path class="connection real" stroke-dasharray="" d="  M160,77.71 L180,77.71" style="stroke: rgb(0, 0, 0); stroke-width: 1; fill: none; fill-opacity: 1;"/><g stroke="#000" fill="#000" transform="matrix(1,0,0,1,180,77.71428680419922)" style="stroke: rgb(0, 0, 0); fill: rgb(0, 0, 0); stroke-width: 1;"><circle cx="0" cy="0" r="2.01"/></g><g stroke="#000" fill="#000" transform="matrix(1,0,0,1,160,77.71428680419922)" style="stroke: rgb(0, 0, 0); fill: rgb(0, 0, 0); stroke-width: 1;"><circle cx="0" cy="0" r="2.01"/></g></g><g class="arrow-line"><path class="connection real" stroke-dasharray="" d="  M20,77.71 L99.22,19.89" style="stroke: rgb(0, 0, 0); stroke-width: 1; fill: none; fill-opacity: 1;"/><g stroke="#000" transform="matrix(-0.8076812706633254,0.589619339082154,-0.589619339082154,-0.8076812706633254,100.83331298828124,18.71428680419922)" style="stroke: rgb(0, 0, 0); stroke-width: 1;"><path d=" M10.93,-3.29 Q4.96,-0.45 0,0 Q4.96,0.45 10.93,3.29"/></g></g><g class="arrow-line"><path class="connection real" stroke-dasharray="" d="  M40,77.71 L99.4,20.11" style="stroke: rgb(0, 0, 0); stroke-width: 1; fill: none; fill-opacity: 1;"/><g stroke="#000" transform="matrix(-0.7178833346252202,0.6961634275566148,-0.6961634275566148,-0.7178833346252202,100.83331298828125,18.71428680419922)" style="stroke: rgb(0, 0, 0); stroke-width: 1;"><path d=" M10.93,-3.29 Q4.96,-0.45 0,0 Q4.96,0.45 10.93,3.29"/></g></g><g class="arrow-line"><path class="connection real" stroke-dasharray="" d="  M60,77.71 L99.7,20.36" style="stroke: rgb(0, 0, 0); stroke-width: 1; fill: none; fill-opacity: 1;"/><g stroke="#000" transform="matrix(-0.5691360235565335,0.8222433865287436,-0.8222433865287436,-0.5691360235565335,100.83331298828124,18.71428680419922)" style="stroke: rgb(0, 0, 0); stroke-width: 1;"><path d=" M10.93,-3.29 Q4.96,-0.45 0,0 Q4.96,0.45 10.93,3.29"/></g></g><g class="arrow-line"><path class="connection real" stroke-dasharray="" d="  M80,77.71 L100.17,20.6" style="stroke: rgb(0, 0, 0); stroke-width: 1; fill: none; fill-opacity: 1;"/><g stroke="#000" transform="matrix(-0.33298412234968333,0.9429324335619234,-0.9429324335619234,-0.33298412234968333,100.83331298828125,18.71428680419922)" style="stroke: rgb(0, 0, 0); stroke-width: 1;"><path d=" M10.93,-3.29 Q4.96,-0.45 0,0 Q4.96,0.45 10.93,3.29"/></g></g><g class="arrow-line"><path class="connection real" stroke-dasharray="" d="  M120,77.71 L101.45,20.62" style="stroke: rgb(0, 0, 0); stroke-width: 1; fill: none; fill-opacity: 1;"/><g stroke="#000" transform="matrix(0.30901699437494773,0.9510565162951535,-0.9510565162951535,0.30901699437494773,100.83331298828125,18.71428680419922)" style="stroke: rgb(0, 0, 0); stroke-width: 1;"><path d=" M10.93,-3.29 Q4.96,-0.45 0,0 Q4.96,0.45 10.93,3.29"/></g></g><g class="arrow-line"><path class="connection real" stroke-dasharray="" d="  M140,77.71 L101.94,20.38" style="stroke: rgb(0, 0, 0); stroke-width: 1; fill: none; fill-opacity: 1;"/><g stroke="#000" transform="matrix(0.5531007711735049,0.8331143600534529,-0.8331143600534529,0.5531007711735049,100.83331298828125,18.71428680419922)" style="stroke: rgb(0, 0, 0); stroke-width: 1;"><path d=" M10.93,-3.29 Q4.96,-0.45 0,0 Q4.96,0.45 10.93,3.29"/></g></g><g class="arrow-line"><path class="connection real" stroke-dasharray="" d="  M160,77.71 L102.25,20.13" style="stroke: rgb(0, 0, 0); stroke-width: 1; fill: none; fill-opacity: 1;"/><g stroke="#000" transform="matrix(0.7080933989149124,0.7061187849173302,-0.7061187849173302,0.7080933989149124,100.83331298828125,18.71428680419922)" style="stroke: rgb(0, 0, 0); stroke-width: 1;"><path d=" M10.93,-3.29 Q4.96,-0.45 0,0 Q4.96,0.45 10.93,3.29"/></g></g><g class="arrow-line"><path class="connection real" stroke-dasharray="" d="  M180,77.71 L102.44,19.91" style="stroke: rgb(0, 0, 0); stroke-width: 1; fill: none; fill-opacity: 1;"/><g stroke="#000" transform="matrix(0.8017756442437541,0.597625146975521,-0.597625146975521,0.8017756442437541,100.83331298828125,18.71428680419922)" style="stroke: rgb(0, 0, 0); stroke-width: 1;"><path d=" M10.93,-3.29 Q4.96,-0.45 0,0 Q4.96,0.45 10.93,3.29"/></g></g><g/></g><g/><g/><g/></svg>
        <svg xmlns="http://www.w3.org/2000/svg" xmlns:xlink="http://www.w3.org/1999/xlink" width="660" height="103" style="width:660px;height:103px;font-family:Asana-Math, Asana;background:transparent;"><g><g><g><text x="22" y="161.00001525878906" style="white-space:pre;stroke:none;fill:rgb(255,255,255);fill-opacity:1;font-size:15px;font-family:Arial, Helvetica, sans-serif;font-weight:400;font-style:normal;dominant-baseline:text-before-edge;text-decoration:none solid rgb(255, 255, 255);">.</text></g></g></g><g><g><g><g transform="matrix(1,0,0,1,32,59.2125)"><path transform="matrix(0.0119,0,0,-0.0119,0,0)" d="M23 400L60 400C100 400 104 393 104 327L104 102C104 39 101 32 67 30L21 27L21 -3C93 -1 119 0 144 0C164 0 164 0 287 -3L287 27L235 30C190 33 188 36 188 102L188 274C188 334 228 384 277 384C307 384 328 370 344 338L365 338L374 458C363 465 345 469 327 469C297 469 265 453 244 428L188 362L188 465L179 469C128 448 76 434 23 428Z" stroke="rgb(0,0,0)" stroke-opacity="1" stroke-width="24" fill="rgb(0,0,0)" fill-opacity="1"></path></g></g><g><g><g><g><g transform="matrix(1,0,0,1,37.050018310546875,61.717496948242186)"><path transform="matrix(0.00833,0,0,-0.00833,0,0)" d="M418 -3L418 27L366 30C311 33 301 44 301 96L301 700L60 598L67 548L217 614L217 96C217 44 206 33 152 30L96 27L96 -3C250 0 250 0 261 0C292 0 402 -3 418 -3Z" stroke="rgb(0,0,0)" stroke-opacity="1" stroke-width="8" fill="rgb(0,0,0)" fill-opacity="1"></path></g></g></g></g></g></g></g><g><g><g><g transform="matrix(1,0,0,1,90,69.2125)"><path transform="matrix(0.0119,0,0,-0.0119,0,0)" d="M23 400L60 400C100 400 104 393 104 327L104 102C104 39 101 32 67 30L21 27L21 -3C93 -1 119 0 144 0C164 0 164 0 287 -3L287 27L235 30C190 33 188 36 188 102L188 274C188 334 228 384 277 384C307 384 328 370 344 338L365 338L374 458C363 465 345 469 327 469C297 469 265 453 244 428L188 362L188 465L179 469C128 448 76 434 23 428Z" stroke="rgb(0,0,0)" stroke-opacity="1" stroke-width="24" fill="rgb(0,0,0)" fill-opacity="1"></path></g></g><g><g><g><g><g transform="matrix(1,0,0,1,95.05001831054688,71.71749694824219)"><path transform="matrix(0.00833,0,0,-0.00833,0,0)" d="M459 253C459 366 378 446 264 446C216 446 180 443 127 396L127 605L432 604L432 689L75 690L75 322L95 316C142 363 169 377 218 377C314 377 374 309 374 201C374 90 310 25 201 25C147 25 97 43 83 69L37 151L13 137C36 80 48 48 62 4C90 -11 130 -20 173 -20C301 -20 459 89 459 253Z" stroke="rgb(0,0,0)" stroke-opacity="1" stroke-width="8" fill="rgb(0,0,0)" fill-opacity="1"></path></g></g></g></g></g></g></g><g><g><g><g transform="matrix(1,0,0,1,157,54.2125)"><path transform="matrix(0.0119,0,0,-0.0119,0,0)" d="M23 400L60 400C100 400 104 393 104 327L104 102C104 39 101 32 67 30L21 27L21 -3C93 -1 119 0 144 0C164 0 164 0 287 -3L287 27L235 30C190 33 188 36 188 102L188 274C188 334 228 384 277 384C307 384 328 370 344 338L365 338L374 458C363 465 345 469 327 469C297 469 265 453 244 428L188 362L188 465L179 469C128 448 76 434 23 428Z" stroke="rgb(0,0,0)" stroke-opacity="1" stroke-width="24" fill="rgb(0,0,0)" fill-opacity="1"></path></g></g><g><g><g><g><g transform="matrix(1,0,0,1,162.04998779296875,56.717496948242186)"><path transform="matrix(0.00833,0,0,-0.00833,0,0)" d="M582 103L237 692L75 692L70 664L105 662C150 660 184 615 185 606L92 102C80 40 74 32 38 28L7 25L2 -3L113 0C125 0 126 0 223 -3L228 25L186 28C146 31 137 39 137 72C137 80 138 91 140 102L220 566L558 -11L608 -11L702 542C723 655 725 659 762 662L799 664L802 691L589 692L584 664L631 662C657 661 667 654 667 638C667 631 584 116 582 103Z" stroke="rgb(0,0,0)" stroke-opacity="1" stroke-width="8" fill="rgb(0,0,0)" fill-opacity="1"></path></g></g></g></g></g></g></g><g><g><g><g transform="matrix(1,0,0,1,12,89.2125)"><path transform="matrix(0.0119,0,0,-0.0119,0,0)" d="M385 458C342 475 313 482 284 482C209 482 121 394 103 374C63 327 24 181 24 78C24 19 36 -11 60 -11C82 -11 101 -3 133 19C180 51 259 121 308 209L232 -205C227 -229 217 -249 205 -262L214 -276C245 -268 276 -262 300 -259C304 -205 310 -150 319 -100L405 356C416 417 422 443 432 474L418 480ZM118 59C104 59 96 80 96 113C96 209 139 359 181 409C193 424 222 433 254 433C282 433 303 427 351 406L330 311C301 174 160 59 118 59Z" stroke="rgb(0,0,0)" stroke-opacity="1" stroke-width="8" fill="rgb(0,0,0)" fill-opacity="1"></path></g></g><g><g><g><g><g transform="matrix(1,0,0,1,17.85626220703125,91.71749694824219)"><path transform="matrix(0.00833,0,0,-0.00833,0,0)" d="M418 -3L418 27L366 30C311 33 301 44 301 96L301 700L60 598L67 548L217 614L217 96C217 44 206 33 152 30L96 27L96 -3C250 0 250 0 261 0C292 0 402 -3 418 -3Z" stroke="rgb(0,0,0)" stroke-opacity="1" stroke-width="8" fill="rgb(0,0,0)" fill-opacity="1"></path></g></g></g></g></g></g></g><g><g><g><g transform="matrix(1,0,0,1,92,89.2125)"><path transform="matrix(0.0119,0,0,-0.0119,0,0)" d="M385 458C342 475 313 482 284 482C209 482 121 394 103 374C63 327 24 181 24 78C24 19 36 -11 60 -11C82 -11 101 -3 133 19C180 51 259 121 308 209L232 -205C227 -229 217 -249 205 -262L214 -276C245 -268 276 -262 300 -259C304 -205 310 -150 319 -100L405 356C416 417 422 443 432 474L418 480ZM118 59C104 59 96 80 96 113C96 209 139 359 181 409C193 424 222 433 254 433C282 433 303 427 351 406L330 311C301 174 160 59 118 59Z" stroke="rgb(0,0,0)" stroke-opacity="1" stroke-width="8" fill="rgb(0,0,0)" fill-opacity="1"></path></g></g><g><g><g><g><g transform="matrix(1,0,0,1,97.85626220703125,91.71749694824219)"><path transform="matrix(0.00833,0,0,-0.00833,0,0)" d="M459 253C459 366 378 446 264 446C216 446 180 443 127 396L127 605L432 604L432 689L75 690L75 322L95 316C142 363 169 377 218 377C314 377 374 309 374 201C374 90 310 25 201 25C147 25 97 43 83 69L37 151L13 137C36 80 48 48 62 4C90 -11 130 -20 173 -20C301 -20 459 89 459 253Z" stroke="rgb(0,0,0)" stroke-opacity="1" stroke-width="8" fill="rgb(0,0,0)" fill-opacity="1"></path></g></g></g></g></g></g></g><g><g><g><g transform="matrix(1,0,0,1,172,89.2125)"><path transform="matrix(0.0119,0,0,-0.0119,0,0)" d="M385 458C342 475 313 482 284 482C209 482 121 394 103 374C63 327 24 181 24 78C24 19 36 -11 60 -11C82 -11 101 -3 133 19C180 51 259 121 308 209L232 -205C227 -229 217 -249 205 -262L214 -276C245 -268 276 -262 300 -259C304 -205 310 -150 319 -100L405 356C416 417 422 443 432 474L418 480ZM118 59C104 59 96 80 96 113C96 209 139 359 181 409C193 424 222 433 254 433C282 433 303 427 351 406L330 311C301 174 160 59 118 59Z" stroke="rgb(0,0,0)" stroke-opacity="1" stroke-width="8" fill="rgb(0,0,0)" fill-opacity="1"></path></g></g><g><g><g><g><g transform="matrix(1,0,0,1,177.85626220703125,91.71749694824219)"><path transform="matrix(0.00833,0,0,-0.00833,0,0)" d="M582 103L237 692L75 692L70 664L105 662C150 660 184 615 185 606L92 102C80 40 74 32 38 28L7 25L2 -3L113 0C125 0 126 0 223 -3L228 25L186 28C146 31 137 39 137 72C137 80 138 91 140 102L220 566L558 -11L608 -11L702 542C723 655 725 659 762 662L799 664L802 691L589 692L584 664L631 662C657 661 667 654 667 638C667 631 584 116 582 103Z" stroke="rgb(0,0,0)" stroke-opacity="1" stroke-width="8" fill="rgb(0,0,0)" fill-opacity="1"></path></g></g></g></g></g></g></g></svg>
</svg>
