<svg xmlns="http://www.w3.org/2000/svg" xmlns:xlink="http://www.w3.org/1999/xlink" x="0" y="0" width="663" height="121" style="
        width:663px;
        height:121px;
        background: transparent;
        fill: none;
">
        
        
        <svg xmlns="http://www.w3.org/2000/svg" class="role-diagram-draw-area"><g class="shapes-region" style="stroke: black; fill: none;"><g class="composite-shape"><path class="real" d=" M152.5,64.65 C152.5,42.83 170.18,25.15 192,25.15 C213.82,25.15 231.5,42.83 231.5,64.65 C231.5,86.47 213.82,104.15 192,104.15 C170.18,104.15 152.5,86.47 152.5,64.65 Z" style="stroke-width: 1; stroke: rgb(0, 0, 0); fill: none; fill-opacity: 1;"/></g><g class="arrow-line"><path class="connection real" stroke-dasharray="" d="  M156,81.14 L154.95,77.99" style="stroke: rgb(0, 0, 0); stroke-width: 1; fill: none; fill-opacity: 1;"/><g stroke="none" fill="#000" transform="matrix(0.3161458239738065,0.9487106081329137,-0.9487106081329137,0.3161458239738065,154,75.14453125)" style="stroke: none; fill: rgb(0, 0, 0); stroke-width: 1;"><path d=" M8.93,-4.29 L0,0 L8.93,4.29 Z"/></g></g><g class="arrow-line"><path class="connection real" stroke-dasharray="" d="  M194,25.15" style="stroke: rgb(0, 0, 0); stroke-width: 1; fill: none; fill-opacity: 1;"/><g stroke="none" fill="#000" transform="matrix(-1,1.2246467991473532e-16,-1.2246467991473532e-16,-1,196,25.149997711181637)" style="stroke: none; fill: rgb(0, 0, 0); stroke-width: 1;"><path d=" M8.93,-4.29 L0,0 L8.93,4.29 Z"/></g></g><g class="arrow-line"><path class="connection real" stroke-dasharray="" d="  M228,81.15 L226.54,83.57" style="stroke: rgb(0, 0, 0); stroke-width: 1; fill: none; fill-opacity: 1;"/><g stroke="none" fill="#000" transform="matrix(0.5148884631499584,-0.8572571787480545,0.8572571787480545,0.5148884631499584,225,86.14453125)" style="stroke: none; fill: rgb(0, 0, 0); stroke-width: 1;"><path d=" M8.93,-4.29 L0,0 L8.93,4.29 Z"/></g></g><g class="composite-shape"><path class="real" d=" M287.5,61.65 C287.5,39.83 305.18,22.15 327,22.15 C348.82,22.15 366.5,39.83 366.5,61.65 C366.5,83.47 348.82,101.15 327,101.15 C305.18,101.15 287.5,83.47 287.5,61.65 Z" style="stroke-width: 1; stroke: rgb(0, 0, 0); fill: none; fill-opacity: 1;"/></g><g class="arrow-line"><path class="connection real" stroke-dasharray="" d="  M291,78.14 L289.95,74.99" style="stroke: rgb(0, 0, 0); stroke-width: 1; fill: none; fill-opacity: 1;"/><g stroke="none" fill="#000" transform="matrix(0.3161458239738065,0.9487106081329137,-0.9487106081329137,0.3161458239738065,289,72.14453125)" style="stroke: none; fill: rgb(0, 0, 0); stroke-width: 1;"><path d=" M8.93,-4.29 L0,0 L8.93,4.29 Z"/></g></g><g class="arrow-line"><path class="connection real" stroke-dasharray="" d="  M328,22.15" style="stroke: rgb(0, 0, 0); stroke-width: 1; fill: none; fill-opacity: 1;"/><g stroke="none" fill="#000" transform="matrix(-1,1.2246467991473532e-16,-1.2246467991473532e-16,-1,330,22.149997711181637)" style="stroke: none; fill: rgb(0, 0, 0); stroke-width: 1;"><path d=" M8.93,-4.29 L0,0 L8.93,4.29 Z"/></g></g><g class="arrow-line"><path class="connection real" stroke-dasharray="" d="  M362,78.15 L360.31,81.63" style="stroke: rgb(0, 0, 0); stroke-width: 1; fill: none; fill-opacity: 1;"/><g stroke="none" fill="#000" transform="matrix(0.43648775686149793,-0.8997101967356033,0.8997101967356033,0.43648775686149793,359,84.33332824707031)" style="stroke: none; fill: rgb(0, 0, 0); stroke-width: 1;"><path d=" M8.93,-4.29 L0,0 L8.93,4.29 Z"/></g></g><g class="composite-shape"><path class="real" d=" M19.5,66.65 C19.5,44.83 37.18,27.15 59,27.15 C80.82,27.15 98.5,44.83 98.5,66.65 C98.5,88.47 80.82,106.15 59,106.15 C37.18,106.15 19.5,88.47 19.5,66.65 Z" style="stroke-width: 1; stroke: rgb(0, 0, 0); fill: none; fill-opacity: 1;"/></g><g class="arrow-line"><path class="connection real" stroke-dasharray="" d="  M23,83.14 L21.95,79.99" style="stroke: rgb(0, 0, 0); stroke-width: 1; fill: none; fill-opacity: 1;"/><g stroke="none" fill="#000" transform="matrix(0.3161458239738065,0.9487106081329137,-0.9487106081329137,0.3161458239738065,21,77.14453125)" style="stroke: none; fill: rgb(0, 0, 0); stroke-width: 1;"><path d=" M8.93,-4.29 L0,0 L8.93,4.29 Z"/></g></g><g class="arrow-line"><path class="connection real" stroke-dasharray="" d="  M61,27.15" style="stroke: rgb(0, 0, 0); stroke-width: 1; fill: none; fill-opacity: 1;"/><g stroke="none" fill="#000" transform="matrix(-1,1.2246467991473532e-16,-1.2246467991473532e-16,-1,63,27.14999771118164)" style="stroke: none; fill: rgb(0, 0, 0); stroke-width: 1;"><path d=" M8.93,-4.29 L0,0 L8.93,4.29 Z"/></g></g><g class="arrow-line"><path class="connection real" stroke-dasharray="" d="  M95,83.15 L93.54,85.57" style="stroke: rgb(0, 0, 0); stroke-width: 1; fill: none; fill-opacity: 1;"/><g stroke="none" fill="#000" transform="matrix(0.5148884631499584,-0.8572571787480545,0.8572571787480545,0.5148884631499584,92,88.14453125)" style="stroke: none; fill: rgb(0, 0, 0); stroke-width: 1;"><path d=" M8.93,-4.29 L0,0 L8.93,4.29 Z"/></g></g><g/></g><g/><g/><g/></svg>
        <svg xmlns="http://www.w3.org/2000/svg" xmlns:xlink="http://www.w3.org/1999/xlink" width="661" height="119" style="width:661px;height:119px;font-family:Asana-Math, Asana;background:transparent;"><g><g><g><text x="166" y="57.33332824707031" style="white-space:pre;stroke:none;fill:rgb(0,0,0);fill-opacity:1;font-size:10.5px;font-family:Arial, Helvetica, sans-serif;font-weight:400;font-style:normal;dominant-baseline:text-before-edge;text-decoration:none solid rgb(0, 0, 0);">Cylindrical</text></g></g></g><g><g><g><text x="306" y="56.33332824707031" style="white-space:pre;stroke:none;fill:rgb(0,0,0);fill-opacity:1;font-size:10.5px;font-family:Arial, Helvetica, sans-serif;font-weight:400;font-style:normal;dominant-baseline:text-before-edge;text-decoration:none solid rgb(0, 0, 0);">Spherical</text></g></g></g><g><g><g><g><g><g><g transform="matrix(1,0,0,1,322,16)"><path transform="matrix(0.017,0,0,-0.017,0,0)" d="M23 400L60 400C100 400 104 393 104 327L104 102C104 39 101 32 67 30L21 27L21 -3C93 -1 119 0 144 0C164 0 164 0 287 -3L287 27L235 30C190 33 188 36 188 102L188 274C188 334 228 384 277 384C307 384 328 370 344 338L365 338L374 458C363 465 345 469 327 469C297 469 265 453 244 428L188 362L188 465L179 469C128 448 76 434 23 428Z" stroke="rgb(0,0,0)" stroke-opacity="1" stroke-width="24" fill="rgb(0,0,0)" fill-opacity="1"></path></g></g></g></g><svg x="322" overflow="visible" y="-3" height="9" width="6.703125"><polyline points="0.00,8.06 3.35,5.82 6.70,8.06" style="fill:none;fill-opacity:1;stroke-width:1px;stroke:rgb(0,0,0);stroke-opacity:1;"></polyline></svg></g></g></g><g><g><g><g><g><g><g transform="matrix(1,0,0,1,373,86.00001525878906)"><path transform="matrix(0.017,0,0,-0.017,0,0)" d="M237 -16C473 -16 572 316 576 504C578 618 546 702 419 702C159 702 72 412 69 199C67 80 101 -16 237 -16ZM401 676C536 676 506 491 485 381L169 381C194 485 272 676 401 676ZM253 13C102 13 147 261 163 349L479 349C454 237 396 13 253 13Z" stroke="rgb(0,0,0)" stroke-opacity="1" stroke-width="24" fill="rgb(0,0,0)" fill-opacity="1"></path></g></g></g></g><svg x="373" overflow="visible" y="63.00001525878906" height="9" width="10.421875"><polyline points="0.00,8.06 5.21,4.58 10.42,8.06" style="fill:none;fill-opacity:1;stroke-width:1px;stroke:rgb(0,0,0);stroke-opacity:1;"></polyline></svg></g></g></g><g><g><g><g><g><g><g transform="matrix(1,0,0,1,272,84.00001525878906)"><path transform="matrix(0.017,0,0,-0.017,0,0)" d="M622 285C624 428 505 474 382 473C398 548 407 624 432 699L432 705C418 700 404 693 389 684L354 473C184 474 30 367 27 185C24 37 142 -8 268 -16L229 -289C249 -282 267 -274 282 -261C283 -179 288 -98 299 -16C481 -3 618 87 622 285ZM539 273C537 130 451 11 301 6L377 449C487 447 541 380 539 273ZM349 449L270 5C155 14 106 73 108 187C111 336 196 444 349 449Z" stroke="rgb(0,0,0)" stroke-opacity="1" stroke-width="24" fill="rgb(0,0,0)" fill-opacity="1"></path></g></g></g></g><svg x="272" overflow="visible" y="61.00001525878906" height="9" width="11.307291984558105"><polyline points="0.00,8.06 5.65,4.29 11.31,8.06" style="fill:none;fill-opacity:1;stroke-width:1px;stroke:rgb(0,0,0);stroke-opacity:1;"></polyline></svg></g></g></g><g><g><g><g><g><g><g transform="matrix(1,0,0,1,187,19)"><path transform="matrix(0.017,0,0,-0.017,0,0)" d="M41 143C41 74 38 44 30 4C82 -13 121 -20 167 -20C298 -20 391 50 391 148C391 321 107 228 107 358C107 408 142 436 203 436C270 436 321 401 321 354L321 331L349 331C350 389 351 413 354 444C301 462 265 469 224 469C108 469 37 414 37 324C37 276 59 242 105 221C223 169 317 195 317 109C317 55 267 17 196 17C123 17 71 52 71 102L71 143Z" stroke="rgb(0,0,0)" stroke-opacity="1" stroke-width="24" fill="rgb(0,0,0)" fill-opacity="1"></path></g></g></g></g><svg x="187" overflow="visible" y="0" height="9" width="7.192708492279053"><polyline points="0.00,8.06 3.60,5.66 7.19,8.06" style="fill:none;fill-opacity:1;stroke-width:1px;stroke:rgb(0,0,0);stroke-opacity:1;"></polyline></svg></g></g></g><g><g><g><g><g><g><g transform="matrix(1,0,0,1,238,84.00001525878906)"><path transform="matrix(0.017,0,0,-0.017,0,0)" d="M622 285C624 428 505 474 382 473C398 548 407 624 432 699L432 705C418 700 404 693 389 684L354 473C184 474 30 367 27 185C24 37 142 -8 268 -16L229 -289C249 -282 267 -274 282 -261C283 -179 288 -98 299 -16C481 -3 618 87 622 285ZM539 273C537 130 451 11 301 6L377 449C487 447 541 380 539 273ZM349 449L270 5C155 14 106 73 108 187C111 336 196 444 349 449Z" stroke="rgb(0,0,0)" stroke-opacity="1" stroke-width="24" fill="rgb(0,0,0)" fill-opacity="1"></path></g></g></g></g><svg x="238" overflow="visible" y="61.00001525878906" height="9" width="11.307291984558105"><polyline points="0.00,8.06 5.65,4.29 11.31,8.06" style="fill:none;fill-opacity:1;stroke-width:1px;stroke:rgb(0,0,0);stroke-opacity:1;"></polyline></svg></g></g></g><g><g><g><g><g><g><g transform="matrix(1,0,0,1,137,84.00001525878906)"><path transform="matrix(0.017,0,0,-0.017,0,0)" d="M455 432L455 462C385 460 355 459 317 459L69 462C67 411 66 399 60 330L90 330L102 398C106 419 124 424 198 424L341 424C320 391 303 368 276 334L106 122L16 17L22 -3C126 0 132 0 175 0L451 -3C451 20 453 44 460 92L466 139L436 139L418 60C414 42 372 35 276 35L141 35Z" stroke="rgb(0,0,0)" stroke-opacity="1" stroke-width="24" fill="rgb(0,0,0)" fill-opacity="1"></path></g></g></g></g><svg x="137" overflow="visible" y="65.00001525878906" height="9" width="8.484375"><polyline points="0.00,8.06 4.24,5.23 8.48,8.06" style="fill:none;fill-opacity:1;stroke-width:1px;stroke:rgb(0,0,0);stroke-opacity:1;"></polyline></svg></g></g></g><g><g><g><text x="36" y="58.33332824707031" style="white-space:pre;stroke:none;fill:rgb(0,0,0);fill-opacity:1;font-size:10.5px;font-family:Arial, Helvetica, sans-serif;font-weight:400;font-style:normal;dominant-baseline:text-before-edge;text-decoration:none solid rgb(0, 0, 0);">Cartesian</text></g></g></g><g><g><g><g><g><g><g transform="matrix(1,0,0,1,54,21)"><path transform="matrix(0.017,0,0,-0.017,0,0)" d="M288 254L430 420C436 427 447 431 464 431L478 431L478 459L396 459L272 284L196 400C181 422 170 435 136 469L20 449L25 423L46 421C64 420 86 406 96 392L216 218L67 42C60 33 47 27 37 27L20 27L20 0L106 0L240 192L373 -3C425 0 425 0 434 0C444 0 444 0 496 -3L496 27L471 30C459 31 447 39 436 54Z" stroke="rgb(0,0,0)" stroke-opacity="1" stroke-width="24" fill="rgb(0,0,0)" fill-opacity="1"></path></g></g></g></g><svg x="54" overflow="visible" y="2" height="9" width="8.755208969116211"><polyline points="0.00,8.06 4.38,5.14 8.76,8.06" style="fill:none;fill-opacity:1;stroke-width:1px;stroke:rgb(0,0,0);stroke-opacity:1;"></polyline></svg></g></g></g><g><g><g><g><g><g><g transform="matrix(1,0,0,1,105,84.00001525878906)"><path transform="matrix(0.017,0,0,-0.017,0,0)" d="M297 86C275 124 264 147 246 196L182 364C176 381 172 396 172 406C172 420 183 428 206 429L244 431L244 459C147 456 147 456 128 456C109 456 109 456 12 459L12 431L30 429C55 426 67 415 82 380L191 118C219 50 229 26 247 -24L224 -85C192 -169 153 -216 115 -216C99 -216 81 -208 64 -193L51 -193L27 -268C46 -278 62 -283 81 -283C148 -283 191 -247 229 -160L432 308C472 399 491 426 516 429L544 431L544 459C465 456 465 456 449 456C433 456 433 456 354 459L354 431L380 429C408 427 422 418 422 404C422 397 420 388 416 378Z" stroke="rgb(0,0,0)" stroke-opacity="1" stroke-width="24" fill="rgb(0,0,0)" fill-opacity="1"></path></g></g></g></g><svg x="105" overflow="visible" y="65.00001525878906" height="9" width="9.4375"><polyline points="0.00,8.06 4.72,4.91 9.44,8.06" style="fill:none;fill-opacity:1;stroke-width:1px;stroke:rgb(0,0,0);stroke-opacity:1;"></polyline></svg></g></g></g><g><g><g><g><g><g><g transform="matrix(1,0,0,1,4,86.00001525878906)"><path transform="matrix(0.017,0,0,-0.017,0,0)" d="M455 432L455 462C385 460 355 459 317 459L69 462C67 411 66 399 60 330L90 330L102 398C106 419 124 424 198 424L341 424C320 391 303 368 276 334L106 122L16 17L22 -3C126 0 132 0 175 0L451 -3C451 20 453 44 460 92L466 139L436 139L418 60C414 42 372 35 276 35L141 35Z" stroke="rgb(0,0,0)" stroke-opacity="1" stroke-width="24" fill="rgb(0,0,0)" fill-opacity="1"></path></g></g></g></g><svg x="4" overflow="visible" y="67.00001525878906" height="9" width="8.484375"><polyline points="0.00,8.06 4.24,5.23 8.48,8.06" style="fill:none;fill-opacity:1;stroke-width:1px;stroke:rgb(0,0,0);stroke-opacity:1;"></polyline></svg></g></g></g></svg>
</svg>
