<svg xmlns="http://www.w3.org/2000/svg" xmlns:xlink="http://www.w3.org/1999/xlink" x="0" y="0" width="662" height="162" style="
        width:662px;
        height:162px;
        background: transparent;
        fill: none;
">
        
        
        <svg xmlns="http://www.w3.org/2000/svg" class="role-diagram-draw-area"><g class="shapes-region" style="stroke: black; fill: none;"><g class="arrow-line"><path class="connection real" stroke-dasharray="" d="  M69.75,140.25 L122.95,140.25 L177.75,140.25" style="stroke: rgb(155, 155, 155); stroke-opacity: 1; stroke-width: 1; fill: none; fill-opacity: 1;"/><g stroke="rgb(155,155,155)" stroke-opacity="1" transform="matrix(-1,1.2246467991473532e-16,-1.2246467991473532e-16,-1,179.75260448455808,140.24739551544192)" style="stroke: rgb(155, 155, 155); stroke-width: 1;"><path d=" M10.93,-3.29 Q4.96,-0.45 0,0 Q4.96,0.45 10.93,3.29"/></g></g><g class="arrow-line"><path class="connection real" stroke-dasharray="" d="  M69.75,140.25 L70,42" style="stroke: rgb(155, 155, 155); stroke-opacity: 1; stroke-width: 1; fill: none; fill-opacity: 1;"/><g stroke="rgb(155,155,155)" stroke-opacity="1" transform="matrix(-0.002443458521344478,0.9999970147507714,-0.9999970147507714,-0.002443458521344478,70,40)" style="stroke: rgb(155, 155, 155); stroke-width: 1;"><path d=" M10.93,-3.29 Q4.96,-0.45 0,0 Q4.96,0.45 10.93,3.29"/></g></g><g class="composite-shape"><path class="real" d=" M10,140.25 C10,107.25 36.75,80.49 69.75,80.49 C102.75,80.49 129.51,107.25 129.51,140.25 C129.51,173.25 102.75,200 69.75,200 C36.75,200 10,173.25 10,140.25 Z" style="stroke-width: 1; stroke: rgb(155, 155, 155); stroke-opacity: 1; fill: none; fill-opacity: 1; stroke-dasharray: 1.125, 3.35;"/></g><g class="arrow-line"><path class="connection real" stroke-dasharray="" d="  M129.51,140.25 L71.87,82.37" style="stroke: rgb(0, 0, 255); stroke-width: 1; fill: none; fill-opacity: 1; stroke-opacity: 1;"/><g stroke="none" fill="rgb(0,0,255)" transform="matrix(0.7056242704317209,0.7085861902250858,-0.7085861902250858,0.7056242704317209,69.7526044845581,80.2473955154419)" style="stroke: none; fill: rgb(0, 0, 255); stroke-width: 1;" fill-opacity="1"><path d=" M8.93,-4.29 L0,0 L8.93,4.29 Z"/></g></g><g class="arrow-line"><path class="connection real" stroke-dasharray="" d="  M128.36,127.51 L130,140" style="stroke: rgb(0, 0, 0); stroke-width: 1; fill: none; fill-opacity: 1;"/><g stroke="none" fill="#000" transform="matrix(0.1305261922200517,0.9914448613738104,-0.9914448613738104,0.1305261922200517,127.96397937511256,124.53488796491808)" style="stroke: none; fill: rgb(0, 0, 0); stroke-width: 1;"><path d=" M5.36,-2.57 L0,0 L5.36,2.57 Z"/></g></g><g class="arrow-line"><path class="connection real" stroke-dasharray="" d="  M73.22,80.64 L85.71,82.28" style="stroke: rgb(0, 0, 0); stroke-width: 1; fill: none; fill-opacity: 1;"/><g stroke="none" fill="#000" transform="matrix(0.9914448613738104,0.13052619222005157,-0.13052619222005157,0.9914448613738104,70.2473955154419,80.2473955154419)" style="stroke: none; fill: rgb(0, 0, 0); stroke-width: 1;"><path d=" M5.36,-2.57 L0,0 L5.36,2.57 Z"/></g></g><g class="arrow-line"><path class="connection real" stroke-dasharray="" d="  M123.14,112.9 L127.96,124.53" style="stroke: rgb(0, 0, 0); stroke-width: 1; fill: none; fill-opacity: 1;"/><g stroke="none" fill="#000" transform="matrix(0.38268343236508984,0.9238795325112867,-0.9238795325112867,0.38268343236508984,121.99466894135315,110.12369775772093)" style="stroke: none; fill: rgb(0, 0, 0); stroke-width: 1;"><path d=" M5.36,-2.57 L0,0 L5.36,2.57 Z"/></g></g><g class="arrow-line"><path class="connection real" stroke-dasharray="" d="  M114.33,100.13 L121.99,110.12" style="stroke: rgb(0, 0, 0); stroke-width: 1; fill: none; fill-opacity: 1;"/><g stroke="none" fill="#000" transform="matrix(0.6087614290087207,0.7933533402912352,-0.7933533402912352,0.6087614290087207,112.49886734003064,97.74852817541125)" style="stroke: none; fill: rgb(0, 0, 0); stroke-width: 1;"><path d=" M5.36,-2.57 L0,0 L5.36,2.57 Z"/></g></g><g class="arrow-line"><path class="connection real" stroke-dasharray="" d="  M102.5,90.08 L112.5,97.75" style="stroke: rgb(0, 0, 0); stroke-width: 1; fill: none; fill-opacity: 1;"/><g stroke="none" fill="#000" transform="matrix(0.7933533402912352,0.6087614290087207,-0.6087614290087207,0.7933533402912352,100.12369775772095,88.2527265740887)" style="stroke: none; fill: rgb(0, 0, 0); stroke-width: 1;"><path d=" M5.36,-2.57 L0,0 L5.36,2.57 Z"/></g></g><g class="arrow-line"><path class="connection real" stroke-dasharray="" d="  M88.48,83.43 L100.12,88.25" style="stroke: rgb(0, 0, 0); stroke-width: 1; fill: none; fill-opacity: 1;"/><g stroke="none" fill="#000" transform="matrix(0.9238795325112867,0.3826834323650898,-0.3826834323650898,0.9238795325112867,85.71250755052381,82.28341614032932)" style="stroke: none; fill: rgb(0, 0, 0); stroke-width: 1;"><path d=" M5.36,-2.57 L0,0 L5.36,2.57 Z"/></g></g><g/></g><g/><g/><g/></svg>
        <svg xmlns="http://www.w3.org/2000/svg" xmlns:xlink="http://www.w3.org/1999/xlink" width="660" height="160" style="width:660px;height:160px;font-family:Asana-Math, Asana;background:transparent;"><g><g><g><g transform="matrix(1,0,0,1,80,49)"><path transform="matrix(0.017,0,0,-0.017,0,0)" d="M-7 -180C-8 -187 -8 -193 -8 -198C-8 -241 29 -276 74 -276C180 -276 290 -152 349 33L490 473L479 482C450 471 427 465 405 463L370 331C358 284 323 211 290 162C255 111 206 67 184 67C172 67 163 90 164 115L180 322C182 353 184 391 184 419C184 464 177 482 160 482C147 482 133 475 85 442L3 386L14 368L64 398C69 401 80 410 89 410C103 410 111 391 111 358C111 357 111 351 110 343L93 100L92 60C92 18 110 -11 135 -11C172 -11 256 74 331 187L282 16C231 -161 181 -234 111 -234C76 -234 49 -207 49 -172C49 -167 50 -159 51 -150L41 -146Z" stroke="rgb(0,0,0)" stroke-opacity="1" stroke-width="8" fill="rgb(0,0,0)" fill-opacity="1"></path></g></g></g></g><g><g><g><g transform="matrix(1,0,0,1,172,157)"><path transform="matrix(0.017,0,0,-0.017,0,0)" d="M9 1C24 -7 40 -11 52 -11C85 -11 124 18 155 65L231 182L242 113C255 28 278 -11 314 -11C336 -11 368 6 400 35L449 79L440 98C404 68 379 53 363 53C348 53 335 63 325 83C316 102 305 139 300 168L282 269L317 318C364 383 391 406 422 406C438 406 450 398 455 383L469 387L484 472C472 479 463 482 454 482C414 482 374 446 312 354L275 299L269 347C257 446 230 482 171 482C145 482 123 474 114 461L56 378L73 368C103 402 123 416 142 416C175 416 197 375 214 277L225 215L185 153C142 86 108 54 80 54C65 54 54 58 52 63L41 91L21 88C21 53 13 27 9 1Z" stroke="rgb(0,0,0)" stroke-opacity="1" stroke-width="8" fill="rgb(0,0,0)" fill-opacity="1"></path></g></g></g></g><g><g><g><g transform="matrix(1,0,0,1,72,135.26665649414062)"><path transform="matrix(0.0136,0,0,-0.0136,0,0)" d="M555 243L555 299L51 299L51 243Z" stroke="rgb(0,0,255)" stroke-opacity="1" stroke-width="8" fill="rgb(0,0,255)" fill-opacity="1"></path></g></g><g><g><g><g><g transform="matrix(1,0,0,1,80.22917175292969,135.26665649414062)"><path transform="matrix(0.0136,0,0,-0.0136,0,0)" d="M288 254L430 420C436 427 447 431 464 431L478 431L478 459L396 459L272 284L196 400C181 422 170 435 136 469L20 449L25 423L46 421C64 420 86 406 96 392L216 218L67 42C60 33 47 27 37 27L20 27L20 0L106 0L240 192L373 -3C425 0 425 0 434 0C444 0 444 0 496 -3L496 27L471 30C459 31 447 39 436 54Z" stroke="rgb(0,0,255)" stroke-opacity="1" stroke-width="24" fill="rgb(0,0,255)" fill-opacity="1"></path></g></g></g></g><svg x="80.22917175292969" overflow="visible" y="120" height="7" width="7.005208492279053"><polyline points="0.00,6.24 3.50,3.91 7.01,6.24" style="fill:none;fill-opacity:1;stroke-width:1px;stroke:rgb(0,0,255);stroke-opacity:1;"></polyline></svg></g><g><g transform="matrix(1,0,0,1,87.234375,135.26665649414062)"><path transform="matrix(0.0136,0,0,-0.0136,0,0)" d="" stroke="rgb(0,0,255)" stroke-opacity="1" stroke-width="8" fill="rgb(0,0,255)" fill-opacity="1"></path></g></g><g><g transform="matrix(1,0,0,1,93.34375,135.26665649414062)"><path transform="matrix(0.0136,0,0,-0.0136,0,0)" d="M604 241L604 300L364 300L364 538L305 538L305 300L65 300L65 241L305 241L305 0L364 0L364 241Z" stroke="rgb(0,0,255)" stroke-opacity="1" stroke-width="8" fill="rgb(0,0,255)" fill-opacity="1"></path></g></g><g><g><g><g><g transform="matrix(1,0,0,1,105.15104675292969,135.26665649414062)"><path transform="matrix(0.0136,0,0,-0.0136,0,0)" d="M297 86C275 124 264 147 246 196L182 364C176 381 172 396 172 406C172 420 183 428 206 429L244 431L244 459C147 456 147 456 128 456C109 456 109 456 12 459L12 431L30 429C55 426 67 415 82 380L191 118C219 50 229 26 247 -24L224 -85C192 -169 153 -216 115 -216C99 -216 81 -208 64 -193L51 -193L27 -268C46 -278 62 -283 81 -283C148 -283 191 -247 229 -160L432 308C472 399 491 426 516 429L544 431L544 459C465 456 465 456 449 456C433 456 433 456 354 459L354 431L380 429C408 427 422 418 422 404C422 397 420 388 416 378Z" stroke="rgb(0,0,255)" stroke-opacity="1" stroke-width="24" fill="rgb(0,0,255)" fill-opacity="1"></path></g></g></g></g><svg x="105.15104675292969" overflow="visible" y="120" height="7" width="7.552083492279053"><polyline points="0.00,6.24 3.78,3.73 7.55,6.24" style="fill:none;fill-opacity:1;stroke-width:1px;stroke:rgb(0,0,255);stroke-opacity:1;"></polyline></svg></g></g></g></svg>
</svg>
