<svg xmlns="http://www.w3.org/2000/svg" xmlns:xlink="http://www.w3.org/1999/xlink" x="0" y="0" width="662" height="120" style="
        width:662px;
        height:120px;
        background: transparent;
        fill: none;
">
        <svg xmlns="http://www.w3.org/2000/svg"><g><defs><pattern id=".6382122748373333" width="10" height="10" patternUnits="userSpaceOnUse"><path d="M 10 0 L 0 0 0 10" fill="none" stroke="lightgray" stroke-width="0.5"/></pattern></defs><rect width="100%" height="100%" fill="url(#.6382122748373333)" stroke="lightgray" stroke-width="0.5"/></g></svg>
        
        <svg xmlns="http://www.w3.org/2000/svg" class="role-diagram-draw-area"><g class="shapes-region" style="stroke: black; fill: none;"><g class="arrow-line"><path class="connection real" stroke-dasharray="" d="  M90,110 L187,110" style="stroke: rgb(0, 0, 0); stroke-width: 1; fill: none; fill-opacity: 1;"/><g stroke="none" fill="#000" transform="matrix(-1,1.2246467991473532e-16,-1.2246467991473532e-16,-1,190,110)" style="stroke: none; fill: rgb(0, 0, 0); stroke-width: 1;"><path d=" M8.93,-4.29 L0,0 L8.93,4.29 Z"/></g></g><g class="arrow-line"><path class="connection real" stroke-dasharray="" d="  M90,110 L90,13" style="stroke: rgb(0, 0, 0); stroke-width: 1; fill: none; fill-opacity: 1;"/><g stroke="none" fill="#000" transform="matrix(3.061616997868383e-16,1,-1,3.061616997868383e-16,90,10)" style="stroke: none; fill: rgb(0, 0, 0); stroke-width: 1;"><path d=" M8.93,-4.29 L0,0 L8.93,4.29 Z"/></g></g><g class="composite-shape"><path class="real" d=" M70,110 C70,98.95 78.95,90 90,90 C101.05,90 110,98.95 110,110 C110,121.05 101.05,130 90,130 C78.95,130 70,121.05 70,110 Z" style="stroke-width: 1; stroke: rgb(0, 0, 0); stroke-opacity: 0.1; fill: none; fill-opacity: 1; stroke-dasharray: 1.125, 3.35;"/></g><g class="composite-shape"><path class="real" d=" M50,110 C50,87.91 67.91,70 90,70 C112.09,70 130,87.91 130,110 C130,132.09 112.09,150 90,150 C67.91,150 50,132.09 50,110 Z" style="stroke-width: 1; stroke: rgb(0, 0, 0); stroke-opacity: 0.1; fill: none; fill-opacity: 1; stroke-dasharray: 1.125, 3.35;"/></g><g class="composite-shape"><path class="real" d=" M10,110 C10,65.82 45.82,30 90,30 C134.18,30 170,65.82 170,110 C170,154.18 134.18,190 90,190 C45.82,190 10,154.18 10,110 Z" style="stroke-width: 1; stroke: rgb(0, 0, 0); stroke-opacity: 0.1; fill: none; fill-opacity: 1; stroke-dasharray: 1.125, 3.35;"/></g><g class="composite-shape"><path class="real" d=" M30,110 C30,76.86 56.86,50 90,50 C123.14,50 150,76.86 150,110 C150,143.14 123.14,170 90,170 C56.86,170 30,143.14 30,110 Z" style="stroke-width: 1; stroke: rgb(0, 0, 0); stroke-opacity: 0.1; fill: none; fill-opacity: 1; stroke-dasharray: 1.125, 3.35;"/></g><g class="composite-shape"><path class="real" d=" M107.4,110 C107.4,108.56 108.56,107.4 110,107.4 C111.44,107.4 112.6,108.56 112.6,110 C112.6,111.44 111.44,112.6 110,112.6 C108.56,112.6 107.4,111.44 107.4,110 Z" style="stroke-width: 1; stroke: rgb(0, 0, 0); fill: rgb(0, 0, 0); fill-opacity: 1;"/></g><g class="composite-shape"><path class="real" d=" M147.4,110 C147.4,108.56 148.56,107.4 150,107.4 C151.44,107.4 152.6,108.56 152.6,110 C152.6,111.44 151.44,112.6 150,112.6 C148.56,112.6 147.4,111.44 147.4,110 Z" style="stroke-width: 1; stroke: rgb(0, 0, 0); fill: rgb(0, 0, 0); fill-opacity: 1;"/></g><g/></g><g/><g/><g/></svg>
        <svg xmlns="http://www.w3.org/2000/svg" xmlns:xlink="http://www.w3.org/1999/xlink" width="660" height="118" style="width:660px;height:118px;font-family:Asana-Math, Asana;background:transparent;"><g><g><g><g transform="matrix(1,0,0,1,192,107)"><path transform="matrix(0.017,0,0,-0.017,0,0)" d="M9 1C24 -7 40 -11 52 -11C85 -11 124 18 155 65L231 182L242 113C255 28 278 -11 314 -11C336 -11 368 6 400 35L449 79L440 98C404 68 379 53 363 53C348 53 335 63 325 83C316 102 305 139 300 168L282 269L317 318C364 383 391 406 422 406C438 406 450 398 455 383L469 387L484 472C472 479 463 482 454 482C414 482 374 446 312 354L275 299L269 347C257 446 230 482 171 482C145 482 123 474 114 461L56 378L73 368C103 402 123 416 142 416C175 416 197 375 214 277L225 215L185 153C142 86 108 54 80 54C65 54 54 58 52 63L41 91L21 88C21 53 13 27 9 1Z" stroke="rgb(0,0,0)" stroke-opacity="1" stroke-width="8" fill="rgb(0,0,0)" fill-opacity="1"></path></g></g></g></g><g><g><g><g transform="matrix(1,0,0,1,97,25)"><path transform="matrix(0.017,0,0,-0.017,0,0)" d="M-7 -180C-8 -187 -8 -193 -8 -198C-8 -241 29 -276 74 -276C180 -276 290 -152 349 33L490 473L479 482C450 471 427 465 405 463L370 331C358 284 323 211 290 162C255 111 206 67 184 67C172 67 163 90 164 115L180 322C182 353 184 391 184 419C184 464 177 482 160 482C147 482 133 475 85 442L3 386L14 368L64 398C69 401 80 410 89 410C103 410 111 391 111 358C111 357 111 351 110 343L93 100L92 60C92 18 110 -11 135 -11C172 -11 256 74 331 187L282 16C231 -161 181 -234 111 -234C76 -234 49 -207 49 -172C49 -167 50 -159 51 -150L41 -146Z" stroke="rgb(0,0,0)" stroke-opacity="1" stroke-width="8" fill="rgb(0,0,0)" fill-opacity="1"></path></g></g></g></g></svg>
</svg>
