<svg xmlns="http://www.w3.org/2000/svg" xmlns:xlink="http://www.w3.org/1999/xlink" x="0" y="0" width="662" height="113" style="
        width:662px;
        height:113px;
        background: transparent;
        fill: none;
">
        
        
        <svg xmlns="http://www.w3.org/2000/svg" class="role-diagram-draw-area"><g class="shapes-region" style="stroke: black; fill: none;"><g class="composite-shape"><path class="real" d=" M27,73 C27,61.95 35.95,53 47,53 C58.05,53 67,61.95 67,73 C67,84.05 58.05,93 47,93 C35.95,93 27,84.05 27,73 Z" style="stroke-width: 1; stroke: rgb(0, 0, 0); fill: none; fill-opacity: 1;"/></g><g class="arrow-line"><path class="connection real" stroke-dasharray="1.125 3.35" d="  M47,73 L47.33,10.33" style="stroke: rgb(0, 0, 255); stroke-opacity: 1; stroke-width: 1; fill: none; fill-opacity: 1;"/></g><g class="arrow-line"><path class="connection real" stroke-dasharray="1.125 3.35" d="  M47,73 L90.33,8.33" style="stroke: rgb(0, 0, 255); stroke-opacity: 1; stroke-width: 1; fill: none; fill-opacity: 1;"/></g><g class="arrow-line"><path class="connection real" stroke-dasharray="1.125 3.35" d="  M47,73 L68.33,8.33" style="stroke: rgb(0, 0, 255); stroke-opacity: 1; stroke-width: 1; fill: none; fill-opacity: 1;"/></g><g class="shape"><path class="real" d=" M20,19 C40,9 130,-1 110,19 C90,39 90,49 110,79 C130,109 40,109 20,79 C0,49 0,29 20,19 Z" style="stroke: rgb(0, 0, 0); stroke-width: 1; fill: none; fill-opacity: 1;"/></g><g class="arrow-line"><path class="connection real" stroke-dasharray="1.125 3.35" d="  M47,73 L102.33,27.33" style="stroke: rgb(0, 0, 255); stroke-opacity: 1; stroke-width: 1; fill: none; fill-opacity: 1;"/></g><g class="arrow-line"><path class="connection real" stroke-dasharray="1.125 3.35" d="  M47,73 L98.33,58.33" style="stroke: rgb(0, 0, 255); stroke-opacity: 1; stroke-width: 1; fill: none; fill-opacity: 1;"/></g><g class="arrow-line"><path class="connection real" stroke-dasharray="1.125 3.35" d="  M47,73 L110,79" style="stroke: rgb(0, 0, 255); stroke-opacity: 1; stroke-width: 1; fill: none; fill-opacity: 1;"/></g><g class="arrow-line"><path class="connection real" stroke-dasharray="1.125 3.35" d="  M47,73 L99.33,99.33" style="stroke: rgb(0, 0, 255); stroke-opacity: 1; stroke-width: 1; fill: none; fill-opacity: 1;"/></g><g class="arrow-line"><path class="connection real" stroke-dasharray="1.125 3.35" d="  M47,73 L71.33,100.33" style="stroke: rgb(0, 0, 255); stroke-opacity: 1; stroke-width: 1; fill: none; fill-opacity: 1;"/></g><g class="arrow-line"><path class="connection real" stroke-dasharray="1.125 3.35" d="  M48,72 L54.33,98.33" style="stroke: rgb(0, 0, 255); stroke-opacity: 1; stroke-width: 1; fill: none; fill-opacity: 1;"/></g><g class="arrow-line"><path class="connection real" stroke-dasharray="1.125 3.35" d="  M47,73 L37.33,93.33" style="stroke: rgb(0, 0, 255); stroke-opacity: 1; stroke-width: 1; fill: none; fill-opacity: 1;"/></g><g class="arrow-line"><path class="connection real" stroke-dasharray="1.125 3.35" d="  M47,73 L26.33,84.33" style="stroke: rgb(0, 0, 255); stroke-opacity: 1; stroke-width: 1; fill: none; fill-opacity: 1;"/></g><g class="arrow-line"><path class="connection real" stroke-dasharray="1.125 3.35" d="  M47,73 L13.33,67.33" style="stroke: rgb(0, 0, 255); stroke-opacity: 1; stroke-width: 1; fill: none; fill-opacity: 1;"/></g><g class="arrow-line"><path class="connection real" stroke-dasharray="1.125 3.35" d="  M48,72 L5.33,46.33" style="stroke: rgb(0, 0, 255); stroke-opacity: 1; stroke-width: 1; fill: none; fill-opacity: 1;"/></g><g class="arrow-line"><path class="connection real" stroke-dasharray="1.125 3.35" d="  M12.33,25.33 L48,72" style="stroke: rgb(0, 0, 255); stroke-opacity: 1; stroke-width: 1; fill: none; fill-opacity: 1;"/></g><g class="arrow-line"><path class="connection real" stroke-dasharray="1.125 3.35" d="  M29.33,16.33 L47,73" style="stroke: rgb(0, 0, 255); stroke-opacity: 1; stroke-width: 1; fill: none; fill-opacity: 1;"/></g><g/></g><g/><g/><g/></svg>
        <svg xmlns="http://www.w3.org/2000/svg" xmlns:xlink="http://www.w3.org/1999/xlink" width="660" height="111" style="width:660px;height:111px;font-family:Asana-Math, Asana;background:transparent;"></svg>
</svg>
