<svg xmlns="http://www.w3.org/2000/svg" xmlns:xlink="http://www.w3.org/1999/xlink" x="0" y="0" width="662" height="65" style="
        width:662px;
        height:65px;
        background: transparent;
        fill: none;
">
        
        
        <svg xmlns="http://www.w3.org/2000/svg" class="role-diagram-draw-area"><g class="shapes-region" style="stroke: black; fill: none;"><g class="composite-shape"><path class="real" d=" M120,12.4 C120,11.07 121.07,10 122.4,10 C123.73,10 124.8,11.07 124.8,12.4 C124.8,13.73 123.73,14.8 122.4,14.8 C121.07,14.8 120,13.73 120,12.4 Z" style="stroke-width: 1; stroke: rgb(0, 0, 0); fill: none; fill-opacity: 1;"/></g><g class="composite-shape"><path class="real" d=" M100,12.4 C100,11.07 101.07,10 102.4,10 C103.73,10 104.8,11.07 104.8,12.4 C104.8,13.73 103.73,14.8 102.4,14.8 C101.07,14.8 100,13.73 100,12.4 Z" style="stroke-width: 1; stroke: rgb(0, 0, 0); fill: none; fill-opacity: 1;"/></g><g class="composite-shape"><path class="real" d=" M80,12.4 C80,11.07 81.07,10 82.4,10 C83.73,10 84.8,11.07 84.8,12.4 C84.8,13.73 83.73,14.8 82.4,14.8 C81.07,14.8 80,13.73 80,12.4 Z" style="stroke-width: 1; stroke: rgb(0, 0, 0); fill: none; fill-opacity: 1;"/></g><g class="composite-shape"><path class="real" d=" M120,32.4 C120,31.07 121.07,30 122.4,30 C123.73,30 124.8,31.07 124.8,32.4 C124.8,33.73 123.73,34.8 122.4,34.8 C121.07,34.8 120,33.73 120,32.4 Z" style="stroke-width: 1; stroke: rgb(0, 0, 0); fill: none; fill-opacity: 1;"/></g><g class="composite-shape"><path class="real" d=" M100,32.4 C100,31.07 101.07,30 102.4,30 C103.73,30 104.8,31.07 104.8,32.4 C104.8,33.73 103.73,34.8 102.4,34.8 C101.07,34.8 100,33.73 100,32.4 Z" style="stroke-width: 1; stroke: rgb(0, 0, 0); fill: none; fill-opacity: 1;"/></g><g class="composite-shape"><path class="real" d=" M80,32.4 C80,31.07 81.07,30 82.4,30 C83.73,30 84.8,31.07 84.8,32.4 C84.8,33.73 83.73,34.8 82.4,34.8 C81.07,34.8 80,33.73 80,32.4 Z" style="stroke-width: 1; stroke: rgb(0, 0, 0); fill: none; fill-opacity: 1;"/></g><g class="composite-shape"><path class="real" d=" M120,52.4 C120,51.07 121.07,50 122.4,50 C123.73,50 124.8,51.07 124.8,52.4 C124.8,53.73 123.73,54.8 122.4,54.8 C121.07,54.8 120,53.73 120,52.4 Z" style="stroke-width: 1; stroke: rgb(0, 0, 0); fill: none; fill-opacity: 1;"/></g><g class="composite-shape"><path class="real" d=" M80,52.4 C80,51.07 81.07,50 82.4,50 C83.73,50 84.8,51.07 84.8,52.4 C84.8,53.73 83.73,54.8 82.4,54.8 C81.07,54.8 80,53.73 80,52.4 Z" style="stroke-width: 1; stroke: rgb(0, 0, 0); fill: none; fill-opacity: 1;"/></g><g class="arrow-line"><path class="connection real" stroke-dasharray="" d="  M122.4,52.8 L122.4,12.4" style="stroke: rgb(208, 2, 27); stroke-opacity: 1; stroke-width: 2; fill: none; fill-opacity: 1;"/></g><g class="composite-shape"><path class="real" d=" M60,12.4 C60,11.07 61.07,10 62.4,10 C63.73,10 64.8,11.07 64.8,12.4 C64.8,13.73 63.73,14.8 62.4,14.8 C61.07,14.8 60,13.73 60,12.4 Z" style="stroke-width: 1; stroke: rgb(0, 0, 0); fill: none; fill-opacity: 1;"/></g><g class="composite-shape"><path class="real" d=" M40,12.4 C40,11.07 41.07,10 42.4,10 C43.73,10 44.8,11.07 44.8,12.4 C44.8,13.73 43.73,14.8 42.4,14.8 C41.07,14.8 40,13.73 40,12.4 Z" style="stroke-width: 1; stroke: rgb(0, 0, 0); fill: none; fill-opacity: 1;"/></g><g class="composite-shape"><path class="real" d=" M20,12.4 C20,11.07 21.07,10 22.4,10 C23.73,10 24.8,11.07 24.8,12.4 C24.8,13.73 23.73,14.8 22.4,14.8 C21.07,14.8 20,13.73 20,12.4 Z" style="stroke-width: 1; stroke: rgb(0, 0, 0); fill: none; fill-opacity: 1;"/></g><g class="composite-shape"><path class="real" d=" M60,32.4 C60,31.07 61.07,30 62.4,30 C63.73,30 64.8,31.07 64.8,32.4 C64.8,33.73 63.73,34.8 62.4,34.8 C61.07,34.8 60,33.73 60,32.4 Z" style="stroke-width: 1; stroke: rgb(0, 0, 0); fill: none; fill-opacity: 1;"/></g><g class="composite-shape"><path class="real" d=" M40,32.4 C40,31.07 41.07,30 42.4,30 C43.73,30 44.8,31.07 44.8,32.4 C44.8,33.73 43.73,34.8 42.4,34.8 C41.07,34.8 40,33.73 40,32.4 Z" style="stroke-width: 1; stroke: rgb(0, 0, 0); fill: none; fill-opacity: 1;"/></g><g class="composite-shape"><path class="real" d=" M20,32.4 C20,31.07 21.07,30 22.4,30 C23.73,30 24.8,31.07 24.8,32.4 C24.8,33.73 23.73,34.8 22.4,34.8 C21.07,34.8 20,33.73 20,32.4 Z" style="stroke-width: 1; stroke: rgb(0, 0, 0); fill: none; fill-opacity: 1;"/></g><g class="composite-shape"><path class="real" d=" M40,52.4 C40,51.07 41.07,50 42.4,50 C43.73,50 44.8,51.07 44.8,52.4 C44.8,53.73 43.73,54.8 42.4,54.8 C41.07,54.8 40,53.73 40,52.4 Z" style="stroke-width: 1; stroke: rgb(0, 0, 0); fill: none; fill-opacity: 1;"/></g><g class="arrow-line"><path class="connection real" stroke-dasharray="" d="  M190,52.01 L122.4,52.4" style="stroke: rgb(0, 0, 0); stroke-width: 1; fill: none; fill-opacity: 1;"/><g stroke="#000" transform="matrix(-0.9999834136273441,0.00575955468799721,-0.00575955468799721,-0.9999834136273441,192.00000000000003,52)" style="stroke: rgb(0, 0, 0); stroke-width: 1;"><path d=" M10.93,-3.29 Q4.96,-0.45 0,0 Q4.96,0.45 10.93,3.29"/></g></g><g class="composite-shape"><path class="real" d=" M110,12.4 C110,11.07 111.07,10 112.4,10 C113.73,10 114.8,11.07 114.8,12.4 C114.8,13.73 113.73,14.8 112.4,14.8 C111.07,14.8 110,13.73 110,12.4 Z" style="stroke-width: 1; stroke: rgb(0, 0, 0); fill: none; fill-opacity: 1;"/></g><g class="composite-shape"><path class="real" d=" M90,12.4 C90,11.07 91.07,10 92.4,10 C93.73,10 94.8,11.07 94.8,12.4 C94.8,13.73 93.73,14.8 92.4,14.8 C91.07,14.8 90,13.73 90,12.4 Z" style="stroke-width: 1; stroke: rgb(0, 0, 0); fill: none; fill-opacity: 1;"/></g><g class="composite-shape"><path class="real" d=" M70,12.4 C70,11.07 71.07,10 72.4,10 C73.73,10 74.8,11.07 74.8,12.4 C74.8,13.73 73.73,14.8 72.4,14.8 C71.07,14.8 70,13.73 70,12.4 Z" style="stroke-width: 1; stroke: rgb(0, 0, 0); fill: none; fill-opacity: 1;"/></g><g class="composite-shape"><path class="real" d=" M50,12.4 C50,11.07 51.07,10 52.4,10 C53.73,10 54.8,11.07 54.8,12.4 C54.8,13.73 53.73,14.8 52.4,14.8 C51.07,14.8 50,13.73 50,12.4 Z" style="stroke-width: 1; stroke: rgb(0, 0, 0); fill: none; fill-opacity: 1;"/></g><g class="composite-shape"><path class="real" d=" M30,12.4 C30,11.07 31.07,10 32.4,10 C33.73,10 34.8,11.07 34.8,12.4 C34.8,13.73 33.73,14.8 32.4,14.8 C31.07,14.8 30,13.73 30,12.4 Z" style="stroke-width: 1; stroke: rgb(0, 0, 0); fill: none; fill-opacity: 1;"/></g><g class="composite-shape"><path class="real" d=" M10,12.4 C10,11.07 11.07,10 12.4,10 C13.73,10 14.8,11.07 14.8,12.4 C14.8,13.73 13.73,14.8 12.4,14.8 C11.07,14.8 10,13.73 10,12.4 Z" style="stroke-width: 1; stroke: rgb(0, 0, 0); fill: none; fill-opacity: 1;"/></g><g class="arrow-line"><path class="connection real" stroke-dasharray="" d="  M122.4,12.4 L150.4,12.4" style="stroke: rgb(0, 0, 0); stroke-width: 1; fill: none; fill-opacity: 1;"/><g stroke="#000" transform="matrix(-1,1.2246467991473532e-16,-1.2246467991473532e-16,-1,152.39999389648438,12.399993896484373)" style="stroke: rgb(0, 0, 0); stroke-width: 1;"><path d=" M10.93,-3.29 Q4.96,-0.45 0,0 Q4.96,0.45 10.93,3.29"/></g></g><g class="arrow-line"><path class="connection real" stroke-dasharray="" d="  M122.4,32.4 L170.4,32.02" style="stroke: rgb(0, 0, 0); stroke-width: 1; fill: none; fill-opacity: 1;"/><g stroke="#000" transform="matrix(-0.9999677716500991,0.00802842831039634,-0.00802842831039634,-0.9999677716500991,172.3999938964844,32)" style="stroke: rgb(0, 0, 0); stroke-width: 1;"><path d=" M10.93,-3.29 Q4.96,-0.45 0,0 Q4.96,0.45 10.93,3.29"/></g></g><g class="arrow-line"><path class="connection real" stroke-dasharray="" d="  M118,42.4 L118,52.4" style="stroke: rgb(0, 0, 0); stroke-width: 1; fill: none; fill-opacity: 1;"/></g><g/></g><g/><g/><g/></svg>
        <svg xmlns="http://www.w3.org/2000/svg" xmlns:xlink="http://www.w3.org/1999/xlink" width="660" height="63" style="width:660px;height:63px;font-family:Asana-Math, Asana;background:transparent;"><g><g><g><g transform="matrix(1,0,0,1,202,33.49999084472656)"><path transform="matrix(0.0119,0,0,-0.0119,0,0)" d="M166 420C187 420 203 421 229 424C118 304 76 221 76 121C76 44 122 -11 186 -11C324 -11 477 236 477 384C477 441 451 482 415 482C402 482 390 478 382 470L332 423L343 404C352 410 361 413 370 413C397 413 413 390 413 350C413 202 316 39 228 39C179 39 148 81 148 146C148 251 187 342 285 464L275 482C255 473 242 470 214 470C186 470 144 472 115 475L103 476C97 477 92 477 91 477C79 477 70 475 59 470C45 443 34 407 21 352L43 352L60 394C67 411 87 422 111 422C144 422 128 420 166 420Z" stroke="rgb(0,0,0)" stroke-opacity="1" stroke-width="8" fill="rgb(0,0,0)" fill-opacity="1"></path></g></g><g><g><g><g><g transform="matrix(1,0,0,1,208.29998779296875,36.00500305175781)"><path transform="matrix(0.00833,0,0,-0.00833,0,0)" d="M9 1C24 -7 40 -11 52 -11C85 -11 124 18 155 65L231 182L242 113C255 28 278 -11 314 -11C336 -11 368 6 400 35L449 79L440 98C404 68 379 53 363 53C348 53 335 63 325 83C316 102 305 139 300 168L282 269L317 318C364 383 391 406 422 406C438 406 450 398 455 383L469 387L484 472C472 479 463 482 454 482C414 482 374 446 312 354L275 299L269 347C257 446 230 482 171 482C145 482 123 474 114 461L56 378L73 368C103 402 123 416 142 416C175 416 197 375 214 277L225 215L185 153C142 86 108 54 80 54C65 54 54 58 52 63L41 91L21 88C21 53 13 27 9 1Z" stroke="rgb(0,0,0)" stroke-opacity="1" stroke-width="8" fill="rgb(0,0,0)" fill-opacity="1"></path></g></g></g></g></g></g></g><g><g><g><g transform="matrix(1,0,0,1,104,51.49999084472656)"><path transform="matrix(0.0119,0,0,-0.0119,0,0)" d="M483 722L471 733C419 707 383 698 311 691L307 670L355 670C379 670 389 663 389 646C389 638 388 629 387 622L359 468C329 477 302 482 277 482C208 482 114 410 68 323C37 265 17 170 17 86C17 21 32 -11 61 -11C88 -11 125 6 159 33C213 77 246 116 313 217L290 126C279 82 274 50 274 24C274 3 283 -9 300 -9C317 -9 341 3 375 28L456 88L446 107L402 76C388 66 372 59 363 59C355 59 349 68 349 82C349 90 350 99 357 128ZM114 59C98 59 89 73 89 98C89 224 135 380 184 418C197 428 216 433 243 433C287 433 316 427 349 410L337 351C300 171 159 59 114 59ZM750 722L738 733C686 707 650 698 578 691L574 670L622 670C646 670 656 663 656 648C656 645 656 640 653 622C642 567 569 182 554 132C541 82 535 52 535 31C535 6 546 -9 565 -9C591 -9 627 12 725 85L715 103L689 86C660 67 638 56 628 56C621 56 615 66 615 76C615 82 616 89 619 104Z" stroke="rgb(0,0,0)" stroke-opacity="1" stroke-width="8" fill="rgb(0,0,0)" fill-opacity="1"></path></g></g></g></g></svg>
</svg>
