<svg xmlns="http://www.w3.org/2000/svg" xmlns:xlink="http://www.w3.org/1999/xlink" x="0" y="0" width="662" height="153" style="
        width:662px;
        height:153px;
        background: transparent;
        fill: none;
">
        
        
        <svg xmlns="http://www.w3.org/2000/svg" class="role-diagram-draw-area"><g class="shapes-region" style="stroke: black; fill: none;"><g class="arrow-line"><path class="connection real" stroke-dasharray="" d="  M142,12 L142,109" style="stroke: rgb(0, 0, 0); stroke-width: 1; fill: none; fill-opacity: 1;"/><g stroke="#000" transform="matrix(6.123233995736766e-17,1,-1,6.123233995736766e-17,142,10)" style="stroke: rgb(0, 0, 0); stroke-width: 1;"><path d=" M10.93,-3.29 Q4.96,-0.45 0,0 Q4.96,0.45 10.93,3.29"/></g></g><g class="composite-shape"><path class="real" d=" M140,70.4 C140,69.07 141.07,68 142.4,68 C143.73,68 144.8,69.07 144.8,70.4 C144.8,71.73 143.73,72.8 142.4,72.8 C141.07,72.8 140,71.73 140,70.4 Z" style="stroke-width: 1; stroke: rgb(0, 0, 0); fill: rgb(0, 0, 255); fill-opacity: 1;"/></g><g class="composite-shape"><path class="real" d=" M120,70.4 C120,69.07 121.07,68 122.4,68 C123.73,68 124.8,69.07 124.8,70.4 C124.8,71.73 123.73,72.8 122.4,72.8 C121.07,72.8 120,71.73 120,70.4 Z" style="stroke-width: 1; stroke: rgb(0, 0, 0); fill: rgb(0, 0, 255); fill-opacity: 1;"/></g><g class="composite-shape"><path class="real" d=" M100,70.4 C100,69.07 101.07,68 102.4,68 C103.73,68 104.8,69.07 104.8,70.4 C104.8,71.73 103.73,72.8 102.4,72.8 C101.07,72.8 100,71.73 100,70.4 Z" style="stroke-width: 1; stroke: rgb(0, 0, 0); fill: rgb(0, 0, 255); fill-opacity: 1;"/></g><g class="composite-shape"><path class="real" d=" M140,90.4 C140,89.07 141.07,88 142.4,88 C143.73,88 144.8,89.07 144.8,90.4 C144.8,91.73 143.73,92.8 142.4,92.8 C141.07,92.8 140,91.73 140,90.4 Z" style="stroke-width: 1; stroke: rgb(0, 0, 0); fill: rgb(0, 0, 255); fill-opacity: 1;"/></g><g class="composite-shape"><path class="real" d=" M120,90.4 C120,89.07 121.07,88 122.4,88 C123.73,88 124.8,89.07 124.8,90.4 C124.8,91.73 123.73,92.8 122.4,92.8 C121.07,92.8 120,91.73 120,90.4 Z" style="stroke-width: 1; stroke: rgb(0, 0, 0); fill: rgb(0, 0, 255); fill-opacity: 1;"/></g><g class="composite-shape"><path class="real" d=" M100,90.4 C100,89.07 101.07,88 102.4,88 C103.73,88 104.8,89.07 104.8,90.4 C104.8,91.73 103.73,92.8 102.4,92.8 C101.07,92.8 100,91.73 100,90.4 Z" style="stroke-width: 1; stroke: rgb(0, 0, 0); fill: rgb(0, 0, 255); fill-opacity: 1;"/></g><g class="composite-shape"><path class="real" d=" M140,110.4 C140,109.07 141.07,108 142.4,108 C143.73,108 144.8,109.07 144.8,110.4 C144.8,111.73 143.73,112.8 142.4,112.8 C141.07,112.8 140,111.73 140,110.4 Z" style="stroke-width: 1; stroke: rgb(0, 0, 0); fill: rgb(0, 0, 255); fill-opacity: 1;"/></g><g class="composite-shape"><path class="real" d=" M120,110.4 C120,109.07 121.07,108 122.4,108 C123.73,108 124.8,109.07 124.8,110.4 C124.8,111.73 123.73,112.8 122.4,112.8 C121.07,112.8 120,111.73 120,110.4 Z" style="stroke-width: 1; stroke: rgb(0, 0, 0); fill: rgb(0, 0, 255); fill-opacity: 1;"/></g><g class="composite-shape"><path class="real" d=" M100,110.4 C100,109.07 101.07,108 102.4,108 C103.73,108 104.8,109.07 104.8,110.4 C104.8,111.73 103.73,112.8 102.4,112.8 C101.07,112.8 100,111.73 100,110.4 Z" style="stroke-width: 1; stroke: rgb(0, 0, 0); fill: rgb(0, 0, 255); fill-opacity: 1;"/></g><g class="arrow-line"><path class="connection real" stroke-dasharray="" d="  M142.4,110.8 L142.4,70.4" style="stroke: rgb(208, 2, 27); stroke-width: 2; fill: none; fill-opacity: 1; stroke-opacity: 1;"/></g><g class="composite-shape"><path class="real" d=" M80,70.4 C80,69.07 81.07,68 82.4,68 C83.73,68 84.8,69.07 84.8,70.4 C84.8,71.73 83.73,72.8 82.4,72.8 C81.07,72.8 80,71.73 80,70.4 Z" style="stroke-width: 1; stroke: rgb(0, 0, 0); fill: none; fill-opacity: 1;"/></g><g class="composite-shape"><path class="real" d=" M60,70.4 C60,69.07 61.07,68 62.4,68 C63.73,68 64.8,69.07 64.8,70.4 C64.8,71.73 63.73,72.8 62.4,72.8 C61.07,72.8 60,71.73 60,70.4 Z" style="stroke-width: 1; stroke: rgb(0, 0, 0); fill: none; fill-opacity: 1;"/></g><g class="composite-shape"><path class="real" d=" M40,70.4 C40,69.07 41.07,68 42.4,68 C43.73,68 44.8,69.07 44.8,70.4 C44.8,71.73 43.73,72.8 42.4,72.8 C41.07,72.8 40,71.73 40,70.4 Z" style="stroke-width: 1; stroke: rgb(0, 0, 0); fill: none; fill-opacity: 1;"/></g><g class="composite-shape"><path class="real" d=" M80,90.4 C80,89.07 81.07,88 82.4,88 C83.73,88 84.8,89.07 84.8,90.4 C84.8,91.73 83.73,92.8 82.4,92.8 C81.07,92.8 80,91.73 80,90.4 Z" style="stroke-width: 1; stroke: rgb(0, 0, 0); fill: none; fill-opacity: 1;"/></g><g class="composite-shape"><path class="real" d=" M60,90.4 C60,89.07 61.07,88 62.4,88 C63.73,88 64.8,89.07 64.8,90.4 C64.8,91.73 63.73,92.8 62.4,92.8 C61.07,92.8 60,91.73 60,90.4 Z" style="stroke-width: 1; stroke: rgb(0, 0, 0); fill: none; fill-opacity: 1;"/></g><g class="composite-shape"><path class="real" d=" M40,90.4 C40,89.07 41.07,88 42.4,88 C43.73,88 44.8,89.07 44.8,90.4 C44.8,91.73 43.73,92.8 42.4,92.8 C41.07,92.8 40,91.73 40,90.4 Z" style="stroke-width: 1; stroke: rgb(0, 0, 0); fill: none; fill-opacity: 1;"/></g><g class="composite-shape"><path class="real" d=" M80,110.4 C80,109.07 81.07,108 82.4,108 C83.73,108 84.8,109.07 84.8,110.4 C84.8,111.73 83.73,112.8 82.4,112.8 C81.07,112.8 80,111.73 80,110.4 Z" style="stroke-width: 1; stroke: rgb(0, 0, 0); fill: none; fill-opacity: 1;"/></g><g class="composite-shape"><path class="real" d=" M60,110.4 C60,109.07 61.07,108 62.4,108 C63.73,108 64.8,109.07 64.8,110.4 C64.8,111.73 63.73,112.8 62.4,112.8 C61.07,112.8 60,111.73 60,110.4 Z" style="stroke-width: 1; stroke: rgb(0, 0, 0); fill: none; fill-opacity: 1;"/></g><g class="composite-shape"><path class="real" d=" M40,110.4 C40,109.07 41.07,108 42.4,108 C43.73,108 44.8,109.07 44.8,110.4 C44.8,111.73 43.73,112.8 42.4,112.8 C41.07,112.8 40,111.73 40,110.4 Z" style="stroke-width: 1; stroke: rgb(0, 0, 0); fill: none; fill-opacity: 1;"/></g><g class="arrow-line"><path class="connection real" stroke-dasharray="" d="  M139,60 L105,60" style="stroke: rgb(0, 0, 0); stroke-width: 1; fill: none; fill-opacity: 1;"/><g stroke="none" fill="#000" transform="matrix(1,-2.4492935982947064e-16,2.4492935982947064e-16,1,102,60)" style="stroke: none; fill: rgb(0, 0, 0); stroke-width: 1;"><path d=" M6.25,-3 L0,0 L6.25,3 Z"/></g><g stroke="none" fill="#000" transform="matrix(-1,1.2246467991473532e-16,-1.2246467991473532e-16,-1,142,60)" style="stroke: none; fill: rgb(0, 0, 0); stroke-width: 1;"><path d=" M6.25,-3 L0,0 L6.25,3 Z"/></g></g><g class="arrow-line"><path class="connection real" stroke-dasharray="" d="  M50,130 L118,130" style="stroke: rgb(0, 0, 0); stroke-width: 1; fill: none; fill-opacity: 1;"/><g stroke="#000" transform="matrix(-1,1.2246467991473532e-16,-1.2246467991473532e-16,-1,119.99999999999999,130.00000000000003)" style="stroke: rgb(0, 0, 0); stroke-width: 1;"><path d=" M10.93,-3.29 Q4.96,-0.45 0,0 Q4.96,0.45 10.93,3.29"/></g></g><g class="arrow-line"><path class="connection real" stroke-dasharray="" d="  M142.4,110.8 L182,70" style="stroke: rgb(0, 255, 0); stroke-width: 2; fill: none; fill-opacity: 1; stroke-opacity: 1;"/></g><g class="composite-shape"><path class="real" d=" M142.11,79.5 C143.67,79.58 145.25,79.81 146.83,80.18 C153.19,81.68 158.49,85.39 162.2,90.4 L139.94,109.38 Z" style="stroke-width: 1; stroke: none; fill: none; fill-opacity: 1;"/><path class="real" d=" M142.11,79.5 C143.67,79.58 145.25,79.81 146.83,80.18 C153.19,81.68 158.49,85.39 162.2,90.4" style="stroke-width: 1; stroke: rgb(0, 0, 0); fill: none; fill-opacity: 1;"/></g><g class="arrow-line"><path class="connection real" stroke-dasharray="" d="  M210,110.01 L142.4,110.4" style="stroke: rgb(0, 0, 0); stroke-width: 1; fill: none; fill-opacity: 1;"/><g stroke="#000" transform="matrix(-0.9999834136273441,0.00575955468799721,-0.00575955468799721,-0.9999834136273441,211.99999999999997,110)" style="stroke: rgb(0, 0, 0); stroke-width: 1;"><path d=" M10.93,-3.29 Q4.96,-0.45 0,0 Q4.96,0.45 10.93,3.29"/></g></g><g class="arrow-line"><path class="connection real" stroke-dasharray="" d="  M22.03,107 L22.37,73.4" style="stroke: rgb(0, 0, 0); stroke-width: 1; fill: none; fill-opacity: 1;"/><g stroke="none" fill="#000" transform="matrix(-0.01012273677445975,0.9999487637875227,-0.9999487637875227,-0.01012273677445975,22.399993896484375,70.39999389648438)" style="stroke: none; fill: rgb(0, 0, 0); stroke-width: 1;"><path d=" M6.25,-3 L0,0 L6.25,3 Z"/></g><g stroke="none" fill="#000" transform="matrix(0.010122736774458985,-0.9999487637875227,0.9999487637875227,0.010122736774458985,22,110.00000000000001)" style="stroke: none; fill: rgb(0, 0, 0); stroke-width: 1;"><path d=" M6.25,-3 L0,0 L6.25,3 Z"/></g></g><g class="arrow-line"><path class="connection real" stroke-dasharray="" d="  M151.74,117.5 L187.86,82.1" style="stroke: rgb(0, 0, 0); stroke-width: 1; fill: none; fill-opacity: 1;"/><g stroke="none" fill="#000" transform="matrix(-0.7141062388427495,0.7000373416081903,-0.7000373416081903,-0.7141062388427495,190.00000000000003,80)" style="stroke: none; fill: rgb(0, 0, 0); stroke-width: 1;"><path d=" M3.57,-1.72 L0,0 L3.57,1.72 Z"/></g><g stroke="none" fill="#000" transform="matrix(0.7141062388427495,-0.7000373416081902,0.7000373416081902,0.7141062388427495,149.60000610351562,119.60000610351564)" style="stroke: none; fill: rgb(0, 0, 0); stroke-width: 1;"><path d=" M3.57,-1.72 L0,0 L3.57,1.72 Z"/></g></g><g/></g><g/><g/><g/></svg>
        <svg xmlns="http://www.w3.org/2000/svg" xmlns:xlink="http://www.w3.org/1999/xlink" width="660" height="151" style="width:660px;height:151px;font-family:Asana-Math, Asana;background:transparent;"><g><g><g><g transform="matrix(1,0,0,1,112.00001525878906,53.500006103515624)"><path transform="matrix(0.0119,0,0,-0.0119,0,0)" d="M418 -3L418 27L366 30C311 33 301 44 301 96L301 700L60 598L67 548L217 614L217 96C217 44 206 33 152 30L96 27L96 -3C250 0 250 0 261 0C292 0 402 -3 418 -3Z" stroke="rgb(0,0,0)" stroke-opacity="1" stroke-width="8" fill="rgb(0,0,0)" fill-opacity="1"></path></g></g><g><text x="120.90626525878906" y="42.80000305175781" style="white-space:pre;stroke:none;fill:rgb(0,0,0);fill-opacity:1;font-size:11.9px;font-family:Arial, Helvetica, sans-serif;font-weight:400;font-style:normal;dominant-baseline:text-before-edge;text-decoration:none solid rgb(0, 0, 0);">m</text></g></g></g><g><g><g><g transform="matrix(1,0,0,1,54,145.49999084472657)"><path transform="matrix(0.0119,0,0,-0.0119,0,0)" d="M166 420C187 420 203 421 229 424C118 304 76 221 76 121C76 44 122 -11 186 -11C324 -11 477 236 477 384C477 441 451 482 415 482C402 482 390 478 382 470L332 423L343 404C352 410 361 413 370 413C397 413 413 390 413 350C413 202 316 39 228 39C179 39 148 81 148 146C148 251 187 342 285 464L275 482C255 473 242 470 214 470C186 470 144 472 115 475L103 476C97 477 92 477 91 477C79 477 70 475 59 470C45 443 34 407 21 352L43 352L60 394C67 411 87 422 111 422C144 422 128 420 166 420Z" stroke="rgb(0,0,0)" stroke-opacity="1" stroke-width="8" fill="rgb(0,0,0)" fill-opacity="1"></path></g></g><g><g><g><g><g transform="matrix(1,0,0,1,60.30000305175781,148.00500305175783)"><path transform="matrix(0.00833,0,0,-0.00833,0,0)" d="M9 1C24 -7 40 -11 52 -11C85 -11 124 18 155 65L231 182L242 113C255 28 278 -11 314 -11C336 -11 368 6 400 35L449 79L440 98C404 68 379 53 363 53C348 53 335 63 325 83C316 102 305 139 300 168L282 269L317 318C364 383 391 406 422 406C438 406 450 398 455 383L469 387L484 472C472 479 463 482 454 482C414 482 374 446 312 354L275 299L269 347C257 446 230 482 171 482C145 482 123 474 114 461L56 378L73 368C103 402 123 416 142 416C175 416 197 375 214 277L225 215L185 153C142 86 108 54 80 54C65 54 54 58 52 63L41 91L21 88C21 53 13 27 9 1Z" stroke="rgb(0,0,0)" stroke-opacity="1" stroke-width="8" fill="rgb(0,0,0)" fill-opacity="1"></path></g></g></g></g></g><g><g transform="matrix(1,0,0,1,65.16876220703125,145.49999084472657)"><path transform="matrix(0.0119,0,0,-0.0119,0,0)" d="" stroke="rgb(0,0,0)" stroke-opacity="1" stroke-width="8" fill="rgb(0,0,0)" fill-opacity="1"></path></g></g><g><g transform="matrix(1,0,0,1,71.70625305175781,145.49999084472657)"><path transform="matrix(0.0119,0,0,-0.0119,0,0)" d="M604 347L604 406L65 406L65 347ZM604 134L604 193L65 193L65 134Z" stroke="rgb(0,0,0)" stroke-opacity="1" stroke-width="8" fill="rgb(0,0,0)" fill-opacity="1"></path></g></g><g><g transform="matrix(1,0,0,1,83.22502136230469,145.49999084472657)"><path transform="matrix(0.0119,0,0,-0.0119,0,0)" d="M667 -3L667 27L615 30C560 33 550 44 550 96L550 700L309 598L316 548L466 614L466 96C466 44 455 33 401 30L345 27L345 -3C499 0 499 0 510 0C541 0 651 -3 667 -3Z" stroke="rgb(0,0,0)" stroke-opacity="1" stroke-width="8" fill="rgb(0,0,0)" fill-opacity="1"></path></g></g><g><g><g><g><text x="92.13127136230469" y="136.00001525878906" style="white-space:pre;stroke:none;fill:rgb(0,0,0);fill-opacity:1;font-size:10.5px;font-family:Arial, Helvetica, sans-serif;font-weight:400;font-style:normal;dominant-baseline:text-before-edge;text-decoration:none solid rgb(0, 0, 0);"> m/s</text></g></g></g></g></g></g><g><g><g><g transform="matrix(1,0,0,1,153.7937469482422,80.89374389648438)"><path transform="matrix(0.0119,0,0,-0.0119,0,0)" d="M237 -16C473 -16 572 316 576 504C578 618 546 702 419 702C159 702 72 412 69 199C67 80 101 -16 237 -16ZM401 676C536 676 506 491 485 381L169 381C194 485 272 676 401 676ZM253 13C102 13 147 261 163 349L479 349C454 237 396 13 253 13Z" stroke="rgb(0,0,0)" stroke-opacity="1" stroke-width="8" fill="rgb(0,0,0)" fill-opacity="1"></path></g></g></g></g><g><g><g><g transform="matrix(1,0,0,1,200.00001525878906,126.59999084472656)"><path transform="matrix(0.017,0,0,-0.017,0,0)" d="M9 1C24 -7 40 -11 52 -11C85 -11 124 18 155 65L231 182L242 113C255 28 278 -11 314 -11C336 -11 368 6 400 35L449 79L440 98C404 68 379 53 363 53C348 53 335 63 325 83C316 102 305 139 300 168L282 269L317 318C364 383 391 406 422 406C438 406 450 398 455 383L469 387L484 472C472 479 463 482 454 482C414 482 374 446 312 354L275 299L269 347C257 446 230 482 171 482C145 482 123 474 114 461L56 378L73 368C103 402 123 416 142 416C175 416 197 375 214 277L225 215L185 153C142 86 108 54 80 54C65 54 54 58 52 63L41 91L21 88C21 53 13 27 9 1Z" stroke="rgb(0,0,0)" stroke-opacity="1" stroke-width="8" fill="rgb(0,0,0)" fill-opacity="1"></path></g></g></g></g><g><g><g><g transform="matrix(1,0,0,1,150.00001525878906,16.600006103515625)"><path transform="matrix(0.017,0,0,-0.017,0,0)" d="M-7 -180C-8 -187 -8 -193 -8 -198C-8 -241 29 -276 74 -276C180 -276 290 -152 349 33L490 473L479 482C450 471 427 465 405 463L370 331C358 284 323 211 290 162C255 111 206 67 184 67C172 67 163 90 164 115L180 322C182 353 184 391 184 419C184 464 177 482 160 482C147 482 133 475 85 442L3 386L14 368L64 398C69 401 80 410 89 410C103 410 111 391 111 358C111 357 111 351 110 343L93 100L92 60C92 18 110 -11 135 -11C172 -11 256 74 331 187L282 16C231 -161 181 -234 111 -234C76 -234 49 -207 49 -172C49 -167 50 -159 51 -150L41 -146Z" stroke="rgb(0,0,0)" stroke-opacity="1" stroke-width="8" fill="rgb(0,0,0)" fill-opacity="1"></path></g></g></g></g><g><g><g><g transform="matrix(1,0,0,1,2,88.50000610351563)"><path transform="matrix(0.0119,0,0,-0.0119,0,0)" d="M251 722L239 733C187 707 151 698 79 691L75 670L123 670C147 670 157 663 157 648C157 645 157 640 154 622C143 567 70 182 55 132C42 82 36 52 36 31C36 6 47 -9 66 -9C92 -9 128 12 226 85L216 103L190 86C161 67 139 56 129 56C122 56 116 66 116 76C116 82 117 89 120 104Z" stroke="rgb(0,0,0)" stroke-opacity="1" stroke-width="8" fill="rgb(0,0,0)" fill-opacity="1"></path></g></g><g><g><g><g><g transform="matrix(1,0,0,1,5.65625,91.00500305175781)"><path transform="matrix(0.00833,0,0,-0.00833,0,0)" d="M-7 -180C-8 -187 -8 -193 -8 -198C-8 -241 29 -276 74 -276C180 -276 290 -152 349 33L490 473L479 482C450 471 427 465 405 463L370 331C358 284 323 211 290 162C255 111 206 67 184 67C172 67 163 90 164 115L180 322C182 353 184 391 184 419C184 464 177 482 160 482C147 482 133 475 85 442L3 386L14 368L64 398C69 401 80 410 89 410C103 410 111 391 111 358C111 357 111 351 110 343L93 100L92 60C92 18 110 -11 135 -11C172 -11 256 74 331 187L282 16C231 -161 181 -234 111 -234C76 -234 49 -207 49 -172C49 -167 50 -159 51 -150L41 -146Z" stroke="rgb(0,0,0)" stroke-opacity="1" stroke-width="8" fill="rgb(0,0,0)" fill-opacity="1"></path></g></g></g></g></g></g></g><g><g><g><g transform="matrix(1,0,0,1,174.00001525878906,106.50000610351563)"><path transform="matrix(0.0119,0,0,-0.0119,0,0)" d="M251 722L239 733C187 707 151 698 79 691L75 670L123 670C147 670 157 663 157 648C157 645 157 640 154 622C143 567 70 182 55 132C42 82 36 52 36 31C36 6 47 -9 66 -9C92 -9 128 12 226 85L216 103L190 86C161 67 139 56 129 56C122 56 116 66 116 76C116 82 117 89 120 104Z" stroke="rgb(0,0,0)" stroke-opacity="1" stroke-width="8" fill="rgb(0,0,0)" fill-opacity="1"></path></g></g></g></g></svg>
</svg>
