<svg xmlns="http://www.w3.org/2000/svg" xmlns:xlink="http://www.w3.org/1999/xlink" x="0" y="0" width="662" height="106.00000762939453" style="
        width:662px;
        height:106.00000762939453px;
        background: transparent;
        fill: none;
">
        
        
        <svg xmlns="http://www.w3.org/2000/svg" class="role-diagram-draw-area"><g class="shapes-region" style="stroke: black; fill: none;"><g class="arrow-line"><path class="connection real" stroke-dasharray="" d="  M120,21.5 L120,90" style="stroke: rgb(0, 0, 0); stroke-width: 1; fill: none; fill-opacity: 1;"/><g stroke="none" transform="matrix(6.123233995736766e-17,1,-1,6.123233995736766e-17,119.99999999999999,18.501190794236408)" style="stroke: none; stroke-width: 1; fill: rgb(0, 0, 0);" fill="#000"><path d=" M8.93,-4.29 L0,0 L8.93,4.29 Z"/></g></g><g class="arrow-line"><path class="connection real" stroke-dasharray="" d="  M120,90 L120,50" style="stroke: rgb(208, 2, 27); stroke-opacity: 1; stroke-width: 2; fill: none; fill-opacity: 1;"/></g><g class="arrow-line"><path class="connection real" stroke-dasharray="" d="  M120,69.8 L168,69.42" style="stroke: rgb(0, 0, 0); stroke-width: 1; fill: none; fill-opacity: 1;"/><g stroke="#000" transform="matrix(-0.9999677716500991,0.00802842831039634,-0.00802842831039634,-0.9999677716500991,170.00000000000003,69.40000915527342)" style="stroke: rgb(0, 0, 0); stroke-width: 1;"><path d=" M10.93,-3.29 Q4.96,-0.45 0,0 Q4.96,0.45 10.93,3.29"/></g></g><g class="arrow-line"><path class="connection real" stroke-dasharray="" d="  M120,50 L168,49.62" style="stroke: rgb(0, 0, 0); stroke-width: 1; fill: none; fill-opacity: 1;"/><g stroke="#000" transform="matrix(-0.9999677716500991,0.00802842831039634,-0.00802842831039634,-0.9999677716500991,170.00000000000003,49.60000610351562)" style="stroke: rgb(0, 0, 0); stroke-width: 1;"><path d=" M10.93,-3.29 Q4.96,-0.45 0,0 Q4.96,0.45 10.93,3.29"/></g></g><g class="arrow-line"><path class="connection real" stroke-dasharray="" d="  M120,89.6 L168,89.22" style="stroke: rgb(0, 0, 0); stroke-width: 1; fill: none; fill-opacity: 1;"/><g stroke="#000" transform="matrix(-0.9999677716500991,0.00802842831039634,-0.00802842831039634,-0.9999677716500991,170,89.20001220703124)" style="stroke: rgb(0, 0, 0); stroke-width: 1;"><path d=" M10.93,-3.29 Q4.96,-0.45 0,0 Q4.96,0.45 10.93,3.29"/></g></g><g class="arrow-line"><path class="connection real" stroke-dasharray="1.125 3.35" d="  M220,40" style="stroke: rgb(0, 0, 0); stroke-width: 1; fill: none; fill-opacity: 1;"/></g><g class="grouped-shape"><g class="composite-shape"><path class="real" d=" M50,50.5 C50,50.22 50.22,50 50.5,50 C50.78,50 51,50.22 51,50.5 C51,50.78 50.78,51 50.5,51 C50.22,51 50,50.78 50,50.5 Z" style="stroke-width: 1; stroke: rgb(0, 0, 0); fill: none; fill-opacity: 1;"/></g><g class="composite-shape"><path class="real" d=" M60,50.5 C60,50.22 60.22,50 60.5,50 C60.78,50 61,50.22 61,50.5 C61,50.78 60.78,51 60.5,51 C60.22,51 60,50.78 60,50.5 Z" style="stroke-width: 1; stroke: rgb(0, 0, 0); fill: none; fill-opacity: 1;"/></g><g class="composite-shape"><path class="real" d=" M70,50.5 C70,50.22 70.22,50 70.5,50 C70.78,50 71,50.22 71,50.5 C71,50.78 70.78,51 70.5,51 C70.22,51 70,50.78 70,50.5 Z" style="stroke-width: 1; stroke: rgb(0, 0, 0); fill: none; fill-opacity: 1;"/></g><g class="composite-shape"><path class="real" d=" M80,50.5 C80,50.22 80.22,50 80.5,50 C80.78,50 81,50.22 81,50.5 C81,50.78 80.78,51 80.5,51 C80.22,51 80,50.78 80,50.5 Z" style="stroke-width: 1; stroke: rgb(0, 0, 0); fill: none; fill-opacity: 1;"/></g></g><g class="grouped-shape"><g class="composite-shape"><path class="real" d=" M89,50.5 C89,50.22 89.22,50 89.5,50 C89.78,50 90,50.22 90,50.5 C90,50.78 89.78,51 89.5,51 C89.22,51 89,50.78 89,50.5 Z" style="stroke-width: 1; stroke: rgb(0, 0, 0); fill: none; fill-opacity: 1;"/></g><g class="composite-shape"><path class="real" d=" M99,50.5 C99,50.22 99.22,50 99.5,50 C99.78,50 100,50.22 100,50.5 C100,50.78 99.78,51 99.5,51 C99.22,51 99,50.78 99,50.5 Z" style="stroke-width: 1; stroke: rgb(0, 0, 0); fill: none; fill-opacity: 1;"/></g><g class="composite-shape"><path class="real" d=" M109,50.5 C109,50.22 109.22,50 109.5,50 C109.78,50 110,50.22 110,50.5 C110,50.78 109.78,51 109.5,51 C109.22,51 109,50.78 109,50.5 Z" style="stroke-width: 1; stroke: rgb(0, 0, 0); fill: none; fill-opacity: 1;"/></g><g class="composite-shape"><path class="real" d=" M119,50.5 C119,50.22 119.22,50 119.5,50 C119.78,50 120,50.22 120,50.5 C120,50.78 119.78,51 119.5,51 C119.22,51 119,50.78 119,50.5 Z" style="stroke-width: 1; stroke: rgb(0, 0, 0); fill: none; fill-opacity: 1;"/></g></g><g class="grouped-shape"><g class="composite-shape"><path class="real" d=" M45,50.5 C45,50.22 45.22,50 45.5,50 C45.78,50 46,50.22 46,50.5 C46,50.78 45.78,51 45.5,51 C45.22,51 45,50.78 45,50.5 Z" style="stroke-width: 1; stroke: rgb(0, 0, 0); fill: none; fill-opacity: 1;"/></g><g class="composite-shape"><path class="real" d=" M55,50.5 C55,50.22 55.22,50 55.5,50 C55.78,50 56,50.22 56,50.5 C56,50.78 55.78,51 55.5,51 C55.22,51 55,50.78 55,50.5 Z" style="stroke-width: 1; stroke: rgb(0, 0, 0); fill: none; fill-opacity: 1;"/></g><g class="composite-shape"><path class="real" d=" M65,50.5 C65,50.22 65.22,50 65.5,50 C65.78,50 66,50.22 66,50.5 C66,50.78 65.78,51 65.5,51 C65.22,51 65,50.78 65,50.5 Z" style="stroke-width: 1; stroke: rgb(0, 0, 0); fill: none; fill-opacity: 1;"/></g><g class="composite-shape"><path class="real" d=" M75,50.5 C75,50.22 75.22,50 75.5,50 C75.78,50 76,50.22 76,50.5 C76,50.78 75.78,51 75.5,51 C75.22,51 75,50.78 75,50.5 Z" style="stroke-width: 1; stroke: rgb(0, 0, 0); fill: none; fill-opacity: 1;"/></g></g><g class="grouped-shape"><g class="composite-shape"><path class="real" d=" M84,50.5 C84,50.22 84.22,50 84.5,50 C84.78,50 85,50.22 85,50.5 C85,50.78 84.78,51 84.5,51 C84.22,51 84,50.78 84,50.5 Z" style="stroke-width: 1; stroke: rgb(0, 0, 0); fill: none; fill-opacity: 1;"/></g><g class="composite-shape"><path class="real" d=" M94,50.5 C94,50.22 94.22,50 94.5,50 C94.78,50 95,50.22 95,50.5 C95,50.78 94.78,51 94.5,51 C94.22,51 94,50.78 94,50.5 Z" style="stroke-width: 1; stroke: rgb(0, 0, 0); fill: none; fill-opacity: 1;"/></g><g class="composite-shape"><path class="real" d=" M104,50.5 C104,50.22 104.22,50 104.5,50 C104.78,50 105,50.22 105,50.5 C105,50.78 104.78,51 104.5,51 C104.22,51 104,50.78 104,50.5 Z" style="stroke-width: 1; stroke: rgb(0, 0, 0); fill: none; fill-opacity: 1;"/></g><g class="composite-shape"><path class="real" d=" M114,50.5 C114,50.22 114.22,50 114.5,50 C114.78,50 115,50.22 115,50.5 C115,50.78 114.78,51 114.5,51 C114.22,51 114,50.78 114,50.5 Z" style="stroke-width: 1; stroke: rgb(0, 0, 0); fill: none; fill-opacity: 1;"/></g></g><g class="grouped-shape"><g class="composite-shape"><path class="real" d=" M45,69.5 C45,69.22 45.22,69 45.5,69 C45.78,69 46,69.22 46,69.5 C46,69.78 45.78,70 45.5,70 C45.22,70 45,69.78 45,69.5 Z" style="stroke-width: 1; stroke: rgb(0, 0, 0); fill: none; fill-opacity: 1;"/></g><g class="composite-shape"><path class="real" d=" M55,69.5 C55,69.22 55.22,69 55.5,69 C55.78,69 56,69.22 56,69.5 C56,69.78 55.78,70 55.5,70 C55.22,70 55,69.78 55,69.5 Z" style="stroke-width: 1; stroke: rgb(0, 0, 0); fill: none; fill-opacity: 1;"/></g><g class="composite-shape"><path class="real" d=" M65,69.5 C65,69.22 65.22,69 65.5,69 C65.78,69 66,69.22 66,69.5 C66,69.78 65.78,70 65.5,70 C65.22,70 65,69.78 65,69.5 Z" style="stroke-width: 1; stroke: rgb(0, 0, 0); fill: none; fill-opacity: 1;"/></g><g class="composite-shape"><path class="real" d=" M75,69.5 C75,69.22 75.22,69 75.5,69 C75.78,69 76,69.22 76,69.5 C76,69.78 75.78,70 75.5,70 C75.22,70 75,69.78 75,69.5 Z" style="stroke-width: 1; stroke: rgb(0, 0, 0); fill: none; fill-opacity: 1;"/></g></g><g class="grouped-shape"><g class="composite-shape"><path class="real" d=" M84,69.5 C84,69.22 84.22,69 84.5,69 C84.78,69 85,69.22 85,69.5 C85,69.78 84.78,70 84.5,70 C84.22,70 84,69.78 84,69.5 Z" style="stroke-width: 1; stroke: rgb(0, 0, 0); fill: none; fill-opacity: 1;"/></g><g class="composite-shape"><path class="real" d=" M94,69.5 C94,69.22 94.22,69 94.5,69 C94.78,69 95,69.22 95,69.5 C95,69.78 94.78,70 94.5,70 C94.22,70 94,69.78 94,69.5 Z" style="stroke-width: 1; stroke: rgb(0, 0, 0); fill: none; fill-opacity: 1;"/></g><g class="composite-shape"><path class="real" d=" M104,69.5 C104,69.22 104.22,69 104.5,69 C104.78,69 105,69.22 105,69.5 C105,69.78 104.78,70 104.5,70 C104.22,70 104,69.78 104,69.5 Z" style="stroke-width: 1; stroke: rgb(0, 0, 0); fill: none; fill-opacity: 1;"/></g><g class="composite-shape"><path class="real" d=" M114,69.5 C114,69.22 114.22,69 114.5,69 C114.78,69 115,69.22 115,69.5 C115,69.78 114.78,70 114.5,70 C114.22,70 114,69.78 114,69.5 Z" style="stroke-width: 1; stroke: rgb(0, 0, 0); fill: none; fill-opacity: 1;"/></g></g><g/></g><g/><g/><g/></svg>
        <svg xmlns="http://www.w3.org/2000/svg" xmlns:xlink="http://www.w3.org/1999/xlink" width="660" height="104.00000762939453" style="width:660px;height:104.00000762939453px;font-family:Asana-Math, Asana;background:transparent;"><g><g><g><g transform="matrix(1,0,0,1,179.59820556640625,68.3285888671875)"><path transform="matrix(0.0119,0,0,-0.0119,0,0)" d="M166 420C187 420 203 421 229 424C118 304 76 221 76 121C76 44 122 -11 186 -11C324 -11 477 236 477 384C477 441 451 482 415 482C402 482 390 478 382 470L332 423L343 404C352 410 361 413 370 413C397 413 413 390 413 350C413 202 316 39 228 39C179 39 148 81 148 146C148 251 187 342 285 464L275 482C255 473 242 470 214 470C186 470 144 472 115 475L103 476C97 477 92 477 91 477C79 477 70 475 59 470C45 443 34 407 21 352L43 352L60 394C67 411 87 422 111 422C144 422 128 420 166 420Z" stroke="rgb(0,0,0)" stroke-opacity="1" stroke-width="8" fill="rgb(0,0,0)" fill-opacity="1"></path></g></g><g><g><g><g><g transform="matrix(1,0,0,1,185.8839111328125,70.99964721679687)"><path transform="matrix(0.00833,0,0,-0.00833,0,0)" d="M9 1C24 -7 40 -11 52 -11C85 -11 124 18 155 65L231 182L242 113C255 28 278 -11 314 -11C336 -11 368 6 400 35L449 79L440 98C404 68 379 53 363 53C348 53 335 63 325 83C316 102 305 139 300 168L282 269L317 318C364 383 391 406 422 406C438 406 450 398 455 383L469 387L484 472C472 479 463 482 454 482C414 482 374 446 312 354L275 299L269 347C257 446 230 482 171 482C145 482 123 474 114 461L56 378L73 368C103 402 123 416 142 416C175 416 197 375 214 277L225 215L185 153C142 86 108 54 80 54C65 54 54 58 52 63L41 91L21 88C21 53 13 27 9 1Z" stroke="rgb(0,0,0)" stroke-opacity="1" stroke-width="8" fill="rgb(0,0,0)" fill-opacity="1"></path></g></g></g></g></g></g></g><g><g><g><g transform="matrix(1,0,0,1,125.59820556640625,15.0285888671875)"><path transform="matrix(0.0136,0,0,-0.0136,0,0)" d="M-7 -180C-8 -187 -8 -193 -8 -198C-8 -241 29 -276 74 -276C180 -276 290 -152 349 33L490 473L479 482C450 471 427 465 405 463L370 331C358 284 323 211 290 162C255 111 206 67 184 67C172 67 163 90 164 115L180 322C182 353 184 391 184 419C184 464 177 482 160 482C147 482 133 475 85 442L3 386L14 368L64 398C69 401 80 410 89 410C103 410 111 391 111 358C111 357 111 351 110 343L93 100L92 60C92 18 110 -11 135 -11C172 -11 256 74 331 187L282 16C231 -161 181 -234 111 -234C76 -234 49 -207 49 -172C49 -167 50 -159 51 -150L41 -146Z" stroke="rgb(0,0,0)" stroke-opacity="1" stroke-width="8" fill="rgb(0,0,0)" fill-opacity="1"></path></g></g></g></g></svg>
</svg>
