<svg xmlns="http://www.w3.org/2000/svg" xmlns:xlink="http://www.w3.org/1999/xlink" x="0" y="0" width="662" height="178.96875" style="
        width:662px;
        height:178.96875px;
        background: transparent;
        fill: none;
">
        
        
        <svg xmlns="http://www.w3.org/2000/svg" class="role-diagram-draw-area"><g class="shapes-region" style="stroke: black; fill: none;"><g class="arrow-line"><path class="connection real" stroke-dasharray="" d="  M11,29 L81,169" style="stroke: rgb(0, 0, 0); stroke-width: 2; fill: none; fill-opacity: 1;"/></g><g class="arrow-line"><path class="connection real" stroke-dasharray="" d="  M46,99 L146.54,41" style="stroke: rgb(0, 0, 0); stroke-width: 2; fill: none; fill-opacity: 1;"/><g stroke="none" fill="#000" transform="matrix(-0.8661998839448086,0.49969766965035967,-0.49969766965035967,-0.8661998839448086,150,39)" style="stroke: none; fill: rgb(0, 0, 0); stroke-width: 2;"><path d=" M11.61,-5.58 L0,0 L11.61,5.58 Z"/></g></g><g class="arrow-line"><path class="connection real" stroke-dasharray="1.125 3.35" d="  M46,99 L111,99" style="stroke: rgb(0, 0, 0); stroke-width: 1; fill: none; fill-opacity: 1;"/></g><g class="arrow-line"><path class="connection real" stroke-dasharray="1.125 3.35" d="  M11,29 L11,79" style="stroke: rgb(0, 0, 0); stroke-width: 1; fill: none; fill-opacity: 1;"/></g><g class="arrow-line"><path class="connection real" stroke-dasharray="" d="  M46,99 L146,99" style="stroke: rgb(0, 0, 0); stroke-width: 2; fill: none; fill-opacity: 1;"/><g stroke="none" fill="#000" transform="matrix(-1,1.2246467991473532e-16,-1.2246467991473532e-16,-1,150,99.00000000000001)" style="stroke: none; fill: rgb(0, 0, 0); stroke-width: 2;"><path d=" M11.61,-5.58 L0,0 L11.61,5.58 Z"/></g></g><g class="composite-shape"><path class="real" d=" M51.24,83.92 L56.16,94.08 L46,99 L41.08,88.84 Z" style="stroke-width: 1; stroke: rgb(0, 0, 0); fill: none; fill-opacity: 1;"/></g><g class="arrow-line"><path class="connection real" stroke-dasharray="" d="  M150,42 L150,99" style="stroke: rgb(0, 0, 0); stroke-width: 1; fill: none; fill-opacity: 1;"/><g stroke="none" fill="#000" transform="matrix(6.123233995736766e-17,1,-1,6.123233995736766e-17,150,39)" style="stroke: none; fill: rgb(0, 0, 0); stroke-width: 1;"><path d=" M8.93,-4.29 L0,0 L8.93,4.29 Z"/></g></g><g class="composite-shape"><path class="real" d=" M138.91,87.91 L150,87.91 L150,99 L138.91,99 Z" style="stroke-width: 1; stroke: rgb(0, 0, 0); fill: none; fill-opacity: 1;"/></g><g class="arrow-line"><path class="connection real" stroke-dasharray="" d="  M11,29 L10,170" style="stroke: rgb(74, 144, 226); stroke-opacity: 1; stroke-width: 2; fill: none; fill-opacity: 1;"/></g><g class="arrow-line"><path class="connection real" stroke-dasharray="7.5 6" d="  M11,29 L10,170" style="stroke: rgb(0, 0, 0); stroke-width: 2; fill: none; fill-opacity: 1;"/></g><g class="arrow-line"><path class="connection real" stroke-dasharray="" d="  M10,170 L27,170" style="stroke: rgb(0, 0, 0); stroke-width: 1; fill: none; fill-opacity: 1;"/><g stroke="none" fill="#000" transform="matrix(-1,1.2246467991473532e-16,-1.2246467991473532e-16,-1,30,170)" style="stroke: none; fill: rgb(0, 0, 0); stroke-width: 1;"><path d=" M5.36,-2.57 L0,0 L5.36,2.57 Z"/></g></g><g class="arrow-line"><path class="connection real" stroke-dasharray="" d="  M10,170 L10,153.03" style="stroke: rgb(0, 0, 0); stroke-width: 1; fill: none; fill-opacity: 1;"/><g stroke="none" fill="#000" transform="matrix(3.061616997868383e-16,1,-1,3.061616997868383e-16,10,150.03125)" style="stroke: none; fill: rgb(0, 0, 0); stroke-width: 1;"><path d=" M5.36,-2.57 L0,0 L5.36,2.57 Z"/></g></g><g/></g><g/><g/><g/></svg>
        <svg xmlns="http://www.w3.org/2000/svg" xmlns:xlink="http://www.w3.org/1999/xlink" width="660" height="176.96875" style="width:660px;height:176.96875px;font-family:Asana-Math, Asana;background:transparent;"><g><g><g><g transform="matrix(1,0,0,1,14,68.26667175292968)"><path transform="matrix(0.0136,0,0,-0.0136,0,0)" d="M522 473C432 473 333 398 296 322C266 261 244 86 234 17C141 41 110 116 112 206C114 343 192 432 321 468L321 485C172 462 32 363 29 201C27 73 113 11 232 -6C220 -94 199 -190 180 -277C203 -266 235 -258 257 -251L290 -4C476 0 639 142 643 332C645 412 609 473 522 473ZM485 440C555 440 573 375 572 317C569 156 451 32 291 15L322 178C339 267 364 440 485 440Z" stroke="rgb(0,0,0)" stroke-opacity="1" stroke-width="8" fill="rgb(0,0,0)" fill-opacity="1"></path></g></g></g></g><g><g><g><g transform="matrix(1,0,0,1,77,92.26667175292968)"><path transform="matrix(0.0136,0,0,-0.0136,0,0)" d="M522 473C432 473 333 398 296 322C266 261 244 86 234 17C141 41 110 116 112 206C114 343 192 432 321 468L321 485C172 462 32 363 29 201C27 73 113 11 232 -6C220 -94 199 -190 180 -277C203 -266 235 -258 257 -251L290 -4C476 0 639 142 643 332C645 412 609 473 522 473ZM485 440C555 440 573 375 572 317C569 156 451 32 291 15L322 178C339 267 364 440 485 440Z" stroke="rgb(0,0,0)" stroke-opacity="1" stroke-width="8" fill="rgb(0,0,0)" fill-opacity="1"></path></g></g></g></g><g><g><g><g transform="matrix(1,0,0,1,88,58)"><path transform="matrix(0.017,0,0,-0.017,0,0)" d="M179.50274 -172L179.50274 713L120.50274 713L120.50274 -172Z" stroke="rgb(0,0,0)" stroke-opacity="1" stroke-width="8" fill="rgb(0,0,0)" fill-opacity="1"></path></g></g><g><g><g><g><g transform="matrix(1,0,0,1,93.10417175292969,58)"><path transform="matrix(0.017,0,0,-0.017,0,0)" d="M410 -3C471 0 472 0 489 0C503 0 503 0 572 -3L572 27L531 30C497 32 494 38 494 102L494 295C494 412 439 469 327 469C290 469 269 462 248 444L172 378L172 465L163 469C112 448 60 434 7 428L7 400L44 400C84 400 88 393 88 327L88 102C88 39 85 32 51 30L6 27L6 -3C74 -1 101 0 130 0C159 0 186 -1 254 -3L254 27L209 30C175 32 172 39 172 102L172 314C172 359 238 408 299 408C366 408 410 358 410 281Z" stroke="rgb(0,0,0)" stroke-opacity="1" stroke-width="24" fill="rgb(0,0,0)" fill-opacity="1"></path></g></g></g></g><svg x="93.10417175292969" overflow="visible" y="39" height="9" width="9.880208969116211"><polyline points="0.00,8.06 4.94,4.76 9.88,8.06" style="fill:none;fill-opacity:1;stroke-width:1px;stroke:rgb(0,0,0);stroke-opacity:1;"></polyline></svg></g><g><g transform="matrix(1,0,0,1,102.984375,58)"><path transform="matrix(0.017,0,0,-0.017,0,0)" d="M179.50274 -172L179.50274 713L120.50274 713L120.50274 -172Z" stroke="rgb(0,0,0)" stroke-opacity="1" stroke-width="8" fill="rgb(0,0,0)" fill-opacity="1"></path></g></g></g></g><g><g><g><g transform="matrix(1,0,0,1,161,78)"><path transform="matrix(0.017,0,0,-0.017,0,0)" d="M179.50274 -172L179.50274 713L120.50274 713L120.50274 -172Z" stroke="rgb(0,0,0)" stroke-opacity="1" stroke-width="8" fill="rgb(0,0,0)" fill-opacity="1"></path></g></g><g><g><g><g><g transform="matrix(1,0,0,1,166.10418701171875,78)"><path transform="matrix(0.017,0,0,-0.017,0,0)" d="M410 -3C471 0 472 0 489 0C503 0 503 0 572 -3L572 27L531 30C497 32 494 38 494 102L494 295C494 412 439 469 327 469C290 469 269 462 248 444L172 378L172 465L163 469C112 448 60 434 7 428L7 400L44 400C84 400 88 393 88 327L88 102C88 39 85 32 51 30L6 27L6 -3C74 -1 101 0 130 0C159 0 186 -1 254 -3L254 27L209 30C175 32 172 39 172 102L172 314C172 359 238 408 299 408C366 408 410 358 410 281Z" stroke="rgb(0,0,0)" stroke-opacity="1" stroke-width="24" fill="rgb(0,0,0)" fill-opacity="1"></path></g></g></g></g><svg x="166.10418701171875" overflow="visible" y="59" height="9" width="9.880208969116211"><polyline points="0.00,8.06 4.94,4.76 9.88,8.06" style="fill:none;fill-opacity:1;stroke-width:1px;stroke:rgb(0,0,0);stroke-opacity:1;"></polyline></svg></g><g><g transform="matrix(1,0,0,1,175.984375,78)"><path transform="matrix(0.017,0,0,-0.017,0,0)" d="M179.50274 -172L179.50274 713L120.50274 713L120.50274 -172Z" stroke="rgb(0,0,0)" stroke-opacity="1" stroke-width="8" fill="rgb(0,0,0)" fill-opacity="1"></path></g></g><g><g><g transform="matrix(1,0,0,1,181.08856201171875,78)"><path transform="matrix(0.017,0,0,-0.017,0,0)" d="M41 143C41 74 38 44 30 4C82 -13 121 -20 167 -20C298 -20 391 50 391 148C391 321 107 228 107 358C107 408 142 436 203 436C270 436 321 401 321 354L321 331L349 331C350 389 351 413 354 444C301 462 265 469 224 469C108 469 37 414 37 324C37 276 59 242 105 221C223 169 317 195 317 109C317 55 267 17 196 17C123 17 71 52 71 102L71 143ZM611 465L602 469C551 448 499 434 446 428L446 400L483 400C523 400 527 393 527 327L527 102C527 39 524 32 490 30L444 27L444 -3C544 0 544 0 569 0C594 0 594 0 694 -3L694 27L648 30C614 32 611 39 611 102ZM565 687C535 687 509 661 509 631C509 602 535 576 564 576C593 576 620 602 620 631C620 659 593 687 565 687ZM1123 -3C1184 0 1185 0 1202 0C1216 0 1216 0 1285 -3L1285 27L1244 30C1210 32 1207 38 1207 102L1207 295C1207 412 1152 469 1040 469C1003 469 982 462 961 444L885 378L885 465L876 469C825 448 773 434 720 428L720 400L757 400C797 400 801 393 801 327L801 102C801 39 798 32 764 30L719 27L719 -3C787 -1 814 0 843 0C872 0 899 -1 967 -3L967 27L922 30C888 32 885 39 885 102L885 314C885 359 951 408 1012 408C1079 408 1123 358 1123 281Z" stroke="rgb(0,0,0)" stroke-opacity="1" stroke-width="8" fill="rgb(0,0,0)" fill-opacity="1"></path></g></g></g><g><g transform="matrix(1,0,0,1,206.484375,78)"><path transform="matrix(0.017,0,0,-0.017,0,0)" d="M522 473C432 473 333 398 296 322C266 261 244 86 234 17C141 41 110 116 112 206C114 343 192 432 321 468L321 485C172 462 32 363 29 201C27 73 113 11 232 -6C220 -94 199 -190 180 -277C203 -266 235 -258 257 -251L290 -4C476 0 639 142 643 332C645 412 609 473 522 473ZM485 440C555 440 573 375 572 317C569 156 451 32 291 15L322 178C339 267 364 440 485 440Z" stroke="rgb(0,0,0)" stroke-opacity="1" stroke-width="8" fill="rgb(0,0,0)" fill-opacity="1"></path></g></g><g><g transform="matrix(1,0,0,1,223.16146850585938,78)"><path transform="matrix(0.017,0,0,-0.017,0,0)" d="M604 347L604 406L65 406L65 347ZM604 134L604 193L65 193L65 134Z" stroke="rgb(0,0,0)" stroke-opacity="1" stroke-width="8" fill="rgb(0,0,0)" fill-opacity="1"></path></g></g><g><g><g transform="matrix(1,0,0,1,239.61981201171875,78)"><path transform="matrix(0.017,0,0,-0.017,0,0)" d="M41 143C41 74 38 44 30 4C82 -13 121 -20 167 -20C298 -20 391 50 391 148C391 321 107 228 107 358C107 408 142 436 203 436C270 436 321 401 321 354L321 331L349 331C350 389 351 413 354 444C301 462 265 469 224 469C108 469 37 414 37 324C37 276 59 242 105 221C223 169 317 195 317 109C317 55 267 17 196 17C123 17 71 52 71 102L71 143ZM611 465L602 469C551 448 499 434 446 428L446 400L483 400C523 400 527 393 527 327L527 102C527 39 524 32 490 30L444 27L444 -3C544 0 544 0 569 0C594 0 594 0 694 -3L694 27L648 30C614 32 611 39 611 102ZM565 687C535 687 509 661 509 631C509 602 535 576 564 576C593 576 620 602 620 631C620 659 593 687 565 687ZM1123 -3C1184 0 1185 0 1202 0C1216 0 1216 0 1285 -3L1285 27L1244 30C1210 32 1207 38 1207 102L1207 295C1207 412 1152 469 1040 469C1003 469 982 462 961 444L885 378L885 465L876 469C825 448 773 434 720 428L720 400L757 400C797 400 801 393 801 327L801 102C801 39 798 32 764 30L719 27L719 -3C787 -1 814 0 843 0C872 0 899 -1 967 -3L967 27L922 30C888 32 885 39 885 102L885 314C885 359 951 408 1012 408C1079 408 1123 358 1123 281Z" stroke="rgb(0,0,0)" stroke-opacity="1" stroke-width="8" fill="rgb(0,0,0)" fill-opacity="1"></path></g></g></g><g><g transform="matrix(1,0,0,1,265.015625,78)"><path transform="matrix(0.017,0,0,-0.017,0,0)" d="M522 473C432 473 333 398 296 322C266 261 244 86 234 17C141 41 110 116 112 206C114 343 192 432 321 468L321 485C172 462 32 363 29 201C27 73 113 11 232 -6C220 -94 199 -190 180 -277C203 -266 235 -258 257 -251L290 -4C476 0 639 142 643 332C645 412 609 473 522 473ZM485 440C555 440 573 375 572 317C569 156 451 32 291 15L322 178C339 267 364 440 485 440Z" stroke="rgb(0,0,0)" stroke-opacity="1" stroke-width="8" fill="rgb(0,0,0)" fill-opacity="1"></path></g></g></g></g><g><g><g><g transform="matrix(1,0,0,1,82,127)"><path transform="matrix(0.017,0,0,-0.017,0,0)" d="M179.50274 -172L179.50274 713L120.50274 713L120.50274 -172Z" stroke="rgb(0,0,0)" stroke-opacity="1" stroke-width="8" fill="rgb(0,0,0)" fill-opacity="1"></path></g></g><g><g><g><g><g transform="matrix(1,0,0,1,87.10417175292969,127)"><path transform="matrix(0.017,0,0,-0.017,0,0)" d="M410 -3C471 0 472 0 489 0C503 0 503 0 572 -3L572 27L531 30C497 32 494 38 494 102L494 295C494 412 439 469 327 469C290 469 269 462 248 444L172 378L172 465L163 469C112 448 60 434 7 428L7 400L44 400C84 400 88 393 88 327L88 102C88 39 85 32 51 30L6 27L6 -3C74 -1 101 0 130 0C159 0 186 -1 254 -3L254 27L209 30C175 32 172 39 172 102L172 314C172 359 238 408 299 408C366 408 410 358 410 281Z" stroke="rgb(0,0,0)" stroke-opacity="1" stroke-width="24" fill="rgb(0,0,0)" fill-opacity="1"></path></g></g></g></g><svg x="87.10417175292969" overflow="visible" y="108" height="9" width="9.880208969116211"><polyline points="0.00,8.06 4.94,4.76 9.88,8.06" style="fill:none;fill-opacity:1;stroke-width:1px;stroke:rgb(0,0,0);stroke-opacity:1;"></polyline></svg></g><g><g transform="matrix(1,0,0,1,96.984375,127)"><path transform="matrix(0.017,0,0,-0.017,0,0)" d="M179.50274 -172L179.50274 713L120.50274 713L120.50274 -172Z" stroke="rgb(0,0,0)" stroke-opacity="1" stroke-width="8" fill="rgb(0,0,0)" fill-opacity="1"></path></g></g><g><g><g transform="matrix(1,0,0,1,102.08854675292969,127)"><path transform="matrix(0.017,0,0,-0.017,0,0)" d="M399 311C399 357 404 398 413 434C381 478 338 497 293 497C169 497 25 361 25 224C25 219 26 215 26 210C26 75 121 -20 255 -20C307 -20 382 -1 392 14L413 46L403 61C366 41 334 32 298 32C187 32 114 118 114 250C114 357 164 417 254 417C298 417 346 397 364 372L371 311ZM722 469C576 469 475 366 475 217C475 76 564 -20 693 -20C847 -20 957 87 957 237C957 372 859 469 722 469ZM704 436C796 436 864 336 864 200C864 85 813 13 732 13C634 13 568 109 568 251C568 371 616 436 704 436ZM1029 143C1029 74 1026 44 1018 4C1070 -13 1109 -20 1155 -20C1286 -20 1379 50 1379 148C1379 321 1095 228 1095 358C1095 408 1130 436 1191 436C1258 436 1309 401 1309 354L1309 331L1337 331C1338 389 1339 413 1342 444C1289 462 1253 469 1212 469C1096 469 1025 414 1025 324C1025 276 1047 242 1093 221C1211 169 1305 195 1305 109C1305 55 1255 17 1184 17C1111 17 1059 52 1059 102L1059 143Z" stroke="rgb(0,0,0)" stroke-opacity="1" stroke-width="8" fill="rgb(0,0,0)" fill-opacity="1"></path></g></g></g><g><g transform="matrix(1,0,0,1,129.47396850585938,127)"><path transform="matrix(0.017,0,0,-0.017,0,0)" d="M522 473C432 473 333 398 296 322C266 261 244 86 234 17C141 41 110 116 112 206C114 343 192 432 321 468L321 485C172 462 32 363 29 201C27 73 113 11 232 -6C220 -94 199 -190 180 -277C203 -266 235 -258 257 -251L290 -4C476 0 639 142 643 332C645 412 609 473 522 473ZM485 440C555 440 573 375 572 317C569 156 451 32 291 15L322 178C339 267 364 440 485 440Z" stroke="rgb(0,0,0)" stroke-opacity="1" stroke-width="8" fill="rgb(0,0,0)" fill-opacity="1"></path></g></g><g><g transform="matrix(1,0,0,1,146.15106201171875,127)"><path transform="matrix(0.017,0,0,-0.017,0,0)" d="M604 347L604 406L65 406L65 347ZM604 134L604 193L65 193L65 134Z" stroke="rgb(0,0,0)" stroke-opacity="1" stroke-width="8" fill="rgb(0,0,0)" fill-opacity="1"></path></g></g><g><g><g transform="matrix(1,0,0,1,162.609375,127)"><path transform="matrix(0.017,0,0,-0.017,0,0)" d="M399 311C399 357 404 398 413 434C381 478 338 497 293 497C169 497 25 361 25 224C25 219 26 215 26 210C26 75 121 -20 255 -20C307 -20 382 -1 392 14L413 46L403 61C366 41 334 32 298 32C187 32 114 118 114 250C114 357 164 417 254 417C298 417 346 397 364 372L371 311ZM722 469C576 469 475 366 475 217C475 76 564 -20 693 -20C847 -20 957 87 957 237C957 372 859 469 722 469ZM704 436C796 436 864 336 864 200C864 85 813 13 732 13C634 13 568 109 568 251C568 371 616 436 704 436ZM1029 143C1029 74 1026 44 1018 4C1070 -13 1109 -20 1155 -20C1286 -20 1379 50 1379 148C1379 321 1095 228 1095 358C1095 408 1130 436 1191 436C1258 436 1309 401 1309 354L1309 331L1337 331C1338 389 1339 413 1342 444C1289 462 1253 469 1212 469C1096 469 1025 414 1025 324C1025 276 1047 242 1093 221C1211 169 1305 195 1305 109C1305 55 1255 17 1184 17C1111 17 1059 52 1059 102L1059 143Z" stroke="rgb(0,0,0)" stroke-opacity="1" stroke-width="8" fill="rgb(0,0,0)" fill-opacity="1"></path></g></g></g><g><g transform="matrix(1,0,0,1,189.99481201171875,127)"><path transform="matrix(0.017,0,0,-0.017,0,0)" d="M522 473C432 473 333 398 296 322C266 261 244 86 234 17C141 41 110 116 112 206C114 343 192 432 321 468L321 485C172 462 32 363 29 201C27 73 113 11 232 -6C220 -94 199 -190 180 -277C203 -266 235 -258 257 -251L290 -4C476 0 639 142 643 332C645 412 609 473 522 473ZM485 440C555 440 573 375 572 317C569 156 451 32 291 15L322 178C339 267 364 440 485 440Z" stroke="rgb(0,0,0)" stroke-opacity="1" stroke-width="8" fill="rgb(0,0,0)" fill-opacity="1"></path></g></g></g></g><g><g><g><g><g><g><g transform="matrix(1,0,0,1,46,19)"><path transform="matrix(0.017,0,0,-0.017,0,0)" d="M410 -3C471 0 472 0 489 0C503 0 503 0 572 -3L572 27L531 30C497 32 494 38 494 102L494 295C494 412 439 469 327 469C290 469 269 462 248 444L172 378L172 465L163 469C112 448 60 434 7 428L7 400L44 400C84 400 88 393 88 327L88 102C88 39 85 32 51 30L6 27L6 -3C74 -1 101 0 130 0C159 0 186 -1 254 -3L254 27L209 30C175 32 172 39 172 102L172 314C172 359 238 408 299 408C366 408 410 358 410 281Z" stroke="rgb(0,0,0)" stroke-opacity="1" stroke-width="24" fill="rgb(0,0,0)" fill-opacity="1"></path></g></g></g></g><svg x="46" overflow="visible" y="0" height="9" width="9.880208969116211"><polyline points="0.00,8.06 4.94,4.76 9.88,8.06" style="fill:none;fill-opacity:1;stroke-width:1px;stroke:rgb(0,0,0);stroke-opacity:1;"></polyline></svg></g><g><g transform="matrix(1,0,0,1,60.97917175292969,19)"><path transform="matrix(0.017,0,0,-0.017,0,0)" d="M604 347L604 406L65 406L65 347ZM604 134L604 193L65 193L65 134Z" stroke="rgb(0,0,0)" stroke-opacity="1" stroke-width="8" fill="rgb(0,0,0)" fill-opacity="1"></path></g></g><g><g><g transform="matrix(1,0,0,1,77.4375,19)"><path transform="matrix(0.017,0,0,-0.017,0,0)" d="M399 311C399 357 404 398 413 434C381 478 338 497 293 497C169 497 25 361 25 224C25 219 26 215 26 210C26 75 121 -20 255 -20C307 -20 382 -1 392 14L413 46L403 61C366 41 334 32 298 32C187 32 114 118 114 250C114 357 164 417 254 417C298 417 346 397 364 372L371 311ZM722 469C576 469 475 366 475 217C475 76 564 -20 693 -20C847 -20 957 87 957 237C957 372 859 469 722 469ZM704 436C796 436 864 336 864 200C864 85 813 13 732 13C634 13 568 109 568 251C568 371 616 436 704 436ZM1029 143C1029 74 1026 44 1018 4C1070 -13 1109 -20 1155 -20C1286 -20 1379 50 1379 148C1379 321 1095 228 1095 358C1095 408 1130 436 1191 436C1258 436 1309 401 1309 354L1309 331L1337 331C1338 389 1339 413 1342 444C1289 462 1253 469 1212 469C1096 469 1025 414 1025 324C1025 276 1047 242 1093 221C1211 169 1305 195 1305 109C1305 55 1255 17 1184 17C1111 17 1059 52 1059 102L1059 143Z" stroke="rgb(0,0,0)" stroke-opacity="1" stroke-width="8" fill="rgb(0,0,0)" fill-opacity="1"></path></g></g></g><g><g transform="matrix(1,0,0,1,104.82292175292969,19)"><path transform="matrix(0.017,0,0,-0.017,0,0)" d="M522 473C432 473 333 398 296 322C266 261 244 86 234 17C141 41 110 116 112 206C114 343 192 432 321 468L321 485C172 462 32 363 29 201C27 73 113 11 232 -6C220 -94 199 -190 180 -277C203 -266 235 -258 257 -251L290 -4C476 0 639 142 643 332C645 412 609 473 522 473ZM485 440C555 440 573 375 572 317C569 156 451 32 291 15L322 178C339 267 364 440 485 440Z" stroke="rgb(0,0,0)" stroke-opacity="1" stroke-width="8" fill="rgb(0,0,0)" fill-opacity="1"></path></g></g><g><g><g><g><g transform="matrix(1,0,0,1,120.63543701171875,19)"><path transform="matrix(0.017,0,0,-0.017,0,0)" d="M297 86C275 124 264 147 246 196L182 364C176 381 172 396 172 406C172 420 183 428 206 429L244 431L244 459C147 456 147 456 128 456C109 456 109 456 12 459L12 431L30 429C55 426 67 415 82 380L191 118C219 50 229 26 247 -24L224 -85C192 -169 153 -216 115 -216C99 -216 81 -208 64 -193L51 -193L27 -268C46 -278 62 -283 81 -283C148 -283 191 -247 229 -160L432 308C472 399 491 426 516 429L544 431L544 459C465 456 465 456 449 456C433 456 433 456 354 459L354 431L380 429C408 427 422 418 422 404C422 397 420 388 416 378Z" stroke="rgb(0,0,0)" stroke-opacity="1" stroke-width="24" fill="rgb(0,0,0)" fill-opacity="1"></path></g></g></g></g><svg x="120.63543701171875" overflow="visible" y="0" height="9" width="9.4375"><polyline points="0.00,8.06 4.72,4.91 9.44,8.06" style="fill:none;fill-opacity:1;stroke-width:1px;stroke:rgb(0,0,0);stroke-opacity:1;"></polyline></svg></g><g><g transform="matrix(1,0,0,1,133.46875,19)"><path transform="matrix(0.017,0,0,-0.017,0,0)" d="M604 241L604 300L364 300L364 538L305 538L305 300L65 300L65 241L305 241L305 0L364 0L364 241Z" stroke="rgb(0,0,0)" stroke-opacity="1" stroke-width="8" fill="rgb(0,0,0)" fill-opacity="1"></path></g></g><g><g><g transform="matrix(1,0,0,1,148.22396850585938,19)"><path transform="matrix(0.017,0,0,-0.017,0,0)" d="M41 143C41 74 38 44 30 4C82 -13 121 -20 167 -20C298 -20 391 50 391 148C391 321 107 228 107 358C107 408 142 436 203 436C270 436 321 401 321 354L321 331L349 331C350 389 351 413 354 444C301 462 265 469 224 469C108 469 37 414 37 324C37 276 59 242 105 221C223 169 317 195 317 109C317 55 267 17 196 17C123 17 71 52 71 102L71 143ZM611 465L602 469C551 448 499 434 446 428L446 400L483 400C523 400 527 393 527 327L527 102C527 39 524 32 490 30L444 27L444 -3C544 0 544 0 569 0C594 0 594 0 694 -3L694 27L648 30C614 32 611 39 611 102ZM565 687C535 687 509 661 509 631C509 602 535 576 564 576C593 576 620 602 620 631C620 659 593 687 565 687ZM1123 -3C1184 0 1185 0 1202 0C1216 0 1216 0 1285 -3L1285 27L1244 30C1210 32 1207 38 1207 102L1207 295C1207 412 1152 469 1040 469C1003 469 982 462 961 444L885 378L885 465L876 469C825 448 773 434 720 428L720 400L757 400C797 400 801 393 801 327L801 102C801 39 798 32 764 30L719 27L719 -3C787 -1 814 0 843 0C872 0 899 -1 967 -3L967 27L922 30C888 32 885 39 885 102L885 314C885 359 951 408 1012 408C1079 408 1123 358 1123 281Z" stroke="rgb(0,0,0)" stroke-opacity="1" stroke-width="8" fill="rgb(0,0,0)" fill-opacity="1"></path></g></g></g><g><g transform="matrix(1,0,0,1,173.61981201171875,19)"><path transform="matrix(0.017,0,0,-0.017,0,0)" d="M522 473C432 473 333 398 296 322C266 261 244 86 234 17C141 41 110 116 112 206C114 343 192 432 321 468L321 485C172 462 32 363 29 201C27 73 113 11 232 -6C220 -94 199 -190 180 -277C203 -266 235 -258 257 -251L290 -4C476 0 639 142 643 332C645 412 609 473 522 473ZM485 440C555 440 573 375 572 317C569 156 451 32 291 15L322 178C339 267 364 440 485 440Z" stroke="rgb(0,0,0)" stroke-opacity="1" stroke-width="8" fill="rgb(0,0,0)" fill-opacity="1"></path></g></g><g><g><g><g><g transform="matrix(1,0,0,1,189.43231201171875,19)"><path transform="matrix(0.017,0,0,-0.017,0,0)" d="M455 432L455 462C385 460 355 459 317 459L69 462C67 411 66 399 60 330L90 330L102 398C106 419 124 424 198 424L341 424C320 391 303 368 276 334L106 122L16 17L22 -3C126 0 132 0 175 0L451 -3C451 20 453 44 460 92L466 139L436 139L418 60C414 42 372 35 276 35L141 35Z" stroke="rgb(0,0,0)" stroke-opacity="1" stroke-width="24" fill="rgb(0,0,0)" fill-opacity="1"></path></g></g></g></g><svg x="189.43231201171875" overflow="visible" y="0" height="9" width="8.484375"><polyline points="0.00,8.06 4.24,5.23 8.48,8.06" style="fill:none;fill-opacity:1;stroke-width:1px;stroke:rgb(0,0,0);stroke-opacity:1;"></polyline></svg></g></g></g><g><g><g><g transform="matrix(1,0,0,1,32,171.5666717529297)"><path transform="matrix(0.0119,0,0,-0.0119,0,0)" d="M-7 -180C-8 -187 -8 -193 -8 -198C-8 -241 29 -276 74 -276C180 -276 290 -152 349 33L490 473L479 482C450 471 427 465 405 463L370 331C358 284 323 211 290 162C255 111 206 67 184 67C172 67 163 90 164 115L180 322C182 353 184 391 184 419C184 464 177 482 160 482C147 482 133 475 85 442L3 386L14 368L64 398C69 401 80 410 89 410C103 410 111 391 111 358C111 357 111 351 110 343L93 100L92 60C92 18 110 -11 135 -11C172 -11 256 74 331 187L282 16C231 -161 181 -234 111 -234C76 -234 49 -207 49 -172C49 -167 50 -159 51 -150L41 -146Z" stroke="rgb(0,0,0)" stroke-opacity="1" stroke-width="8" fill="rgb(0,0,0)" fill-opacity="1"></path></g></g></g></g><g><g><g><g transform="matrix(1,0,0,1,15,155.5666717529297)"><path transform="matrix(0.0119,0,0,-0.0119,0,0)" d="M322 -11C334 -11 343 -9 372 -1C383 61 391 95 402 142L380 142L358 82C352 64 340 57 319 57C307 57 291 59 270 64L252 68C219 75 185 80 166 80C134 80 107 74 71 59L410 441L416 473L407 482L384 459C374 449 364 445 350 445C316 445 264 453 216 466L198 471C170 478 150 482 136 482C119 482 99 479 75 472L43 350L64 350L94 408C111 412 120 413 133 413C174 413 206 398 259 398C295 398 319 404 352 421L-1 21L8 -6C37 17 64 26 99 26C162 26 253 -11 322 -11Z" stroke="rgb(0,0,0)" stroke-opacity="1" stroke-width="8" fill="rgb(0,0,0)" fill-opacity="1"></path></g></g></g></g></svg>
</svg>
