<svg xmlns="http://www.w3.org/2000/svg" xmlns:xlink="http://www.w3.org/1999/xlink" x="0" y="0" width="662" height="134" style="
        width:662px;
        height:134px;
        background: transparent;
        fill: none;
">
        
        
        <svg xmlns="http://www.w3.org/2000/svg" class="role-diagram-draw-area"><g class="shapes-region" style="stroke: black; fill: none;"><g class="composite-shape"><path class="real" d=" M28,62.3 C28,40.37 45.77,22.6 67.7,22.6 C89.63,22.6 107.4,40.37 107.4,62.3 C107.4,84.23 89.63,102 67.7,102 C45.77,102 28,84.23 28,62.3 Z" style="stroke-width: 1; stroke: rgb(0, 0, 0); fill: rgb(126, 211, 33); fill-opacity: 1;"/></g><g class="composite-shape"><path class="real" d=" M80.4,41.18 C80.4,38.29 82.75,35.94 85.64,35.94 C88.54,35.94 90.88,38.29 90.88,41.18 C90.88,44.07 88.54,46.42 85.64,46.42 C82.75,46.42 80.4,44.07 80.4,41.18 Z" style="stroke-width: 1; stroke: rgb(0, 0, 0); fill: none; fill-opacity: 1;"/></g><g class="composite-shape"><path class="real" d=" M80.4,83.42 C80.4,80.53 82.75,78.18 85.64,78.18 C88.54,78.18 90.88,80.53 90.88,83.42 C90.88,86.31 88.54,88.66 85.64,88.66 C82.75,88.66 80.4,86.31 80.4,83.42 Z" style="stroke-width: 1; stroke: rgb(0, 0, 255); stroke-opacity: 1; fill: none; fill-opacity: 1;"/></g><g class="arrow-line"><path class="connection real" stroke-dasharray="" d="  M67.7,62.3 L313.6,62.3" style="stroke: rgb(155, 155, 155); stroke-opacity: 1; stroke-width: 1; fill: none; fill-opacity: 1;"/></g><g class="arrow-line"><path class="connection real" stroke-dasharray="1.125 3.35" d="  M85.64,83.42 L175.68,62.3" style="stroke: rgb(0, 0, 255); stroke-opacity: 1; stroke-width: 1; fill: none; fill-opacity: 1;"/></g><g class="arrow-line"><path class="connection real" stroke-dasharray="1.125 3.35" d="  M85.64,41.18 L175.68,62.3" style="stroke: rgb(0, 0, 0); stroke-width: 1; fill: none; fill-opacity: 1;"/></g><g class="arrow-line"><path class="connection real" stroke-dasharray="" d="  M175.68,62.3 L262.8,82.74" style="stroke: rgb(0, 0, 0); stroke-width: 1; fill: none; fill-opacity: 1;"/><g stroke="none" fill="#000" transform="matrix(-0.9735789028731603,-0.2283508701106555,0.2283508701106555,-0.9735789028731603,265.7236346801766,83.42039058837807)" style="stroke: none; fill: rgb(0, 0, 0); stroke-width: 1;"><path d=" M8.93,-4.29 L0,0 L8.93,4.29 Z"/></g></g><g class="arrow-line"><path class="connection real" stroke-dasharray="" d="  M175.68,62.3 L262.8,41.86" style="stroke: rgb(0, 0, 255); stroke-opacity: 1; stroke-width: 1; fill: none; fill-opacity: 1;"/><g stroke="none" fill="rgb(0,0,255)" fill-opacity="1" transform="matrix(-0.9735789028731598,0.22835087011065772,-0.22835087011065772,-0.9735789028731598,265.72363468017653,41.17960025634849)" style="stroke: none; fill: rgb(0, 0, 255); stroke-width: 1;"><path d=" M5.36,-2.57 L0,0 L5.36,2.57 Z"/></g></g><g class="arrow-line"><path class="connection real" stroke-dasharray="" d="  M265.72,63.25 L265.72,44.18" style="stroke: rgb(0, 0, 255); stroke-opacity: 1; stroke-width: 1; fill: none; fill-opacity: 1;"/><g stroke="none" fill="rgb(0,0,255)" fill-opacity="1" transform="matrix(3.061616997868383e-16,1,-1,3.061616997868383e-16,265.7236346801766,41.17960025634849)" style="stroke: none; fill: rgb(0, 0, 255); stroke-width: 1;"><path d=" M5.36,-2.57 L0,0 L5.36,2.57 Z"/></g></g><g class="arrow-line"><path class="connection real" stroke-dasharray="" d="  M265.72,63.25 L265.72,80.42" style="stroke: rgb(0, 0, 0); stroke-opacity: 1; stroke-width: 1; fill: none; fill-opacity: 1;"/><g stroke="none" fill="rgb(0,0,0)" fill-opacity="1" transform="matrix(-1.8369701987210297e-16,-1,1,-1.8369701987210297e-16,265.7236346801766,83.42039058837804)" style="stroke: none; fill: rgb(0, 0, 0); stroke-width: 1;"><path d=" M5.36,-2.57 L0,0 L5.36,2.57 Z"/></g></g><g class="arrow-line"><path class="connection real" stroke-dasharray="" d="  M67.7,62.3 L85.64,41.18" style="stroke: rgb(0, 0, 0); stroke-width: 1; fill: none; fill-opacity: 1;"/></g><g class="arrow-line"><path class="connection real" stroke-dasharray="" d="  M67.7,62.3 L85.64,83.42" style="stroke: rgb(0, 0, 0); stroke-width: 1; fill: none; fill-opacity: 1;"/></g><g class="composite-shape"><path class="real" d=" M74.9,54.71 C76.53,56.25 77.67,58.32 78.04,60.71 C78.14,61.36 78.18,62 78.16,62.64 L67.7,62.3 Z" style="stroke-width: 1; stroke: none; fill: none; fill-opacity: 1;"/><path class="real" d=" M74.9,54.71 C76.53,56.25 77.67,58.32 78.04,60.71 C78.14,61.36 78.18,62 78.16,62.64" style="stroke-width: 1; stroke: rgb(0, 0, 0); fill: none; fill-opacity: 1;"/></g><g/></g><g/><g/><g/></svg>
        <svg xmlns="http://www.w3.org/2000/svg" xmlns:xlink="http://www.w3.org/1999/xlink" width="660" height="132" style="width:660px;height:132px;font-family:Asana-Math, Asana;background:transparent;"><g><g><g><g transform="matrix(1,0,0,1,79,56.49999084472656)"><path transform="matrix(0.0119,0,0,-0.0119,0,0)" d="M522 473C432 473 333 398 296 322C266 261 244 86 234 17C141 41 110 116 112 206C114 343 192 432 321 468L321 485C172 462 32 363 29 201C27 73 113 11 232 -6C220 -94 199 -190 180 -277C203 -266 235 -258 257 -251L290 -4C476 0 639 142 643 332C645 412 609 473 522 473ZM485 440C555 440 573 375 572 317C569 156 451 32 291 15L322 178C339 267 364 440 485 440Z" stroke="rgb(0,0,0)" stroke-opacity="1" stroke-width="8" fill="rgb(0,0,0)" fill-opacity="1"></path></g></g></g></g><g><g><g><g transform="matrix(1,0,0,1,316.99998474121094,64.49999084472657)"><path transform="matrix(0.0119,0,0,-0.0119,0,0)" d="M522 473C432 473 333 398 296 322C266 261 244 86 234 17C141 41 110 116 112 206C114 343 192 432 321 468L321 485C172 462 32 363 29 201C27 73 113 11 232 -6C220 -94 199 -190 180 -277C203 -266 235 -258 257 -251L290 -4C476 0 639 142 643 332C645 412 609 473 522 473ZM485 440C555 440 573 375 572 317C569 156 451 32 291 15L322 178C339 267 364 440 485 440Z" stroke="rgb(0,0,0)" stroke-opacity="1" stroke-width="8" fill="rgb(0,0,0)" fill-opacity="1"></path></g></g><g><g transform="matrix(1,0,0,1,328.6750030517578,64.49999084472657)"><path transform="matrix(0.0119,0,0,-0.0119,0,0)" d="M604 347L604 406L65 406L65 347ZM604 134L604 193L65 193L65 134Z" stroke="rgb(0,0,0)" stroke-opacity="1" stroke-width="8" fill="rgb(0,0,0)" fill-opacity="1"></path></g></g><g><g transform="matrix(1,0,0,1,340.19374084472656,64.49999084472657)"><path transform="matrix(0.0119,0,0,-0.0119,0,0)" d="M263 689C108 689 29 566 29 324C29 207 50 106 85 57C120 8 176 -20 238 -20C389 -20 465 110 465 366C465 585 400 689 263 689ZM245 654C342 654 381 556 381 316C381 103 343 15 251 15C154 15 113 116 113 360C113 571 150 654 245 654Z" stroke="rgb(0,0,0)" stroke-opacity="1" stroke-width="8" fill="rgb(0,0,0)" fill-opacity="1"></path></g></g></g></g></svg>
</svg>
