<svg xmlns="http://www.w3.org/2000/svg" xmlns:xlink="http://www.w3.org/1999/xlink" x="0" y="0" width="662" height="164" style="
        width:662px;
        height:164px;
        background: transparent;
        fill: none;
">
        
        
        <svg xmlns="http://www.w3.org/2000/svg" class="role-diagram-draw-area"><g class="shapes-region" style="stroke: black; fill: none;"><g class="composite-shape" data-amt="diagram/shapes/plot" transform="matrix(1,0,0,1,15,20)"><g><g><g class="test-xgi"><line x1="17.39772638178636" y1="0" x2="17.39772638178636" y2="133.60000610351562" fill="none" stroke="#c3c3c3" stroke-width="0.5"/><line x1="85.01827135866063" y1="0" x2="85.01827135866063" y2="133.60000610351562" fill="none" stroke="#c3c3c3" stroke-width="0.5"/><line x1="152.6388163355349" y1="0" x2="152.6388163355349" y2="133.60000610351562" fill="none" stroke="#c3c3c3" stroke-width="0.5"/><line x1="220.25936131240917" y1="0" x2="220.25936131240917" y2="133.60000610351562" fill="none" stroke="#c3c3c3" stroke-width="0.5"/></g><g class="test-ygi"><line x1="0" y1="118.90581740481204" x2="237" y2="118.90581740481204" fill="none" stroke="#c3c3c3" stroke-width="0.5"/><line x1="0" y1="51.285272427937784" x2="237" y2="51.285272427937784" fill="none" stroke="#c3c3c3" stroke-width="0.5"/></g></g><g><g class="test-xti" style="font-family: Asana-Math, Asana;"><line x1="0" y1="118.90581740481204" x2="233" y2="118.90581740481204" fill="none" stroke="rgb(50,50,50)" stroke-opacity="1" stroke-width="1"/><line x1="85.01827135866063" y1="114.90581740481204" x2="85.01827135866063" y2="122.90581740481204" fill="none" stroke="rgb(50,50,50)" stroke-opacity="1" stroke-width="1"/><line x1="152.6388163355349" y1="114.90581740481204" x2="152.6388163355349" y2="122.90581740481204" fill="none" stroke="rgb(50,50,50)" stroke-opacity="1" stroke-width="1"/><line x1="220.25936131240917" y1="114.90581740481204" x2="220.25936131240917" y2="122.90581740481204" fill="none" stroke="rgb(50,50,50)" stroke-opacity="1" stroke-width="1"/><path d="M228,115.30581740481205 L236,118.90581740481204 L228,122.50581740481203 Z" stroke="none" stroke-width="1" fill="rgb(50,50,50)" fill-opacity="1"/></g><g class="test-yti" style="font-family: Asana-Math, Asana;"><line x1="17.397726381786356" y1="4" x2="17.397726381786356" y2="133.60000610351562" fill="none" stroke="rgb(50,50,50)" stroke-opacity="1" stroke-width="1"/><line x1="13.397726381786356" y1="51.285272427937784" x2="21.397726381786356" y2="51.285272427937784" fill="none" stroke="rgb(50,50,50)" stroke-opacity="1" stroke-width="1"/><path d="M13.797726381786356,9 L17.397726381786356,1 L20.997726381786357,9 Z" stroke="none" stroke-width="1" fill="rgb(50,50,50)" fill-opacity="1"/></g><g class="test-plot-expression"><defs><clipPath id="cp9dxbnhm26"><rect x="1" y="1" width="235" height="131.60000610351562"/></clipPath></defs><g clip-path="url(#cp9dxbnhm26)"><path d=" M17.40,118.91 L17.54,118.76 L17.68,118.62 L17.83,118.48 L17.97,118.33 L18.11,118.19 L18.26,118.05 L18.40,117.91 L18.54,117.76 L18.68,117.62 L18.83,117.48 L18.97,117.33 L19.11,117.19 L19.26,117.05 L19.40,116.90 L19.54,116.76 L19.69,116.62 L19.83,116.48 L19.97,116.33 L20.11,116.19 L20.26,116.05 L20.40,115.90 L20.54,115.76 L20.69,115.62 L20.83,115.47 L20.97,115.33 L21.11,115.19 L21.26,115.05 L21.40,114.90 L21.54,114.76 L21.69,114.62 L21.83,114.47 L21.97,114.33 L22.12,114.19 L22.26,114.05 L22.40,113.90 L22.54,113.76 L22.69,113.62 L22.83,113.47 L22.97,113.33 L23.12,113.19 L23.26,113.04 L23.40,112.90 L23.55,112.76 L23.69,112.62 L23.83,112.47 L23.97,112.33 L24.12,112.19 L24.26,112.04 L24.40,111.90 L24.55,111.76 L24.69,111.61 L24.83,111.47 L24.97,111.33 L25.12,111.19 L25.26,111.04 L25.40,110.90 L25.55,110.76 L25.69,110.61 L25.83,110.47 L25.98,110.33 L26.12,110.19 L26.26,110.04 L26.40,109.90 L26.55,109.76 L26.69,109.61 L26.83,109.47 L26.98,109.33 L27.12,109.18 L27.26,109.04 L27.40,108.90 L27.55,108.76 L27.69,108.61 L27.83,108.47 L27.98,108.33 L28.12,108.18 L28.26,108.04 L28.41,107.90 L28.55,107.75 L28.69,107.61 L28.83,107.47 L28.98,107.33 L29.12,107.18 L29.26,107.04 L29.41,106.90 L29.55,106.75 L29.69,106.61 L29.84,106.47 L29.98,106.33 L30.12,106.18 L30.26,106.04 L30.41,105.90 L30.55,105.75 L30.69,105.61 L30.84,105.47 L30.98,105.32 L31.12,105.18 L31.26,105.04 L31.41,104.90 L31.55,104.75 L31.69,104.61 L31.84,104.47 L31.98,104.32 L32.12,104.18 L32.27,104.04 L32.41,103.89 L32.55,103.75 L32.69,103.61 L32.84,103.47 L32.98,103.32 L33.12,103.18 L33.27,103.04 L33.41,102.89 L33.55,102.75 L33.70,102.61 L33.84,102.47 L33.98,102.32 L34.12,102.18 L34.27,102.04 L34.41,101.89 L34.55,101.75 L34.70,101.61 L34.84,101.46 L34.98,101.32 L35.12,101.18 L35.27,101.04 L35.41,100.89 L35.55,100.75 L35.70,100.61 L35.84,100.46 L35.98,100.32 L36.13,100.18 L36.27,100.03 L36.41,99.89 L36.55,99.75 L36.70,99.61 L36.84,99.46 L36.98,99.32 L37.13,99.18 L37.27,99.03 L37.41,98.89 L37.56,98.75 L37.70,98.61 L37.84,98.46 L37.98,98.32 L38.13,98.18 L38.27,98.03 L38.41,97.89 L38.56,97.75 L38.70,97.60 L38.84,97.46 L38.98,97.32 L39.13,97.18 L39.27,97.03 L39.41,96.89 L39.56,96.75 L39.70,96.60 L39.84,96.46 L39.99,96.32 L40.13,96.18 L40.27,96.03 L40.41,95.89 L40.56,95.75 L40.70,95.60 L40.84,95.46 L40.99,95.32 L41.13,95.17 L41.27,95.03 L41.42,94.89 L41.56,94.75 L41.70,94.60 L41.84,94.46 L41.99,94.32 L42.13,94.17 L42.27,94.03 L42.42,93.89 L42.56,93.74 L42.70,93.60 L42.84,93.46 L42.99,93.32 L43.13,93.17 L43.27,93.03 L43.42,92.89 L43.56,92.74 L43.70,92.60 L43.85,92.46 L43.99,92.32 L44.13,92.17 L44.27,92.03 L44.42,91.89 L44.56,91.74 L44.70,91.60 L44.85,91.46 L44.99,91.31 L45.13,91.17 L45.28,91.03 L45.42,90.89 L45.56,90.74 L45.70,90.60 L45.85,90.46 L45.99,90.31 L46.13,90.17 L46.28,90.03 L46.42,89.88 L46.56,89.74 L46.70,89.60 L46.85,89.46 L46.99,89.31 L47.13,89.17 L47.28,89.03 L47.42,88.88 L47.56,88.74 L47.71,88.60 L47.85,88.46 L47.99,88.31 L48.13,88.17 L48.28,88.03 L48.42,87.88 L48.56,87.74 L48.71,87.60 L48.85,87.45 L48.99,87.31 L49.14,87.17 L49.28,87.03 L49.42,86.88 L49.56,86.74 L49.71,86.60 L49.85,86.45 L49.99,86.31 L50.14,86.17 L50.28,86.02 L50.42,85.88 L50.56,85.74 L50.71,85.60 L50.85,85.45 L50.99,85.31 L51.14,85.17 L51.28,85.02 L51.42,84.88 L51.57,84.74 L51.71,84.60 L51.85,84.45 L51.99,84.31 L52.14,84.17 L52.28,84.02 L52.42,83.88 L52.57,83.74 L52.71,83.59 L52.85,83.45 L53.00,83.31 L53.14,83.17 L53.28,83.02 L53.42,82.88 L53.57,82.74 L53.71,82.59 L53.85,82.45 L54.00,82.31 L54.14,82.16 L54.28,82.02 L54.42,81.88 L54.57,81.74 L54.71,81.59 L54.85,81.45 L55.00,81.31 L55.14,81.16 L55.28,81.02 L55.43,80.88 L55.57,80.74 L55.71,80.59 L55.85,80.45 L56.00,80.31 L56.14,80.16 L56.28,80.02 L56.43,79.88 L56.57,79.73 L56.71,79.59 L56.85,79.45 L57.00,79.31 L57.14,79.16 L57.28,79.02 L57.43,78.88 L57.57,78.73 L57.71,78.59 L57.86,78.45 L58.00,78.30 L58.14,78.16 L58.28,78.02 L58.43,77.88 L58.57,77.73 L58.71,77.59 L58.86,77.45 L59.00,77.30 L59.14,77.16 L59.29,77.02 L59.43,76.88 L59.57,76.73 L59.71,76.59 L59.86,76.45 L60.00,76.30 L60.14,76.16 L60.29,76.02 L60.43,75.87 L60.57,75.73 L60.71,75.59 L60.86,75.45 L61.00,75.30 L61.14,75.16 L61.29,75.02 L61.43,74.87 L61.57,74.73 L61.72,74.59 L61.86,74.44 L62.00,74.30 L62.14,74.16 L62.29,74.02 L62.43,73.87 L62.57,73.73 L62.72,73.59 L62.86,73.44 L63.00,73.30 L63.15,73.16 L63.29,73.02 L63.43,72.87 L63.57,72.73 L63.72,72.59 L63.86,72.44 L64.00,72.30 L64.15,72.16 L64.29,72.01 L64.43,71.87 L64.57,71.73 L64.72,71.59 L64.86,71.44 L65.00,71.30 L65.15,71.16 L65.29,71.01 L65.43,70.87 L65.58,70.73 L65.72,70.59 L65.86,70.44 L66.00,70.30 L66.15,70.16 L66.29,70.01 L66.43,69.87 L66.58,69.73 L66.72,69.58 L66.86,69.44 L67.01,69.30 L67.15,69.16 L67.29,69.01 L67.43,68.87 L67.58,68.73 L67.72,68.58 L67.86,68.44 L68.01,68.30 L68.15,68.15 L68.29,68.01 L68.43,67.87 L68.58,67.73 L68.72,67.58 L68.86,67.44 L69.01,67.30 L69.15,67.15 L69.29,67.01 L69.44,66.87 L69.58,66.73 L69.72,66.58 L69.86,66.44 L70.01,66.30 L70.15,66.15 L70.29,66.01 L70.44,65.87 L70.58,65.72 L70.72,65.58 L70.87,65.44 L71.01,65.30 L71.15,65.15 L71.29,65.01 L71.44,64.87 L71.58,64.72 L71.72,64.58 L71.87,64.44 L72.01,64.29 L72.15,64.15 L72.29,64.01 L72.44,63.87 L72.58,63.72 L72.72,63.58 L72.87,63.44 L73.01,63.29 L73.15,63.15 L73.30,63.01 L73.44,62.87 L73.58,62.72 L73.72,62.58 L73.87,62.44 L74.01,62.29 L74.15,62.15 L74.30,62.01 L74.44,61.86 L74.58,61.72 L74.73,61.58 L74.87,61.44 L75.01,61.29 L75.15,61.15 L75.30,61.01 L75.44,60.86 L75.58,60.72 L75.73,60.58 L75.87,60.43 L76.01,60.29 L76.15,60.15 L76.30,60.01 L76.44,59.86 L76.58,59.72 L76.73,59.58 L76.87,59.43 L77.01,59.29 L77.16,59.15 L77.30,59.01 L77.44,58.86 L77.58,58.72 L77.73,58.58 L77.87,58.43 L78.01,58.29 L78.16,58.15 L78.30,58.00 L78.44,57.86 L78.59,57.72 L78.73,57.58 L78.87,57.43 L79.01,57.29 L79.16,57.15 L79.30,57.00 L79.44,56.86 L79.59,56.72 L79.73,56.57 L79.87,56.43 L80.01,56.29 L80.16,56.15 L80.30,56.00 L80.44,55.86 L80.59,55.72 L80.73,55.57 L80.87,55.43 L81.02,55.29 L81.16,55.15 L81.30,55.00 L81.44,54.86 L81.59,54.72 L81.73,54.57 L81.87,54.43 L82.02,54.29 L82.16,54.14 L82.30,54.00 L82.44,53.86 L82.59,53.72 L82.73,53.57 L82.87,53.43 L83.02,53.29 L83.16,53.14 L83.30,53.00 L83.45,52.86 L83.59,52.71 L83.73,52.57 L83.87,52.43 L84.02,52.29 L84.16,52.14 L84.30,52.00 L84.45,51.86 L84.59,51.71 L84.73,51.57 L84.88,51.43 L85.02,51.29" style="stroke-width: 2; stroke: rgb(0, 0, 0); stroke-opacity: 1;"/><path d=" M85.02,51.29 L85.30,51.57 L85.59,51.85 L85.88,52.13 L86.16,52.41 L86.45,52.69 L86.73,52.96 L87.02,53.23 L87.31,53.50 L87.59,53.76 L87.88,54.03 L88.16,54.29 L88.45,54.55 L88.74,54.81 L89.02,55.06 L89.31,55.32 L89.59,55.57 L89.88,55.82 L90.16,56.07 L90.45,56.31 L90.74,56.56 L91.02,56.80 L91.31,57.04 L91.59,57.28 L91.88,57.52 L92.17,57.75 L92.45,57.98 L92.74,58.21 L93.02,58.44 L93.31,58.67 L93.60,58.90 L93.88,59.12 L94.17,59.34 L94.45,59.57 L94.74,59.78 L95.03,60.00 L95.31,60.22 L95.60,60.43 L95.88,60.65 L96.17,60.86 L96.46,61.07 L96.74,61.28 L97.03,61.48 L97.31,61.69 L97.60,61.89 L97.88,62.09 L98.17,62.30 L98.46,62.50 L98.74,62.69 L99.03,62.89 L99.31,63.09 L99.60,63.28 L99.89,63.47 L100.17,63.66 L100.46,63.86 L100.74,64.04 L101.03,64.23 L101.32,64.42 L101.60,64.60 L101.89,64.79 L102.17,64.97 L102.46,65.15 L102.75,65.33 L103.03,65.51 L103.32,65.69 L103.60,65.86 L103.89,66.04 L104.18,66.21 L104.46,66.39 L104.75,66.56 L105.03,66.73 L105.32,66.90 L105.60,67.07 L105.89,67.23 L106.18,67.40 L106.46,67.57 L106.75,67.73 L107.03,67.89 L107.32,68.06 L107.61,68.22 L107.89,68.38 L108.18,68.54 L108.46,68.69 L108.75,68.85 L109.04,69.01 L109.32,69.16 L109.61,69.32 L109.89,69.47 L110.18,69.62 L110.47,69.77 L110.75,69.92 L111.04,70.07 L111.32,70.22 L111.61,70.37 L111.89,70.52 L112.18,70.66 L112.47,70.81 L112.75,70.95 L113.04,71.10 L113.32,71.24 L113.61,71.38 L113.90,71.52 L114.18,71.66 L114.47,71.80 L114.75,71.94 L115.04,72.08 L115.33,72.21 L115.61,72.35 L115.90,72.48 L116.18,72.62 L116.47,72.75 L116.76,72.88 L117.04,73.02 L117.33,73.15 L117.61,73.28 L117.90,73.41 L118.19,73.54 L118.47,73.67 L118.76,73.79 L119.04,73.92 L119.33,74.05 L119.61,74.17 L119.90,74.30 L120.19,74.42 L120.47,74.54 L120.76,74.67 L121.04,74.79 L121.33,74.91 L121.62,75.03 L121.90,75.15 L122.19,75.27 L122.47,75.39 L122.76,75.51 L123.05,75.63 L123.33,75.74 L123.62,75.86 L123.90,75.97 L124.19,76.09 L124.48,76.20 L124.76,76.32 L125.05,76.43 L125.33,76.54 L125.62,76.65 L125.91,76.77 L126.19,76.88 L126.48,76.99 L126.76,77.10 L127.05,77.21 L127.33,77.31 L127.62,77.42 L127.91,77.53 L128.19,77.64 L128.48,77.74 L128.76,77.85 L129.05,77.95 L129.34,78.06 L129.62,78.16 L129.91,78.26 L130.19,78.37 L130.48,78.47 L130.77,78.57 L131.05,78.67 L131.34,78.77 L131.62,78.88 L131.91,78.98 L132.20,79.07 L132.48,79.17 L132.77,79.27 L133.05,79.37 L133.34,79.47 L133.63,79.56 L133.91,79.66 L134.20,79.76 L134.48,79.85 L134.77,79.95 L135.05,80.04 L135.34,80.14 L135.63,80.23 L135.91,80.32 L136.20,80.42 L136.48,80.51 L136.77,80.60 L137.06,80.69 L137.34,80.78 L137.63,80.87 L137.91,80.96 L138.20,81.05 L138.49,81.14 L138.77,81.23 L139.06,81.32 L139.34,81.41 L139.63,81.50 L139.92,81.58 L140.20,81.67 L140.49,81.76 L140.77,81.84 L141.06,81.93 L141.34,82.01 L141.63,82.10 L141.92,82.18 L142.20,82.27 L142.49,82.35 L142.77,82.44 L143.06,82.52 L143.35,82.60 L143.63,82.68 L143.92,82.77 L144.20,82.85 L144.49,82.93 L144.78,83.01 L145.06,83.09 L145.35,83.17 L145.63,83.25 L145.92,83.33 L146.21,83.41 L146.49,83.49 L146.78,83.56 L147.06,83.64 L147.35,83.72 L147.64,83.80 L147.92,83.87 L148.21,83.95 L148.49,84.03 L148.78,84.10 L149.06,84.18 L149.35,84.25 L149.64,84.33 L149.92,84.40 L150.21,84.48 L150.49,84.55 L150.78,84.62 L151.07,84.70 L151.35,84.77 L151.64,84.84 L151.92,84.92 L152.21,84.99 L152.50,85.06 L152.78,85.13 L153.07,85.20 L153.35,85.27 L153.64,85.34 L153.93,85.41 L154.21,85.48 L154.50,85.55 L154.78,85.62 L155.07,85.69 L155.36,85.76 L155.64,85.83 L155.93,85.90 L156.21,85.97 L156.50,86.03 L156.78,86.10 L157.07,86.17 L157.36,86.24 L157.64,86.30 L157.93,86.37 L158.21,86.43 L158.50,86.50 L158.79,86.57 L159.07,86.63 L159.36,86.70 L159.64,86.76 L159.93,86.83 L160.22,86.89 L160.50,86.95 L160.79,87.02 L161.07,87.08 L161.36,87.14 L161.65,87.21 L161.93,87.27 L162.22,87.33 L162.50,87.39 L162.79,87.46 L163.07,87.52 L163.36,87.58 L163.65,87.64 L163.93,87.70 L164.22,87.76 L164.50,87.82 L164.79,87.88 L165.08,87.94 L165.36,88.00 L165.65,88.06 L165.93,88.12 L166.22,88.18 L166.51,88.24 L166.79,88.30 L167.08,88.36 L167.36,88.42 L167.65,88.47 L167.94,88.53 L168.22,88.59 L168.51,88.65 L168.79,88.70 L169.08,88.76 L169.37,88.82 L169.65,88.87 L169.94,88.93 L170.22,88.99 L170.51,89.04 L170.79,89.10 L171.08,89.15 L171.37,89.21 L171.65,89.26 L171.94,89.32 L172.22,89.37 L172.51,89.43 L172.80,89.48 L173.08,89.54 L173.37,89.59 L173.65,89.64 L173.94,89.70 L174.23,89.75 L174.51,89.80 L174.80,89.86 L175.08,89.91 L175.37,89.96 L175.66,90.01 L175.94,90.06 L176.23,90.12 L176.51,90.17 L176.80,90.22 L177.09,90.27 L177.37,90.32 L177.66,90.37 L177.94,90.42 L178.23,90.48 L178.51,90.53 L178.80,90.58 L179.09,90.63 L179.37,90.68 L179.66,90.73 L179.94,90.78 L180.23,90.82 L180.52,90.87 L180.80,90.92 L181.09,90.97 L181.37,91.02 L181.66,91.07 L181.95,91.12 L182.23,91.17 L182.52,91.21 L182.80,91.26 L183.09,91.31 L183.38,91.36 L183.66,91.40 L183.95,91.45 L184.23,91.50 L184.52,91.55 L184.81,91.59 L185.09,91.64 L185.38,91.68 L185.66,91.73 L185.95,91.78 L186.23,91.82 L186.52,91.87 L186.81,91.91 L187.09,91.96 L187.38,92.01 L187.66,92.05 L187.95,92.10 L188.24,92.14 L188.52,92.19 L188.81,92.23 L189.09,92.27 L189.38,92.32 L189.67,92.36 L189.95,92.41 L190.24,92.45 L190.52,92.49 L190.81,92.54 L191.10,92.58 L191.38,92.62 L191.67,92.67 L191.95,92.71 L192.24,92.75 L192.52,92.80 L192.81,92.84 L193.10,92.88 L193.38,92.92 L193.67,92.97 L193.95,93.01 L194.24,93.05 L194.53,93.09 L194.81,93.13 L195.10,93.17 L195.38,93.22 L195.67,93.26 L195.96,93.30 L196.24,93.34 L196.53,93.38 L196.81,93.42 L197.10,93.46 L197.39,93.50 L197.67,93.54 L197.96,93.58 L198.24,93.62 L198.53,93.66 L198.82,93.70 L199.10,93.74 L199.39,93.78 L199.67,93.82 L199.96,93.86 L200.24,93.90 L200.53,93.94 L200.82,93.98 L201.10,94.02 L201.39,94.05 L201.67,94.09 L201.96,94.13 L202.25,94.17 L202.53,94.21 L202.82,94.25 L203.10,94.28 L203.39,94.32 L203.68,94.36 L203.96,94.40 L204.25,94.43 L204.53,94.47 L204.82,94.51 L205.11,94.55 L205.39,94.58 L205.68,94.62 L205.96,94.66 L206.25,94.69 L206.54,94.73 L206.82,94.77 L207.11,94.80 L207.39,94.84 L207.68,94.88 L207.96,94.91 L208.25,94.95 L208.54,94.98 L208.82,95.02 L209.11,95.05 L209.39,95.09 L209.68,95.13 L209.97,95.16 L210.25,95.20 L210.54,95.23 L210.82,95.27 L211.11,95.30 L211.40,95.34 L211.68,95.37 L211.97,95.41 L212.25,95.44 L212.54,95.47 L212.83,95.51 L213.11,95.54 L213.40,95.58 L213.68,95.61 L213.97,95.64 L214.26,95.68 L214.54,95.71 L214.83,95.75 L215.11,95.78 L215.40,95.81 L215.68,95.85 L215.97,95.88 L216.26,95.91 L216.54,95.94 L216.83,95.98 L217.11,96.01 L217.40,96.04 L217.69,96.08 L217.97,96.11 L218.26,96.14 L218.54,96.17 L218.83,96.21 L219.12,96.24 L219.40,96.27 L219.69,96.30 L219.97,96.33 L220.26,96.37" style="stroke-width: 2; stroke: rgb(0, 0, 0); stroke-opacity: 1;"/></g></g><g class="test-xtl" style="font-family: &quot;Open Sans&quot;, verdana, arial, sans-serif;"><text text-anchor="middle" font-size="11" dominant-baseline="hanging" stroke="none" fill="rgb(50,50,50)" fill-opacity="1" x="85.01827135866063" y="125.90581740481204">1</text><text text-anchor="middle" font-size="11" dominant-baseline="hanging" stroke="none" fill="rgb(50,50,50)" fill-opacity="1" x="152.6388163355349" y="125.90581740481204">2</text><text text-anchor="middle" font-size="11" dominant-baseline="hanging" stroke="none" fill="rgb(50,50,50)" fill-opacity="1" x="220.25936131240917" y="125.90581740481204">3</text><text text-anchor="middle" font-size="11" dominant-baseline="hanging" stroke="none" fill="rgb(50,50,50)" fill-opacity="1" x="9.39772638178636" y="123.90581740481204">0</text></g><g class="test-ytl" style="font-family: &quot;Open Sans&quot;, verdana, arial, sans-serif;"/><rect class="real" x="1" y="1" width="235" height="131.60000610351562" style="fill: transparent; stroke: none;"/></g></g></g><g class="arrow-line"><path class="connection real" stroke-dasharray="1.125 3.35" d="  M36,116.6 L235,116.6" style="stroke: rgb(155, 155, 155); stroke-width: 1; fill: none; fill-opacity: 1; stroke-opacity: 1;"/></g><g/></g><g/><g/><g/></svg>
        <svg xmlns="http://www.w3.org/2000/svg" xmlns:xlink="http://www.w3.org/1999/xlink" width="660" height="162" style="width:660px;height:162px;font-family:Asana-Math, Asana;background:transparent;"><g><g><g><g transform="matrix(1,0,0,1,258,141.49999084472657)"><path transform="matrix(0.0119,0,0,-0.0119,0,0)" d="M31 148C26 97 20 62 9 16C47 -2 81 -11 116 -11C165 -11 211 7 262 47C313 87 334 124 334 174C334 228 302 257 228 271L185 279C125 290 106 307 106 348C106 401 151 442 208 442C249 442 287 424 303 397L303 342L326 342C330 377 334 404 345 455C306 474 278 482 245 482C193 482 132 452 84 404C58 377 47 352 47 316C47 260 78 228 144 215L207 203C251 195 267 177 267 138C267 73 221 29 150 29C115 29 84 40 56 64L56 148Z" stroke="rgb(0,0,0)" stroke-opacity="1" stroke-width="8" fill="rgb(0,0,0)" fill-opacity="1"></path></g></g><g><g transform="matrix(1,0,0,1,264.9937744140625,141.49999084472657)"><path transform="matrix(0.0119,0,0,-0.0119,0,0)" d="M297 714L242 714L-37 -169L18 -169Z" stroke="rgb(0,0,0)" stroke-opacity="1" stroke-width="8" fill="rgb(0,0,0)" fill-opacity="1"></path></g></g><g><g transform="matrix(1,0,0,1,270.7750244140625,141.49999084472657)"><path transform="matrix(0.0119,0,0,-0.0119,0,0)" d="M105 664L161 662C185 661 196 653 196 635C196 621 192 589 187 559L112 125C96 34 94 32 54 28L13 25L9 -3L51 -2C98 0 117 0 141 0L238 -3L264 -3L267 25L218 28C191 30 182 38 182 58C182 67 183 76 186 93L287 648C316 654 336 656 363 656C450 656 496 617 496 543C496 448 418 378 314 378L270 378L267 367C401 172 432 124 507 -3C507 -3 592 0 592 0C593 0 607 -1 626 -3L639 -3L639 24C599 29 588 37 559 79L375 354C430 364 459 376 495 402C553 444 584 499 584 560C584 646 520 693 409 691L108 691Z" stroke="rgb(0,0,0)" stroke-opacity="1" stroke-width="8" fill="rgb(0,0,0)" fill-opacity="1"></path></g></g></g></g><g><g><g><g><g><g><g transform="matrix(1,0,0,1,6.1875,65.49999084472657)"><path transform="matrix(0.0119,0,0,-0.0119,0,0)" d="M386 473C267 473 146 396 119 277C79 98 60 -97 34 -284C62 -283 92 -277 118 -266C116 -222 115 -145 145 29C169 -5 206 -15 247 -15C424 -15 522 168 525 325C527 420 482 473 386 473ZM347 441C426 441 446 380 445 311C444 203 398 11 260 11C182 11 164 72 166 138C168 243 210 441 347 441Z" stroke="rgb(0,0,0)" stroke-opacity="1" stroke-width="8" fill="rgb(0,0,0)" fill-opacity="1"></path></g></g><g><g><g><g><g transform="matrix(1,0,0,1,13.28125,68.00498779296875)"><path transform="matrix(0.00833,0,0,-0.00833,0,0)" d="M17 152C17 46 62 -11 145 -11C200 -11 260 15 305 57C367 116 411 230 411 331C411 425 361 482 278 482C174 482 17 382 17 152ZM241 444C302 444 335 399 335 315C335 219 304 113 260 60C242 39 216 27 185 27C127 27 93 72 93 151C93 264 132 387 181 427C194 438 217 444 241 444Z" stroke="rgb(0,0,0)" stroke-opacity="1" stroke-width="8" fill="rgb(0,0,0)" fill-opacity="1"></path></g></g></g></g></g><g><g transform="matrix(1,0,0,1,17.6875,65.49999084472657)"><path transform="matrix(0.0119,0,0,-0.0119,0,0)" d="M105 664L161 662C185 661 196 653 196 635C196 621 192 589 187 559L112 125C96 34 94 32 54 28L13 25L9 -3L51 -2C98 0 117 0 141 0L238 -3L264 -3L267 25L218 28C191 30 182 38 182 58C182 67 183 76 186 93L287 648C316 654 336 656 363 656C450 656 496 617 496 543C496 448 418 378 314 378L270 378L267 367C401 172 432 124 507 -3C507 -3 592 0 592 0C593 0 607 -1 626 -3L639 -3L639 24C599 29 588 37 559 79L375 354C430 364 459 376 495 402C553 444 584 499 584 560C584 646 520 693 409 691L108 691Z" stroke="rgb(0,0,0)" stroke-opacity="1" stroke-width="8" fill="rgb(0,0,0)" fill-opacity="1"></path></g></g></g></g><g><g><g><g transform="matrix(1,0,0,1,7.78125,83.78124084472657)"><path transform="matrix(0.0119,0,0,-0.0119,0,0)" d="M16 23L16 -3C203 -3 203 0 239 0C275 0 275 -3 468 -3L468 82C353 77 307 81 122 77L304 270C401 373 431 428 431 503C431 618 353 689 226 689C154 689 105 669 56 619L39 483L68 483L81 529C97 587 133 612 200 612C286 612 341 558 341 473C341 398 299 324 186 204ZM831 222C841 251 847 268 846 263C767 261 690 262 612 262C631 349 686 438 786 438C846 438 868 420 895 369L915 369L956 422C781 592 512 361 512 155C512 42 578 -11 685 -11C762 -11 826 47 885 92L885 111C838 78 782 39 723 39C649 39 588 126 604 220C616 219 804 222 831 222Z" stroke="rgb(0,0,0)" stroke-opacity="1" stroke-width="8" fill="rgb(0,0,0)" fill-opacity="1"></path></g></g><g><g><g><g><g transform="matrix(1,0,0,1,19.612518310546875,86.28625305175781)"><path transform="matrix(0.00833,0,0,-0.00833,0,0)" d="M17 152C17 46 62 -11 145 -11C200 -11 260 15 305 57C367 116 411 230 411 331C411 425 361 482 278 482C174 482 17 382 17 152ZM241 444C302 444 335 399 335 315C335 219 304 113 260 60C242 39 216 27 185 27C127 27 93 72 93 151C93 264 132 387 181 427C194 438 217 444 241 444Z" stroke="rgb(0,0,0)" stroke-opacity="1" stroke-width="8" fill="rgb(0,0,0)" fill-opacity="1"></path></g></g></g></g></g></g></g><line style="fill:none;stroke-width:1px;stroke:rgb(0, 0, 0);" x1="6.1875" y1="71.90625" x2="25.618749618530273" y2="71.90625"></line></g></g></g><g><g><g><g><g><g><g transform="matrix(1,0,0,1,6.1875,107.49999084472657)"><path transform="matrix(0.0119,0,0,-0.0119,0,0)" d="M386 473C267 473 146 396 119 277C79 98 60 -97 34 -284C62 -283 92 -277 118 -266C116 -222 115 -145 145 29C169 -5 206 -15 247 -15C424 -15 522 168 525 325C527 420 482 473 386 473ZM347 441C426 441 446 380 445 311C444 203 398 11 260 11C182 11 164 72 166 138C168 243 210 441 347 441Z" stroke="rgb(0,0,0)" stroke-opacity="1" stroke-width="8" fill="rgb(0,0,0)" fill-opacity="1"></path></g></g><g><g><g><g><g transform="matrix(1,0,0,1,13.28125,110.00500305175781)"><path transform="matrix(0.00833,0,0,-0.00833,0,0)" d="M17 152C17 46 62 -11 145 -11C200 -11 260 15 305 57C367 116 411 230 411 331C411 425 361 482 278 482C174 482 17 382 17 152ZM241 444C302 444 335 399 335 315C335 219 304 113 260 60C242 39 216 27 185 27C127 27 93 72 93 151C93 264 132 387 181 427C194 438 217 444 241 444Z" stroke="rgb(0,0,0)" stroke-opacity="1" stroke-width="8" fill="rgb(0,0,0)" fill-opacity="1"></path></g></g></g></g></g><g><g transform="matrix(1,0,0,1,17.6875,107.49999084472657)"><path transform="matrix(0.0119,0,0,-0.0119,0,0)" d="M105 664L161 662C185 661 196 653 196 635C196 621 192 589 187 559L112 125C96 34 94 32 54 28L13 25L9 -3L51 -2C98 0 117 0 141 0L238 -3L264 -3L267 25L218 28C191 30 182 38 182 58C182 67 183 76 186 93L287 648C316 654 336 656 363 656C450 656 496 617 496 543C496 448 418 378 314 378L270 378L267 367C401 172 432 124 507 -3C507 -3 592 0 592 0C593 0 607 -1 626 -3L639 -3L639 24C599 29 588 37 559 79L375 354C430 364 459 376 495 402C553 444 584 499 584 560C584 646 520 693 409 691L108 691Z" stroke="rgb(0,0,0)" stroke-opacity="1" stroke-width="8" fill="rgb(0,0,0)" fill-opacity="1"></path></g></g></g></g><g><g><g><g transform="matrix(1,0,0,1,7.78125,125.78124084472657)"><path transform="matrix(0.0119,0,0,-0.0119,0,0)" d="M131 331C152 512 241 611 421 665L379 689C283 657 242 637 191 593C88 506 32 384 32 247C32 82 112 -20 241 -20C371 -20 468 83 468 219C468 334 399 409 293 409C216 409 184 370 131 331ZM255 349C331 349 382 283 382 184C382 80 331 13 254 13C169 13 123 86 123 220C123 255 127 274 138 291C160 325 207 349 255 349ZM831 222C841 251 847 268 846 263C767 261 690 262 612 262C631 349 686 438 786 438C846 438 868 420 895 369L915 369L956 422C781 592 512 361 512 155C512 42 578 -11 685 -11C762 -11 826 47 885 92L885 111C838 78 782 39 723 39C649 39 588 126 604 220C616 219 804 222 831 222Z" stroke="rgb(0,0,0)" stroke-opacity="1" stroke-width="8" fill="rgb(0,0,0)" fill-opacity="1"></path></g></g><g><g><g><g><g transform="matrix(1,0,0,1,19.612518310546875,128.28625305175783)"><path transform="matrix(0.00833,0,0,-0.00833,0,0)" d="M17 152C17 46 62 -11 145 -11C200 -11 260 15 305 57C367 116 411 230 411 331C411 425 361 482 278 482C174 482 17 382 17 152ZM241 444C302 444 335 399 335 315C335 219 304 113 260 60C242 39 216 27 185 27C127 27 93 72 93 151C93 264 132 387 181 427C194 438 217 444 241 444Z" stroke="rgb(0,0,0)" stroke-opacity="1" stroke-width="8" fill="rgb(0,0,0)" fill-opacity="1"></path></g></g></g></g></g></g></g><line style="fill:none;stroke-width:1px;stroke:rgb(0, 0, 0);" x1="6.1875" y1="113.90623474121094" x2="25.618749618530273" y2="113.90623474121094"></line></g></g></g><g><g><g><g transform="matrix(1,0,0,1,38,24.599990844726562)"><path transform="matrix(0.017,0,0,-0.017,0,0)" d="M221 334L338 334L470 330L489 375L485 382C404 378 344 376 266 376L229 376L276 646C308 647 391 650 413 650C475 650 516 641 517 626L525 537L549 537C552 601 559 651 570 689C549 691 519 692 501 692C498 692 487 692 463 691L343 690C334 689 160 691 150 691L105 692L102 664L156 662C180 661 191 653 191 635C191 621 187 589 182 559L95 55C91 37 79 30 35 23L30 -3L71 -2C102 -1 164 0 184 0L409 -3C423 -3 448 -2 481 -1L514 0L518 36C520 56 525 86 534 135L539 161L512 161L496 101C486 65 477 53 455 48C435 44 362 39 308 39C267 39 240 40 171 46Z" stroke="rgb(0,0,0)" stroke-opacity="1" stroke-width="8" fill="rgb(0,0,0)" fill-opacity="1"></path></g></g><g><g><g><g><g transform="matrix(1,0,0,1,48.881256103515625,28.006246948242186)"><path transform="matrix(0.0119,0,0,-0.0119,0,0)" d="M31 148C26 97 20 62 9 16C47 -2 81 -11 116 -11C165 -11 211 7 262 47C313 87 334 124 334 174C334 228 302 257 228 271L185 279C125 290 106 307 106 348C106 401 151 442 208 442C249 442 287 424 303 397L303 342L326 342C330 377 334 404 345 455C306 474 278 482 245 482C193 482 132 452 84 404C58 377 47 352 47 316C47 260 78 228 144 215L207 203C251 195 267 177 267 138C267 73 221 29 150 29C115 29 84 40 56 64L56 148Z" stroke="rgb(0,0,0)" stroke-opacity="1" stroke-width="8" fill="rgb(0,0,0)" fill-opacity="1"></path></g></g></g></g></g></g></g></svg>
</svg>
