<svg xmlns="http://www.w3.org/2000/svg" xmlns:xlink="http://www.w3.org/1999/xlink" x="0" y="0" width="662" height="414" style="
        width:662px;
        height:414px;
        background: transparent;
        fill: none;
">
        
        
        <svg xmlns="http://www.w3.org/2000/svg" class="role-diagram-draw-area"><g class="shapes-region" style="stroke: black; fill: none;"><g class="composite-shape"><path class="real" d=" M144.8,216 C144.8,175.71 176.68,143.05 216,143.05 C255.32,143.05 287.2,175.71 287.2,216 C287.2,256.29 255.32,288.95 216,288.95 C176.68,288.95 144.8,256.29 144.8,216 M108.12,216 C108.12,155.45 156.42,106.36 216,106.36 C275.58,106.36 323.88,155.45 323.88,216 C323.88,276.55 275.58,325.64 216,325.64 C156.42,325.64 108.12,276.55 108.12,216" style="stroke-width: 1; stroke: rgb(0, 0, 0); fill: rgb(215, 215, 215); fill-opacity: 0.3; fill-rule: evenodd;"/></g><g class="arrow-line"><path class="connection real" stroke-dasharray="" d="  M310.61,79.3 C324.97,55.63 328.14,64.28 339,72" style="stroke: rgb(0, 0, 0); stroke-width: 1; fill: none; fill-opacity: 1;"/><g stroke="none" fill="#000" transform="matrix(0.5039247371094587,-0.863747566902022,0.863747566902022,0.5039247371094587,309,82)" style="stroke: none; fill: rgb(0, 0, 0); stroke-width: 1;"><path d=" M7.14,-3.43 L0,0 L7.14,3.43 Z"/></g></g><g class="arrow-line"><path class="connection real" stroke-dasharray="" d="  M307.77,181.18 C325.15,155.36 371.63,133.39 396,144" style="stroke: rgb(0, 0, 0); stroke-width: 1; fill: none; fill-opacity: 1;"/><g stroke="none" fill="#000" transform="matrix(0.5039247371094587,-0.863747566902022,0.863747566902022,0.5039247371094587,306,184)" style="stroke: none; fill: rgb(0, 0, 0); stroke-width: 1;"><path d=" M7.14,-3.43 L0,0 L7.14,3.43 Z"/></g></g><g class="composite-shape"><defs><!-- react-text: 50981 --> <!-- /react-text --><pattern id="_pgffes509427" x="0" y="0" width="8" height="8" patternTransform="rotate(0,0,0)" patternUnits="userSpaceOnUse"><circle cx="4" cy="4" r="1" style="stroke: rgb(0, 0, 0); stroke-opacity: 1; stroke-width: 1; fill: none;"/></pattern></defs><path class="real" d=" M180,216 C180,196.12 196.12,180 216,180 C235.88,180 252,196.12 252,216 C252,235.88 235.88,252 216,252 C196.12,252 180,235.88 180,216 Z" style="stroke-width: 1; stroke: rgb(0, 0, 0); fill: url(&quot;#_pgffes509427&quot;); fill-opacity: 1;"/></g><g class="composite-shape"><defs><!-- react-text: 50987 --> <!-- /react-text --><pattern id="_pgfynqw6lsbu" x="0" y="0" width="28.284271247461902" height="28.284271247461902" patternTransform="rotate(45,0,0)" patternUnits="userSpaceOnUse"><path d="M0,0 L0,28.284271247461902" style="stroke: rgb(0, 0, 0); stroke-opacity: 1; stroke-width: 1; fill: none;"/><path d="M14.142135623730951,0 L14.142135623730951,28.284271247461902" style="stroke: rgb(0, 0, 0); stroke-opacity: 1; stroke-width: 1; fill: none;"/><path d="M28.284271247461902,0 L28.284271247461902,28.284271247461902" style="stroke: rgb(0, 0, 0); stroke-opacity: 1; stroke-width: 1; fill: none;"/><path d="M0,0 L28.284271247461902,0" style="stroke: rgb(0, 0, 0); stroke-opacity: 1; stroke-width: 1; fill: none;"/><path d="M0,14.142135623730951 L28.284271247461902,14.142135623730951" style="stroke: rgb(0, 0, 0); stroke-opacity: 1; stroke-width: 1; fill: none;"/><path d="M0,28.284271247461902 L28.284271247461902,28.284271247461902" style="stroke: rgb(0, 0, 0); stroke-opacity: 1; stroke-width: 1; fill: none;"/></pattern></defs><path class="real" d=" M72.8,217 C72.8,135.76 137.36,69.9 217,69.9 C296.64,69.9 361.2,135.76 361.2,217 C361.2,298.24 296.64,364.1 217,364.1 C137.36,364.1 72.8,298.24 72.8,217 M38.72,217 C38.72,116.94 118.54,35.82 217,35.82 C315.46,35.82 395.28,116.94 395.28,217 C395.28,317.06 315.46,398.18 217,398.18 C118.54,398.18 38.72,317.06 38.72,217" style="stroke-width: 1; stroke: rgb(0, 0, 0); fill: url(&quot;#_pgfynqw6lsbu&quot;); fill-opacity: 1; fill-rule: evenodd;"/></g><g class="arrow-line"><path class="connection real" stroke-dasharray="" d="  M375,334 C340.33,354.88 267.04,273.7 233.5,229.02" style="stroke: rgb(0, 0, 0); stroke-width: 1; fill: none; fill-opacity: 1;"/><g stroke="none" fill="#000" transform="matrix(0.595944602482519,0.8030255480194589,-0.8030255480194589,0.595944602482519,232.00000000000003,227)" style="stroke: none; fill: rgb(0, 0, 0); stroke-width: 1;"><path d=" M8.93,-4.29 L0,0 L8.93,4.29 Z"/></g></g><g/></g><g/><g/><g/></svg>
        <svg xmlns="http://www.w3.org/2000/svg" xmlns:xlink="http://www.w3.org/1999/xlink" width="660" height="412" style="width:660px;height:412px;font-family:Asana-Math, Asana;background:transparent;"><g><g><g><g transform="matrix(1,0,0,1,405,148.00001525878906)"><path transform="matrix(0.017,0,0,-0.017,0,0)" d="M22 342C22 126 180 -20 415 -20C498 -20 573 -2 642 34L670 84L661 94C599 54 530 34 454 34C259 34 129 164 129 361C129 545 243 667 415 667C513 667 614 627 614 588L614 516L645 516C646 566 650 602 664 668C579 696 506 709 433 709C218 709 22 582 22 342ZM987 469C841 469 740 366 740 217C740 76 829 -20 958 -20C1112 -20 1222 87 1222 237C1222 372 1124 469 987 469ZM969 436C1061 436 1129 336 1129 200C1129 85 1078 13 997 13C899 13 833 109 833 251C833 371 881 436 969 436ZM1663 -3C1724 0 1725 0 1742 0C1756 0 1756 0 1825 -3L1825 27L1784 30C1750 32 1747 38 1747 102L1747 295C1747 412 1692 469 1580 469C1543 469 1522 462 1501 444L1425 378L1425 465L1416 469C1365 448 1313 434 1260 428L1260 400L1297 400C1337 400 1341 393 1341 327L1341 102C1341 39 1338 32 1304 30L1259 27L1259 -3C1327 -1 1354 0 1383 0C1412 0 1439 -1 1507 -3L1507 27L1462 30C1428 32 1425 39 1425 102L1425 314C1425 359 1491 408 1552 408C1619 408 1663 358 1663 281ZM2413 -3L2413 27L2367 30C2333 32 2330 39 2330 102L2330 718L2321 726C2277 709 2244 701 2165 689L2165 661L2221 661C2239 661 2246 650 2246 620L2246 437C2218 472 2180 486 2140 486C2017 486 1868 351 1868 229C1868 149 1896 70 1945 30C1979 1 2026 -12 2091 -12C2111 -12 2134 -8 2139 -4L2250 89L2245 -3C2294 -1 2310 0 2322 0C2340 0 2404 -3 2413 -3ZM2246 350L2246 221C2246 156 2244 146 2231 123C2203 76 2154 45 2107 45C2019 45 1956 130 1956 249C1956 358 2010 422 2100 422C2179 422 2246 366 2246 350ZM2727 49C2647 49 2627 94 2627 170L2627 465L2618 469C2567 448 2515 434 2462 428L2462 400L2499 400C2539 400 2543 393 2543 327L2543 159C2543 70 2548 -12 2684 -12C2729 -12 2769 2 2796 27L2863 89C2863 60 2862 44 2859 -3C2926 0 2927 0 2942 0C2956 0 2956 0 3025 -3L3025 27L2984 30C2950 32 2947 38 2947 102L2947 465L2938 469C2887 448 2835 434 2782 428L2782 400L2819 400C2859 400 2863 393 2863 327L2863 164C2863 126 2814 49 2727 49ZM3445 311C3445 357 3450 398 3459 434C3427 478 3384 497 3339 497C3215 497 3071 361 3071 224C3071 219 3072 215 3072 210C3072 75 3167 -20 3301 -20C3353 -20 3428 -1 3438 14L3459 46L3449 61C3412 41 3380 32 3344 32C3233 32 3160 118 3160 250C3160 357 3210 417 3300 417C3344 417 3392 397 3410 372L3417 311ZM3587 382L3587 94C3587 20 3620 -12 3697 -12C3720 -12 3744 -7 3750 0L3798 53L3785 70C3760 56 3745 51 3726 51C3687 51 3671 71 3671 120L3671 382L3799 382L3808 436L3671 430L3671 468C3671 510 3674 546 3682 610L3670 621C3646 606 3616 593 3585 583C3588 553 3589 534 3589 504L3589 434L3511 399L3511 378ZM4002 465L3993 469C3942 448 3890 434 3837 428L3837 400L3874 400C3914 400 3918 393 3918 327L3918 102C3918 39 3915 32 3881 30L3835 27L3835 -3C3935 0 3935 0 3960 0C3985 0 3985 0 4085 -3L4085 27L4039 30C4005 32 4002 39 4002 102ZM3956 687C3926 687 3900 661 3900 631C3900 602 3926 576 3955 576C3984 576 4011 602 4011 631C4011 659 3984 687 3956 687ZM4514 -3C4575 0 4576 0 4593 0C4607 0 4607 0 4676 -3L4676 27L4635 30C4601 32 4598 38 4598 102L4598 295C4598 412 4543 469 4431 469C4394 469 4373 462 4352 444L4276 378L4276 465L4267 469C4216 448 4164 434 4111 428L4111 400L4148 400C4188 400 4192 393 4192 327L4192 102C4192 39 4189 32 4155 30L4110 27L4110 -3C4178 -1 4205 0 4234 0C4263 0 4290 -1 4358 -3L4358 27L4313 30C4279 32 4276 39 4276 102L4276 314C4276 359 4342 408 4403 408C4470 408 4514 358 4514 281ZM4740 289C4740 215 4786 164 4860 156L4781 95C4771 80 4766 67 4766 52C4766 24 4784 8 4832 -6L4745 -53C4731 -61 4717 -98 4717 -129C4717 -220 4806 -283 4933 -283C5084 -283 5203 -188 5203 -66C5203 6 5155 56 5085 56L4925 56C4873 56 4849 68 4849 95C4849 118 4878 135 4895 152C4905 151 4911 150 4919 150C4980 150 5123 197 5123 324C5123 344 5120 357 5112 378L5204 378L5229 419L5225 431L5083 427C5046 457 5010 469 4961 469C4886 469 4740 424 4740 289ZM4925 435C4993 435 5039 379 5039 294C5039 229 4997 184 4936 184C4869 184 4824 236 4824 313C4824 390 4861 435 4925 435ZM4972 -14C5085 -14 5124 -37 5124 -102C5124 -188 5045 -252 4940 -252C4853 -252 4793 -201 4793 -127C4793 -82 4819 -41 4859 -24C4875 -16 4903 -14 4972 -14ZM5530 143C5530 74 5527 44 5519 4C5571 -13 5610 -20 5656 -20C5787 -20 5880 50 5880 148C5880 321 5596 228 5596 358C5596 408 5631 436 5692 436C5759 436 5810 401 5810 354L5810 331L5838 331C5839 389 5840 413 5843 444C5790 462 5754 469 5713 469C5597 469 5526 414 5526 324C5526 276 5548 242 5594 221C5712 169 5806 195 5806 109C5806 55 5756 17 5685 17C5612 17 5560 52 5560 102L5560 143ZM5919 661L5975 661C5993 661 6000 650 6000 620L6000 102C6000 39 5997 32 5963 30L5918 27L5918 -3C5986 -1 6013 0 6042 0C6071 0 6098 -1 6166 -3L6166 27L6121 30C6087 32 6084 39 6084 102L6084 314C6084 359 6150 408 6211 408C6278 408 6322 358 6322 281L6322 -3C6383 0 6384 0 6401 0C6415 0 6415 0 6484 -3L6484 27L6443 30C6409 32 6406 38 6406 102L6406 295C6406 412 6320 470 6235 470C6173 470 6112 439 6084 378L6084 718L6075 726C6031 709 5998 701 5919 689ZM6743 -20C6808 -20 6898 18 6910 36L6930 70L6917 80C6853 42 6830 33 6787 33C6722 33 6668 62 6640 111C6621 144 6614 172 6612 230C6633 227 6663 226 6697 226C6783 226 6892 234 6939 244C6940 258 6941 267 6941 279C6941 394 6867 469 6755 469C6718 469 6673 464 6633 440C6551 392 6519 323 6519 219C6519 25 6654 -20 6743 -20ZM6852 267C6828 264 6777 261 6726 261C6683 261 6640 264 6614 270C6614 317 6618 339 6631 365C6652 409 6695 436 6743 436C6776 436 6802 423 6820 396C6842 363 6849 334 6852 267ZM6994 661L7050 661C7068 661 7075 650 7075 620L7075 102C7075 39 7072 32 7038 30L6992 27L6992 -3C7092 0 7092 0 7117 0C7142 0 7142 0 7242 -3L7242 27L7196 30C7162 32 7159 39 7159 102L7159 718L7150 726C7106 709 7073 701 6994 689ZM7284 661L7340 661C7358 661 7365 650 7365 620L7365 102C7365 39 7362 32 7328 30L7282 27L7282 -3C7382 0 7382 0 7407 0C7432 0 7432 0 7532 -3L7532 27L7486 30C7452 32 7449 39 7449 102L7449 718L7440 726C7396 709 7363 701 7284 689Z" stroke="rgb(0,0,0)" stroke-opacity="1" stroke-width="8" fill="rgb(0,0,0)" fill-opacity="1"></path></g></g></g></g><g><g><g><g transform="matrix(1,0,0,1,341,69)"><path transform="matrix(0.017,0,0,-0.017,0,0)" d="M23 692L23 662L68 659C113 656 121 643 121 569L121 120C121 41 116 33 70 30L22 27L22 -3C81 -1 116 0 168 0C220 0 256 -1 315 -3L315 27L267 30C221 33 216 41 216 120L216 642C251 650 280 654 314 654C422 654 480 604 480 509C480 419 419 356 332 356C311 356 296 358 270 366L280 330C304 325 318 324 338 324C475 324 580 417 580 537C580 633 502 692 375 692C358 692 307 689 205 689C183 689 183 689 23 692ZM882 469C736 469 635 366 635 217C635 76 724 -20 853 -20C1007 -20 1117 87 1117 237C1117 372 1019 469 882 469ZM864 436C956 436 1024 336 1024 200C1024 85 973 13 892 13C794 13 728 109 728 251C728 371 776 436 864 436ZM1171 661L1227 661C1245 661 1252 650 1252 620L1252 102C1252 39 1249 32 1215 30L1169 27L1169 -3C1269 0 1269 0 1294 0C1319 0 1319 0 1419 -3L1419 27L1373 30C1339 32 1336 39 1336 102L1336 718L1327 726C1283 709 1250 701 1171 689ZM1762 82L1757 -3C1822 0 1822 0 1835 0C1840 0 1865 -1 1909 -3L1909 27L1870 29C1846 30 1842 38 1842 87L1842 270C1842 416 1800 469 1684 469C1641 469 1601 458 1563 435L1510 403L1510 338L1536 331L1549 362C1570 409 1580 416 1626 416C1720 416 1759 379 1762 288L1663 270C1527 245 1470 198 1470 111C1470 33 1517 -12 1596 -12C1614 -12 1631 -9 1638 -4ZM1762 124C1733 83 1670 45 1631 45C1591 45 1556 82 1556 125C1556 162 1576 197 1606 216C1631 231 1686 245 1762 256ZM1960 400L1997 400C2037 400 2041 393 2041 327L2041 102C2041 39 2038 32 2004 30L1958 27L1958 -3C2030 -1 2056 0 2081 0C2101 0 2101 0 2224 -3L2224 27L2172 30C2127 33 2125 36 2125 102L2125 274C2125 334 2165 384 2214 384C2244 384 2265 370 2281 338L2302 338L2311 458C2300 465 2282 469 2264 469C2234 469 2202 453 2181 428L2125 362L2125 465L2116 469C2065 448 2013 434 1960 428ZM2519 465L2510 469C2459 448 2407 434 2354 428L2354 400L2391 400C2431 400 2435 393 2435 327L2435 102C2435 39 2432 32 2398 30L2352 27L2352 -3C2452 0 2452 0 2477 0C2502 0 2502 0 2602 -3L2602 27L2556 30C2522 32 2519 39 2519 102ZM2473 687C2443 687 2417 661 2417 631C2417 602 2443 576 2472 576C2501 576 2528 602 2528 631C2528 659 2501 687 2473 687ZM3076 432L3076 462C3006 460 2976 459 2938 459L2690 462C2688 411 2687 399 2681 330L2711 330L2723 398C2727 419 2745 424 2819 424L2962 424C2941 391 2924 368 2897 334L2727 122L2637 17L2643 -3C2747 0 2753 0 2796 0L3072 -3C3072 20 3074 44 3081 92L3087 139L3057 139L3039 60C3035 42 2993 35 2897 35L2762 35ZM3370 -20C3435 -20 3525 18 3537 36L3557 70L3544 80C3480 42 3457 33 3414 33C3349 33 3295 62 3267 111C3248 144 3241 172 3239 230C3260 227 3290 226 3324 226C3410 226 3519 234 3566 244C3567 258 3568 267 3568 279C3568 394 3494 469 3382 469C3345 469 3300 464 3260 440C3178 392 3146 323 3146 219C3146 25 3281 -20 3370 -20ZM3479 267C3455 264 3404 261 3353 261C3310 261 3267 264 3241 270C3241 317 3245 339 3258 365C3279 409 3322 436 3370 436C3403 436 3429 423 3447 396C3469 363 3476 334 3479 267ZM4177 -3L4177 27L4131 30C4097 32 4094 39 4094 102L4094 718L4085 726C4041 709 4008 701 3929 689L3929 661L3985 661C4003 661 4010 650 4010 620L4010 437C3982 472 3944 486 3904 486C3781 486 3632 351 3632 229C3632 149 3660 70 3709 30C3743 1 3790 -12 3855 -12C3875 -12 3898 -8 3903 -4L4014 89L4009 -3C4058 -1 4074 0 4086 0C4104 0 4168 -3 4177 -3ZM4010 350L4010 221C4010 156 4008 146 3995 123C3967 76 3918 45 3871 45C3783 45 3720 130 3720 249C3720 358 3774 422 3864 422C3943 422 4010 366 4010 350ZM4498 143C4498 74 4495 44 4487 4C4539 -13 4578 -20 4624 -20C4755 -20 4848 50 4848 148C4848 321 4564 228 4564 358C4564 408 4599 436 4660 436C4727 436 4778 401 4778 354L4778 331L4806 331C4807 389 4808 413 4811 444C4758 462 4722 469 4681 469C4565 469 4494 414 4494 324C4494 276 4516 242 4562 221C4680 169 4774 195 4774 109C4774 55 4724 17 4653 17C4580 17 4528 52 4528 102L4528 143ZM4887 661L4943 661C4961 661 4968 650 4968 620L4968 102C4968 39 4965 32 4931 30L4886 27L4886 -3C4954 -1 4981 0 5010 0C5039 0 5066 -1 5134 -3L5134 27L5089 30C5055 32 5052 39 5052 102L5052 314C5052 359 5118 408 5179 408C5246 408 5290 358 5290 281L5290 -3C5351 0 5352 0 5369 0C5383 0 5383 0 5452 -3L5452 27L5411 30C5377 32 5374 38 5374 102L5374 295C5374 412 5288 470 5203 470C5141 470 5080 439 5052 378L5052 718L5043 726C4999 709 4966 701 4887 689ZM5711 -20C5776 -20 5866 18 5878 36L5898 70L5885 80C5821 42 5798 33 5755 33C5690 33 5636 62 5608 111C5589 144 5582 172 5580 230C5601 227 5631 226 5665 226C5751 226 5860 234 5907 244C5908 258 5909 267 5909 279C5909 394 5835 469 5723 469C5686 469 5641 464 5601 440C5519 392 5487 323 5487 219C5487 25 5622 -20 5711 -20ZM5820 267C5796 264 5745 261 5694 261C5651 261 5608 264 5582 270C5582 317 5586 339 5599 365C5620 409 5663 436 5711 436C5744 436 5770 423 5788 396C5810 363 5817 334 5820 267ZM5962 661L6018 661C6036 661 6043 650 6043 620L6043 102C6043 39 6040 32 6006 30L5960 27L5960 -3C6060 0 6060 0 6085 0C6110 0 6110 0 6210 -3L6210 27L6164 30C6130 32 6127 39 6127 102L6127 718L6118 726C6074 709 6041 701 5962 689ZM6252 661L6308 661C6326 661 6333 650 6333 620L6333 102C6333 39 6330 32 6296 30L6250 27L6250 -3C6350 0 6350 0 6375 0C6400 0 6400 0 6500 -3L6500 27L6454 30C6420 32 6417 39 6417 102L6417 718L6408 726C6364 709 6331 701 6252 689Z" stroke="rgb(0,0,0)" stroke-opacity="1" stroke-width="8" fill="rgb(0,0,0)" fill-opacity="1"></path></g></g></g></g><g><g><g><g transform="matrix(1,0,0,1,387,340.00001525878906)"><path transform="matrix(0.017,0,0,-0.017,0,0)" d="M22 342C22 126 180 -20 415 -20C498 -20 573 -2 642 34L670 84L661 94C599 54 530 34 454 34C259 34 129 164 129 361C129 545 243 667 415 667C513 667 614 627 614 588L614 516L645 516C646 566 650 602 664 668C579 696 506 709 433 709C218 709 22 582 22 342ZM715 661L771 661C789 661 796 650 796 620L796 102C796 39 793 32 759 30L714 27L714 -3C782 -1 809 0 838 0C867 0 894 -1 962 -3L962 27L917 30C883 32 880 39 880 102L880 314C880 359 946 408 1007 408C1074 408 1118 358 1118 281L1118 -3C1179 0 1180 0 1197 0C1211 0 1211 0 1280 -3L1280 27L1239 30C1205 32 1202 38 1202 102L1202 295C1202 412 1116 470 1031 470C969 470 908 439 880 378L880 718L871 726C827 709 794 701 715 689ZM1613 82L1608 -3C1673 0 1673 0 1686 0C1691 0 1716 -1 1760 -3L1760 27L1721 29C1697 30 1693 38 1693 87L1693 270C1693 416 1651 469 1535 469C1492 469 1452 458 1414 435L1361 403L1361 338L1387 331L1400 362C1421 409 1431 416 1477 416C1571 416 1610 379 1613 288L1514 270C1378 245 1321 198 1321 111C1321 33 1368 -12 1447 -12C1465 -12 1482 -9 1489 -4ZM1613 124C1584 83 1521 45 1482 45C1442 45 1407 82 1407 125C1407 162 1427 197 1457 216C1482 231 1537 245 1613 256ZM1811 400L1848 400C1888 400 1892 393 1892 327L1892 102C1892 39 1889 32 1855 30L1809 27L1809 -3C1881 -1 1907 0 1932 0C1952 0 1952 0 2075 -3L2075 27L2023 30C1978 33 1976 36 1976 102L1976 274C1976 334 2016 384 2065 384C2095 384 2116 370 2132 338L2153 338L2162 458C2151 465 2133 469 2115 469C2085 469 2053 453 2032 428L1976 362L1976 465L1967 469C1916 448 1864 434 1811 428ZM2237 289C2237 215 2283 164 2357 156L2278 95C2268 80 2263 67 2263 52C2263 24 2281 8 2329 -6L2242 -53C2228 -61 2214 -98 2214 -129C2214 -220 2303 -283 2430 -283C2581 -283 2700 -188 2700 -66C2700 6 2652 56 2582 56L2422 56C2370 56 2346 68 2346 95C2346 118 2375 135 2392 152C2402 151 2408 150 2416 150C2477 150 2620 197 2620 324C2620 344 2617 357 2609 378L2701 378L2726 419L2722 431L2580 427C2543 457 2507 469 2458 469C2383 469 2237 424 2237 289ZM2422 435C2490 435 2536 379 2536 294C2536 229 2494 184 2433 184C2366 184 2321 236 2321 313C2321 390 2358 435 2422 435ZM2469 -14C2582 -14 2621 -37 2621 -102C2621 -188 2542 -252 2437 -252C2350 -252 2290 -201 2290 -127C2290 -82 2316 -41 2356 -24C2372 -16 2400 -14 2469 -14ZM2987 -20C3052 -20 3142 18 3154 36L3174 70L3161 80C3097 42 3074 33 3031 33C2966 33 2912 62 2884 111C2865 144 2858 172 2856 230C2877 227 2907 226 2941 226C3027 226 3136 234 3183 244C3184 258 3185 267 3185 279C3185 394 3111 469 2999 469C2962 469 2917 464 2877 440C2795 392 2763 323 2763 219C2763 25 2898 -20 2987 -20ZM3096 267C3072 264 3021 261 2970 261C2927 261 2884 264 2858 270C2858 317 2862 339 2875 365C2896 409 2939 436 2987 436C3020 436 3046 423 3064 396C3086 363 3093 334 3096 267ZM3794 -3L3794 27L3748 30C3714 32 3711 39 3711 102L3711 718L3702 726C3658 709 3625 701 3546 689L3546 661L3602 661C3620 661 3627 650 3627 620L3627 437C3599 472 3561 486 3521 486C3398 486 3249 351 3249 229C3249 149 3277 70 3326 30C3360 1 3407 -12 3472 -12C3492 -12 3515 -8 3520 -4L3631 89L3626 -3C3675 -1 3691 0 3703 0C3721 0 3785 -3 3794 -3ZM3627 350L3627 221C3627 156 3625 146 3612 123C3584 76 3535 45 3488 45C3400 45 3337 130 3337 249C3337 358 3391 422 3481 422C3560 422 3627 366 3627 350ZM4115 143C4115 74 4112 44 4104 4C4156 -13 4195 -20 4241 -20C4372 -20 4465 50 4465 148C4465 321 4181 228 4181 358C4181 408 4216 436 4277 436C4344 436 4395 401 4395 354L4395 331L4423 331C4424 389 4425 413 4428 444C4375 462 4339 469 4298 469C4182 469 4111 414 4111 324C4111 276 4133 242 4179 221C4297 169 4391 195 4391 109C4391 55 4341 17 4270 17C4197 17 4145 52 4145 102L4145 143ZM4776 469C4630 469 4529 366 4529 217C4529 76 4618 -20 4747 -20C4901 -20 5011 87 5011 237C5011 372 4913 469 4776 469ZM4758 436C4850 436 4918 336 4918 200C4918 85 4867 13 4786 13C4688 13 4622 109 4622 251C4622 371 4670 436 4758 436ZM5065 661L5121 661C5139 661 5146 650 5146 620L5146 102C5146 39 5143 32 5109 30L5063 27L5063 -3C5163 0 5163 0 5188 0C5213 0 5213 0 5313 -3L5313 27L5267 30C5233 32 5230 39 5230 102L5230 718L5221 726C5177 709 5144 701 5065 689ZM5520 465L5511 469C5460 448 5408 434 5355 428L5355 400L5392 400C5432 400 5436 393 5436 327L5436 102C5436 39 5433 32 5399 30L5353 27L5353 -3C5453 0 5453 0 5478 0C5503 0 5503 0 5603 -3L5603 27L5557 30C5523 32 5520 39 5520 102ZM5474 687C5444 687 5418 661 5418 631C5418 602 5444 576 5473 576C5502 576 5529 602 5529 631C5529 659 5502 687 5474 687ZM6201 -3L6201 27L6155 30C6121 32 6118 39 6118 102L6118 718L6109 726C6065 709 6032 701 5953 689L5953 661L6009 661C6027 661 6034 650 6034 620L6034 437C6006 472 5968 486 5928 486C5805 486 5656 351 5656 229C5656 149 5684 70 5733 30C5767 1 5814 -12 5879 -12C5899 -12 5922 -8 5927 -4L6038 89L6033 -3C6082 -1 6098 0 6110 0C6128 0 6192 -3 6201 -3ZM6034 350L6034 221C6034 156 6032 146 6019 123C5991 76 5942 45 5895 45C5807 45 5744 130 5744 249C5744 358 5798 422 5888 422C5967 422 6034 366 6034 350ZM6522 143C6522 74 6519 44 6511 4C6563 -13 6602 -20 6648 -20C6779 -20 6872 50 6872 148C6872 321 6588 228 6588 358C6588 408 6623 436 6684 436C6751 436 6802 401 6802 354L6802 331L6830 331C6831 389 6832 413 6835 444C6782 462 6746 469 6705 469C6589 469 6518 414 6518 324C6518 276 6540 242 6586 221C6704 169 6798 195 6798 109C6798 55 6748 17 6677 17C6604 17 6552 52 6552 102L6552 143ZM6914 400L6951 400C6991 400 6995 393 6995 327L6995 -176C6995 -239 6992 -246 6958 -248L6912 -251L6912 -281C7012 -278 7012 -278 7037 -278C7062 -278 7062 -278 7162 -281L7162 -251L7116 -248C7082 -246 7079 -239 7079 -176L7079 13C7127 -10 7171 -21 7212 -21C7363 -21 7460 121 7460 242C7460 252 7459 261 7458 271C7456 401 7359 477 7258 477C7191 477 7123 443 7079 369L7079 465L7070 469C7019 448 6967 434 6914 428ZM7217 404C7311 404 7371 338 7371 234C7371 122 7304 39 7214 39C7159 39 7118 57 7079 98L7079 306C7079 337 7126 404 7217 404ZM7511 661L7567 661C7585 661 7592 650 7592 620L7592 102C7592 39 7589 32 7555 30L7510 27L7510 -3C7578 -1 7605 0 7634 0C7663 0 7690 -1 7758 -3L7758 27L7713 30C7679 32 7676 39 7676 102L7676 314C7676 359 7742 408 7803 408C7870 408 7914 358 7914 281L7914 -3C7975 0 7976 0 7993 0C8007 0 8007 0 8076 -3L8076 27L8035 30C8001 32 7998 38 7998 102L7998 295C7998 412 7912 470 7827 470C7765 470 7704 439 7676 378L7676 718L7667 726C7623 709 7590 701 7511 689ZM8335 -20C8400 -20 8490 18 8502 36L8522 70L8509 80C8445 42 8422 33 8379 33C8314 33 8260 62 8232 111C8213 144 8206 172 8204 230C8225 227 8255 226 8289 226C8375 226 8484 234 8531 244C8532 258 8533 267 8533 279C8533 394 8459 469 8347 469C8310 469 8265 464 8225 440C8143 392 8111 323 8111 219C8111 25 8246 -20 8335 -20ZM8444 267C8420 264 8369 261 8318 261C8275 261 8232 264 8206 270C8206 317 8210 339 8223 365C8244 409 8287 436 8335 436C8368 436 8394 423 8412 396C8434 363 8441 334 8444 267ZM8586 400L8623 400C8663 400 8667 393 8667 327L8667 102C8667 39 8664 32 8630 30L8584 27L8584 -3C8656 -1 8682 0 8707 0C8727 0 8727 0 8850 -3L8850 27L8798 30C8753 33 8751 36 8751 102L8751 274C8751 334 8791 384 8840 384C8870 384 8891 370 8907 338L8928 338L8937 458C8926 465 8908 469 8890 469C8860 469 8828 453 8807 428L8751 362L8751 465L8742 469C8691 448 8639 434 8586 428ZM9207 -20C9272 -20 9362 18 9374 36L9394 70L9381 80C9317 42 9294 33 9251 33C9186 33 9132 62 9104 111C9085 144 9078 172 9076 230C9097 227 9127 226 9161 226C9247 226 9356 234 9403 244C9404 258 9405 267 9405 279C9405 394 9331 469 9219 469C9182 469 9137 464 9097 440C9015 392 8983 323 8983 219C8983 25 9118 -20 9207 -20ZM9316 267C9292 264 9241 261 9190 261C9147 261 9104 264 9078 270C9078 317 9082 339 9095 365C9116 409 9159 436 9207 436C9240 436 9266 423 9284 396C9306 363 9313 334 9316 267Z" stroke="rgb(0,0,0)" stroke-opacity="1" stroke-width="8" fill="rgb(0,0,0)" fill-opacity="1"></path></g></g></g></g></svg>
</svg>
