<svg xmlns="http://www.w3.org/2000/svg" xmlns:xlink="http://www.w3.org/1999/xlink" x="0" y="0" width="662" height="466" style="
        width:662px;
        height:466px;
        background: transparent;
        fill: none;
">
        
        
        <svg xmlns="http://www.w3.org/2000/svg" class="role-diagram-draw-area"><g class="shapes-region" style="stroke: black; fill: none;"><g class="composite-shape" data-amt="diagram/shapes/plot" transform="matrix(1,0,0,1,18.00000000000003,178.58620689655172)"><g><g/><g><g class="test-yti" style="font-family: Asana-Math, Asana;"><line x1="67.21406121526215" y1="4" x2="67.21406121526215" y2="132.41379310344828" fill="none" stroke="rgb(50,50,50)" stroke-opacity="1" stroke-width="1"/><line x1="63.21406121526215" y1="100.81728907931534" x2="71.21406121526215" y2="100.81728907931534" fill="none" stroke="rgb(50,50,50)" stroke-opacity="1" stroke-width="1"/><path d="M63.61406121526215,9 L67.21406121526215,1 L70.81406121526214,9 Z" stroke="none" stroke-width="1" fill="rgb(50,50,50)" fill-opacity="1"/></g><g class="test-plot-expression"><defs><clipPath id="cpvsvzr1h8m"><rect x="1" y="1" width="269" height="130.41379310344828"/></clipPath></defs><g clip-path="url(#cpvsvzr1h8m)"><path d=" M0.00,49.05 L0.12,49.05 L0.25,49.05 L0.37,49.05 L0.50,49.05 L0.62,49.05 L0.75,49.05 L0.87,49.05 L0.99,49.05 L1.12,49.05 L1.24,49.05 L1.37,49.05 L1.49,49.05 L1.62,49.05 L1.74,49.05 L1.86,49.05 L1.99,49.05 L2.11,49.05 L2.24,49.05 L2.36,49.05 L2.48,49.05 L2.61,49.05 L2.73,49.05 L2.86,49.05 L2.98,49.05 L3.11,49.05 L3.23,49.05 L3.35,49.05 L3.48,49.05 L3.60,49.05 L3.73,49.05 L3.85,49.05 L3.98,49.05 L4.10,49.05 L4.22,49.05 L4.35,49.05 L4.47,49.05 L4.60,49.05 L4.72,49.05 L4.85,49.05 L4.97,49.05 L5.09,49.05 L5.22,49.05 L5.34,49.05 L5.47,49.05 L5.59,49.05 L5.72,49.05 L5.84,49.05 L5.96,49.05 L6.09,49.05 L6.21,49.05 L6.34,49.05 L6.46,49.05 L6.58,49.05 L6.71,49.05 L6.83,49.05 L6.96,49.05 L7.08,49.05 L7.21,49.05 L7.33,49.05 L7.45,49.05 L7.58,49.05 L7.70,49.05 L7.83,49.05 L7.95,49.05 L8.08,49.05 L8.20,49.05 L8.32,49.05 L8.45,49.05 L8.57,49.05 L8.70,49.05 L8.82,49.05 L8.95,49.05 L9.07,49.05 L9.19,49.05 L9.32,49.05 L9.44,49.05 L9.57,49.05 L9.69,49.05 L9.81,49.05 L9.94,49.05 L10.06,49.05 L10.19,49.05 L10.31,49.05 L10.44,49.05 L10.56,49.05 L10.68,49.05 L10.81,49.05 L10.93,49.05 L11.06,49.05 L11.18,49.05 L11.31,49.05 L11.43,49.05 L11.55,49.05 L11.68,49.05 L11.80,49.05 L11.93,49.05 L12.05,49.05 L12.18,49.05 L12.30,49.05 L12.42,49.05 L12.55,49.05 L12.67,49.05 L12.80,49.05 L12.92,49.05 L13.05,49.05 L13.17,49.05 L13.29,49.05 L13.42,49.05 L13.54,49.05 L13.67,49.05 L13.79,49.05 L13.91,49.05 L14.04,49.05 L14.16,49.05 L14.29,49.05 L14.41,49.05 L14.54,49.05 L14.66,49.05 L14.78,49.05 L14.91,49.05 L15.03,49.05 L15.16,49.05 L15.28,49.05 L15.41,49.05 L15.53,49.05 L15.65,49.05 L15.78,49.05 L15.90,49.05 L16.03,49.05 L16.15,49.05 L16.28,49.05 L16.40,49.05 L16.52,49.05 L16.65,49.05 L16.77,49.05 L16.90,49.05 L17.02,49.05 L17.15,49.05 L17.27,49.05 L17.39,49.05 L17.52,49.05 L17.64,49.05 L17.77,49.05 L17.89,49.05 L18.01,49.05 L18.14,49.05 L18.26,49.05 L18.39,49.05 L18.51,49.05 L18.64,49.05 L18.76,49.05 L18.88,49.05 L19.01,49.05 L19.13,49.05 L19.26,49.05 L19.38,49.05 L19.51,49.05 L19.63,49.05 L19.75,49.05 L19.88,49.05 L20.00,49.05 L20.13,49.05 L20.25,49.05 L20.38,49.05 L20.50,49.05 L20.62,49.05 L20.75,49.05 L20.87,49.05 L21.00,49.05 L21.12,49.05 L21.25,49.05 L21.37,49.05 L21.49,49.05 L21.62,49.05 L21.74,49.05 L21.87,49.05 L21.99,49.05 L22.11,49.05 L22.24,49.05 L22.36,49.05 L22.49,49.05 L22.61,49.05 L22.74,49.05 L22.86,49.05 L22.98,49.05 L23.11,49.05 L23.23,49.05 L23.36,49.05 L23.48,49.05 L23.61,49.05 L23.73,49.05 L23.85,49.05 L23.98,49.05 L24.10,49.05 L24.23,49.05 L24.35,49.05 L24.48,49.05 L24.60,49.05 L24.72,49.05 L24.85,49.05 L24.97,49.05 L25.10,49.05 L25.22,49.05 L25.35,49.05 L25.47,49.05 L25.59,49.05 L25.72,49.05 L25.84,49.05 L25.97,49.05 L26.09,49.05 L26.21,49.05 L26.34,49.05 L26.46,49.05 L26.59,49.05 L26.71,49.05 L26.84,49.05 L26.96,49.05 L27.08,49.05 L27.21,49.05 L27.33,49.05 L27.46,49.05 L27.58,49.05 L27.71,49.05 L27.83,49.05 L27.95,49.05 L28.08,49.05 L28.20,49.05 L28.33,49.05 L28.45,49.05 L28.58,49.05 L28.70,49.05 L28.82,49.05 L28.95,49.05 L29.07,49.05 L29.20,49.05 L29.32,49.05 L29.44,49.05 L29.57,49.05 L29.69,49.05 L29.82,49.05 L29.94,49.05 L30.07,49.05 L30.19,49.05 L30.31,49.05 L30.44,49.05 L30.56,49.05 L30.69,49.05 L30.81,49.05 L30.94,49.05 L31.06,49.05 L31.18,49.05 L31.31,49.05 L31.43,49.05 L31.56,49.05 L31.68,49.05 L31.81,49.05 L31.93,49.05 L32.05,49.05 L32.18,49.05 L32.30,49.05 L32.43,49.05 L32.55,49.05 L32.68,49.05 L32.80,49.05 L32.92,49.05 L33.05,49.05 L33.17,49.05 L33.30,49.05 L33.42,49.05 L33.54,49.05 L33.67,49.05 L33.79,49.05 L33.92,49.05 L34.04,49.05 L34.17,49.05 L34.29,49.05 L34.41,49.05 L34.54,49.05 L34.66,49.05 L34.79,49.05 L34.91,49.05 L35.04,49.05 L35.16,49.05 L35.28,49.05 L35.41,49.05 L35.53,49.05 L35.66,49.05 L35.78,49.05 L35.91,49.05 L36.03,49.05 L36.15,49.05 L36.28,49.05 L36.40,49.05 L36.53,49.05 L36.65,49.05 L36.78,49.05 L36.90,49.05 L37.02,49.05 L37.15,49.05 L37.27,49.05 L37.40,49.05 L37.52,49.05 L37.64,49.05 L37.77,49.05 L37.89,49.05 L38.02,49.05 L38.14,49.05 L38.27,49.05 L38.39,49.05 L38.51,49.05 L38.64,49.05 L38.76,49.05 L38.89,49.05 L39.01,49.05 L39.14,49.05 L39.26,49.05 L39.38,49.05 L39.51,49.05 L39.63,49.05 L39.76,49.05 L39.88,49.05 L40.01,49.05 L40.13,49.05 L40.25,49.05 L40.38,49.05 L40.50,49.05 L40.63,49.05 L40.75,49.05 L40.88,49.05 L41.00,49.05 L41.12,49.05 L41.25,49.05 L41.37,49.05 L41.50,49.05 L41.62,49.05 L41.74,49.05 L41.87,49.05 L41.99,49.05 L42.12,49.05 L42.24,49.05 L42.37,49.05 L42.49,49.05 L42.61,49.05 L42.74,49.05 L42.86,49.05 L42.99,49.05 L43.11,49.05 L43.24,49.05 L43.36,49.05 L43.48,49.05 L43.61,49.05 L43.73,49.05 L43.86,49.05 L43.98,49.05 L44.11,49.05 L44.23,49.05 L44.35,49.05 L44.48,49.05 L44.60,49.05 L44.73,49.05 L44.85,49.05 L44.98,49.05 L45.10,49.05 L45.22,49.05 L45.35,49.05 L45.47,49.05 L45.60,49.05 L45.72,49.05 L45.84,49.05 L45.97,49.05 L46.09,49.05 L46.22,49.05 L46.34,49.05 L46.47,49.05 L46.59,49.05 L46.71,49.05 L46.84,49.05 L46.96,49.05 L47.09,49.05 L47.21,49.05 L47.34,49.05 L47.46,49.05 L47.58,49.05 L47.71,49.05 L47.83,49.05 L47.96,49.05 L48.08,49.05 L48.21,49.05 L48.33,49.05 L48.45,49.05 L48.58,49.05 L48.70,49.05 L48.83,49.05 L48.95,49.05 L49.07,49.05 L49.20,49.05 L49.32,49.05 L49.45,49.05 L49.57,49.05 L49.70,49.05 L49.82,49.05 L49.94,49.05 L50.07,49.05 L50.19,49.05 L50.32,49.05 L50.44,49.05 L50.57,49.05 L50.69,49.05 L50.81,49.05 L50.94,49.05 L51.06,49.05 L51.19,49.05 L51.31,49.05 L51.44,49.05 L51.56,49.05 L51.68,49.05 L51.81,49.05 L51.93,49.05 L52.06,49.05 L52.18,49.05 L52.31,49.05 L52.43,49.05 L52.55,49.05 L52.68,49.05 L52.80,49.05 L52.93,49.05 L53.05,49.05 L53.17,49.05 L53.30,49.05 L53.42,49.05 L53.55,49.05 L53.67,49.05 L53.80,49.05 L53.92,49.05 L54.04,49.05 L54.17,49.05 L54.29,49.05 L54.42,49.05 L54.54,49.05 L54.67,49.05 L54.79,49.05 L54.91,49.05 L55.04,49.05 L55.16,49.05 L55.29,49.05 L55.41,49.05 L55.54,49.05 L55.66,49.05 L55.78,49.05 L55.91,49.05 L56.03,49.05 L56.16,49.05 L56.28,49.05 L56.41,49.05 L56.53,49.05 L56.65,49.05 L56.78,49.05 L56.90,49.05 L57.03,49.05 L57.15,49.05 L57.27,49.05 L57.40,49.05 L57.52,49.05 L57.65,49.05 L57.77,49.05 L57.90,49.05 L58.02,49.05 L58.14,49.05 L58.27,49.05 L58.39,49.05 L58.52,49.05 L58.64,49.05 L58.77,49.05 L58.89,49.05 L59.01,49.05 L59.14,49.05 L59.26,49.05 L59.39,49.05 L59.51,49.05 L59.64,49.05 L59.76,49.05 L59.88,49.05 L60.01,49.05 L60.13,49.05 L60.26,49.05 L60.38,49.05 L60.51,49.05 L60.63,49.05 L60.75,49.05 L60.88,49.05 L61.00,49.05 L61.13,49.05 L61.25,49.05 L61.37,49.05 L61.50,49.05 L61.62,49.05 L61.75,49.05 L61.87,49.05 L62.00,49.05 L62.12,49.05 L62.24,49.05 L62.37,49.05 L62.49,49.05 L62.62,49.05 L62.74,49.05 L62.87,49.05 L62.99,49.05 L63.11,49.05 L63.24,49.05 L63.36,49.05 L63.49,49.05 L63.61,49.05 L63.74,49.05 L63.86,49.05 L63.98,49.05 L64.11,49.05 L64.23,49.05 L64.36,49.05 L64.48,49.05 L64.61,49.05 L64.73,49.05 L64.85,49.05 L64.98,49.05 L65.10,49.05 L65.23,49.05 L65.35,49.05 L65.47,49.05 L65.60,49.05 L65.72,49.05 L65.85,49.05 L65.97,49.05 L66.10,49.05 L66.22,49.05 L66.34,49.05 L66.47,49.05 L66.59,49.05 L66.72,49.05 L66.84,49.05 L66.97,49.05 L67.09,49.05 L67.21,49.05" style="stroke-width: 2; stroke: rgb(0, 0, 0); stroke-opacity: 1;"/><path d=" M67.21,100.82 L67.31,100.82 L67.41,100.82 L67.50,100.82 L67.60,100.82 L67.69,100.82 L67.79,100.82 L67.88,100.82 L67.98,100.82 L68.08,100.82 L68.17,100.82 L68.27,100.82 L68.36,100.82 L68.46,100.82 L68.55,100.82 L68.65,100.82 L68.75,100.82 L68.84,100.82 L68.94,100.82 L69.03,100.82 L69.13,100.82 L69.22,100.82 L69.32,100.82 L69.42,100.82 L69.51,100.82 L69.61,100.82 L69.70,100.82 L69.80,100.82 L69.89,100.82 L69.99,100.82 L70.08,100.82 L70.18,100.82 L70.28,100.82 L70.37,100.82 L70.47,100.82 L70.56,100.82 L70.66,100.82 L70.75,100.82 L70.85,100.82 L70.95,100.82 L71.04,100.82 L71.14,100.82 L71.23,100.82 L71.33,100.82 L71.42,100.82 L71.52,100.82 L71.62,100.82 L71.71,100.82 L71.81,100.82 L71.90,100.82 L72.00,100.82 L72.09,100.82 L72.19,100.82 L72.29,100.82 L72.38,100.82 L72.48,100.82 L72.57,100.82 L72.67,100.82 L72.76,100.82 L72.86,100.82 L72.96,100.82 L73.05,100.82 L73.15,100.82 L73.24,100.82 L73.34,100.82 L73.43,100.82 L73.53,100.82 L73.63,100.82 L73.72,100.82 L73.82,100.82 L73.91,100.82 L74.01,100.82 L74.10,100.82 L74.20,100.82 L74.30,100.82 L74.39,100.82 L74.49,100.82 L74.58,100.82 L74.68,100.82 L74.77,100.82 L74.87,100.82 L74.97,100.82 L75.06,100.82 L75.16,100.82 L75.25,100.82 L75.35,100.82 L75.44,100.82 L75.54,100.82 L75.64,100.82 L75.73,100.82 L75.83,100.82 L75.92,100.82 L76.02,100.82 L76.11,100.82 L76.21,100.82 L76.31,100.82 L76.40,100.82 L76.50,100.82 L76.59,100.82 L76.69,100.82 L76.78,100.82 L76.88,100.82 L76.98,100.82 L77.07,100.82 L77.17,100.82 L77.26,100.82 L77.36,100.82 L77.45,100.82 L77.55,100.82 L77.65,100.82 L77.74,100.82 L77.84,100.82 L77.93,100.82 L78.03,100.82 L78.12,100.82 L78.22,100.82 L78.31,100.82 L78.41,100.82 L78.51,100.82 L78.60,100.82 L78.70,100.82 L78.79,100.82 L78.89,100.82 L78.98,100.82 L79.08,100.82 L79.18,100.82 L79.27,100.82 L79.37,100.82 L79.46,100.82 L79.56,100.82 L79.65,100.82 L79.75,100.82 L79.85,100.82 L79.94,100.82 L80.04,100.82 L80.13,100.82 L80.23,100.82 L80.32,100.82 L80.42,100.82 L80.52,100.82 L80.61,100.82 L80.71,100.82 L80.80,100.82 L80.90,100.82 L80.99,100.82 L81.09,100.82 L81.19,100.82 L81.28,100.82 L81.38,100.82 L81.47,100.82 L81.57,100.82 L81.66,100.82 L81.76,100.82 L81.86,100.82 L81.95,100.82 L82.05,100.82 L82.14,100.82 L82.24,100.82 L82.33,100.82 L82.43,100.82 L82.53,100.82 L82.62,100.82 L82.72,100.82 L82.81,100.82 L82.91,100.82 L83.00,100.82 L83.10,100.82 L83.20,100.82 L83.29,100.82 L83.39,100.82 L83.48,100.82 L83.58,100.82 L83.67,100.82 L83.77,100.82 L83.87,100.82 L83.96,100.82 L84.06,100.82 L84.15,100.82 L84.25,100.82 L84.34,100.82 L84.44,100.82 L84.54,100.82 L84.63,100.82 L84.73,100.82 L84.82,100.82 L84.92,100.82 L85.01,100.82 L85.11,100.82 L85.21,100.82 L85.30,100.82 L85.40,100.82 L85.49,100.82 L85.59,100.82 L85.68,100.82 L85.78,100.82 L85.87,100.82 L85.97,100.82 L86.07,100.82 L86.16,100.82 L86.26,100.82 L86.35,100.82 L86.45,100.82 L86.54,100.82 L86.64,100.82 L86.74,100.82 L86.83,100.82 L86.93,100.82 L87.02,100.82 L87.12,100.82 L87.21,100.82 L87.31,100.82 L87.41,100.82 L87.50,100.82 L87.60,100.82 L87.69,100.82 L87.79,100.82 L87.88,100.82 L87.98,100.82 L88.08,100.82 L88.17,100.82 L88.27,100.82 L88.36,100.82 L88.46,100.82 L88.55,100.82 L88.65,100.82 L88.75,100.82 L88.84,100.82 L88.94,100.82 L89.03,100.82 L89.13,100.82 L89.22,100.82 L89.32,100.82 L89.42,100.82 L89.51,100.82 L89.61,100.82 L89.70,100.82 L89.80,100.82 L89.89,100.82 L89.99,100.82 L90.09,100.82 L90.18,100.82 L90.28,100.82 L90.37,100.82 L90.47,100.82 L90.56,100.82 L90.66,100.82 L90.76,100.82 L90.85,100.82 L90.95,100.82 L91.04,100.82 L91.14,100.82 L91.23,100.82 L91.33,100.82 L91.43,100.82 L91.52,100.82 L91.62,100.82 L91.71,100.82 L91.81,100.82 L91.90,100.82 L92.00,100.82 L92.10,100.82 L92.19,100.82 L92.29,100.82 L92.38,100.82 L92.48,100.82 L92.57,100.82 L92.67,100.82 L92.77,100.82 L92.86,100.82 L92.96,100.82 L93.05,100.82 L93.15,100.82 L93.24,100.82 L93.34,100.82 L93.43,100.82 L93.53,100.82 L93.63,100.82 L93.72,100.82 L93.82,100.82 L93.91,100.82 L94.01,100.82 L94.10,100.82 L94.20,100.82 L94.30,100.82 L94.39,100.82 L94.49,100.82 L94.58,100.82 L94.68,100.82 L94.77,100.82 L94.87,100.82 L94.97,100.82 L95.06,100.82 L95.16,100.82 L95.25,100.82 L95.35,100.82 L95.44,100.82 L95.54,100.82 L95.64,100.82 L95.73,100.82 L95.83,100.82 L95.92,100.82 L96.02,100.82 L96.11,100.82 L96.21,100.82 L96.31,100.82 L96.40,100.82 L96.50,100.82 L96.59,100.82 L96.69,100.82 L96.78,100.82 L96.88,100.82 L96.98,100.82 L97.07,100.82 L97.17,100.82 L97.26,100.82 L97.36,100.82 L97.45,100.82 L97.55,100.82 L97.65,100.82 L97.74,100.82 L97.84,100.82 L97.93,100.82 L98.03,100.82 L98.12,100.82 L98.22,100.82 L98.32,100.82 L98.41,100.82 L98.51,100.82 L98.60,100.82 L98.70,100.82 L98.79,100.82 L98.89,100.82 L98.99,100.82 L99.08,100.82 L99.18,100.82 L99.27,100.82 L99.37,100.82 L99.46,100.82 L99.56,100.82 L99.66,100.82 L99.75,100.82 L99.85,100.82 L99.94,100.82 L100.04,100.82 L100.13,100.82 L100.23,100.82 L100.33,100.82 L100.42,100.82 L100.52,100.82 L100.61,100.82 L100.71,100.82 L100.80,100.82 L100.90,100.82 L101.00,100.82 L101.09,100.82 L101.19,100.82 L101.28,100.82 L101.38,100.82 L101.47,100.82 L101.57,100.82 L101.66,100.82 L101.76,100.82 L101.86,100.82 L101.95,100.82 L102.05,100.82 L102.14,100.82 L102.24,100.82 L102.33,100.82 L102.43,100.82 L102.53,100.82 L102.62,100.82 L102.72,100.82 L102.81,100.82 L102.91,100.82 L103.00,100.82 L103.10,100.82 L103.20,100.82 L103.29,100.82 L103.39,100.82 L103.48,100.82 L103.58,100.82 L103.67,100.82 L103.77,100.82 L103.87,100.82 L103.96,100.82 L104.06,100.82 L104.15,100.82 L104.25,100.82 L104.34,100.82 L104.44,100.82 L104.54,100.82 L104.63,100.82 L104.73,100.82 L104.82,100.82 L104.92,100.82 L105.01,100.82 L105.11,100.82 L105.21,100.82 L105.30,100.82 L105.40,100.82 L105.49,100.82 L105.59,100.82 L105.68,100.82 L105.78,100.82 L105.88,100.82 L105.97,100.82 L106.07,100.82 L106.16,100.82 L106.26,100.82 L106.35,100.82 L106.45,100.82 L106.55,100.82 L106.64,100.82 L106.74,100.82 L106.83,100.82 L106.93,100.82 L107.02,100.82 L107.12,100.82 L107.22,100.82 L107.31,100.82 L107.41,100.82 L107.50,100.82 L107.60,100.82 L107.69,100.82 L107.79,100.82 L107.89,100.82 L107.98,100.82 L108.08,100.82 L108.17,100.82 L108.27,100.82 L108.36,100.82 L108.46,100.82 L108.56,100.82 L108.65,100.82 L108.75,100.82 L108.84,100.82 L108.94,100.82 L109.03,100.82 L109.13,100.82 L109.22,100.82 L109.32,100.82 L109.42,100.82 L109.51,100.82 L109.61,100.82 L109.70,100.82 L109.80,100.82 L109.89,100.82 L109.99,100.82 L110.09,100.82 L110.18,100.82 L110.28,100.82 L110.37,100.82 L110.47,100.82 L110.56,100.82 L110.66,100.82 L110.76,100.82 L110.85,100.82 L110.95,100.82 L111.04,100.82 L111.14,100.82 L111.23,100.82 L111.33,100.82 L111.43,100.82 L111.52,100.82 L111.62,100.82 L111.71,100.82 L111.81,100.82 L111.90,100.82 L112.00,100.82 L112.10,100.82 L112.19,100.82 L112.29,100.82 L112.38,100.82 L112.48,100.82 L112.57,100.82 L112.67,100.82 L112.77,100.82 L112.86,100.82 L112.96,100.82 L113.05,100.82 L113.15,100.82 L113.24,100.82 L113.34,100.82 L113.44,100.82 L113.53,100.82 L113.63,100.82 L113.72,100.82 L113.82,100.82 L113.91,100.82 L114.01,100.82 L114.11,100.82 L114.20,100.82 L114.30,100.82 L114.39,100.82 L114.49,100.82 L114.58,100.82 L114.68,100.82 L114.78,100.82 L114.87,100.82 L114.97,100.82 L115.06,100.82 L115.16,100.82 L115.25,100.82 L115.35,100.82 L115.45,100.82 L115.54,100.82 L115.64,100.82 L115.73,100.82 L115.83,100.82 L115.92,100.82 L116.02,100.82 L116.12,100.82 L116.21,100.82 L116.31,100.82 L116.40,100.82 L116.50,100.82 L116.59,100.82 L116.69,100.82 L116.79,100.82 L116.88,100.82 L116.98,100.82 L117.07,100.82 L117.17,100.82 L117.26,100.82 L117.36,100.82 L117.45,100.82 L117.55,100.82 L117.65,100.82 L117.74,100.82 L117.84,100.82 L117.93,100.82 L118.03,100.82 L118.12,100.82 L118.22,100.82 L118.32,100.82 L118.41,100.82 L118.51,100.82 L118.60,100.82 L118.70,100.82 L118.79,100.82 L118.89,100.82 L118.99,100.82" style="stroke-width: 2; stroke: rgb(0, 0, 0); stroke-opacity: 1;"/><path d=" M118.99,49.05 L119.08,49.05 L119.18,49.05 L119.27,49.05 L119.37,49.05 L119.46,49.05 L119.56,49.05 L119.66,49.05 L119.75,49.05 L119.85,49.05 L119.94,49.05 L120.04,49.05 L120.13,49.05 L120.23,49.05 L120.33,49.05 L120.42,49.05 L120.52,49.05 L120.61,49.05 L120.71,49.05 L120.80,49.05 L120.90,49.05 L121.00,49.05 L121.09,49.05 L121.19,49.05 L121.28,49.05 L121.38,49.05 L121.47,49.05 L121.57,49.05 L121.67,49.05 L121.76,49.05 L121.86,49.05 L121.95,49.05 L122.05,49.05 L122.14,49.05 L122.24,49.05 L122.34,49.05 L122.43,49.05 L122.53,49.05 L122.62,49.05 L122.72,49.05 L122.81,49.05 L122.91,49.05 L123.01,49.05 L123.10,49.05 L123.20,49.05 L123.29,49.05 L123.39,49.05 L123.48,49.05 L123.58,49.05 L123.68,49.05 L123.77,49.05 L123.87,49.05 L123.96,49.05 L124.06,49.05 L124.15,49.05 L124.25,49.05 L124.35,49.05 L124.44,49.05 L124.54,49.05 L124.63,49.05 L124.73,49.05 L124.82,49.05 L124.92,49.05 L125.01,49.05 L125.11,49.05 L125.21,49.05 L125.30,49.05 L125.40,49.05 L125.49,49.05 L125.59,49.05 L125.68,49.05 L125.78,49.05 L125.88,49.05 L125.97,49.05 L126.07,49.05 L126.16,49.05 L126.26,49.05 L126.35,49.05 L126.45,49.05 L126.55,49.05 L126.64,49.05 L126.74,49.05 L126.83,49.05 L126.93,49.05 L127.02,49.05 L127.12,49.05 L127.22,49.05 L127.31,49.05 L127.41,49.05 L127.50,49.05 L127.60,49.05 L127.69,49.05 L127.79,49.05 L127.89,49.05 L127.98,49.05 L128.08,49.05 L128.17,49.05 L128.27,49.05 L128.36,49.05 L128.46,49.05 L128.56,49.05 L128.65,49.05 L128.75,49.05 L128.84,49.05 L128.94,49.05 L129.03,49.05 L129.13,49.05 L129.23,49.05 L129.32,49.05 L129.42,49.05 L129.51,49.05 L129.61,49.05 L129.70,49.05 L129.80,49.05 L129.90,49.05 L129.99,49.05 L130.09,49.05 L130.18,49.05 L130.28,49.05 L130.37,49.05 L130.47,49.05 L130.57,49.05 L130.66,49.05 L130.76,49.05 L130.85,49.05 L130.95,49.05 L131.04,49.05 L131.14,49.05 L131.24,49.05 L131.33,49.05 L131.43,49.05 L131.52,49.05 L131.62,49.05 L131.71,49.05 L131.81,49.05 L131.91,49.05 L132.00,49.05 L132.10,49.05 L132.19,49.05 L132.29,49.05 L132.38,49.05 L132.48,49.05 L132.57,49.05 L132.67,49.05 L132.77,49.05 L132.86,49.05 L132.96,49.05 L133.05,49.05 L133.15,49.05 L133.24,49.05 L133.34,49.05 L133.44,49.05 L133.53,49.05 L133.63,49.05 L133.72,49.05 L133.82,49.05 L133.91,49.05 L134.01,49.05 L134.11,49.05 L134.20,49.05 L134.30,49.05 L134.39,49.05 L134.49,49.05 L134.58,49.05 L134.68,49.05 L134.78,49.05 L134.87,49.05 L134.97,49.05 L135.06,49.05 L135.16,49.05 L135.25,49.05 L135.35,49.05 L135.45,49.05 L135.54,49.05 L135.64,49.05 L135.73,49.05 L135.83,49.05 L135.92,49.05 L136.02,49.05 L136.12,49.05 L136.21,49.05 L136.31,49.05 L136.40,49.05 L136.50,49.05 L136.59,49.05 L136.69,49.05 L136.79,49.05 L136.88,49.05 L136.98,49.05 L137.07,49.05 L137.17,49.05 L137.26,49.05 L137.36,49.05 L137.46,49.05 L137.55,49.05 L137.65,49.05 L137.74,49.05 L137.84,49.05 L137.93,49.05 L138.03,49.05 L138.13,49.05 L138.22,49.05 L138.32,49.05 L138.41,49.05 L138.51,49.05 L138.60,49.05 L138.70,49.05 L138.80,49.05 L138.89,49.05 L138.99,49.05 L139.08,49.05 L139.18,49.05 L139.27,49.05 L139.37,49.05 L139.47,49.05 L139.56,49.05 L139.66,49.05 L139.75,49.05 L139.85,49.05 L139.94,49.05 L140.04,49.05 L140.14,49.05 L140.23,49.05 L140.33,49.05 L140.42,49.05 L140.52,49.05 L140.61,49.05 L140.71,49.05 L140.80,49.05 L140.90,49.05 L141.00,49.05 L141.09,49.05 L141.19,49.05 L141.28,49.05 L141.38,49.05 L141.47,49.05 L141.57,49.05 L141.67,49.05 L141.76,49.05 L141.86,49.05 L141.95,49.05 L142.05,49.05 L142.14,49.05 L142.24,49.05 L142.34,49.05 L142.43,49.05 L142.53,49.05 L142.62,49.05 L142.72,49.05 L142.81,49.05 L142.91,49.05 L143.01,49.05 L143.10,49.05 L143.20,49.05 L143.29,49.05 L143.39,49.05 L143.48,49.05 L143.58,49.05 L143.68,49.05 L143.77,49.05 L143.87,49.05 L143.96,49.05 L144.06,49.05 L144.15,49.05 L144.25,49.05 L144.35,49.05 L144.44,49.05 L144.54,49.05 L144.63,49.05 L144.73,49.05 L144.82,49.05 L144.92,49.05 L145.02,49.05 L145.11,49.05 L145.21,49.05 L145.30,49.05 L145.40,49.05 L145.49,49.05 L145.59,49.05 L145.69,49.05 L145.78,49.05 L145.88,49.05 L145.97,49.05 L146.07,49.05 L146.16,49.05 L146.26,49.05 L146.36,49.05 L146.45,49.05 L146.55,49.05 L146.64,49.05 L146.74,49.05 L146.83,49.05 L146.93,49.05 L147.03,49.05 L147.12,49.05 L147.22,49.05 L147.31,49.05 L147.41,49.05 L147.50,49.05 L147.60,49.05 L147.70,49.05 L147.79,49.05 L147.89,49.05 L147.98,49.05 L148.08,49.05 L148.17,49.05 L148.27,49.05 L148.36,49.05 L148.46,49.05 L148.56,49.05 L148.65,49.05 L148.75,49.05 L148.84,49.05 L148.94,49.05 L149.03,49.05 L149.13,49.05 L149.23,49.05 L149.32,49.05 L149.42,49.05 L149.51,49.05 L149.61,49.05 L149.70,49.05 L149.80,49.05 L149.90,49.05 L149.99,49.05 L150.09,49.05 L150.18,49.05 L150.28,49.05 L150.37,49.05 L150.47,49.05 L150.57,49.05 L150.66,49.05 L150.76,49.05 L150.85,49.05 L150.95,49.05 L151.04,49.05 L151.14,49.05 L151.24,49.05 L151.33,49.05 L151.43,49.05 L151.52,49.05 L151.62,49.05 L151.71,49.05 L151.81,49.05 L151.91,49.05 L152.00,49.05 L152.10,49.05 L152.19,49.05 L152.29,49.05 L152.38,49.05 L152.48,49.05 L152.58,49.05 L152.67,49.05 L152.77,49.05 L152.86,49.05 L152.96,49.05 L153.05,49.05 L153.15,49.05 L153.25,49.05 L153.34,49.05 L153.44,49.05 L153.53,49.05 L153.63,49.05 L153.72,49.05 L153.82,49.05 L153.92,49.05 L154.01,49.05 L154.11,49.05 L154.20,49.05 L154.30,49.05 L154.39,49.05 L154.49,49.05 L154.59,49.05 L154.68,49.05 L154.78,49.05 L154.87,49.05 L154.97,49.05 L155.06,49.05 L155.16,49.05 L155.26,49.05 L155.35,49.05 L155.45,49.05 L155.54,49.05 L155.64,49.05 L155.73,49.05 L155.83,49.05 L155.93,49.05 L156.02,49.05 L156.12,49.05 L156.21,49.05 L156.31,49.05 L156.40,49.05 L156.50,49.05 L156.59,49.05 L156.69,49.05 L156.79,49.05 L156.88,49.05 L156.98,49.05 L157.07,49.05 L157.17,49.05 L157.26,49.05 L157.36,49.05 L157.46,49.05 L157.55,49.05 L157.65,49.05 L157.74,49.05 L157.84,49.05 L157.93,49.05 L158.03,49.05 L158.13,49.05 L158.22,49.05 L158.32,49.05 L158.41,49.05 L158.51,49.05 L158.60,49.05 L158.70,49.05 L158.80,49.05 L158.89,49.05 L158.99,49.05 L159.08,49.05 L159.18,49.05 L159.27,49.05 L159.37,49.05 L159.47,49.05 L159.56,49.05 L159.66,49.05 L159.75,49.05 L159.85,49.05 L159.94,49.05 L160.04,49.05 L160.14,49.05 L160.23,49.05 L160.33,49.05 L160.42,49.05 L160.52,49.05 L160.61,49.05 L160.71,49.05 L160.81,49.05 L160.90,49.05 L161.00,49.05 L161.09,49.05 L161.19,49.05 L161.28,49.05 L161.38,49.05 L161.48,49.05 L161.57,49.05 L161.67,49.05 L161.76,49.05 L161.86,49.05 L161.95,49.05 L162.05,49.05 L162.15,49.05 L162.24,49.05 L162.34,49.05 L162.43,49.05 L162.53,49.05 L162.62,49.05 L162.72,49.05 L162.82,49.05 L162.91,49.05 L163.01,49.05 L163.10,49.05 L163.20,49.05 L163.29,49.05 L163.39,49.05 L163.49,49.05 L163.58,49.05 L163.68,49.05 L163.77,49.05 L163.87,49.05 L163.96,49.05 L164.06,49.05 L164.15,49.05 L164.25,49.05 L164.35,49.05 L164.44,49.05 L164.54,49.05 L164.63,49.05 L164.73,49.05 L164.82,49.05 L164.92,49.05 L165.02,49.05 L165.11,49.05 L165.21,49.05 L165.30,49.05 L165.40,49.05 L165.49,49.05 L165.59,49.05 L165.69,49.05 L165.78,49.05 L165.88,49.05 L165.97,49.05 L166.07,49.05 L166.16,49.05 L166.26,49.05 L166.36,49.05 L166.45,49.05 L166.55,49.05 L166.64,49.05 L166.74,49.05 L166.83,49.05 L166.93,49.05 L167.03,49.05 L167.12,49.05 L167.22,49.05 L167.31,49.05 L167.41,49.05 L167.50,49.05 L167.60,49.05 L167.70,49.05 L167.79,49.05 L167.89,49.05 L167.98,49.05 L168.08,49.05 L168.17,49.05 L168.27,49.05 L168.37,49.05 L168.46,49.05 L168.56,49.05 L168.65,49.05 L168.75,49.05 L168.84,49.05 L168.94,49.05 L169.04,49.05 L169.13,49.05 L169.23,49.05 L169.32,49.05 L169.42,49.05 L169.51,49.05 L169.61,49.05 L169.71,49.05 L169.80,49.05 L169.90,49.05 L169.99,49.05 L170.09,49.05 L170.18,49.05 L170.28,49.05 L170.38,49.05 L170.47,49.05 L170.57,49.05 L170.66,49.05 L170.76,49.05" style="stroke-width: 2; stroke: rgb(0, 0, 0); stroke-opacity: 1;"/></g></g><g class="test-ytl" style="font-family: &quot;Open Sans&quot;, verdana, arial, sans-serif;"/><rect class="real" x="1" y="1" width="269" height="130.41379310344828" style="fill: transparent; stroke: none;"/></g></g></g><g class="arrow-line"><path class="connection real" stroke-dasharray="" d="  M138,220.09 L138,232.09" style="stroke: rgb(0, 0, 0); stroke-width: 1; fill: none; fill-opacity: 1;"/></g><g class="composite-shape"><path class="real" d=" M62,4 L82,4 L82,154 L62,154 Z" style="stroke-width: 1; stroke: rgb(0, 0, 0); stroke-opacity: 1; fill: rgb(155, 155, 155); fill-opacity: 1;"/></g><g class="composite-shape"><path class="real" d=" M138,4 L158,4 L158,154 L138,154 Z" style="stroke-width: 1; stroke: rgb(0, 0, 0); stroke-opacity: 1; fill: rgb(155, 155, 155); fill-opacity: 1;"/></g><g class="arrow-line"><path class="connection real" stroke-dasharray="" d="  M20,228.09 L205,228.09" style="stroke: rgb(0, 0, 0); stroke-width: 1; fill: none; fill-opacity: 1;"/><g stroke="none" fill="#000" transform="matrix(-1,1.2246467991473532e-16,-1.2246467991473532e-16,-1,207.99999999999997,228.0874938964844)" style="stroke: none; fill: rgb(0, 0, 0); stroke-width: 1;"><path d=" M8.93,-4.29 L0,0 L8.93,4.29 Z"/></g></g><g class="composite-shape" data-amt="diagram/shapes/plot" transform="matrix(1,0,0,1,18.00000000000003,328.58620689655174)"><g><g/><g><g class="test-yti" style="font-family: Asana-Math, Asana;"><line x1="66.21406121526215" y1="4" x2="66.21406121526215" y2="132.41379310344826" fill="none" stroke="rgb(50,50,50)" stroke-opacity="1" stroke-width="1"/><line x1="62.21406121526215" y1="49.273329583476595" x2="70.21406121526215" y2="49.273329583476595" fill="none" stroke="rgb(50,50,50)" stroke-opacity="1" stroke-width="1"/><path d="M62.61406121526215,9 L66.21406121526215,1 L69.81406121526214,9 Z" stroke="none" stroke-width="1" fill="rgb(50,50,50)" fill-opacity="1"/></g><g class="test-plot-expression"><defs><clipPath id="cprajowb4y2"><rect x="1" y="1" width="269" height="130.41379310344826"/></clipPath></defs><g clip-path="url(#cprajowb4y2)"><path d=" M0.00,101.05 L0.12,101.05 L0.24,101.05 L0.37,101.05 L0.49,101.05 L0.61,101.05 L0.73,101.05 L0.86,101.05 L0.98,101.05 L1.10,101.05 L1.22,101.05 L1.35,101.05 L1.47,101.05 L1.59,101.05 L1.71,101.05 L1.84,101.05 L1.96,101.05 L2.08,101.05 L2.20,101.05 L2.33,101.05 L2.45,101.05 L2.57,101.05 L2.69,101.05 L2.82,101.05 L2.94,101.05 L3.06,101.05 L3.18,101.05 L3.30,101.05 L3.43,101.05 L3.55,101.05 L3.67,101.05 L3.79,101.05 L3.92,101.05 L4.04,101.05 L4.16,101.05 L4.28,101.05 L4.41,101.05 L4.53,101.05 L4.65,101.05 L4.77,101.05 L4.90,101.05 L5.02,101.05 L5.14,101.05 L5.26,101.05 L5.39,101.05 L5.51,101.05 L5.63,101.05 L5.75,101.05 L5.87,101.05 L6.00,101.05 L6.12,101.05 L6.24,101.05 L6.36,101.05 L6.49,101.05 L6.61,101.05 L6.73,101.05 L6.85,101.05 L6.98,101.05 L7.10,101.05 L7.22,101.05 L7.34,101.05 L7.47,101.05 L7.59,101.05 L7.71,101.05 L7.83,101.05 L7.96,101.05 L8.08,101.05 L8.20,101.05 L8.32,101.05 L8.45,101.05 L8.57,101.05 L8.69,101.05 L8.81,101.05 L8.93,101.05 L9.06,101.05 L9.18,101.05 L9.30,101.05 L9.42,101.05 L9.55,101.05 L9.67,101.05 L9.79,101.05 L9.91,101.05 L10.04,101.05 L10.16,101.05 L10.28,101.05 L10.40,101.05 L10.53,101.05 L10.65,101.05 L10.77,101.05 L10.89,101.05 L11.02,101.05 L11.14,101.05 L11.26,101.05 L11.38,101.05 L11.50,101.05 L11.63,101.05 L11.75,101.05 L11.87,101.05 L11.99,101.05 L12.12,101.05 L12.24,101.05 L12.36,101.05 L12.48,101.05 L12.61,101.05 L12.73,101.05 L12.85,101.05 L12.97,101.05 L13.10,101.05 L13.22,101.05 L13.34,101.05 L13.46,101.05 L13.59,101.05 L13.71,101.05 L13.83,101.05 L13.95,101.05 L14.08,101.05 L14.20,101.05 L14.32,101.05 L14.44,101.05 L14.56,101.05 L14.69,101.05 L14.81,101.05 L14.93,101.05 L15.05,101.05 L15.18,101.05 L15.30,101.05 L15.42,101.05 L15.54,101.05 L15.67,101.05 L15.79,101.05 L15.91,101.05 L16.03,101.05 L16.16,101.05 L16.28,101.05 L16.40,101.05 L16.52,101.05 L16.65,101.05 L16.77,101.05 L16.89,101.05 L17.01,101.05 L17.13,101.05 L17.26,101.05 L17.38,101.05 L17.50,101.05 L17.62,101.05 L17.75,101.05 L17.87,101.05 L17.99,101.05 L18.11,101.05 L18.24,101.05 L18.36,101.05 L18.48,101.05 L18.60,101.05 L18.73,101.05 L18.85,101.05 L18.97,101.05 L19.09,101.05 L19.22,101.05 L19.34,101.05 L19.46,101.05 L19.58,101.05 L19.71,101.05 L19.83,101.05 L19.95,101.05 L20.07,101.05 L20.19,101.05 L20.32,101.05 L20.44,101.05 L20.56,101.05 L20.68,101.05 L20.81,101.05 L20.93,101.05 L21.05,101.05 L21.17,101.05 L21.30,101.05 L21.42,101.05 L21.54,101.05 L21.66,101.05 L21.79,101.05 L21.91,101.05 L22.03,101.05 L22.15,101.05 L22.28,101.05 L22.40,101.05 L22.52,101.05 L22.64,101.05 L22.76,101.05 L22.89,101.05 L23.01,101.05 L23.13,101.05 L23.25,101.05 L23.38,101.05 L23.50,101.05 L23.62,101.05 L23.74,101.05 L23.87,101.05 L23.99,101.05 L24.11,101.05 L24.23,101.05 L24.36,101.05 L24.48,101.05 L24.60,101.05 L24.72,101.05 L24.85,101.05 L24.97,101.05 L25.09,101.05 L25.21,101.05 L25.34,101.05 L25.46,101.05 L25.58,101.05 L25.70,101.05 L25.82,101.05 L25.95,101.05 L26.07,101.05 L26.19,101.05 L26.31,101.05 L26.44,101.05 L26.56,101.05 L26.68,101.05 L26.80,101.05 L26.93,101.05 L27.05,101.05 L27.17,101.05 L27.29,101.05 L27.42,101.05 L27.54,101.05 L27.66,101.05 L27.78,101.05 L27.91,101.05 L28.03,101.05 L28.15,101.05 L28.27,101.05 L28.39,101.05 L28.52,101.05 L28.64,101.05 L28.76,101.05 L28.88,101.05 L29.01,101.05 L29.13,101.05 L29.25,101.05 L29.37,101.05 L29.50,101.05 L29.62,101.05 L29.74,101.05 L29.86,101.05 L29.99,101.05 L30.11,101.05 L30.23,101.05 L30.35,101.05 L30.48,101.05 L30.60,101.05 L30.72,101.05 L30.84,101.05 L30.97,101.05 L31.09,101.05 L31.21,101.05 L31.33,101.05 L31.45,101.05 L31.58,101.05 L31.70,101.05 L31.82,101.05 L31.94,101.05 L32.07,101.05 L32.19,101.05 L32.31,101.05 L32.43,101.05 L32.56,101.05 L32.68,101.05 L32.80,101.05 L32.92,101.05 L33.05,101.05 L33.17,101.05 L33.29,101.05 L33.41,101.05 L33.54,101.05 L33.66,101.05 L33.78,101.05 L33.90,101.05 L34.02,101.05 L34.15,101.05 L34.27,101.05 L34.39,101.05 L34.51,101.05 L34.64,101.05 L34.76,101.05 L34.88,101.05 L35.00,101.05 L35.13,101.05 L35.25,101.05 L35.37,101.05 L35.49,101.05 L35.62,101.05 L35.74,101.05 L35.86,101.05 L35.98,101.05 L36.11,101.05 L36.23,101.05 L36.35,101.05 L36.47,101.05 L36.60,101.05 L36.72,101.05 L36.84,101.05 L36.96,101.05 L37.08,101.05 L37.21,101.05 L37.33,101.05 L37.45,101.05 L37.57,101.05 L37.70,101.05 L37.82,101.05 L37.94,101.05 L38.06,101.05 L38.19,101.05 L38.31,101.05 L38.43,101.05 L38.55,101.05 L38.68,101.05 L38.80,101.05 L38.92,101.05 L39.04,101.05 L39.17,101.05 L39.29,101.05 L39.41,101.05 L39.53,101.05 L39.66,101.05 L39.78,101.05 L39.90,101.05 L40.02,101.05 L40.14,101.05 L40.27,101.05 L40.39,101.05 L40.51,101.05 L40.63,101.05 L40.76,101.05 L40.88,101.05 L41.00,101.05 L41.12,101.05 L41.25,101.05 L41.37,101.05 L41.49,101.05 L41.61,101.05 L41.74,101.05 L41.86,101.05 L41.98,101.05 L42.10,101.05 L42.23,101.05 L42.35,101.05 L42.47,101.05 L42.59,101.05 L42.71,101.05 L42.84,101.05 L42.96,101.05 L43.08,101.05 L43.20,101.05 L43.33,101.05 L43.45,101.05 L43.57,101.05 L43.69,101.05 L43.82,101.05 L43.94,101.05 L44.06,101.05 L44.18,101.05 L44.31,101.05 L44.43,101.05 L44.55,101.05 L44.67,101.05 L44.80,101.05 L44.92,101.05 L45.04,101.05 L45.16,101.05 L45.29,101.05 L45.41,101.05 L45.53,101.05 L45.65,101.05 L45.77,101.05 L45.90,101.05 L46.02,101.05 L46.14,101.05 L46.26,101.05 L46.39,101.05 L46.51,101.05 L46.63,101.05 L46.75,101.05 L46.88,101.05 L47.00,101.05 L47.12,101.05 L47.24,101.05 L47.37,101.05 L47.49,101.05 L47.61,101.05 L47.73,101.05 L47.86,101.05 L47.98,101.05 L48.10,101.05 L48.22,101.05 L48.34,101.05 L48.47,101.05 L48.59,101.05 L48.71,101.05 L48.83,101.05 L48.96,101.05 L49.08,101.05 L49.20,101.05 L49.32,101.05 L49.45,101.05 L49.57,101.05 L49.69,101.05 L49.81,101.05 L49.94,101.05 L50.06,101.05 L50.18,101.05 L50.30,101.05 L50.43,101.05 L50.55,101.05 L50.67,101.05 L50.79,101.05 L50.92,101.05 L51.04,101.05 L51.16,101.05 L51.28,101.05 L51.40,101.05 L51.53,101.05 L51.65,101.05 L51.77,101.05 L51.89,101.05 L52.02,101.05 L52.14,101.05 L52.26,101.05 L52.38,101.05 L52.51,101.05 L52.63,101.05 L52.75,101.05 L52.87,101.05 L53.00,101.05 L53.12,101.05 L53.24,101.05 L53.36,101.05 L53.49,101.05 L53.61,101.05 L53.73,101.05 L53.85,101.05 L53.97,101.05 L54.10,101.05 L54.22,101.05 L54.34,101.05 L54.46,101.05 L54.59,101.05 L54.71,101.05 L54.83,101.05 L54.95,101.05 L55.08,101.05 L55.20,101.05 L55.32,101.05 L55.44,101.05 L55.57,101.05 L55.69,101.05 L55.81,101.05 L55.93,101.05 L56.06,101.05 L56.18,101.05 L56.30,101.05 L56.42,101.05 L56.55,101.05 L56.67,101.05 L56.79,101.05 L56.91,101.05 L57.03,101.05 L57.16,101.05 L57.28,101.05 L57.40,101.05 L57.52,101.05 L57.65,101.05 L57.77,101.05 L57.89,101.05 L58.01,101.05 L58.14,101.05 L58.26,101.05 L58.38,101.05 L58.50,101.05 L58.63,101.05 L58.75,101.05 L58.87,101.05 L58.99,101.05 L59.12,101.05 L59.24,101.05 L59.36,101.05 L59.48,101.05 L59.60,101.05 L59.73,101.05 L59.85,101.05 L59.97,101.05 L60.09,101.05 L60.22,101.05 L60.34,101.05 L60.46,101.05 L60.58,101.05 L60.71,101.05 L60.83,101.05 L60.95,101.05 L61.07,101.05 L61.20,101.05 L61.32,101.05 L61.44,101.05 L61.56,101.05 L61.69,101.05 L61.81,101.05 L61.93,101.05 L62.05,101.05 L62.18,101.05 L62.30,101.05 L62.42,101.05 L62.54,101.05 L62.66,101.05 L62.79,101.05 L62.91,101.05 L63.03,101.05 L63.15,101.05 L63.28,101.05 L63.40,101.05 L63.52,101.05 L63.64,101.05 L63.77,101.05 L63.89,101.05 L64.01,101.05 L64.13,101.05 L64.26,101.05 L64.38,101.05 L64.50,101.05 L64.62,101.05 L64.75,101.05 L64.87,101.05 L64.99,101.05 L65.11,101.05 L65.23,101.05 L65.36,101.05 L65.48,101.05 L65.60,101.05 L65.72,101.05 L65.85,101.05 L65.97,101.05 L66.09,101.05 L66.21,101.05" style="stroke-width: 2; stroke: rgb(0, 0, 0); stroke-opacity: 1;"/><path d=" M66.21,101.05 L66.31,100.95 L66.41,100.85 L66.50,100.76 L66.60,100.66 L66.69,100.57 L66.79,100.47 L66.88,100.38 L66.98,100.28 L67.08,100.18 L67.17,100.09 L67.27,99.99 L67.36,99.90 L67.46,99.80 L67.55,99.71 L67.65,99.61 L67.75,99.51 L67.84,99.42 L67.94,99.32 L68.03,99.23 L68.13,99.13 L68.22,99.04 L68.32,98.94 L68.42,98.84 L68.51,98.75 L68.61,98.65 L68.70,98.56 L68.80,98.46 L68.89,98.37 L68.99,98.27 L69.08,98.17 L69.18,98.08 L69.28,97.98 L69.37,97.89 L69.47,97.79 L69.56,97.70 L69.66,97.60 L69.75,97.50 L69.85,97.41 L69.95,97.31 L70.04,97.22 L70.14,97.12 L70.23,97.03 L70.33,96.93 L70.42,96.83 L70.52,96.74 L70.62,96.64 L70.71,96.55 L70.81,96.45 L70.90,96.36 L71.00,96.26 L71.09,96.16 L71.19,96.07 L71.29,95.97 L71.38,95.88 L71.48,95.78 L71.57,95.69 L71.67,95.59 L71.76,95.49 L71.86,95.40 L71.96,95.30 L72.05,95.21 L72.15,95.11 L72.24,95.02 L72.34,94.92 L72.43,94.83 L72.53,94.73 L72.63,94.63 L72.72,94.54 L72.82,94.44 L72.91,94.35 L73.01,94.25 L73.10,94.16 L73.20,94.06 L73.30,93.96 L73.39,93.87 L73.49,93.77 L73.58,93.68 L73.68,93.58 L73.77,93.49 L73.87,93.39 L73.97,93.29 L74.06,93.20 L74.16,93.10 L74.25,93.01 L74.35,92.91 L74.44,92.82 L74.54,92.72 L74.64,92.62 L74.73,92.53 L74.83,92.43 L74.92,92.34 L75.02,92.24 L75.11,92.15 L75.21,92.05 L75.31,91.95 L75.40,91.86 L75.50,91.76 L75.59,91.67 L75.69,91.57 L75.78,91.48 L75.88,91.38 L75.98,91.28 L76.07,91.19 L76.17,91.09 L76.26,91.00 L76.36,90.90 L76.45,90.81 L76.55,90.71 L76.65,90.61 L76.74,90.52 L76.84,90.42 L76.93,90.33 L77.03,90.23 L77.12,90.14 L77.22,90.04 L77.31,89.94 L77.41,89.85 L77.51,89.75 L77.60,89.66 L77.70,89.56 L77.79,89.47 L77.89,89.37 L77.98,89.27 L78.08,89.18 L78.18,89.08 L78.27,88.99 L78.37,88.89 L78.46,88.80 L78.56,88.70 L78.65,88.60 L78.75,88.51 L78.85,88.41 L78.94,88.32 L79.04,88.22 L79.13,88.13 L79.23,88.03 L79.32,87.93 L79.42,87.84 L79.52,87.74 L79.61,87.65 L79.71,87.55 L79.80,87.46 L79.90,87.36 L79.99,87.26 L80.09,87.17 L80.19,87.07 L80.28,86.98 L80.38,86.88 L80.47,86.79 L80.57,86.69 L80.66,86.60 L80.76,86.50 L80.86,86.40 L80.95,86.31 L81.05,86.21 L81.14,86.12 L81.24,86.02 L81.33,85.93 L81.43,85.83 L81.53,85.73 L81.62,85.64 L81.72,85.54 L81.81,85.45 L81.91,85.35 L82.00,85.26 L82.10,85.16 L82.20,85.06 L82.29,84.97 L82.39,84.87 L82.48,84.78 L82.58,84.68 L82.67,84.59 L82.77,84.49 L82.87,84.39 L82.96,84.30 L83.06,84.20 L83.15,84.11 L83.25,84.01 L83.34,83.92 L83.44,83.82 L83.54,83.72 L83.63,83.63 L83.73,83.53 L83.82,83.44 L83.92,83.34 L84.01,83.25 L84.11,83.15 L84.21,83.05 L84.30,82.96 L84.40,82.86 L84.49,82.77 L84.59,82.67 L84.68,82.58 L84.78,82.48 L84.87,82.38 L84.97,82.29 L85.07,82.19 L85.16,82.10 L85.26,82.00 L85.35,81.91 L85.45,81.81 L85.54,81.71 L85.64,81.62 L85.74,81.52 L85.83,81.43 L85.93,81.33 L86.02,81.24 L86.12,81.14 L86.21,81.04 L86.31,80.95 L86.41,80.85 L86.50,80.76 L86.60,80.66 L86.69,80.57 L86.79,80.47 L86.88,80.37 L86.98,80.28 L87.08,80.18 L87.17,80.09 L87.27,79.99 L87.36,79.90 L87.46,79.80 L87.55,79.70 L87.65,79.61 L87.75,79.51 L87.84,79.42 L87.94,79.32 L88.03,79.23 L88.13,79.13 L88.22,79.04 L88.32,78.94 L88.42,78.84 L88.51,78.75 L88.61,78.65 L88.70,78.56 L88.80,78.46 L88.89,78.37 L88.99,78.27 L89.09,78.17 L89.18,78.08 L89.28,77.98 L89.37,77.89 L89.47,77.79 L89.56,77.70 L89.66,77.60 L89.76,77.50 L89.85,77.41 L89.95,77.31 L90.04,77.22 L90.14,77.12 L90.23,77.03 L90.33,76.93 L90.43,76.83 L90.52,76.74 L90.62,76.64 L90.71,76.55 L90.81,76.45 L90.90,76.36 L91.00,76.26 L91.10,76.16 L91.19,76.07 L91.29,75.97 L91.38,75.88 L91.48,75.78 L91.57,75.69 L91.67,75.59 L91.77,75.49 L91.86,75.40 L91.96,75.30 L92.05,75.21 L92.15,75.11 L92.24,75.02 L92.34,74.92 L92.43,74.82 L92.53,74.73 L92.63,74.63 L92.72,74.54 L92.82,74.44 L92.91,74.35 L93.01,74.25 L93.10,74.15 L93.20,74.06 L93.30,73.96 L93.39,73.87 L93.49,73.77 L93.58,73.68 L93.68,73.58 L93.77,73.48 L93.87,73.39 L93.97,73.29 L94.06,73.20 L94.16,73.10 L94.25,73.01 L94.35,72.91 L94.44,72.81 L94.54,72.72 L94.64,72.62 L94.73,72.53 L94.83,72.43 L94.92,72.34 L95.02,72.24 L95.11,72.14 L95.21,72.05 L95.31,71.95 L95.40,71.86 L95.50,71.76 L95.59,71.67 L95.69,71.57 L95.78,71.47 L95.88,71.38 L95.98,71.28 L96.07,71.19 L96.17,71.09 L96.26,71.00 L96.36,70.90 L96.45,70.81 L96.55,70.71 L96.65,70.61 L96.74,70.52 L96.84,70.42 L96.93,70.33 L97.03,70.23 L97.12,70.14 L97.22,70.04 L97.32,69.94 L97.41,69.85 L97.51,69.75 L97.60,69.66 L97.70,69.56 L97.79,69.47 L97.89,69.37 L97.99,69.27 L98.08,69.18 L98.18,69.08 L98.27,68.99 L98.37,68.89 L98.46,68.80 L98.56,68.70 L98.66,68.60 L98.75,68.51 L98.85,68.41 L98.94,68.32 L99.04,68.22 L99.13,68.13 L99.23,68.03 L99.33,67.93 L99.42,67.84 L99.52,67.74 L99.61,67.65 L99.71,67.55 L99.80,67.46 L99.90,67.36 L100.00,67.26 L100.09,67.17 L100.19,67.07 L100.28,66.98 L100.38,66.88 L100.47,66.79 L100.57,66.69 L100.66,66.59 L100.76,66.50 L100.86,66.40 L100.95,66.31 L101.05,66.21 L101.14,66.12 L101.24,66.02 L101.33,65.92 L101.43,65.83 L101.53,65.73 L101.62,65.64 L101.72,65.54 L101.81,65.45 L101.91,65.35 L102.00,65.25 L102.10,65.16 L102.20,65.06 L102.29,64.97 L102.39,64.87 L102.48,64.78 L102.58,64.68 L102.67,64.58 L102.77,64.49 L102.87,64.39 L102.96,64.30 L103.06,64.20 L103.15,64.11 L103.25,64.01 L103.34,63.91 L103.44,63.82 L103.54,63.72 L103.63,63.63 L103.73,63.53 L103.82,63.44 L103.92,63.34 L104.01,63.25 L104.11,63.15 L104.21,63.05 L104.30,62.96 L104.40,62.86 L104.49,62.77 L104.59,62.67 L104.68,62.58 L104.78,62.48 L104.88,62.38 L104.97,62.29 L105.07,62.19 L105.16,62.10 L105.26,62.00 L105.35,61.91 L105.45,61.81 L105.55,61.71 L105.64,61.62 L105.74,61.52 L105.83,61.43 L105.93,61.33 L106.02,61.24 L106.12,61.14 L106.22,61.04 L106.31,60.95 L106.41,60.85 L106.50,60.76 L106.60,60.66 L106.69,60.57 L106.79,60.47 L106.89,60.37 L106.98,60.28 L107.08,60.18 L107.17,60.09 L107.27,59.99 L107.36,59.90 L107.46,59.80 L107.56,59.70 L107.65,59.61 L107.75,59.51 L107.84,59.42 L107.94,59.32 L108.03,59.23 L108.13,59.13 L108.22,59.03 L108.32,58.94 L108.42,58.84 L108.51,58.75 L108.61,58.65 L108.70,58.56 L108.80,58.46 L108.89,58.36 L108.99,58.27 L109.09,58.17 L109.18,58.08 L109.28,57.98 L109.37,57.89 L109.47,57.79 L109.56,57.69 L109.66,57.60 L109.76,57.50 L109.85,57.41 L109.95,57.31 L110.04,57.22 L110.14,57.12 L110.23,57.02 L110.33,56.93 L110.43,56.83 L110.52,56.74 L110.62,56.64 L110.71,56.55 L110.81,56.45 L110.90,56.35 L111.00,56.26 L111.10,56.16 L111.19,56.07 L111.29,55.97 L111.38,55.88 L111.48,55.78 L111.57,55.69 L111.67,55.59 L111.77,55.49 L111.86,55.40 L111.96,55.30 L112.05,55.21 L112.15,55.11 L112.24,55.02 L112.34,54.92 L112.44,54.82 L112.53,54.73 L112.63,54.63 L112.72,54.54 L112.82,54.44 L112.91,54.35 L113.01,54.25 L113.11,54.15 L113.20,54.06 L113.30,53.96 L113.39,53.87 L113.49,53.77 L113.58,53.68 L113.68,53.58 L113.78,53.48 L113.87,53.39 L113.97,53.29 L114.06,53.20 L114.16,53.10 L114.25,53.01 L114.35,52.91 L114.45,52.81 L114.54,52.72 L114.64,52.62 L114.73,52.53 L114.83,52.43 L114.92,52.34 L115.02,52.24 L115.12,52.14 L115.21,52.05 L115.31,51.95 L115.40,51.86 L115.50,51.76 L115.59,51.67 L115.69,51.57 L115.79,51.47 L115.88,51.38 L115.98,51.28 L116.07,51.19 L116.17,51.09 L116.26,51.00 L116.36,50.90 L116.45,50.80 L116.55,50.71 L116.65,50.61 L116.74,50.52 L116.84,50.42 L116.93,50.33 L117.03,50.23 L117.12,50.13 L117.22,50.04 L117.32,49.94 L117.41,49.85 L117.51,49.75 L117.60,49.66 L117.70,49.56 L117.79,49.46 L117.89,49.37 L117.99,49.27" style="stroke-width: 2; stroke: rgb(0, 0, 0); stroke-opacity: 1;"/><path d=" M117.99,49.27 L118.08,49.27 L118.18,49.27 L118.27,49.27 L118.37,49.27 L118.46,49.27 L118.56,49.27 L118.66,49.27 L118.75,49.27 L118.85,49.27 L118.94,49.27 L119.04,49.27 L119.13,49.27 L119.23,49.27 L119.33,49.27 L119.42,49.27 L119.52,49.27 L119.61,49.27 L119.71,49.27 L119.80,49.27 L119.90,49.27 L120.00,49.27 L120.09,49.27 L120.19,49.27 L120.28,49.27 L120.38,49.27 L120.47,49.27 L120.57,49.27 L120.67,49.27 L120.76,49.27 L120.86,49.27 L120.95,49.27 L121.05,49.27 L121.14,49.27 L121.24,49.27 L121.34,49.27 L121.43,49.27 L121.53,49.27 L121.62,49.27 L121.72,49.27 L121.81,49.27 L121.91,49.27 L122.01,49.27 L122.10,49.27 L122.20,49.27 L122.29,49.27 L122.39,49.27 L122.48,49.27 L122.58,49.27 L122.68,49.27 L122.77,49.27 L122.87,49.27 L122.96,49.27 L123.06,49.27 L123.15,49.27 L123.25,49.27 L123.35,49.27 L123.44,49.27 L123.54,49.27 L123.63,49.27 L123.73,49.27 L123.82,49.27 L123.92,49.27 L124.01,49.27 L124.11,49.27 L124.21,49.27 L124.30,49.27 L124.40,49.27 L124.49,49.27 L124.59,49.27 L124.68,49.27 L124.78,49.27 L124.88,49.27 L124.97,49.27 L125.07,49.27 L125.16,49.27 L125.26,49.27 L125.35,49.27 L125.45,49.27 L125.55,49.27 L125.64,49.27 L125.74,49.27 L125.83,49.27 L125.93,49.27 L126.02,49.27 L126.12,49.27 L126.22,49.27 L126.31,49.27 L126.41,49.27 L126.50,49.27 L126.60,49.27 L126.69,49.27 L126.79,49.27 L126.89,49.27 L126.98,49.27 L127.08,49.27 L127.17,49.27 L127.27,49.27 L127.36,49.27 L127.46,49.27 L127.56,49.27 L127.65,49.27 L127.75,49.27 L127.84,49.27 L127.94,49.27 L128.03,49.27 L128.13,49.27 L128.23,49.27 L128.32,49.27 L128.42,49.27 L128.51,49.27 L128.61,49.27 L128.70,49.27 L128.80,49.27 L128.90,49.27 L128.99,49.27 L129.09,49.27 L129.18,49.27 L129.28,49.27 L129.37,49.27 L129.47,49.27 L129.57,49.27 L129.66,49.27 L129.76,49.27 L129.85,49.27 L129.95,49.27 L130.04,49.27 L130.14,49.27 L130.24,49.27 L130.33,49.27 L130.43,49.27 L130.52,49.27 L130.62,49.27 L130.71,49.27 L130.81,49.27 L130.91,49.27 L131.00,49.27 L131.10,49.27 L131.19,49.27 L131.29,49.27 L131.38,49.27 L131.48,49.27 L131.57,49.27 L131.67,49.27 L131.77,49.27 L131.86,49.27 L131.96,49.27 L132.05,49.27 L132.15,49.27 L132.24,49.27 L132.34,49.27 L132.44,49.27 L132.53,49.27 L132.63,49.27 L132.72,49.27 L132.82,49.27 L132.91,49.27 L133.01,49.27 L133.11,49.27 L133.20,49.27 L133.30,49.27 L133.39,49.27 L133.49,49.27 L133.58,49.27 L133.68,49.27 L133.78,49.27 L133.87,49.27 L133.97,49.27 L134.06,49.27 L134.16,49.27 L134.25,49.27 L134.35,49.27 L134.45,49.27 L134.54,49.27 L134.64,49.27 L134.73,49.27 L134.83,49.27 L134.92,49.27 L135.02,49.27 L135.12,49.27 L135.21,49.27 L135.31,49.27 L135.40,49.27 L135.50,49.27 L135.59,49.27 L135.69,49.27 L135.79,49.27 L135.88,49.27 L135.98,49.27 L136.07,49.27 L136.17,49.27 L136.26,49.27 L136.36,49.27 L136.46,49.27 L136.55,49.27 L136.65,49.27 L136.74,49.27 L136.84,49.27 L136.93,49.27 L137.03,49.27 L137.13,49.27 L137.22,49.27 L137.32,49.27 L137.41,49.27 L137.51,49.27 L137.60,49.27 L137.70,49.27 L137.80,49.27 L137.89,49.27 L137.99,49.27 L138.08,49.27 L138.18,49.27 L138.27,49.27 L138.37,49.27 L138.47,49.27 L138.56,49.27 L138.66,49.27 L138.75,49.27 L138.85,49.27 L138.94,49.27 L139.04,49.27 L139.14,49.27 L139.23,49.27 L139.33,49.27 L139.42,49.27 L139.52,49.27 L139.61,49.27 L139.71,49.27 L139.80,49.27 L139.90,49.27 L140.00,49.27 L140.09,49.27 L140.19,49.27 L140.28,49.27 L140.38,49.27 L140.47,49.27 L140.57,49.27 L140.67,49.27 L140.76,49.27 L140.86,49.27 L140.95,49.27 L141.05,49.27 L141.14,49.27 L141.24,49.27 L141.34,49.27 L141.43,49.27 L141.53,49.27 L141.62,49.27 L141.72,49.27 L141.81,49.27 L141.91,49.27 L142.01,49.27 L142.10,49.27 L142.20,49.27 L142.29,49.27 L142.39,49.27 L142.48,49.27 L142.58,49.27 L142.68,49.27 L142.77,49.27 L142.87,49.27 L142.96,49.27 L143.06,49.27 L143.15,49.27 L143.25,49.27 L143.35,49.27 L143.44,49.27 L143.54,49.27 L143.63,49.27 L143.73,49.27 L143.82,49.27 L143.92,49.27 L144.02,49.27 L144.11,49.27 L144.21,49.27 L144.30,49.27 L144.40,49.27 L144.49,49.27 L144.59,49.27 L144.69,49.27 L144.78,49.27 L144.88,49.27 L144.97,49.27 L145.07,49.27 L145.16,49.27 L145.26,49.27 L145.36,49.27 L145.45,49.27 L145.55,49.27 L145.64,49.27 L145.74,49.27 L145.83,49.27 L145.93,49.27 L146.03,49.27 L146.12,49.27 L146.22,49.27 L146.31,49.27 L146.41,49.27 L146.50,49.27 L146.60,49.27 L146.70,49.27 L146.79,49.27 L146.89,49.27 L146.98,49.27 L147.08,49.27 L147.17,49.27 L147.27,49.27 L147.36,49.27 L147.46,49.27 L147.56,49.27 L147.65,49.27 L147.75,49.27 L147.84,49.27 L147.94,49.27 L148.03,49.27 L148.13,49.27 L148.23,49.27 L148.32,49.27 L148.42,49.27 L148.51,49.27 L148.61,49.27 L148.70,49.27 L148.80,49.27 L148.90,49.27 L148.99,49.27 L149.09,49.27 L149.18,49.27 L149.28,49.27 L149.37,49.27 L149.47,49.27 L149.57,49.27 L149.66,49.27 L149.76,49.27 L149.85,49.27 L149.95,49.27 L150.04,49.27 L150.14,49.27 L150.24,49.27 L150.33,49.27 L150.43,49.27 L150.52,49.27 L150.62,49.27 L150.71,49.27 L150.81,49.27 L150.91,49.27 L151.00,49.27 L151.10,49.27 L151.19,49.27 L151.29,49.27 L151.38,49.27 L151.48,49.27 L151.58,49.27 L151.67,49.27 L151.77,49.27 L151.86,49.27 L151.96,49.27 L152.05,49.27 L152.15,49.27 L152.25,49.27 L152.34,49.27 L152.44,49.27 L152.53,49.27 L152.63,49.27 L152.72,49.27 L152.82,49.27 L152.92,49.27 L153.01,49.27 L153.11,49.27 L153.20,49.27 L153.30,49.27 L153.39,49.27 L153.49,49.27 L153.59,49.27 L153.68,49.27 L153.78,49.27 L153.87,49.27 L153.97,49.27 L154.06,49.27 L154.16,49.27 L154.26,49.27 L154.35,49.27 L154.45,49.27 L154.54,49.27 L154.64,49.27 L154.73,49.27 L154.83,49.27 L154.93,49.27 L155.02,49.27 L155.12,49.27 L155.21,49.27 L155.31,49.27 L155.40,49.27 L155.50,49.27 L155.59,49.27 L155.69,49.27 L155.79,49.27 L155.88,49.27 L155.98,49.27 L156.07,49.27 L156.17,49.27 L156.26,49.27 L156.36,49.27 L156.46,49.27 L156.55,49.27 L156.65,49.27 L156.74,49.27 L156.84,49.27 L156.93,49.27 L157.03,49.27 L157.13,49.27 L157.22,49.27 L157.32,49.27 L157.41,49.27 L157.51,49.27 L157.60,49.27 L157.70,49.27 L157.80,49.27 L157.89,49.27 L157.99,49.27 L158.08,49.27 L158.18,49.27 L158.27,49.27 L158.37,49.27 L158.47,49.27 L158.56,49.27 L158.66,49.27 L158.75,49.27 L158.85,49.27 L158.94,49.27 L159.04,49.27 L159.14,49.27 L159.23,49.27 L159.33,49.27 L159.42,49.27 L159.52,49.27 L159.61,49.27 L159.71,49.27 L159.81,49.27 L159.90,49.27 L160.00,49.27 L160.09,49.27 L160.19,49.27 L160.28,49.27 L160.38,49.27 L160.48,49.27 L160.57,49.27 L160.67,49.27 L160.76,49.27 L160.86,49.27 L160.95,49.27 L161.05,49.27 L161.15,49.27 L161.24,49.27 L161.34,49.27 L161.43,49.27 L161.53,49.27 L161.62,49.27 L161.72,49.27 L161.82,49.27 L161.91,49.27 L162.01,49.27 L162.10,49.27 L162.20,49.27 L162.29,49.27 L162.39,49.27 L162.49,49.27 L162.58,49.27 L162.68,49.27 L162.77,49.27 L162.87,49.27 L162.96,49.27 L163.06,49.27 L163.15,49.27 L163.25,49.27 L163.35,49.27 L163.44,49.27 L163.54,49.27 L163.63,49.27 L163.73,49.27 L163.82,49.27 L163.92,49.27 L164.02,49.27 L164.11,49.27 L164.21,49.27 L164.30,49.27 L164.40,49.27 L164.49,49.27 L164.59,49.27 L164.69,49.27 L164.78,49.27 L164.88,49.27 L164.97,49.27 L165.07,49.27 L165.16,49.27 L165.26,49.27 L165.36,49.27 L165.45,49.27 L165.55,49.27 L165.64,49.27 L165.74,49.27 L165.83,49.27 L165.93,49.27 L166.03,49.27 L166.12,49.27 L166.22,49.27 L166.31,49.27 L166.41,49.27 L166.50,49.27 L166.60,49.27 L166.70,49.27 L166.79,49.27 L166.89,49.27 L166.98,49.27 L167.08,49.27 L167.17,49.27 L167.27,49.27 L167.37,49.27 L167.46,49.27 L167.56,49.27 L167.65,49.27 L167.75,49.27 L167.84,49.27 L167.94,49.27 L168.04,49.27 L168.13,49.27 L168.23,49.27 L168.32,49.27 L168.42,49.27 L168.51,49.27 L168.61,49.27 L168.71,49.27 L168.80,49.27 L168.90,49.27 L168.99,49.27 L169.09,49.27 L169.18,49.27 L169.28,49.27 L169.38,49.27 L169.47,49.27 L169.57,49.27 L169.66,49.27 L169.76,49.27" style="stroke-width: 2; stroke: rgb(0, 0, 0); stroke-opacity: 1;"/></g></g><g class="test-ytl" style="font-family: &quot;Open Sans&quot;, verdana, arial, sans-serif;"/><rect class="real" x="1" y="1" width="269" height="130.41379310344826" style="fill: transparent; stroke: none;"/></g></g></g><g class="arrow-line"><path class="connection real" stroke-dasharray="" d="  M19,430.09 L204,430.09" style="stroke: rgb(0, 0, 0); stroke-width: 1; fill: none; fill-opacity: 1;"/><g stroke="none" fill="#000" transform="matrix(-1,1.2246467991473532e-16,-1.2246467991473532e-16,-1,207,430.0874938964844)" style="stroke: none; fill: rgb(0, 0, 0); stroke-width: 1;"><path d=" M8.93,-4.29 L0,0 L8.93,4.29 Z"/></g></g><g class="arrow-line"><path class="connection real" stroke-dasharray="" d="  M124,35.09 L95,35.09" style="stroke: rgb(0, 0, 0); stroke-width: 1; fill: none; fill-opacity: 1;"/><g stroke="#000" transform="matrix(1,-2.4492935982947064e-16,2.4492935982947064e-16,1,93,35.087493896484375)" style="stroke: rgb(0, 0, 0); stroke-width: 1;"><path d=" M10.93,-3.29 Q4.96,-0.45 0,0 Q4.96,0.45 10.93,3.29"/></g></g><g class="arrow-line"><path class="connection real" stroke-dasharray="" d="  M124,55.09 L95,55.09" style="stroke: rgb(0, 0, 0); stroke-width: 1; fill: none; fill-opacity: 1;"/><g stroke="#000" transform="matrix(1,-2.4492935982947064e-16,2.4492935982947064e-16,1,93,55.087493896484375)" style="stroke: rgb(0, 0, 0); stroke-width: 1;"><path d=" M10.93,-3.29 Q4.96,-0.45 0,0 Q4.96,0.45 10.93,3.29"/></g></g><g class="arrow-line"><path class="connection real" stroke-dasharray="" d="  M125,76.09 L96,76.09" style="stroke: rgb(0, 0, 0); stroke-width: 1; fill: none; fill-opacity: 1;"/><g stroke="#000" transform="matrix(1,-2.4492935982947064e-16,2.4492935982947064e-16,1,94,76.08749389648438)" style="stroke: rgb(0, 0, 0); stroke-width: 1;"><path d=" M10.93,-3.29 Q4.96,-0.45 0,0 Q4.96,0.45 10.93,3.29"/></g></g><g class="arrow-line"><path class="connection real" stroke-dasharray="" d="  M126,96.09 L97,96.09" style="stroke: rgb(0, 0, 0); stroke-width: 1; fill: none; fill-opacity: 1;"/><g stroke="#000" transform="matrix(1,-2.4492935982947064e-16,2.4492935982947064e-16,1,95,96.08749389648438)" style="stroke: rgb(0, 0, 0); stroke-width: 1;"><path d=" M10.93,-3.29 Q4.96,-0.45 0,0 Q4.96,0.45 10.93,3.29"/></g></g><g class="arrow-line"><path class="connection real" stroke-dasharray="" d="  M126,114.09 L97,114.09" style="stroke: rgb(0, 0, 0); stroke-width: 1; fill: none; fill-opacity: 1;"/><g stroke="#000" transform="matrix(1,-2.4492935982947064e-16,2.4492935982947064e-16,1,95,114.08749389648438)" style="stroke: rgb(0, 0, 0); stroke-width: 1;"><path d=" M10.93,-3.29 Q4.96,-0.45 0,0 Q4.96,0.45 10.93,3.29"/></g></g><g class="arrow-line"><path class="connection real" stroke-dasharray="" d="  M127,134.09 L98,134.09" style="stroke: rgb(0, 0, 0); stroke-width: 1; fill: none; fill-opacity: 1;"/><g stroke="#000" transform="matrix(1,-2.4492935982947064e-16,2.4492935982947064e-16,1,96,134.08749389648438)" style="stroke: rgb(0, 0, 0); stroke-width: 1;"><path d=" M10.93,-3.29 Q4.96,-0.45 0,0 Q4.96,0.45 10.93,3.29"/></g></g><g class="arrow-line"><path class="connection real" stroke-dasharray="" d="  M135,12 L135,22" style="stroke: rgb(255, 0, 0); stroke-opacity: 1; stroke-width: 2; fill: none; fill-opacity: 1;"/></g><g class="arrow-line"><path class="connection real" stroke-dasharray="" d="  M130,17 L140,17" style="stroke: rgb(255, 0, 0); stroke-opacity: 1; stroke-width: 2; fill: none; fill-opacity: 1;"/></g><g class="arrow-line"><path class="connection real" stroke-dasharray="" d="  M135,31 L135,41" style="stroke: rgb(255, 0, 0); stroke-opacity: 1; stroke-width: 2; fill: none; fill-opacity: 1;"/></g><g class="arrow-line"><path class="connection real" stroke-dasharray="" d="  M130,36 L140,36" style="stroke: rgb(255, 0, 0); stroke-opacity: 1; stroke-width: 2; fill: none; fill-opacity: 1;"/></g><g class="arrow-line"><path class="connection real" stroke-dasharray="" d="  M135,51 L135,61" style="stroke: rgb(255, 0, 0); stroke-opacity: 1; stroke-width: 2; fill: none; fill-opacity: 1;"/></g><g class="arrow-line"><path class="connection real" stroke-dasharray="" d="  M130,56 L140,56" style="stroke: rgb(255, 0, 0); stroke-opacity: 1; stroke-width: 2; fill: none; fill-opacity: 1;"/></g><g class="arrow-line"><path class="connection real" stroke-dasharray="" d="  M135,71 L135,81" style="stroke: rgb(255, 0, 0); stroke-opacity: 1; stroke-width: 2; fill: none; fill-opacity: 1;"/></g><g class="arrow-line"><path class="connection real" stroke-dasharray="" d="  M130,76 L140,76" style="stroke: rgb(255, 0, 0); stroke-opacity: 1; stroke-width: 2; fill: none; fill-opacity: 1;"/></g><g class="arrow-line"><path class="connection real" stroke-dasharray="" d="  M135,91 L135,101" style="stroke: rgb(255, 0, 0); stroke-opacity: 1; stroke-width: 2; fill: none; fill-opacity: 1;"/></g><g class="arrow-line"><path class="connection real" stroke-dasharray="" d="  M130,96 L140,96" style="stroke: rgb(255, 0, 0); stroke-opacity: 1; stroke-width: 2; fill: none; fill-opacity: 1;"/></g><g class="arrow-line"><path class="connection real" stroke-dasharray="" d="  M135,111 L135,121" style="stroke: rgb(255, 0, 0); stroke-opacity: 1; stroke-width: 2; fill: none; fill-opacity: 1;"/></g><g class="arrow-line"><path class="connection real" stroke-dasharray="" d="  M130,116 L140,116" style="stroke: rgb(255, 0, 0); stroke-opacity: 1; stroke-width: 2; fill: none; fill-opacity: 1;"/></g><g class="arrow-line"><path class="connection real" stroke-dasharray="" d="  M135,131 L135,141" style="stroke: rgb(255, 0, 0); stroke-opacity: 1; stroke-width: 2; fill: none; fill-opacity: 1;"/></g><g class="arrow-line"><path class="connection real" stroke-dasharray="" d="  M130,136 L140,136" style="stroke: rgb(255, 0, 0); stroke-opacity: 1; stroke-width: 2; fill: none; fill-opacity: 1;"/></g><g class="arrow-line"><path class="connection real" stroke-dasharray="" d="  M85,12 L85,22" style="stroke: rgb(0, 0, 255); stroke-opacity: 1; stroke-width: 2; fill: none; fill-opacity: 1;"/></g><g class="arrow-line"><path class="connection real" stroke-dasharray="" d="  M85,32 L85,42" style="stroke: rgb(0, 0, 255); stroke-opacity: 1; stroke-width: 2; fill: none; fill-opacity: 1;"/></g><g class="arrow-line"><path class="connection real" stroke-dasharray="" d="  M85,52 L85,62" style="stroke: rgb(0, 0, 255); stroke-opacity: 1; stroke-width: 2; fill: none; fill-opacity: 1;"/></g><g class="arrow-line"><path class="connection real" stroke-dasharray="" d="  M85,72 L85,82" style="stroke: rgb(0, 0, 255); stroke-opacity: 1; stroke-width: 2; fill: none; fill-opacity: 1;"/></g><g class="arrow-line"><path class="connection real" stroke-dasharray="" d="  M85,92 L85,102" style="stroke: rgb(0, 0, 255); stroke-opacity: 1; stroke-width: 2; fill: none; fill-opacity: 1;"/></g><g class="arrow-line"><path class="connection real" stroke-dasharray="" d="  M85,112 L85,122" style="stroke: rgb(0, 0, 255); stroke-opacity: 1; stroke-width: 2; fill: none; fill-opacity: 1;"/></g><g class="arrow-line"><path class="connection real" stroke-dasharray="" d="  M85,132 L85,142" style="stroke: rgb(0, 0, 255); stroke-opacity: 1; stroke-width: 2; fill: none; fill-opacity: 1;"/></g><g/></g><g/><g/><g/></svg>
        <svg xmlns="http://www.w3.org/2000/svg" xmlns:xlink="http://www.w3.org/1999/xlink" width="660" height="464" style="width:660px;height:464px;font-family:Asana-Math, Asana;background:transparent;"><g><g><g><g transform="matrix(1,0,0,1,90,179.60000610351562)"><path transform="matrix(0.017,0,0,-0.017,0,0)" d="M221 334L338 334L470 330L489 375L485 382C404 378 344 376 266 376L229 376L276 646C308 647 391 650 413 650C475 650 516 641 517 626L525 537L549 537C552 601 559 651 570 689C549 691 519 692 501 692C498 692 487 692 463 691L343 690C334 689 160 691 150 691L105 692L102 664L156 662C180 661 191 653 191 635C191 621 187 589 182 559L95 55C91 37 79 30 35 23L30 -3L71 -2C102 -1 164 0 184 0L409 -3C423 -3 448 -2 481 -1L514 0L518 36C520 56 525 86 534 135L539 161L512 161L496 101C486 65 477 53 455 48C435 44 362 39 308 39C267 39 240 40 171 46Z" stroke="rgb(0,0,0)" stroke-opacity="1" stroke-width="8" fill="rgb(0,0,0)" fill-opacity="1"></path></g></g><g><g><g><g><g transform="matrix(1,0,0,1,100.88125610351562,183.00626220703126)"><path transform="matrix(0.0119,0,0,-0.0119,0,0)" d="M9 1C24 -7 40 -11 52 -11C85 -11 124 18 155 65L231 182L242 113C255 28 278 -11 314 -11C336 -11 368 6 400 35L449 79L440 98C404 68 379 53 363 53C348 53 335 63 325 83C316 102 305 139 300 168L282 269L317 318C364 383 391 406 422 406C438 406 450 398 455 383L469 387L484 472C472 479 463 482 454 482C414 482 374 446 312 354L275 299L269 347C257 446 230 482 171 482C145 482 123 474 114 461L56 378L73 368C103 402 123 416 142 416C175 416 197 375 214 277L225 215L185 153C142 86 108 54 80 54C65 54 54 58 52 63L41 91L21 88C21 53 13 27 9 1Z" stroke="rgb(0,0,0)" stroke-opacity="1" stroke-width="8" fill="rgb(0,0,0)" fill-opacity="1"></path></g></g></g></g></g></g></g><g><g><g><g transform="matrix(1,0,0,1,215,231.60000610351562)"><path transform="matrix(0.017,0,0,-0.017,0,0)" d="M9 1C24 -7 40 -11 52 -11C85 -11 124 18 155 65L231 182L242 113C255 28 278 -11 314 -11C336 -11 368 6 400 35L449 79L440 98C404 68 379 53 363 53C348 53 335 63 325 83C316 102 305 139 300 168L282 269L317 318C364 383 391 406 422 406C438 406 450 398 455 383L469 387L484 472C472 479 463 482 454 482C414 482 374 446 312 354L275 299L269 347C257 446 230 482 171 482C145 482 123 474 114 461L56 378L73 368C103 402 123 416 142 416C175 416 197 375 214 277L225 215L185 153C142 86 108 54 80 54C65 54 54 58 52 63L41 91L21 88C21 53 13 27 9 1Z" stroke="rgb(0,0,0)" stroke-opacity="1" stroke-width="8" fill="rgb(0,0,0)" fill-opacity="1"></path></g></g></g></g><g><g><g><g><g><g><g transform="matrix(1,0,0,1,62.643768310546875,275.5)"><path transform="matrix(0.0085,0,0,-0.0085,0,0)" d="M151 -172C151 -95 175 -59 228 -59C257 -59 285 -67 324 -88L469 -164C529 -195 547 -201 587 -201C662 -201 698 -158 708 -61L683 -61C677 -115 655 -140 615 -140C598 -140 579 -135 553 -125L317 -29C292 -19 274 -15 251 -15C177 -15 126 -66 126 -142C126 -144 126 -151 127 -159ZM748 425C748 603 644 706 464 706C227 706 53 523 53 272C53 83 147 -18 323 -18C595 -18 748 207 748 425ZM660 409C660 221 571 24 360 24C216 24 141 110 141 277C141 425 199 664 433 664C549 664 660 610 660 409Z" stroke="rgb(0,0,0)" stroke-opacity="1" stroke-width="8" fill="rgb(0,0,0)" fill-opacity="1"></path></g></g></g></g><g><g><g><g transform="matrix(1,0,0,1,58.850006103515625,288.5)"><path transform="matrix(0.0085,0,0,-0.0085,0,0)" d="M567 55C567 39 552 30 524 28L480 25L480 -3C582 0 582 0 602 0C622 0 622 0 724 -3L724 25L698 28C651 35 650 35 642 80L555 705L509 705L136 112C100 56 82 40 48 32L28 27L28 -3C120 0 120 0 140 0C159 0 161 0 247 -3L247 25L195 28C179 29 164 38 164 47C164 55 171 69 190 102L292 277L538 277L563 89L563 86C563 84 567 69 567 55ZM496 601L533 313L317 313ZM1083 222C1093 251 1099 268 1098 263C1019 261 942 262 864 262C883 349 938 438 1038 438C1098 438 1120 420 1147 369L1167 369L1208 422C1033 592 764 361 764 155C764 42 830 -11 937 -11C1014 -11 1078 47 1137 92L1137 111C1090 78 1034 39 975 39C901 39 840 126 856 220C868 219 1056 222 1083 222Z" stroke="rgb(0,0,0)" stroke-opacity="1" stroke-width="8" fill="rgb(0,0,0)" fill-opacity="1"></path></g></g><g><g><g><g><g transform="matrix(1,0,0,1,69.4375,291.0562438964844)"><path transform="matrix(0.007,0,0,-0.007,0,0)" d="M17 152C17 46 62 -11 145 -11C200 -11 260 15 305 57C367 116 411 230 411 331C411 425 361 482 278 482C174 482 17 382 17 152ZM241 444C302 444 335 399 335 315C335 219 304 113 260 60C242 39 216 27 185 27C127 27 93 72 93 151C93 264 132 387 181 427C194 438 217 444 241 444Z" stroke="rgb(0,0,0)" stroke-opacity="1" stroke-width="8" fill="rgb(0,0,0)" fill-opacity="1"></path></g></g></g></g></g></g></g><line style="fill:none;stroke-width:1px;stroke:rgb(0, 0, 0);" x1="58.850006103515625" y1="279.2749938964844" x2="73.05000591278076" y2="279.2749938964844"></line></g></g></g><g><g><g><g transform="matrix(1,0,0,1,135,211.50000610351563)"><path transform="matrix(0.0119,0,0,-0.0119,0,0)" d="M483 722L471 733C419 707 383 698 311 691L307 670L355 670C379 670 389 663 389 646C389 638 388 629 387 622L359 468C329 477 302 482 277 482C208 482 114 410 68 323C37 265 17 170 17 86C17 21 32 -11 61 -11C88 -11 125 6 159 33C213 77 246 116 313 217L290 126C279 82 274 50 274 24C274 3 283 -9 300 -9C317 -9 341 3 375 28L456 88L446 107L402 76C388 66 372 59 363 59C355 59 349 68 349 82C349 90 350 99 357 128ZM114 59C98 59 89 73 89 98C89 224 135 380 184 418C197 428 216 433 243 433C287 433 316 427 349 410L337 351C300 171 159 59 114 59Z" stroke="rgb(0,0,0)" stroke-opacity="1" stroke-width="8" fill="rgb(0,0,0)" fill-opacity="1"></path></g></g></g></g><g><g><g><g transform="matrix(1,0,0,1,153,-4.500009155273437)"><path transform="matrix(0.0119,0,0,-0.0119,0,0)" d="M604 241L604 300L364 300L364 538L305 538L305 300L65 300L65 241L305 241L305 0L364 0L364 241Z" stroke="rgb(0,0,0)" stroke-opacity="1" stroke-width="8" fill="rgb(0,0,0)" fill-opacity="1"></path></g></g><g><g transform="matrix(1,0,0,1,160.95001220703125,-4.500009155273437)"><path transform="matrix(0.0119,0,0,-0.0119,0,0)" d="M151 -172C151 -95 175 -59 228 -59C257 -59 285 -67 324 -88L469 -164C529 -195 547 -201 587 -201C662 -201 698 -158 708 -61L683 -61C677 -115 655 -140 615 -140C598 -140 579 -135 553 -125L317 -29C292 -19 274 -15 251 -15C177 -15 126 -66 126 -142C126 -144 126 -151 127 -159ZM748 425C748 603 644 706 464 706C227 706 53 523 53 272C53 83 147 -18 323 -18C595 -18 748 207 748 425ZM660 409C660 221 571 24 360 24C216 24 141 110 141 277C141 425 199 664 433 664C549 664 660 610 660 409Z" stroke="rgb(0,0,0)" stroke-opacity="1" stroke-width="8" fill="rgb(0,0,0)" fill-opacity="1"></path></g></g></g></g><g><g><g><g transform="matrix(1,0,0,1,63,-4.500009155273437)"><path transform="matrix(0.0119,0,0,-0.0119,0,0)" d="M555 243L555 299L51 299L51 243Z" stroke="rgb(0,0,0)" stroke-opacity="1" stroke-width="8" fill="rgb(0,0,0)" fill-opacity="1"></path></g></g><g><g transform="matrix(1,0,0,1,70.20001220703125,-4.500009155273437)"><path transform="matrix(0.0119,0,0,-0.0119,0,0)" d="M151 -172C151 -95 175 -59 228 -59C257 -59 285 -67 324 -88L469 -164C529 -195 547 -201 587 -201C662 -201 698 -158 708 -61L683 -61C677 -115 655 -140 615 -140C598 -140 579 -135 553 -125L317 -29C292 -19 274 -15 251 -15C177 -15 126 -66 126 -142C126 -144 126 -151 127 -159ZM748 425C748 603 644 706 464 706C227 706 53 523 53 272C53 83 147 -18 323 -18C595 -18 748 207 748 425ZM660 409C660 221 571 24 360 24C216 24 141 110 141 277C141 425 199 664 433 664C549 664 660 610 660 409Z" stroke="rgb(0,0,0)" stroke-opacity="1" stroke-width="8" fill="rgb(0,0,0)" fill-opacity="1"></path></g></g></g></g><g><g><g><g transform="matrix(1,0,0,1,213,434.6000061035156)"><path transform="matrix(0.017,0,0,-0.017,0,0)" d="M9 1C24 -7 40 -11 52 -11C85 -11 124 18 155 65L231 182L242 113C255 28 278 -11 314 -11C336 -11 368 6 400 35L449 79L440 98C404 68 379 53 363 53C348 53 335 63 325 83C316 102 305 139 300 168L282 269L317 318C364 383 391 406 422 406C438 406 450 398 455 383L469 387L484 472C472 479 463 482 454 482C414 482 374 446 312 354L275 299L269 347C257 446 230 482 171 482C145 482 123 474 114 461L56 378L73 368C103 402 123 416 142 416C175 416 197 375 214 277L225 215L185 153C142 86 108 54 80 54C65 54 54 58 52 63L41 91L21 88C21 53 13 27 9 1Z" stroke="rgb(0,0,0)" stroke-opacity="1" stroke-width="8" fill="rgb(0,0,0)" fill-opacity="1"></path></g></g></g></g><g><g><g><g transform="matrix(1,0,0,1,93,18.5)"><path transform="matrix(0.0085,0,0,-0.0085,0,0)" d="M221 334L338 334L470 330L489 375L485 382C404 378 344 376 266 376L229 376L276 646C308 647 391 650 413 650C475 650 516 641 517 626L525 537L549 537C552 601 559 651 570 689C549 691 519 692 501 692C498 692 487 692 463 691L343 690C334 689 160 691 150 691L105 692L102 664L156 662C180 661 191 653 191 635C191 621 187 589 182 559L95 55C91 37 79 30 35 23L30 -3L71 -2C102 -1 164 0 184 0L409 -3C423 -3 448 -2 481 -1L514 0L518 36C520 56 525 86 534 135L539 161L512 161L496 101C486 65 477 53 455 48C435 44 362 39 308 39C267 39 240 40 171 46Z" stroke="rgb(0,0,0)" stroke-opacity="1" stroke-width="8" fill="rgb(0,0,0)" fill-opacity="1"></path></g></g><g><g transform="matrix(1,0,0,1,100.73751831054688,18.5)"><path transform="matrix(0.0085,0,0,-0.0085,0,0)" d="M604 347L604 406L65 406L65 347ZM604 134L604 193L65 193L65 134Z" stroke="rgb(0,0,0)" stroke-opacity="1" stroke-width="8" fill="rgb(0,0,0)" fill-opacity="1"></path></g></g><g><g><g><g><g transform="matrix(1,0,0,1,113.61251831054688,12.5)"><path transform="matrix(0.0085,0,0,-0.0085,0,0)" d="M151 -172C151 -95 175 -59 228 -59C257 -59 285 -67 324 -88L469 -164C529 -195 547 -201 587 -201C662 -201 698 -158 708 -61L683 -61C677 -115 655 -140 615 -140C598 -140 579 -135 553 -125L317 -29C292 -19 274 -15 251 -15C177 -15 126 -66 126 -142C126 -144 126 -151 127 -159ZM748 425C748 603 644 706 464 706C227 706 53 523 53 272C53 83 147 -18 323 -18C595 -18 748 207 748 425ZM660 409C660 221 571 24 360 24C216 24 141 110 141 277C141 425 199 664 433 664C549 664 660 610 660 409Z" stroke="rgb(0,0,0)" stroke-opacity="1" stroke-width="8" fill="rgb(0,0,0)" fill-opacity="1"></path></g></g></g></g><g><g><g><g transform="matrix(1,0,0,1,109.81875610351562,25.5)"><path transform="matrix(0.0085,0,0,-0.0085,0,0)" d="M567 55C567 39 552 30 524 28L480 25L480 -3C582 0 582 0 602 0C622 0 622 0 724 -3L724 25L698 28C651 35 650 35 642 80L555 705L509 705L136 112C100 56 82 40 48 32L28 27L28 -3C120 0 120 0 140 0C159 0 161 0 247 -3L247 25L195 28C179 29 164 38 164 47C164 55 171 69 190 102L292 277L538 277L563 89L563 86C563 84 567 69 567 55ZM496 601L533 313L317 313ZM1083 222C1093 251 1099 268 1098 263C1019 261 942 262 864 262C883 349 938 438 1038 438C1098 438 1120 420 1147 369L1167 369L1208 422C1033 592 764 361 764 155C764 42 830 -11 937 -11C1014 -11 1078 47 1137 92L1137 111C1090 78 1034 39 975 39C901 39 840 126 856 220C868 219 1056 222 1083 222Z" stroke="rgb(0,0,0)" stroke-opacity="1" stroke-width="8" fill="rgb(0,0,0)" fill-opacity="1"></path></g></g><g><g><g><g><g transform="matrix(1,0,0,1,120.40625,28.056243896484375)"><path transform="matrix(0.007,0,0,-0.007,0,0)" d="M17 152C17 46 62 -11 145 -11C200 -11 260 15 305 57C367 116 411 230 411 331C411 425 361 482 278 482C174 482 17 382 17 152ZM241 444C302 444 335 399 335 315C335 219 304 113 260 60C242 39 216 27 185 27C127 27 93 72 93 151C93 264 132 387 181 427C194 438 217 444 241 444Z" stroke="rgb(0,0,0)" stroke-opacity="1" stroke-width="8" fill="rgb(0,0,0)" fill-opacity="1"></path></g></g></g></g></g></g></g><line style="fill:none;stroke-width:1px;stroke:rgb(0, 0, 0);" x1="109.81875610351562" y1="16.274993896484375" x2="124.01875591278076" y2="16.274993896484375"></line></g></g></g><g><g><g><g transform="matrix(1,0,0,1,169,18.5)"><path transform="matrix(0.0085,0,0,-0.0085,0,0)" d="M221 334L338 334L470 330L489 375L485 382C404 378 344 376 266 376L229 376L276 646C308 647 391 650 413 650C475 650 516 641 517 626L525 537L549 537C552 601 559 651 570 689C549 691 519 692 501 692C498 692 487 692 463 691L343 690C334 689 160 691 150 691L105 692L102 664L156 662C180 661 191 653 191 635C191 621 187 589 182 559L95 55C91 37 79 30 35 23L30 -3L71 -2C102 -1 164 0 184 0L409 -3C423 -3 448 -2 481 -1L514 0L518 36C520 56 525 86 534 135L539 161L512 161L496 101C486 65 477 53 455 48C435 44 362 39 308 39C267 39 240 40 171 46Z" stroke="rgb(0,0,0)" stroke-opacity="1" stroke-width="8" fill="rgb(0,0,0)" fill-opacity="1"></path></g></g><g><g transform="matrix(1,0,0,1,176.73748779296875,18.5)"><path transform="matrix(0.0085,0,0,-0.0085,0,0)" d="M604 347L604 406L65 406L65 347ZM604 134L604 193L65 193L65 134Z" stroke="rgb(0,0,0)" stroke-opacity="1" stroke-width="8" fill="rgb(0,0,0)" fill-opacity="1"></path></g></g><g><g transform="matrix(1,0,0,1,184.96875,18.5)"><path transform="matrix(0.0085,0,0,-0.0085,0,0)" d="M263 689C108 689 29 566 29 324C29 207 50 106 85 57C120 8 176 -20 238 -20C389 -20 465 110 465 366C465 585 400 689 263 689ZM245 654C342 654 381 556 381 316C381 103 343 15 251 15C154 15 113 116 113 360C113 571 150 654 245 654Z" stroke="rgb(0,0,0)" stroke-opacity="1" stroke-width="8" fill="rgb(0,0,0)" fill-opacity="1"></path></g></g></g></g><g><g><g><g transform="matrix(1,0,0,1,32,16.5)"><path transform="matrix(0.0085,0,0,-0.0085,0,0)" d="M221 334L338 334L470 330L489 375L485 382C404 378 344 376 266 376L229 376L276 646C308 647 391 650 413 650C475 650 516 641 517 626L525 537L549 537C552 601 559 651 570 689C549 691 519 692 501 692C498 692 487 692 463 691L343 690C334 689 160 691 150 691L105 692L102 664L156 662C180 661 191 653 191 635C191 621 187 589 182 559L95 55C91 37 79 30 35 23L30 -3L71 -2C102 -1 164 0 184 0L409 -3C423 -3 448 -2 481 -1L514 0L518 36C520 56 525 86 534 135L539 161L512 161L496 101C486 65 477 53 455 48C435 44 362 39 308 39C267 39 240 40 171 46Z" stroke="rgb(0,0,0)" stroke-opacity="1" stroke-width="8" fill="rgb(0,0,0)" fill-opacity="1"></path></g></g><g><g transform="matrix(1,0,0,1,39.737518310546875,16.5)"><path transform="matrix(0.0085,0,0,-0.0085,0,0)" d="M604 347L604 406L65 406L65 347ZM604 134L604 193L65 193L65 134Z" stroke="rgb(0,0,0)" stroke-opacity="1" stroke-width="8" fill="rgb(0,0,0)" fill-opacity="1"></path></g></g><g><g transform="matrix(1,0,0,1,47.96875,16.5)"><path transform="matrix(0.0085,0,0,-0.0085,0,0)" d="M263 689C108 689 29 566 29 324C29 207 50 106 85 57C120 8 176 -20 238 -20C389 -20 465 110 465 366C465 585 400 689 263 689ZM245 654C342 654 381 556 381 316C381 103 343 15 251 15C154 15 113 116 113 360C113 571 150 654 245 654Z" stroke="rgb(0,0,0)" stroke-opacity="1" stroke-width="8" fill="rgb(0,0,0)" fill-opacity="1"></path></g></g></g></g><g transform="matrix(-1.8369701987210297e-16,-1,1,-1.8369701987210297e-16,51.11252117156984,90.8875150680542)"><g><g><g transform="matrix(1,0,0,1,60.893768310546875,23.387496948242188)"><path transform="matrix(0.0085,0,0,-0.0085,0,0)" d="M221 334L338 334L470 330L489 375L485 382C404 378 344 376 266 376L229 376L276 646C308 647 391 650 413 650C475 650 516 641 517 626L525 537L549 537C552 601 559 651 570 689C549 691 519 692 501 692C498 692 487 692 463 691L343 690C334 689 160 691 150 691L105 692L102 664L156 662C180 661 191 653 191 635C191 621 187 589 182 559L95 55C91 37 79 30 35 23L30 -3L71 -2C102 -1 164 0 184 0L409 -3C423 -3 448 -2 481 -1L514 0L518 36C520 56 525 86 534 135L539 161L512 161L496 101C486 65 477 53 455 48C435 44 362 39 308 39C267 39 240 40 171 46Z" stroke="rgb(0,0,0)" stroke-opacity="1" stroke-width="8" fill="rgb(0,0,0)" fill-opacity="1"></path></g></g><g><g transform="matrix(1,0,0,1,68.63125610351562,23.387496948242188)"><path transform="matrix(0.0085,0,0,-0.0085,0,0)" d="M604 347L604 406L65 406L65 347ZM604 134L604 193L65 193L65 134Z" stroke="rgb(0,0,0)" stroke-opacity="1" stroke-width="8" fill="rgb(0,0,0)" fill-opacity="1"></path></g></g><g><g transform="matrix(1,0,0,1,76.86251831054688,23.387496948242188)"><path transform="matrix(0.0085,0,0,-0.0085,0,0)" d="M263 689C108 689 29 566 29 324C29 207 50 106 85 57C120 8 176 -20 238 -20C389 -20 465 110 465 366C465 585 400 689 263 689ZM245 654C342 654 381 556 381 316C381 103 343 15 251 15C154 15 113 116 113 360C113 571 150 654 245 654Z" stroke="rgb(0,0,0)" stroke-opacity="1" stroke-width="8" fill="rgb(0,0,0)" fill-opacity="1"></path></g></g></g></g><g transform="matrix(-1.8369701987210297e-16,-1,1,-1.8369701987210297e-16,128.11252117156985,167.8875150680542)"><g><g><g transform="matrix(1,0,0,1,137.89376831054688,23.387496948242188)"><path transform="matrix(0.0085,0,0,-0.0085,0,0)" d="M221 334L338 334L470 330L489 375L485 382C404 378 344 376 266 376L229 376L276 646C308 647 391 650 413 650C475 650 516 641 517 626L525 537L549 537C552 601 559 651 570 689C549 691 519 692 501 692C498 692 487 692 463 691L343 690C334 689 160 691 150 691L105 692L102 664L156 662C180 661 191 653 191 635C191 621 187 589 182 559L95 55C91 37 79 30 35 23L30 -3L71 -2C102 -1 164 0 184 0L409 -3C423 -3 448 -2 481 -1L514 0L518 36C520 56 525 86 534 135L539 161L512 161L496 101C486 65 477 53 455 48C435 44 362 39 308 39C267 39 240 40 171 46Z" stroke="rgb(0,0,0)" stroke-opacity="1" stroke-width="8" fill="rgb(0,0,0)" fill-opacity="1"></path></g></g><g><g transform="matrix(1,0,0,1,145.63128662109375,23.387496948242188)"><path transform="matrix(0.0085,0,0,-0.0085,0,0)" d="M604 347L604 406L65 406L65 347ZM604 134L604 193L65 193L65 134Z" stroke="rgb(0,0,0)" stroke-opacity="1" stroke-width="8" fill="rgb(0,0,0)" fill-opacity="1"></path></g></g><g><g transform="matrix(1,0,0,1,153.86248779296875,23.387496948242188)"><path transform="matrix(0.0085,0,0,-0.0085,0,0)" d="M263 689C108 689 29 566 29 324C29 207 50 106 85 57C120 8 176 -20 238 -20C389 -20 465 110 465 366C465 585 400 689 263 689ZM245 654C342 654 381 556 381 316C381 103 343 15 251 15C154 15 113 116 113 360C113 571 150 654 245 654Z" stroke="rgb(0,0,0)" stroke-opacity="1" stroke-width="8" fill="rgb(0,0,0)" fill-opacity="1"></path></g></g></g></g><g><g><g><g><g><g><g transform="matrix(1,0,0,1,59.524993896484375,374.5000305175781)"><path transform="matrix(0.0085,0,0,-0.0085,0,0)" d="M151 -172C151 -95 175 -59 228 -59C257 -59 285 -67 324 -88L469 -164C529 -195 547 -201 587 -201C662 -201 698 -158 708 -61L683 -61C677 -115 655 -140 615 -140C598 -140 579 -135 553 -125L317 -29C292 -19 274 -15 251 -15C177 -15 126 -66 126 -142C126 -144 126 -151 127 -159ZM748 425C748 603 644 706 464 706C227 706 53 523 53 272C53 83 147 -18 323 -18C595 -18 748 207 748 425ZM660 409C660 221 571 24 360 24C216 24 141 110 141 277C141 425 199 664 433 664C549 664 660 610 660 409ZM1260 722L1248 733C1196 707 1160 698 1088 691L1084 670L1132 670C1156 670 1166 663 1166 646C1166 638 1165 629 1164 622L1136 468C1106 477 1079 482 1054 482C985 482 891 410 845 323C814 265 794 170 794 86C794 21 809 -11 838 -11C865 -11 902 6 936 33C990 77 1023 116 1090 217L1067 126C1056 82 1051 50 1051 24C1051 3 1060 -9 1077 -9C1094 -9 1118 3 1152 28L1233 88L1223 107L1179 76C1165 66 1149 59 1140 59C1132 59 1126 68 1126 82C1126 90 1127 99 1134 128ZM891 59C875 59 866 73 866 98C866 224 912 380 961 418C974 428 993 433 1020 433C1064 433 1093 427 1126 410L1114 351C1077 171 936 59 891 59Z" stroke="rgb(0,0,0)" stroke-opacity="1" stroke-width="8" fill="rgb(0,0,0)" fill-opacity="1"></path></g></g></g></g><g><g><g><g transform="matrix(1,0,0,1,57.850006103515625,387.5000305175781)"><path transform="matrix(0.0085,0,0,-0.0085,0,0)" d="M567 55C567 39 552 30 524 28L480 25L480 -3C582 0 582 0 602 0C622 0 622 0 724 -3L724 25L698 28C651 35 650 35 642 80L555 705L509 705L136 112C100 56 82 40 48 32L28 27L28 -3C120 0 120 0 140 0C159 0 161 0 247 -3L247 25L195 28C179 29 164 38 164 47C164 55 171 69 190 102L292 277L538 277L563 89L563 86C563 84 567 69 567 55ZM496 601L533 313L317 313ZM1083 222C1093 251 1099 268 1098 263C1019 261 942 262 864 262C883 349 938 438 1038 438C1098 438 1120 420 1147 369L1167 369L1208 422C1033 592 764 361 764 155C764 42 830 -11 937 -11C1014 -11 1078 47 1137 92L1137 111C1090 78 1034 39 975 39C901 39 840 126 856 220C868 219 1056 222 1083 222Z" stroke="rgb(0,0,0)" stroke-opacity="1" stroke-width="8" fill="rgb(0,0,0)" fill-opacity="1"></path></g></g><g><g><g><g><g transform="matrix(1,0,0,1,68.4375,390.0562438964844)"><path transform="matrix(0.007,0,0,-0.007,0,0)" d="M17 152C17 46 62 -11 145 -11C200 -11 260 15 305 57C367 116 411 230 411 331C411 425 361 482 278 482C174 482 17 382 17 152ZM241 444C302 444 335 399 335 315C335 219 304 113 260 60C242 39 216 27 185 27C127 27 93 72 93 151C93 264 132 387 181 427C194 438 217 444 241 444Z" stroke="rgb(0,0,0)" stroke-opacity="1" stroke-width="8" fill="rgb(0,0,0)" fill-opacity="1"></path></g></g></g></g></g></g></g><line style="fill:none;stroke-width:1px;stroke:rgb(0, 0, 0);" x1="57.850006103515625" y1="378.2749938964844" x2="72.05000591278076" y2="378.2749938964844"></line></g></g></g><g><g><g><g transform="matrix(1,0,0,1,92,335.6875305175781)"><path transform="matrix(0.017,0,0,-0.017,0,0)" d="M310 96L239 624C237 646 241 661 281 662L323 664L323 692L282 691C245 690 217 689 199 689C181 689 153 690 116 691L75 692L75 664L100 662C144 659 152 651 159 614L247 -8L296 -8L674 611C699 651 707 658 736 662L754 664L754 692L724 691C697 690 674 689 658 689C648 689 621 690 580 691L534 692L534 664L560 662C598 659 617 649 617 630C617 619 613 608 601 588Z" stroke="rgb(0,0,0)" stroke-opacity="1" stroke-width="8" fill="rgb(0,0,0)" fill-opacity="1"></path></g></g></g></g></svg>
</svg>
