<svg xmlns="http://www.w3.org/2000/svg" xmlns:xlink="http://www.w3.org/1999/xlink" x="0" y="0" width="662" height="125" style="
        width:662px;
        height:125px;
        background: transparent;
        fill: none;
">
        
        
        <svg xmlns="http://www.w3.org/2000/svg" class="role-diagram-draw-area"><g class="shapes-region" style="stroke: black; fill: none;"><g class="arrow-line"><path class="connection real" stroke-dasharray="" d="  M130,0 L130,110.57" style="stroke: rgb(155, 155, 155); stroke-opacity: 1; stroke-width: 1; fill: none; fill-opacity: 1;"/><g><g stroke="none" fill="rgb(155,155,155)" fill-opacity="1" transform="matrix(-1.8369701987210297e-16,-1,1,-1.8369701987210297e-16,130,55.287385039660364)" style="stroke: none; fill: rgb(155, 155, 155); stroke-width: 1;"><path d=" M8.93,-4.29 L0,0 L8.93,4.29 Z"/></g></g></g><g class="arrow-line"><path class="connection real" stroke-dasharray="" d="  M30,10 L130,110.57" style="stroke: rgb(155, 155, 155); stroke-opacity: 1; stroke-width: 1; fill: none; fill-opacity: 1;"/><g><g stroke="none" fill="rgb(155,155,155)" fill-opacity="1" transform="matrix(-0.7051294120334123,-0.7090786361789603,0.7090786361789603,-0.7051294120334123,80,60.28738503966039)" style="stroke: none; fill: rgb(155, 155, 155); stroke-width: 1;"><path d=" M8.93,-4.29 L0,0 L8.93,4.29 Z"/></g></g></g><g class="arrow-line"><path class="connection real" stroke-dasharray="" d="  M20,110 L130,110.57" style="stroke: rgb(155, 155, 155); stroke-opacity: 1; stroke-width: 1; fill: none; fill-opacity: 1;"/><g><g stroke="none" fill="rgb(155,155,155)" fill-opacity="1" transform="matrix(-0.9999862922474267,-0.00523596383142002,0.00523596383142002,-0.9999862922474267,74.99999999999999,110.28738503966038)" style="stroke: none; fill: rgb(155, 155, 155); stroke-width: 1;"><path d=" M8.93,-4.29 L0,0 L8.93,4.29 Z"/></g></g></g><g class="composite-shape"><path class="real" d=" M33.32,10 C33.32,8.17 31.83,6.68 30,6.68 C28.17,6.68 26.68,8.17 26.68,10 C26.68,11.83 28.17,13.32 30,13.32 C31.83,13.32 33.32,11.83 33.32,10 Z" style="stroke-width: 1; stroke: rgb(0, 0, 0); fill: none; fill-opacity: 1;"/></g><g class="composite-shape"><path class="real" d=" M67.64,44.32 C67.64,42.49 66.16,41 64.32,41 C62.49,41 61,42.49 61,44.32 C61,46.16 62.49,47.64 64.32,47.64 C66.16,47.64 67.64,46.16 67.64,44.32 Z" style="stroke-width: 1; stroke: rgb(0, 0, 0); fill: none; fill-opacity: 1;"/></g><g class="arrow-line"><path class="connection real" stroke-dasharray="" d="  M80,0 L130,110.57" style="stroke: rgb(155, 155, 155); stroke-opacity: 1; stroke-width: 1; fill: none; fill-opacity: 1;"/><g><g stroke="none" fill="rgb(155,155,155)" fill-opacity="1" transform="matrix(-0.4119915118135291,-0.911187683297795,0.911187683297795,-0.4119915118135291,105,55.28738503966038)" style="stroke: none; fill: rgb(155, 155, 155); stroke-width: 1;"><path d=" M8.93,-4.29 L0,0 L8.93,4.29 Z"/></g></g></g><g class="arrow-line"><path class="connection real" stroke-dasharray="" d="  M10,50 L130,110.57" style="stroke: rgb(155, 155, 155); stroke-opacity: 1; stroke-width: 1; fill: none; fill-opacity: 1;"/><g><g stroke="none" fill="rgb(155,155,155)" fill-opacity="1" transform="matrix(-0.8927431500216585,-0.4505659419989559,0.4505659419989559,-0.8927431500216585,70,80.28738503966036)" style="stroke: none; fill: rgb(155, 155, 155); stroke-width: 1;"><path d=" M8.93,-4.29 L0,0 L8.93,4.29 Z"/></g></g></g><g class="composite-shape"><path class="real" d=" M36.56,111.03 C36.45,90.33 43.18,69.46 57.15,52.06 C75.7,28.96 102.99,17.01 130.49,17.13 L130,110.57 Z" style="stroke-width: 1; stroke: none; fill: none; fill-opacity: 1; stroke-dasharray: 1.125, 3.35;"/><path class="real" d=" M36.56,111.03 C36.45,90.33 43.18,69.46 57.15,52.06 C75.7,28.96 102.99,17.01 130.49,17.13" style="stroke-width: 1; stroke: rgb(0, 0, 0); fill: none; fill-opacity: 1; stroke-dasharray: 1.125, 3.35;"/></g><g class="composite-shape"><path class="real" d=" M39.88,109.71 C39.88,107.88 38.39,106.39 36.56,106.39 C34.72,106.39 33.24,107.88 33.24,109.71 C33.24,111.54 34.72,113.03 36.56,113.03 C38.39,113.03 39.88,111.54 39.88,109.71 Z" style="stroke-width: 1; stroke: rgb(0, 0, 0); fill: none; fill-opacity: 1;"/></g><g class="arrow-line"><path class="connection real" stroke-dasharray="" d="  M134.49,108 L134.49,19.13" style="stroke: rgb(0, 0, 0); stroke-width: 1; fill: none; fill-opacity: 1;"/><g stroke="#000" transform="matrix(3.061616997868383e-16,1,-1,3.061616997868383e-16,134.48926451617052,17.1329845349197)" style="stroke: rgb(0, 0, 0); stroke-width: 1;"><path d=" M10.93,-3.29 Q4.96,-0.45 0,0 Q4.96,0.45 10.93,3.29"/></g><g stroke="#000" transform="matrix(-1.8369701987210297e-16,-1,1,-1.8369701987210297e-16,134.48926451617055,110)" style="stroke: rgb(0, 0, 0); stroke-width: 1;"><path d=" M10.93,-3.29 Q4.96,-0.45 0,0 Q4.96,0.45 10.93,3.29"/></g></g><g class="arrow-line"><path class="connection real" stroke-dasharray="" d="  M69.23,38.91 L35.41,5.09" style="stroke: rgb(0, 0, 0); stroke-width: 1; fill: none; fill-opacity: 1;"/><g stroke="#000" transform="matrix(0.7071067811865483,0.7071067811865467,-0.7071067811865467,0.7071067811865483,34,3.678558349609375)" style="stroke: rgb(0, 0, 0); stroke-width: 1;"><path d=" M10.93,-3.29 Q4.96,-0.45 0,0 Q4.96,0.45 10.93,3.29"/></g><g stroke="#000" transform="matrix(-0.7071067811865477,-0.7071067811865475,0.7071067811865475,-0.7071067811865477,70.64288330078125,40.321441650390625)" style="stroke: rgb(0, 0, 0); stroke-width: 1;"><path d=" M10.93,-3.29 Q4.96,-0.45 0,0 Q4.96,0.45 10.93,3.29"/></g></g><g/></g><g/><g/><g/></svg>
        <svg xmlns="http://www.w3.org/2000/svg" xmlns:xlink="http://www.w3.org/1999/xlink" width="660" height="123" style="width:660px;height:123px;font-family:Asana-Math, Asana;background:transparent;"><g><g><g><text x="18" y="12.399993896484375" style="white-space:pre;stroke:none;fill:rgb(0,0,0);fill-opacity:1;font-size:15px;font-family:&quot;Times New Roman&quot;, Times, serif;font-weight:400;font-style:normal;dominant-baseline:text-before-edge;text-decoration:none solid rgb(0, 0, 0);">A</text></g></g></g><g><g><g><text x="49" y="37.399993896484375" style="white-space:pre;stroke:none;fill:rgb(0,0,0);fill-opacity:1;font-size:15px;font-family:&quot;Times New Roman&quot;, Times, serif;font-weight:400;font-style:normal;dominant-baseline:text-before-edge;text-decoration:none solid rgb(0, 0, 0);">B</text></g></g></g><g><g><g><text x="23" y="94.39999389648438" style="white-space:pre;stroke:none;fill:rgb(0,0,0);fill-opacity:1;font-size:15px;font-family:&quot;Times New Roman&quot;, Times, serif;font-weight:400;font-style:normal;dominant-baseline:text-before-edge;text-decoration:none solid rgb(0, 0, 0);">C</text></g></g></g><g><g><g><text x="139" y="54.80000305175781" style="white-space:pre;stroke:none;fill:rgb(0,0,0);fill-opacity:1;font-size:12px;font-family:&quot;Times New Roman&quot;, Times, serif;font-weight:400;font-style:normal;dominant-baseline:text-before-edge;text-decoration:none solid rgb(0, 0, 0);">2 m</text></g></g></g><g><g><g><text x="51" y="9.800003051757812" style="white-space:pre;stroke:none;fill:rgb(0,0,0);fill-opacity:1;font-size:12px;font-family:&quot;Times New Roman&quot;, Times, serif;font-weight:400;font-style:normal;dominant-baseline:text-before-edge;text-decoration:none solid rgb(0, 0, 0);">1 m</text></g></g></g></svg>
</svg>
