<svg xmlns="http://www.w3.org/2000/svg" xmlns:xlink="http://www.w3.org/1999/xlink" x="0" y="0" width="662" height="151" style="
        width:662px;
        height:151px;
        background: transparent;
        fill: none;
">
        <svg xmlns="http://www.w3.org/2000/svg"><g><defs><pattern id=".944852546525405" width="20" height="20" patternUnits="userSpaceOnUse"><path d="M 20 0 L 0 0 0 20" fill="none" stroke="lightgray" stroke-width="0.5"/></pattern></defs><rect width="100%" height="100%" fill="url(#.944852546525405)" stroke="lightgray" stroke-width="0.5"/></g></svg>
        
        <svg xmlns="http://www.w3.org/2000/svg" class="role-diagram-draw-area"><g class="shapes-region" style="stroke: black; fill: none;"><g class="composite-shape"><path class="real" d=" M100,80 L20,140 L100,140 Z" style="stroke-width: 1; stroke: rgb(0, 0, 0); fill: rgb(220, 220, 220); fill-opacity: 1;"/></g><g class="composite-shape"><path class="real" d=" M68.99,78.07 L84.93,65.99 L97.01,81.93 L81.07,94.01 Z" style="stroke-width: 1; stroke: rgb(0, 0, 0); fill: none; fill-opacity: 1;"/></g><g class="arrow-line"><path class="connection real" stroke-dasharray="" d="  M90,73 L128.34,15.5" style="stroke: rgb(0, 0, 0); stroke-width: 1; fill: none; fill-opacity: 1;"/><g stroke="none" fill="#000" transform="matrix(-0.554699215611405,0.8320509480795584,-0.8320509480795584,-0.554699215611405,130,13)" style="stroke: none; fill: rgb(0, 0, 0); stroke-width: 1;"><path d=" M8.93,-4.29 L0,0 L8.93,4.29 Z"/></g></g><g/></g><g/><g/><g/></svg>
        <svg xmlns="http://www.w3.org/2000/svg" xmlns:xlink="http://www.w3.org/1999/xlink" width="660" height="149" style="width:660px;height:149px;font-family:Asana-Math, Asana;background:transparent;"><g><g><g><g transform="matrix(1,0,0,1,22,15.266664123535156)"><path transform="matrix(0.0136,0,0,-0.0136,0,0)" d="M216 327C244 329 274 330 319 330C393 330 420 327 438 318L446 293L451 234L481 234C478 327 478 327 478 345C478 361 478 361 481 461L451 461L446 409C445 400 442 391 438 383C420 375 392 372 326 372C284 372 250 373 216 375L216 642C246 649 264 650 323 650C371 650 427 644 458 636C482 630 485 625 485 602L485 537L520 537C520 597 525 645 536 689C487 691 457 692 414 692L307 691C258 689 223 689 198 689C169 689 169 689 22 692L22 662L70 659C116 656 121 648 121 569L121 120C121 41 116 33 70 30L22 27L22 -3C81 -1 116 0 168 0C220 0 256 -1 315 -3L315 27L267 30C221 33 216 41 216 120Z" stroke="rgb(0,0,0)" stroke-opacity="1" stroke-width="24" fill="rgb(0,0,0)" fill-opacity="1"></path></g></g><g><g transform="matrix(1,0,0,1,33.630218505859375,15.266664123535156)"><path transform="matrix(0.0136,0,0,-0.0136,0,0)" d="M604 347L604 406L65 406L65 347ZM604 134L604 193L65 193L65 134Z" stroke="rgb(0,0,0)" stroke-opacity="1" stroke-width="8" fill="rgb(0,0,0)" fill-opacity="1"></path></g></g><g><g transform="matrix(1,0,0,1,46.796875,15.266664123535156)"><path transform="matrix(0.0136,0,0,-0.0136,0,0)" d="M16 23L16 -3C203 -3 203 0 239 0C275 0 275 -3 468 -3L468 82C353 77 307 81 122 77L304 270C401 373 431 428 431 503C431 618 353 689 226 689C154 689 105 669 56 619L39 483L68 483L81 529C97 587 133 612 200 612C286 612 341 558 341 473C341 398 299 324 186 204ZM785 646L891 650C953 650 993 641 994 626L1002 537L1026 537C1029 600 1036 651 1047 689C1025 691 997 692 980 692L939 691L774 689L745 689C720 689 680 690 642 691L593 692L590 664L646 662C670 661 681 652 681 635C681 621 677 589 672 559L597 125C580 33 580 32 539 28L503 25L499 -3L533 -2C573 -1 605 0 626 0C644 0 673 -1 712 -2L764 -3L767 25L703 28C676 29 667 37 667 57C667 63 668 74 669 78L705 301L822 301C849 301 880 300 928 298L954 297L973 342L969 349C888 345 828 343 750 343L713 343L759 614C762 630 763 635 768 646Z" stroke="rgb(0,0,0)" stroke-opacity="1" stroke-width="8" fill="rgb(0,0,0)" fill-opacity="1"></path></g></g><g><g><g><g><g transform="matrix(1,0,0,1,61.54167175292969,17.999164123535156)"><path transform="matrix(0.009519999999999999,0,0,-0.009519999999999999,0,0)" d="M17 152C17 46 62 -11 145 -11C200 -11 260 15 305 57C367 116 411 230 411 331C411 425 361 482 278 482C174 482 17 382 17 152ZM241 444C302 444 335 399 335 315C335 219 304 113 260 60C242 39 216 27 185 27C127 27 93 72 93 151C93 264 132 387 181 427C194 438 217 444 241 444Z" stroke="rgb(0,0,0)" stroke-opacity="1" stroke-width="8" fill="rgb(0,0,0)" fill-opacity="1"></path></g></g></g></g></g><g><g><g><g><g transform="matrix(1,0,0,1,66.57292175292969,15.266664123535156)"><path transform="matrix(0.0136,0,0,-0.0136,0,0)" d="M288 254L430 420C436 427 447 431 464 431L478 431L478 459L396 459L272 284L196 400C181 422 170 435 136 469L20 449L25 423L46 421C64 420 86 406 96 392L216 218L67 42C60 33 47 27 37 27L20 27L20 0L106 0L240 192L373 -3C425 0 425 0 434 0C444 0 444 0 496 -3L496 27L471 30C459 31 447 39 436 54Z" stroke="rgb(0,0,0)" stroke-opacity="1" stroke-width="24" fill="rgb(0,0,0)" fill-opacity="1"></path></g></g></g></g><svg x="66.57292175292969" overflow="visible" y="0" height="7" width="7.005208492279053"><polyline points="0.00,6.24 3.50,3.91 7.01,6.24" style="fill:none;fill-opacity:1;stroke-width:1px;stroke:rgb(0,0,0);stroke-opacity:1;"></polyline></svg></g><g><g transform="matrix(1,0,0,1,76.296875,15.266664123535156)"><path transform="matrix(0.0136,0,0,-0.0136,0,0)" d="M604 241L604 300L364 300L364 538L305 538L305 300L65 300L65 241L305 241L305 0L364 0L364 241Z" stroke="rgb(0,0,0)" stroke-opacity="1" stroke-width="8" fill="rgb(0,0,0)" fill-opacity="1"></path></g></g><g><g transform="matrix(1,0,0,1,88.10417175292969,15.266664123535156)"><path transform="matrix(0.0136,0,0,-0.0136,0,0)" d="M462 224C462 345 355 366 308 374C388 436 418 482 418 541C418 630 344 689 233 689C165 689 120 670 72 622L43 498L74 498L92 554C103 588 166 622 218 622C283 622 336 569 336 506C336 431 277 368 206 368C198 368 187 369 174 370L159 371L147 318L154 312C192 329 211 334 238 334C321 334 369 281 369 190C369 88 308 21 215 21C169 21 128 36 98 64C74 86 61 109 42 163L15 153C36 92 44 56 50 6C103 -12 147 -20 184 -20C307 -20 462 87 462 224ZM785 646L891 650C953 650 993 641 994 626L1002 537L1026 537C1029 600 1036 651 1047 689C1025 691 997 692 980 692L939 691L774 689L745 689C720 689 680 690 642 691L593 692L590 664L646 662C670 661 681 652 681 635C681 621 677 589 672 559L597 125C580 33 580 32 539 28L503 25L499 -3L533 -2C573 -1 605 0 626 0C644 0 673 -1 712 -2L764 -3L767 25L703 28C676 29 667 37 667 57C667 63 668 74 669 78L705 301L822 301C849 301 880 300 928 298L954 297L973 342L969 349C888 345 828 343 750 343L713 343L759 614C762 630 763 635 768 646Z" stroke="rgb(0,0,0)" stroke-opacity="1" stroke-width="8" fill="rgb(0,0,0)" fill-opacity="1"></path></g></g><g><g><g><g><g transform="matrix(1,0,0,1,102.84896850585938,17.999164123535156)"><path transform="matrix(0.009519999999999999,0,0,-0.009519999999999999,0,0)" d="M17 152C17 46 62 -11 145 -11C200 -11 260 15 305 57C367 116 411 230 411 331C411 425 361 482 278 482C174 482 17 382 17 152ZM241 444C302 444 335 399 335 315C335 219 304 113 260 60C242 39 216 27 185 27C127 27 93 72 93 151C93 264 132 387 181 427C194 438 217 444 241 444Z" stroke="rgb(0,0,0)" stroke-opacity="1" stroke-width="8" fill="rgb(0,0,0)" fill-opacity="1"></path></g></g></g></g></g><g><g><g><g><g transform="matrix(1,0,0,1,107.88021850585938,15.266664123535156)"><path transform="matrix(0.0136,0,0,-0.0136,0,0)" d="M297 86C275 124 264 147 246 196L182 364C176 381 172 396 172 406C172 420 183 428 206 429L244 431L244 459C147 456 147 456 128 456C109 456 109 456 12 459L12 431L30 429C55 426 67 415 82 380L191 118C219 50 229 26 247 -24L224 -85C192 -169 153 -216 115 -216C99 -216 81 -208 64 -193L51 -193L27 -268C46 -278 62 -283 81 -283C148 -283 191 -247 229 -160L432 308C472 399 491 426 516 429L544 431L544 459C465 456 465 456 449 456C433 456 433 456 354 459L354 431L380 429C408 427 422 418 422 404C422 397 420 388 416 378Z" stroke="rgb(0,0,0)" stroke-opacity="1" stroke-width="24" fill="rgb(0,0,0)" fill-opacity="1"></path></g></g></g></g><svg x="107.88021850585938" overflow="visible" y="0" height="7" width="7.552083492279053"><polyline points="0.00,6.24 3.78,3.73 7.55,6.24" style="fill:none;fill-opacity:1;stroke-width:1px;stroke:rgb(0,0,0);stroke-opacity:1;"></polyline></svg></g></g></g><g><g><g><g transform="matrix(1,0,0,1,42,134.56666412353516)"><path transform="matrix(0.0119,0,0,-0.0119,0,0)" d="M237 -16C473 -16 572 316 576 504C578 618 546 702 419 702C159 702 72 412 69 199C67 80 101 -16 237 -16ZM401 676C536 676 506 491 485 381L169 381C194 485 272 676 401 676ZM253 13C102 13 147 261 163 349L479 349C454 237 396 13 253 13Z" stroke="rgb(0,0,0)" stroke-opacity="1" stroke-width="8" fill="rgb(0,0,0)" fill-opacity="1"></path></g></g></g></g></svg>
</svg>
