<svg xmlns="http://www.w3.org/2000/svg" xmlns:xlink="http://www.w3.org/1999/xlink" x="0" y="0" width="662" height="200" style="
        width:662px;
        height:200px;
        background: transparent;
        fill: none;
">
        <svg xmlns="http://www.w3.org/2000/svg"><g><defs><pattern id=".3822627630016566" width="20" height="20" patternUnits="userSpaceOnUse"><path d="M 20 0 L 0 0 0 20" fill="none" stroke="lightgray" stroke-width="0.5"/></pattern></defs><rect width="100%" height="100%" fill="url(#.3822627630016566)" stroke="lightgray" stroke-width="0.5"/></g></svg>
        
        <svg xmlns="http://www.w3.org/2000/svg" class="role-diagram-draw-area"><g class="shapes-region" style="stroke: black; fill: none;"><g class="arrow-line"><path class="connection real" stroke-dasharray="" d="  M140,100 L237,100" style="stroke: rgb(0, 0, 0); stroke-width: 1; fill: none; fill-opacity: 1;"/><g stroke="none" fill="#000" transform="matrix(-1,1.2246467991473532e-16,-1.2246467991473532e-16,-1,240,100)" style="stroke: none; fill: rgb(0, 0, 0); stroke-width: 1;"><path d=" M8.93,-4.29 L0,0 L8.93,4.29 Z"/></g></g><g class="arrow-line"><path class="connection real" stroke-dasharray="" d="  M140,100 L140,3" style="stroke: rgb(0, 0, 0); stroke-width: 1; fill: none; fill-opacity: 1;"/><g stroke="none" fill="#000" transform="matrix(3.061616997868383e-16,1,-1,3.061616997868383e-16,140,0)" style="stroke: none; fill: rgb(0, 0, 0); stroke-width: 1;"><path d=" M8.93,-4.29 L0,0 L8.93,4.29 Z"/></g></g><g class="composite-shape"><path class="real" d=" M120,100 C120,88.95 128.95,80 140,80 C151.05,80 160,88.95 160,100 C160,111.05 151.05,120 140,120 C128.95,120 120,111.05 120,100 Z" style="stroke-width: 1; stroke: rgb(0, 0, 0); stroke-opacity: 0.1; fill: none; fill-opacity: 1; stroke-dasharray: 1.125, 3.35;"/></g><g class="composite-shape"><path class="real" d=" M100,100 C100,77.91 117.91,60 140,60 C162.09,60 180,77.91 180,100 C180,122.09 162.09,140 140,140 C117.91,140 100,122.09 100,100 Z" style="stroke-width: 1; stroke: rgb(0, 0, 0); stroke-opacity: 0.1; fill: none; fill-opacity: 1; stroke-dasharray: 1.125, 3.35;"/></g><g class="composite-shape"><path class="real" d=" M60,100 C60,55.82 95.82,20 140,20 C184.18,20 220,55.82 220,100 C220,144.18 184.18,180 140,180 C95.82,180 60,144.18 60,100 Z" style="stroke-width: 1; stroke: rgb(0, 0, 0); stroke-opacity: 0.1; fill: none; fill-opacity: 1; stroke-dasharray: 1.125, 3.35;"/></g><g class="composite-shape"><path class="real" d=" M80,100 C80,66.86 106.86,40 140,40 C173.14,40 200,66.86 200,100 C200,133.14 173.14,160 140,160 C106.86,160 80,133.14 80,100 Z" style="stroke-width: 1; stroke: rgb(0, 0, 0); stroke-opacity: 0.1; fill: none; fill-opacity: 1; stroke-dasharray: 1.125, 3.35;"/></g><g class="composite-shape"><path class="real" d=" M177.4,100 C177.4,98.56 178.56,97.4 180,97.4 C181.44,97.4 182.6,98.56 182.6,100 C182.6,101.44 181.44,102.6 180,102.6 C178.56,102.6 177.4,101.44 177.4,100 Z" style="stroke-width: 1; stroke: rgb(0, 0, 0); fill: rgb(0, 0, 0); fill-opacity: 1;"/></g><g class="composite-shape"><path class="real" d=" M197.4,100 C197.4,98.56 198.56,97.4 200,97.4 C201.44,97.4 202.6,98.56 202.6,100 C202.6,101.44 201.44,102.6 200,102.6 C198.56,102.6 197.4,101.44 197.4,100 Z" style="stroke-width: 1; stroke: rgb(0, 0, 0); fill: rgb(0, 0, 0); fill-opacity: 1;"/></g><g class="composite-shape"><path class="real" d=" M137.4,60 C137.4,58.56 138.56,57.4 140,57.4 C141.44,57.4 142.6,58.56 142.6,60 C142.6,61.44 141.44,62.6 140,62.6 C138.56,62.6 137.4,61.44 137.4,60 Z" style="stroke-width: 1; stroke: rgb(0, 0, 0); fill: rgb(0, 0, 0); fill-opacity: 1;"/></g><g class="composite-shape"><path class="real" d=" M137.4,40 C137.4,38.56 138.56,37.4 140,37.4 C141.44,37.4 142.6,38.56 142.6,40 C142.6,41.44 141.44,42.6 140,42.6 C138.56,42.6 137.4,41.44 137.4,40 Z" style="stroke-width: 1; stroke: rgb(0, 0, 0); fill: rgb(0, 0, 0); fill-opacity: 1;"/></g><g class="composite-shape"><path class="real" d=" M97.4,100 C97.4,98.56 98.56,97.4 100,97.4 C101.44,97.4 102.6,98.56 102.6,100 C102.6,101.44 101.44,102.6 100,102.6 C98.56,102.6 97.4,101.44 97.4,100 Z" style="stroke-width: 1; stroke: rgb(0, 0, 0); fill: rgb(0, 0, 0); fill-opacity: 1;"/></g><g class="composite-shape"><path class="real" d=" M77.4,100 C77.4,98.56 78.56,97.4 80,97.4 C81.44,97.4 82.6,98.56 82.6,100 C82.6,101.44 81.44,102.6 80,102.6 C78.56,102.6 77.4,101.44 77.4,100 Z" style="stroke-width: 1; stroke: rgb(0, 0, 0); fill: rgb(0, 0, 0); fill-opacity: 1;"/></g><g class="composite-shape"><path class="real" d=" M137.4,140 C137.4,138.56 138.56,137.4 140,137.4 C141.44,137.4 142.6,138.56 142.6,140 C142.6,141.44 141.44,142.6 140,142.6 C138.56,142.6 137.4,141.44 137.4,140 Z" style="stroke-width: 1; stroke: rgb(0, 0, 0); fill: rgb(0, 0, 0); fill-opacity: 1;"/></g><g class="composite-shape"><path class="real" d=" M137.4,160 C137.4,158.56 138.56,157.4 140,157.4 C141.44,157.4 142.6,158.56 142.6,160 C142.6,161.44 141.44,162.6 140,162.6 C138.56,162.6 137.4,161.44 137.4,160 Z" style="stroke-width: 1; stroke: rgb(0, 0, 0); fill: rgb(0, 0, 0); fill-opacity: 1;"/></g><g/></g><g/><g/><g/></svg>
        <svg xmlns="http://www.w3.org/2000/svg" xmlns:xlink="http://www.w3.org/1999/xlink" width="660" height="198" style="width:660px;height:198px;font-family:Asana-Math, Asana;background:transparent;"></svg>
</svg>
