<svg xmlns="http://www.w3.org/2000/svg" xmlns:xlink="http://www.w3.org/1999/xlink" x="0" y="0" width="220" height="200" style="
        width:220;
        height:200px;
        background: transparent;
        fill: none;
">
        <svg xmlns="http://www.w3.org/2000/svg"><g><defs><pattern id=".7993639112904232" width="20" height="20" patternUnits="userSpaceOnUse"><path d="M 20 0 L 0 0 0 20" fill="none" stroke="lightgray" stroke-width="0.5"/></pattern></defs><rect width="100%" height="100%" fill="url(#.7993639112904232)" stroke="lightgray" stroke-width="0.5"/></g></svg>
        
        <svg xmlns="http://www.w3.org/2000/svg" class="role-diagram-draw-area"><g class="shapes-region" style="stroke: black; fill: none;"><g class="composite-shape"><path class="real" d=" M80,100 C80,88.95 88.95,80 100,80 C111.05,80 120,88.95 120,100 C120,111.05 111.05,120 100,120 C88.95,120 80,111.05 80,100 Z" style="stroke-width: 1; stroke: rgb(0, 0, 0); stroke-opacity: 0.1; fill: none; fill-opacity: 1; stroke-dasharray: 1.125, 3.35;"/></g><g class="arrow-line"><path class="connection real" stroke-dasharray="" d="  M120,100 L157,100" style="stroke: rgb(0, 0, 0); stroke-width: 1; fill: none; fill-opacity: 1;"/><g stroke="none" fill="#000" transform="matrix(-1,1.2246467991473532e-16,-1.2246467991473532e-16,-1,160,100.00000000000001)" style="stroke: none; fill: rgb(0, 0, 0); stroke-width: 1;"><path d=" M6.25,-3 L0,0 L6.25,3 Z"/></g></g><g class="arrow-line"><path class="connection real" stroke-dasharray="" d="  M179.32,100 L182,100" style="stroke: rgb(0, 0, 0); stroke-width: 1; fill: none; fill-opacity: 1;"/><g stroke="none" fill="#000" transform="matrix(-1,1.2246467991473532e-16,-1.2246467991473532e-16,-1,185,100)" style="stroke: none; fill: rgb(0, 0, 0); stroke-width: 1;"><path d=" M3.57,-1.72 L0,0 L3.57,1.72 Z"/></g></g><g class="arrow-line"><path class="connection real" stroke-dasharray="" d="  M80,100 L43,100" style="stroke: rgb(0, 0, 0); stroke-width: 1; fill: none; fill-opacity: 1;"/><g stroke="none" fill="#000" transform="matrix(1,-2.4492935982947064e-16,2.4492935982947064e-16,1,40,100)" style="stroke: none; fill: rgb(0, 0, 0); stroke-width: 1;"><path d=" M6.25,-3 L0,0 L6.25,3 Z"/></g></g><g class="arrow-line"><path class="connection real" stroke-dasharray="" d="  M100,80 L100,43" style="stroke: rgb(0, 0, 0); stroke-width: 1; fill: none; fill-opacity: 1;"/><g stroke="none" fill="#000" transform="matrix(3.061616997868383e-16,1,-1,3.061616997868383e-16,100,40)" style="stroke: none; fill: rgb(0, 0, 0); stroke-width: 1;"><path d=" M6.25,-3 L0,0 L6.25,3 Z"/></g></g><g class="arrow-line"><path class="connection real" stroke-dasharray="" d="  M100,121 L100,157" style="stroke: rgb(0, 0, 0); stroke-width: 1; fill: none; fill-opacity: 1;"/><g stroke="none" fill="#000" transform="matrix(-1.8369701987210297e-16,-1,1,-1.8369701987210297e-16,100,159.99999999999997)" style="stroke: none; fill: rgb(0, 0, 0); stroke-width: 1;"><path d=" M6.25,-3 L0,0 L6.25,3 Z"/></g></g><g class="arrow-line"><path class="connection real" stroke-dasharray="" d="  M100,20.68 L100,17" style="stroke: rgb(0, 0, 0); stroke-width: 1; fill: none; fill-opacity: 1;"/><g stroke="none" fill="#000" transform="matrix(3.061616997868383e-16,1,-1,3.061616997868383e-16,100,14)" style="stroke: none; fill: rgb(0, 0, 0); stroke-width: 1;"><path d=" M3.57,-1.72 L0,0 L3.57,1.72 Z"/></g></g><g class="arrow-line"><path class="connection real" stroke-dasharray="" d="  M20.68,100 L17,100" style="stroke: rgb(0, 0, 0); stroke-width: 1; fill: none; fill-opacity: 1;"/><g stroke="none" fill="#000" transform="matrix(1,-2.4492935982947064e-16,2.4492935982947064e-16,1,14,100)" style="stroke: none; fill: rgb(0, 0, 0); stroke-width: 1;"><path d=" M3.57,-1.72 L0,0 L3.57,1.72 Z"/></g></g><g class="arrow-line"><path class="connection real" stroke-dasharray="" d="  M100,180.32 L100,184" style="stroke: rgb(0, 0, 0); stroke-width: 1; fill: none; fill-opacity: 1;"/><g stroke="none" fill="#000" transform="matrix(-1.8369701987210297e-16,-1,1,-1.8369701987210297e-16,100,186.99999999999997)" style="stroke: none; fill: rgb(0, 0, 0); stroke-width: 1;"><path d=" M3.57,-1.72 L0,0 L3.57,1.72 Z"/></g></g><g class="composite-shape"><path class="real" d=" M20,100.68 C20,56.5 55.82,20.68 100,20.68 C144.18,20.68 180,56.5 180,100.68 C180,144.87 144.18,180.68 100,180.68 C55.82,180.68 20,144.87 20,100.68 Z" style="stroke-width: 1; stroke: rgb(0, 0, 0); stroke-opacity: 0.1; fill: none; fill-opacity: 1; stroke-dasharray: 1.125, 3.35;"/></g><g class="arrow-line"><path class="connection real" stroke-dasharray="" d="  M114.83,113.46 L140.99,139.62" style="stroke: rgb(0, 0, 0); stroke-width: 1; fill: none; fill-opacity: 1;"/><g stroke="none" fill="#000" transform="matrix(-0.7071067811865477,-0.7071067811865475,0.7071067811865475,-0.7071067811865477,143.11036472555412,141.7424490168316)" style="stroke: none; fill: rgb(0, 0, 0); stroke-width: 1;"><path d=" M6.25,-3 L0,0 L6.25,3 Z"/></g></g><g class="arrow-line"><path class="connection real" stroke-dasharray="" d="  M157.77,157.4 L160.2,159.83" style="stroke: rgb(0, 0, 0); stroke-width: 1; fill: none; fill-opacity: 1;"/><g stroke="none" fill="#000" transform="matrix(-0.7071067811865477,-0.7071067811865475,0.7071067811865475,-0.7071067811865477,162.3235681611505,161.95565245242798)" style="stroke: none; fill: rgb(0, 0, 0); stroke-width: 1;"><path d=" M3.57,-1.72 L0,0 L3.57,1.72 Z"/></g></g><g class="arrow-line"><path class="connection real" stroke-dasharray="" d="  M86.54,85.17 L60.38,59.01" style="stroke: rgb(0, 0, 0); stroke-width: 1; fill: none; fill-opacity: 1;"/><g stroke="none" fill="#000" transform="matrix(0.7071067811865483,0.7071067811865467,-0.7071067811865467,0.7071067811865483,58.257550983168414,56.889635274445894)" style="stroke: none; fill: rgb(0, 0, 0); stroke-width: 1;"><path d=" M6.25,-3 L0,0 L6.25,3 Z"/></g></g><g class="arrow-line"><path class="connection real" stroke-dasharray="" d="  M114.83,85.17 L140.99,59.01" style="stroke: rgb(0, 0, 0); stroke-width: 1; fill: none; fill-opacity: 1;"/><g stroke="none" fill="#000" transform="matrix(-0.7071067811865479,0.7071067811865471,-0.7071067811865471,-0.7071067811865479,143.11036472555415,56.88963527444588)" style="stroke: none; fill: rgb(0, 0, 0); stroke-width: 1;"><path d=" M6.25,-3 L0,0 L6.25,3 Z"/></g></g><g class="arrow-line"><path class="connection real" stroke-dasharray="" d="  M85.83,114.17 L60.38,139.62" style="stroke: rgb(0, 0, 0); stroke-width: 1; fill: none; fill-opacity: 1;"/><g stroke="none" fill="#000" transform="matrix(0.7071067811865474,-0.7071067811865477,0.7071067811865477,0.7071067811865474,58.257550983168414,141.7424490168316)" style="stroke: none; fill: rgb(0, 0, 0); stroke-width: 1;"><path d=" M6.25,-3 L0,0 L6.25,3 Z"/></g></g><g class="arrow-line"><path class="connection real" stroke-dasharray="" d="  M156.77,44.23 L159.2,41.8" style="stroke: rgb(0, 0, 0); stroke-width: 1; fill: none; fill-opacity: 1;"/><g stroke="none" fill="#000" transform="matrix(-0.7071067811865479,0.7071067811865471,-0.7071067811865471,-0.7071067811865479,161.32356816115052,39.67643183884948)" style="stroke: none; fill: rgb(0, 0, 0); stroke-width: 1;"><path d=" M3.57,-1.72 L0,0 L3.57,1.72 Z"/></g></g><g class="arrow-line"><path class="connection real" stroke-dasharray="" d="  M43.6,44.23 L41.17,41.8" style="stroke: rgb(0, 0, 0); stroke-width: 1; fill: none; fill-opacity: 1;"/><g stroke="none" fill="#000" transform="matrix(0.7071067811865483,0.7071067811865467,-0.7071067811865467,0.7071067811865483,39.044347547572045,39.676431838849524)" style="stroke: none; fill: rgb(0, 0, 0); stroke-width: 1;"><path d=" M3.57,-1.72 L0,0 L3.57,1.72 Z"/></g></g><g class="arrow-line"><path class="connection real" stroke-dasharray="" d="  M43.6,157.4 L41.17,159.83" style="stroke: rgb(0, 0, 0); stroke-width: 1; fill: none; fill-opacity: 1;"/><g stroke="none" fill="#000" transform="matrix(0.7071067811865474,-0.7071067811865477,0.7071067811865477,0.7071067811865474,39.04434754757199,161.95565245242804)" style="stroke: none; fill: rgb(0, 0, 0); stroke-width: 1;"><path d=" M3.57,-1.72 L0,0 L3.57,1.72 Z"/></g></g><g/></g><g/><g/><g/></svg>
        <svg xmlns="http://www.w3.org/2000/svg" xmlns:xlink="http://www.w3.org/1999/xlink" width="660" height="198" style="width:660px;height:198px;font-family:Asana-Math, Asana;background:transparent;"><g><g><g><g><g><g><g><g><g><g transform="matrix(1,0,0,1,196.49481201171875,26.26667175292969)"><path transform="matrix(0.0136,0,0,-0.0136,0,0)" d="M23 400L60 400C100 400 104 393 104 327L104 102C104 39 101 32 67 30L21 27L21 -3C93 -1 119 0 144 0C164 0 164 0 287 -3L287 27L235 30C190 33 188 36 188 102L188 274C188 334 228 384 277 384C307 384 328 370 344 338L365 338L374 458C363 465 345 469 327 469C297 469 265 453 244 428L188 362L188 465L179 469C128 448 76 434 23 428Z" stroke="rgb(0,0,0)" stroke-opacity="1" stroke-width="24" fill="rgb(0,0,0)" fill-opacity="1"></path></g></g></g></g><svg x="196.49481201171875" overflow="visible" y="11" height="7" width="5.359375"><polyline points="0.00,6.24 2.68,4.46 5.36,6.24" style="fill:none;fill-opacity:1;stroke-width:1px;stroke:rgb(0,0,0);stroke-opacity:1;"></polyline></svg></g></g></g><g><g><g><g transform="matrix(1,0,0,1,193.359375,46.459375)"><path transform="matrix(0.0136,0,0,-0.0136,0,0)" d="M368 365C371 403 376 435 384 476C373 481 369 482 364 482C333 482 302 458 266 407C227 351 188 291 172 256L204 408C208 425 210 438 210 450C210 470 202 482 187 482C166 482 128 461 54 408L26 388L33 368L65 389C93 407 104 412 113 412C123 412 130 403 130 390C130 332 87 126 47 -2L57 -9C72 -4 88 -1 111 4L124 6L150 126C168 209 191 262 235 319C269 363 296 384 318 384C333 384 343 379 354 365Z" stroke="rgb(0,0,0)" stroke-opacity="1" stroke-width="8" fill="rgb(0,0,0)" fill-opacity="1"></path></g></g><g><g><g><g><g transform="matrix(1,0,0,1,199.4271240234375,41.519999999999996)"><path transform="matrix(0.009519999999999999,0,0,-0.009519999999999999,0,0)" d="M16 23L16 -3C203 -3 203 0 239 0C275 0 275 -3 468 -3L468 82C353 77 307 81 122 77L304 270C401 373 431 428 431 503C431 618 353 689 226 689C154 689 105 669 56 619L39 483L68 483L81 529C97 587 133 612 200 612C286 612 341 558 341 473C341 398 299 324 186 204Z" stroke="rgb(0,0,0)" stroke-opacity="1" stroke-width="8" fill="rgb(0,0,0)" fill-opacity="1"></path></g></g></g></g></g></g></g><line style="fill:none;stroke-width:1px;stroke:rgb(0, 0, 0);" x1="193.359375" y1="31.9375" x2="204.9947919845581" y2="31.9375"></line></g></g></g></svg>
</svg>
