<svg xmlns="http://www.w3.org/2000/svg" xmlns:xlink="http://www.w3.org/1999/xlink" x="0" y="0" width="662" height="200" style="
        width:662px;
        height:200px;
        background: transparent;
        fill: none;
">
        
        
        <svg xmlns="http://www.w3.org/2000/svg" class="role-diagram-draw-area"><g class="shapes-region" style="stroke: black; fill: none;"><g class="composite-shape"><path class="real" d=" M100,100 C100,77.91 117.91,60 140,60 C162.09,60 180,77.91 180,100 C180,122.09 162.09,140 140,140 C117.91,140 100,122.09 100,100 Z" style="stroke-width: 1; stroke: rgb(0, 0, 0); stroke-opacity: 0.1; fill: rgb(155, 155, 155); fill-opacity: 1; stroke-dasharray: 1.125, 3.35;"/></g><g class="composite-shape"><path class="real" d=" M120,100 C120,88.95 128.95,80 140,80 C151.05,80 160,88.95 160,100 C160,111.05 151.05,120 140,120 C128.95,120 120,111.05 120,100 Z" style="stroke-width: 1; stroke: rgb(0, 0, 0); stroke-opacity: 0.1; fill: none; fill-opacity: 1; stroke-dasharray: 1.125, 3.35;"/></g><g class="composite-shape"><path class="real" d=" M60,100 C60,55.82 95.82,20 140,20 C184.18,20 220,55.82 220,100 C220,144.18 184.18,180 140,180 C95.82,180 60,144.18 60,100 Z" style="stroke-width: 1; stroke: rgb(0, 0, 0); stroke-opacity: 0.1; fill: none; fill-opacity: 1; stroke-dasharray: 1.125, 3.35;"/></g><g class="composite-shape"><path class="real" d=" M80,100 C80,66.86 106.86,40 140,40 C173.14,40 200,66.86 200,100 C200,133.14 173.14,160 140,160 C106.86,160 80,133.14 80,100 Z" style="stroke-width: 1; stroke: rgb(0, 0, 0); stroke-opacity: 0.1; fill: none; fill-opacity: 1; stroke-dasharray: 1.125, 3.35;"/></g><g class="arrow-line"><path class="connection real" stroke-dasharray="" d="  M160,100 L167,100" style="stroke: rgb(0, 0, 0); stroke-width: 1; fill: none; fill-opacity: 1;"/><g stroke="none" fill="#000" transform="matrix(-1,1.2246467991473532e-16,-1.2246467991473532e-16,-1,170,100.00000000000001)" style="stroke: none; fill: rgb(0, 0, 0); stroke-width: 1;"><path d=" M3.57,-1.72 L0,0 L3.57,1.72 Z"/></g></g><g class="arrow-line"><path class="connection real" stroke-dasharray="" d="  M180,100 L197,100" style="stroke: rgb(0, 0, 0); stroke-width: 1; fill: none; fill-opacity: 1;"/><g stroke="none" fill="#000" transform="matrix(-1,1.2246467991473532e-16,-1.2246467991473532e-16,-1,200,100)" style="stroke: none; fill: rgb(0, 0, 0); stroke-width: 1;"><path d=" M3.57,-1.72 L0,0 L3.57,1.72 Z"/></g></g><g class="arrow-line"><path class="connection real" stroke-dasharray="" d="  M200,100 L210.12,99.92" style="stroke: rgb(0, 0, 0); stroke-width: 1; fill: none; fill-opacity: 1;"/><g stroke="none" fill="#000" transform="matrix(-0.9999705131786779,0.00767937322778436,-0.00767937322778436,-0.9999705131786779,213.12,99.90000000000002)" style="stroke: none; fill: rgb(0, 0, 0); stroke-width: 1;"><path d=" M3.57,-1.72 L0,0 L3.57,1.72 Z"/></g></g><g class="arrow-line"><path class="connection real" stroke-dasharray="" d="  M220,100 L227,100" style="stroke: rgb(0, 0, 0); stroke-width: 1; fill: none; fill-opacity: 1;"/><g stroke="none" fill="#000" transform="matrix(-1,1.2246467991473532e-16,-1.2246467991473532e-16,-1,230,100)" style="stroke: none; fill: rgb(0, 0, 0); stroke-width: 1;"><path d=" M3.57,-1.72 L0,0 L3.57,1.72 Z"/></g></g><g class="arrow-line"><path class="connection real" stroke-dasharray="" d="  M140,80 L140,73" style="stroke: rgb(0, 0, 0); stroke-width: 1; fill: none; fill-opacity: 1;"/><g stroke="none" fill="#000" transform="matrix(3.061616997868383e-16,1,-1,3.061616997868383e-16,140,70)" style="stroke: none; fill: rgb(0, 0, 0); stroke-width: 1;"><path d=" M3.57,-1.72 L0,0 L3.57,1.72 Z"/></g></g><g class="arrow-line"><path class="connection real" stroke-dasharray="" d="  M140,60 L140,43" style="stroke: rgb(0, 0, 0); stroke-width: 1; fill: none; fill-opacity: 1;"/><g stroke="none" fill="#000" transform="matrix(3.061616997868383e-16,1,-1,3.061616997868383e-16,140,40)" style="stroke: none; fill: rgb(0, 0, 0); stroke-width: 1;"><path d=" M3.57,-1.72 L0,0 L3.57,1.72 Z"/></g></g><g class="arrow-line"><path class="connection real" stroke-dasharray="" d="  M140,40 L139.92,29.88" style="stroke: rgb(0, 0, 0); stroke-width: 1; fill: none; fill-opacity: 1;"/><g stroke="none" fill="#000" transform="matrix(0.007679373227782522,0.9999705131786779,-0.9999705131786779,0.007679373227782522,139.90000000000003,26.87999999999994)" style="stroke: none; fill: rgb(0, 0, 0); stroke-width: 1;"><path d=" M3.57,-1.72 L0,0 L3.57,1.72 Z"/></g></g><g class="arrow-line"><path class="connection real" stroke-dasharray="" d="  M140,20 L140,13" style="stroke: rgb(0, 0, 0); stroke-width: 1; fill: none; fill-opacity: 1;"/><g stroke="none" fill="#000" transform="matrix(3.061616997868383e-16,1,-1,3.061616997868383e-16,140,9.999999999999943)" style="stroke: none; fill: rgb(0, 0, 0); stroke-width: 1;"><path d=" M3.57,-1.72 L0,0 L3.57,1.72 Z"/></g></g><g class="arrow-line"><path class="connection real" stroke-dasharray="" d="  M120,100 L113,100" style="stroke: rgb(0, 0, 0); stroke-width: 1; fill: none; fill-opacity: 1;"/><g stroke="none" fill="#000" transform="matrix(1,-2.4492935982947064e-16,2.4492935982947064e-16,1,110,100.00000000000003)" style="stroke: none; fill: rgb(0, 0, 0); stroke-width: 1;"><path d=" M3.57,-1.72 L0,0 L3.57,1.72 Z"/></g></g><g class="arrow-line"><path class="connection real" stroke-dasharray="" d="  M100,100 L83,100" style="stroke: rgb(0, 0, 0); stroke-width: 1; fill: none; fill-opacity: 1;"/><g stroke="none" fill="#000" transform="matrix(1,-2.4492935982947064e-16,2.4492935982947064e-16,1,80.00000000000006,100)" style="stroke: none; fill: rgb(0, 0, 0); stroke-width: 1;"><path d=" M3.57,-1.72 L0,0 L3.57,1.72 Z"/></g></g><g class="arrow-line"><path class="connection real" stroke-dasharray="" d="  M80,100 L69.88,100.08" style="stroke: rgb(0, 0, 0); stroke-width: 1; fill: none; fill-opacity: 1;"/><g stroke="none" fill="#000" transform="matrix(0.9999705131786779,-0.007679373227783349,0.007679373227783349,0.9999705131786779,66.88,100.09999999999998)" style="stroke: none; fill: rgb(0, 0, 0); stroke-width: 1;"><path d=" M3.57,-1.72 L0,0 L3.57,1.72 Z"/></g></g><g class="arrow-line"><path class="connection real" stroke-dasharray="" d="  M60,100 L53,100" style="stroke: rgb(0, 0, 0); stroke-width: 1; fill: none; fill-opacity: 1;"/><g stroke="none" fill="#000" transform="matrix(1,-2.4492935982947064e-16,2.4492935982947064e-16,1,50,100.00000000000001)" style="stroke: none; fill: rgb(0, 0, 0); stroke-width: 1;"><path d=" M3.57,-1.72 L0,0 L3.57,1.72 Z"/></g></g><g class="arrow-line"><path class="connection real" stroke-dasharray="" d="  M140,120 L140,127" style="stroke: rgb(0, 0, 0); stroke-width: 1; fill: none; fill-opacity: 1;"/><g stroke="none" fill="#000" transform="matrix(-1.8369701987210297e-16,-1,1,-1.8369701987210297e-16,140,129.99999999999997)" style="stroke: none; fill: rgb(0, 0, 0); stroke-width: 1;"><path d=" M3.57,-1.72 L0,0 L3.57,1.72 Z"/></g></g><g class="arrow-line"><path class="connection real" stroke-dasharray="" d="  M140,140 L140,157" style="stroke: rgb(0, 0, 0); stroke-width: 1; fill: none; fill-opacity: 1;"/><g stroke="none" fill="#000" transform="matrix(-1.8369701987210297e-16,-1,1,-1.8369701987210297e-16,140,159.99999999999997)" style="stroke: none; fill: rgb(0, 0, 0); stroke-width: 1;"><path d=" M3.57,-1.72 L0,0 L3.57,1.72 Z"/></g></g><g class="arrow-line"><path class="connection real" stroke-dasharray="" d="  M140,160 L140.08,170.12" style="stroke: rgb(0, 0, 0); stroke-width: 1; fill: none; fill-opacity: 1;"/><g stroke="none" fill="#000" transform="matrix(-0.007679373227783288,-0.9999705131786779,0.9999705131786779,-0.007679373227783288,140.0999999999999,173.1199999999999)" style="stroke: none; fill: rgb(0, 0, 0); stroke-width: 1;"><path d=" M3.57,-1.72 L0,0 L3.57,1.72 Z"/></g></g><g class="arrow-line"><path class="connection real" stroke-dasharray="" d="  M140,180 L140,187" style="stroke: rgb(0, 0, 0); stroke-width: 1; fill: none; fill-opacity: 1;"/><g stroke="none" fill="#000" transform="matrix(-1.8369701987210297e-16,-1,1,-1.8369701987210297e-16,140,189.99999999999997)" style="stroke: none; fill: rgb(0, 0, 0); stroke-width: 1;"><path d=" M3.57,-1.72 L0,0 L3.57,1.72 Z"/></g></g><g/></g><g/><g/><g/></svg>
        <svg xmlns="http://www.w3.org/2000/svg" xmlns:xlink="http://www.w3.org/1999/xlink" width="660" height="198" style="width:660px;height:198px;font-family:Asana-Math, Asana;background:transparent;"></svg>
</svg>
